<svg class="img-fluid" id="outputsvg" xmlns="http://www.w3.org/2000/svg" style="transform: matrix(1, 0, 0, 1, 0, 0); transform-origin: 50% 50%; cursor: move;" width="736" height="1308" viewBox="0 0 7360 13080"><g id="l3mlNmWbxRHEB7QTHCcY8q4" fill="rgb(77,23,116)" style="transform: none;"><g style="transform: none;"><path id="pYGgMQYNi" d="M0 11974 l0 -1107 45 6 c98 14 308 88 470 167 105 50 130 68 198 136 102 102 136 162 144 252 5 59 2 78 -21 138 -40 101 -55 131 -101 209 -134 224 -232 405 -250 465 -4 13 -22 56 -40 95 -69 149 -99 236 -88 254 16 24 49 16 128 -31 77 -46 225 -187 294 -281 60 -82 155 -172 210 -199 40 -20 61 -23 161 -23 126 0 146 5 290 70 52 23 129 57 170 75 128 56 240 123 304 181 98 89 186 159 200 159 21 0 36 -23 36 -55 0 -53 -68 -148 -234 -326 -214 -230 -282 -279 -531 -384 -152 -65 -288 -155 -367 -244 -47 -54 -98 -150 -98 -186 0 -53 -32 -178 -58 -226 -33 -59 -266 -297 -377 -384 -120 -93 -269 -162 -427 -196 l-58 -12 0 -434 0 -433 38 0 c95 0 329 80 509 174 148 77 250 197 358 421 184 383 196 406 264 477 58 63 79 77 206 138 77 37 185 87 240 110 187 79 240 122 379 304 121 157 147 167 430 164 l211 -2 84 34 c103 42 183 111 243 212 37 62 42 79 46 148 5 88 -9 143 -64 250 -44 85 -151 258 -189 306 -17 22 -39 53 -49 69 -46 73 -159 215 -211 265 -88 85 -144 177 -179 293 l-18 57 -1149 0 -1149 0 0 -1106z"></path><path id="pKciWWmII" d="M2670 13047 c0 -44 52 -130 138 -226 37 -42 103 -117 145 -168 138 -163 205 -203 348 -203 97 0 179 20 274 65 39 19 111 52 160 73 226 100 269 125 403 243 68 59 87 71 100 62 39 -24 22 -116 -34 -191 -59 -76 -274 -290 -351 -348 -66 -50 -137 -87 -358 -189 -158 -72 -302 -186 -363 -287 -21 -36 -37 -81 -47 -134 -22 -122 -38 -184 -47 -190 -4 -3 -8 -14 -8 -25 0 -30 -335 -366 -428 -430 -41 -29 -97 -60 -125 -71 -68 -26 -213 -54 -322 -63 -159 -12 -252 -55 -361 -167 -134 -137 -170 -221 -167 -388 2 -154 22 -203 127 -305 128 -125 300 -199 419 -180 55 8 134 50 191 102 66 59 130 100 259 167 137 71 183 103 242 168 80 89 152 216 265 468 19 41 44 92 57 112 13 21 23 41 23 45 0 10 49 81 84 123 71 84 146 128 413 244 265 114 317 147 411 256 75 86 133 184 230 390 124 262 137 284 211 359 77 76 144 116 351 207 221 98 267 124 334 194 69 72 176 250 176 293 l0 27 -1375 0 -1375 0 0 -33z"></path><path id="plOcv9By4" d="M5700 13056 c0 -13 7 -43 16 -67 27 -76 43 -186 32 -226 -29 -107 -87 -144 -293 -189 -109 -23 -188 -63 -266 -134 -167 -150 -229 -326 -184 -518 8 -34 24 -80 34 -100 37 -73 177 -180 312 -238 67 -30 88 -34 161 -34 84 0 182 20 298 61 30 11 88 26 127 35 84 17 300 92 372 128 27 14 83 39 123 55 117 46 228 106 290 156 121 95 197 233 185 334 -11 94 -86 244 -274 551 -22 36 -57 98 -77 138 l-36 72 -410 0 -410 0 0 -24z"></path><path id="plVDE8nym" d="M6950 13048 c0 -25 11 -42 49 -79 69 -66 159 -89 295 -74 l66 7 0 89 0 89 -205 0 -205 0 0 -32z"></path><path id="prCi0UWVL" d="M7244 12509 c-80 -40 -169 -113 -223 -183 -44 -56 -47 -65 -87 -266 -15 -74 -68 -148 -212 -296 -81 -83 -176 -172 -211 -198 -35 -26 -154 -92 -265 -146 -273 -133 -334 -189 -398 -363 -65 -179 -116 -243 -193 -241 -97 3 -265 92 -345 183 -60 68 -143 217 -205 371 -133 327 -196 388 -411 398 -122 5 -191 -10 -249 -53 -51 -39 -371 -361 -447 -451 -157 -186 -191 -244 -209 -366 -15 -100 0 -218 37 -290 17 -34 77 -105 168 -198 146 -151 187 -209 236 -329 39 -94 47 -175 23 -220 -39 -75 -99 -88 -174 -38 -51 33 -131 163 -189 305 -68 166 -126 278 -165 317 -17 17 -58 44 -90 60 -55 28 -65 30 -179 30 -113 0 -125 -2 -179 -29 -79 -38 -275 -225 -598 -569 -125 -133 -139 -150 -159 -212 -19 -57 -22 -80 -16 -144 14 -167 69 -272 231 -441 143 -149 226 -288 315 -525 61 -162 114 -274 162 -338 18 -25 54 -74 80 -109 105 -142 162 -262 174 -362 11 -94 -44 -176 -118 -176 -13 0 -48 15 -78 33 -64 38 -100 87 -186 255 -73 144 -142 223 -215 247 -39 13 -76 16 -167 13 -172 -6 -208 -25 -388 -204 -76 -77 -161 -155 -188 -173 -56 -37 -175 -97 -261 -132 -130 -52 -314 -168 -382 -241 -50 -53 -90 -136 -103 -215 -17 -98 -50 -190 -88 -245 -34 -49 -243 -264 -317 -327 -64 -54 -145 -100 -305 -171 -171 -77 -263 -133 -336 -205 -74 -73 -95 -118 -123 -266 -31 -160 -37 -179 -72 -233 -21 -31 -50 -58 -85 -78 l-54 -30 0 -379 0 -379 24 0 c57 0 156 122 277 340 86 153 142 209 285 282 60 31 144 70 186 87 122 48 262 116 314 151 130 90 256 274 369 540 94 222 187 343 325 424 59 35 272 136 286 136 3 0 45 19 93 43 186 94 206 114 339 343 75 129 179 201 278 191 113 -11 183 -65 287 -219 42 -62 125 -171 185 -243 237 -282 284 -316 447 -323 117 -5 189 11 305 65 41 19 113 51 160 70 251 104 362 190 456 353 30 54 37 77 42 138 5 80 -2 115 -53 252 -16 42 -68 121 -127 193 -131 158 -203 289 -324 589 -86 213 -146 349 -224 508 -23 47 -55 117 -70 155 -16 39 -47 103 -69 144 -23 41 -41 76 -41 79 0 3 -31 39 -68 81 -119 133 -135 156 -123 179 22 41 82 43 159 5 54 -27 69 -42 277 -273 33 -36 94 -108 135 -159 149 -186 188 -218 300 -247 122 -31 226 -9 439 93 64 30 134 62 156 71 178 70 307 181 346 299 19 57 21 80 16 187 -5 144 -16 179 -118 381 -139 274 -166 330 -174 355 -4 14 -32 76 -62 138 -41 82 -78 138 -137 208 -112 132 -115 137 -92 163 25 27 77 27 133 0 28 -14 125 -102 274 -249 272 -268 304 -290 428 -290 114 0 153 23 280 159 104 112 162 157 256 198 102 44 192 83 275 117 144 60 220 106 295 178 88 83 144 174 282 459 135 277 182 342 286 395 l47 24 0 435 0 435 -27 0 c-16 0 -55 -14 -89 -31z"></path><path id="pvwPEPQam" d="M7224 11041 c-66 -31 -106 -68 -356 -331 -193 -203 -330 -369 -370 -450 -30 -60 -32 -74 -36 -186 -7 -197 12 -238 198 -429 172 -177 232 -270 266 -411 22 -90 14 -133 -32 -179 -43 -44 -73 -45 -137 -5 -65 42 -135 154 -207 335 -57 144 -116 249 -164 293 -74 68 -123 86 -241 86 -91 1 -104 -2 -145 -26 -25 -14 -64 -46 -87 -70 -59 -61 -190 -248 -281 -401 -79 -134 -198 -274 -268 -318 -31 -19 -143 -144 -204 -227 -45 -61 -157 -142 -252 -183 -158 -67 -221 -115 -275 -206 -40 -69 -53 -136 -53 -278 0 -222 38 -358 135 -489 56 -76 59 -142 10 -236 -9 -18 -21 -72 -25 -121 -23 -243 -56 -304 -291 -534 -171 -167 -221 -204 -377 -276 -282 -130 -398 -215 -472 -343 -35 -62 -42 -83 -70 -208 -26 -119 -55 -170 -152 -264 -210 -204 -334 -303 -450 -360 -152 -74 -264 -80 -391 -21 -119 56 -177 137 -286 402 -23 55 -67 151 -98 212 -61 123 -82 145 -181 191 -52 24 -68 27 -172 27 -171 0 -183 -7 -408 -229 -190 -187 -326 -343 -399 -455 -88 -137 -97 -344 -21 -495 11 -23 71 -93 133 -156 182 -187 232 -266 302 -479 44 -135 53 -204 28 -231 -51 -57 -199 23 -285 153 -45 68 -115 209 -160 321 -82 208 -150 288 -275 325 -64 19 -93 23 -160 19 -118 -8 -157 -31 -294 -177 -67 -72 -135 -134 -167 -153 l-54 -33 0 -680 0 -681 52 -26 c164 -81 472 -364 639 -588 41 -54 136 -148 177 -173 20 -13 55 -30 77 -37 22 -7 44 -16 50 -21 5 -5 16 -9 25 -9 58 0 170 -90 170 -136 0 -48 -57 -131 -170 -248 -116 -121 -180 -202 -180 -229 0 -7 -6 -33 -14 -58 -7 -24 -19 -72 -25 -107 -17 -89 -64 -161 -188 -287 -234 -238 -364 -325 -558 -369 l-50 -11 -3 -393 -2 -392 222 1 223 0 102 112 c146 161 193 230 289 426 193 395 266 441 454 283 89 -75 143 -101 223 -109 90 -8 180 10 330 68 188 72 293 131 387 217 68 62 87 88 122 159 38 80 40 89 35 148 -9 91 -50 188 -150 352 -125 204 -161 271 -236 433 -76 165 -107 214 -200 314 -36 39 -77 84 -90 99 l-24 27 23 25 c56 60 179 17 284 -98 33 -37 95 -105 136 -151 41 -45 114 -129 162 -187 113 -135 150 -170 223 -208 55 -28 68 -31 156 -31 107 0 203 27 334 92 39 20 81 39 95 43 14 4 72 30 130 58 173 84 269 165 330 278 30 57 34 73 34 144 1 101 -26 172 -141 370 -75 130 -175 329 -269 535 -83 184 -169 266 -359 345 -307 127 -415 227 -560 515 -32 63 -68 142 -80 175 -61 161 -115 253 -215 365 -37 41 -75 87 -85 103 -17 26 -17 28 0 47 31 34 76 35 140 4 46 -23 86 -59 193 -174 265 -283 332 -342 436 -384 67 -26 270 -28 359 -3 179 50 312 188 437 452 201 422 204 427 279 497 61 57 89 73 228 135 87 39 183 80 213 91 244 89 379 220 505 487 169 358 218 441 311 521 67 58 111 83 203 113 156 51 231 7 337 -199 32 -62 69 -114 106 -152 l56 -58 -33 -18 c-36 -19 -109 -100 -160 -177 -80 -123 -135 -152 -251 -135 -147 21 -287 9 -368 -32 -37 -19 -344 -308 -377 -356 -8 -12 -22 -28 -31 -35 -31 -26 -196 -224 -225 -272 -50 -80 -67 -158 -61 -280 8 -153 24 -182 202 -364 164 -168 210 -234 306 -435 37 -77 92 -194 123 -258 75 -157 100 -193 232 -328 136 -138 216 -254 251 -364 42 -135 29 -205 -46 -250 -32 -18 -32 -18 -88 11 -87 44 -152 142 -248 371 -86 208 -130 266 -296 390 -177 132 -228 206 -293 422 -86 282 -152 430 -215 480 -78 62 -123 75 -250 74 -165 -2 -177 -9 -421 -253 -200 -199 -219 -224 -276 -360 -20 -47 -23 -72 -23 -181 0 -122 1 -129 31 -189 22 -44 67 -100 158 -194 70 -73 154 -168 188 -212 118 -157 220 -231 373 -270 110 -29 165 -55 202 -93 37 -39 68 -91 68 -115 0 -24 -65 -74 -158 -123 -141 -73 -164 -90 -238 -166 -76 -78 -92 -113 -115 -248 -6 -36 -17 -78 -25 -94 -8 -16 -14 -33 -14 -38 0 -20 -51 -79 -175 -206 -197 -203 -262 -248 -499 -353 -315 -140 -457 -279 -486 -476 -26 -179 -42 -207 -229 -396 -203 -207 -309 -284 -471 -344 -115 -43 -190 -51 -320 -35 -63 7 -160 11 -215 9 -87 -4 -109 -9 -161 -35 -33 -17 -79 -51 -102 -76 -51 -56 -122 -197 -122 -243 l0 -33 809 0 808 0 7 58 c4 31 11 71 15 87 58 196 133 335 237 438 37 36 85 66 189 117 77 37 166 77 197 89 98 35 250 117 313 168 60 49 164 169 165 189 0 6 6 17 14 23 8 7 43 69 77 139 136 280 161 326 197 373 45 59 127 104 172 94 38 -8 92 -69 115 -129 16 -42 17 -55 6 -116 -20 -111 -76 -179 -235 -285 -33 -22 -96 -78 -140 -124 -45 -47 -141 -145 -214 -218 -181 -183 -323 -357 -369 -452 -24 -49 -28 -70 -31 -166 -2 -60 1 -128 7 -150 6 -22 16 -61 22 -88 l12 -47 1064 0 1063 0 0 43 c0 139 89 371 201 523 83 113 207 192 459 293 350 141 433 224 623 622 138 289 167 335 252 411 44 39 168 112 230 135 121 45 184 65 223 70 l42 6 0 433 0 434 -35 0 c-64 0 -298 -67 -387 -111 -102 -50 -201 -120 -274 -193 -61 -63 -72 -80 -88 -136 -10 -36 -22 -95 -27 -132 -17 -135 -52 -190 -249 -389 -132 -132 -238 -211 -360 -268 -227 -104 -261 -121 -327 -164 -154 -102 -246 -230 -263 -366 -19 -153 -38 -188 -193 -350 -259 -272 -353 -341 -528 -390 -137 -38 -222 -22 -221 42 0 48 50 133 116 195 63 59 120 90 407 225 199 94 321 226 350 379 11 60 10 74 -6 130 -19 65 -90 217 -124 266 -63 91 -241 413 -241 437 0 4 -21 51 -46 104 -47 97 -98 173 -165 246 -55 61 -90 118 -79 129 19 19 104 9 155 -17 69 -35 378 -351 475 -486 39 -53 114 -115 178 -146 52 -25 62 -27 161 -23 117 5 180 23 313 89 43 22 106 50 140 63 169 63 293 145 380 249 119 143 127 230 40 417 -9 19 -68 123 -132 230 -64 107 -130 224 -147 260 -157 329 -161 335 -212 387 -28 28 -90 78 -138 110 -114 76 -199 156 -223 208 -53 116 -38 274 34 353 32 36 91 67 196 103 129 43 328 123 403 160 143 72 262 184 313 294 28 58 32 146 10 197 -8 18 -21 53 -30 78 -9 25 -61 122 -116 215 -56 94 -130 231 -166 305 -36 74 -88 181 -115 237 -42 85 -64 116 -132 186 -45 46 -108 100 -139 121 -32 20 -58 41 -58 45 0 12 54 21 115 21 49 0 76 -8 142 -36 31 -14 295 -274 350 -345 143 -185 238 -279 309 -303 68 -23 196 -21 268 4 32 11 127 54 212 97 l154 77 0 736 0 735 -53 28 c-179 98 -385 266 -482 395 -73 96 -241 406 -296 544 -56 143 -117 237 -226 349 -36 36 -70 78 -78 92 -12 23 -11 28 11 48 35 32 90 28 159 -11 67 -38 241 -225 444 -474 109 -135 169 -184 252 -206 53 -15 157 -18 222 -7 l47 8 0 1530 0 1529 -37 0 c-21 0 -66 -13 -99 -29z m-1769 -2808 c43 -22 102 -80 139 -138 35 -54 93 -187 121 -275 26 -83 92 -211 128 -249 34 -35 72 -62 152 -106 136 -74 211 -126 309 -214 103 -93 174 -183 229 -290 82 -160 84 -276 7 -327 -35 -23 -42 -25 -74 -14 -40 13 -100 68 -145 133 -33 48 -110 208 -131 273 -20 59 -88 192 -133 259 -96 145 -170 211 -317 286 -232 118 -359 256 -420 457 -25 84 -23 145 6 185 35 48 63 52 129 20z m-185 -3398 c32 -34 21 -40 -18 -11 -17 12 -29 26 -25 29 11 11 19 8 43 -18z m-4433 -1126 c62 -35 200 -156 259 -227 98 -120 115 -213 48 -279 -65 -66 -133 -31 -231 120 -35 54 -63 100 -63 103 0 11 -64 100 -118 163 -84 100 -88 108 -67 131 30 34 100 29 172 -11z m1088 -28 c210 -95 439 -374 494 -599 22 -89 -9 -170 -74 -198 -33 -13 -38 -13 -84 10 -76 39 -136 124 -213 306 -60 141 -117 268 -131 295 -41 79 -61 115 -82 150 -13 21 -21 43 -19 47 9 14 68 8 109 -11z"></path><path id="pzs9ihqCm" d="M1220 10140 c-36 -4 -82 -15 -103 -24 -22 -10 -106 -83 -200 -174 -229 -223 -360 -367 -431 -472 -100 -149 -102 -365 -5 -506 16 -23 66 -75 111 -116 254 -228 570 -564 676 -719 48 -71 147 -156 209 -179 89 -33 200 -28 319 15 53 19 112 44 133 55 20 10 83 40 141 66 255 112 339 193 404 387 37 111 47 327 21 452 -32 152 -101 233 -251 294 -196 80 -274 123 -327 182 -59 64 -142 220 -206 389 -40 103 -106 223 -146 263 -44 44 -94 69 -173 86 -57 12 -73 12 -172 1z m331 -1081 c67 -48 87 -105 47 -133 -34 -24 -60 -19 -124 24 -60 40 -88 78 -78 103 15 40 103 43 155 6z"></path><path id="p11ifRkgDt" d="M0 8550 l0 -430 47 -58 c53 -65 98 -158 106 -220 8 -67 -33 -139 -100 -175 l-53 -28 0 -374 0 -374 80 -61 c120 -91 175 -114 288 -118 109 -5 176 13 332 86 52 24 131 59 175 77 276 115 434 267 451 433 11 103 -26 196 -188 465 -99 166 -144 253 -187 359 -90 222 -156 302 -366 445 -33 22 -111 87 -173 144 -160 147 -233 202 -307 232 -116 48 -105 91 -105 -403z"></path><path id="pMRGBflL6" d="M2557 6925 c-37 -13 -93 -42 -126 -65 -62 -44 -220 -211 -270 -287 -69 -103 -94 -233 -71 -359 23 -124 47 -158 255 -354 212 -201 273 -241 400 -261 120 -18 287 9 377 62 186 110 268 228 268 388 0 111 -37 194 -239 538 -36 62 -82 141 -101 175 -46 82 -110 143 -177 168 -80 30 -225 27 -316 -5z"></path><path id="pVHrnu4kZ" d="M7238 5344 c-91 -16 -220 -62 -297 -105 -166 -94 -311 -252 -311 -340 0 -29 -31 -152 -53 -212 -14 -39 -72 -115 -182 -236 -143 -159 -189 -220 -229 -301 l-41 -85 0 -121 c0 -117 1 -122 34 -187 18 -36 55 -92 82 -124 26 -32 90 -112 141 -178 168 -216 220 -261 330 -285 64 -15 204 -2 261 24 169 76 251 106 360 130 l27 6 0 381 0 382 -47 -6 c-27 -3 -90 -15 -142 -26 -115 -26 -144 -26 -196 -2 -51 23 -75 50 -85 95 -14 64 53 164 162 237 60 41 276 149 297 149 8 0 11 119 11 410 l0 410 -22 -1 c-13 0 -57 -7 -100 -15z"></path><path id="pdlMQ3QJ7" d="M0 1995 l0 -865 35 0 c39 0 286 81 380 125 183 85 325 258 325 395 0 101 -49 220 -189 464 -66 113 -144 268 -156 306 -15 50 -89 196 -131 260 -63 97 -174 179 -241 180 l-23 0 0 -865z"></path><path id="pt1p1vAuw" d="M6842 1270 c-82 -17 -139 -60 -317 -236 -182 -182 -363 -396 -408 -486 -68 -135 -62 -318 17 -490 l26 -58 430 0 c492 0 445 -11 414 95 -13 48 -13 57 0 83 20 39 35 49 86 61 36 8 63 6 130 -9 47 -11 97 -20 113 -20 l27 0 0 385 0 386 -81 99 c-117 146 -187 188 -319 195 -41 2 -94 0 -118 -5z"></path></g></g><g id="l4wlZCpYUOw7JirNTeR7n3w" fill="rgb(248,245,42)" style="transform: none;"><g style="transform: none;"><path id="p60xprARZ" d="M2260 13074 c0 -14 52 -159 70 -194 34 -66 76 -123 135 -180 52 -50 165 -192 211 -265 10 -16 32 -47 49 -69 38 -48 145 -221 189 -306 80 -155 84 -227 17 -340 -58 -97 -140 -169 -237 -207 -87 -35 -108 -37 -354 -34 -221 3 -261 -15 -376 -165 -139 -182 -192 -225 -379 -304 -55 -23 -163 -73 -240 -110 -127 -61 -148 -75 -206 -138 -68 -71 -80 -94 -264 -477 -108 -224 -210 -344 -358 -422 -132 -69 -322 -140 -426 -160 l-91 -18 0 -366 0 -366 69 -28 c79 -31 150 -85 313 -234 62 -57 140 -122 173 -144 210 -143 276 -223 366 -445 43 -106 88 -193 187 -359 189 -315 216 -398 161 -503 -72 -140 -202 -242 -424 -335 -44 -18 -123 -53 -175 -77 -265 -124 -362 -118 -566 36 -48 36 -91 66 -96 66 -4 0 -8 -295 -8 -655 0 -360 3 -655 6 -655 3 0 33 14 65 32 101 53 131 109 169 311 28 152 49 198 124 272 73 72 165 128 336 205 160 71 241 117 305 171 74 63 283 278 317 327 38 55 71 147 88 245 13 79 53 162 103 215 68 73 252 189 382 241 86 35 205 95 261 132 27 18 112 96 188 173 170 169 218 197 357 204 169 9 244 -46 352 -258 86 -166 120 -216 174 -250 62 -39 108 -51 156 -41 90 21 123 82 114 209 -8 120 -59 232 -175 390 -26 35 -62 84 -80 109 -48 64 -101 176 -162 338 -89 237 -172 376 -315 525 -152 158 -209 261 -230 413 -5 36 -1 64 16 114 19 59 34 79 158 210 322 344 519 531 597 569 51 25 70 28 149 29 82 0 98 -3 150 -30 32 -16 73 -43 90 -60 38 -39 98 -152 160 -305 50 -124 108 -230 156 -285 37 -42 129 -79 176 -70 118 22 148 172 72 358 -48 118 -90 177 -235 327 -90 93 -151 164 -168 197 -51 103 -52 249 -2 358 46 99 184 262 419 496 95 94 186 181 202 194 54 41 129 58 221 52 183 -13 252 -85 379 -397 62 -154 145 -303 205 -371 54 -62 155 -128 246 -161 83 -30 188 -31 230 -1 36 26 81 106 122 220 64 174 125 230 398 363 111 54 230 120 265 146 35 26 130 115 211 198 144 148 197 222 212 296 2 14 12 57 20 95 9 39 18 81 21 93 6 32 78 124 134 171 57 48 134 94 184 112 l37 13 0 211 0 211 -72 -9 c-82 -10 -162 2 -215 34 -39 24 -93 85 -93 104 0 13 -36 15 -245 15 -213 0 -245 -2 -245 -15 0 -19 60 -139 113 -225 165 -270 246 -425 270 -520 10 -38 -30 -142 -80 -205 -79 -100 -201 -180 -391 -256 -40 -16 -96 -41 -123 -55 -72 -36 -288 -111 -372 -128 -39 -9 -97 -24 -127 -35 -99 -35 -213 -61 -268 -61 -133 0 -392 165 -448 284 -64 139 -52 278 37 411 61 91 165 186 244 224 33 15 96 36 140 45 169 37 224 63 263 122 50 77 50 189 0 347 l-22 67 -168 0 c-123 0 -168 -3 -168 -12 0 -31 -119 -218 -176 -278 -67 -70 -113 -96 -334 -194 -207 -91 -274 -131 -351 -207 -74 -75 -87 -97 -211 -359 -97 -206 -155 -304 -230 -390 -94 -109 -146 -142 -411 -256 -267 -116 -342 -160 -413 -244 -35 -42 -84 -113 -84 -123 0 -4 -10 -24 -23 -45 -13 -20 -38 -71 -57 -112 -113 -252 -185 -379 -265 -468 -59 -65 -105 -97 -242 -168 -129 -67 -193 -108 -259 -167 -72 -65 -147 -100 -210 -99 -100 2 -238 75 -345 182 -92 90 -118 148 -122 268 -4 135 40 230 167 360 109 112 202 155 361 167 109 9 254 37 322 63 28 11 84 42 125 71 93 64 428 400 428 430 0 11 4 22 8 25 9 6 25 68 47 190 10 53 26 98 47 134 61 101 205 215 363 287 221 102 292 139 358 189 77 58 292 272 351 350 67 87 81 215 28 256 -13 11 -30 20 -37 20 -6 0 -54 -36 -106 -81 -149 -128 -187 -151 -414 -251 -49 -21 -121 -54 -160 -73 -183 -88 -325 -85 -440 10 -24 19 -79 77 -122 128 -43 51 -112 132 -155 181 -43 48 -92 117 -109 152 l-32 64 -213 0 c-118 0 -214 -3 -214 -6z m-832 -2985 c53 -18 100 -51 133 -93 27 -34 87 -152 114 -222 67 -176 152 -338 212 -403 53 -59 131 -102 326 -182 86 -35 168 -93 198 -142 73 -119 89 -377 33 -543 -65 -195 -149 -276 -404 -388 -58 -26 -121 -56 -141 -66 -21 -11 -80 -36 -133 -55 -114 -41 -179 -45 -259 -15 -62 23 -161 108 -209 179 -106 155 -422 491 -676 719 -97 87 -133 136 -161 220 -51 150 -8 281 153 467 165 191 478 497 533 521 42 18 152 33 198 26 17 -3 54 -13 83 -23z"></path><path id="phKKvQ5bX" d="M1395 9109 c-72 -44 -53 -120 49 -189 50 -34 67 -40 111 -40 66 0 92 20 100 75 7 48 -15 89 -69 130 -29 22 -49 28 -104 32 -42 2 -75 -1 -87 -8z"></path><path id="pCA3hdIGa" d="M335 12626 c-14 -14 -25 -36 -25 -48 0 -24 54 -164 109 -282 15 -34 32 -72 36 -86 18 -60 116 -240 250 -465 83 -138 129 -261 120 -318 -18 -108 -158 -266 -303 -341 -142 -73 -331 -143 -479 -178 l-43 -10 0 -199 0 -199 28 0 c34 1 119 21 201 49 101 35 199 88 286 156 111 87 344 325 377 384 26 48 58 173 58 226 0 36 51 132 98 186 79 89 215 179 367 244 147 62 226 104 301 160 90 67 377 374 426 457 33 53 38 70 38 123 0 68 -17 95 -59 95 -39 0 -83 -31 -233 -165 -69 -63 -178 -128 -308 -185 -41 -18 -118 -52 -170 -75 -136 -61 -165 -69 -260 -70 -69 0 -94 4 -131 23 -55 27 -150 116 -210 199 -98 132 -264 278 -362 318 -68 27 -86 27 -112 1z"></path><path id="p14pX10CU" d="M7285 11678 c-105 -55 -152 -120 -283 -388 -145 -296 -199 -385 -287 -468 -75 -72 -151 -118 -295 -178 -83 -34 -173 -73 -275 -117 -94 -41 -152 -86 -256 -198 -115 -124 -170 -159 -250 -159 -90 0 -145 40 -398 290 -255 252 -284 273 -383 273 -65 0 -92 -16 -103 -63 -8 -34 14 -71 111 -184 59 -70 96 -126 137 -208 30 -62 58 -124 62 -138 8 -25 35 -81 174 -355 93 -185 112 -240 118 -351 5 -77 2 -102 -16 -157 -39 -118 -168 -229 -346 -299 -22 -9 -88 -39 -146 -66 -218 -105 -291 -123 -390 -98 -111 29 -150 61 -299 247 -72 90 -101 122 -276 315 -101 110 -164 147 -255 145 -71 -1 -92 -10 -108 -50 -18 -42 1 -76 109 -196 49 -55 89 -103 90 -106 0 -3 18 -39 41 -80 22 -41 53 -105 69 -144 15 -38 47 -108 70 -155 78 -159 138 -295 224 -508 121 -300 193 -431 324 -589 59 -72 111 -151 127 -193 68 -184 70 -224 10 -331 -91 -161 -204 -248 -455 -352 -47 -19 -119 -51 -160 -70 -162 -76 -293 -86 -400 -32 -90 45 -326 310 -480 537 -112 165 -193 218 -335 218 -117 0 -212 -64 -287 -194 -133 -229 -153 -249 -339 -343 -48 -24 -90 -43 -93 -43 -14 0 -227 -101 -286 -136 -138 -81 -231 -202 -325 -424 -113 -266 -239 -450 -369 -540 -52 -35 -192 -103 -314 -151 -42 -17 -126 -56 -186 -87 -143 -73 -199 -129 -285 -282 -35 -63 -84 -146 -110 -184 -43 -65 -132 -156 -152 -156 -5 0 -9 -115 -9 -261 l0 -260 23 7 c53 17 129 79 232 188 120 129 168 162 258 172 42 5 72 1 132 -17 125 -37 193 -117 275 -325 83 -207 172 -358 249 -423 87 -73 214 -98 257 -50 27 30 15 160 -29 290 -71 214 -121 292 -302 479 -119 122 -144 160 -169 257 -20 76 -20 116 -1 201 28 124 166 301 457 588 216 213 240 228 378 228 71 1 94 -4 142 -26 99 -46 120 -68 181 -191 31 -61 75 -157 98 -212 86 -209 136 -294 206 -351 138 -112 338 -123 531 -30 116 57 240 156 450 360 97 94 126 145 152 264 28 125 35 146 70 208 74 128 190 213 472 343 156 72 206 109 377 276 235 230 268 291 291 534 5 51 16 104 27 127 11 22 26 65 33 96 16 70 2 132 -44 193 -92 120 -136 269 -136 460 0 152 31 242 114 327 45 46 97 77 214 127 95 41 207 122 252 183 61 83 173 208 204 227 70 44 189 184 268 318 91 153 222 340 281 401 70 73 118 95 201 95 169 0 264 -95 377 -381 37 -94 101 -219 139 -271 61 -84 181 -120 246 -74 50 36 67 83 62 172 -11 167 -78 288 -268 486 -146 150 -168 180 -195 264 -28 86 -17 218 24 302 51 104 287 375 590 677 74 74 170 132 219 132 l22 0 0 330 c0 371 5 350 -75 308z m-4442 -4778 c67 -25 131 -86 177 -168 19 -34 65 -113 101 -175 184 -314 239 -430 239 -508 0 -49 -32 -139 -70 -193 -53 -77 -211 -187 -298 -207 -156 -36 -246 -29 -358 27 -56 28 -107 70 -259 214 -209 197 -233 231 -255 355 -19 109 14 228 92 329 70 89 196 219 250 257 120 84 268 111 381 69z"></path><path id="pV5MFc99j" d="M6240 8754 c-32 -13 -60 -48 -60 -75 0 -40 22 -75 93 -148 109 -112 170 -206 226 -349 55 -138 223 -448 296 -544 69 -92 200 -211 317 -290 122 -82 218 -138 236 -138 9 0 12 105 12 416 l0 416 -67 -7 c-191 -22 -265 15 -424 211 -201 248 -377 436 -443 473 -53 31 -151 49 -186 35z"></path><path id="pkI9tTyxu" d="M5335 8278 c-35 -20 -54 -51 -66 -107 -10 -48 -8 -65 10 -135 37 -140 91 -233 188 -327 71 -70 133 -112 243 -168 147 -75 221 -141 317 -286 46 -68 113 -200 133 -260 27 -81 109 -242 153 -300 58 -76 104 -107 167 -113 42 -4 57 0 90 22 38 25 43 34 63 123 10 43 -31 192 -75 274 -103 193 -276 354 -533 494 -80 44 -118 71 -152 106 -36 38 -102 166 -128 249 -50 159 -123 296 -192 362 -68 66 -167 95 -218 66z"></path><path id="pWKPM02Yx" d="M0 7880 c0 -307 -5 -292 85 -242 40 21 56 38 78 82 26 50 28 61 22 125 -4 49 -16 91 -40 140 -33 70 -110 165 -133 165 -9 0 -12 -69 -12 -270z"></path><path id="pB7Nc9kp3" d="M5150 6716 c-92 -32 -127 -52 -194 -110 -93 -80 -142 -163 -311 -521 -101 -215 -217 -350 -365 -424 -47 -24 -110 -52 -140 -63 -30 -11 -126 -52 -213 -91 -139 -62 -167 -78 -228 -135 -75 -70 -78 -75 -279 -497 -158 -335 -326 -468 -590 -468 -185 -1 -240 38 -582 403 -161 173 -211 205 -310 198 -47 -3 -64 -10 -85 -31 -25 -24 -26 -28 -15 -65 8 -25 42 -74 90 -128 113 -129 165 -214 227 -379 34 -92 132 -281 185 -360 44 -64 126 -149 197 -201 37 -28 151 -85 258 -129 190 -79 276 -161 359 -345 94 -206 194 -405 269 -535 149 -258 168 -339 106 -455 -59 -112 -157 -194 -329 -277 -58 -28 -116 -54 -130 -58 -14 -4 -56 -23 -95 -43 -114 -57 -230 -92 -304 -92 -54 0 -77 6 -126 31 -73 38 -110 73 -223 208 -48 58 -121 142 -162 187 -41 46 -103 114 -136 151 -84 92 -149 126 -244 126 -87 0 -120 -23 -120 -83 0 -32 11 -48 91 -134 119 -130 141 -164 220 -336 75 -163 117 -240 236 -433 81 -131 127 -230 144 -310 10 -45 9 -51 -30 -131 -76 -157 -225 -267 -508 -375 -262 -101 -336 -93 -509 54 -78 66 -157 93 -217 75 -92 -27 -152 -107 -281 -371 -95 -194 -155 -282 -300 -437 -53 -57 -96 -110 -96 -118 0 -12 37 -14 225 -14 210 0 225 1 225 18 0 34 79 181 122 228 95 103 199 127 431 100 156 -19 218 -13 347 31 173 59 280 135 491 350 187 189 203 217 229 396 12 81 50 166 100 223 77 88 208 174 386 253 237 105 302 150 499 353 124 127 175 186 175 206 0 5 6 22 14 38 8 16 19 58 25 94 23 135 39 170 115 248 74 76 97 93 238 166 156 82 187 126 147 215 -41 93 -103 135 -259 176 -153 39 -255 113 -373 270 -34 44 -118 139 -188 212 -91 95 -136 150 -158 195 -30 59 -32 69 -30 162 2 104 11 135 73 256 40 77 399 436 475 474 73 38 202 41 274 8 133 -60 189 -158 302 -532 65 -216 116 -290 293 -422 166 -124 209 -182 296 -390 89 -214 157 -320 231 -364 91 -53 171 -40 218 35 18 29 22 49 21 106 -4 164 -89 322 -279 515 -132 135 -157 171 -232 328 -31 64 -86 181 -123 258 -96 201 -142 267 -306 435 -168 172 -191 211 -200 335 -7 94 11 172 59 249 29 48 194 246 225 272 9 7 23 23 31 35 34 48 340 337 378 357 73 37 157 46 300 31 98 -9 138 -10 170 -1 47 13 99 60 143 129 54 83 135 171 174 189 43 19 33 22 143 -51 32 -22 95 -77 140 -123 68 -70 90 -101 132 -186 27 -56 79 -163 115 -237 36 -74 110 -211 166 -305 55 -93 107 -190 116 -215 9 -25 22 -60 30 -78 20 -46 17 -79 -10 -137 -51 -110 -170 -222 -313 -294 -74 -37 -272 -116 -403 -161 -111 -38 -137 -50 -179 -86 -75 -63 -108 -222 -76 -359 24 -98 90 -172 248 -278 48 -32 110 -82 138 -110 51 -52 55 -58 212 -387 17 -36 83 -153 147 -260 64 -107 123 -211 132 -230 37 -78 58 -140 58 -167 0 -71 -100 -213 -207 -296 -63 -48 -173 -107 -271 -143 -34 -13 -97 -41 -140 -63 -114 -57 -198 -83 -283 -89 -67 -4 -81 -1 -130 23 -65 31 -140 93 -179 146 -96 133 -406 451 -473 485 -87 45 -208 44 -229 -1 -9 -20 -6 -32 17 -72 16 -26 47 -68 70 -93 73 -80 122 -153 169 -251 25 -53 46 -100 46 -104 0 -24 178 -346 241 -437 33 -47 98 -184 118 -247 17 -53 17 -66 6 -116 -32 -136 -157 -263 -344 -352 -316 -148 -343 -164 -417 -237 -95 -95 -132 -188 -104 -261 22 -57 126 -67 276 -25 178 50 270 118 531 391 155 162 174 197 193 350 17 136 109 264 263 366 66 43 100 60 327 164 122 57 228 136 360 268 197 199 232 254 249 389 5 37 17 96 27 132 16 56 27 73 88 136 73 73 172 143 274 193 77 38 322 111 372 111 19 0 20 7 20 210 0 241 11 221 -110 191 -64 -15 -174 -57 -306 -117 -56 -25 -164 -35 -220 -20 -99 26 -148 71 -312 281 -51 66 -115 146 -141 178 -27 32 -64 88 -82 124 -31 61 -34 74 -34 157 0 86 2 96 41 176 40 81 86 142 229 301 110 121 168 197 182 236 22 60 53 183 53 212 0 88 145 246 311 340 74 41 198 86 279 101 36 6 75 13 88 16 l22 4 0 235 c0 227 -1 235 -20 235 -10 0 -86 -34 -168 -75 -178 -90 -248 -115 -317 -115 -128 0 -213 67 -408 319 -55 71 -319 331 -350 345 -61 26 -92 34 -160 41 -64 5 -94 1 -164 -26 -19 -7 -33 3 -95 64 -57 56 -84 93 -122 167 -91 177 -144 220 -271 219 -46 0 -92 -8 -135 -23z"></path><path id="p19rY85Yge" d="M5202 4888 c-7 -7 -12 -26 -12 -42 0 -24 9 -37 39 -58 45 -32 72 -35 93 -10 43 49 -74 156 -120 110z"></path><path id="piaeUxTgV" d="M7320 4573 c-8 -3 -65 -29 -126 -58 -187 -88 -276 -160 -325 -262 -17 -36 -20 -54 -14 -98 16 -132 127 -172 346 -124 52 11 109 23 127 26 l32 6 0 258 c0 268 0 267 -40 252z"></path><path id="p153W5edr7" d="M641 3756 c-39 -42 -29 -85 42 -171 70 -86 136 -176 137 -187 0 -4 28 -51 63 -105 78 -120 125 -157 198 -156 85 1 128 45 136 140 10 115 -64 234 -237 378 -111 92 -163 117 -252 120 -58 3 -69 0 -87 -19z"></path><path id="pbuMps7zg" d="M1797 3729 c-25 -14 -21 -67 7 -114 22 -35 41 -70 83 -150 14 -27 71 -154 131 -295 78 -183 137 -267 215 -307 57 -29 117 -28 163 2 58 38 79 147 49 260 -70 269 -387 600 -586 611 -25 1 -53 -2 -62 -7z"></path><path id="ppn25XOOf" d="M0 2976 l0 -143 44 -17 c65 -25 142 -92 190 -166 42 -64 116 -211 131 -260 12 -38 90 -193 156 -306 124 -216 189 -365 189 -434 0 -34 -43 -122 -89 -183 -44 -59 -155 -145 -236 -182 -75 -35 -338 -125 -365 -125 -19 0 -20 -7 -20 -205 0 -158 3 -205 13 -205 26 1 125 29 191 54 140 53 242 130 439 331 124 126 171 198 188 287 6 35 18 83 25 107 8 25 14 51 14 58 0 27 64 108 180 229 132 137 170 199 170 278 0 37 -6 57 -26 83 -25 33 -112 83 -144 83 -9 0 -20 4 -25 9 -6 5 -28 14 -50 21 -22 7 -57 24 -77 37 -41 25 -136 119 -177 173 -168 226 -471 504 -643 591 -32 16 -62 29 -68 29 -6 0 -10 -52 -10 -144z"></path><path id="p136dmhB3T" d="M7295 2129 c-46 -7 -109 -27 -230 -72 -62 -23 -186 -96 -230 -135 -85 -76 -114 -122 -252 -411 -190 -398 -273 -481 -623 -622 -161 -64 -313 -145 -369 -195 -157 -142 -291 -434 -291 -636 l0 -58 445 0 c385 0 445 2 445 15 0 8 -12 40 -26 72 -33 73 -64 185 -64 233 0 63 19 142 47 198 45 90 226 305 410 488 211 208 255 236 375 236 127 1 205 -49 341 -219 32 -40 65 -73 73 -73 12 0 14 84 14 595 0 327 -3 594 -7 594 -5 -1 -31 -5 -58 -10z"></path><path id="p16KyTFr04" d="M3980 1813 c-65 -23 -119 -60 -152 -102 -36 -47 -61 -93 -197 -373 -34 -70 -69 -132 -77 -139 -8 -6 -14 -17 -14 -23 -1 -20 -105 -140 -165 -189 -63 -51 -215 -133 -313 -168 -31 -12 -120 -52 -197 -89 -151 -74 -204 -116 -275 -220 -48 -70 -102 -179 -124 -250 -34 -107 -37 -120 -43 -190 l-6 -70 412 0 411 0 -6 27 c-3 16 -13 53 -22 83 -11 36 -17 90 -17 155 0 89 3 106 28 156 46 95 188 269 369 452 73 73 169 171 214 218 44 46 107 102 140 124 89 59 163 123 191 166 55 83 69 231 29 314 -41 88 -124 140 -186 118z"></path><path id="pCTV0JmDx" d="M7050 267 c-83 -22 -107 -90 -74 -209 l17 -58 183 0 184 0 0 118 0 119 -102 21 c-114 25 -143 26 -208 9z"></path></g></g></svg>