<svg id="svg" version="1.1" width="3508" height="4961" xmlns="http://www.w3.org/2000/svg"><path d="M708.465 131.952 C 705.587 133.118,704.849 134.293,700.096 145.272 C 686.809 175.964,659.109 232.347,645.944 255.500 C 632.992 278.277,620.868 296.113,612.088 305.307 C 603.756 314.032,586.669 325.968,563.000 339.598 C 547.371 348.598,493.397 376.000,491.300 376.000 C 489.769 376.000,485.026 366.365,468.408 329.500 C 453.128 295.601,453.163 295.664,448.887 294.607 C 444.593 293.546,440.494 294.399,438.460 296.777 C 437.650 297.725,432.572 308.400,427.177 320.500 C 398.108 385.689,361.219 458.865,336.689 500.000 C 313.824 538.342,298.314 557.906,279.500 572.138 C 262.363 585.100,233.918 602.593,202.146 619.708 C 183.301 629.859,127.647 657.990,112.000 665.274 C 71.812 683.982,57.593 690.512,46.162 695.508 C 37.544 699.275,32.280 702.170,31.284 703.689 C 29.469 706.459,29.999 714.436,32.139 716.553 C 32.887 717.294,41.600 721.466,51.500 725.825 C 125.858 758.564,211.209 802.166,252.232 828.368 C 288.780 851.712,299.912 862.303,320.688 893.500 C 348.563 935.355,390.279 1015.904,429.187 1103.000 C 438.220 1123.221,440.050 1125.480,446.786 1124.721 C 449.217 1124.447,451.804 1123.610,452.534 1122.861 C 453.265 1122.113,459.022 1110.025,465.327 1096.000 C 516.566 982.034,564.700 894.749,593.973 862.720 C 619.107 835.220,705.292 786.840,828.789 730.907 C 843.248 724.358,855.432 719.000,855.865 719.000 C 856.297 719.000,857.705 717.879,858.992 716.508 C 862.069 713.234,862.276 705.831,859.373 702.928 C 858.294 701.850,847.982 696.755,836.456 691.607 C 790.936 671.276,738.995 646.212,739.009 644.585 C 739.022 643.007,766.387 587.845,775.017 572.000 C 792.000 540.815,804.938 521.112,815.164 510.857 C 829.666 496.315,864.993 475.215,919.500 448.539 C 939.161 438.918,959.264 429.488,972.000 423.914 C 986.742 417.462,989.453 415.689,990.393 411.887 C 991.461 407.564,990.598 403.492,988.173 401.416 C 987.198 400.581,981.022 397.503,974.450 394.575 C 891.144 357.466,830.929 323.793,813.024 304.302 C 793.943 283.531,760.590 222.164,724.215 140.897 C 722.589 137.266,720.201 133.554,718.907 132.647 C 716.407 130.896,711.822 130.591,708.465 131.952 M723.622 189.500 C 742.811 230.536,764.358 271.010,778.723 293.000 C 796.438 320.117,807.742 330.610,840.500 350.338 C 865.254 365.246,878.052 371.838,946.500 404.941 L 954.500 408.810 944.500 413.491 C 939.000 416.066,932.475 419.095,930.000 420.223 C 917.297 426.012,875.762 446.829,863.500 453.552 C 835.916 468.677,814.134 483.080,803.086 493.500 C 783.478 511.995,757.679 555.573,723.913 627.240 C 714.170 647.919,712.989 652.989,716.983 656.983 C 719.955 659.955,769.740 684.385,808.742 702.010 C 817.675 706.047,824.875 709.443,824.742 709.556 C 824.609 709.670,816.625 713.355,807.000 717.746 C 713.733 760.296,637.999 801.270,600.637 829.394 C 581.644 843.691,571.055 855.371,553.850 881.000 C 529.420 917.391,491.389 989.178,458.490 1061.000 C 452.065 1075.025,446.493 1086.836,446.108 1087.247 C 445.722 1087.658,442.077 1080.683,438.009 1071.747 C 389.415 965.021,341.844 880.109,313.085 848.761 C 296.308 830.475,259.032 805.738,204.500 776.705 C 180.751 764.060,121.510 734.889,91.703 721.162 C 78.615 715.134,68.025 709.819,68.169 709.351 C 68.314 708.883,75.648 705.216,84.466 701.203 C 110.191 689.496,120.520 684.545,156.088 666.872 C 233.866 628.227,279.391 601.008,305.662 577.442 C 323.824 561.150,347.804 525.390,377.039 471.000 C 389.407 447.990,417.933 390.331,432.567 358.763 C 439.639 343.507,445.733 331.357,446.108 331.763 C 446.484 332.168,450.170 339.925,454.301 349.000 C 458.431 358.075,465.371 372.928,469.723 382.007 C 478.069 399.415,479.417 401.000,485.879 401.000 C 488.982 401.000,555.052 368.355,575.000 356.966 C 591.519 347.534,610.939 334.550,619.000 327.549 C 639.148 310.050,655.849 283.961,687.848 220.000 C 695.965 203.775,705.003 185.325,707.932 179.000 L 713.258 167.500 716.102 173.500 C 717.666 176.800,721.050 184.000,723.622 189.500 M704.000 216.084 C 697.169 219.181,695.682 221.109,689.944 234.311 C 681.587 253.537,656.698 302.430,649.262 314.229 C 645.543 320.129,640.784 327.000,638.686 329.496 C 629.086 340.919,595.577 359.363,529.134 389.796 C 522.446 392.859,517.178 403.455,518.434 411.313 C 520.060 421.478,524.237 425.540,540.371 432.640 C 560.156 441.347,600.860 461.914,615.242 470.472 C 636.228 482.959,643.266 491.051,660.060 522.000 C 667.811 536.282,681.314 563.840,689.951 583.000 C 692.803 589.325,696.118 595.572,697.318 596.882 C 702.767 602.830,715.363 604.912,722.790 601.092 C 728.936 597.930,731.485 594.226,739.023 577.507 C 748.168 557.222,762.351 528.847,770.766 514.000 C 783.066 492.299,788.965 484.904,800.000 477.351 C 814.297 467.565,864.208 441.871,890.500 430.762 C 898.564 427.354,903.459 423.193,906.100 417.500 C 909.797 409.533,907.718 398.687,901.376 392.855 C 899.794 391.401,891.300 386.969,882.500 383.008 C 873.700 379.046,856.375 370.685,844.000 364.426 C 790.669 337.454,786.091 333.170,762.797 288.423 C 754.395 272.283,738.646 239.594,734.492 229.671 C 728.781 216.030,716.344 210.488,704.000 216.084 M2844.000 242.060 C 2720.972 244.794,2606.788 261.900,2522.097 290.285 L 2509.695 294.442 2504.071 288.328 C 2500.978 284.965,2496.437 278.375,2493.979 273.684 L 2489.511 265.155 2485.034 273.828 C 2479.041 285.437,2469.624 294.929,2458.250 300.825 C 2453.713 303.177,2450.000 305.298,2450.000 305.538 C 2450.000 305.778,2453.150 307.561,2457.000 309.500 C 2460.850 311.439,2464.000 313.213,2464.000 313.443 C 2464.000 313.672,2460.512 315.776,2456.250 318.118 C 2414.160 341.245,2391.939 367.598,2392.015 394.299 C 2392.064 411.534,2403.081 431.260,2421.500 447.093 C 2445.335 467.582,2487.700 488.022,2538.500 503.545 C 2612.362 526.114,2708.645 540.832,2816.046 545.969 C 2843.657 547.290,2924.120 547.296,2952.000 545.979 C 3059.776 540.889,3161.061 525.420,3229.430 503.609 C 3237.126 501.153,3240.870 500.395,3242.087 501.046 C 3245.648 502.952,3254.105 513.630,3258.032 521.179 C 3260.270 525.481,3262.281 529.000,3262.500 529.000 C 3262.719 529.000,3264.812 525.288,3267.150 520.750 C 3272.921 509.552,3282.552 499.921,3293.750 494.150 C 3298.287 491.812,3302.000 489.703,3302.000 489.463 C 3302.000 489.224,3298.985 487.508,3295.300 485.650 L 3288.599 482.272 3302.888 475.022 C 3351.328 450.443,3376.000 423.271,3376.000 394.500 C 3376.000 374.168,3363.813 354.532,3339.546 335.762 C 3279.563 289.368,3143.765 254.545,2983.500 244.461 C 2963.954 243.231,2881.196 240.684,2877.500 241.198 C 2876.950 241.275,2861.875 241.663,2844.000 242.060 M2947.210 248.014 C 3028.930 251.540,3102.785 260.445,3167.408 274.563 C 3257.702 294.289,3326.176 324.426,3354.278 356.808 C 3372.463 377.764,3375.267 399.917,3362.417 421.123 C 3351.670 438.858,3325.365 458.794,3293.115 473.645 L 3282.731 478.427 3277.031 472.363 C 3273.651 468.767,3269.541 462.802,3266.932 457.707 L 3262.532 449.115 3258.044 457.807 C 3252.040 469.438,3242.632 478.925,3231.250 484.825 C 3226.713 487.177,3223.000 489.296,3223.000 489.535 C 3223.000 489.773,3225.588 491.285,3228.750 492.895 C 3234.480 495.813,3234.491 495.827,3231.802 496.867 C 3227.092 498.689,3209.044 503.746,3192.500 507.879 C 3131.716 523.062,3062.719 533.195,2982.445 538.727 C 2950.740 540.912,2825.000 541.248,2794.000 539.231 C 2748.961 536.300,2716.617 533.067,2680.500 527.884 C 2525.726 505.676,2421.679 462.344,2401.163 411.551 C 2398.181 404.170,2397.194 391.594,2398.991 383.886 C 2404.044 362.212,2429.309 337.471,2463.363 320.850 L 2470.226 317.500 2475.549 323.342 C 2478.477 326.555,2482.724 332.742,2484.987 337.092 C 2487.250 341.441,2489.281 345.000,2489.500 345.000 C 2489.719 345.000,2491.812 341.288,2494.150 336.750 C 2499.921 325.552,2509.552 315.921,2520.750 310.150 C 2525.287 307.812,2529.000 305.703,2529.000 305.464 C 2529.000 305.225,2526.244 303.638,2522.877 301.938 C 2519.457 300.211,2517.139 298.471,2517.627 297.996 C 2518.985 296.673,2556.548 285.346,2576.000 280.393 C 2623.124 268.396,2684.994 258.386,2745.000 253.051 C 2769.203 250.899,2811.569 248.128,2827.000 247.687 C 2852.909 246.946,2927.142 247.148,2947.210 248.014 M2643.000 394.000 L 2643.000 462.000 2693.500 462.000 L 2744.000 462.000 2744.000 435.274 L 2744.000 408.547 2736.775 401.274 L 2729.550 394.000 2736.775 386.726 L 2744.000 379.453 2744.000 352.726 L 2744.000 326.000 2693.500 326.000 L 2643.000 326.000 2643.000 394.000 M2755.000 394.000 L 2755.000 462.000 2806.000 462.000 L 2857.000 462.000 2857.000 394.000 L 2857.000 326.000 2840.000 326.000 L 2823.000 326.000 2823.000 378.500 L 2823.000 431.000 2806.000 431.000 L 2789.000 431.000 2789.000 378.500 L 2789.000 326.000 2772.000 326.000 L 2755.000 326.000 2755.000 394.000 M2934.667 326.667 C 2934.300 327.033,2934.000 350.658,2934.000 379.167 L 2934.000 431.000 2917.000 431.000 L 2900.000 431.000 2900.000 420.000 L 2900.000 409.000 2883.000 409.000 L 2866.000 409.000 2866.000 435.500 L 2866.000 462.000 2917.000 462.000 L 2968.000 462.000 2968.000 394.000 L 2968.000 326.000 2951.667 326.000 C 2942.683 326.000,2935.033 326.300,2934.667 326.667 M2979.000 393.976 L 2979.000 462.000 2996.007 462.000 L 3013.014 462.000 3012.757 394.250 L 3012.500 326.500 2995.750 326.226 L 2979.000 325.952 2979.000 393.976 M3023.667 326.667 C 3023.300 327.033,3023.000 357.633,3023.000 394.667 L 3023.000 462.000 3040.000 462.000 L 3057.000 462.000 3057.000 435.500 L 3057.000 409.000 3074.000 409.000 L 3091.000 409.000 3091.000 435.500 L 3091.000 462.000 3108.000 462.000 L 3125.000 462.000 3125.000 393.976 L 3125.000 325.952 3108.250 326.226 L 3091.500 326.500 3091.233 352.750 L 3090.967 379.000 3073.983 379.000 L 3057.000 379.000 3057.000 352.500 L 3057.000 326.000 3040.667 326.000 C 3031.683 326.000,3024.033 326.300,3023.667 326.667 M2711.000 368.500 L 2711.000 379.000 2694.000 379.000 L 2677.000 379.000 2677.000 368.500 L 2677.000 358.000 2694.000 358.000 L 2711.000 358.000 2711.000 368.500 M434.036 392.183 L 428.572 395.500 417.265 420.500 C 395.433 468.772,367.093 524.332,349.680 553.000 C 333.228 580.086,323.067 591.446,303.970 604.102 C 269.663 626.839,210.790 657.033,137.000 689.734 C 131.664 692.099,128.683 695.121,126.476 700.402 C 123.125 708.423,125.335 720.449,131.114 725.645 C 132.426 726.824,138.900 730.125,145.500 732.980 C 192.535 753.327,265.252 790.293,295.000 808.982 C 322.011 825.950,331.128 835.458,349.680 866.000 C 366.215 893.223,398.910 957.214,416.608 996.991 C 428.479 1023.675,428.749 1024.119,434.929 1027.250 C 444.118 1031.904,455.629 1030.396,461.719 1023.741 C 462.847 1022.509,468.636 1010.700,474.585 997.500 C 487.923 967.901,516.652 910.043,528.795 888.325 C 553.761 843.669,565.415 829.250,589.000 813.830 C 621.391 792.654,681.404 761.668,743.000 734.316 C 758.995 727.214,763.105 724.075,765.459 717.165 C 767.405 711.454,767.405 707.546,765.459 701.835 C 763.089 694.878,758.979 691.735,742.988 684.651 C 735.020 681.121,724.450 676.337,719.500 674.019 C 714.550 671.701,707.575 668.454,704.000 666.802 C 700.425 665.151,685.570 657.836,670.989 650.546 C 610.671 620.393,581.728 602.717,565.889 586.360 C 557.332 577.524,545.648 560.318,532.029 536.500 C 520.617 516.542,488.467 452.307,476.222 425.000 C 463.591 396.834,463.120 395.985,458.187 392.543 C 454.549 390.004,452.748 389.480,446.687 389.199 C 440.024 388.891,439.102 389.108,434.036 392.183 M2711.000 420.000 L 2711.000 431.000 2694.000 431.000 L 2677.000 431.000 2677.000 420.000 L 2677.000 409.000 2694.000 409.000 L 2711.000 409.000 2711.000 420.000 M3057.058 3018.265 C 3055.196 3019.208,3052.276 3024.721,3044.752 3041.500 C 3014.229 3109.570,2978.309 3180.960,2954.187 3221.500 C 2938.435 3247.973,2925.082 3267.184,2914.027 3279.280 C 2888.862 3306.815,2802.863 3355.090,2679.211 3411.093 C 2664.752 3417.642,2652.568 3423.000,2652.135 3423.000 C 2651.703 3423.000,2650.295 3424.121,2649.008 3425.492 C 2645.931 3428.766,2645.724 3436.169,2648.627 3439.072 C 2649.706 3440.150,2660.018 3445.245,2671.544 3450.393 C 2717.064 3470.724,2769.005 3495.788,2768.991 3497.415 C 2768.978 3498.993,2741.613 3554.155,2732.983 3570.000 C 2716.000 3601.185,2703.062 3620.888,2692.836 3631.143 C 2678.334 3645.685,2643.007 3666.785,2588.500 3693.461 C 2568.839 3703.082,2548.736 3712.512,2536.000 3718.086 C 2521.258 3724.538,2518.547 3726.311,2517.607 3730.113 C 2516.539 3734.436,2517.402 3738.508,2519.827 3740.584 C 2520.802 3741.419,2526.978 3744.497,2533.550 3747.425 C 2616.856 3784.534,2677.071 3818.207,2694.976 3837.698 C 2714.064 3858.476,2747.385 3919.789,2783.811 4001.159 C 2787.427 4009.237,2790.339 4011.486,2796.168 4010.704 C 2801.557 4009.981,2802.885 4008.402,2807.920 3996.728 C 2820.902 3966.625,2848.838 3909.745,2862.056 3886.500 C 2875.008 3863.723,2887.132 3845.887,2895.912 3836.693 C 2904.244 3827.968,2921.331 3816.032,2945.000 3802.402 C 2960.629 3793.402,3014.603 3766.000,3016.700 3766.000 C 3018.231 3766.000,3022.974 3775.635,3039.592 3812.500 C 3054.872 3846.399,3054.837 3846.336,3059.113 3847.393 C 3063.407 3848.454,3067.506 3847.601,3069.540 3845.223 C 3070.350 3844.275,3075.428 3833.600,3080.823 3821.500 C 3109.892 3756.311,3146.781 3683.135,3171.311 3642.000 C 3194.176 3603.658,3209.686 3584.094,3228.500 3569.862 C 3245.637 3556.900,3274.082 3539.407,3305.854 3522.292 C 3324.699 3512.141,3380.353 3484.010,3396.000 3476.726 C 3436.188 3458.018,3450.407 3451.488,3461.838 3446.492 C 3470.456 3442.725,3475.720 3439.830,3476.716 3438.311 C 3478.531 3435.541,3478.001 3427.564,3475.861 3425.447 C 3475.113 3424.706,3466.400 3420.534,3456.500 3416.175 C 3382.142 3383.436,3296.791 3339.834,3255.768 3313.632 C 3219.220 3290.288,3208.088 3279.697,3187.312 3248.500 C 3159.437 3206.645,3117.721 3126.096,3078.813 3039.000 C 3074.183 3028.635,3069.954 3020.583,3068.442 3019.250 C 3065.591 3016.738,3060.882 3016.330,3057.058 3018.265 M3077.742 3087.000 C 3116.277 3170.163,3155.075 3241.048,3181.463 3276.500 C 3195.397 3295.221,3204.210 3303.669,3225.500 3318.715 C 3261.743 3344.330,3333.093 3382.519,3416.297 3420.838 C 3429.385 3426.866,3439.975 3432.181,3439.831 3432.649 C 3439.686 3433.117,3432.352 3436.784,3423.534 3440.797 C 3397.809 3452.504,3387.480 3457.455,3351.912 3475.128 C 3274.134 3513.773,3228.609 3540.992,3202.338 3564.558 C 3184.176 3580.850,3160.196 3616.610,3130.961 3671.000 C 3118.593 3694.010,3090.067 3751.669,3075.433 3783.237 C 3068.361 3798.493,3062.267 3810.643,3061.892 3810.237 C 3061.516 3809.832,3057.830 3802.075,3053.699 3793.000 C 3049.569 3783.925,3042.629 3769.072,3038.277 3759.993 C 3029.931 3742.585,3028.583 3741.000,3022.121 3741.000 C 3019.018 3741.000,2952.948 3773.645,2933.000 3785.034 C 2916.481 3794.466,2897.061 3807.450,2889.000 3814.451 C 2868.852 3831.950,2852.151 3858.039,2820.152 3922.000 C 2812.035 3938.225,2802.997 3956.675,2800.068 3963.000 L 2794.742 3974.500 2791.898 3968.500 C 2790.334 3965.200,2786.949 3958.000,2784.377 3952.500 C 2774.506 3931.395,2751.923 3886.911,2744.525 3874.000 C 2718.038 3827.775,2705.876 3814.774,2667.500 3791.662 C 2642.828 3776.803,2628.393 3769.369,2561.500 3737.064 L 2553.500 3733.201 2562.500 3729.003 C 2567.450 3726.694,2574.200 3723.554,2577.500 3722.025 C 2637.330 3694.304,2686.328 3666.030,2704.914 3648.500 C 2724.522 3630.005,2750.321 3586.427,2784.087 3514.760 C 2793.830 3494.081,2795.011 3489.011,2791.017 3485.017 C 2788.045 3482.045,2738.260 3457.615,2699.258 3439.990 C 2690.325 3435.953,2683.125 3432.557,2683.258 3432.444 C 2683.391 3432.330,2691.375 3428.645,2701.000 3424.254 C 2738.428 3407.178,2785.751 3384.000,2818.000 3366.949 C 2868.746 3340.118,2907.776 3314.812,2925.676 3297.137 C 2948.489 3274.609,2975.707 3230.518,3014.961 3152.500 C 3030.097 3122.419,3039.212 3103.388,3058.548 3061.500 L 3062.241 3053.500 3064.779 3059.000 C 3066.175 3062.025,3072.008 3074.625,3077.742 3087.000 M3052.392 3114.035 C 3050.133 3115.153,3047.372 3117.065,3046.257 3118.284 C 3045.143 3119.503,3039.364 3131.300,3033.415 3144.500 C 3020.077 3174.099,2991.348 3231.957,2979.205 3253.675 C 2954.239 3298.331,2942.585 3312.750,2919.000 3328.170 C 2886.609 3349.346,2826.596 3380.332,2765.000 3407.684 C 2756.539 3411.441,2749.163 3415.412,2747.291 3417.218 C 2743.833 3420.553,2741.000 3427.436,2741.000 3432.500 C 2741.000 3437.565,2743.833 3444.445,2747.302 3447.809 C 2749.215 3449.662,2756.411 3453.539,2765.012 3457.349 C 2772.980 3460.879,2783.550 3465.663,2788.500 3467.981 C 2793.450 3470.299,2800.425 3473.546,2804.000 3475.198 C 2807.575 3476.849,2822.430 3484.164,2837.011 3491.454 C 2897.329 3521.607,2926.272 3539.283,2942.111 3555.640 C 2950.668 3564.476,2962.352 3581.682,2975.971 3605.500 C 2987.383 3625.458,3019.533 3689.693,3031.778 3717.000 C 3044.409 3745.166,3044.880 3746.015,3049.813 3749.457 C 3053.451 3751.996,3055.252 3752.520,3061.313 3752.801 C 3067.976 3753.109,3068.898 3752.892,3073.964 3749.817 L 3079.428 3746.500 3090.735 3721.500 C 3112.567 3673.228,3140.907 3617.668,3158.320 3589.000 C 3174.772 3561.914,3184.933 3550.554,3204.030 3537.898 C 3238.337 3515.161,3297.210 3484.967,3371.000 3452.266 C 3376.336 3449.901,3379.317 3446.879,3381.524 3441.598 C 3384.875 3433.577,3382.665 3421.551,3376.886 3416.355 C 3375.574 3415.176,3369.100 3411.875,3362.500 3409.020 C 3315.465 3388.673,3242.748 3351.707,3213.000 3333.018 C 3185.989 3316.050,3176.872 3306.542,3158.320 3276.000 C 3141.785 3248.777,3109.090 3184.786,3091.392 3145.009 C 3079.521 3118.325,3079.251 3117.881,3073.071 3114.750 C 3066.257 3111.299,3058.464 3111.030,3052.392 3114.035 M2785.000 3540.954 C 2779.034 3544.135,2776.431 3547.960,2768.977 3564.493 C 2759.832 3584.778,2745.649 3613.153,2737.234 3628.000 C 2724.934 3649.701,2719.035 3657.096,2708.000 3664.649 C 2693.703 3674.435,2643.792 3700.129,2617.500 3711.238 C 2609.436 3714.646,2604.541 3718.807,2601.900 3724.500 C 2598.203 3732.467,2600.282 3743.313,2606.624 3749.145 C 2608.206 3750.599,2616.700 3755.031,2625.500 3758.992 C 2634.300 3762.954,2651.625 3771.315,2664.000 3777.574 C 2717.331 3804.546,2721.909 3808.830,2745.203 3853.577 C 2753.605 3869.717,2769.354 3902.406,2773.508 3912.329 C 2779.219 3925.970,2791.656 3931.512,2804.000 3925.916 C 2810.831 3922.819,2812.318 3920.891,2818.056 3907.689 C 2826.413 3888.463,2851.302 3839.570,2858.738 3827.771 C 2862.457 3821.871,2867.216 3815.000,2869.314 3812.504 C 2878.914 3801.081,2912.423 3782.637,2978.866 3752.204 C 2985.554 3749.141,2990.822 3738.545,2989.566 3730.687 C 2987.940 3720.522,2983.763 3716.460,2967.629 3709.360 C 2947.844 3700.653,2907.140 3680.086,2892.758 3671.528 C 2871.772 3659.041,2864.734 3650.949,2847.940 3620.000 C 2840.189 3605.718,2826.686 3578.160,2818.049 3559.000 C 2815.197 3552.675,2811.882 3546.428,2810.682 3545.118 C 2805.242 3539.180,2792.272 3537.077,2785.000 3540.954 M559.500 3596.081 C 440.599 3601.534,342.504 3617.181,265.622 3642.956 L 250.744 3647.943 248.122 3645.892 C 243.722 3642.450,237.507 3634.270,233.425 3626.548 L 229.549 3619.213 225.729 3626.252 C 220.633 3635.644,220.003 3636.496,212.765 3643.783 C 208.513 3648.064,203.895 3651.409,198.267 3654.283 C 193.725 3656.602,190.007 3658.765,190.005 3659.089 C 190.002 3659.414,191.238 3660.234,192.750 3660.913 C 194.262 3661.591,197.450 3663.279,199.833 3664.664 L 204.165 3667.181 194.333 3672.714 C 151.657 3696.728,130.326 3723.699,132.351 3751.083 C 133.400 3765.268,139.493 3777.778,151.837 3791.089 C 195.613 3838.295,311.446 3876.080,462.500 3892.428 C 486.291 3895.003,512.951 3897.110,547.500 3899.146 C 573.358 3900.670,674.541 3900.674,700.500 3899.152 C 769.973 3895.079,820.851 3889.415,873.422 3879.900 C 909.312 3873.405,937.059 3866.890,967.049 3857.915 L 981.328 3853.642 987.414 3860.071 C 990.761 3863.607,995.177 3869.650,997.228 3873.500 C 999.278 3877.350,1001.364 3881.118,1001.863 3881.873 C 1002.526 3882.877,1003.931 3880.993,1007.083 3874.873 C 1012.822 3863.731,1023.363 3853.102,1034.239 3847.492 C 1038.496 3845.296,1041.983 3843.259,1041.989 3842.965 C 1041.995 3842.670,1038.983 3840.942,1035.296 3839.123 L 1028.592 3835.818 1043.667 3828.106 C 1063.634 3817.892,1079.963 3806.875,1091.543 3795.805 C 1102.972 3784.878,1109.338 3775.612,1113.288 3764.152 C 1115.982 3756.335,1116.202 3754.717,1115.751 3746.034 C 1115.390 3739.101,1114.549 3734.655,1112.667 3729.737 C 1098.270 3692.106,1043.771 3659.397,952.500 3633.608 C 890.636 3616.128,807.180 3603.102,724.500 3598.022 C 674.944 3594.977,602.228 3594.122,559.500 3596.081 M720.500 3603.353 C 747.900 3605.300,750.784 3605.548,781.500 3608.613 C 889.829 3619.421,989.472 3644.438,1047.000 3675.270 C 1088.928 3697.741,1110.040 3722.021,1110.240 3748.000 C 1110.348 3762.065,1104.922 3773.772,1092.000 3787.355 C 1078.066 3802.001,1064.406 3811.487,1039.052 3824.125 L 1023.605 3831.825 1020.989 3829.662 C 1016.388 3825.859,1010.725 3818.441,1006.528 3810.722 L 1002.448 3803.218 998.474 3810.836 C 992.579 3822.138,982.073 3832.764,971.411 3838.209 C 966.790 3840.569,963.007 3842.744,963.005 3843.042 C 963.002 3843.340,965.570 3844.844,968.711 3846.384 C 972.838 3848.408,974.016 3849.401,972.961 3849.966 C 970.689 3851.181,948.178 3857.500,930.500 3861.885 C 868.138 3877.354,798.136 3887.322,714.000 3892.714 C 675.272 3895.196,573.436 3895.186,534.000 3892.696 C 431.820 3886.245,348.385 3872.530,276.589 3850.382 C 214.396 3831.196,170.557 3807.090,150.577 3781.093 C 136.295 3762.509,134.047 3742.349,144.212 3724.000 C 153.545 3707.152,174.568 3689.206,200.908 3675.602 L 209.807 3671.005 214.476 3675.741 C 219.068 3680.398,224.104 3687.886,227.585 3695.233 L 229.354 3698.966 233.261 3691.733 C 240.812 3677.751,249.144 3669.386,261.717 3663.165 C 265.723 3661.183,269.000 3659.293,269.000 3658.965 C 269.000 3658.636,266.300 3657.077,263.000 3655.500 C 259.700 3653.923,257.000 3652.343,257.000 3651.990 C 257.000 3651.637,263.637 3649.249,271.750 3646.684 C 341.996 3624.473,423.395 3610.578,521.899 3603.984 C 563.076 3601.228,561.121 3601.271,633.500 3601.545 C 680.154 3601.721,704.710 3602.231,720.500 3603.353 M383.000 3748.000 L 383.000 3816.000 433.500 3816.000 L 484.000 3816.000 484.000 3789.223 L 484.000 3762.446 477.000 3755.500 C 473.150 3751.680,470.000 3748.080,470.000 3747.500 C 470.000 3746.920,473.150 3743.320,477.000 3739.500 L 484.000 3732.554 484.000 3706.277 L 484.000 3680.000 433.500 3680.000 L 383.000 3680.000 383.000 3748.000 M495.000 3748.000 L 495.000 3816.000 546.000 3816.000 L 597.000 3816.000 597.000 3748.000 L 597.000 3680.000 580.000 3680.000 L 563.000 3680.000 563.000 3732.500 L 563.000 3785.000 546.000 3785.000 L 529.000 3785.000 529.000 3732.500 L 529.000 3680.000 512.000 3680.000 L 495.000 3680.000 495.000 3748.000 M674.000 3732.500 L 674.000 3785.000 657.000 3785.000 L 640.000 3785.000 640.000 3773.476 L 640.000 3761.952 623.250 3762.226 L 606.500 3762.500 606.234 3789.250 L 605.967 3816.000 656.984 3816.000 L 708.000 3816.000 708.000 3748.000 L 708.000 3680.000 691.000 3680.000 L 674.000 3680.000 674.000 3732.500 M719.000 3748.000 L 719.000 3816.000 736.000 3816.000 L 753.000 3816.000 753.000 3748.000 L 753.000 3680.000 736.000 3680.000 L 719.000 3680.000 719.000 3748.000 M763.000 3748.000 L 763.000 3816.000 780.000 3816.000 L 797.000 3816.000 797.000 3789.500 L 797.000 3763.000 814.000 3763.000 L 831.000 3763.000 831.000 3789.500 L 831.000 3816.000 848.000 3816.000 L 865.000 3816.000 865.000 3748.000 L 865.000 3680.000 848.000 3680.000 L 831.000 3680.000 831.000 3706.000 L 831.000 3732.000 814.000 3732.000 L 797.000 3732.000 797.000 3706.000 L 797.000 3680.000 780.000 3680.000 L 763.000 3680.000 763.000 3748.000 M451.000 3721.500 L 451.000 3732.000 434.000 3732.000 L 417.000 3732.000 417.000 3721.500 L 417.000 3711.000 434.000 3711.000 L 451.000 3711.000 451.000 3721.500 M451.000 3774.000 L 451.000 3785.000 434.000 3785.000 L 417.000 3785.000 417.000 3774.000 L 417.000 3763.000 434.000 3763.000 L 451.000 3763.000 451.000 3774.000 " stroke="none" fill="black" fill-rule="evenodd"/></svg>