<svg id="svg" version="1.1" width="464" height="538" xmlns="http://www.w3.org/2000/svg"><path d="M0.000 269.000 L 0.000 538.000 14.339 538.000 L 28.679 538.000 29.941 535.250 C 30.636 533.737,34.028 524.850,37.480 515.500 C 45.365 494.142,57.759 463.208,59.603 460.285 C 60.371 459.067,61.000 457.659,61.000 457.157 C 61.000 455.004,70.483 436.000,71.557 436.000 C 72.207 436.000,72.686 434.988,72.620 433.750 C 72.550 432.437,73.021 431.604,73.750 431.750 C 74.438 431.887,75.000 431.467,75.000 430.814 C 75.000 430.162,75.888 428.684,76.974 427.528 C 78.635 425.759,79.532 423.419,79.926 419.821 C 79.967 419.448,80.695 418.448,81.544 417.599 C 82.393 416.750,83.255 414.805,83.458 413.277 C 84.025 409.023,84.935 407.333,86.656 407.333 C 87.926 407.333,88.116 408.140,87.648 411.551 C 87.330 413.870,86.435 417.613,85.658 419.867 C 84.881 422.122,84.606 423.744,85.046 423.471 C 85.487 423.199,86.610 420.619,87.543 417.738 C 88.476 414.857,89.847 411.150,90.590 409.500 C 91.333 407.850,92.291 403.612,92.720 400.082 C 93.161 396.451,94.043 393.484,94.750 393.249 C 95.483 393.005,96.000 393.695,96.000 394.917 C 96.000 396.063,96.450 397.000,97.000 397.000 C 97.550 397.000,98.007 395.538,98.015 393.750 C 98.036 389.396,99.316 387.588,101.898 388.263 C 103.267 388.621,104.000 388.342,104.000 387.463 C 104.000 385.769,100.139 383.000,97.777 383.000 C 95.196 383.000,95.579 381.327,99.235 376.644 C 103.573 371.086,104.774 370.200,109.767 368.881 C 114.108 367.734,116.391 366.000,113.559 366.000 C 112.702 366.000,112.000 365.498,112.000 364.883 C 112.000 364.195,112.958 364.003,114.500 364.383 C 123.067 366.496,122.692 366.507,120.649 364.206 C 118.814 362.137,118.824 362.123,121.954 362.519 C 129.018 363.414,136.462 365.062,137.323 365.923 C 137.877 366.477,137.761 368.826,137.031 371.872 C 136.367 374.640,136.134 377.407,136.513 378.021 C 137.790 380.088,145.660 378.198,149.186 374.977 C 152.781 371.694,154.543 371.141,153.603 373.592 C 153.192 374.664,153.924 374.400,155.841 372.787 C 159.754 369.495,174.599 364.420,191.667 360.541 C 198.171 359.063,209.516 353.586,214.407 349.565 C 217.108 347.344,217.227 346.962,216.081 344.194 C 215.402 342.556,214.996 339.929,215.178 338.357 C 215.479 335.768,215.647 335.945,216.974 340.250 C 217.778 342.863,218.851 345.000,219.357 345.000 C 219.863 345.000,224.008 342.518,228.567 339.484 C 236.913 333.931,241.236 329.455,244.490 323.000 C 245.460 321.075,247.107 318.686,248.149 317.690 C 249.192 316.695,249.783 315.458,249.463 314.940 C 249.144 314.423,249.471 313.993,250.191 313.985 C 251.153 313.973,251.102 313.688,250.000 312.909 C 248.865 312.106,248.806 311.724,249.756 311.338 C 250.447 311.058,250.791 310.471,250.521 310.034 C 249.988 309.172,253.587 295.635,255.126 292.709 C 255.644 291.724,255.818 290.514,255.512 290.019 C 255.206 289.524,255.778 288.305,256.782 287.310 C 257.787 286.314,259.219 282.575,259.965 279.000 C 260.711 275.425,261.829 270.118,262.449 267.208 C 264.523 257.463,266.689 261.188,266.979 275.000 C 267.171 284.105,267.434 284.356,268.558 276.500 L 269.273 271.500 272.681 278.500 C 274.555 282.350,276.747 286.693,277.552 288.151 C 278.356 289.609,279.432 292.984,279.943 295.651 C 281.130 301.851,284.289 308.957,287.241 312.067 C 291.858 316.932,293.273 317.395,290.092 313.000 C 286.847 308.518,284.000 302.748,284.000 300.655 C 284.000 300.050,284.695 300.547,285.544 301.760 C 287.139 304.037,295.229 310.012,296.680 309.985 C 297.131 309.976,296.825 309.533,296.000 309.000 C 294.787 308.216,294.931 308.028,296.750 308.015 C 297.988 308.007,299.000 308.450,299.000 309.000 C 299.000 311.040,304.309 309.959,306.640 307.444 C 307.943 306.038,309.457 305.164,310.004 305.503 C 311.402 306.366,311.243 304.628,309.574 300.784 C 307.110 295.108,305.264 288.099,305.549 285.501 C 305.700 284.125,305.414 283.000,304.912 283.000 C 304.410 283.000,304.000 282.325,304.000 281.500 C 304.000 280.675,303.611 280.000,303.137 280.000 C 301.702 280.000,302.394 275.701,303.909 275.196 C 304.878 274.874,305.123 275.238,304.691 276.364 C 303.860 278.528,304.570 278.430,306.949 276.051 C 308.876 274.124,308.876 274.095,306.958 273.487 C 305.891 273.148,304.564 273.152,304.009 273.494 C 303.452 273.839,303.000 273.170,303.000 272.000 C 303.000 270.835,302.570 270.148,302.044 270.473 C 301.518 270.798,300.291 269.812,299.317 268.282 C 298.343 266.752,297.311 265.275,297.023 265.000 C 294.768 262.844,292.733 259.779,294.000 260.446 C 294.825 260.880,294.270 260.124,292.768 258.766 C 291.265 257.409,290.272 256.062,290.560 255.773 C 290.848 255.485,289.661 254.051,287.922 252.588 C 282.717 248.208,277.222 240.963,276.770 237.885 C 276.537 236.298,276.441 235.000,276.556 235.000 C 276.671 235.000,277.953 237.428,279.405 240.396 C 281.221 244.107,283.739 247.098,287.470 249.977 C 290.453 252.278,294.708 256.129,296.924 258.533 C 301.444 263.437,305.705 266.280,304.731 263.743 C 304.379 262.823,305.051 261.775,306.489 261.006 C 307.914 260.243,309.199 258.258,309.801 255.888 C 310.341 253.758,310.420 252.240,309.977 252.514 C 309.534 252.788,308.943 252.447,308.664 251.756 C 308.384 251.060,308.094 251.391,308.016 252.500 C 307.892 254.237,307.742 254.172,306.872 252.000 C 305.970 249.749,305.772 249.674,304.885 251.250 C 303.401 253.889,301.019 253.354,299.895 250.129 C 299.345 248.550,297.906 246.736,296.697 246.098 C 295.366 245.396,295.211 245.143,296.302 245.458 C 298.253 246.020,297.931 244.984,295.098 241.580 C 293.611 239.794,293.630 239.708,295.365 240.343 C 296.697 240.831,296.322 239.991,294.050 237.404 C 292.301 235.412,291.110 233.156,291.403 232.391 C 291.697 231.626,291.552 231.000,291.082 231.000 C 290.612 231.000,289.914 228.915,289.532 226.367 C 288.996 222.793,289.199 221.372,290.419 220.153 C 291.420 219.151,292.000 219.007,292.000 219.760 C 292.000 220.414,293.410 221.678,295.133 222.569 C 297.717 223.905,298.412 223.953,299.101 222.844 C 299.600 222.040,299.486 221.346,298.817 221.116 C 298.201 220.905,298.658 220.218,299.833 219.589 L 301.969 218.446 299.705 215.973 C 297.150 213.183,297.202 209.480,299.781 210.470 C 301.231 211.026,301.228 210.910,299.749 209.275 C 298.497 207.892,298.229 206.184,298.614 202.041 C 298.891 199.059,299.380 196.194,299.701 195.674 C 300.481 194.413,302.920 198.923,302.965 201.710 C 302.984 202.925,304.782 205.737,306.960 207.960 C 311.312 212.399,312.644 213.072,311.000 210.000 C 310.259 208.615,310.247 207.407,310.961 206.072 C 311.965 204.196,311.444 201.000,310.134 201.000 C 309.775 201.000,308.890 200.053,308.167 198.895 C 307.444 197.738,307.315 197.076,307.880 197.426 C 308.444 197.775,309.789 197.304,310.868 196.381 C 312.435 195.039,312.606 194.341,311.715 192.915 C 311.102 191.933,310.245 191.349,309.811 191.617 C 309.378 191.885,309.302 191.376,309.644 190.485 C 310.056 189.411,309.127 187.866,306.883 185.892 L 303.500 182.916 306.500 184.331 C 308.150 185.110,310.625 186.029,312.000 186.375 C 313.375 186.720,312.587 186.121,310.250 185.043 C 307.913 183.964,306.000 182.614,306.000 182.041 C 306.000 181.468,305.531 181.000,304.958 181.000 C 304.385 181.000,302.971 180.120,301.816 179.043 C 299.215 176.620,291.968 173.085,286.000 171.328 L 281.500 170.003 285.724 170.276 C 290.943 170.612,290.030 169.510,284.000 168.195 C 280.909 167.521,280.322 167.181,282.124 167.107 C 283.568 167.048,286.675 167.680,289.030 168.511 C 291.385 169.342,293.515 169.818,293.764 169.570 C 294.012 169.321,297.468 170.851,301.443 172.970 C 305.677 175.226,309.184 176.504,309.909 176.056 C 310.875 175.459,310.839 174.982,309.744 173.886 C 308.971 173.114,308.503 171.991,308.703 171.391 C 308.903 170.791,308.264 169.670,307.283 168.900 C 305.631 167.603,305.604 167.647,306.919 169.500 C 307.699 170.600,306.799 169.894,304.919 167.932 C 303.038 165.970,300.038 163.778,298.250 163.061 C 296.462 162.344,295.000 161.433,295.000 161.036 C 295.000 160.639,293.312 159.457,291.250 158.407 C 289.188 157.358,285.025 154.878,282.000 152.896 C 272.588 146.728,266.686 144.004,262.508 143.900 C 260.304 143.845,257.375 143.405,256.000 142.922 C 254.053 142.237,254.351 142.163,257.348 142.585 C 262.265 143.278,261.401 141.500,256.041 139.894 C 253.656 139.180,252.349 138.253,252.644 137.486 C 252.920 136.767,251.858 135.798,250.141 135.199 C 248.501 134.627,246.201 133.201,245.029 132.029 C 243.640 130.640,242.219 130.113,240.949 130.516 C 239.848 130.866,239.000 130.670,239.000 130.067 C 239.000 129.480,240.688 128.939,242.750 128.864 C 244.959 128.784,245.598 128.553,244.305 128.302 C 242.892 128.027,242.307 127.363,242.662 126.438 C 243.034 125.468,242.528 125.000,241.107 125.000 C 239.948 125.000,239.000 124.550,239.000 124.000 C 239.000 123.450,241.025 123.000,243.500 123.000 C 248.142 123.000,249.524 121.618,246.000 120.500 C 244.900 120.151,244.000 119.435,244.000 118.910 C 244.000 118.384,245.017 118.620,246.260 119.434 C 247.723 120.393,249.031 120.599,249.970 120.019 C 251.215 119.249,251.178 118.854,249.708 117.230 C 248.766 116.189,248.334 114.965,248.748 114.509 C 249.162 114.052,249.003 113.962,248.397 114.308 C 247.079 115.059,241.000 112.926,241.000 111.713 C 241.000 111.247,241.900 111.151,243.000 111.500 C 245.457 112.280,245.683 110.486,243.250 109.518 C 239.312 107.951,236.679 107.981,234.875 109.613 C 233.844 110.546,233.000 110.990,233.000 110.598 C 233.000 109.237,227.147 113.354,226.145 115.420 C 225.295 117.170,225.125 117.223,225.068 115.750 C 224.985 113.623,223.000 113.383,223.000 115.500 C 223.000 116.325,222.275 117.000,221.389 117.000 C 220.120 117.000,219.899 116.310,220.352 113.750 C 220.717 111.682,220.369 109.591,219.394 108.000 C 218.446 106.453,218.090 106.226,218.459 107.406 C 219.086 109.406,216.457 118.599,215.001 119.499 C 214.536 119.787,214.596 118.424,215.136 116.471 C 215.675 114.518,215.963 111.251,215.777 109.210 L 215.438 105.500 214.309 109.000 C 213.259 112.255,213.174 112.312,213.090 109.809 C 213.041 108.329,212.474 106.793,211.830 106.395 C 211.027 105.898,210.876 106.233,211.348 107.465 C 212.004 109.173,210.204 115.916,209.049 116.077 C 208.747 116.119,207.757 116.297,206.849 116.473 C 205.119 116.809,204.966 114.742,206.395 110.300 C 207.175 107.875,205.199 103.236,202.403 100.927 C 201.131 99.877,200.569 99.815,200.273 100.694 C 200.052 101.350,199.225 101.640,198.435 101.337 C 196.621 100.640,196.637 101.053,198.625 106.021 C 199.519 108.255,199.969 110.364,199.625 110.708 C 199.281 111.052,198.993 110.696,198.985 109.917 C 198.972 108.745,198.786 108.760,197.909 110.000 C 197.082 111.168,196.732 111.214,196.327 110.208 C 195.901 109.153,195.519 109.153,194.239 110.208 C 192.856 111.349,192.808 111.245,193.836 109.316 C 194.476 108.114,195.000 106.077,195.000 104.788 C 195.000 102.152,192.444 98.000,190.821 98.000 C 190.146 98.000,190.212 98.551,191.000 99.500 C 192.083 100.804,191.758 100.797,188.515 99.442 C 186.463 98.584,184.532 98.134,184.225 98.441 C 183.918 98.749,184.192 99.000,184.833 99.000 C 187.650 99.000,185.609 100.690,181.447 101.803 C 178.943 102.473,177.144 103.424,177.449 103.917 C 177.753 104.410,177.001 104.552,175.777 104.231 C 174.553 103.911,174.055 103.482,174.670 103.277 C 175.285 103.072,175.551 102.000,175.262 100.895 C 174.937 99.649,174.187 99.098,173.287 99.443 C 172.489 99.750,171.593 100.000,171.296 100.000 C 170.998 100.000,171.282 100.635,171.926 101.411 C 173.225 102.976,172.753 103.424,168.811 104.365 C 165.998 105.037,164.117 103.664,166.138 102.415 C 166.912 101.937,167.040 102.127,166.515 102.975 C 165.983 103.837,166.179 104.093,167.111 103.755 C 167.875 103.477,168.393 102.760,168.262 102.161 C 168.125 101.532,168.722 101.340,169.676 101.706 C 170.796 102.136,171.092 101.957,170.594 101.152 C 170.119 100.383,171.293 99.324,173.926 98.145 C 179.117 95.820,178.162 94.746,172.437 96.469 C 168.587 97.628,160.654 102.816,158.867 105.344 C 158.519 105.837,157.745 105.398,157.147 104.370 C 156.550 103.341,156.010 102.725,155.948 103.000 C 155.886 103.275,155.622 104.815,155.360 106.423 C 155.099 108.031,154.458 110.144,153.936 111.120 C 153.243 112.415,153.410 113.130,154.557 113.772 C 155.982 114.570,155.982 114.770,154.552 115.957 C 153.122 117.144,153.127 117.372,154.603 118.452 C 156.037 119.500,155.883 119.808,153.288 121.070 C 145.801 124.712,136.000 138.666,136.000 145.685 C 136.000 147.023,135.582 147.860,135.072 147.544 C 134.562 147.229,133.854 147.884,133.500 149.000 C 133.146 150.116,132.486 150.800,132.033 150.520 C 130.994 149.878,129.622 152.933,129.909 155.250 C 130.028 156.213,129.647 157.000,129.063 157.000 C 128.478 157.000,128.000 157.408,128.000 157.906 C 128.000 158.405,128.942 158.566,130.093 158.265 C 131.738 157.835,132.097 157.111,131.770 154.883 C 131.154 150.687,133.615 153.132,134.441 157.538 C 134.891 159.934,134.510 162.320,133.207 165.264 C 132.123 167.715,131.688 169.943,132.182 170.512 C 133.351 171.858,138.000 179.001,138.000 179.451 C 138.000 179.650,137.100 179.577,136.000 179.290 C 134.882 178.997,134.000 179.259,134.000 179.883 C 134.000 180.498,133.523 181.000,132.941 181.000 C 132.359 181.000,132.162 180.547,132.505 179.992 C 132.847 179.438,132.424 178.281,131.564 177.421 C 130.704 176.561,129.969 176.227,129.931 176.679 C 129.893 177.130,129.687 178.846,129.474 180.490 C 129.231 182.360,129.397 182.976,129.918 182.133 C 130.503 181.186,130.954 181.117,131.439 181.901 C 131.818 182.514,131.424 183.719,130.564 184.579 C 128.675 186.468,128.575 187.662,130.250 188.338 C 131.211 188.726,131.198 188.860,130.191 188.921 C 129.471 188.964,129.141 189.419,129.458 189.932 C 129.774 190.444,129.026 191.569,127.794 192.432 C 126.563 193.294,125.880 194.000,126.277 194.000 C 126.675 194.000,126.100 194.900,125.000 196.000 C 123.900 197.100,123.000 198.661,123.000 199.469 C 123.000 200.363,122.414 200.712,121.500 200.362 C 120.592 200.013,120.000 198.502,120.000 196.529 C 120.000 193.886,119.283 192.775,116.196 190.636 C 114.104 189.186,111.930 188.000,111.364 188.000 C 110.798 188.000,108.870 189.822,107.080 192.050 C 104.457 195.314,103.551 195.872,102.413 194.928 C 101.636 194.283,101.000 193.113,101.000 192.329 C 101.000 191.545,100.084 189.013,98.966 186.702 C 97.847 184.391,96.737 181.001,96.501 179.169 C 96.264 177.337,95.530 174.342,94.869 172.515 C 93.760 169.448,93.923 168.794,96.988 164.018 C 98.815 161.172,101.405 158.125,102.746 157.247 C 104.086 156.369,105.540 154.711,105.976 153.562 C 106.413 152.413,109.819 149.690,113.545 147.511 C 121.745 142.716,125.638 138.741,126.468 134.319 C 126.810 132.494,128.164 129.927,129.476 128.615 C 130.788 127.303,132.347 124.424,132.941 122.218 C 133.536 120.011,134.720 117.938,135.574 117.610 C 136.428 117.282,136.878 116.612,136.574 116.120 C 136.271 115.629,136.761 114.613,137.664 113.864 C 138.567 113.114,141.280 108.451,143.691 103.500 C 148.600 93.424,153.755 88.368,162.220 85.324 C 164.849 84.378,167.000 83.112,167.000 82.511 C 167.000 81.909,169.812 80.105,173.250 78.502 C 180.974 74.901,192.050 73.884,196.615 76.357 C 199.337 77.831,199.369 77.922,197.191 77.960 C 195.914 77.982,195.158 78.447,195.500 79.000 C 195.840 79.550,196.991 80.000,198.059 80.000 C 199.127 80.000,200.000 80.391,200.000 80.868 C 200.000 81.346,202.780 82.517,206.179 83.470 C 212.247 85.173,213.627 86.203,220.135 93.888 C 223.514 97.879,225.725 97.811,230.490 93.572 C 236.852 87.912,240.792 88.157,237.342 93.998 C 236.367 95.649,235.268 97.000,234.901 97.000 C 233.664 97.000,233.094 101.308,234.087 103.162 C 235.081 105.020,239.552 105.734,240.167 104.132 C 240.350 103.655,241.544 102.940,242.820 102.543 C 244.648 101.974,245.252 102.249,245.669 103.841 C 245.978 105.025,247.877 106.534,250.251 107.484 C 252.481 108.376,255.914 110.432,257.880 112.053 C 259.847 113.674,262.478 115.000,263.728 115.000 C 264.978 115.000,266.007 115.563,266.015 116.250 C 266.028 117.246,266.192 117.246,266.827 116.246 C 267.556 115.097,272.394 114.788,274.299 115.767 C 275.803 116.541,272.856 118.882,271.177 118.247 C 269.669 117.676,269.676 117.789,271.250 119.377 C 272.212 120.348,273.000 121.561,273.000 122.071 C 273.000 122.582,274.098 123.000,275.441 123.000 C 276.784 123.000,278.173 123.472,278.530 124.048 C 278.886 124.624,279.925 125.022,280.839 124.933 C 284.444 124.579,287.000 125.051,287.000 126.071 C 287.000 126.661,287.725 127.868,288.611 128.754 C 290.092 130.235,290.080 130.468,288.463 131.651 C 287.020 132.706,286.930 133.210,287.963 134.456 C 288.657 135.291,288.984 136.600,288.690 137.365 C 288.396 138.130,288.610 139.210,289.165 139.765 C 289.844 140.444,289.794 141.009,289.013 141.492 C 287.376 142.504,283.226 138.305,282.472 134.874 C 282.125 133.293,281.239 132.000,280.502 132.000 C 279.766 132.000,278.339 131.699,277.332 131.330 C 275.601 130.698,275.605 130.781,277.405 132.830 C 278.453 134.024,278.903 134.986,278.405 134.968 C 277.008 134.919,274.378 132.663,273.848 131.059 C 273.537 130.117,271.705 129.537,268.563 129.385 C 265.407 129.233,264.092 129.492,264.738 130.138 C 265.280 130.680,267.315 131.208,269.260 131.311 C 271.206 131.415,272.574 131.866,272.301 132.313 C 271.672 133.342,274.923 137.000,276.466 137.000 C 277.102 137.000,278.677 137.982,279.966 139.183 C 282.137 141.205,282.175 141.412,280.486 142.005 C 278.897 142.562,279.143 143.082,282.396 146.041 C 287.672 150.843,297.144 157.123,298.423 156.668 C 299.015 156.457,299.442 155.571,299.371 154.699 C 299.285 153.653,300.312 154.200,302.390 156.307 C 304.122 158.063,307.780 160.743,310.519 162.261 C 315.356 164.943,324.439 171.226,328.500 174.698 C 329.600 175.639,330.601 176.341,330.724 176.258 C 330.848 176.176,335.375 178.216,340.786 180.792 C 348.298 184.368,351.260 186.368,353.312 189.251 C 354.790 191.328,356.000 193.444,356.000 193.954 C 356.000 195.848,353.654 196.247,352.423 194.563 C 350.480 191.907,343.802 190.773,338.230 192.153 C 332.923 193.467,332.037 194.327,332.015 198.191 C 332.007 199.671,331.550 201.160,331.000 201.500 C 330.450 201.840,330.000 202.969,330.000 204.009 C 330.000 205.050,329.314 206.284,328.476 206.754 C 326.128 208.067,333.493 211.270,337.060 210.487 C 339.506 209.950,339.780 210.126,339.306 211.938 C 339.009 213.072,338.144 214.000,337.383 214.000 C 336.623 214.000,336.000 214.675,336.000 215.500 C 336.000 217.274,336.289 217.230,332.242 216.069 C 329.519 215.288,328.835 215.439,327.998 217.004 C 326.123 220.507,326.913 222.809,330.979 225.685 C 335.509 228.890,335.810 229.608,333.000 230.500 C 330.507 231.291,330.402 234.455,332.811 236.193 C 335.540 238.162,336.298 239.936,335.052 241.438 C 334.435 242.181,333.657 245.099,333.323 247.923 C 332.988 250.748,332.377 253.267,331.963 253.523 C 331.550 253.778,329.477 253.267,327.356 252.388 C 325.235 251.509,323.841 251.141,324.258 251.570 C 324.675 251.999,323.879 253.095,322.489 254.007 L 319.962 255.665 322.327 259.149 C 323.627 261.066,324.999 263.729,325.375 265.067 C 325.813 266.622,328.607 269.125,333.115 272.000 C 339.184 275.871,340.520 277.269,342.671 282.000 C 344.046 285.025,345.657 288.400,346.251 289.500 C 349.925 296.302,351.913 300.934,352.485 304.021 C 353.109 307.395,352.914 307.699,347.818 311.263 C 344.893 313.308,343.037 314.986,343.693 314.991 C 344.359 314.996,344.709 315.913,344.487 317.069 C 344.234 318.379,344.530 318.975,345.294 318.694 C 345.957 318.450,346.393 317.760,346.262 317.161 C 346.129 316.551,346.716 316.338,347.596 316.675 C 348.817 317.144,348.881 317.455,347.886 318.070 C 344.744 320.012,353.204 320.165,365.899 318.396 C 373.380 317.353,383.368 316.510,388.095 316.521 C 395.994 316.541,397.306 316.847,404.297 320.302 C 412.742 324.476,418.838 330.010,424.762 338.882 C 431.385 348.799,444.372 390.381,447.444 411.500 C 451.117 436.756,453.551 460.587,453.216 468.000 C 453.178 468.825,453.036 472.087,452.900 475.250 C 452.763 478.413,452.354 481.000,451.990 481.000 C 451.626 481.000,451.290 493.825,451.242 509.500 L 451.154 538.000 457.577 538.000 L 464.000 538.000 464.000 269.000 L 464.000 0.000 232.000 0.000 L 0.000 0.000 0.000 269.000 M192.762 81.707 C 194.006 81.946,195.806 81.937,196.762 81.687 C 197.718 81.437,196.700 81.241,194.500 81.252 C 192.300 81.263,191.518 81.468,192.762 81.707 M171.269 87.693 C 172.242 87.947,173.592 87.930,174.269 87.656 C 174.946 87.382,174.150 87.175,172.500 87.195 C 170.850 87.215,170.296 87.439,171.269 87.693 M173.605 91.170 C 174.091 91.957,173.783 92.131,172.664 91.701 C 171.745 91.349,171.000 91.546,171.000 92.143 C 171.000 93.325,177.383 92.472,180.000 90.939 C 181.029 90.336,180.148 90.051,177.191 90.030 C 174.150 90.009,173.095 90.344,173.605 91.170 M184.750 91.662 C 185.438 91.940,186.563 91.940,187.250 91.662 C 187.938 91.385,187.375 91.158,186.000 91.158 C 184.625 91.158,184.063 91.385,184.750 91.662 M162.000 98.775 C 160.055 100.725,159.394 101.818,160.511 101.235 C 162.804 100.038,166.528 96.170,165.911 95.626 C 165.685 95.427,163.925 96.844,162.000 98.775 M152.813 97.683 C 153.534 97.972,154.397 97.936,154.729 97.604 C 155.061 97.272,154.471 97.036,153.417 97.079 C 152.252 97.127,152.015 97.364,152.813 97.683 M176.500 100.000 C 176.840 100.550,177.793 101.000,178.618 101.000 C 179.443 101.000,179.840 100.550,179.500 100.000 C 179.160 99.450,178.207 99.000,177.382 99.000 C 176.557 99.000,176.160 99.450,176.500 100.000 M172.000 105.383 C 172.000 105.594,171.099 106.002,169.999 106.290 C 168.898 106.578,168.249 106.405,168.558 105.907 C 169.096 105.036,172.000 104.594,172.000 105.383 M163.000 106.883 C 163.000 107.369,162.074 108.009,160.943 108.305 C 159.255 108.746,159.097 108.588,160.065 107.421 C 161.386 105.830,163.000 105.535,163.000 106.883 M162.503 114.995 C 162.165 115.542,160.901 116.507,159.694 117.140 C 157.515 118.283,157.513 118.276,159.405 116.146 C 161.314 113.996,163.659 113.125,162.503 114.995 M151.079 115.679 C 151.036 116.327,150.438 117.472,149.750 118.224 C 149.063 118.975,147.375 120.892,146.000 122.483 L 143.500 125.376 146.432 123.151 C 150.160 120.322,152.289 117.293,151.654 115.724 C 151.294 114.835,151.136 114.823,151.079 115.679 M157.000 117.000 C 157.000 117.550,156.523 118.000,155.941 118.000 C 155.359 118.000,155.160 117.550,155.500 117.000 C 155.840 116.450,156.316 116.000,156.559 116.000 C 156.802 116.000,157.000 116.450,157.000 117.000 M260.000 120.474 C 260.000 120.735,261.462 121.662,263.250 122.535 L 266.500 124.120 264.000 122.082 C 261.593 120.120,260.000 119.480,260.000 120.474 M135.000 132.500 C 135.000 133.325,135.177 134.000,135.393 134.000 C 135.609 134.000,136.045 133.325,136.362 132.500 C 136.678 131.675,136.501 131.000,135.969 131.000 C 135.436 131.000,135.000 131.675,135.000 132.500 M222.829 135.000 C 224.352 135.000,224.334 137.266,222.800 138.800 C 221.867 139.733,221.880 140.000,222.859 140.000 C 223.551 140.000,223.840 140.450,223.500 141.000 C 223.160 141.550,223.528 142.000,224.319 142.000 C 225.109 142.000,226.315 142.675,227.000 143.500 C 227.732 144.382,229.915 145.000,232.297 145.000 L 236.349 145.000 234.000 147.500 L 231.651 150.000 234.326 150.000 C 235.797 150.000,237.000 150.450,237.000 151.000 C 237.000 151.550,235.537 152.014,233.750 152.032 C 230.620 152.062,230.574 152.121,232.500 153.612 C 234.425 155.102,234.389 155.147,231.519 154.830 C 226.431 154.267,227.266 157.230,233.331 161.256 C 236.307 163.233,240.488 166.989,242.622 169.603 C 244.755 172.218,248.347 176.237,250.604 178.536 C 252.862 180.835,256.146 184.805,257.902 187.358 C 261.698 192.875,263.135 193.572,259.891 188.323 C 258.641 186.301,258.160 184.981,258.823 185.391 C 259.486 185.800,260.955 187.952,262.088 190.172 C 263.221 192.393,263.664 193.910,263.074 193.546 C 261.548 192.602,261.694 193.287,264.490 200.168 C 268.777 210.717,270.845 223.526,269.415 230.673 C 268.662 234.438,261.442 239.200,256.487 239.200 C 254.387 239.200,253.000 239.691,253.000 240.435 C 253.000 242.093,247.401 247.000,245.509 247.000 C 244.679 247.000,244.000 247.675,244.000 248.500 C 244.000 250.637,242.702 250.354,241.158 247.882 C 240.210 246.363,240.142 245.458,240.918 244.682 C 242.368 243.232,242.286 242.000,240.741 242.000 C 240.048 242.000,238.946 241.144,238.293 240.097 C 236.897 237.863,226.763 233.000,223.501 233.000 C 222.260 233.000,219.703 232.356,217.819 231.569 C 214.518 230.190,210.425 230.909,212.893 232.434 C 213.502 232.810,214.001 233.654,214.002 234.309 C 214.004 235.162,211.609 235.409,205.570 235.178 C 200.672 234.992,196.269 235.321,195.068 235.964 C 192.415 237.383,192.465 236.796,195.387 232.230 C 199.534 225.748,202.958 223.314,209.500 222.199 C 214.692 221.314,216.098 221.437,219.938 223.115 C 223.917 224.853,224.533 224.896,225.902 223.527 C 226.928 222.501,227.030 222.000,226.214 222.000 C 225.546 222.000,225.000 221.395,225.000 220.656 C 225.000 218.553,220.829 214.455,217.250 213.041 C 215.463 212.335,214.000 211.362,214.000 210.879 C 214.000 210.395,213.073 210.000,211.941 210.000 C 210.809 210.000,210.160 209.550,210.500 209.000 C 210.840 208.450,210.641 208.000,210.059 208.000 C 209.477 208.000,209.000 208.498,209.000 209.107 C 209.000 209.716,208.423 209.993,207.718 209.722 C 207.013 209.452,205.153 210.514,203.584 212.083 C 200.934 214.733,200.821 215.154,202.000 218.000 C 202.698 219.685,203.081 221.253,202.850 221.483 C 202.620 221.713,196.678 221.467,189.647 220.934 C 182.616 220.402,176.444 220.226,175.932 220.542 C 174.580 221.378,174.790 217.852,176.358 213.376 C 177.105 211.244,178.027 207.399,178.407 204.832 C 179.315 198.698,181.096 197.181,185.330 198.935 C 187.074 199.658,190.975 200.830,194.000 201.541 C 197.025 202.251,199.500 202.901,199.500 202.985 C 199.500 203.069,200.738 203.301,202.250 203.501 C 203.891 203.717,205.015 203.387,205.038 202.682 C 205.059 202.032,206.898 200.239,209.125 198.698 C 211.927 196.758,212.986 195.406,212.564 194.307 C 212.229 193.433,212.589 191.750,213.364 190.567 C 215.497 187.311,215.744 184.637,214.036 183.269 C 212.674 182.178,212.670 181.923,214.000 181.023 C 214.825 180.464,216.175 180.058,217.000 180.119 C 219.845 180.330,220.495 179.966,219.000 179.000 C 217.763 178.201,217.860 178.028,219.550 178.015 C 221.814 177.998,224.000 176.240,224.000 174.436 C 224.000 173.133,216.666 170.070,212.325 169.560 C 210.771 169.377,209.087 169.177,208.583 169.114 C 208.079 169.051,207.986 168.681,208.376 168.291 C 208.766 167.901,210.979 167.651,213.293 167.736 C 217.138 167.878,217.242 167.821,214.500 167.075 C 212.850 166.626,210.188 165.551,208.585 164.687 C 205.154 162.838,201.448 163.333,195.000 166.503 C 192.525 167.719,187.906 169.517,184.735 170.499 C 179.236 172.201,178.881 172.202,177.029 170.526 C 175.960 169.559,174.784 166.742,174.411 164.256 C 173.940 161.117,173.187 159.600,171.936 159.273 C 169.660 158.678,168.740 156.354,169.914 154.161 C 171.158 151.836,178.601 148.000,181.867 148.000 C 183.731 148.000,186.345 146.325,190.465 142.491 C 195.814 137.513,196.704 137.041,199.692 137.602 C 201.905 138.017,203.000 137.835,203.000 137.052 C 203.000 136.409,203.412 136.136,203.915 136.447 C 204.418 136.758,205.001 136.497,205.211 135.867 C 205.424 135.227,207.843 134.673,210.693 134.611 C 213.498 134.550,215.609 134.197,215.384 133.826 C 214.583 132.503,218.529 132.377,220.079 133.676 C 220.947 134.404,222.185 135.000,222.829 135.000 M261.192 132.713 C 259.324 133.070,259.109 133.426,260.064 134.577 C 261.485 136.289,260.639 136.396,257.684 134.878 C 255.949 133.986,255.741 134.011,256.672 135.000 C 257.317 135.684,259.220 136.404,260.901 136.600 C 262.582 136.796,266.105 138.447,268.729 140.269 C 279.761 147.928,282.789 148.925,277.627 143.197 C 275.847 141.221,275.761 140.751,277.026 139.882 C 278.178 139.090,278.049 138.994,276.433 139.444 C 275.010 139.840,273.616 139.220,271.957 137.454 C 269.803 135.162,269.757 134.951,271.524 135.475 C 272.611 135.798,272.375 135.552,271.000 134.928 C 269.625 134.305,267.719 133.391,266.764 132.897 C 265.809 132.404,264.684 132.061,264.264 132.136 C 263.844 132.211,262.461 132.471,261.192 132.713 M265.493 133.989 C 265.843 134.555,265.442 134.723,264.552 134.382 C 262.820 133.717,262.503 133.000,263.941 133.000 C 264.459 133.000,265.157 133.445,265.493 133.989 M283.807 141.526 C 283.499 141.834,282.940 141.279,282.564 140.293 C 282.022 138.868,282.136 138.753,283.124 139.733 C 283.808 140.412,284.115 141.219,283.807 141.526 M138.524 156.500 C 140.470 163.059,143.895 170.000,145.184 170.000 C 145.633 170.000,146.000 170.436,146.000 170.969 C 146.000 171.501,145.274 171.659,144.388 171.318 C 143.021 170.794,142.886 171.219,143.499 174.100 C 143.897 175.970,144.778 178.175,145.456 179.000 C 147.945 182.026,149.987 189.155,149.866 194.395 C 149.798 197.353,150.095 200.344,150.526 201.041 C 151.019 201.839,150.906 202.060,150.222 201.637 C 149.624 201.268,148.633 198.385,148.021 195.233 C 147.408 192.080,146.508 188.600,146.021 187.500 C 145.156 185.547,145.134 185.550,145.068 187.628 C 145.030 188.798,144.254 190.373,143.343 191.128 C 141.830 192.381,141.733 192.083,142.228 187.685 C 142.704 183.452,142.444 182.515,140.078 179.924 C 136.781 176.315,133.803 168.299,134.626 165.250 C 135.473 162.110,136.599 162.444,138.003 166.250 C 138.663 168.037,139.409 168.968,139.662 168.318 C 139.915 167.668,139.472 165.868,138.679 164.318 C 137.886 162.768,136.925 159.475,136.545 157.000 C 136.165 154.525,135.611 151.600,135.315 150.500 C 133.989 145.585,136.899 151.024,138.524 156.500 M181.500 151.000 C 181.160 151.550,181.359 152.000,181.941 152.000 C 182.523 152.000,183.000 151.550,183.000 151.000 C 183.000 150.450,182.802 150.000,182.559 150.000 C 182.316 150.000,181.840 150.450,181.500 151.000 M131.667 161.667 C 130.636 162.697,130.879 166.193,131.936 165.539 C 132.451 165.221,132.806 164.069,132.724 162.980 C 132.555 160.741,132.571 160.762,131.667 161.667 M287.415 163.043 C 287.918 163.531,286.568 163.469,284.415 162.906 C 278.663 161.402,277.970 160.920,282.500 161.576 C 284.700 161.895,286.912 162.555,287.415 163.043 M126.257 164.237 C 126.125 165.996,126.290 166.156,127.029 164.987 C 128.185 163.159,128.256 162.000,127.213 162.000 C 126.780 162.000,126.350 163.007,126.257 164.237 M278.000 167.883 C 278.000 168.369,277.100 169.002,276.000 169.290 C 274.034 169.804,273.356 168.978,274.667 167.667 C 275.637 166.697,278.000 166.850,278.000 167.883 M97.667 170.667 C 97.300 171.033,97.000 171.798,97.000 172.367 C 97.000 172.993,97.466 172.934,98.183 172.217 C 98.834 171.566,99.134 170.801,98.850 170.517 C 98.566 170.232,98.033 170.300,97.667 170.667 M214.000 177.000 C 215.113 177.720,214.519 177.973,211.691 177.985 C 209.403 177.994,208.129 177.601,208.500 177.000 C 209.281 175.736,212.044 175.736,214.000 177.000 M316.000 176.378 C 316.000 176.585,316.788 177.373,317.750 178.128 C 319.336 179.371,319.371 179.336,318.128 177.750 C 316.821 176.084,316.000 175.555,316.000 176.378 M112.984 179.519 C 111.952 180.763,112.063 181.441,113.601 183.269 C 114.634 184.496,115.532 185.623,115.596 185.774 C 116.070 186.876,119.000 184.396,119.000 182.893 C 119.000 181.852,119.563 180.982,120.250 180.961 C 121.230 180.930,115.547 178.000,114.508 178.000 C 114.363 178.000,113.678 178.683,112.984 179.519 M314.000 196.500 C 314.000 197.325,314.450 198.000,315.000 198.000 C 315.550 198.000,316.000 197.325,316.000 196.500 C 316.000 195.675,315.550 195.000,315.000 195.000 C 314.450 195.000,314.000 195.675,314.000 196.500 M320.195 197.500 C 320.215 199.150,320.439 199.704,320.693 198.731 C 320.947 197.758,320.930 196.408,320.656 195.731 C 320.382 195.054,320.175 195.850,320.195 197.500 M274.500 202.602 C 273.400 203.449,272.638 204.636,272.806 205.240 C 272.982 205.868,272.417 205.761,271.489 204.991 C 270.014 203.767,270.078 203.524,272.182 202.357 C 275.395 200.574,276.925 200.737,274.500 202.602 M312.636 202.494 C 312.952 203.316,313.683 203.696,314.261 203.339 C 314.961 202.906,315.093 203.784,314.657 205.966 C 314.089 208.803,314.203 209.076,315.501 207.999 C 317.495 206.344,317.392 204.665,315.171 202.655 C 312.899 200.598,311.884 200.534,312.636 202.494 M133.494 205.006 C 132.496 206.110,131.462 206.795,131.197 206.530 C 130.525 205.858,133.019 203.000,134.277 203.000 C 134.845 203.000,134.493 203.903,133.494 205.006 M153.000 205.118 C 153.000 205.668,152.550 205.840,152.000 205.500 C 151.450 205.160,151.000 204.432,151.000 203.882 C 151.000 203.332,151.450 203.160,152.000 203.500 C 152.550 203.840,153.000 204.568,153.000 205.118 M280.000 204.107 C 280.000 204.716,280.624 204.975,281.387 204.682 C 284.019 203.672,281.815 208.200,278.855 209.883 C 277.292 210.773,276.010 211.838,276.006 212.250 C 276.003 212.662,275.550 213.000,275.000 213.000 C 273.315 213.000,273.891 206.779,275.750 204.893 C 277.739 202.876,280.000 202.458,280.000 204.107 M297.000 204.000 C 297.000 204.550,296.802 205.000,296.559 205.000 C 296.316 205.000,295.840 204.550,295.500 204.000 C 295.160 203.450,295.359 203.000,295.941 203.000 C 296.523 203.000,297.000 203.450,297.000 204.000 M136.090 206.832 C 135.550 207.840,134.410 209.245,133.555 209.955 C 131.349 211.785,131.429 209.288,133.655 206.829 C 135.794 204.465,137.356 204.467,136.090 206.832 M277.000 206.000 C 277.000 206.550,277.675 207.000,278.500 207.000 C 279.325 207.000,280.000 206.550,280.000 206.000 C 280.000 205.450,279.325 205.000,278.500 205.000 C 277.675 205.000,277.000 205.450,277.000 206.000 M272.264 207.598 C 273.126 208.460,271.978 211.000,270.726 211.000 C 270.144 211.000,269.960 210.707,270.318 210.349 C 270.676 209.991,270.188 209.105,269.234 208.381 C 267.623 207.157,267.648 207.061,269.583 207.032 C 270.729 207.014,271.936 207.269,272.264 207.598 M147.000 214.835 C 147.000 216.710,138.565 226.000,136.862 226.000 C 136.345 226.000,136.880 224.988,138.051 223.750 C 139.223 222.512,141.566 219.588,143.260 217.250 C 146.741 212.445,147.000 212.278,147.000 214.835 M274.092 220.086 C 273.453 221.685,273.105 221.937,273.063 220.832 C 272.979 218.615,274.274 215.321,274.712 216.636 C 274.902 217.206,274.623 218.758,274.092 220.086 M281.484 222.750 C 282.869 225.363,284.731 228.512,285.623 229.750 C 286.514 230.988,287.008 232.000,286.719 232.000 C 286.043 232.000,279.523 222.047,278.694 219.750 C 277.494 216.424,278.975 218.017,281.484 222.750 M145.345 224.543 C 145.019 225.392,144.538 225.872,144.276 225.610 C 144.014 225.348,144.096 224.653,144.459 224.067 C 145.445 222.471,146.021 222.781,145.345 224.543 M120.099 235.500 C 120.845 237.138,120.895 237.047,120.372 235.000 L 119.734 232.500 121.954 234.483 C 124.718 236.954,129.995 244.688,130.016 246.300 C 130.024 246.960,132.049 249.747,134.516 252.493 C 136.982 255.240,139.000 257.017,139.000 256.443 C 139.000 255.870,138.460 254.860,137.800 254.200 C 136.867 253.267,137.089 253.000,138.800 253.000 C 140.126 253.000,141.000 253.619,141.000 254.559 C 141.000 255.426,141.482 255.820,142.086 255.447 C 142.798 255.007,143.108 255.936,142.985 258.138 C 142.663 263.903,142.954 265.811,144.370 267.227 C 145.124 267.981,146.451 269.971,147.319 271.650 C 148.187 273.329,150.460 276.074,152.368 277.750 C 155.805 280.768,155.816 280.802,153.441 281.256 C 150.453 281.827,145.724 278.716,140.688 272.865 C 138.511 270.337,137.184 269.342,137.534 270.500 C 137.970 271.943,137.711 271.803,136.605 270.000 C 135.761 268.625,135.055 266.697,135.035 265.716 C 135.016 264.735,133.731 262.692,132.180 261.176 C 130.629 259.660,129.526 257.921,129.729 257.312 C 129.942 256.674,129.020 256.268,127.550 256.353 C 125.533 256.469,125.004 257.022,125.016 259.000 C 125.028 260.970,125.233 261.182,125.984 260.000 C 126.777 258.752,127.447 259.057,129.969 261.812 C 133.331 265.485,133.706 267.169,131.560 268.950 C 130.768 269.607,129.981 271.044,129.810 272.143 C 129.600 273.494,128.250 271.609,125.639 266.321 C 123.516 262.019,120.906 256.824,119.839 254.775 C 118.773 252.726,117.330 248.852,116.633 246.166 C 115.421 241.494,115.452 241.305,117.340 241.799 C 118.666 242.146,119.078 241.935,118.597 241.158 C 118.204 240.521,117.222 240.000,116.416 240.000 C 114.867 240.000,113.000 236.160,113.000 232.974 C 113.000 231.931,114.013 230.131,115.250 228.974 L 117.500 226.870 118.344 230.185 C 118.808 232.008,119.598 234.400,120.099 235.500 M137.000 228.441 C 137.000 228.684,136.550 229.160,136.000 229.500 C 135.450 229.840,135.000 229.641,135.000 229.059 C 135.000 228.477,135.450 228.000,136.000 228.000 C 136.550 228.000,137.000 228.198,137.000 228.441 M145.286 234.016 C 144.996 235.124,144.363 236.276,143.879 236.575 C 143.396 236.873,142.964 238.104,142.921 239.309 C 142.878 240.514,142.616 240.941,142.341 240.259 C 141.714 238.707,143.861 232.000,144.984 232.000 C 145.440 232.000,145.576 232.907,145.286 234.016 M311.000 238.500 C 311.000 239.325,311.450 240.000,312.000 240.000 C 312.550 240.000,313.000 239.325,313.000 238.500 C 313.000 237.675,312.550 237.000,312.000 237.000 C 311.450 237.000,311.000 237.675,311.000 238.500 M145.053 241.550 C 144.188 244.447,144.170 244.453,144.086 241.917 C 144.039 240.496,144.300 239.033,144.667 238.667 C 145.828 237.506,145.962 238.507,145.053 241.550 M215.000 244.000 C 215.000 244.550,214.325 245.000,213.500 245.000 C 212.675 245.000,212.000 244.550,212.000 244.000 C 212.000 243.450,212.675 243.000,213.500 243.000 C 214.325 243.000,215.000 243.450,215.000 244.000 M210.500 245.000 C 210.160 245.550,209.346 245.993,208.691 245.985 C 207.975 245.975,208.099 245.582,209.000 245.000 C 210.921 243.758,211.267 243.758,210.500 245.000 M312.000 245.000 C 312.000 245.550,312.450 246.000,313.000 246.000 C 313.550 246.000,314.000 245.550,314.000 245.000 C 314.000 244.450,313.550 244.000,313.000 244.000 C 312.450 244.000,312.000 244.450,312.000 245.000 M122.402 248.487 C 122.657 250.880,125.888 255.445,126.730 254.603 C 127.178 254.155,123.214 246.000,122.548 246.000 C 122.322 246.000,122.256 247.119,122.402 248.487 M240.421 250.564 C 241.840 251.983,241.777 252.492,239.743 256.048 C 238.424 258.352,236.320 260.380,234.636 260.971 C 230.244 262.511,213.000 263.514,213.000 262.229 C 213.000 257.436,220.680 252.233,230.341 250.480 C 234.278 249.765,237.805 249.140,238.179 249.090 C 238.552 249.041,239.561 249.704,240.421 250.564 M305.000 259.000 C 305.825 259.533,306.050 259.969,305.500 259.969 C 304.950 259.969,303.825 259.533,303.000 259.000 C 302.175 258.467,301.950 258.031,302.500 258.031 C 303.050 258.031,304.175 258.467,305.000 259.000 M138.000 262.000 C 138.000 262.550,138.477 263.000,139.059 263.000 C 139.641 263.000,139.840 262.550,139.500 262.000 C 139.160 261.450,138.684 261.000,138.441 261.000 C 138.198 261.000,138.000 261.450,138.000 262.000 M298.000 262.327 C 298.000 262.752,298.765 264.539,299.700 266.300 C 301.096 268.929,301.470 269.166,301.797 267.625 C 302.016 266.594,301.251 264.806,300.097 263.653 C 298.944 262.499,298.000 261.903,298.000 262.327 M311.500 275.000 C 311.160 275.550,311.359 276.000,311.941 276.000 C 312.523 276.000,313.000 275.550,313.000 275.000 C 313.000 274.450,312.802 274.000,312.559 274.000 C 312.316 274.000,311.840 274.450,311.500 275.000 M315.284 277.409 C 312.174 278.540,312.115 278.668,313.475 281.289 C 314.249 282.780,314.444 284.000,313.909 284.000 C 313.375 284.000,312.678 283.325,312.362 282.500 C 312.045 281.675,310.799 281.000,309.593 281.000 C 308.387 281.000,306.807 280.438,306.082 279.750 C 305.032 278.754,305.038 278.953,306.112 280.732 C 307.333 282.755,312.392 285.497,314.250 285.143 C 314.663 285.064,315.000 285.498,315.000 286.107 C 315.000 286.716,315.563 286.998,316.250 286.734 C 317.034 286.434,317.500 287.140,317.500 288.627 C 317.500 289.932,317.136 291.000,316.691 291.000 C 316.246 291.000,316.160 291.450,316.500 292.000 C 316.840 292.550,316.416 293.000,315.559 293.000 C 313.177 293.000,313.667 294.367,317.509 298.441 C 319.439 300.487,320.796 302.521,320.525 302.960 C 320.253 303.399,321.148 304.875,322.512 306.240 C 324.333 308.060,324.898 309.543,324.634 311.806 C 324.331 314.410,325.360 316.000,327.349 316.000 C 327.451 316.000,327.401 313.863,327.238 311.250 C 326.830 304.724,326.826 305.058,327.376 299.809 C 327.854 295.248,326.395 290.024,324.639 290.008 C 324.166 290.004,324.803 289.170,326.056 288.156 C 327.543 286.952,328.333 285.232,328.333 283.200 C 328.333 281.265,328.743 280.314,329.417 280.685 C 330.012 281.013,329.825 280.602,329.000 279.772 C 327.447 278.209,321.531 275.910,319.601 276.119 C 318.995 276.185,317.053 276.765,315.284 277.409 M326.573 286.760 C 326.246 287.087,325.323 286.487,324.521 285.427 C 322.347 282.552,322.702 281.702,325.083 284.083 C 326.229 285.229,326.900 286.434,326.573 286.760 M267.232 287.000 C 267.232 288.925,267.438 289.712,267.689 288.750 C 267.941 287.788,267.941 286.212,267.689 285.250 C 267.438 284.288,267.232 285.075,267.232 287.000 M307.000 285.059 C 307.000 285.641,307.450 285.840,308.000 285.500 C 308.550 285.160,309.000 284.684,309.000 284.441 C 309.000 284.198,308.550 284.000,308.000 284.000 C 307.450 284.000,307.000 284.477,307.000 285.059 M334.651 290.468 C 334.341 291.275,334.518 292.202,335.044 292.527 C 335.570 292.852,336.000 292.191,336.000 291.059 C 336.000 288.644,335.444 288.401,334.651 290.468 M296.500 293.000 C 296.840 293.550,296.641 294.000,296.059 294.000 C 295.477 294.000,295.000 293.550,295.000 293.000 C 295.000 292.450,295.198 292.000,295.441 292.000 C 295.684 292.000,296.160 292.450,296.500 293.000 M306.364 301.959 C 306.061 302.257,304.287 300.700,302.422 298.500 C 300.556 296.300,299.023 295.137,299.015 295.917 C 299.007 296.696,298.764 297.098,298.476 296.810 C 298.189 296.522,298.268 295.465,298.653 294.462 C 299.256 292.890,299.874 293.244,303.134 297.028 C 305.213 299.443,306.667 301.662,306.364 301.959 M322.500 298.000 C 322.160 298.550,321.346 298.993,320.691 298.985 C 319.975 298.975,320.099 298.582,321.000 298.000 C 322.921 296.758,323.267 296.758,322.500 298.000 M144.575 301.610 C 145.562 301.231,146.896 301.859,148.055 303.248 C 149.088 304.486,149.948 304.934,149.967 304.242 C 149.993 303.233,150.398 303.232,152.000 304.232 C 154.582 305.844,154.586 307.321,152.006 306.502 C 150.508 306.026,150.155 306.240,150.585 307.362 C 151.654 310.148,147.534 308.034,143.437 303.695 C 141.272 301.402,140.282 300.133,141.237 300.875 C 142.193 301.617,143.695 301.947,144.575 301.610 M267.272 306.000 C 267.272 308.475,267.467 309.488,267.706 308.250 C 267.944 307.012,267.944 304.988,267.706 303.750 C 267.467 302.512,267.272 303.525,267.272 306.000 M268.015 312.583 C 268.024 313.637,268.487 315.175,269.046 316.000 C 269.787 317.095,269.880 316.691,269.390 314.500 C 268.567 310.823,267.995 310.025,268.015 312.583 M329.232 314.000 C 329.232 315.925,329.438 316.712,329.689 315.750 C 329.941 314.788,329.941 313.212,329.689 312.250 C 329.438 311.288,329.232 312.075,329.232 314.000 M225.000 327.118 C 225.000 327.668,224.550 327.840,224.000 327.500 C 223.450 327.160,223.000 326.432,223.000 325.882 C 223.000 325.332,223.450 325.160,224.000 325.500 C 224.550 325.840,225.000 326.568,225.000 327.118 M372.607 364.582 C 372.273 365.452,372.000 368.377,372.000 371.082 C 372.000 373.787,371.580 376.000,371.066 376.000 C 370.553 376.000,369.990 377.238,369.816 378.750 C 369.513 381.389,369.405 381.318,367.158 377.000 C 365.701 374.199,365.006 373.444,365.317 375.000 C 365.593 376.375,366.593 381.184,367.540 385.687 C 369.319 394.146,369.015 397.604,366.574 396.667 C 365.799 396.370,364.906 396.801,364.590 397.627 C 364.273 398.452,363.561 398.847,363.007 398.504 C 361.487 397.565,361.813 400.821,363.907 407.500 C 364.942 410.800,366.304 415.413,366.933 417.750 C 368.223 422.543,370.002 423.413,369.997 419.250 C 369.995 417.738,370.856 413.350,371.910 409.500 C 376.111 394.150,376.989 384.353,375.469 369.750 C 374.782 363.146,373.823 361.413,372.607 364.582 M127.249 388.000 C 126.561 392.675,126.008 399.875,126.021 404.000 L 126.044 411.500 127.993 409.000 C 129.065 407.625,130.618 404.543,131.444 402.151 C 132.774 398.300,132.775 397.633,131.457 396.314 C 130.373 395.230,130.122 393.556,130.535 390.162 C 130.927 386.942,130.798 385.948,130.119 386.950 C 129.390 388.024,129.052 387.247,128.817 383.950 C 128.538 380.033,128.350 380.519,127.249 388.000 M252.500 410.049 C 248.100 412.183,240.287 415.574,235.139 417.585 C 224.427 421.769,221.295 421.761,210.873 417.526 C 207.458 416.139,204.512 415.155,204.327 415.340 C 203.678 415.989,213.979 421.102,218.851 422.548 C 223.616 423.963,223.985 423.920,230.635 421.149 C 245.487 414.961,256.654 409.768,259.020 407.950 C 262.393 405.358,261.742 405.568,252.500 410.049 M196.000 412.000 C 197.925 413.054,199.950 413.916,200.500 413.916 C 201.050 413.916,199.925 413.054,198.000 412.000 C 196.075 410.946,194.050 410.084,193.500 410.084 C 192.950 410.084,194.075 410.946,196.000 412.000 M369.844 431.500 C 371.411 446.907,369.980 485.276,367.788 486.631 C 367.281 486.944,366.236 486.368,365.465 485.350 C 364.694 484.333,364.049 484.030,364.032 484.679 C 364.014 485.327,364.691 486.548,365.536 487.393 C 366.380 488.238,366.999 489.282,366.911 489.714 C 366.823 490.146,367.043 494.372,367.400 499.103 C 368.342 511.576,367.950 511.938,360.921 505.081 C 357.664 501.904,355.000 498.787,355.000 498.153 C 355.000 497.519,354.630 497.000,354.179 497.000 C 352.274 497.000,341.993 485.957,341.885 483.794 C 341.704 480.199,341.566 479.608,340.500 477.861 C 339.950 476.960,338.600 476.054,337.500 475.848 C 336.400 475.641,335.500 474.954,335.500 474.320 C 335.500 473.686,335.163 472.829,334.750 472.417 C 334.337 472.004,334.000 472.192,334.000 472.833 C 334.000 474.745,331.694 474.165,328.552 471.463 C 326.312 469.536,324.933 469.076,322.802 469.544 C 320.927 469.955,319.829 469.719,319.486 468.830 C 318.865 467.220,313.017 466.830,312.960 468.394 C 312.938 469.002,312.250 468.266,311.432 466.757 C 310.329 464.725,308.915 463.850,305.972 463.380 C 303.787 463.030,302.000 462.322,302.000 461.805 C 302.000 461.288,301.098 461.152,299.995 461.502 C 298.696 461.914,297.791 461.619,297.425 460.665 C 297.083 459.773,295.836 459.304,294.266 459.476 C 292.839 459.633,290.122 459.113,288.228 458.322 C 284.271 456.669,282.732 457.334,285.573 459.469 C 287.351 460.805,287.230 460.875,284.000 460.381 C 282.075 460.087,279.721 459.852,278.770 459.859 C 277.818 459.867,276.774 459.444,276.451 458.920 C 276.127 458.396,275.481 458.203,275.015 458.491 C 274.549 458.779,272.893 458.491,271.334 457.851 C 269.775 457.211,267.674 456.793,266.664 456.921 C 265.655 457.050,264.080 456.505,263.164 455.712 C 261.666 454.412,257.101 452.734,254.500 452.527 C 253.950 452.483,253.050 452.184,252.500 451.862 C 251.950 451.540,250.262 450.981,248.750 450.619 C 246.466 450.073,246.000 450.292,246.000 451.910 C 246.000 454.328,248.045 456.410,254.483 460.547 C 257.242 462.320,262.968 466.410,267.206 469.635 C 271.444 472.861,277.407 477.050,280.456 478.945 C 283.505 480.840,286.000 482.780,286.000 483.254 C 286.000 483.729,285.438 483.794,284.750 483.399 C 284.063 483.003,283.835 483.049,284.244 483.501 C 285.249 484.609,299.039 491.789,325.500 504.980 C 349.159 516.774,355.357 520.750,359.930 527.063 C 362.276 530.301,362.746 531.788,362.298 534.552 L 361.738 538.000 368.739 538.000 L 375.740 538.000 375.663 515.750 C 375.621 503.512,375.907 489.225,376.300 484.000 C 377.050 474.007,375.988 460.165,373.231 444.000 C 371.430 433.442,371.562 434.067,370.707 432.000 C 370.365 431.175,369.894 429.375,369.660 428.000 C 369.425 426.625,369.508 428.200,369.844 431.500 M251.500 432.000 C 252.816 432.565,252.990 432.883,252.010 432.930 C 250.961 432.979,251.274 433.698,253.067 435.361 C 256.551 438.592,261.803 440.817,266.000 440.840 L 269.500 440.859 267.085 438.886 C 265.757 437.800,264.045 437.153,263.280 437.446 C 262.516 437.739,260.699 436.875,259.243 435.525 C 257.787 434.175,256.350 433.341,256.048 433.672 C 255.747 434.003,256.063 434.475,256.750 434.720 C 257.438 434.966,258.000 435.606,258.000 436.142 C 258.000 437.805,255.925 435.933,254.963 433.403 C 254.353 431.798,253.294 431.023,251.775 431.070 C 249.613 431.137,249.600 431.183,251.500 432.000 M186.000 454.075 C 186.000 454.516,185.213 454.882,184.250 454.890 C 174.651 454.970,171.388 455.263,170.329 456.142 C 169.646 456.708,168.670 456.914,168.159 456.598 C 167.002 455.883,160.792 457.944,159.674 459.414 C 159.093 460.177,158.697 460.129,158.341 459.250 C 158.062 458.563,157.394 458.000,156.858 458.000 C 156.321 458.000,156.203 458.520,156.595 459.155 C 157.047 459.885,156.869 460.037,156.111 459.568 C 155.452 459.161,154.314 459.324,153.583 459.931 C 152.219 461.063,149.000 460.408,149.000 458.999 C 149.000 457.712,144.065 458.391,143.543 459.750 C 142.971 461.238,140.000 461.440,140.000 459.992 C 140.000 459.396,139.169 459.498,137.969 460.242 C 136.591 461.096,135.708 461.165,135.219 460.458 C 134.068 458.789,129.004 458.826,128.358 460.508 C 127.571 462.560,126.000 462.387,126.000 460.250 C 126.000 458.915,125.228 458.531,122.750 458.632 C 117.359 458.851,117.213 458.919,117.158 461.250 C 117.017 467.173,116.429 471.907,115.750 472.585 C 115.337 472.996,115.000 474.183,115.000 475.222 C 115.000 476.261,113.370 480.123,111.377 483.805 C 107.714 490.574,107.522 490.176,110.511 482.011 C 111.755 478.615,111.997 475.814,111.506 470.511 C 110.281 457.282,109.437 457.208,105.677 470.000 C 101.501 484.203,99.287 497.957,97.507 520.745 C 96.904 528.466,96.213 532.028,94.497 536.250 C 93.875 537.781,94.425 538.000,98.893 538.000 C 102.766 538.000,104.000 537.638,104.000 536.500 C 104.000 535.675,104.450 535.000,105.000 535.000 C 105.550 535.000,106.007 533.763,106.015 532.250 C 106.026 530.287,106.281 529.896,106.907 530.883 C 107.551 531.900,107.965 531.435,108.473 529.124 C 108.852 527.396,109.576 526.238,110.081 526.550 C 110.587 526.863,111.000 526.418,111.000 525.561 C 111.000 521.357,120.549 511.283,130.791 504.683 C 133.150 503.162,138.325 498.931,142.291 495.281 C 148.089 489.943,152.044 487.433,162.500 482.452 C 169.650 479.046,178.968 474.982,183.207 473.420 C 187.445 471.858,190.741 470.408,190.532 470.198 C 189.974 469.641,178.858 473.677,168.500 478.197 C 155.876 483.706,155.951 483.701,161.500 478.639 C 164.250 476.130,166.797 474.060,167.160 474.038 C 167.523 474.017,169.998 472.282,172.660 470.182 C 175.322 468.082,179.532 465.176,182.017 463.724 C 184.501 462.272,187.446 460.233,188.562 459.193 C 189.678 458.154,191.119 457.122,191.764 456.901 C 193.714 456.234,191.515 453.880,188.647 453.566 C 187.191 453.406,186.000 453.635,186.000 454.075 M292.000 462.000 C 292.825 462.533,293.050 462.969,292.500 462.969 C 291.950 462.969,290.825 462.533,290.000 462.000 C 289.175 461.467,288.950 461.031,289.500 461.031 C 290.050 461.031,291.175 461.467,292.000 462.000 M212.095 465.118 C 208.022 465.590,204.422 466.265,204.095 466.616 C 203.066 467.723,226.585 466.334,228.590 465.169 C 230.145 464.267,229.479 464.079,225.000 464.160 C 221.975 464.215,216.168 464.646,212.095 465.118 M199.813 467.683 C 200.534 467.972,201.397 467.936,201.729 467.604 C 202.061 467.272,201.471 467.036,200.417 467.079 C 199.252 467.127,199.015 467.364,199.813 467.683 M453.683 504.188 C 453.364 504.985,453.127 504.748,453.079 503.583 C 453.036 502.529,453.272 501.939,453.604 502.271 C 453.936 502.603,453.972 503.466,453.683 504.188 " stroke="none" fill="black" fill-rule="evenodd"/></svg>