<svg id="svg" version="1.1" width="375" height="666" xmlns="http://www.w3.org/2000/svg"><path d="M8.469 0.950 C 8.792 1.472,8.083 2.421,6.893 3.057 C 4.845 4.153,4.764 4.680,5.387 12.929 C 5.932 20.142,5.697 22.771,4.025 28.184 C 2.054 34.563,2.006 37.153,2.051 133.112 C 2.077 187.226,1.735 256.925,1.292 288.000 C 0.083 372.831,0.379 401.549,2.515 406.500 C 4.411 410.894,4.984 416.363,4.309 423.599 C 3.895 428.025,3.293 430.000,2.355 430.000 C 1.284 430.000,1.000 432.738,1.000 443.067 L 1.000 456.135 3.250 455.430 C 9.567 453.450,19.302 448.110,27.000 442.402 C 30.025 440.159,33.607 437.734,34.960 437.014 C 36.313 436.294,39.982 433.184,43.113 430.102 C 46.244 427.021,49.637 423.744,50.653 422.820 C 51.669 421.897,52.950 420.546,53.500 419.819 C 54.050 419.093,55.834 416.715,57.464 414.535 C 62.553 407.731,63.663 406.921,66.449 407.980 C 67.815 408.500,72.436 411.257,76.717 414.107 C 91.651 424.050,104.823 431.894,115.972 437.486 L 127.203 443.118 125.351 445.264 C 124.333 446.445,122.600 448.363,121.500 449.526 C 120.400 450.690,117.925 453.613,116.000 456.022 C 111.967 461.068,96.227 479.701,94.000 482.065 C 84.132 492.541,78.732 498.464,74.847 503.072 C 72.288 506.108,66.438 512.641,61.847 517.590 C 42.032 538.951,36.488 545.599,31.122 554.437 C 29.264 557.496,27.352 560.000,26.872 560.000 C 26.393 560.000,26.000 560.471,26.000 561.048 C 26.000 561.624,24.875 563.138,23.500 564.412 C 22.125 565.687,21.000 567.019,21.000 567.373 C 21.000 567.728,19.809 569.354,18.353 570.988 C 15.167 574.564,12.213 582.249,10.741 590.792 C 9.701 596.825,9.551 597.062,7.078 596.560 C 5.639 596.268,3.703 596.647,2.695 597.419 C 1.049 598.679,1.017 599.105,2.332 602.252 C 3.269 604.496,4.019 611.616,4.475 622.602 C 5.365 644.034,5.609 646.802,6.743 648.287 C 8.096 650.058,9.963 660.050,9.540 663.250 L 9.176 666.000 182.588 666.000 C 277.965 666.000,356.000 665.795,356.000 665.544 C 356.000 665.293,354.650 662.798,353.000 660.000 C 351.350 657.202,350.000 654.724,350.000 654.494 C 350.000 654.264,348.467 650.797,346.592 646.788 C 338.044 628.505,335.297 621.873,329.904 606.500 C 327.589 599.900,323.299 588.358,320.372 580.852 C 313.161 562.356,300.714 525.209,298.642 516.000 C 297.714 511.875,296.484 506.402,295.908 503.837 C 294.728 498.587,294.534 485.563,295.609 483.823 C 297.018 481.544,298.703 471.138,297.874 469.831 C 297.410 469.099,297.024 464.337,297.015 459.250 C 297.007 454.163,296.586 450.000,296.079 450.000 C 295.573 450.000,294.863 448.651,294.500 447.001 C 294.138 445.352,292.502 441.322,290.865 438.046 C 289.228 434.770,287.651 430.382,287.359 428.295 C 287.068 426.208,286.585 423.825,286.286 423.000 C 284.496 418.059,287.627 412.287,293.857 409.043 C 295.581 408.145,295.917 407.517,295.107 406.707 C 294.498 406.098,294.000 405.258,294.000 404.839 C 294.000 403.638,298.222 400.019,299.036 400.522 C 300.059 401.154,301.936 393.202,302.525 385.744 C 303.012 379.569,302.106 380.292,300.552 387.317 L 299.928 390.133 298.050 387.817 C 295.170 384.263,294.246 386.636,296.790 391.056 L 299.047 394.978 295.515 398.739 C 292.097 402.377,291.933 402.437,290.491 400.559 C 289.671 399.491,289.000 397.830,289.000 396.868 C 289.000 395.905,288.550 394.840,288.000 394.500 C 287.450 394.160,287.000 392.649,287.000 391.141 C 287.000 389.633,286.597 387.973,286.105 387.450 C 285.613 386.928,284.903 385.038,284.526 383.250 C 283.992 380.714,284.173 380.000,285.353 380.000 C 287.177 380.000,288.477 383.276,288.490 387.906 C 288.496 389.779,289.063 391.504,289.750 391.739 C 291.795 392.439,291.372 382.468,289.250 379.931 C 284.930 374.768,282.996 373.000,281.670 373.000 C 280.886 373.000,279.685 372.325,279.000 371.500 C 278.140 370.464,278.102 370.000,278.878 370.000 C 279.495 370.000,280.000 369.550,280.000 369.000 C 280.000 368.450,279.325 368.000,278.500 368.000 C 277.579 368.000,277.000 367.064,277.000 365.576 C 277.000 360.947,270.462 345.681,264.847 337.200 C 263.281 334.835,262.000 332.022,262.000 330.950 C 262.000 328.419,261.267 328.489,258.854 331.250 C 256.898 333.487,256.893 333.487,257.944 331.316 C 258.525 330.114,259.000 327.977,259.000 326.566 C 259.000 323.214,260.349 323.298,261.971 326.750 C 262.751 328.411,263.446 328.990,263.727 328.212 C 263.983 327.504,263.474 325.411,262.596 323.561 C 261.718 321.711,261.000 319.755,261.000 319.213 C 261.000 318.672,260.328 316.940,259.506 315.364 C 258.685 313.789,258.010 311.739,258.006 310.809 C 258.003 309.879,257.612 308.878,257.137 308.585 C 255.662 307.673,254.120 299.891,253.552 290.500 C 253.253 285.550,252.332 278.350,251.504 274.500 C 249.753 266.351,249.662 265.227,250.861 266.550 C 251.335 267.072,252.276 271.100,252.952 275.500 C 254.808 287.578,257.405 297.980,257.821 295.000 C 258.013 293.625,258.631 292.050,259.196 291.500 C 259.896 290.818,260.039 292.406,259.647 296.500 C 259.331 299.800,259.024 302.725,258.966 303.000 C 258.907 303.275,258.473 302.600,258.000 301.500 C 257.334 299.949,257.125 299.867,257.070 301.136 C 257.032 302.035,257.672 304.060,258.494 305.636 C 259.315 307.211,259.990 309.218,259.994 310.096 C 260.001 311.839,262.146 316.609,265.275 321.839 C 266.748 324.301,267.488 324.828,268.095 323.847 C 269.137 322.160,270.270 323.379,271.957 328.000 C 274.307 334.439,276.086 338.000,276.953 338.000 C 277.426 338.000,277.596 339.012,277.332 340.250 C 276.889 342.327,276.961 342.366,278.275 340.766 C 279.971 338.698,280.982 339.351,280.275 342.058 C 279.995 343.126,279.066 344.000,278.209 344.000 C 276.937 344.000,277.023 344.413,278.677 346.250 C 279.791 347.488,280.980 349.288,281.320 350.250 C 281.659 351.212,282.359 352.000,282.875 352.000 C 284.167 352.000,283.096 348.325,281.392 346.910 C 279.759 345.555,279.563 344.000,281.025 344.000 C 281.588 344.000,282.441 345.031,282.921 346.291 C 283.400 347.551,284.491 349.162,285.345 349.871 C 286.199 350.580,287.426 352.811,288.072 354.830 C 290.340 361.919,297.602 366.942,305.781 367.079 C 308.376 367.122,309.935 367.386,309.244 367.664 C 308.553 367.943,308.245 368.587,308.559 369.096 C 308.882 369.619,310.027 369.394,311.190 368.580 C 312.472 367.681,313.861 367.448,314.874 367.961 C 315.768 368.414,317.782 369.294,319.348 369.916 C 321.101 370.612,321.995 371.571,321.673 372.410 C 321.314 373.345,321.732 373.621,323.001 373.289 C 324.130 372.994,325.565 373.668,326.676 375.014 C 327.679 376.229,329.081 377.835,329.792 378.582 C 330.502 379.329,331.554 381.416,332.130 383.220 C 333.324 386.961,336.215 393.255,337.082 394.000 C 337.402 394.275,341.110 401.475,345.323 410.000 C 349.536 418.525,355.686 429.644,358.991 434.709 C 362.296 439.775,365.000 444.387,365.000 444.959 C 365.000 445.532,365.450 446.000,366.000 446.000 C 366.550 446.000,367.000 446.675,367.000 447.500 C 367.000 448.325,367.431 449.000,367.958 449.000 C 368.485 449.000,370.102 451.025,371.553 453.500 C 373.003 455.975,374.372 458.000,374.595 458.000 C 374.818 458.000,375.000 354.950,375.000 229.000 L 375.000 0.000 191.441 0.000 C 75.787 0.000,8.099 0.351,8.469 0.950 M148.002 132.454 C 145.327 133.934,144.393 133.791,145.459 132.067 C 145.821 131.480,147.104 131.016,148.309 131.035 C 150.422 131.070,150.411 131.120,148.002 132.454 M170.500 132.000 C 170.840 132.550,170.416 133.000,169.559 133.000 C 168.702 133.000,168.000 132.550,168.000 132.000 C 168.000 131.450,168.423 131.000,168.941 131.000 C 169.459 131.000,170.160 131.450,170.500 132.000 M143.000 133.935 C 143.000 134.450,141.425 135.440,139.500 136.136 C 137.575 136.832,136.000 137.761,136.000 138.201 C 136.000 138.640,135.523 139.000,134.941 139.000 C 133.266 139.000,134.933 137.012,138.359 134.923 C 141.855 132.791,143.000 132.547,143.000 133.935 M167.000 135.000 C 167.000 135.550,166.550 136.000,166.000 136.000 C 165.450 136.000,165.000 135.550,165.000 135.000 C 165.000 134.450,165.450 134.000,166.000 134.000 C 166.550 134.000,167.000 134.450,167.000 135.000 M197.000 136.000 C 197.000 136.550,196.802 137.000,196.559 137.000 C 196.316 137.000,195.840 136.550,195.500 136.000 C 195.160 135.450,195.359 135.000,195.941 135.000 C 196.523 135.000,197.000 135.450,197.000 136.000 M130.638 138.500 C 130.247 139.520,130.692 140.000,132.031 140.000 C 133.114 140.000,134.000 140.450,134.000 141.000 C 134.000 141.550,133.388 142.000,132.640 142.000 C 131.891 142.000,129.079 142.288,126.390 142.641 C 123.700 142.993,121.852 142.904,122.281 142.443 C 122.711 141.981,122.178 141.131,121.097 140.552 C 119.499 139.697,120.085 139.500,124.232 139.500 C 127.424 139.500,129.489 139.032,129.750 138.250 C 129.979 137.563,130.402 137.000,130.690 137.000 C 130.978 137.000,130.955 137.675,130.638 138.500 M202.760 139.095 C 203.717 140.247,205.400 141.568,206.500 142.031 C 208.204 142.749,208.241 142.883,206.750 142.937 C 205.787 142.971,205.000 143.477,205.000 144.059 C 205.000 144.641,204.502 144.810,203.893 144.434 C 203.099 143.943,203.125 143.541,203.982 143.011 C 204.771 142.523,203.959 141.520,201.589 140.055 C 197.652 137.622,197.229 137.000,199.510 137.000 C 200.340 137.000,201.803 137.943,202.760 139.095 M196.000 139.000 C 197.135 139.734,196.695 139.973,194.191 139.985 C 192.236 139.994,191.135 139.591,191.500 139.000 C 192.276 137.744,194.056 137.744,196.000 139.000 M116.500 141.000 C 116.840 141.550,116.622 142.000,116.015 142.000 C 114.517 142.000,103.025 149.937,98.866 153.844 C 97.015 155.583,94.713 157.259,93.750 157.570 C 92.787 157.881,92.000 158.554,92.000 159.067 C 92.000 159.580,91.325 160.000,90.500 160.000 C 89.675 160.000,89.000 160.450,89.000 161.000 C 89.000 161.550,88.185 162.000,87.189 162.000 C 86.192 162.000,84.348 162.959,83.090 164.130 C 81.266 165.830,81.076 166.445,82.152 167.172 C 83.244 167.911,83.215 168.053,82.000 167.923 C 81.175 167.835,79.825 167.823,79.000 167.897 C 77.667 168.016,77.667 168.140,79.000 169.019 C 80.232 169.830,79.695 170.677,76.000 173.754 C 73.525 175.814,70.467 178.512,69.205 179.750 C 67.942 180.988,66.480 182.000,65.955 182.000 C 63.597 182.000,65.318 184.114,68.134 184.677 L 71.268 185.304 68.384 186.777 C 63.724 189.157,62.000 191.131,62.000 194.082 C 62.000 197.042,58.056 201.000,55.106 201.000 C 54.212 201.000,52.919 201.900,52.232 203.000 C 51.545 204.100,50.424 204.986,49.742 204.970 C 49.059 204.953,49.288 204.481,50.250 203.920 C 51.213 203.359,52.000 202.248,52.000 201.450 C 52.000 199.677,49.340 199.514,48.720 201.250 C 48.475 201.938,47.888 202.138,47.416 201.696 C 46.944 201.253,47.165 200.516,47.907 200.057 C 48.649 199.599,48.947 198.723,48.569 198.112 C 48.184 197.488,48.530 197.000,49.358 197.000 C 50.169 197.000,51.034 196.438,51.280 195.750 C 51.525 195.063,52.112 194.862,52.584 195.304 C 53.056 195.747,52.793 196.510,52.000 197.000 C 49.679 198.434,51.780 199.459,54.252 198.098 C 57.345 196.395,62.245 189.255,60.694 188.711 C 59.861 188.419,60.030 187.694,61.250 186.317 C 62.212 185.231,63.000 183.815,63.000 183.171 C 63.000 182.527,63.450 182.000,64.000 182.000 C 64.550 182.000,65.000 181.373,65.000 180.607 C 65.000 179.841,65.675 178.955,66.500 178.638 C 67.325 178.322,68.000 177.374,68.000 176.531 C 68.000 175.689,68.661 175.000,69.469 175.000 C 70.426 175.000,70.716 174.422,70.300 173.339 C 69.790 172.010,70.111 171.796,71.910 172.266 C 73.569 172.700,74.018 172.488,73.623 171.459 C 73.328 170.692,73.525 169.794,74.060 169.463 C 74.595 169.132,74.774 168.443,74.457 167.931 C 74.141 167.419,74.580 167.000,75.432 167.000 C 76.285 167.000,78.224 165.736,79.741 164.191 C 83.316 160.550,87.856 157.455,91.000 156.515 C 92.375 156.104,94.882 154.329,96.571 152.571 C 100.485 148.497,105.422 144.784,110.485 142.107 C 115.006 139.717,115.635 139.601,116.500 141.000 M187.269 144.656 C 186.592 144.930,185.242 144.947,184.269 144.693 C 183.296 144.439,183.850 144.215,185.500 144.195 C 187.150 144.175,187.946 144.382,187.269 144.656 M216.000 148.000 C 216.000 148.550,215.550 149.000,215.000 149.000 C 214.450 149.000,214.000 148.550,214.000 148.000 C 214.000 147.450,214.450 147.000,215.000 147.000 C 215.550 147.000,216.000 147.450,216.000 148.000 M201.500 151.000 C 201.160 151.550,200.432 152.000,199.882 152.000 C 199.332 152.000,199.160 151.550,199.500 151.000 C 199.840 150.450,200.568 150.000,201.118 150.000 C 201.668 150.000,201.840 150.450,201.500 151.000 M219.230 153.000 C 220.411 154.100,220.912 155.000,220.344 155.000 C 219.775 155.000,218.495 154.100,217.500 153.000 C 216.505 151.900,216.004 151.000,216.387 151.000 C 216.770 151.000,218.050 151.900,219.230 153.000 M106.347 154.681 C 106.722 155.055,105.178 155.987,102.918 156.751 C 98.391 158.281,97.041 157.860,98.980 155.524 C 100.260 153.982,105.095 153.428,106.347 154.681 M217.362 157.500 C 216.997 158.450,217.375 159.000,218.393 159.000 C 219.277 159.000,220.000 158.550,220.000 158.000 C 220.000 157.450,220.675 157.000,221.500 157.000 C 222.325 157.000,223.000 157.450,223.000 158.000 C 223.000 158.550,223.873 159.000,224.941 159.000 C 226.009 159.000,227.125 159.393,227.421 159.872 C 228.412 161.476,214.185 162.852,212.635 161.302 C 212.251 160.918,212.964 160.034,214.219 159.337 C 216.445 158.102,216.422 158.070,213.309 158.035 C 211.554 158.016,209.840 157.550,209.500 157.000 C 209.123 156.390,210.646 156.000,213.410 156.000 C 217.023 156.000,217.821 156.303,217.362 157.500 M232.493 158.989 C 232.843 159.555,232.442 159.723,231.552 159.382 C 229.820 158.717,229.503 158.000,230.941 158.000 C 231.459 158.000,232.157 158.445,232.493 158.989 M241.562 163.771 C 241.227 164.107,240.176 163.568,239.226 162.574 C 237.576 160.846,237.603 160.819,239.836 161.964 C 241.120 162.623,241.897 163.436,241.562 163.771 M87.553 163.915 C 87.242 164.418,87.553 165.057,88.244 165.336 C 89.002 165.641,88.806 165.873,87.750 165.921 C 86.787 165.964,86.000 165.325,86.000 164.500 C 86.000 163.675,86.477 163.000,87.059 163.000 C 87.641 163.000,87.864 163.412,87.553 163.915 M254.149 172.281 C 255.715 172.831,264.000 188.459,264.000 190.863 C 264.000 193.043,262.212 191.981,261.569 189.420 C 260.066 183.431,254.859 174.399,251.527 172.000 C 249.618 170.625,248.043 169.084,248.028 168.576 C 248.012 168.067,249.012 168.563,250.250 169.677 C 251.488 170.791,253.242 171.963,254.149 172.281 M201.239 186.144 C 201.810 186.499,202.327 188.185,202.388 189.892 C 202.450 191.599,202.754 192.996,203.063 192.998 C 203.373 192.999,204.237 194.555,204.982 196.455 C 205.728 198.355,206.760 199.648,207.276 199.329 C 207.829 198.988,207.921 199.674,207.500 201.000 C 206.983 202.629,207.119 203.044,207.994 202.504 C 208.691 202.073,210.110 202.662,211.351 203.898 C 212.533 205.075,215.349 207.603,217.609 209.516 C 219.869 211.429,223.131 215.645,224.859 218.887 C 227.740 224.292,227.999 225.555,227.991 234.140 C 227.987 239.288,227.703 245.823,227.362 248.663 L 226.742 253.826 219.621 253.289 C 209.871 252.553,201.851 254.295,200.369 257.471 C 199.324 259.711,199.474 259.949,202.369 260.629 C 204.091 261.033,209.550 261.402,214.500 261.447 C 223.691 261.532,226.000 262.127,226.000 264.410 C 226.000 266.347,221.007 275.386,219.445 276.276 C 218.696 276.703,218.338 277.716,218.649 278.526 C 219.423 280.544,218.733 280.407,212.717 277.347 C 205.108 273.478,194.000 273.808,194.000 277.903 C 194.000 279.232,195.623 280.426,199.650 282.061 L 205.299 284.354 207.698 281.565 C 209.998 278.891,210.175 278.848,212.024 280.522 C 214.472 282.738,213.908 283.607,209.483 284.437 C 205.094 285.261,205.877 287.000,210.637 287.000 L 214.156 287.000 213.617 292.750 C 212.780 301.673,211.293 309.982,209.454 316.000 C 207.711 321.706,198.981 340.146,196.710 342.918 C 195.997 343.788,194.917 345.625,194.309 347.000 C 190.293 356.087,187.131 361.797,184.919 363.957 C 184.050 364.805,180.496 368.785,177.021 372.801 C 170.111 380.787,167.049 382.811,160.097 383.987 L 155.500 384.765 160.282 384.882 C 162.912 384.947,166.680 384.325,168.654 383.500 C 170.629 382.675,172.400 382.000,172.591 382.000 C 173.809 382.000,165.824 400.169,163.142 403.500 C 158.805 408.886,131.173 437.000,130.217 437.000 C 129.704 437.000,126.183 435.372,122.392 433.382 C 118.601 431.392,110.058 426.944,103.407 423.497 C 84.247 413.566,69.000 403.543,69.000 400.878 C 69.000 399.845,69.352 399.000,69.782 399.000 C 70.810 399.000,72.860 391.944,74.001 384.474 C 74.503 381.188,75.589 376.700,76.413 374.500 C 77.238 372.300,77.948 369.375,77.992 368.000 L 78.071 365.500 79.386 367.872 L 80.701 370.244 81.351 366.997 C 82.324 362.132,82.133 346.949,81.051 343.177 C 80.518 341.318,80.491 340.006,80.989 340.184 C 81.478 340.358,85.843 344.115,90.689 348.533 C 103.431 360.149,118.224 371.263,130.897 378.740 C 135.001 381.162,148.567 384.367,152.239 383.782 C 153.495 383.582,151.471 382.866,147.688 382.171 C 139.112 380.596,132.744 377.786,121.992 370.832 C 103.463 358.848,82.527 339.034,77.771 328.982 C 72.761 318.391,72.068 301.318,76.078 287.250 C 77.057 283.813,77.441 281.000,76.929 281.000 C 75.154 281.000,76.020 277.289,79.517 269.915 C 81.451 265.837,83.479 261.825,84.023 261.000 C 84.567 260.175,85.797 257.931,86.756 256.013 C 89.472 250.583,91.977 248.121,99.106 243.877 C 105.217 240.238,119.838 233.553,124.500 232.267 C 126.151 231.811,125.976 232.285,123.500 234.979 L 120.500 238.242 123.586 236.680 C 125.284 235.821,127.904 233.503,129.410 231.530 C 132.738 227.167,135.833 224.188,138.500 222.783 C 139.600 222.203,140.275 221.986,140.000 222.301 C 139.725 222.615,137.475 225.194,135.000 228.032 C 118.489 246.965,112.999 251.554,96.500 260.213 C 86.093 265.675,86.698 266.586,97.437 261.624 C 107.713 256.877,116.126 250.909,126.100 241.294 C 132.519 235.106,135.385 233.000,137.384 233.000 C 140.907 233.000,151.742 236.680,154.960 238.970 C 156.357 239.964,160.912 242.606,165.083 244.842 C 171.827 248.456,172.832 248.739,174.168 247.404 C 175.503 246.068,175.660 246.145,175.585 248.100 C 175.538 249.309,176.063 250.493,176.750 250.732 C 177.489 250.989,178.000 250.315,178.000 249.083 C 178.000 247.938,178.563 246.980,179.250 246.955 C 179.938 246.930,178.172 244.792,175.327 242.205 C 168.824 236.290,152.102 227.447,145.715 226.544 L 140.930 225.867 143.000 223.183 C 144.139 221.708,147.055 217.562,149.480 213.970 C 155.137 205.595,162.264 198.374,165.480 197.759 C 167.814 197.313,168.972 198.290,167.250 199.253 C 166.838 199.483,166.981 199.566,167.568 199.437 C 169.125 199.095,175.872 200.609,180.580 202.358 C 186.273 204.472,194.885 205.340,196.541 203.966 C 197.278 203.355,198.695 202.939,199.690 203.042 C 202.999 203.386,203.325 203.017,201.500 201.000 C 200.474 199.866,200.190 199.000,200.845 199.000 C 201.480 199.000,202.000 199.450,202.000 200.000 C 202.000 200.550,202.675 201.000,203.500 201.000 C 205.505 201.000,205.391 199.797,203.160 197.403 C 201.467 195.585,200.581 192.349,199.628 184.500 C 199.428 182.850,199.475 182.400,199.733 183.500 C 199.991 184.600,200.668 185.790,201.239 186.144 M59.000 190.500 C 59.000 191.325,58.325 192.000,57.500 192.000 C 56.675 192.000,56.000 191.325,56.000 190.500 C 56.000 189.675,56.675 189.000,57.500 189.000 C 58.325 189.000,59.000 189.675,59.000 190.500 M56.000 193.441 C 56.000 194.496,54.081 194.940,53.510 194.016 C 53.165 193.457,53.584 193.000,54.441 193.000 C 55.298 193.000,56.000 193.198,56.000 193.441 M263.113 203.288 C 262.296 204.104,262.000 203.992,262.000 202.867 C 262.000 200.879,263.345 199.534,263.842 201.025 C 264.053 201.657,263.724 202.676,263.113 203.288 M247.930 212.250 C 247.968 213.213,247.550 214.000,247.000 214.000 C 246.450 214.000,246.032 212.313,246.070 210.250 C 246.127 207.242,246.311 206.896,247.000 208.500 C 247.473 209.600,247.891 211.287,247.930 212.250 M260.168 212.232 C 259.426 212.974,259.296 212.583,259.731 210.920 C 260.085 209.568,260.538 209.114,260.788 209.863 C 261.028 210.585,260.750 211.650,260.168 212.232 M254.199 215.817 C 253.279 218.424,251.730 215.207,252.517 212.323 L 253.287 209.500 253.976 212.000 C 254.355 213.375,254.455 215.093,254.199 215.817 M46.000 216.559 C 46.000 217.352,45.550 218.000,45.000 218.000 C 44.450 218.000,44.000 217.073,44.000 215.941 C 44.000 214.809,44.450 214.160,45.000 214.500 C 45.550 214.840,46.000 215.766,46.000 216.559 M258.683 216.188 C 258.364 216.985,258.127 216.748,258.079 215.583 C 258.036 214.529,258.272 213.939,258.604 214.271 C 258.936 214.603,258.972 215.466,258.683 216.188 M248.094 219.080 C 247.185 221.354,247.123 221.292,247.063 218.050 C 247.020 215.682,247.323 214.923,248.030 215.630 C 248.713 216.313,248.734 217.478,248.094 219.080 M256.662 222.250 C 256.385 222.938,256.158 222.375,256.158 221.000 C 256.158 219.625,256.385 219.063,256.662 219.750 C 256.940 220.438,256.940 221.563,256.662 222.250 M249.693 229.731 C 249.439 230.704,249.215 230.150,249.195 228.500 C 249.175 226.850,249.382 226.054,249.656 226.731 C 249.930 227.408,249.947 228.758,249.693 229.731 M250.000 235.500 C 250.000 237.425,249.550 239.000,249.000 239.000 C 247.891 239.000,247.613 233.720,248.667 232.667 C 249.818 231.516,250.000 231.903,250.000 235.500 M256.000 233.941 C 256.000 234.459,255.550 235.160,255.000 235.500 C 254.450 235.840,254.000 235.416,254.000 234.559 C 254.000 233.702,254.450 233.000,255.000 233.000 C 255.550 233.000,256.000 233.423,256.000 233.941 M35.600 238.600 C 35.244 239.527,34.728 240.061,34.453 239.786 C 34.178 239.511,34.244 238.527,34.600 237.600 C 34.956 236.673,35.472 236.139,35.747 236.414 C 36.022 236.689,35.956 237.673,35.600 238.600 M250.689 245.750 C 250.438 246.713,250.232 245.925,250.232 244.000 C 250.232 242.075,250.438 241.287,250.689 242.250 C 250.941 243.213,250.941 244.787,250.689 245.750 M31.683 250.188 C 31.364 250.985,31.127 250.748,31.079 249.583 C 31.036 248.529,31.272 247.939,31.604 248.271 C 31.936 248.603,31.972 249.466,31.683 250.188 M121.003 249.250 C 121.004 249.938,122.353 251.400,124.000 252.500 C 125.647 253.600,126.996 255.279,126.997 256.231 C 126.999 257.298,128.055 258.205,129.750 258.596 C 132.470 259.222,141.017 262.868,146.154 265.592 C 147.614 266.367,151.349 267.000,154.454 267.000 C 157.559 267.000,161.427 267.687,163.050 268.526 C 167.298 270.723,166.681 268.883,161.599 264.198 C 155.066 258.176,149.645 255.770,141.500 255.276 C 133.521 254.793,129.852 253.674,125.317 250.340 C 121.683 247.669,120.999 247.496,121.003 249.250 M179.564 249.929 C 178.527 251.075,177.987 252.320,178.363 252.697 C 179.312 253.646,182.322 250.465,181.840 249.021 C 181.593 248.278,180.757 248.611,179.564 249.929 M249.985 252.250 C 249.993 253.213,249.550 254.000,249.000 254.000 C 248.450 254.000,248.007 252.537,248.015 250.750 C 248.027 248.284,248.264 247.862,249.000 249.000 C 249.533 249.825,249.976 251.287,249.985 252.250 M145.500 250.399 C 151.965 251.989,154.637 253.427,159.372 257.868 C 161.650 260.004,162.820 260.676,162.214 259.500 C 159.552 254.334,150.196 248.995,144.000 249.107 C 140.744 249.166,140.849 249.256,145.500 250.399 M39.434 255.501 C 39.917 258.073,39.615 259.655,38.296 261.459 C 36.634 263.731,34.108 265.441,33.423 264.756 C 32.928 264.261,37.460 252.000,38.138 252.000 C 38.490 252.000,39.073 253.576,39.434 255.501 M31.000 257.559 C 31.000 258.416,30.550 258.840,30.000 258.500 C 29.450 258.160,29.000 257.459,29.000 256.941 C 29.000 256.423,29.450 256.000,30.000 256.000 C 30.550 256.000,31.000 256.702,31.000 257.559 M139.526 259.807 C 139.219 260.115,138.412 259.808,137.733 259.124 C 136.753 258.136,136.868 258.022,138.293 258.564 C 139.279 258.940,139.834 259.499,139.526 259.807 M155.095 262.875 L 157.411 264.751 154.106 265.477 C 150.119 266.352,148.031 264.873,149.965 262.542 C 151.613 260.556,152.284 260.600,155.095 262.875 M31.533 270.063 C 33.152 273.194,32.080 274.007,29.000 271.985 C 27.667 271.109,27.667 270.880,29.000 269.924 C 30.129 269.114,30.191 268.722,29.250 268.341 C 28.563 268.062,28.000 267.394,28.000 266.858 C 28.000 265.213,29.930 266.965,31.533 270.063 M192.817 269.083 C 189.132 271.145,188.407 281.636,191.870 282.790 C 192.799 283.100,192.960 282.305,192.484 279.767 C 192.067 277.544,192.403 274.971,193.432 272.508 C 195.238 268.187,195.163 267.770,192.817 269.083 M28.418 273.607 C 30.461 274.391,30.531 279.000,28.500 279.000 C 26.736 279.000,26.558 277.842,28.087 276.313 C 28.870 275.530,28.828 275.011,27.935 274.460 C 27.197 274.004,26.156 274.434,25.359 275.524 C 24.623 276.531,23.746 277.079,23.409 276.743 C 22.771 276.105,25.006 273.104,26.168 273.038 C 26.536 273.017,27.548 273.273,28.418 273.607 M72.662 278.250 C 72.385 278.938,72.158 278.375,72.158 277.000 C 72.158 275.625,72.385 275.063,72.662 275.750 C 72.940 276.438,72.940 277.563,72.662 278.250 M264.880 287.500 C 265.335 288.600,266.659 291.620,267.822 294.211 C 268.984 296.802,269.582 299.140,269.150 299.408 C 268.717 299.675,267.768 298.230,267.040 296.197 C 266.312 294.164,264.705 290.250,263.469 287.500 C 262.234 284.750,260.941 280.925,260.597 279.000 C 260.065 276.028,260.279 276.254,262.012 280.500 C 263.134 283.250,264.425 286.400,264.880 287.500 M30.183 284.217 C 29.466 284.934,29.000 284.993,29.000 284.367 C 29.000 283.032,30.183 281.849,30.850 282.517 C 31.134 282.801,30.834 283.566,30.183 284.217 M72.000 287.378 C 72.000 289.495,69.458 292.897,68.626 291.893 C 68.447 291.677,68.696 290.038,69.179 288.250 C 70.200 284.470,72.000 283.913,72.000 287.378 M28.829 294.784 C 27.656 302.692,26.632 304.071,26.261 298.246 C 26.059 295.073,28.711 286.377,29.607 287.273 C 29.768 287.435,29.419 290.815,28.829 294.784 M191.158 298.000 C 191.158 299.375,191.385 299.938,191.662 299.250 C 191.940 298.563,191.940 297.438,191.662 296.750 C 191.385 296.063,191.158 296.625,191.158 298.000 M157.607 301.582 C 156.441 304.620,157.018 307.109,159.455 309.545 C 161.748 311.839,165.782 313.074,164.569 311.112 C 163.738 309.767,173.031 308.631,174.321 309.921 C 174.914 310.514,176.097 310.986,176.950 310.968 C 178.010 310.947,177.580 310.128,175.587 308.376 C 172.315 305.500,168.155 305.644,164.720 308.753 C 162.897 310.403,162.718 310.370,160.822 308.029 C 159.554 306.462,158.983 304.567,159.244 302.788 C 159.685 299.787,158.602 298.989,157.607 301.582 M69.813 302.938 C 70.063 303.688,69.688 304.063,68.938 303.813 C 68.216 303.572,67.428 302.784,67.188 302.063 C 66.938 301.313,67.313 300.938,68.063 301.188 C 68.784 301.428,69.572 302.216,69.813 302.938 M25.015 307.250 C 25.026 308.097,25.371 308.016,26.085 307.000 C 26.847 305.917,26.991 307.586,26.605 313.000 C 24.720 339.432,22.836 353.782,20.531 359.265 L 19.343 362.089 18.068 357.794 C 17.367 355.433,16.335 352.938,15.774 352.250 C 15.062 351.377,15.121 351.000,15.971 351.000 C 17.174 351.000,16.970 340.780,15.474 326.000 C 14.888 320.220,16.983 314.098,19.855 313.191 C 21.492 312.674,20.615 317.825,18.294 322.365 C 17.255 324.397,17.140 325.540,17.898 326.298 C 19.221 327.621,18.962 328.079,22.295 318.513 C 23.985 313.660,24.669 310.390,24.038 310.179 C 22.708 309.736,22.673 306.000,24.000 306.000 C 24.550 306.000,25.007 306.563,25.015 307.250 M270.693 311.731 C 270.439 312.704,270.215 312.150,270.195 310.500 C 270.175 308.850,270.382 308.054,270.656 308.731 C 270.930 309.408,270.947 310.758,270.693 311.731 M182.685 313.528 C 175.642 315.064,174.385 316.000,179.365 316.000 C 182.910 316.000,190.000 313.701,190.000 312.551 C 190.000 311.912,190.246 311.879,182.685 313.528 M188.506 315.994 C 187.507 317.097,187.155 318.000,187.723 318.000 C 188.981 318.000,191.475 315.142,190.803 314.470 C 190.538 314.205,189.504 314.890,188.506 315.994 M273.985 321.417 C 274.006 325.465,272.738 323.817,272.315 319.247 C 272.061 316.496,272.235 315.899,272.969 317.000 C 273.519 317.825,273.976 319.813,273.985 321.417 M285.000 332.149 C 285.000 333.540,284.142 333.166,279.497 329.750 C 273.509 325.346,273.829 324.354,280.000 328.191 C 282.750 329.900,285.000 331.682,285.000 332.149 M154.000 327.318 C 150.425 327.903,144.639 328.352,141.142 328.316 C 137.646 328.279,135.209 328.530,135.728 328.874 C 136.247 329.219,138.260 331.975,140.200 335.000 C 142.141 338.025,145.004 341.625,146.563 343.000 L 149.399 345.500 147.523 342.516 C 146.492 340.876,144.602 338.405,143.324 337.027 C 140.522 334.005,140.198 331.452,142.750 332.514 C 143.713 332.915,146.750 333.442,149.500 333.685 C 152.250 333.929,156.075 334.741,158.000 335.490 C 174.842 342.039,186.215 344.896,188.358 343.118 C 189.584 342.100,189.502 341.337,187.780 337.716 C 185.001 331.873,181.396 329.088,176.500 329.001 C 174.300 328.961,171.375 328.286,170.000 327.500 C 167.128 325.858,163.188 325.813,154.000 327.318 M168.902 328.317 C 170.624 329.041,171.688 330.003,171.267 330.456 C 170.845 330.908,172.469 330.976,174.875 330.607 C 179.043 329.968,179.432 330.128,183.125 334.010 C 187.823 338.949,188.256 342.015,184.250 341.968 C 181.308 341.934,178.000 339.954,178.000 338.227 C 178.000 336.735,161.959 330.790,160.068 331.582 C 157.685 332.580,148.438 332.889,147.030 332.018 C 145.124 330.841,146.999 330.135,155.074 328.990 C 159.092 328.420,162.595 327.739,162.857 327.477 C 163.665 326.669,165.633 326.942,168.902 328.317 M168.661 335.112 C 171.872 336.273,175.138 337.413,175.917 337.645 C 176.902 337.937,177.016 338.384,176.291 339.109 C 175.127 340.273,160.000 335.408,160.000 333.870 C 160.000 332.497,162.369 332.836,168.661 335.112 M282.500 335.000 C 283.891 336.538,283.983 337.000,282.896 337.000 C 282.118 337.000,280.919 336.100,280.232 335.000 C 279.545 333.900,279.367 333.000,279.837 333.000 C 280.306 333.000,281.505 333.900,282.500 335.000 M262.249 337.750 C 262.506 339.813,262.578 341.665,262.408 341.866 C 261.890 342.483,259.250 335.551,259.699 334.750 C 260.698 332.962,261.816 334.277,262.249 337.750 M155.768 338.168 C 156.350 338.750,157.415 339.028,158.137 338.788 C 158.886 338.538,158.432 338.085,157.080 337.731 C 155.417 337.296,155.026 337.426,155.768 338.168 M271.079 338.583 C 271.127 339.748,271.364 339.985,271.683 339.188 C 271.972 338.466,271.936 337.603,271.604 337.271 C 271.272 336.939,271.036 337.529,271.079 338.583 M162.000 341.000 C 163.970 342.273,166.287 342.273,165.500 341.000 C 165.160 340.450,163.896 340.007,162.691 340.015 C 160.910 340.028,160.781 340.212,162.000 341.000 M177.664 352.297 C 173.592 355.685,168.767 356.399,161.000 354.762 L 157.500 354.025 160.500 355.467 C 165.095 357.677,173.617 357.400,177.645 354.911 C 180.827 352.944,184.001 348.938,182.285 349.053 C 181.853 349.082,179.774 350.542,177.664 352.297 M284.500 354.000 C 284.840 354.550,285.316 355.000,285.559 355.000 C 285.802 355.000,286.000 354.550,286.000 354.000 C 286.000 353.450,285.523 353.000,284.941 353.000 C 284.359 353.000,284.160 353.450,284.500 354.000 M278.015 359.691 C 278.024 360.136,278.467 361.175,279.000 362.000 C 279.835 363.293,279.971 363.266,279.985 361.809 C 279.993 360.879,279.550 359.840,279.000 359.500 C 278.450 359.160,278.007 359.246,278.015 359.691 M295.813 367.683 C 296.534 367.972,297.397 367.936,297.729 367.604 C 298.061 367.272,297.471 367.036,296.417 367.079 C 295.252 367.127,295.015 367.364,295.813 367.683 M282.000 370.000 C 282.000 371.111,282.667 372.000,283.500 372.000 C 284.333 372.000,285.000 371.111,285.000 370.000 C 285.000 368.889,284.333 368.000,283.500 368.000 C 282.667 368.000,282.000 368.889,282.000 370.000 M279.788 377.137 C 279.538 377.886,279.085 377.432,278.731 376.080 C 278.296 374.417,278.426 374.026,279.168 374.768 C 279.750 375.350,280.028 376.415,279.788 377.137 M289.354 405.756 C 288.433 409.278,287.000 408.383,287.000 404.286 C 287.000 401.018,287.177 400.748,288.470 402.042 C 289.348 402.919,289.704 404.416,289.354 405.756 M166.905 408.750 C 166.167 409.712,164.425 411.496,163.032 412.714 C 161.639 413.932,161.063 414.944,161.750 414.964 C 162.438 414.984,163.000 414.550,163.000 414.000 C 163.000 413.450,163.692 413.000,164.538 413.000 C 165.551 413.000,165.978 413.767,165.788 415.250 C 165.630 416.488,165.829 417.500,166.231 417.500 C 166.633 417.500,167.614 418.432,168.412 419.571 C 169.210 420.710,171.688 422.189,173.919 422.858 C 176.150 423.526,177.928 424.394,177.869 424.786 C 177.418 427.818,178.276 429.839,180.233 430.351 C 181.989 430.810,182.205 431.195,181.246 432.154 C 180.288 433.112,180.323 433.707,181.414 434.936 C 183.112 436.851,185.046 443.621,184.151 444.516 C 183.793 444.873,183.464 447.494,183.420 450.340 C 183.375 453.185,183.018 456.791,182.626 458.354 C 182.002 460.841,181.576 461.113,179.206 460.538 C 177.718 460.176,170.200 456.806,162.500 453.048 C 154.800 449.291,145.904 445.006,142.731 443.526 L 136.961 440.837 140.180 436.772 C 141.951 434.537,144.101 432.525,144.960 432.300 C 145.818 432.076,148.282 429.171,150.436 425.845 C 152.589 422.519,155.172 419.285,156.176 418.658 C 157.179 418.032,158.000 417.060,158.000 416.499 C 158.000 414.280,164.883 407.713,167.872 407.079 C 168.077 407.036,167.642 407.788,166.905 408.750 M293.000 407.441 C 293.000 407.684,292.550 408.160,292.000 408.500 C 291.450 408.840,291.000 408.641,291.000 408.059 C 291.000 407.477,291.450 407.000,292.000 407.000 C 292.550 407.000,293.000 407.198,293.000 407.441 M156.000 422.500 C 156.000 423.325,155.550 424.000,155.000 424.000 C 154.450 424.000,154.001 424.788,154.001 425.750 C 154.002 427.109,154.561 426.851,156.501 424.594 C 159.426 421.193,159.480 421.000,157.500 421.000 C 156.675 421.000,156.000 421.675,156.000 422.500 M35.683 432.188 C 35.364 432.985,35.127 432.748,35.079 431.583 C 35.036 430.529,35.272 429.939,35.604 430.271 C 35.936 430.603,35.972 431.466,35.683 432.188 M138.562 447.878 C 140.728 448.911,145.875 451.222,150.000 453.014 C 167.956 460.814,177.426 465.336,180.379 467.519 C 181.533 468.373,182.275 470.179,182.302 472.204 C 182.373 477.405,180.970 485.000,179.939 485.000 C 179.422 485.000,179.000 487.277,179.000 490.059 C 179.000 492.841,179.408 494.866,179.906 494.558 C 180.404 494.250,180.577 493.098,180.289 491.999 C 179.997 490.882,180.259 490.000,180.883 490.000 C 181.498 490.000,182.000 491.575,182.000 493.500 C 182.000 495.438,181.495 497.000,180.868 497.000 C 179.451 497.000,180.168 510.566,181.741 513.500 C 182.331 514.600,185.189 522.858,188.093 531.852 C 190.997 540.846,194.094 549.171,194.976 550.352 C 197.127 553.233,199.000 557.682,199.000 559.910 C 199.000 560.908,197.762 563.314,196.250 565.257 C 194.737 567.200,193.008 569.613,192.406 570.621 C 191.365 572.364,191.258 572.350,190.179 570.335 C 189.556 569.170,188.839 566.547,188.585 564.505 C 187.876 558.786,187.000 559.063,187.000 565.005 C 187.000 568.464,187.555 570.956,188.578 572.087 C 190.018 573.678,190.008 574.058,188.463 576.415 C 187.532 577.837,186.372 579.000,185.885 579.000 C 185.398 579.000,184.990 579.563,184.978 580.250 C 184.929 583.068,170.312 596.718,163.500 600.307 C 161.850 601.176,159.052 603.271,157.283 604.963 C 155.087 607.063,152.426 608.350,148.897 609.020 C 135.876 611.489,110.386 609.015,96.991 603.982 C 69.585 593.685,53.541 578.708,47.531 557.813 C 45.964 552.367,45.978 551.963,47.871 548.253 C 50.806 542.499,66.915 521.447,83.500 501.690 C 87.900 496.449,93.525 489.610,96.000 486.492 C 98.475 483.375,100.950 480.298,101.500 479.655 C 102.050 479.012,104.580 476.010,107.121 472.984 C 109.663 469.958,113.879 465.236,116.490 462.491 C 119.101 459.746,123.501 454.913,126.268 451.750 C 129.036 448.587,132.048 446.000,132.962 446.000 C 133.876 446.000,136.396 446.845,138.562 447.878 M36.264 456.718 C 37.784 456.947,40.034 456.941,41.264 456.704 C 42.494 456.467,41.250 456.279,38.500 456.286 C 35.750 456.294,34.744 456.488,36.264 456.718 M187.683 474.188 C 187.364 474.985,187.127 474.748,187.079 473.583 C 187.036 472.529,187.272 471.939,187.604 472.271 C 187.936 472.603,187.972 473.466,187.683 474.188 M189.011 479.021 C 189.606 480.132,189.854 481.427,189.562 481.899 C 189.271 482.371,189.733 484.162,190.589 485.879 C 191.446 487.596,191.947 489.788,191.704 490.750 C 191.406 491.929,191.010 491.413,190.490 489.169 C 189.480 484.813,187.788 487.158,188.628 491.750 C 189.007 493.824,188.820 495.000,188.111 495.000 C 187.500 495.000,187.000 493.716,187.000 492.147 C 187.000 490.577,186.711 486.527,186.358 483.147 C 185.690 476.757,186.841 474.966,189.011 479.021 M190.608 500.427 C 190.253 501.842,189.520 503.000,188.981 503.000 C 187.872 503.000,187.681 499.994,188.633 497.515 C 189.632 494.910,191.355 497.450,190.608 500.427 M191.829 504.744 C 189.841 507.085,189.543 515.389,191.474 514.648 C 192.458 514.271,192.865 515.028,192.906 517.310 C 192.937 519.065,193.174 523.200,193.433 526.500 C 193.853 531.846,193.790 532.119,192.856 529.000 C 192.280 527.075,191.700 524.284,191.567 522.798 C 191.434 521.312,190.864 519.512,190.300 518.798 C 189.736 518.084,189.007 515.119,188.680 512.209 C 188.175 507.724,188.409 506.545,190.216 504.466 C 191.389 503.118,192.567 502.234,192.835 502.501 C 193.102 502.769,192.650 503.778,191.829 504.744 M183.158 525.000 C 183.158 526.375,183.385 526.938,183.662 526.250 C 183.940 525.563,183.940 524.438,183.662 523.750 C 183.385 523.063,183.158 523.625,183.158 525.000 M183.568 538.500 C 183.791 544.000,184.293 550.525,184.684 553.000 L 185.394 557.500 185.961 554.000 C 186.272 552.075,186.192 548.925,185.782 547.000 C 185.372 545.075,184.615 540.125,184.100 536.000 L 183.163 528.500 183.568 538.500 M202.694 532.000 C 204.070 535.645,202.787 536.023,201.161 532.453 C 199.791 529.447,199.742 529.000,200.781 529.000 C 201.210 529.000,202.071 530.350,202.694 532.000 M203.000 537.500 C 203.000 538.325,202.339 539.000,201.531 539.000 C 200.637 539.000,200.288 538.414,200.638 537.500 C 200.955 536.675,201.616 536.000,202.107 536.000 C 202.598 536.000,203.000 536.675,203.000 537.500 M205.000 542.500 C 205.000 544.425,204.550 546.000,204.000 546.000 C 202.891 546.000,202.613 540.720,203.667 539.667 C 204.818 538.516,205.000 538.903,205.000 542.500 M202.000 547.622 C 202.000 548.380,202.480 549.000,203.067 549.000 C 204.286 549.000,203.347 552.940,201.755 554.500 C 201.064 555.178,200.926 554.481,201.325 552.340 C 201.745 550.086,201.496 549.021,200.457 548.622 C 199.656 548.314,199.000 547.094,199.000 545.909 C 199.000 544.108,199.246 543.959,200.500 545.000 C 201.325 545.685,202.000 546.865,202.000 547.622 M189.500 552.000 C 189.840 552.550,190.541 553.000,191.059 553.000 C 191.577 553.000,192.000 552.550,192.000 552.000 C 192.000 551.450,191.298 551.000,190.441 551.000 C 189.584 551.000,189.160 551.450,189.500 552.000 M148.000 566.500 C 148.000 567.325,148.436 568.000,148.969 568.000 C 149.501 568.000,149.678 567.325,149.362 566.500 C 149.045 565.675,148.609 565.000,148.393 565.000 C 148.177 565.000,148.000 565.675,148.000 566.500 M155.561 591.000 C 156.380 594.085,158.000 596.005,158.000 593.891 C 158.000 593.061,157.302 591.509,156.448 590.441 C 154.957 588.576,154.922 588.597,155.561 591.000 M159.000 598.000 C 159.000 598.550,159.702 599.000,160.559 599.000 C 161.416 599.000,161.840 598.550,161.500 598.000 C 161.160 597.450,160.459 597.000,159.941 597.000 C 159.423 597.000,159.000 597.450,159.000 598.000 M60.000 612.073 C 60.000 612.583,60.914 613.000,62.031 613.000 C 63.149 613.000,64.335 613.708,64.667 614.574 C 65.090 615.677,66.005 615.965,67.719 615.534 C 69.637 615.053,70.283 615.366,70.705 616.981 C 71.143 618.657,71.516 618.816,72.698 617.835 C 73.842 616.886,74.328 616.913,74.975 617.960 C 75.428 618.692,76.524 619.013,77.411 618.673 C 78.879 618.109,80.679 618.593,86.500 621.116 C 87.600 621.592,89.400 621.962,90.500 621.937 C 91.600 621.913,93.850 622.169,95.500 622.507 C 97.150 622.845,99.513 623.328,100.750 623.580 C 102.172 623.869,103.000 624.767,103.000 626.019 C 103.000 627.113,103.671 628.000,104.500 628.000 C 106.009 628.000,106.381 629.019,106.052 632.250 C 105.930 633.448,106.603 634.020,108.187 634.063 L 110.500 634.127 108.250 635.031 C 107.013 635.529,106.000 636.639,106.000 637.499 C 106.000 638.359,105.325 639.322,104.500 639.638 C 103.675 639.955,102.997 640.953,102.994 641.857 C 102.990 642.761,101.640 644.267,99.994 645.203 C 98.347 646.140,97.000 647.524,97.000 648.279 C 97.000 649.034,95.875 650.708,94.500 652.000 C 92.562 653.820,92.000 653.996,92.000 652.781 C 92.000 650.208,89.183 649.826,88.462 652.301 C 87.090 657.012,85.457 660.000,84.256 660.000 C 83.565 660.000,83.000 659.541,83.000 658.981 C 83.000 658.410,81.964 658.222,80.644 658.553 C 79.166 658.924,77.701 658.558,76.715 657.572 C 75.850 656.708,74.065 656.000,72.748 656.000 C 70.814 656.000,70.171 655.277,69.411 652.250 C 68.772 649.707,67.936 648.541,66.812 648.626 C 65.845 648.699,64.908 647.769,64.563 646.394 C 64.237 645.097,62.682 643.370,61.107 642.555 C 59.531 641.741,57.977 640.382,57.653 639.537 C 57.328 638.692,56.326 638.000,55.424 638.000 C 54.447 638.000,53.998 637.447,54.312 636.628 C 54.948 634.971,50.627 631.609,46.561 630.598 C 39.940 628.951,35.748 623.207,38.041 618.924 C 39.507 616.184,47.864 609.892,50.726 609.373 C 52.227 609.101,53.605 608.729,53.788 608.546 C 54.391 607.942,60.000 611.127,60.000 612.073 M151.139 616.893 C 149.898 617.679,146.000 617.293,146.000 616.383 C 146.000 616.173,147.463 616.007,149.250 616.015 C 151.460 616.026,152.064 616.307,151.139 616.893 M147.000 618.500 C 147.000 618.657,146.325 619.045,145.500 619.362 C 144.595 619.709,144.000 619.367,144.000 618.500 C 144.000 617.633,144.595 617.291,145.500 617.638 C 146.325 617.955,147.000 618.343,147.000 618.500 M1.158 664.000 C 1.158 665.375,1.385 665.938,1.662 665.250 C 1.940 664.563,1.940 663.438,1.662 662.750 C 1.385 662.063,1.158 662.625,1.158 664.000 " stroke="none" fill="black" fill-rule="evenodd"/></svg>