<?xml version="1.0" encoding="UTF-8"?>
<!DOCTYPE svg PUBLIC "-//W3C//DTD SVG 1.1//EN" "http://www.w3.org/Graphics/SVG/1.1/DTD/svg11.dtd">
<svg xmlns="http://www.w3.org/2000/svg" version="1.1" width="675px" height="1200px" style="shape-rendering:geometricPrecision; text-rendering:geometricPrecision; image-rendering:optimizeQuality; fill-rule:evenodd; clip-rule:evenodd" xmlns:xlink="http://www.w3.org/1999/xlink">
<g><path style="opacity:1" fill="#bfbdcb" d="M -0.5,-0.5 C 45.1667,-0.5 90.8333,-0.5 136.5,-0.5C 158.347,7.23909 179.68,16.2391 200.5,26.5C 212.562,34.1957 224.896,41.3623 237.5,48C 245.639,54.9034 254.306,61.07 263.5,66.5C 264.386,67.325 264.719,68.325 264.5,69.5C 266.698,70.0144 268.698,71.0144 270.5,72.5C 278.709,79.154 286.709,86.154 294.5,93.5C 306.847,106.347 319.014,119.347 331,132.5C 332.559,134.217 333.392,136.217 333.5,138.5C 335.262,138.643 336.929,138.309 338.5,137.5C 351.953,121.212 366.286,105.712 381.5,91C 389.082,84.9464 396.415,78.613 403.5,72C 413.904,64.2387 424.238,56.572 434.5,49C 439.523,45.8217 444.857,43.155 450.5,41C 459.052,34.5971 468.052,28.9304 477.5,24C 497.167,16.4287 516.5,8.26198 535.5,-0.5C 581.833,-0.5 628.167,-0.5 674.5,-0.5C 674.5,13.5 674.5,27.5 674.5,41.5C 559.111,32.9114 459.111,67.0781 374.5,144C 361.563,157.263 349.063,170.763 337,184.5C 316.878,161.337 295.044,139.837 271.5,120C 259.673,112.252 248.006,104.252 236.5,96C 193.152,69.7084 146.152,52.5417 95.5,44.5C 63.6175,40.3911 31.6175,39.3911 -0.5,41.5C -0.5,27.5 -0.5,13.5 -0.5,-0.5 Z"/></g>
<g><path style="opacity:1" fill="#aaa8b6" d="M 136.5,-0.5 C 177.5,-0.5 218.5,-0.5 259.5,-0.5C 264.239,2.73084 268.572,6.56417 272.5,11C 273.5,11.3333 274.5,11.6667 275.5,12C 282.841,20.3403 290.841,28.0069 299.5,35C 300.913,37.2015 302.413,39.3682 304,41.5C 315.822,52.8155 326.988,64.4821 337.5,76.5C 339.029,76.4712 340.196,75.8045 341,74.5C 342.468,68.8708 345.801,64.8708 351,62.5C 351.333,61.1667 351.667,59.8333 352,58.5C 356.367,54.1326 360.701,49.7993 365,45.5C 366.438,44.0997 367.271,42.433 367.5,40.5C 369.484,40.6168 371.15,39.9501 372.5,38.5C 383.382,25.7876 395.715,14.6209 409.5,5C 410.665,3.0083 411.998,1.17496 413.5,-0.5C 454.167,-0.5 494.833,-0.5 535.5,-0.5C 516.5,8.26198 497.167,16.4287 477.5,24C 468.052,28.9304 459.052,34.5971 450.5,41C 444.857,43.155 439.523,45.8217 434.5,49C 424.238,56.572 413.904,64.2387 403.5,72C 396.415,78.613 389.082,84.9464 381.5,91C 366.286,105.712 351.953,121.212 338.5,137.5C 336.929,138.309 335.262,138.643 333.5,138.5C 333.392,136.217 332.559,134.217 331,132.5C 319.014,119.347 306.847,106.347 294.5,93.5C 286.709,86.154 278.709,79.154 270.5,72.5C 268.698,71.0144 266.698,70.0144 264.5,69.5C 264.719,68.325 264.386,67.325 263.5,66.5C 254.306,61.07 245.639,54.9034 237.5,48C 224.896,41.3623 212.562,34.1957 200.5,26.5C 179.68,16.2391 158.347,7.23909 136.5,-0.5 Z"/></g>
<g><path style="opacity:1" fill="#928f99" d="M 259.5,-0.5 C 310.833,-0.5 362.167,-0.5 413.5,-0.5C 411.998,1.17496 410.665,3.0083 409.5,5C 395.715,14.6209 383.382,25.7876 372.5,38.5C 371.15,39.9501 369.484,40.6168 367.5,40.5C 367.271,42.433 366.438,44.0997 365,45.5C 360.701,49.7993 356.367,54.1326 352,58.5C 351.667,59.8333 351.333,61.1667 351,62.5C 345.801,64.8708 342.468,68.8708 341,74.5C 340.196,75.8045 339.029,76.4712 337.5,76.5C 326.988,64.4821 315.822,52.8155 304,41.5C 302.413,39.3682 300.913,37.2015 299.5,35C 290.841,28.0069 282.841,20.3403 275.5,12C 274.5,11.6667 273.5,11.3333 272.5,11C 268.572,6.56417 264.239,2.73084 259.5,-0.5 Z"/></g>
<g><path style="opacity:1" fill="#d4d1dc" d="M 674.5,41.5 C 674.5,62.8333 674.5,84.1667 674.5,105.5C 565.805,86.2665 468.805,111.1 383.5,180C 371.941,190.945 360.607,202.111 349.5,213.5C 348.761,213.631 348.094,213.464 347.5,213C 349.167,211.333 350.833,209.667 352.5,208C 351.207,207.51 349.873,207.343 348.5,207.5C 348.719,208.675 348.386,209.675 347.5,210.5C 345.867,212.503 343.867,213.836 341.5,214.5C 341.5,213.5 341.5,212.5 341.5,211.5C 340.5,211.5 339.5,211.5 338.5,211.5C 338.5,212.833 338.5,214.167 338.5,215.5C 339.5,215.5 340.5,215.5 341.5,215.5C 341.5,216.833 341.5,218.167 341.5,219.5C 338.95,219.561 337.45,220.894 337,223.5C 336.333,222.167 335.667,222.167 335,223.5C 334.667,222.833 334.333,222.167 334,221.5C 333.329,222.252 332.496,222.586 331.5,222.5C 289.304,172.361 236.97,136.694 174.5,115.5C 170.498,113.39 166.165,112.057 161.5,111.5C 107.991,97.8172 53.991,95.8172 -0.5,105.5C -0.5,84.1667 -0.5,62.8333 -0.5,41.5C 31.6175,39.3911 63.6175,40.3911 95.5,44.5C 146.152,52.5417 193.152,69.7084 236.5,96C 248.006,104.252 259.673,112.252 271.5,120C 295.044,139.837 316.878,161.337 337,184.5C 349.063,170.763 361.563,157.263 374.5,144C 459.111,67.0781 559.111,32.9114 674.5,41.5 Z"/></g>
<g><path style="opacity:1" fill="#928f98" d="M 674.5,105.5 C 674.5,126.5 674.5,147.5 674.5,168.5C 658.902,164.602 643.235,161.102 627.5,158C 581.07,152.102 535.403,155.435 490.5,168C 482.226,170.986 473.892,173.819 465.5,176.5C 451.868,183.156 438.201,189.822 424.5,196.5C 417.666,201.085 411,205.919 404.5,211C 401.412,213.071 398.079,214.738 394.5,216C 389.093,221.082 383.427,225.749 377.5,230C 374.025,233.821 370.358,237.155 366.5,240C 356.406,250.289 346.739,260.789 337.5,271.5C 332.185,267.183 327.519,262.183 323.5,256.5C 312.437,245.433 301.103,234.766 289.5,224.5C 284.682,220.922 279.682,217.589 274.5,214.5C 272.878,213.067 271.545,211.401 270.5,209.5C 264.589,206.377 258.589,203.543 252.5,201C 249.526,198.362 246.526,195.695 243.5,193C 222.336,182.833 200.67,173.833 178.5,166C 169.276,164.624 160.276,162.624 151.5,160C 100.102,151.575 49.4349,154.408 -0.5,168.5C -0.5,147.5 -0.5,126.5 -0.5,105.5C 53.991,95.8172 107.991,97.8172 161.5,111.5C 165.502,113.61 169.835,114.943 174.5,115.5C 236.97,136.694 289.304,172.361 331.5,222.5C 333.15,224.651 334.983,226.651 337,228.5C 341.354,223.647 345.521,218.647 349.5,213.5C 360.607,202.111 371.941,190.945 383.5,180C 468.805,111.1 565.805,86.2665 674.5,105.5 Z"/></g>
<g><path style="opacity:1" fill="#bcb9c2" d="M 161.5,111.5 C 166.165,112.057 170.498,113.39 174.5,115.5C 169.835,114.943 165.502,113.61 161.5,111.5 Z"/></g>
<g><path style="opacity:1" fill="#aaa8b6" d="M 674.5,168.5 C 674.5,197.167 674.5,225.833 674.5,254.5C 666.773,251.803 659.44,248.303 652.5,244C 633.766,237.643 614.766,232.31 595.5,228C 520.883,217.375 452.883,233.041 391.5,275C 383.568,280.928 376.235,287.595 369.5,295C 367.754,295.471 366.087,296.138 364.5,297C 355.075,306.932 345.741,317.099 336.5,327.5C 325.591,314.94 314.257,302.94 302.5,291.5C 290.14,282.325 277.807,273.158 265.5,264C 263.833,263.667 262.167,263.333 260.5,263C 253.53,257.85 246.197,253.35 238.5,249.5C 177.406,223.324 114.406,218.324 49.5,234.5C 32.0605,239.637 15.3938,246.304 -0.5,254.5C -0.5,225.833 -0.5,197.167 -0.5,168.5C 49.4349,154.408 100.102,151.575 151.5,160C 160.276,162.624 169.276,164.624 178.5,166C 200.67,173.833 222.336,182.833 243.5,193C 246.526,195.695 249.526,198.362 252.5,201C 258.589,203.543 264.589,206.377 270.5,209.5C 271.545,211.401 272.878,213.067 274.5,214.5C 279.682,217.589 284.682,220.922 289.5,224.5C 301.103,234.766 312.437,245.433 323.5,256.5C 327.519,262.183 332.185,267.183 337.5,271.5C 346.739,260.789 356.406,250.289 366.5,240C 370.358,237.155 374.025,233.821 377.5,230C 383.427,225.749 389.093,221.082 394.5,216C 398.079,214.738 401.412,213.071 404.5,211C 411,205.919 417.666,201.085 424.5,196.5C 438.201,189.822 451.868,183.156 465.5,176.5C 473.892,173.819 482.226,170.986 490.5,168C 535.403,155.435 581.07,152.102 627.5,158C 643.235,161.102 658.902,164.602 674.5,168.5 Z"/></g>
<g><path style="opacity:1" fill="#cecbd5" d="M 349.5,213.5 C 345.521,218.647 341.354,223.647 337,228.5C 334.983,226.651 333.15,224.651 331.5,222.5C 332.496,222.586 333.329,222.252 334,221.5C 334.333,222.167 334.667,222.833 335,223.5C 335.667,222.167 336.333,222.167 337,223.5C 337.45,220.894 338.95,219.561 341.5,219.5C 341.5,218.167 341.5,216.833 341.5,215.5C 340.5,215.5 339.5,215.5 338.5,215.5C 338.5,214.167 338.5,212.833 338.5,211.5C 339.5,211.5 340.5,211.5 341.5,211.5C 341.5,212.5 341.5,213.5 341.5,214.5C 343.867,213.836 345.867,212.503 347.5,210.5C 348.386,209.675 348.719,208.675 348.5,207.5C 349.873,207.343 351.207,207.51 352.5,208C 350.833,209.667 349.167,211.333 347.5,213C 348.094,213.464 348.761,213.631 349.5,213.5 Z"/></g>
<g><path style="opacity:1" fill="#bfbdcb" d="M 674.5,254.5 C 674.5,278.833 674.5,303.167 674.5,327.5C 604.438,277.855 528.105,266.355 445.5,293C 402.434,309.425 366.267,335.258 337,370.5C 327.481,359.981 317.647,349.815 307.5,340C 239.356,283.363 162.023,266.363 75.5,289C 61.6168,293.911 47.9501,299.244 34.5,305C 22.4759,311.674 10.8093,318.841 -0.5,326.5C -0.5,302.5 -0.5,278.5 -0.5,254.5C 15.3938,246.304 32.0605,239.637 49.5,234.5C 114.406,218.324 177.406,223.324 238.5,249.5C 246.197,253.35 253.53,257.85 260.5,263C 262.167,263.333 263.833,263.667 265.5,264C 277.807,273.158 290.14,282.325 302.5,291.5C 314.257,302.94 325.591,314.94 336.5,327.5C 345.741,317.099 355.075,306.932 364.5,297C 366.087,296.138 367.754,295.471 369.5,295C 376.235,287.595 383.568,280.928 391.5,275C 452.883,233.041 520.883,217.375 595.5,228C 614.766,232.31 633.766,237.643 652.5,244C 659.44,248.303 666.773,251.803 674.5,254.5 Z"/></g>
<g><path style="opacity:1" fill="#d4d1dc" d="M 674.5,327.5 C 674.5,349.167 674.5,370.833 674.5,392.5C 667.737,387.241 661.403,381.407 655.5,375C 596.863,327.038 530.196,311.038 455.5,327C 408.377,340.025 369.377,365.192 338.5,402.5C 337.675,403.386 336.675,403.719 335.5,403.5C 328.609,393.685 320.609,384.519 311.5,376C 281.752,350.625 247.752,333.459 209.5,324.5C 209.881,323.069 210.881,322.236 212.5,322C 210.285,321.83 208.285,321.163 206.5,320C 198.822,319.523 191.155,319.69 183.5,320.5C 110.47,315.74 49.1365,339.74 -0.5,392.5C -0.5,370.5 -0.5,348.5 -0.5,326.5C 10.8093,318.841 22.4759,311.674 34.5,305C 47.9501,299.244 61.6168,293.911 75.5,289C 162.023,266.363 239.356,283.363 307.5,340C 317.647,349.815 327.481,359.981 337,370.5C 366.267,335.258 402.434,309.425 445.5,293C 528.105,266.355 604.438,277.855 674.5,327.5 Z"/></g>
<g><path style="opacity:1" fill="#cac6d4" d="M 209.5,324.5 C 200.702,323.143 192.035,321.81 183.5,320.5C 191.155,319.69 198.822,319.523 206.5,320C 208.285,321.163 210.285,321.83 212.5,322C 210.881,322.236 209.881,323.069 209.5,324.5 Z"/></g>
<g><path style="opacity:1" fill="#928f98" d="M 183.5,320.5 C 192.035,321.81 200.702,323.143 209.5,324.5C 247.752,333.459 281.752,350.625 311.5,376C 320.609,384.519 328.609,393.685 335.5,403.5C 336.675,403.719 337.675,403.386 338.5,402.5C 369.377,365.192 408.377,340.025 455.5,327C 530.196,311.038 596.863,327.038 655.5,375C 661.403,381.407 667.737,387.241 674.5,392.5C 674.5,436.833 674.5,481.167 674.5,525.5C 672.173,517.019 670.006,508.353 668,499.5C 665.048,493.739 662.715,487.739 661,481.5C 656.174,470.506 650.341,460.173 643.5,450.5C 641.758,447.6 640.258,444.6 639,441.5C 629.869,431.7 620.702,421.866 611.5,412C 601.615,404.605 591.615,397.439 581.5,390.5C 578.268,389.051 574.935,387.884 571.5,387C 566.343,383.005 560.677,380.005 554.5,378C 546.712,376.173 539.045,373.839 531.5,371C 499.164,364.713 466.831,365.047 434.5,372C 416.211,378.645 398.544,386.645 381.5,396C 376.443,400.393 371.11,404.393 365.5,408C 361.601,412.902 357.101,417.069 352,420.5C 351.517,421.448 351.351,422.448 351.5,423.5C 350.448,423.351 349.448,423.517 348.5,424C 345.179,428.652 341.513,432.985 337.5,437C 336.5,437.667 335.5,437.667 334.5,437C 325.387,426.466 315.387,416.799 304.5,408C 300.74,406.074 297.407,403.574 294.5,400.5C 292.253,399.626 289.92,399.292 287.5,399.5C 287.5,398.5 287.5,397.5 287.5,396.5C 282.122,394.472 277.289,391.472 273,387.5C 218.193,363.041 163.026,362.207 107.5,385C 71.1323,403.367 42.4657,430.034 21.5,465C 15.9459,476.633 10.7793,488.466 6,500.5C 4.88944,509.885 2.72277,518.885 -0.5,527.5C -0.5,482.5 -0.5,437.5 -0.5,392.5C 49.1365,339.74 110.47,315.74 183.5,320.5 Z"/></g>
<g><path style="opacity:1" fill="#aaa8b6" d="M 674.5,525.5 C 674.5,544.833 674.5,564.167 674.5,583.5C 672.416,592.428 670.249,601.428 668,610.5C 665.183,616.768 662.516,623.101 660,629.5C 660.084,634.217 658.251,637.884 654.5,640.5C 651.577,647.264 648.411,653.931 645,660.5C 624.403,685.616 602.403,709.616 579,732.5C 572.255,741.7 564.588,750.034 556,757.5C 554.686,760.461 553.019,763.128 551,765.5C 546.031,768.553 541.697,772.22 538,776.5C 530.284,784.88 522.95,793.546 516,802.5C 502.043,815.78 488.543,829.447 475.5,843.5C 470.505,849.495 465.172,855.161 459.5,860.5C 456.757,863.654 454.257,866.988 452,870.5C 438.636,882.531 426.302,895.531 415,909.5C 408.96,914.373 403.793,920.04 399.5,926.5C 396.771,927.062 395.271,928.728 395,931.5C 383.133,942.701 371.633,954.201 360.5,966C 344.313,973.116 328.98,971.783 314.5,962C 307.623,955.126 301.123,947.959 295,940.5C 289.694,934.699 283.861,929.365 277.5,924.5C 275.128,921.47 272.795,918.47 270.5,915.5C 265.226,911.73 260.393,907.397 256,902.5C 248.989,894.656 241.822,886.99 234.5,879.5C 233.614,878.675 233.281,877.675 233.5,876.5C 229.846,876.249 227.679,874.249 227,870.5C 225.989,869.663 224.822,869.33 223.5,869.5C 223.649,868.448 223.483,867.448 223,866.5C 205.963,850.535 189.796,833.701 174.5,816C 167.947,811.77 162.614,806.27 158.5,799.5C 117.937,759.443 78.437,718.777 40,677.5C 34.6923,670.344 29.5256,663.01 24.5,655.5C 22.4611,649.756 19.6277,644.423 16,639.5C 15.6667,637.5 15.3333,635.5 15,633.5C 13.6152,632.449 12.6152,631.116 12,629.5C 6.91718,615.91 3.25052,601.91 1,587.5C 0.617425,586.944 0.117425,586.611 -0.5,586.5C -0.5,566.833 -0.5,547.167 -0.5,527.5C 2.72277,518.885 4.88944,509.885 6,500.5C 10.7793,488.466 15.9459,476.633 21.5,465C 42.4657,430.034 71.1323,403.367 107.5,385C 163.026,362.207 218.193,363.041 273,387.5C 277.289,391.472 282.122,394.472 287.5,396.5C 287.5,397.5 287.5,398.5 287.5,399.5C 289.92,399.292 292.253,399.626 294.5,400.5C 297.407,403.574 300.74,406.074 304.5,408C 315.387,416.799 325.387,426.466 334.5,437C 335.5,437.667 336.5,437.667 337.5,437C 341.513,432.985 345.179,428.652 348.5,424C 349.448,423.517 350.448,423.351 351.5,423.5C 351.351,422.448 351.517,421.448 352,420.5C 357.101,417.069 361.601,412.902 365.5,408C 371.11,404.393 376.443,400.393 381.5,396C 398.544,386.645 416.211,378.645 434.5,372C 466.831,365.047 499.164,364.713 531.5,371C 539.045,373.839 546.712,376.173 554.5,378C 560.677,380.005 566.343,383.005 571.5,387C 574.935,387.884 578.268,389.051 581.5,390.5C 591.615,397.439 601.615,404.605 611.5,412C 620.702,421.866 629.869,431.7 639,441.5C 640.258,444.6 641.758,447.6 643.5,450.5C 650.341,460.173 656.174,470.506 661,481.5C 662.715,487.739 665.048,493.739 668,499.5C 670.006,508.353 672.173,517.019 674.5,525.5 Z"/></g>
<g><path style="opacity:1" fill="#bfbdcb" d="M 191.5,413.5 C 246.041,409.997 292.041,427.664 329.5,466.5C 330.586,470.668 333.086,473.668 337,475.5C 342.003,469.734 347.17,464.067 352.5,458.5C 359.272,454.228 365.272,449.061 370.5,443C 423.858,408.783 479.858,404.116 538.5,429C 545.16,432.833 551.827,436.667 558.5,440.5C 561.338,443.696 564.671,446.196 568.5,448C 578.694,457.527 588.527,467.36 598,477.5C 601.671,484.169 605.337,490.836 609,497.5C 614.021,501.882 616.688,507.549 617,514.5C 618.064,516.959 619.398,519.292 621,521.5C 626.079,535.779 629.412,550.446 631,565.5C 631.263,588.802 628.096,611.635 621.5,634C 616.554,644.64 611.388,655.14 606,665.5C 599.385,675.051 592.052,684.051 584,692.5C 583.517,693.448 583.351,694.448 583.5,695.5C 582.448,695.351 581.448,695.517 580.5,696C 518.247,762.486 455.413,828.319 392,893.5C 382.007,904.493 372.007,915.493 362,926.5C 356.377,929.062 351.044,932.062 346,935.5C 328.347,938.121 314.514,932.121 304.5,917.5C 280.85,893.85 257.517,869.85 234.5,845.5C 217.529,826.029 199.696,807.362 181,789.5C 179.597,786.095 177.431,783.262 174.5,781C 173.552,780.517 172.552,780.351 171.5,780.5C 171.719,779.325 171.386,778.325 170.5,777.5C 164.387,772.538 159.221,766.872 155,760.5C 150.957,758.123 147.957,754.789 146,750.5C 140.299,746.799 135.632,742.132 132,736.5C 115.661,719.328 99.1613,702.328 82.5,685.5C 74.4581,674.942 66.9581,663.942 60,652.5C 59.1667,649.5 58.3333,646.5 57.5,643.5C 55.8111,640.424 53.9778,637.424 52,634.5C 37.5105,586.189 41.5105,539.856 64,495.5C 70.9543,485.052 78.4543,475.052 86.5,465.5C 102.106,449.71 119.773,436.876 139.5,427C 156.349,420.289 173.682,415.789 191.5,413.5 Z"/></g>
<g><path style="opacity:1" fill="#928f98" d="M 674.5,583.5 C 674.5,618.5 674.5,653.5 674.5,688.5C 611.017,753.991 547.684,819.991 484.5,886.5C 446.144,926.363 407.811,966.529 369.5,1007C 353.083,1021.34 334.75,1024.34 314.5,1016C 310.553,1013.72 306.887,1011.05 303.5,1008C 263.296,965.964 223.296,923.797 183.5,881.5C 122.421,816.425 61.0876,751.759 -0.5,687.5C -0.5,653.833 -0.5,620.167 -0.5,586.5C 0.117425,586.611 0.617425,586.944 1,587.5C 3.25052,601.91 6.91718,615.91 12,629.5C 12.6152,631.116 13.6152,632.449 15,633.5C 15.3333,635.5 15.6667,637.5 16,639.5C 19.6277,644.423 22.4611,649.756 24.5,655.5C 29.5256,663.01 34.6923,670.344 40,677.5C 78.437,718.777 117.937,759.443 158.5,799.5C 162.614,806.27 167.947,811.77 174.5,816C 189.796,833.701 205.963,850.535 223,866.5C 223.483,867.448 223.649,868.448 223.5,869.5C 224.822,869.33 225.989,869.663 227,870.5C 227.679,874.249 229.846,876.249 233.5,876.5C 233.281,877.675 233.614,878.675 234.5,879.5C 241.822,886.99 248.989,894.656 256,902.5C 260.393,907.397 265.226,911.73 270.5,915.5C 272.795,918.47 275.128,921.47 277.5,924.5C 283.861,929.365 289.694,934.699 295,940.5C 301.123,947.959 307.623,955.126 314.5,962C 328.98,971.783 344.313,973.116 360.5,966C 371.633,954.201 383.133,942.701 395,931.5C 395.271,928.728 396.771,927.062 399.5,926.5C 403.793,920.04 408.96,914.373 415,909.5C 426.302,895.531 438.636,882.531 452,870.5C 454.257,866.988 456.757,863.654 459.5,860.5C 465.172,855.161 470.505,849.495 475.5,843.5C 488.543,829.447 502.043,815.78 516,802.5C 522.95,793.546 530.284,784.88 538,776.5C 541.697,772.22 546.031,768.553 551,765.5C 553.019,763.128 554.686,760.461 556,757.5C 564.588,750.034 572.255,741.7 579,732.5C 602.403,709.616 624.403,685.616 645,660.5C 648.411,653.931 651.577,647.264 654.5,640.5C 658.251,637.884 660.084,634.217 660,629.5C 662.516,623.101 665.183,616.768 668,610.5C 670.249,601.428 672.416,592.428 674.5,583.5 Z"/></g>
<g><path style="opacity:1" fill="#bfbdcb" d="M 674.5,722.5 C 674.5,735.167 674.5,747.833 674.5,760.5C 673.325,760.281 672.325,760.614 671.5,761.5C 655.557,780.612 638.723,798.945 621,816.5C 612.245,823.419 604.745,831.419 598.5,840.5C 591.53,845.969 585.03,851.969 579,858.5C 569.343,870.156 559.01,881.156 548,891.5C 530.675,911.491 512.342,930.491 493,948.5C 490.84,951.293 488.84,954.293 487,957.5C 472.995,970.173 459.995,983.839 448,998.5C 439.723,1005.77 431.723,1013.44 424,1021.5C 413.591,1032.74 403.424,1044.07 393.5,1055.5C 385.707,1061.95 378.707,1069.11 372.5,1077C 366.888,1079.14 361.554,1081.81 356.5,1085C 337.69,1090.29 320.023,1087.96 303.5,1078C 265.186,1039.67 227.852,1000.51 191.5,960.5C 178.385,948.89 166.552,936.223 156,922.5C 146.308,913.261 136.808,903.928 127.5,894.5C 125.487,891.331 123.32,888.331 121,885.5C 117.333,884.5 115,882.167 114,878.5C 110.795,875.703 107.462,873.037 104,870.5C 99.0401,864.538 93.7067,858.872 88,853.5C 86.0596,850.43 84.2263,847.43 82.5,844.5C 81.448,844.649 80.448,844.483 79.5,844C 57.7874,821.113 36.1207,797.946 14.5,774.5C 9.75609,769.748 4.75609,765.415 -0.5,761.5C -0.5,748.833 -0.5,736.167 -0.5,723.5C 15.1934,738.026 30.0267,753.36 44,769.5C 55.8061,781.195 67.4727,792.861 79,804.5C 80.2703,807.106 81.9369,809.439 84,811.5C 106.315,834.316 128.482,857.316 150.5,880.5C 174.826,906.338 199.326,932.338 224,958.5C 250.869,985.368 277.036,1012.87 302.5,1041C 316.992,1052.42 333.325,1055.76 351.5,1051C 358.692,1048.32 365.359,1044.65 371.5,1040C 419.526,989.134 467.86,938.3 516.5,887.5C 568.571,833.581 620.405,778.915 672,723.5C 672.671,722.748 673.504,722.414 674.5,722.5 Z"/></g>
<g><path style="opacity:1" fill="#d3d0db" d="M -0.5,687.5 C 61.0876,751.759 122.421,816.425 183.5,881.5C 182.141,882.007 181.141,883.007 180.5,884.5C 178.868,881.854 176.535,880.521 173.5,880.5C 173.17,876.979 171.67,873.979 169,871.5C 168.667,872.167 168.333,872.833 168,873.5C 166.644,872.62 165.144,872.286 163.5,872.5C 163.5,873.5 163.5,874.5 163.5,875.5C 162.167,875.5 160.833,875.5 159.5,875.5C 159.238,874.022 159.571,872.689 160.5,871.5C 163.15,870.543 163.817,868.876 162.5,866.5C 160.833,865.833 159.167,865.167 157.5,864.5C 156.033,864.723 154.533,865.056 153,865.5C 154.721,869.908 155.887,874.575 156.5,879.5C 154.265,879.205 152.265,879.539 150.5,880.5C 128.482,857.316 106.315,834.316 84,811.5C 81.9369,809.439 80.2703,807.106 79,804.5C 67.4727,792.861 55.8061,781.195 44,769.5C 30.0267,753.36 15.1934,738.026 -0.5,723.5C -0.5,711.5 -0.5,699.5 -0.5,687.5 Z"/></g>
<g><path style="opacity:1" fill="#d4d1dc" d="M 307.5,473.5 C 307.414,474.496 307.748,475.329 308.5,476C 306.893,475.981 305.226,475.815 303.5,475.5C 303.5,478.833 303.5,482.167 303.5,485.5C 302.127,485.657 300.793,485.49 299.5,485C 298.953,482.633 297.953,480.467 296.5,478.5C 298.336,477.081 300.336,475.914 302.5,475C 300.804,472.018 298.137,470.684 294.5,471C 296.88,468.897 296.213,467.73 292.5,467.5C 290.334,467.43 290.001,468.096 291.5,469.5C 290.271,470.281 288.938,470.781 287.5,471C 288.416,471.374 289.25,471.874 290,472.5C 290.795,474.901 291.962,477.068 293.5,479C 288.723,481.725 283.723,482.558 278.5,481.5C 221.203,466.757 174.703,482.757 139,529.5C 115.812,566.899 112.146,606.233 128,647.5C 133.086,658.26 139.419,668.26 147,677.5C 204.746,738.917 262.913,800.083 321.5,861C 324.071,862.454 326.738,863.62 329.5,864.5C 328.708,866.257 327.375,867.591 325.5,868.5C 327.833,868.833 330.167,869.167 332.5,869.5C 338.819,868.67 345.152,868.003 351.5,867.5C 351.64,865.876 350.973,864.71 349.5,864C 350,863.5 350.5,863 351,862.5C 356.172,864.315 358.005,862.648 356.5,857.5C 413.013,796.813 470.18,736.479 528,676.5C 559.979,633.2 564.145,587.2 540.5,538.5C 517.757,502.13 485.09,481.463 442.5,476.5C 438.849,475.835 435.015,475.501 431,475.5C 425.568,475.281 420.401,475.948 415.5,477.5C 409.08,478.514 402.747,479.847 396.5,481.5C 392.451,479.57 388.118,478.403 383.5,478C 380.293,477.428 378.626,475.595 378.5,472.5C 380.167,472.5 381.833,472.5 383.5,472.5C 383.771,470.179 383.104,468.179 381.5,466.5C 382.127,465.583 382.461,464.583 382.5,463.5C 408.933,449.317 437.266,444.151 467.5,448C 512.74,455.021 547.907,477.521 573,515.5C 594.967,555.386 598.967,597.053 585,640.5C 578.781,653.27 571.781,665.604 564,677.5C 495.067,750.761 425.9,823.594 356.5,896C 344.604,903.811 332.271,904.478 319.5,898C 317.142,895.971 314.808,893.971 312.5,892C 285.481,862.731 258.315,833.564 231,804.5C 204.162,778.379 178.495,751.379 154,723.5C 142.086,712.85 130.752,701.517 120,689.5C 83.2462,647.929 72.4128,600.095 87.5,546C 106.837,491.524 145.171,459.024 202.5,448.5C 241.061,442.893 276.061,451.226 307.5,473.5 Z"/></g>
<g><path style="opacity:1" fill="#d2cfda" d="M 382.5,463.5 C 382.461,464.583 382.127,465.583 381.5,466.5C 383.104,468.179 383.771,470.179 383.5,472.5C 381.833,472.5 380.167,472.5 378.5,472.5C 378.626,475.595 380.293,477.428 383.5,478C 388.118,478.403 392.451,479.57 396.5,481.5C 374.779,488.293 356.279,500.293 341,517.5C 339.562,518.9 338.729,520.567 338.5,522.5C 337.325,522.719 336.325,522.386 335.5,521.5C 320.344,502.675 301.344,489.342 278.5,481.5C 283.723,482.558 288.723,481.725 293.5,479C 291.962,477.068 290.795,474.901 290,472.5C 289.25,471.874 288.416,471.374 287.5,471C 288.938,470.781 290.271,470.281 291.5,469.5C 290.001,468.096 290.334,467.43 292.5,467.5C 296.213,467.73 296.88,468.897 294.5,471C 298.137,470.684 300.804,472.018 302.5,475C 300.336,475.914 298.336,477.081 296.5,478.5C 297.953,480.467 298.953,482.633 299.5,485C 300.793,485.49 302.127,485.657 303.5,485.5C 303.5,482.167 303.5,478.833 303.5,475.5C 305.226,475.815 306.893,475.981 308.5,476C 307.748,475.329 307.414,474.496 307.5,473.5C 310.975,475.407 314.309,477.574 317.5,480C 323.656,486.324 329.656,492.824 335.5,499.5C 336.325,500.386 337.325,500.719 338.5,500.5C 350.213,484.931 364.88,472.598 382.5,463.5 Z"/></g>
<g><path style="opacity:1" fill="#928f98" d="M 278.5,481.5 C 301.344,489.342 320.344,502.675 335.5,521.5C 336.325,522.386 337.325,522.719 338.5,522.5C 338.729,520.567 339.562,518.9 341,517.5C 356.279,500.293 374.779,488.293 396.5,481.5C 402.747,479.847 409.08,478.514 415.5,477.5C 424.482,476.782 433.482,476.448 442.5,476.5C 485.09,481.463 517.757,502.13 540.5,538.5C 564.145,587.2 559.979,633.2 528,676.5C 470.18,736.479 413.013,796.813 356.5,857.5C 352.489,860.507 348.155,863.007 343.5,865C 338.748,865.773 334.081,865.607 329.5,864.5C 326.738,863.62 324.071,862.454 321.5,861C 262.913,800.083 204.746,738.917 147,677.5C 139.419,668.26 133.086,658.26 128,647.5C 112.146,606.233 115.812,566.899 139,529.5C 174.703,482.757 221.203,466.757 278.5,481.5 Z"/></g>
<g><path style="opacity:1" fill="#aaa8b6" d="M 239.5,502.5 C 251.869,502.216 264.202,502.716 276.5,504C 284.423,507.085 292.423,509.752 300.5,512C 305.672,515.085 310.672,518.419 315.5,522C 316.793,522.49 318.127,522.657 319.5,522.5C 319.238,523.978 319.571,525.311 320.5,526.5C 326.135,531.133 331.468,536.133 336.5,541.5C 340.682,537.485 344.682,533.318 348.5,529C 382.267,501.558 419.933,495.224 461.5,510C 506.141,531.758 527.307,567.591 525,617.5C 523.484,627.006 521.484,636.339 519,645.5C 514.031,653.566 509.531,661.899 505.5,670.5C 486.604,690.842 467.437,710.842 448,730.5C 446.562,731.9 445.729,733.567 445.5,735.5C 441.957,735.872 439.79,737.872 439,741.5C 430.854,748.648 423.354,756.481 416.5,765C 394.434,787.549 372.434,810.382 350.5,833.5C 348.998,834.083 347.665,834.916 346.5,836C 340.167,836.667 333.833,836.667 327.5,836C 318.054,829.221 309.888,821.054 303,811.5C 295.28,803.722 287.446,796.055 279.5,788.5C 269.6,777.096 259.1,766.096 248,755.5C 239.745,744.409 230.245,734.409 219.5,725.5C 202.178,707.344 185.011,689.01 168,670.5C 164.151,661.136 159.484,652.136 154,643.5C 140.298,596.106 151.798,556.273 188.5,524C 189.448,523.517 190.448,523.351 191.5,523.5C 191.281,522.325 191.614,521.325 192.5,520.5C 197.787,518.189 202.787,515.356 207.5,512C 213.466,509.733 219.466,507.4 225.5,505C 230.336,504.32 235.003,503.486 239.5,502.5 Z"/></g>
<g><path style="opacity:1" fill="#bfbdcb" d="M 251.5,524.5 C 267.439,523.46 283.106,524.96 298.5,529C 312.831,535.341 325.165,544.341 335.5,556C 336.448,556.483 337.448,556.649 338.5,556.5C 338.5,555.5 338.5,554.5 338.5,553.5C 343.415,551.001 347.749,547.501 351.5,543C 376.247,525.114 403.58,520.114 433.5,528C 437.974,529.408 442.307,531.075 446.5,533C 465.928,544.384 480.428,560.217 490,580.5C 491.665,588.147 493.332,595.813 495,603.5C 495.151,616.301 493.651,628.968 490.5,641.5C 487.845,648.804 484.679,655.804 481,662.5C 478.2,664.113 476.366,666.447 475.5,669.5C 469.918,673.927 465.085,679.26 461,685.5C 455.193,689.061 450.527,693.728 447,699.5C 440.667,705.5 434.333,711.5 428,717.5C 425.179,721.613 422.179,725.613 419,729.5C 412.391,735.107 406.057,741.107 400,747.5C 398.684,748.974 397.684,750.641 397,752.5C 392.12,756.845 387.62,761.511 383.5,766.5C 381.578,767.711 379.745,769.044 378,770.5C 369.69,779.644 361.19,788.644 352.5,797.5C 350.894,801.602 347.894,804.102 343.5,805C 341.091,805.935 338.591,806.435 336,806.5C 332.764,805.534 329.597,804.367 326.5,803C 321.778,798.402 316.945,793.902 312,789.5C 309.748,786.662 307.748,783.662 306,780.5C 296.045,772.036 287.045,762.703 279,752.5C 259.005,732.887 239.672,712.553 221,691.5C 210.621,681.789 200.954,671.456 192,660.5C 189.226,653.821 185.893,647.488 182,641.5C 175.141,612.683 179.307,585.683 194.5,560.5C 198.648,556.517 202.648,552.351 206.5,548C 213.271,541.896 220.604,536.563 228.5,532C 236.447,530.009 244.113,527.509 251.5,524.5 Z"/></g>
<g><path style="opacity:1" fill="#d3d0db" d="M 271.5,546.5 C 289.629,545.032 306.296,549.199 321.5,559C 326.778,563.455 331.944,567.955 337,572.5C 367.03,542.296 400.53,538.129 437.5,560C 463.746,581.931 472.08,609.597 462.5,643C 458.577,653.306 452.91,662.473 445.5,670.5C 411.15,705.678 377.15,740.844 343.5,776C 337.432,777.954 331.766,777.12 326.5,773.5C 309.908,756.069 293.408,738.403 277,720.5C 273.436,720.053 271.436,718.053 271,714.5C 255.317,698.419 239.65,682.419 224,666.5C 206.219,642.948 202.552,617.281 213,589.5C 225.204,565.004 244.704,550.671 271.5,546.5 Z"/></g>
<g><path style="opacity:1" fill="#928f98" d="M 353.5,572.5 C 353.413,575.598 353.913,575.932 355,573.5C 355.388,574.428 356.055,575.095 357,575.5C 359.235,573.246 361.735,572.579 364.5,573.5C 362.887,574.427 361.221,575.261 359.5,576C 364.257,576.81 368.924,576.476 373.5,575C 373.167,574.667 372.833,574.333 372.5,574C 381.518,573.832 390.518,573.332 399.5,572.5C 401.907,571.095 403.574,569.095 404.5,566.5C 439.55,581.939 452.05,608.272 442,645.5C 439.27,651.293 436.27,656.96 433,662.5C 403.194,693.64 373.361,724.807 343.5,756C 338.154,758.372 333.154,757.872 328.5,754.5C 299.559,723.557 270.226,692.89 240.5,662.5C 227.51,642.81 225.01,621.81 233,599.5C 248.763,570.371 272.929,559.205 305.5,566C 318.233,569.447 328.733,576.28 337,586.5C 339.615,584.049 342.115,581.382 344.5,578.5C 347.385,576.231 350.385,574.231 353.5,572.5 Z"/></g>
<g><path style="opacity:1" fill="#aaa8b6" d="M 351.5,587.5 C 353.512,588.014 355.512,588.18 357.5,588C 356.672,587.085 355.672,586.419 354.5,586C 356.982,585.323 358.815,586.156 360,588.5C 361.512,587.743 362.846,586.743 364,585.5C 365.011,586.337 366.178,586.67 367.5,586.5C 367.5,585.5 367.5,584.5 367.5,583.5C 375.851,583.29 384.184,583.123 392.5,583C 391.62,584.356 391.286,585.856 391.5,587.5C 392.5,587.5 393.5,587.5 394.5,587.5C 394.5,588.5 394.5,589.5 394.5,590.5C 397.577,590.653 400.411,589.986 403,588.5C 404.533,588.773 406.033,589.106 407.5,589.5C 417.425,596.716 424.091,606.382 427.5,618.5C 429.339,630.059 428.506,641.392 425,652.5C 412.671,668.559 399.004,683.226 384,696.5C 379.464,703.046 374.131,709.046 368,714.5C 367.398,717.603 365.565,719.603 362.5,720.5C 356.563,726.774 350.563,733.107 344.5,739.5C 339.198,743.413 333.864,743.413 328.5,739.5C 304.882,713.88 280.882,688.547 256.5,663.5C 243.188,644.387 241.855,624.387 252.5,603.5C 270.829,579.25 294.162,573.417 322.5,586C 327.461,589.822 332.461,593.655 337.5,597.5C 341.623,593.373 346.29,590.039 351.5,587.5 Z"/></g>
<g><path style="opacity:1" fill="#bfbccb" d="M 298.5,598.5 C 302.846,598.334 307.179,598.501 311.5,599C 315.664,600.705 319.997,602.038 324.5,603C 328.662,606.161 332.829,609.327 337,612.5C 342.276,608.021 347.943,604.021 354,600.5C 371.452,595.402 386.285,599.402 398.5,612.5C 406.598,623.172 409.432,635.172 407,648.5C 405.262,653.647 402.762,658.314 399.5,662.5C 380.833,682.167 362.167,701.833 343.5,721.5C 340.981,723.505 338.147,724.838 335,725.5C 324.483,715.581 314.15,705.248 304,694.5C 301.256,692.05 299.256,689.05 298,685.5C 290.67,678.851 283.336,672.184 276,665.5C 273.021,660.564 270.187,655.564 267.5,650.5C 262.754,624.077 273.087,606.743 298.5,598.5 Z"/></g>
<g><path style="opacity:1" fill="#d2cfda" d="M 325.5,618.5 C 310.941,615.529 300.774,620.862 295,634.5C 292.971,643.562 294.971,651.562 301,658.5C 312.527,670.027 324.027,681.527 335.5,693C 336.833,693.667 338.167,693.667 339.5,693C 351.306,680.526 363.139,668.026 375,655.5C 384.169,638.002 379.669,625.502 361.5,618C 352.199,616.879 344.032,619.379 337,625.5C 334.659,623.984 332.492,622.317 330.5,620.5C 330.866,619.305 331.699,618.639 333,618.5C 334.582,620.029 336.415,620.529 338.5,620C 350.949,607.389 364.616,606.055 379.5,616C 387.216,622.009 391.216,629.842 391.5,639.5C 391.415,642.865 391.082,646.198 390.5,649.5C 388.566,653.759 386.232,657.759 383.5,661.5C 370.607,675.47 357.607,689.304 344.5,703C 342.035,705.737 339.035,707.07 335.5,707C 318.874,691.708 303.041,675.874 288,659.5C 276.46,637.789 281.627,621.623 303.5,611C 312.081,609.771 320.414,610.605 328.5,613.5C 332.478,617.131 331.478,618.798 325.5,618.5 Z"/></g>
<g><path style="opacity:1" fill="#918f98" d="M 325.5,618.5 C 327.028,619.309 328.694,619.976 330.5,620.5C 332.492,622.317 334.659,623.984 337,625.5C 344.032,619.379 352.199,616.879 361.5,618C 379.669,625.502 384.169,638.002 375,655.5C 363.139,668.026 351.306,680.526 339.5,693C 338.167,693.667 336.833,693.667 335.5,693C 324.027,681.527 312.527,670.027 301,658.5C 294.971,651.562 292.971,643.562 295,634.5C 300.774,620.862 310.941,615.529 325.5,618.5 Z"/></g>
<g><path style="opacity:1" fill="#aaa8b6" d="M 348.5,623.5 C 363.917,625.732 370.083,634.399 367,649.5C 365.833,651.167 364.667,652.833 363.5,654.5C 355.275,662.616 347.275,670.949 339.5,679.5C 337.902,680.485 336.235,680.651 334.5,680C 324.627,670.795 315.461,660.962 307,650.5C 302.588,638.621 306.088,630.121 317.5,625C 322.239,624.274 326.905,624.607 331.5,626C 332.841,629.006 335.175,630.506 338.5,630.5C 338.281,629.325 338.614,628.325 339.5,627.5C 342.708,626.391 345.708,625.058 348.5,623.5 Z"/></g>
<g><path style="opacity:1" fill="#bebbca" d="M 322.5,629.5 C 325.187,629.336 327.854,629.503 330.5,630C 334.496,633.109 338.496,633.109 342.5,630C 356.566,628.773 361.733,634.939 358,648.5C 354.667,652.5 351,656.167 347,659.5C 344.846,663.82 341.679,667.154 337.5,669.5C 335.253,668.594 333.253,667.261 331.5,665.5C 326.496,658.998 320.996,652.998 315,647.5C 313.962,642.524 314.628,637.858 317,633.5C 318.5,631.531 320.333,630.198 322.5,629.5 Z"/></g>
<g><path style="opacity:1" fill="#d3d0dc" d="M 327.5,633.5 C 330.865,633.255 334.032,633.922 337,635.5C 338.396,634.606 339.896,633.939 341.5,633.5C 344.115,634.269 346.781,634.603 349.5,634.5C 349.729,636.433 350.562,638.1 352,639.5C 352.667,641.167 352.667,642.833 352,644.5C 347.298,650.199 342.298,655.533 337,660.5C 331.518,656.351 326.684,651.518 322.5,646C 320.705,640.425 322.372,636.259 327.5,633.5 Z"/></g>
<g><path style="opacity:1" fill="#a8a5b3" d="M 407.5,589.5 C 406.033,589.106 404.533,588.773 403,588.5C 400.411,589.986 397.577,590.653 394.5,590.5C 394.5,589.5 394.5,588.5 394.5,587.5C 393.5,587.5 392.5,587.5 391.5,587.5C 391.286,585.856 391.62,584.356 392.5,583C 384.184,583.123 375.851,583.29 367.5,583.5C 367.5,584.5 367.5,585.5 367.5,586.5C 366.178,586.67 365.011,586.337 364,585.5C 362.846,586.743 361.512,587.743 360,588.5C 358.815,586.156 356.982,585.323 354.5,586C 355.672,586.419 356.672,587.085 357.5,588C 355.512,588.18 353.512,588.014 351.5,587.5C 353.513,584.998 356.179,583.498 359.5,583C 371.343,578.69 383.343,578.357 395.5,582C 396.357,582.689 397.023,583.522 397.5,584.5C 400.949,586.172 404.282,587.839 407.5,589.5 Z"/></g>
<g><path style="opacity:1" fill="#918e97" d="M 404.5,566.5 C 403.574,569.095 401.907,571.095 399.5,572.5C 390.518,573.332 381.518,573.832 372.5,574C 372.833,574.333 373.167,574.667 373.5,575C 368.924,576.476 364.257,576.81 359.5,576C 361.221,575.261 362.887,574.427 364.5,573.5C 361.735,572.579 359.235,573.246 357,575.5C 356.055,575.095 355.388,574.428 355,573.5C 353.913,575.932 353.413,575.598 353.5,572.5C 369.486,562.932 386.486,560.932 404.5,566.5 Z"/></g>
<g><path style="opacity:1" fill="#bbb8c3" d="M 442.5,476.5 C 433.482,476.448 424.482,476.782 415.5,477.5C 420.401,475.948 425.568,475.281 431,475.5C 435.015,475.501 438.849,475.835 442.5,476.5 Z"/></g>
<g><path style="opacity:1" fill="#d3d0db" d="M 674.5,688.5 C 674.5,699.833 674.5,711.167 674.5,722.5C 673.504,722.414 672.671,722.748 672,723.5C 620.405,778.915 568.571,833.581 516.5,887.5C 517.292,886.033 517.292,884.7 516.5,883.5C 515.459,885.585 513.959,887.252 512,888.5C 509.013,887.724 508.18,886.057 509.5,883.5C 506.464,881.964 504.297,879.631 503,876.5C 501.914,878.847 500.581,878.847 499,876.5C 497.174,877.01 497.007,877.844 498.5,879C 497.552,879.483 496.552,879.649 495.5,879.5C 495.5,880.5 495.5,881.5 495.5,882.5C 492.072,883.235 491.906,884.902 495,887.5C 495.798,889.259 495.631,890.926 494.5,892.5C 492.783,891.332 492.116,889.665 492.5,887.5C 489.167,887.5 487.5,889.167 487.5,892.5C 491.211,892.47 491.878,893.47 489.5,895.5C 487.292,894.137 484.959,892.97 482.5,892C 484.208,889.957 486.208,888.29 488.5,887C 487.436,885.489 486.103,885.323 484.5,886.5C 547.684,819.991 611.017,753.991 674.5,688.5 Z"/></g>
<g><path style="opacity:1" fill="#928f98" d="M -0.5,817.5 C 4.78091,821.778 9.78091,826.445 14.5,831.5C 20.4743,839.99 27.4743,847.823 35.5,855C 38.3333,855.167 39.8333,856.667 40,859.5C 41.7455,861.749 43.9121,863.416 46.5,864.5C 59.7958,880.297 73.6291,895.63 88,910.5C 89.0113,911.337 90.1779,911.67 91.5,911.5C 91.3505,912.552 91.5172,913.552 92,914.5C 104.375,926.708 116.541,939.041 128.5,951.5C 130.265,954.231 131.932,956.898 133.5,959.5C 137.07,959.901 139.236,961.901 140,965.5C 146.02,970.02 151.187,975.353 155.5,981.5C 161.5,986.833 167.167,992.5 172.5,998.5C 173.325,999.386 174.325,999.719 175.5,999.5C 175.351,1000.55 175.517,1001.55 176,1002.5C 179.474,1006.12 182.641,1009.79 185.5,1013.5C 186.675,1013.28 187.675,1013.61 188.5,1014.5C 190.861,1019.03 194.361,1022.36 199,1024.5C 199.333,1025.5 199.667,1026.5 200,1027.5C 204.741,1031.07 208.575,1035.41 211.5,1040.5C 214.229,1041.06 215.729,1042.73 216,1045.5C 224.946,1055.44 234.612,1064.78 245,1073.5C 260.819,1092.32 277.653,1110.15 295.5,1127C 305.128,1133.81 315.794,1138.48 327.5,1141C 339.446,1142.05 351.112,1140.72 362.5,1137C 369.02,1133.82 375.02,1129.82 380.5,1125C 386.124,1118.58 392.291,1112.74 399,1107.5C 400.045,1104.47 401.712,1101.8 404,1099.5C 438.924,1064.25 472.924,1028.59 506,992.5C 507.693,991.816 509.193,990.816 510.5,989.5C 512.171,986.673 514.004,984.006 516,981.5C 524.451,974.838 531.951,967.172 538.5,958.5C 545.19,951.976 552.023,945.642 559,939.5C 580.899,913.598 604.232,888.931 629,865.5C 641.989,849.845 655.989,835.179 671,821.5C 671.49,820.207 671.657,818.873 671.5,817.5C 672.5,817.5 673.5,817.5 674.5,817.5C 674.5,832.833 674.5,848.167 674.5,863.5C 576.867,965.294 479.534,1067.13 382.5,1169C 359.333,1185.47 334.333,1188.8 307.5,1179C 301.105,1175.96 295.105,1172.29 289.5,1168C 192.546,1066.55 95.8795,965.052 -0.5,863.5C -0.5,848.167 -0.5,832.833 -0.5,817.5 Z"/></g>
<g><path style="opacity:1" fill="#d4d1dc" d="M -0.5,863.5 C 95.8795,965.052 192.546,1066.55 289.5,1168C 295.105,1172.29 301.105,1175.96 307.5,1179C 334.333,1188.8 359.333,1185.47 382.5,1169C 479.534,1067.13 576.867,965.294 674.5,863.5C 674.5,887.833 674.5,912.167 674.5,936.5C 668.512,941.326 663.345,946.993 659,953.5C 652.657,959.011 646.491,964.677 640.5,970.5C 593.657,1021.24 546.157,1071.24 498,1120.5C 484.484,1135.44 470.484,1150.11 456,1164.5C 445.278,1176.05 434.778,1187.72 424.5,1199.5C 366.167,1199.5 307.833,1199.5 249.5,1199.5C 193.745,1139.84 137.245,1080.5 80,1021.5C 66.2692,1006.44 52.6026,991.442 39,976.5C 37.9326,975.809 36.7659,975.309 35.5,975C 26.0087,964.009 16.3421,953.175 6.5,942.5C 4.40844,940.395 2.07511,938.728 -0.5,937.5C -0.5,912.833 -0.5,888.167 -0.5,863.5 Z"/></g>
<g><path style="opacity:1" fill="#aaa8b6" d="M 674.5,760.5 C 674.5,779.5 674.5,798.5 674.5,817.5C 673.5,817.5 672.5,817.5 671.5,817.5C 671.657,818.873 671.49,820.207 671,821.5C 655.989,835.179 641.989,849.845 629,865.5C 604.232,888.931 580.899,913.598 559,939.5C 552.023,945.642 545.19,951.976 538.5,958.5C 531.951,967.172 524.451,974.838 516,981.5C 514.004,984.006 512.171,986.673 510.5,989.5C 509.193,990.816 507.693,991.816 506,992.5C 472.924,1028.59 438.924,1064.25 404,1099.5C 401.712,1101.8 400.045,1104.47 399,1107.5C 392.291,1112.74 386.124,1118.58 380.5,1125C 375.02,1129.82 369.02,1133.82 362.5,1137C 351.112,1140.72 339.446,1142.05 327.5,1141C 315.794,1138.48 305.128,1133.81 295.5,1127C 277.653,1110.15 260.819,1092.32 245,1073.5C 234.612,1064.78 224.946,1055.44 216,1045.5C 215.729,1042.73 214.229,1041.06 211.5,1040.5C 208.575,1035.41 204.741,1031.07 200,1027.5C 199.667,1026.5 199.333,1025.5 199,1024.5C 194.361,1022.36 190.861,1019.03 188.5,1014.5C 187.675,1013.61 186.675,1013.28 185.5,1013.5C 182.641,1009.79 179.474,1006.12 176,1002.5C 175.517,1001.55 175.351,1000.55 175.5,999.5C 174.325,999.719 173.325,999.386 172.5,998.5C 167.167,992.5 161.5,986.833 155.5,981.5C 151.187,975.353 146.02,970.02 140,965.5C 139.236,961.901 137.07,959.901 133.5,959.5C 131.932,956.898 130.265,954.231 128.5,951.5C 116.541,939.041 104.375,926.708 92,914.5C 91.5172,913.552 91.3505,912.552 91.5,911.5C 90.1779,911.67 89.0113,911.337 88,910.5C 73.6291,895.63 59.7958,880.297 46.5,864.5C 43.9121,863.416 41.7455,861.749 40,859.5C 39.8333,856.667 38.3333,855.167 35.5,855C 27.4743,847.823 20.4743,839.99 14.5,831.5C 9.78091,826.445 4.78091,821.778 -0.5,817.5C -0.5,798.833 -0.5,780.167 -0.5,761.5C 4.75609,765.415 9.75609,769.748 14.5,774.5C 36.1207,797.946 57.7874,821.113 79.5,844C 80.448,844.483 81.448,844.649 82.5,844.5C 84.2263,847.43 86.0596,850.43 88,853.5C 93.7067,858.872 99.0401,864.538 104,870.5C 107.462,873.037 110.795,875.703 114,878.5C 115,882.167 117.333,884.5 121,885.5C 123.32,888.331 125.487,891.331 127.5,894.5C 136.808,903.928 146.308,913.261 156,922.5C 166.552,936.223 178.385,948.89 191.5,960.5C 227.852,1000.51 265.186,1039.67 303.5,1078C 320.023,1087.96 337.69,1090.29 356.5,1085C 361.554,1081.81 366.888,1079.14 372.5,1077C 378.707,1069.11 385.707,1061.95 393.5,1055.5C 403.424,1044.07 413.591,1032.74 424,1021.5C 431.723,1013.44 439.723,1005.77 448,998.5C 459.995,983.839 472.995,970.173 487,957.5C 488.84,954.293 490.84,951.293 493,948.5C 512.342,930.491 530.675,911.491 548,891.5C 559.01,881.156 569.343,870.156 579,858.5C 585.03,851.969 591.53,845.969 598.5,840.5C 604.745,831.419 612.245,823.419 621,816.5C 638.723,798.945 655.557,780.612 671.5,761.5C 672.325,760.614 673.325,760.281 674.5,760.5 Z"/></g>
<g><path style="opacity:1" fill="#cbc8d3" d="M 341.5,871.5 C 344.898,871.18 348.232,871.513 351.5,872.5C 345.91,873.086 340.576,874.586 335.5,877C 332.833,877.667 330.167,877.667 327.5,877C 326.027,876.29 325.36,875.124 325.5,873.5C 329.846,873.666 334.179,873.499 338.5,873C 339.737,872.768 340.737,872.268 341.5,871.5 Z"/></g>
<g><path style="opacity:1" fill="#cdcad5" d="M 356.5,857.5 C 358.005,862.648 356.172,864.315 351,862.5C 350.5,863 350,863.5 349.5,864C 350.973,864.71 351.64,865.876 351.5,867.5C 345.152,868.003 338.819,868.67 332.5,869.5C 330.167,869.167 327.833,868.833 325.5,868.5C 327.375,867.591 328.708,866.257 329.5,864.5C 334.081,865.607 338.748,865.773 343.5,865C 348.155,863.007 352.489,860.507 356.5,857.5 Z"/></g>
<g><path style="opacity:1" fill="#bfbdcb" d="M 674.5,936.5 C 674.5,961.833 674.5,987.167 674.5,1012.5C 673.5,1012.5 672.5,1012.5 671.5,1012.5C 671.719,1013.68 671.386,1014.68 670.5,1015.5C 659.831,1025.84 649.497,1036.5 639.5,1047.5C 638.272,1049.32 636.606,1050.32 634.5,1050.5C 633.617,1052.91 632.45,1055.24 631,1057.5C 616.581,1070.58 603.248,1084.58 591,1099.5C 581.995,1107.34 573.828,1116.01 566.5,1125.5C 562.042,1127.62 559.042,1130.95 557.5,1135.5C 556.325,1135.28 555.325,1135.61 554.5,1136.5C 543.656,1148.51 532.656,1160.34 521.5,1172C 520.207,1172.49 518.873,1172.66 517.5,1172.5C 517.762,1173.98 517.429,1175.31 516.5,1176.5C 509.094,1183.9 502.094,1191.57 495.5,1199.5C 471.833,1199.5 448.167,1199.5 424.5,1199.5C 434.778,1187.72 445.278,1176.05 456,1164.5C 470.484,1150.11 484.484,1135.44 498,1120.5C 546.157,1071.24 593.657,1021.24 640.5,970.5C 646.491,964.677 652.657,959.011 659,953.5C 663.345,946.993 668.512,941.326 674.5,936.5 Z"/></g>
<g><path style="opacity:1" fill="#bfbdcb" d="M -0.5,937.5 C 2.07511,938.728 4.40844,940.395 6.5,942.5C 16.3421,953.175 26.0087,964.009 35.5,975C 36.7659,975.309 37.9326,975.809 39,976.5C 52.6026,991.442 66.2692,1006.44 80,1021.5C 137.245,1080.5 193.745,1139.84 249.5,1199.5C 225.5,1199.5 201.5,1199.5 177.5,1199.5C 175.241,1196.06 172.741,1192.73 170,1189.5C 165.258,1186.43 161.591,1182.43 159,1177.5C 154.008,1172.88 149.008,1168.21 144,1163.5C 131.422,1149.06 118.088,1135.06 104,1121.5C 89.5797,1104.69 74.2464,1088.69 58,1073.5C 54.9524,1067.29 50.4524,1062.62 44.5,1059.5C 34.9227,1047.09 24.0894,1035.75 12,1025.5C 11.3333,1024.17 10.6667,1022.83 10,1021.5C 6.33324,1018.66 2.83324,1015.66 -0.5,1012.5C -0.5,987.5 -0.5,962.5 -0.5,937.5 Z"/></g>
<g><path style="opacity:1" fill="#d3d1dc" d="M 183.5,881.5 C 223.296,923.797 263.296,965.964 303.5,1008C 306.887,1011.05 310.553,1013.72 314.5,1016C 334.75,1024.34 353.083,1021.34 369.5,1007C 407.811,966.529 446.144,926.363 484.5,886.5C 486.103,885.323 487.436,885.489 488.5,887C 486.208,888.29 484.208,889.957 482.5,892C 484.959,892.97 487.292,894.137 489.5,895.5C 491.878,893.47 491.211,892.47 487.5,892.5C 487.5,889.167 489.167,887.5 492.5,887.5C 492.116,889.665 492.783,891.332 494.5,892.5C 495.631,890.926 495.798,889.259 495,887.5C 491.906,884.902 492.072,883.235 495.5,882.5C 495.5,881.5 495.5,880.5 495.5,879.5C 496.552,879.649 497.552,879.483 498.5,879C 497.007,877.844 497.174,877.01 499,876.5C 500.581,878.847 501.914,878.847 503,876.5C 504.297,879.631 506.464,881.964 509.5,883.5C 508.18,886.057 509.013,887.724 512,888.5C 513.959,887.252 515.459,885.585 516.5,883.5C 517.292,884.7 517.292,886.033 516.5,887.5C 467.86,938.3 419.526,989.134 371.5,1040C 365.359,1044.65 358.692,1048.32 351.5,1051C 333.325,1055.76 316.992,1052.42 302.5,1041C 277.036,1012.87 250.869,985.368 224,958.5C 199.326,932.338 174.826,906.338 150.5,880.5C 152.265,879.539 154.265,879.205 156.5,879.5C 155.887,874.575 154.721,869.908 153,865.5C 154.533,865.056 156.033,864.723 157.5,864.5C 159.167,865.167 160.833,865.833 162.5,866.5C 163.817,868.876 163.15,870.543 160.5,871.5C 159.571,872.689 159.238,874.022 159.5,875.5C 160.833,875.5 162.167,875.5 163.5,875.5C 163.5,874.5 163.5,873.5 163.5,872.5C 165.144,872.286 166.644,872.62 168,873.5C 168.333,872.833 168.667,872.167 169,871.5C 171.67,873.979 173.17,876.979 173.5,880.5C 176.535,880.521 178.868,881.854 180.5,884.5C 181.141,883.007 182.141,882.007 183.5,881.5 Z"/></g>
<g><path style="opacity:1" fill="#aaa8b6" d="M 674.5,1012.5 C 674.5,1042.83 674.5,1073.17 674.5,1103.5C 669.105,1107.06 664.438,1111.56 660.5,1117C 659.1,1118.44 657.433,1119.27 655.5,1119.5C 652.922,1123.6 650.088,1127.6 647,1131.5C 644.815,1133.54 642.315,1134.87 639.5,1135.5C 639.762,1136.98 639.429,1138.31 638.5,1139.5C 620.314,1158.25 602.314,1177.08 584.5,1196C 583.552,1196.48 582.552,1196.65 581.5,1196.5C 581.5,1197.5 581.5,1198.5 581.5,1199.5C 552.833,1199.5 524.167,1199.5 495.5,1199.5C 502.094,1191.57 509.094,1183.9 516.5,1176.5C 517.429,1175.31 517.762,1173.98 517.5,1172.5C 518.873,1172.66 520.207,1172.49 521.5,1172C 532.656,1160.34 543.656,1148.51 554.5,1136.5C 555.325,1135.61 556.325,1135.28 557.5,1135.5C 559.042,1130.95 562.042,1127.62 566.5,1125.5C 573.828,1116.01 581.995,1107.34 591,1099.5C 603.248,1084.58 616.581,1070.58 631,1057.5C 632.45,1055.24 633.617,1052.91 634.5,1050.5C 636.606,1050.32 638.272,1049.32 639.5,1047.5C 649.497,1036.5 659.831,1025.84 670.5,1015.5C 671.386,1014.68 671.719,1013.68 671.5,1012.5C 672.5,1012.5 673.5,1012.5 674.5,1012.5 Z"/></g>
<g><path style="opacity:1" fill="#aaa8b6" d="M -0.5,1012.5 C 2.83324,1015.66 6.33324,1018.66 10,1021.5C 10.6667,1022.83 11.3333,1024.17 12,1025.5C 24.0894,1035.75 34.9227,1047.09 44.5,1059.5C 50.4524,1062.62 54.9524,1067.29 58,1073.5C 74.2464,1088.69 89.5797,1104.69 104,1121.5C 118.088,1135.06 131.422,1149.06 144,1163.5C 149.008,1168.21 154.008,1172.88 159,1177.5C 161.591,1182.43 165.258,1186.43 170,1189.5C 172.741,1192.73 175.241,1196.06 177.5,1199.5C 148.833,1199.5 120.167,1199.5 91.5,1199.5C 67.9473,1173.18 43.4473,1147.51 18,1122.5C 12.8804,1114.92 6.7137,1108.58 -0.5,1103.5C -0.5,1073.17 -0.5,1042.83 -0.5,1012.5 Z"/></g>
<g><path style="opacity:1" fill="#929099" d="M 674.5,1103.5 C 674.5,1135.5 674.5,1167.5 674.5,1199.5C 643.5,1199.5 612.5,1199.5 581.5,1199.5C 581.5,1198.5 581.5,1197.5 581.5,1196.5C 582.552,1196.65 583.552,1196.48 584.5,1196C 602.314,1177.08 620.314,1158.25 638.5,1139.5C 639.429,1138.31 639.762,1136.98 639.5,1135.5C 642.315,1134.87 644.815,1133.54 647,1131.5C 650.088,1127.6 652.922,1123.6 655.5,1119.5C 657.433,1119.27 659.1,1118.44 660.5,1117C 664.438,1111.56 669.105,1107.06 674.5,1103.5 Z"/></g>
<g><path style="opacity:1" fill="#929099" d="M -0.5,1103.5 C 6.7137,1108.58 12.8804,1114.92 18,1122.5C 43.4473,1147.51 67.9473,1173.18 91.5,1199.5C 60.8333,1199.5 30.1667,1199.5 -0.5,1199.5C -0.5,1167.5 -0.5,1135.5 -0.5,1103.5 Z"/></g>
</svg>
