<?xml version="1.0" encoding="UTF-8"?>
<!DOCTYPE svg PUBLIC "-//W3C//DTD SVG 1.1//EN" "http://www.w3.org/Graphics/SVG/1.1/DTD/svg11.dtd">
<svg xmlns="http://www.w3.org/2000/svg" version="1.1" width="564px" height="1128px" style="shape-rendering:geometricPrecision; text-rendering:geometricPrecision; image-rendering:optimizeQuality; fill-rule:evenodd; clip-rule:evenodd" xmlns:xlink="http://www.w3.org/1999/xlink">
<g><path style="opacity:1" fill="#e8e8ec" d="M -0.5,-0.5 C 10.5,-0.5 21.5,-0.5 32.5,-0.5C 26.5097,12.0316 29.5097,21.865 41.5,29C 38.0045,33.8247 37.5045,38.9914 40,44.5C 43.7049,50.6884 49.2049,53.3551 56.5,52.5C 62.39,52.4444 68.0567,51.2777 73.5,49C 82.1667,48.6667 90.8333,48.3333 99.5,48C 110.278,45.8834 114.778,39.3834 113,28.5C 111.999,25.8268 110.499,23.4935 108.5,21.5C 114.872,15.3873 117.205,8.05399 115.5,-0.5C 143.5,-0.5 171.5,-0.5 199.5,-0.5C 197.816,5.97687 199.483,11.4769 204.5,16C 207.833,18 211.167,20 214.5,22C 220.449,23.2361 226.116,25.2361 231.5,28C 237.944,34.6388 245.778,38.4721 255,39.5C 261.348,38.822 265.681,35.4887 268,29.5C 268.498,26.1832 268.665,22.8499 268.5,19.5C 280.299,18.0344 286.632,11.3677 287.5,-0.5C 315.167,-0.5 342.833,-0.5 370.5,-0.5C 365.055,11.8841 368.055,21.7174 379.5,29C 375.148,37.5604 376.815,44.8938 384.5,51C 393.673,53.2993 402.673,52.6326 411.5,49C 420.167,48.6667 428.833,48.3333 437.5,48C 448.625,45.5941 453.125,38.7608 451,27.5C 450.045,25.0514 448.545,23.0514 446.5,21.5C 453.105,15.6186 455.772,8.28525 454.5,-0.5C 482.167,-0.5 509.833,-0.5 537.5,-0.5C 536.708,5.279 538.041,10.4457 541.5,15C 548.004,20.0851 555.337,23.2517 563.5,24.5C 563.5,116.167 563.5,207.833 563.5,299.5C 551.392,298.6 544.725,304.266 543.5,316.5C 544.298,320.89 545.298,325.223 546.5,329.5C 541.954,330.209 539.121,332.875 538,337.5C 536.959,342.44 537.626,347.106 540,351.5C 546.488,357.994 554.321,361.66 563.5,362.5C 563.5,454.167 563.5,545.833 563.5,637.5C 551.116,636.713 544.45,642.547 543.5,655C 544.09,658.771 545.09,662.438 546.5,666C 538.035,671.395 535.535,678.895 539,688.5C 545.852,695.342 554.019,699.676 563.5,701.5C 563.5,793.167 563.5,884.833 563.5,976.5C 555.432,974.698 549.432,977.532 545.5,985C 542.734,991.461 543.068,997.794 546.5,1004C 545.225,1006.07 543.391,1007.57 541,1008.5C 534.07,1021.14 537.237,1030.31 550.5,1036C 554.629,1037.95 558.963,1039.12 563.5,1039.5C 563.5,1068.83 563.5,1098.17 563.5,1127.5C 375.5,1127.5 187.5,1127.5 -0.5,1127.5C -0.5,1039.83 -0.5,952.167 -0.5,864.5C 8.32302,867.432 16.9897,866.932 25.5,863C 29.8802,857.981 31.3802,852.148 30,845.5C 29.3645,844.034 28.5312,842.7 27.5,841.5C 30.9072,838.262 33.7405,834.595 36,830.5C 40.1874,816.84 35.3541,809.173 21.5,807.5C 23.8006,795.641 18.9672,789.641 7,789.5C 4.44942,789.625 1.94942,789.958 -0.5,790.5C -0.5,702.5 -0.5,614.5 -0.5,526.5C 8.00581,528.245 16.3391,527.745 24.5,525C 31.2188,518.259 32.2188,510.759 27.5,502.5C 38.6458,493.866 40.3125,483.699 32.5,472C 29.1295,469.922 25.4629,469.089 21.5,469.5C 24.3802,458.744 20.3802,452.577 9.5,451C 6.11192,450.341 2.77859,450.508 -0.5,451.5C -0.5,363.833 -0.5,276.167 -0.5,188.5C 9.00872,190.683 18.0087,189.516 26.5,185C 31.3896,178.383 31.7229,171.55 27.5,164.5C 31.6621,160.846 34.8288,156.513 37,151.5C 38.7853,144.194 36.9519,138.028 31.5,133C 28.6249,131.698 25.6249,130.865 22.5,130.5C 23.8561,118.524 18.5228,112.524 6.5,112.5C 4.11657,112.637 1.78324,112.971 -0.5,113.5C -0.5,75.5 -0.5,37.5 -0.5,-0.5 Z"/></g>
<g><path style="opacity:1" fill="#e5e7ea" d="M 540.5,-0.5 C 548.167,-0.5 555.833,-0.5 563.5,-0.5C 563.5,6.83333 563.5,14.1667 563.5,21.5C 553.869,20.6086 546.369,16.2753 541,8.5C 540.502,5.51838 540.335,2.51838 540.5,-0.5 Z"/></g>
<g><path style="opacity:1" fill="#a2a3aa" d="M 537.5,-0.5 C 538.5,-0.5 539.5,-0.5 540.5,-0.5C 540.335,2.51838 540.502,5.51838 541,8.5C 546.369,16.2753 553.869,20.6086 563.5,21.5C 563.5,22.5 563.5,23.5 563.5,24.5C 555.337,23.2517 548.004,20.0851 541.5,15C 538.041,10.4457 536.708,5.279 537.5,-0.5 Z"/></g>
<g><path style="opacity:1" fill="#a2a3ab" d="M 370.5,-0.5 C 372.167,-0.5 373.833,-0.5 375.5,-0.5C 368.738,7.43613 369.071,15.2695 376.5,23C 378.587,23.7922 380.421,24.9588 382,26.5C 380.385,30.8943 379.718,35.5609 380,40.5C 382.313,47.4125 387.146,50.4125 394.5,49.5C 400.401,49.4411 406.068,48.2744 411.5,46C 418.838,45.8897 426.172,45.8897 433.5,46C 449.478,42.8849 452.812,34.7183 443.5,21.5C 446.161,17.9948 448.661,14.3282 451,10.5C 451.499,6.84841 451.665,3.18174 451.5,-0.5C 452.5,-0.5 453.5,-0.5 454.5,-0.5C 455.772,8.28525 453.105,15.6186 446.5,21.5C 448.545,23.0514 450.045,25.0514 451,27.5C 453.125,38.7608 448.625,45.5941 437.5,48C 428.833,48.3333 420.167,48.6667 411.5,49C 402.673,52.6326 393.673,53.2993 384.5,51C 376.815,44.8938 375.148,37.5604 379.5,29C 368.055,21.7174 365.055,11.8841 370.5,-0.5 Z"/></g>
<g><path style="opacity:1" fill="#e8e9eb" d="M 375.5,-0.5 C 400.833,-0.5 426.167,-0.5 451.5,-0.5C 451.665,3.18174 451.499,6.84841 451,10.5C 448.661,14.3282 446.161,17.9948 443.5,21.5C 452.812,34.7183 449.478,42.8849 433.5,46C 426.172,45.8897 418.838,45.8897 411.5,46C 406.068,48.2744 400.401,49.4411 394.5,49.5C 387.146,50.4125 382.313,47.4125 380,40.5C 379.718,35.5609 380.385,30.8943 382,26.5C 380.421,24.9588 378.587,23.7922 376.5,23C 369.071,15.2695 368.738,7.43613 375.5,-0.5 Z"/></g>
<g><path style="opacity:1" fill="#dedfe4" d="M 408.5,15.5 C 419.165,13.7295 427.332,17.3962 433,26.5C 434.168,33.3395 431.334,37.5062 424.5,39C 415.18,40.5172 405.847,40.6839 396.5,39.5C 391.313,33.3875 391.646,27.3875 397.5,21.5C 400.823,18.6752 404.49,16.6752 408.5,15.5 Z"/></g>
<g><path style="opacity:1" fill="#dedfe3" d="M 378.5,5.5 C 388.113,5.40393 392.113,10.0706 390.5,19.5C 383.255,20.9457 378.922,17.9457 377.5,10.5C 377.728,8.7927 378.062,7.12603 378.5,5.5 Z"/></g>
<g><path style="opacity:1" fill="#a3a3ac" d="M 199.5,-0.5 C 200.5,-0.5 201.5,-0.5 202.5,-0.5C 200.545,5.77313 202.212,10.9398 207.5,15C 213.98,19.0364 220.98,21.7031 228.5,23C 232.783,25.6153 236.783,28.6153 240.5,32C 245.714,35.4513 251.381,36.7847 257.5,36C 265.298,32.1173 267.965,25.9506 265.5,17.5C 277.066,16.9319 283.4,10.9319 284.5,-0.5C 285.5,-0.5 286.5,-0.5 287.5,-0.5C 286.632,11.3677 280.299,18.0344 268.5,19.5C 268.665,22.8499 268.498,26.1832 268,29.5C 265.681,35.4887 261.348,38.822 255,39.5C 245.778,38.4721 237.944,34.6388 231.5,28C 226.116,25.2361 220.449,23.2361 214.5,22C 211.167,20 207.833,18 204.5,16C 199.483,11.4769 197.816,5.97687 199.5,-0.5 Z"/></g>
<g><path style="opacity:1" fill="#e8e9ec" d="M 202.5,-0.5 C 207.167,-0.5 211.833,-0.5 216.5,-0.5C 214.683,4.88734 216.017,9.38734 220.5,13C 228.108,17.867 236.274,21.367 245,23.5C 251.241,23.7595 254.407,20.7595 254.5,14.5C 254.248,8.35691 251.914,3.35691 247.5,-0.5C 252.833,-0.5 258.167,-0.5 263.5,-0.5C 257.69,8.76902 260.024,12.1024 270.5,9.5C 274.113,7.08452 276.113,3.75118 276.5,-0.5C 279.167,-0.5 281.833,-0.5 284.5,-0.5C 283.4,10.9319 277.066,16.9319 265.5,17.5C 267.965,25.9506 265.298,32.1173 257.5,36C 251.381,36.7847 245.714,35.4513 240.5,32C 236.783,28.6153 232.783,25.6153 228.5,23C 220.98,21.7031 213.98,19.0364 207.5,15C 202.212,10.9398 200.545,5.77313 202.5,-0.5 Z"/></g>
<g><path style="opacity:1" fill="#dfe0e4" d="M 216.5,-0.5 C 226.833,-0.5 237.167,-0.5 247.5,-0.5C 251.914,3.35691 254.248,8.35691 254.5,14.5C 254.407,20.7595 251.241,23.7595 245,23.5C 236.274,21.367 228.108,17.867 220.5,13C 216.017,9.38734 214.683,4.88734 216.5,-0.5 Z"/></g>
<g><path style="opacity:1" fill="#dedfe4" d="M 263.5,-0.5 C 267.833,-0.5 272.167,-0.5 276.5,-0.5C 276.113,3.75118 274.113,7.08452 270.5,9.5C 260.024,12.1024 257.69,8.76902 263.5,-0.5 Z"/></g>
<g><path style="opacity:1" fill="#a3a4ab" d="M 32.5,-0.5 C 33.8333,-0.5 35.1667,-0.5 36.5,-0.5C 32.1709,5.22696 31.3376,11.5603 34,18.5C 37.035,21.8702 40.3683,24.8702 44,27.5C 43.06,30.3523 42.2266,33.3523 41.5,36.5C 41.8264,46.1569 46.8264,50.4902 56.5,49.5C 62.4012,49.4411 68.0679,48.2744 73.5,46C 80.8473,45.7163 88.1806,45.7163 95.5,46C 100.605,44.9716 105.105,42.8049 109,39.5C 112.081,32.3004 110.581,26.3004 104.5,21.5C 111.72,15.7434 114.386,8.41003 112.5,-0.5C 113.5,-0.5 114.5,-0.5 115.5,-0.5C 117.205,8.05399 114.872,15.3873 108.5,21.5C 110.499,23.4935 111.999,25.8268 113,28.5C 114.778,39.3834 110.278,45.8834 99.5,48C 90.8333,48.3333 82.1667,48.6667 73.5,49C 68.0567,51.2777 62.39,52.4444 56.5,52.5C 49.2049,53.3551 43.7049,50.6884 40,44.5C 37.5045,38.9914 38.0045,33.8247 41.5,29C 29.5097,21.865 26.5097,12.0316 32.5,-0.5 Z"/></g>
<g><path style="opacity:1" fill="#e8e9ec" d="M 36.5,-0.5 C 56.5,-0.5 76.5,-0.5 96.5,-0.5C 93.0112,3.63307 92.0112,8.29973 93.5,13.5C 98.2081,16.6883 101.708,15.6883 104,10.5C 105.647,6.84327 105.813,3.1766 104.5,-0.5C 107.167,-0.5 109.833,-0.5 112.5,-0.5C 114.386,8.41003 111.72,15.7434 104.5,21.5C 110.581,26.3004 112.081,32.3004 109,39.5C 105.105,42.8049 100.605,44.9716 95.5,46C 88.1806,45.7163 80.8473,45.7163 73.5,46C 68.0679,48.2744 62.4012,49.4411 56.5,49.5C 46.8264,50.4902 41.8264,46.1569 41.5,36.5C 42.2266,33.3523 43.06,30.3523 44,27.5C 40.3683,24.8702 37.035,21.8702 34,18.5C 31.3376,11.5603 32.1709,5.22696 36.5,-0.5 Z"/></g>
<g><path style="opacity:1" fill="#dedfe5" d="M 71.5,15.5 C 81.9586,14.6447 89.7919,18.6447 95,27.5C 95.7018,33.8143 92.8685,37.6477 86.5,39C 76.2828,40.982 66.2828,40.982 56.5,39C 54.9344,37.3161 53.9344,35.3161 53.5,33C 56.1348,23.5295 62.1348,17.6962 71.5,15.5 Z"/></g>
<g><path style="opacity:1" fill="#dedfe4" d="M 40.5,4.5 C 50.2115,4.70541 54.2115,9.53874 52.5,19C 41.3748,20.6832 37.3748,15.8499 40.5,4.5 Z"/></g>
<g><path style="opacity:1" fill="#dfdfe5" d="M 96.5,-0.5 C 99.1667,-0.5 101.833,-0.5 104.5,-0.5C 105.813,3.1766 105.647,6.84327 104,10.5C 101.708,15.6883 98.2081,16.6883 93.5,13.5C 92.0112,8.29973 93.0112,3.63307 96.5,-0.5 Z"/></g>
<g><path style="opacity:1" fill="#e7e9eb" d="M -0.5,185.5 C -0.5,183.167 -0.5,180.833 -0.5,178.5C 10.4595,179.047 14.6261,174.047 12,163.5C 8.71265,159.441 4.54599,156.774 -0.5,155.5C -0.5,142.5 -0.5,129.5 -0.5,116.5C 14.8297,112.17 21.4964,117.836 19.5,133.5C 31.779,133.292 36.6124,139.292 34,151.5C 33.0857,153.664 31.919,155.664 30.5,157.5C 27.3623,158.805 25.029,160.971 23.5,164C 25.7011,166.739 27.3678,169.739 28.5,173C 28.3042,180.862 24.3042,185.195 16.5,186C 10.8051,186.626 5.13846,186.459 -0.5,185.5 Z"/></g>
<g><path style="opacity:1" fill="#dedfe4" d="M 18.5,140.5 C 23.4219,139.238 26.0886,141.071 26.5,146C 25.5367,154.338 21.2034,157.338 13.5,155C 12.9032,153.938 12.5698,152.772 12.5,151.5C 13.74,147.349 15.74,143.682 18.5,140.5 Z"/></g>
<g><path style="opacity:1" fill="#a3a3ab" d="M 155.5,141.5 C 164.833,140.262 171.833,143.596 176.5,151.5C 186.743,151.063 194.576,155.063 200,163.5C 201.059,168.556 199.893,173.056 196.5,177C 200,179.167 202.833,182 205,185.5C 206.736,199.727 200.569,207.727 186.5,209.5C 188.64,218.718 185.307,225.218 176.5,229C 169.68,229.397 163.346,227.73 157.5,224C 153.718,220.22 149.384,217.22 144.5,215C 133.373,213.528 124.54,208.361 118,199.5C 116.071,190.433 118.904,183.433 126.5,178.5C 120.223,164.647 124.223,155.314 138.5,150.5C 141.251,150.854 143.917,151.521 146.5,152.5C 148.812,148.172 151.812,144.505 155.5,141.5 Z"/></g>
<g><path style="opacity:1" fill="#a3a3ab" d="M 316.5,111.5 C 322.371,111.435 327.704,113.101 332.5,116.5C 339.862,111.765 347.529,111.265 355.5,115C 359.925,119.182 361.592,124.348 360.5,130.5C 373.462,132.318 378.295,139.651 375,152.5C 374,154.5 373,156.5 372,158.5C 369.357,159.976 367.19,161.976 365.5,164.5C 370.216,170.024 370.716,176.024 367,182.5C 362.483,187.563 356.816,189.896 350,189.5C 343.692,189.199 337.526,188.199 331.5,186.5C 322.193,188.808 312.859,188.975 303.5,187C 295.66,182.849 292.827,176.349 295,167.5C 296.046,165.91 297.213,164.41 298.5,163C 288.208,155.334 286.042,145.834 292,134.5C 295.398,130.977 299.564,129.311 304.5,129.5C 303.085,119.618 307.085,113.618 316.5,111.5 Z"/></g>
<g><path style="opacity:1" fill="#e9eaec" d="M 367.5,135.5 C 366.945,139.712 367.945,143.379 370.5,146.5C 369.882,150.1 368.549,153.433 366.5,156.5C 365.522,156.023 364.689,155.357 364,154.5C 363.501,151.482 363.668,148.482 364.5,145.5C 363.807,140.849 361.141,139.349 356.5,141C 351.823,144.922 350.49,149.755 352.5,155.5C 354.115,156.154 355.782,156.654 357.5,157C 356.5,157.333 355.5,157.667 354.5,158C 355.872,158.402 357.205,158.902 358.5,159.5C 359.25,164.504 360.917,169.17 363.5,173.5C 361.241,176.08 360.574,178.913 361.5,182C 358.15,182.25 354.983,183.083 352,184.5C 349.054,180.973 345.72,180.64 342,183.5C 340.278,183.389 340.112,182.889 341.5,182C 334.221,180.753 326.888,180.253 319.5,180.5C 319.5,181.5 319.5,182.5 319.5,183.5C 317.94,183.519 316.44,183.852 315,184.5C 311.397,182.812 307.564,181.812 303.5,181.5C 303.623,178.412 302.623,175.745 300.5,173.5C 301.81,170.794 302.81,167.961 303.5,165C 302.908,161.968 301.574,159.302 299.5,157C 300.227,155.601 300.727,154.101 301,152.5C 306.601,158.465 310.101,157.465 311.5,149.5C 311.485,147.366 310.985,145.366 310,143.5C 307.721,141.711 305.721,139.711 304,137.5C 303.387,135.505 303.887,133.838 305.5,132.5C 307.332,114.512 316.332,110.179 332.5,119.5C 339.046,115.282 346.046,114.449 353.5,117C 355.049,118.214 356.215,119.714 357,121.5C 357.333,125.167 357.667,128.833 358,132.5C 361.367,133.133 364.534,134.133 367.5,135.5 Z"/></g>
<g><path style="opacity:1" fill="#dedfe4" d="M 342.5,123.5 C 346.876,124.212 348.876,126.879 348.5,131.5C 347.788,135.893 345.454,139.226 341.5,141.5C 337.899,140.564 336.233,138.23 336.5,134.5C 336.263,129.493 338.263,125.827 342.5,123.5 Z"/></g>
<g><path style="opacity:1" fill="#dedfe4" d="M 316.5,123.5 C 325.406,123.923 328.906,128.59 327,137.5C 321.283,142.208 317.283,140.875 315,133.5C 314.309,129.979 314.809,126.645 316.5,123.5 Z"/></g>
<g><path style="opacity:1" fill="#e8e9ec" d="M 155.5,144.5 C 164.628,143.089 171.294,146.422 175.5,154.5C 184.363,153.517 191.53,156.517 197,163.5C 197.656,168.878 196.489,173.878 193.5,178.5C 204.039,184.983 205.372,193.149 197.5,203C 193.162,205.327 188.662,207.161 184,208.5C 185.969,216.263 183.469,222.097 176.5,226C 166.249,226.211 157.582,222.544 150.5,215C 142.295,212.233 134.295,208.9 126.5,205C 120.385,200.041 118.885,193.874 122,186.5C 123.792,184.293 126.126,182.959 129,182.5C 128.371,177.606 127.538,172.606 126.5,167.5C 128.619,155.187 135.452,151.187 147,155.5C 147.833,155.167 148.667,154.833 149.5,154.5C 151.008,150.807 153.008,147.474 155.5,144.5 Z"/></g>
<g><path style="opacity:1" fill="#dedfe4" d="M -0.5,155.5 C 4.54599,156.774 8.71265,159.441 12,163.5C 14.6261,174.047 10.4595,179.047 -0.5,178.5C -0.5,170.833 -0.5,163.167 -0.5,155.5 Z"/></g>
<g><path style="opacity:1" fill="#dedfe4" d="M 159.5,153.5 C 164.158,153.491 166.491,155.825 166.5,160.5C 166.465,168.919 162.799,171.586 155.5,168.5C 153.256,162.334 154.59,157.334 159.5,153.5 Z"/></g>
<g><path style="opacity:1" fill="#a4a5ac" d="M -0.5,188.5 C -0.5,187.5 -0.5,186.5 -0.5,185.5C 5.13846,186.459 10.8051,186.626 16.5,186C 24.3042,185.195 28.3042,180.862 28.5,173C 27.3678,169.739 25.7011,166.739 23.5,164C 25.029,160.971 27.3623,158.805 30.5,157.5C 31.919,155.664 33.0857,153.664 34,151.5C 36.6124,139.292 31.779,133.292 19.5,133.5C 21.4964,117.836 14.8297,112.17 -0.5,116.5C -0.5,115.5 -0.5,114.5 -0.5,113.5C 1.78324,112.971 4.11657,112.637 6.5,112.5C 18.5228,112.524 23.8561,118.524 22.5,130.5C 25.6249,130.865 28.6249,131.698 31.5,133C 36.9519,138.028 38.7853,144.194 37,151.5C 34.8288,156.513 31.6621,160.846 27.5,164.5C 31.7229,171.55 31.3896,178.383 26.5,185C 18.0087,189.516 9.00872,190.683 -0.5,188.5 Z"/></g>
<g><path style="opacity:1" fill="#dedfe4" d="M 179.5,164.5 C 186,163.499 188.5,166.165 187,172.5C 185.315,174.017 183.815,175.684 182.5,177.5C 175.493,181.092 172.326,179.092 173,171.5C 174.73,168.609 176.896,166.276 179.5,164.5 Z"/></g>
<g><path style="opacity:1" fill="#e4e5ea" d="M 305.5,132.5 C 303.887,133.838 303.387,135.505 304,137.5C 305.721,139.711 307.721,141.711 310,143.5C 310.985,145.366 311.485,147.366 311.5,149.5C 310.101,157.465 306.601,158.465 301,152.5C 300.727,154.101 300.227,155.601 299.5,157C 301.574,159.302 302.908,161.968 303.5,165C 302.81,167.961 301.81,170.794 300.5,173.5C 302.623,175.745 303.623,178.412 303.5,181.5C 307.564,181.812 311.397,182.812 315,184.5C 316.44,183.852 317.94,183.519 319.5,183.5C 319.5,182.5 319.5,181.5 319.5,180.5C 326.888,180.253 334.221,180.753 341.5,182C 340.112,182.889 340.278,183.389 342,183.5C 345.72,180.64 349.054,180.973 352,184.5C 354.983,183.083 358.15,182.25 361.5,182C 360.574,178.913 361.241,176.08 363.5,173.5C 360.917,169.17 359.25,164.504 358.5,159.5C 357.205,158.902 355.872,158.402 354.5,158C 355.5,157.667 356.5,157.333 357.5,157C 355.782,156.654 354.115,156.154 352.5,155.5C 350.49,149.755 351.823,144.922 356.5,141C 361.141,139.349 363.807,140.849 364.5,145.5C 363.668,148.482 363.501,151.482 364,154.5C 364.689,155.357 365.522,156.023 366.5,156.5C 368.549,153.433 369.882,150.1 370.5,146.5C 367.945,143.379 366.945,139.712 367.5,135.5C 369.888,136.219 371.388,137.885 372,140.5C 374.256,150.082 371.256,157.415 363,162.5C 362.073,165.596 363.073,167.93 366,169.5C 367.255,181.247 361.922,186.914 350,186.5C 338.217,184.37 326.384,184.037 314.5,185.5C 301.154,186.655 295.654,180.655 298,167.5C 299.563,166.275 300.73,164.775 301.5,163C 297.541,159.043 294.374,154.543 292,149.5C 289.875,138.374 294.375,132.708 305.5,132.5 Z"/></g>
<g><path style="opacity:1" fill="#dfe0e5" d="M 324.5,154.5 C 335.887,152.283 344.72,155.95 351,165.5C 353.199,172.614 350.699,176.781 343.5,178C 334.833,178.667 326.167,178.667 317.5,178C 310.054,174.326 308.554,168.826 313,161.5C 316.225,157.979 320.058,155.646 324.5,154.5 Z"/></g>
<g><path style="opacity:1" fill="#dedfe3" d="M 137.5,160.5 C 142.07,160.627 144.737,162.961 145.5,167.5C 145.318,170.226 144.818,172.893 144,175.5C 139.96,179.515 136.627,178.848 134,173.5C 132.539,168.326 133.706,163.993 137.5,160.5 Z"/></g>
<g><path style="opacity:1" fill="#dedfe4" d="M 143.5,183.5 C 152.935,182.479 161.102,185.145 168,191.5C 173.183,198.093 173.683,204.927 169.5,212C 164.781,213.995 160.114,213.829 155.5,211.5C 147.465,209.066 140.632,204.732 135,198.5C 133.233,190.684 136.066,185.684 143.5,183.5 Z"/></g>
<g><path style="opacity:1" fill="#dedfe3" d="M 185.5,186.5 C 192.493,184.996 195.327,187.663 194,194.5C 190.187,199.827 185.354,201.16 179.5,198.5C 178.182,196.088 178.349,193.754 180,191.5C 181.422,189.258 183.255,187.591 185.5,186.5 Z"/></g>
<g><path style="opacity:1" fill="#a3a3ab" d="M 493.5,141.5 C 503.226,140.337 510.559,143.837 515.5,152C 525.176,151.108 532.676,154.608 538,162.5C 539.422,168.037 538.255,173.204 534.5,178C 543.121,181.234 545.954,187.401 543,196.5C 540.187,204.804 534.353,209.137 525.5,209.5C 525.679,224.482 518.346,230.649 503.5,228C 497.684,225.843 492.684,222.51 488.5,218C 480.416,214.913 472.416,211.58 464.5,208C 454.922,201.649 453.089,193.483 459,183.5C 461.25,182.292 463.417,180.959 465.5,179.5C 461.734,172.245 461.568,164.912 465,157.5C 470.831,150.26 477.998,148.593 486.5,152.5C 487.585,147.986 489.919,144.32 493.5,141.5 Z"/></g>
<g><path style="opacity:1" fill="#e8e9ec" d="M 493.5,144.5 C 498.742,144.023 503.742,144.856 508.5,147C 510.257,149.846 512.257,152.512 514.5,155C 522.084,154.101 528.584,156.268 534,161.5C 534.97,163.274 535.804,165.107 536.5,167C 535.302,170.56 533.969,174.06 532.5,177.5C 535.46,180.635 538.294,183.968 541,187.5C 541.483,199.526 535.649,206.193 523.5,207.5C 524.614,222.564 517.948,228.397 503.5,225C 497.892,221.724 492.558,218.057 487.5,214C 479.529,211.787 471.862,208.787 464.5,205C 458.044,199.484 456.878,192.984 461,185.5C 462.648,184.283 464.481,183.45 466.5,183C 467.574,182.261 468.241,181.261 468.5,180C 466.737,175.973 465.403,171.806 464.5,167.5C 467.326,154.42 474.993,150.254 487.5,155C 489.372,151.423 491.372,147.923 493.5,144.5 Z"/></g>
<g><path style="opacity:1" fill="#dedee4" d="M 523.5,186.5 C 530.689,184.817 533.522,187.483 532,194.5C 528.513,198.782 524.013,200.282 518.5,199C 517.207,193.739 518.874,189.572 523.5,186.5 Z"/></g>
<g><path style="opacity:1" fill="#dedfe4" d="M 481.5,183.5 C 494.19,181.929 503.69,186.596 510,197.5C 514.172,211.328 509.339,216.161 495.5,212C 487.062,209.282 479.729,204.782 473.5,198.5C 471.471,190.889 474.138,185.889 481.5,183.5 Z"/></g>
<g><path style="opacity:1" fill="#dedfe3" d="M 517.5,164.5 C 520.187,164.336 522.854,164.503 525.5,165C 526.794,173.069 523.294,177.903 515,179.5C 514.127,179.265 513.293,178.931 512.5,178.5C 511.353,176.235 511.186,173.902 512,171.5C 512.938,168.402 514.772,166.069 517.5,164.5 Z"/></g>
<g><path style="opacity:1" fill="#dedfe4" d="M 474.5,160.5 C 478.819,159.74 481.652,161.407 483,165.5C 484.352,170.95 482.852,175.283 478.5,178.5C 476.587,177.627 474.753,176.627 473,175.5C 472.755,171.844 472.589,168.344 472.5,165C 473.414,163.594 474.08,162.094 474.5,160.5 Z"/></g>
<g><path style="opacity:1" fill="#dedfe4" d="M 497.5,153.5 C 502.574,153.406 505.24,155.906 505.5,161C 505.012,165.983 502.512,169.483 498,171.5C 494.557,169.785 493.057,166.952 493.5,163C 493.375,159.098 494.708,155.931 497.5,153.5 Z"/></g>
<g><path style="opacity:1" fill="#dedfe4" d="M 563.5,309.5 C 563.5,314.833 563.5,320.167 563.5,325.5C 556.904,327.181 553.57,324.514 553.5,317.5C 553.697,310.619 557.03,307.952 563.5,309.5 Z"/></g>
<g><path style="opacity:1" fill="#a3a3ac" d="M 79.5,310.5 C 92.4049,309.087 98.7383,314.754 98.5,327.5C 111.886,327.393 117.72,334.06 116,347.5C 114.251,352.005 111.751,356.005 108.5,359.5C 115.115,367.605 114.782,375.439 107.5,383C 99.2636,387.28 90.5969,388.446 81.5,386.5C 75.9647,386.717 70.6314,387.884 65.5,390C 59.5,390.667 53.5,390.667 47.5,390C 38.6851,384.237 36.6851,376.737 41.5,367.5C 29.6492,360.101 26.8159,350.101 33,337.5C 36.0346,335.03 39.5346,333.696 43.5,333.5C 40.6817,321.465 45.515,314.798 58,313.5C 61.7709,314.09 65.4376,315.09 69,316.5C 72.4205,314.22 75.9205,312.22 79.5,310.5 Z"/></g>
<g><path style="opacity:1" fill="#e8e9ec" d="M 79.5,313.5 C 84.9513,312.779 89.7847,314.112 94,317.5C 94.8806,321.504 95.714,325.504 96.5,329.5C 109.166,328.998 114.666,334.998 113,347.5C 110.664,352.175 107.831,356.508 104.5,360.5C 106.432,362.389 108.265,364.389 110,366.5C 111.737,376.443 107.571,382.276 97.5,384C 91.1485,384.654 84.8151,384.488 78.5,383.5C 70.9741,385.786 63.3074,387.452 55.5,388.5C 47.019,388.354 42.3523,384.021 41.5,375.5C 42.0684,372.527 43.0684,369.693 44.5,367C 40.9677,363.468 37.4677,359.968 34,356.5C 29.5471,344.728 33.3805,337.728 45.5,335.5C 45.9198,331.219 46.0865,326.885 46,322.5C 52.8199,315.717 60.4866,314.717 69,319.5C 72.583,317.626 76.083,315.626 79.5,313.5 Z"/></g>
<g><path style="opacity:1" fill="#a3a3ab" d="M 237.5,289.5 C 247.164,288.662 254.164,292.495 258.5,301C 270.42,299.666 278.42,304.499 282.5,315.5C 281.723,319.054 280.39,322.387 278.5,325.5C 289.334,333.525 290.334,342.692 281.5,353C 277.879,355.644 273.879,357.477 269.5,358.5C 268.986,372.852 261.652,379.018 247.5,377C 241.295,374.121 235.628,370.454 230.5,366C 222.338,363.057 214.338,359.724 206.5,356C 195.479,345.639 196.146,336.139 208.5,327.5C 202.738,316.078 205.072,306.911 215.5,300C 220.258,299.788 224.925,299.622 229.5,299.5C 231.112,295.232 233.779,291.898 237.5,289.5 Z"/></g>
<g><path style="opacity:1" fill="#e8e9ec" d="M 238.5,292.5 C 242.702,292.384 246.702,293.217 250.5,295C 252.853,298.349 255.52,301.349 258.5,304C 268.708,302.323 275.708,306.156 279.5,315.5C 278.586,319.161 277.253,322.661 275.5,326C 278.412,329.053 281.245,332.219 284,335.5C 284.803,348.186 278.803,355.186 266,356.5C 266.482,373.001 258.982,378.167 243.5,372C 239.217,369.385 235.217,366.385 231.5,363C 223.687,360.395 216.02,357.395 208.5,354C 201.28,348.86 199.78,342.36 204,334.5C 205.925,332.787 208.092,331.453 210.5,330.5C 210.931,329.707 211.265,328.873 211.5,328C 205.782,317.323 207.782,308.656 217.5,302C 221.67,301.168 225.503,302.002 229,304.5C 231.948,300.241 235.114,296.241 238.5,292.5 Z"/></g>
<g><path style="opacity:1" fill="#dedfe3" d="M 261.5,312.5 C 263.5,312.5 265.5,312.5 267.5,312.5C 269.781,320.54 266.948,325.54 259,327.5C 257.564,327.441 256.231,327.108 255,326.5C 254.107,323.084 254.607,319.917 256.5,317C 256.167,316.667 255.833,316.333 255.5,316C 257.432,314.541 259.432,313.375 261.5,312.5 Z"/></g>
<g><path style="opacity:1" fill="#dedfe4" d="M 219.5,308.5 C 224.016,309.258 226.35,311.924 226.5,316.5C 226.705,319.795 225.872,322.795 224,325.5C 218.207,326.721 215.374,324.221 215.5,318C 215.339,314.16 216.672,310.994 219.5,308.5 Z"/></g>
<g><path style="opacity:1" fill="#dedfe4" d="M 239.5,302.5 C 245.338,301.248 248.338,303.581 248.5,309.5C 247.974,312.272 247.141,314.938 246,317.5C 243.688,319.464 241.188,319.797 238.5,318.5C 235.572,312.911 235.905,307.578 239.5,302.5 Z"/></g>
<g><path style="opacity:1" fill="#dedfe3" d="M 79.5,322.5 C 84.3407,322.572 87.0074,325.072 87.5,330C 87.5121,337.618 84.0121,340.452 77,338.5C 74.4143,332.486 75.2476,327.152 79.5,322.5 Z"/></g>
<g><path style="opacity:1" fill="#e8e9ec" d="M 563.5,302.5 C 563.5,304.833 563.5,307.167 563.5,309.5C 557.03,307.952 553.697,310.619 553.5,317.5C 553.57,324.514 556.904,327.181 563.5,325.5C 563.5,327.833 563.5,330.167 563.5,332.5C 560.758,334.255 557.924,335.922 555,337.5C 552.948,345.279 555.781,350.279 563.5,352.5C 563.5,355.167 563.5,357.833 563.5,360.5C 555.937,358.635 549.103,355.302 543,350.5C 539.256,344.211 539.756,338.378 544.5,333C 546.025,331.991 547.692,331.491 549.5,331.5C 547.7,324.963 546.867,318.297 547,311.5C 550.164,303.84 555.664,300.84 563.5,302.5 Z"/></g>
<g><path style="opacity:1" fill="#dedfe4" d="M 54.5,324.5 C 64.6046,326.258 67.9379,331.925 64.5,341.5C 62.9017,342.485 61.235,342.651 59.5,342C 53.6316,337.466 51.9649,331.632 54.5,324.5 Z"/></g>
<g><path style="opacity:1" fill="#dedfe4" d="M 563.5,332.5 C 563.5,339.167 563.5,345.833 563.5,352.5C 555.781,350.279 552.948,345.279 555,337.5C 557.924,335.922 560.758,334.255 563.5,332.5 Z"/></g>
<g><path style="opacity:1" fill="#dedfe3" d="M 265.5,335.5 C 277.493,334.351 279.493,338.184 271.5,347C 267.897,348.822 264.23,348.989 260.5,347.5C 259.999,342.513 261.665,338.513 265.5,335.5 Z"/></g>
<g><path style="opacity:1" fill="#dfdfe5" d="M 226.5,331.5 C 236.54,331.186 244.873,334.852 251.5,342.5C 255.778,349.061 255.445,355.228 250.5,361C 245.586,363.18 240.919,362.68 236.5,359.5C 228.788,357.191 221.954,352.857 216,346.5C 215.21,343.366 215.543,340.366 217,337.5C 220.051,335.276 223.217,333.276 226.5,331.5 Z"/></g>
<g><path style="opacity:1" fill="#dedfe4" d="M 98.5,337.5 C 100.467,337.261 102.301,337.594 104,338.5C 104.667,341.833 104.667,345.167 104,348.5C 102.434,351.813 99.7671,353.479 96,353.5C 94.6739,353.245 93.6739,352.578 93,351.5C 92.3333,348.833 92.3333,346.167 93,343.5C 94.2747,340.955 96.108,338.955 98.5,337.5 Z"/></g>
<g><path style="opacity:1" fill="#a4a4ac" d="M 563.5,299.5 C 563.5,300.5 563.5,301.5 563.5,302.5C 555.664,300.84 550.164,303.84 547,311.5C 546.867,318.297 547.7,324.963 549.5,331.5C 547.692,331.491 546.025,331.991 544.5,333C 539.756,338.378 539.256,344.211 543,350.5C 549.103,355.302 555.937,358.635 563.5,360.5C 563.5,361.167 563.5,361.833 563.5,362.5C 554.321,361.66 546.488,357.994 540,351.5C 537.626,347.106 536.959,342.44 538,337.5C 539.121,332.875 541.954,330.209 546.5,329.5C 545.298,325.223 544.298,320.89 543.5,316.5C 544.725,304.266 551.392,298.6 563.5,299.5 Z"/></g>
<g><path style="opacity:1" fill="#dddee4" d="M 40.5,343.5 C 43.1194,343.232 45.6194,343.565 48,344.5C 48.972,346.305 50.1387,347.972 51.5,349.5C 52.7485,352.506 52.7485,355.506 51.5,358.5C 47.6714,360.09 44.6714,359.09 42.5,355.5C 39.5066,351.878 38.8399,347.878 40.5,343.5 Z"/></g>
<g><path style="opacity:1" fill="#dfdfe5" d="M 67.5,354.5 C 74.7968,353.783 81.7968,354.783 88.5,357.5C 98.6417,366.008 97.6417,372.842 85.5,378C 76.8406,378.905 68.174,379.238 59.5,379C 51.9286,373.258 51.5953,366.924 58.5,360C 61.5144,358.066 64.5144,356.233 67.5,354.5 Z"/></g>
<g><path style="opacity:1" fill="#a4a4ad" d="M 418.5,310.5 C 430.781,309.028 436.948,314.361 437,326.5C 440.863,327.116 444.696,327.95 448.5,329C 456.938,339.866 456.271,350.199 446.5,360C 453.16,367.627 453.16,375.293 446.5,383C 442.685,384.909 438.685,386.242 434.5,387C 427.167,387 419.833,387 412.5,387C 402.601,391.161 392.601,391.494 382.5,388C 376.607,381.734 375.607,374.901 379.5,367.5C 376.542,365.044 373.709,362.378 371,359.5C 365.249,349.867 366.749,341.7 375.5,335C 377.436,334.187 379.436,333.687 381.5,333.5C 378.988,320.848 384.155,314.182 397,313.5C 400.426,313.809 403.592,314.809 406.5,316.5C 410.556,314.472 414.556,312.472 418.5,310.5 Z"/></g>
<g><path style="opacity:1" fill="#e8e9ec" d="M 417.5,313.5 C 422.046,313.268 426.379,314.101 430.5,316C 431.701,316.903 432.535,318.069 433,319.5C 433.452,322.877 434.118,326.211 435,329.5C 442.224,328.654 447.558,331.32 451,337.5C 451.667,341.167 451.667,344.833 451,348.5C 448.485,352.344 445.985,356.177 443.5,360C 448.653,365.325 449.819,371.492 447,378.5C 443.392,381.553 439.225,383.387 434.5,384C 428.646,384.665 422.813,384.499 417,383.5C 409.767,385.642 402.434,387.308 395,388.5C 381.877,387.883 377.543,381.55 382,369.5C 382.667,368.167 382.667,366.833 382,365.5C 376.863,362.367 373.196,358.034 371,352.5C 369.327,342.179 373.66,336.512 384,335.5C 381.258,324.267 385.424,317.934 396.5,316.5C 400.758,317.976 405.091,318.81 409.5,319C 412.407,317.391 415.073,315.558 417.5,313.5 Z"/></g>
<g><path style="opacity:1" fill="#dfdfe5" d="M 405.5,354.5 C 416.814,352.345 426.147,355.511 433.5,364C 434.925,368.116 433.925,371.616 430.5,374.5C 418.848,379.524 406.848,380.691 394.5,378C 392.014,373.304 391.848,368.47 394,363.5C 397.733,360.255 401.566,357.255 405.5,354.5 Z"/></g>
<g><path style="opacity:1" fill="#dedee4" d="M 379.5,343.5 C 386.672,343.671 390.672,347.338 391.5,354.5C 390.76,358.495 388.426,359.995 384.5,359C 378.994,355.062 377.327,349.895 379.5,343.5 Z"/></g>
<g><path style="opacity:1" fill="#dedfe3" d="M 435.5,337.5 C 441.256,336.254 443.923,338.588 443.5,344.5C 442.417,351.868 438.417,354.368 431.5,352C 430.303,346.535 431.637,341.702 435.5,337.5 Z"/></g>
<g><path style="opacity:1" fill="#dedee4" d="M 394.5,325.5 C 403.204,326.871 406.204,331.871 403.5,340.5C 399.839,343.124 396.673,342.457 394,338.5C 391.874,333.961 392.04,329.627 394.5,325.5 Z"/></g>
<g><path style="opacity:1" fill="#dedfe4" d="M 418.5,322.5 C 420.722,322.178 422.556,322.845 424,324.5C 426.283,329.362 425.95,334.029 423,338.5C 420.667,341.167 418.333,341.167 416,338.5C 412.334,332.49 413.167,327.156 418.5,322.5 Z"/></g>
<g><path style="opacity:1" fill="#a2a2aa" d="M -0.5,526.5 C -0.5,525.5 -0.5,524.5 -0.5,523.5C 7.66096,525.206 15.661,524.706 23.5,522C 30.0202,515.428 30.0202,508.928 23.5,502.5C 26.7646,499.279 29.9313,495.946 33,492.5C 37.4821,479.43 32.9821,472.43 19.5,471.5C 21.0426,456.57 14.376,450.903 -0.5,454.5C -0.5,453.5 -0.5,452.5 -0.5,451.5C 2.77859,450.508 6.11192,450.341 9.5,451C 20.3802,452.577 24.3802,458.744 21.5,469.5C 25.4629,469.089 29.1295,469.922 32.5,472C 40.3125,483.699 38.6458,493.866 27.5,502.5C 32.2188,510.759 31.2188,518.259 24.5,525C 16.3391,527.745 8.00581,528.245 -0.5,526.5 Z"/></g>
<g><path style="opacity:1" fill="#dedfe4" d="M -0.5,478.5 C -0.5,474.167 -0.5,469.833 -0.5,465.5C 0.922058,465.25 1.92206,464.417 2.5,463C 8.13939,461.763 10.8061,464.096 10.5,470C 9.56696,476.767 5.90029,479.601 -0.5,478.5 Z"/></g>
<g><path style="opacity:1" fill="#e8e9ec" d="M -0.5,523.5 C -0.5,521.5 -0.5,519.5 -0.5,517.5C 10.348,517.735 14.5147,512.735 12,502.5C 9.50879,497.169 5.34213,494.502 -0.5,494.5C -0.5,489.167 -0.5,483.833 -0.5,478.5C 5.90029,479.601 9.56696,476.767 10.5,470C 10.8061,464.096 8.13939,461.763 2.5,463C 1.92206,464.417 0.922058,465.25 -0.5,465.5C -0.5,461.833 -0.5,458.167 -0.5,454.5C 14.376,450.903 21.0426,456.57 19.5,471.5C 32.9821,472.43 37.4821,479.43 33,492.5C 29.9313,495.946 26.7646,499.279 23.5,502.5C 30.0202,508.928 30.0202,515.428 23.5,522C 15.661,524.706 7.66096,525.206 -0.5,523.5 Z"/></g>
<g><path style="opacity:1" fill="#a3a3ab" d="M 313.5,450.5 C 320.489,449.62 326.989,450.954 333,454.5C 339.863,449.886 347.03,449.386 354.5,453C 357,454.167 358.833,456 360,458.5C 360.499,462.152 360.665,465.818 360.5,469.5C 367.748,468.578 372.582,471.578 375,478.5C 377.186,488.676 374.02,496.843 365.5,503C 370.405,509.184 370.572,515.684 366,522.5C 361.236,526.476 355.736,528.143 349.5,527.5C 343.319,526.939 337.152,526.272 331,525.5C 322.842,526.372 314.675,526.539 306.5,526C 296.677,523.203 292.843,516.703 295,506.5C 295.972,504.695 297.139,503.028 298.5,501.5C 287.764,493.446 285.764,483.613 292.5,472C 295.95,469.051 299.95,467.884 304.5,468.5C 302.965,460.048 305.965,454.048 313.5,450.5 Z"/></g>
<g><path style="opacity:1" fill="#e8e9ec" d="M 319.5,452.5 C 324.102,453.223 328.269,454.889 332,457.5C 334.992,456.755 337.826,455.588 340.5,454C 354.422,451.756 360.088,457.589 357.5,471.5C 367.49,470.822 372.823,475.489 373.5,485.5C 372.468,492.233 368.968,497.233 363,500.5C 362.333,501.833 362.333,503.167 363,504.5C 367.281,509.164 367.615,514.164 364,519.5C 362.363,521.81 360.196,523.31 357.5,524C 348.74,524.808 340.073,524.308 331.5,522.5C 326.167,523.167 320.833,523.833 315.5,524.5C 302.259,525.428 296.425,519.428 298,506.5C 300.927,504.93 301.927,502.596 301,499.5C 290.907,492.585 288.907,483.919 295,473.5C 298.907,471.551 303.073,470.551 307.5,470.5C 305.12,459.869 309.12,453.869 319.5,452.5 Z"/></g>
<g><path style="opacity:1" fill="#dedfe4" d="M 340.5,462.5 C 346.275,461.275 348.941,463.608 348.5,469.5C 348.109,472.751 346.942,475.751 345,478.5C 338.817,480.998 335.983,478.832 336.5,472C 336.884,468.403 338.217,465.236 340.5,462.5 Z"/></g>
<g><path style="opacity:1" fill="#dedfe4" d="M 317.5,461.5 C 321.819,460.74 324.652,462.407 326,466.5C 328.39,471.11 327.89,475.277 324.5,479C 319.499,479.684 316.332,477.517 315,472.5C 313.949,468.313 314.782,464.646 317.5,461.5 Z"/></g>
<g><path style="opacity:1" fill="#dedfe3" d="M 299.5,478.5 C 307.111,477.018 311.111,480.351 311.5,488.5C 311.662,493.504 309.329,495.338 304.5,494C 298.987,489.649 297.32,484.482 299.5,478.5 Z"/></g>
<g><path style="opacity:1" fill="#dfe0e4" d="M 357.5,479.5 C 362.156,478.34 364.823,480.007 365.5,484.5C 364.699,487.814 363.199,490.814 361,493.5C 355.169,496.901 352.003,495.234 351.5,488.5C 351.59,486.772 351.923,485.106 352.5,483.5C 354.21,482.113 355.877,480.779 357.5,479.5 Z"/></g>
<g><path style="opacity:1" fill="#dedee4" d="M 18.5,479.5 C 25.6719,478.49 28.1719,481.49 26,488.5C 23.7849,493.523 19.9516,495.856 14.5,495.5C 12.7615,489.385 14.0948,484.052 18.5,479.5 Z"/></g>
<g><path style="opacity:1" fill="#dfe0e5" d="M 322.5,492.5 C 333.486,490.218 342.652,493.218 350,501.5C 352.927,507.501 351.76,512.334 346.5,516C 335.456,516.85 324.456,516.517 313.5,515C 308.931,507.902 309.931,501.569 316.5,496C 319.152,495.647 321.152,494.48 322.5,492.5 Z"/></g>
<g><path style="opacity:1" fill="#a3a3ac" d="M 495.5,479.5 C 504.82,479.159 511.82,482.992 516.5,491C 526.009,489.838 533.175,493.338 538,501.5C 539.089,506.561 538.256,511.228 535.5,515.5C 547.345,525.095 547.345,534.928 535.5,545C 532.539,546.265 529.539,547.431 526.5,548.5C 523.585,567.456 513.585,572.29 496.5,563C 490.389,556.11 482.722,552.11 473.5,551C 468.256,548.797 463.422,545.964 459,542.5C 452.931,531.893 455.097,523.559 465.5,517.5C 459.095,504.853 462.095,495.353 474.5,489C 477.944,488.531 481.278,489.031 484.5,490.5C 487.053,487.759 489.386,484.759 491.5,481.5C 492.949,480.828 494.282,480.161 495.5,479.5 Z"/></g>
<g><path style="opacity:1" fill="#e8e9ec" d="M 494.5,482.5 C 499.046,482.268 503.379,483.101 507.5,485C 510.176,488.041 512.843,491.041 515.5,494C 524.707,492.238 531.54,495.405 536,503.5C 536.667,504.833 536.667,506.167 536,507.5C 534.412,510.174 533.245,513.008 532.5,516C 543.381,523.322 544.381,531.989 535.5,542C 531.294,543.777 526.961,544.944 522.5,545.5C 524.971,559.195 519.304,565.362 505.5,564C 498.982,561.579 493.315,557.912 488.5,553C 482.217,550.513 475.884,548.18 469.5,546C 467.664,544.581 465.664,543.414 463.5,542.5C 458.283,538.151 457.116,532.817 460,526.5C 462.24,523.07 465.073,520.403 468.5,518.5C 461.788,507.575 463.788,498.742 474.5,492C 478.782,492.629 483.115,492.962 487.5,493C 488.848,488.823 491.182,485.323 494.5,482.5 Z"/></g>
<g><path style="opacity:1" fill="#dedfe4" d="M 497.5,491.5 C 502.854,490.991 505.187,493.491 504.5,499C 504.864,506.987 501.364,510.153 494,508.5C 493.333,503.833 493.333,499.167 494,494.5C 494.333,494.833 494.667,495.167 495,495.5C 495.48,493.867 496.313,492.534 497.5,491.5 Z"/></g>
<g><path style="opacity:1" fill="#dedfe4" d="M 476.5,498.5 C 481.38,499.392 483.713,502.392 483.5,507.5C 483.498,513.682 480.664,516.349 475,515.5C 472.626,511.106 471.959,506.44 473,501.5C 474.145,500.364 475.312,499.364 476.5,498.5 Z"/></g>
<g><path style="opacity:1" fill="#dedfe4" d="M -0.5,494.5 C 5.34213,494.502 9.50879,497.169 12,502.5C 14.5147,512.735 10.348,517.735 -0.5,517.5C -0.5,509.833 -0.5,502.167 -0.5,494.5 Z"/></g>
<g><path style="opacity:1" fill="#dedfe4" d="M 518.5,502.5 C 524.735,502.227 526.902,505.227 525,511.5C 522.338,515.83 518.505,517.663 513.5,517C 511.513,514.53 511.013,511.697 512,508.5C 513.737,505.926 515.904,503.926 518.5,502.5 Z"/></g>
<g><path style="opacity:1" fill="#a3a4ac" d="M 156.5,479.5 C 166.124,478.796 173.124,482.63 177.5,491C 187.149,490.077 194.649,493.577 200,501.5C 200.986,506.708 199.819,511.374 196.5,515.5C 205.161,520.177 207.661,527.177 204,536.5C 200.575,543.301 195.075,547.301 187.5,548.5C 187.614,564.198 179.947,570.031 164.5,566C 158.342,563.505 153.009,559.838 148.5,555C 142.587,552.75 136.587,550.75 130.5,549C 128.099,546.938 125.433,545.271 122.5,544C 116.896,537.803 116.063,530.969 120,523.5C 122.234,521.3 124.734,519.467 127.5,518C 120.608,505.678 123.275,496.011 135.5,489C 138.944,488.531 142.278,489.031 145.5,490.5C 148.224,488.934 150.058,486.601 151,483.5C 152.812,482.023 154.645,480.69 156.5,479.5 Z"/></g>
<g><path style="opacity:1" fill="#e8e9ec" d="M 156.5,482.5 C 165.683,481.95 172.349,485.784 176.5,494C 185.307,492.435 192.14,495.268 197,502.5C 197.58,507.595 196.413,512.262 193.5,516.5C 195.687,518.85 198.187,520.85 201,522.5C 203.905,530.031 202.405,536.531 196.5,542C 192.452,543.885 188.286,545.385 184,546.5C 186.353,559.813 180.853,565.646 167.5,564C 160.693,560.763 154.36,556.763 148.5,552C 141.208,550.094 134.208,547.427 127.5,544C 120.93,540.345 118.763,534.845 121,527.5C 123.56,523.948 126.393,520.781 129.5,518C 123.95,507.464 125.95,498.797 135.5,492C 139.309,491.412 142.976,491.912 146.5,493.5C 149.808,491.95 151.975,489.283 153,485.5C 154.518,484.837 155.685,483.837 156.5,482.5 Z"/></g>
<g><path style="opacity:1" fill="#dedfe3" d="M 179.5,502.5 C 181.792,502.244 183.959,502.577 186,503.5C 187.886,512.944 184.053,517.444 174.5,517C 172.556,514.847 172.056,512.347 173,509.5C 174.862,506.833 177.028,504.5 179.5,502.5 Z"/></g>
<g><path style="opacity:1" fill="#dedfe4" d="M 137.5,498.5 C 141.17,498.327 143.67,499.993 145,503.5C 146.076,508.072 145.243,512.239 142.5,516C 138.316,517.165 135.483,515.665 134,511.5C 132.668,506.372 133.835,502.039 137.5,498.5 Z"/></g>
<g><path style="opacity:1" fill="#dedfe4" d="M 159.5,491.5 C 164.399,491.567 166.732,494.067 166.5,499C 166.671,502.129 165.838,504.963 164,507.5C 158.652,511.012 155.485,509.512 154.5,503C 154.447,498.33 156.113,494.496 159.5,491.5 Z"/></g>
<g><path style="opacity:1" fill="#dfdfe4" d="M 481.5,521.5 C 492.087,520.268 500.92,523.601 508,531.5C 510.172,535.016 511.338,538.849 511.5,543C 510.484,550.672 506.151,553.672 498.5,552C 491.867,548.439 485.701,545.273 480,542.5C 473.096,538.951 471.096,533.617 474,526.5C 476.426,524.548 478.926,522.881 481.5,521.5 Z"/></g>
<g><path style="opacity:1" fill="#dedfe4" d="M 186.5,524.5 C 192.496,523.333 194.996,525.666 194,531.5C 192.956,532.623 192.29,533.956 192,535.5C 188.614,538.177 184.781,539.011 180.5,538C 178.813,536.087 178.313,533.92 179,531.5C 181.076,528.587 183.576,526.253 186.5,524.5 Z"/></g>
<g><path style="opacity:1" fill="#dfe0e5" d="M 142.5,521.5 C 151.326,520.721 159.326,522.888 166.5,528C 171.696,533.557 173.529,540.057 172,547.5C 168.692,551.327 164.526,552.494 159.5,551C 151.213,548.139 143.547,544.139 136.5,539C 134.417,535.499 134.084,531.832 135.5,528C 137.493,525.359 139.827,523.193 142.5,521.5 Z"/></g>
<g><path style="opacity:1" fill="#a3a3ac" d="M 563.5,637.5 C 563.5,638.5 563.5,639.5 563.5,640.5C 553.025,639.307 547.358,643.974 546.5,654.5C 547.993,659.448 548.826,664.448 549,669.5C 541.098,671.969 538.431,677.302 541,685.5C 546.637,692.952 554.137,697.286 563.5,698.5C 563.5,699.5 563.5,700.5 563.5,701.5C 554.019,699.676 545.852,695.342 539,688.5C 535.535,678.895 538.035,671.395 546.5,666C 545.09,662.438 544.09,658.771 543.5,655C 544.45,642.547 551.116,636.713 563.5,637.5 Z"/></g>
<g><path style="opacity:1" fill="#dedfe4" d="M 563.5,648.5 C 563.5,653.5 563.5,658.5 563.5,663.5C 556.938,665.447 553.604,662.947 553.5,656C 552.888,652.449 554.222,649.949 557.5,648.5C 559.516,647.306 561.516,647.306 563.5,648.5 Z"/></g>
<g><path style="opacity:1" fill="#a3a3ac" d="M 77.5,649.5 C 83.4018,648.962 89.0685,649.795 94.5,652C 97.4524,655.968 98.7857,660.468 98.5,665.5C 109.798,664.795 115.798,670.128 116.5,681.5C 115.717,688.065 113.051,693.732 108.5,698.5C 114.751,705.36 115.085,712.526 109.5,720C 100.509,725.376 90.8422,726.876 80.5,724.5C 72.0003,726.999 63.3337,728.666 54.5,729.5C 44.1192,728.91 38.7858,723.41 38.5,713C 38.5757,710.262 39.5757,707.928 41.5,706C 30.1036,699.249 26.937,689.749 32,677.5C 34.9375,673.781 38.7708,671.781 43.5,671.5C 40.7282,659.248 45.7282,652.581 58.5,651.5C 61.9731,652.602 65.4731,653.602 69,654.5C 72.2467,653.463 75.08,651.796 77.5,649.5 Z"/></g>
<g><path style="opacity:1" fill="#e8e9ec" d="M 36.5,697.5 C 37.4396,695.388 38.6063,693.388 40,691.5C 42.8554,697.359 47.0221,698.692 52.5,695.5C 54.1545,686.655 50.4878,682.155 41.5,682C 39.8446,683.444 39.178,685.278 39.5,687.5C 38.325,687.719 37.325,687.386 36.5,686.5C 36.7406,682.801 38.0739,679.635 40.5,677C 41.8989,676.405 43.2322,676.572 44.5,677.5C 45.4776,677.023 46.3109,676.357 47,675.5C 47.499,671.179 47.6657,666.846 47.5,662.5C 51.4234,661.91 53.7568,659.577 54.5,655.5C 55.7421,654.957 57.0755,654.623 58.5,654.5C 61.8333,655.5 65.1667,656.5 68.5,657.5C 72.1343,656.707 75.4676,655.207 78.5,653C 90.6531,650.327 96.6531,655.16 96.5,667.5C 109.157,666.989 114.657,672.989 113,685.5C 110.787,690.218 107.954,694.551 104.5,698.5C 112.145,705.062 112.478,711.895 105.5,719C 103.283,720.275 100.949,721.275 98.5,722C 90.1667,722.333 81.8333,722.667 73.5,723C 65.7762,726.171 57.7762,727.171 49.5,726C 45.2579,724.755 42.7579,721.922 42,717.5C 41.3333,714.833 41.3333,712.167 42,709.5C 43.4638,708.541 44.2972,707.208 44.5,705.5C 41.8429,702.835 39.1762,700.169 36.5,697.5 Z"/></g>
<g><path style="opacity:1" fill="#a4a4ac" d="M 416.5,649.5 C 422.072,648.99 427.405,649.823 432.5,652C 435.964,655.823 437.297,660.323 436.5,665.5C 450.89,665.743 456.723,673.077 454,687.5C 451.695,691.304 449.195,694.97 446.5,698.5C 452.672,704.96 453.172,711.96 448,719.5C 444.628,722.269 440.795,724.102 436.5,725C 429.98,725.686 423.48,725.52 417,724.5C 409.754,727.2 402.254,728.867 394.5,729.5C 384.63,729.791 378.797,725.124 377,715.5C 377.137,711.714 377.804,708.047 379,704.5C 368.859,698.967 365.526,690.634 369,679.5C 371.85,675.077 375.85,672.41 381,671.5C 381.333,667.833 381.667,664.167 382,660.5C 382.707,658.919 383.54,657.419 384.5,656C 388.471,653.899 392.637,652.399 397,651.5C 401.055,653.124 405.222,653.957 409.5,654C 411.76,652.212 414.093,650.712 416.5,649.5 Z"/></g>
<g><path style="opacity:1" fill="#e8e9ec" d="M 417.5,652.5 C 430.265,650.264 435.931,655.597 434.5,668.5C 448.284,667.457 453.784,673.791 451,687.5C 448.661,691.328 446.161,694.995 443.5,698.5C 448.687,703.631 449.854,709.631 447,716.5C 444.137,719.515 440.637,721.349 436.5,722C 428.167,722.333 419.833,722.667 411.5,723C 403.034,726.626 394.368,727.292 385.5,725C 379.697,720.305 378.53,714.805 382,708.5C 382.667,706.833 382.667,705.167 382,703.5C 376.577,701.079 372.911,697.079 371,691.5C 369.111,681.05 373.444,675.05 384,673.5C 380.886,661.79 385.22,655.456 397,654.5C 399.634,654.934 402.134,655.767 404.5,657C 406.5,657.667 408.5,657.667 410.5,657C 412.76,655.212 415.093,653.712 417.5,652.5 Z"/></g>
<g><path style="opacity:1" fill="#dedfe3" d="M 417.5,661.5 C 422.395,660.669 425.062,662.669 425.5,667.5C 425.378,670.698 424.545,673.698 423,676.5C 419.865,679.257 417.031,678.923 414.5,675.5C 412.828,670.189 413.828,665.523 417.5,661.5 Z"/></g>
<g><path style="opacity:1" fill="#a3a3ab" d="M 237.5,628.5 C 247.098,627.179 254.098,630.679 258.5,639C 269.178,638.086 277.012,642.253 282,651.5C 282.016,655.93 280.849,660.097 278.5,664C 290.077,673.044 290.41,682.711 279.5,693C 276.072,694.94 272.406,696.106 268.5,696.5C 269.745,707.705 264.911,714.372 254,716.5C 249.261,715.714 244.761,714.214 240.5,712C 235.833,708.667 231.167,705.333 226.5,702C 219.766,700.734 213.433,698.401 207.5,695C 197.912,688.308 196.246,679.975 202.5,670C 204.376,668.625 206.376,667.458 208.5,666.5C 203.435,656.621 204.768,647.788 212.5,640C 217.571,636.905 222.737,636.738 228,639.5C 230.156,637.199 231.822,634.533 233,631.5C 234.409,630.219 235.909,629.219 237.5,628.5 Z"/></g>
<g><path style="opacity:1" fill="#e8e9ec" d="M 237.5,631.5 C 246.89,630.026 253.556,633.526 257.5,642C 267.804,640.541 275.137,644.374 279.5,653.5C 278.448,657.27 277.115,660.937 275.5,664.5C 275.667,665.167 275.833,665.833 276,666.5C 286.465,673.069 287.299,680.902 278.5,690C 274.482,692.226 270.315,694.059 266,695.5C 267.931,704.14 264.764,709.973 256.5,713C 250.307,713.419 244.641,711.753 239.5,708C 231.509,700.671 222.176,696.005 211.5,694C 202.035,689.273 199.535,682.106 204,672.5C 206.052,671.277 208.219,670.277 210.5,669.5C 210.987,668.554 211.32,667.554 211.5,666.5C 208.108,659.936 207.775,653.269 210.5,646.5C 212.024,644.142 214.024,642.309 216.5,641C 221.259,640.698 225.926,641.031 230.5,642C 232.25,637.967 234.583,634.467 237.5,631.5 Z"/></g>
<g><path style="opacity:1" fill="#dedfe4" d="M 218.5,647.5 C 225.382,648.558 228.215,652.558 227,659.5C 224.119,665.211 220.452,665.878 216,661.5C 215.333,657.833 215.333,654.167 216,650.5C 216.698,649.309 217.531,648.309 218.5,647.5 Z"/></g>
<g><path style="opacity:1" fill="#dedfe4" d="M 240.5,640.5 C 245.665,639.608 248.332,641.775 248.5,647C 248.675,652.302 246.342,655.802 241.5,657.5C 239.956,657.21 238.623,656.544 237.5,655.5C 236.34,651.541 236.173,647.541 237,643.5C 238.518,642.837 239.685,641.837 240.5,640.5 Z"/></g>
<g><path style="opacity:1" fill="#dedfe4" d="M 79.5,660.5 C 85.3823,660.217 88.049,663.051 87.5,669C 86.8487,675.155 83.5153,678.321 77.5,678.5C 77.3219,675.678 76.6552,673.011 75.5,670.5C 75.7448,666.685 77.0782,663.351 79.5,660.5 Z"/></g>
<g><path style="opacity:1" fill="#dedfe4" d="M 394.5,663.5 C 398.025,663.346 400.859,664.679 403,667.5C 404.354,671.363 404.854,675.363 404.5,679.5C 398.942,681.804 395.108,680.138 393,674.5C 392.039,670.508 392.539,666.841 394.5,663.5 Z"/></g>
<g><path style="opacity:1" fill="#dedfe4" d="M 56.5,663.5 C 63.5741,664.427 66.9075,668.594 66.5,676C 65.5921,679.625 63.2588,680.959 59.5,680C 57.6667,678.5 55.8333,677 54,675.5C 53.8371,673.324 53.0037,671.491 51.5,670C 52.8937,667.571 54.5604,665.404 56.5,663.5 Z"/></g>
<g><path style="opacity:1" fill="#e8e9ec" d="M 563.5,640.5 C 563.5,643.167 563.5,645.833 563.5,648.5C 561.516,647.306 559.516,647.306 557.5,648.5C 554.222,649.949 552.888,652.449 553.5,656C 553.604,662.947 556.938,665.447 563.5,663.5C 563.5,666.167 563.5,668.833 563.5,671.5C 558.114,672.389 554.78,675.555 553.5,681C 554.109,684.445 555.775,687.278 558.5,689.5C 559.85,690.95 561.516,691.617 563.5,691.5C 563.5,693.833 563.5,696.167 563.5,698.5C 554.137,697.286 546.637,692.952 541,685.5C 538.431,677.302 541.098,671.969 549,669.5C 548.826,664.448 547.993,659.448 546.5,654.5C 547.358,643.974 553.025,639.307 563.5,640.5 Z"/></g>
<g><path style="opacity:1" fill="#dfe0e4" d="M 225.5,670.5 C 236.499,669.215 245.332,672.882 252,681.5C 254.37,686.327 254.87,691.327 253.5,696.5C 252.618,697.76 251.618,698.926 250.5,700C 246.112,700.577 241.779,700.244 237.5,699C 231.002,696.165 224.835,692.665 219,688.5C 212.99,679.523 215.157,673.523 225.5,670.5 Z"/></g>
<g><path style="opacity:1" fill="#dedfe3" d="M 266.5,673.5 C 277.582,673.617 279.248,677.784 271.5,686C 267.683,687.023 264.183,686.523 261,684.5C 260.333,682.833 260.333,681.167 261,679.5C 262.699,677.304 264.533,675.304 266.5,673.5 Z"/></g>
<g><path style="opacity:1" fill="#dedfe4" d="M 98.5,675.5 C 100.5,675.5 102.5,675.5 104.5,675.5C 104.511,677.547 104.844,679.547 105.5,681.5C 104.795,685.001 103.795,688.335 102.5,691.5C 94.9319,694.021 91.7652,691.354 93,683.5C 94.1171,680.241 95.9505,677.574 98.5,675.5 Z"/></g>
<g><path style="opacity:1" fill="#dedfe4" d="M 379.5,681.5 C 389.261,682.419 392.928,687.586 390.5,697C 382.639,698.237 378.306,694.904 377.5,687C 377.395,684.822 378.061,682.988 379.5,681.5 Z"/></g>
<g><path style="opacity:1" fill="#dfdfe4" d="M 563.5,671.5 C 563.5,678.167 563.5,684.833 563.5,691.5C 561.516,691.617 559.85,690.95 558.5,689.5C 555.775,687.278 554.109,684.445 553.5,681C 554.78,675.555 558.114,672.389 563.5,671.5 Z"/></g>
<g><path style="opacity:1" fill="#dedfe4" d="M 437.5,675.5 C 439.117,676.038 440.784,676.371 442.5,676.5C 444.859,684.305 442.359,689.638 435,692.5C 432.451,691.591 430.951,689.758 430.5,687C 430.942,681.939 433.275,678.105 437.5,675.5 Z"/></g>
<g><path style="opacity:1" fill="#e3e4e9" d="M 54.5,655.5 C 53.7568,659.577 51.4234,661.91 47.5,662.5C 47.6657,666.846 47.499,671.179 47,675.5C 46.3109,676.357 45.4776,677.023 44.5,677.5C 43.2322,676.572 41.8989,676.405 40.5,677C 38.0739,679.635 36.7406,682.801 36.5,686.5C 37.325,687.386 38.325,687.719 39.5,687.5C 39.178,685.278 39.8446,683.444 41.5,682C 50.4878,682.155 54.1545,686.655 52.5,695.5C 47.0221,698.692 42.8554,697.359 40,691.5C 38.6063,693.388 37.4396,695.388 36.5,697.5C 34.1725,696.264 33.0058,694.264 33,691.5C 30.7593,680.742 35.0926,674.742 46,673.5C 45.6743,669.53 45.6743,665.53 46,661.5C 47.8508,658.154 50.6841,656.154 54.5,655.5 Z"/></g>
<g><path style="opacity:1" fill="#dedfe4" d="M 407.5,692.5 C 415.05,691.543 422.05,693.043 428.5,697C 433.176,700.883 434.509,705.716 432.5,711.5C 430.96,713.437 428.96,714.604 426.5,715C 416.613,717.275 406.613,717.941 396.5,717C 392.574,713.217 391.574,708.717 393.5,703.5C 397.061,698.255 401.728,694.588 407.5,692.5 Z"/></g>
<g><path style="opacity:1" fill="#dedfe4" d="M 69.5,692.5 C 76.707,691.558 83.3736,692.891 89.5,696.5C 91.3333,698.833 93.1667,701.167 95,703.5C 95.4954,706.531 95.3287,709.531 94.5,712.5C 91.5299,713.549 88.5299,714.716 85.5,716C 79,716.5 72.5,717 66,717.5C 62.6298,717.667 59.4631,717.001 56.5,715.5C 52.8224,708.579 54.1557,702.413 60.5,697C 63.324,694.921 66.324,693.421 69.5,692.5 Z"/></g>
<g><path style="opacity:1" fill="#dedfe4" d="M -0.5,816.5 C -0.5,812.5 -0.5,808.5 -0.5,804.5C 4.46591,798.76 8.13257,799.427 10.5,806.5C 10.2739,810.284 8.94059,813.618 6.5,816.5C 4.14135,817.714 1.80801,817.714 -0.5,816.5 Z"/></g>
<g><path style="opacity:1" fill="#a3a3ab" d="M 316.5,788.5 C 319.187,788.336 321.854,788.503 324.5,789C 329.24,793.179 334.24,793.512 339.5,790C 347.181,787.999 353.681,789.833 359,795.5C 360.354,799.363 360.854,803.363 360.5,807.5C 366.657,806.815 371.157,809.148 374,814.5C 375.555,819.382 375.888,824.382 375,829.5C 372.404,833.931 369.238,837.931 365.5,841.5C 370.253,847.056 370.753,853.056 367,859.5C 361.998,864.708 355.831,867.041 348.5,866.5C 342.555,865.245 336.555,864.245 330.5,863.5C 323.221,864.992 315.888,865.492 308.5,865C 297.399,862.652 292.899,855.818 295,844.5C 295.785,842.714 296.951,841.214 298.5,840C 286.678,830.129 285.678,819.463 295.5,808C 298.351,806.711 301.351,806.211 304.5,806.5C 304.113,801.92 304.947,797.586 307,793.5C 309.995,791.347 313.162,789.681 316.5,788.5 Z"/></g>
<g><path style="opacity:1" fill="#e8e9ec" d="M 315.5,791.5 C 318.518,791.335 321.518,791.502 324.5,792C 326.806,793.986 329.472,795.153 332.5,795.5C 336.384,793.49 340.55,792.157 345,791.5C 355.843,792.689 360.176,798.689 358,809.5C 361.487,810.239 364.987,811.073 368.5,812C 373.23,817.09 374.396,822.923 372,829.5C 368.82,833.345 365.653,837.178 362.5,841C 370.283,855.574 365.783,863.074 349,863.5C 343.082,862.95 337.249,861.95 331.5,860.5C 322.185,862.743 312.852,862.91 303.5,861C 298.07,856.809 296.237,851.309 298,844.5C 300.927,842.93 301.927,840.596 301,837.5C 290.649,830.794 288.816,822.294 295.5,812C 299.172,809.882 303.172,808.716 307.5,808.5C 305.36,800.266 308.027,794.599 315.5,791.5 Z"/></g>
<g><path style="opacity:1" fill="#dedfe4" d="M 340.5,800.5 C 342.857,800.337 345.19,800.503 347.5,801C 348.9,805.58 348.567,810.08 346.5,814.5C 341.437,819.069 338.104,818.069 336.5,811.5C 337.434,807.7 338.767,804.033 340.5,800.5 Z"/></g>
<g><path style="opacity:1" fill="#dedfe4" d="M 316.5,800.5 C 321.582,799.581 324.915,801.581 326.5,806.5C 328.103,810.455 327.436,813.955 324.5,817C 321.073,817.728 318.406,816.561 316.5,813.5C 315.23,809.119 315.23,804.785 316.5,800.5 Z"/></g>
<g><path style="opacity:1" fill="#dedfe3" d="M 301.5,816.5 C 305.67,815.993 308.67,817.659 310.5,821.5C 311.757,824.823 311.757,828.156 310.5,831.5C 303.404,832.623 299.404,829.456 298.5,822C 298.613,819.601 299.613,817.768 301.5,816.5 Z"/></g>
<g><path style="opacity:1" fill="#a3a3ab" d="M -0.5,864.5 C -0.5,863.833 -0.5,863.167 -0.5,862.5C 5.47815,863.409 11.4781,863.575 17.5,863C 29.2722,858.161 31.2722,850.828 23.5,841C 26.9664,837.862 30.1331,834.362 33,830.5C 37.4989,817.809 33.1656,810.809 20,809.5C 20.9269,794.214 14.0935,788.881 -0.5,793.5C -0.5,792.5 -0.5,791.5 -0.5,790.5C 1.94942,789.958 4.44942,789.625 7,789.5C 18.9672,789.641 23.8006,795.641 21.5,807.5C 35.3541,809.173 40.1874,816.84 36,830.5C 33.7405,834.595 30.9072,838.262 27.5,841.5C 28.5312,842.7 29.3645,844.034 30,845.5C 31.3802,852.148 29.8802,857.981 25.5,863C 16.9897,866.932 8.32302,867.432 -0.5,864.5 Z"/></g>
<g><path style="opacity:1" fill="#a3a3ac" d="M 155.5,818.5 C 165.015,816.935 172.015,820.268 176.5,828.5C 186.258,828.244 194.091,831.91 200,839.5C 200.96,844.488 200.127,849.155 197.5,853.5C 198.832,855.663 200.666,857.33 203,858.5C 207.428,867.696 205.928,875.696 198.5,882.5C 194.798,884.758 190.798,886.091 186.5,886.5C 187.681,901.472 180.681,907.639 165.5,905C 158.956,901.784 152.956,897.784 147.5,893C 137.068,890.973 127.902,886.473 120,879.5C 115.061,869.562 117.227,861.729 126.5,856C 121.668,846.326 123.002,837.659 130.5,830C 135.706,826.905 141.039,826.738 146.5,829.5C 148.333,826.5 150.167,823.5 152,820.5C 153.302,819.915 154.469,819.249 155.5,818.5 Z"/></g>
<g><path style="opacity:1" fill="#e8e9ec" d="M 155.5,821.5 C 159.936,821.21 164.27,821.71 168.5,823C 171.157,825.959 173.824,828.959 176.5,832C 185.478,830.741 192.311,833.908 197,841.5C 197.633,846.258 196.466,850.591 193.5,854.5C 196.458,856.956 199.291,859.622 202,862.5C 203.347,868.561 202.18,874.061 198.5,879C 193.768,881.357 188.934,883.523 184,885.5C 184.976,900.849 178.143,906.016 163.5,901C 158.481,898.157 153.814,894.824 149.5,891C 142.277,888.926 135.277,886.259 128.5,883C 121.22,879.269 118.72,873.435 121,865.5C 122.751,862.08 125.418,859.746 129,858.5C 128.677,853.977 127.844,849.477 126.5,845C 126.861,838.938 129.527,834.271 134.5,831C 139.288,830.518 143.955,830.852 148.5,832C 150.733,828.349 153.066,824.849 155.5,821.5 Z"/></g>
<g><path style="opacity:1" fill="#dedfe5" d="M 327.5,830.5 C 335.177,830.458 342.011,832.792 348,837.5C 352.824,843.214 352.657,848.714 347.5,854C 339.564,855.53 331.564,855.863 323.5,855C 310.473,853.924 307.306,847.757 314,836.5C 318.057,833.215 322.557,831.215 327.5,830.5 Z"/></g>
<g><path style="opacity:1" fill="#e8e9ec" d="M -0.5,862.5 C -0.5,860.167 -0.5,857.833 -0.5,855.5C 12.2568,855.661 16.0901,850.327 11,839.5C 8.06044,835.588 4.22711,833.255 -0.5,832.5C -0.5,827.167 -0.5,821.833 -0.5,816.5C 1.80801,817.714 4.14135,817.714 6.5,816.5C 8.94059,813.618 10.2739,810.284 10.5,806.5C 8.13257,799.427 4.46591,798.76 -0.5,804.5C -0.5,800.833 -0.5,797.167 -0.5,793.5C 14.0935,788.881 20.9269,794.214 20,809.5C 33.1656,810.809 37.4989,817.809 33,830.5C 30.1331,834.362 26.9664,837.862 23.5,841C 31.2722,850.828 29.2722,858.161 17.5,863C 11.4781,863.575 5.47815,863.409 -0.5,862.5 Z"/></g>
<g><path style="opacity:1" fill="#dedfe4" d="M 19.5,817.5 C 23.1713,816.998 25.5046,818.498 26.5,822C 26.6614,828.218 23.8281,832.052 18,833.5C 14.204,833.024 12.704,830.858 13.5,827C 13.8333,825.5 14.1667,824 14.5,822.5C 16.0063,820.599 17.6729,818.932 19.5,817.5 Z"/></g>
<g><path style="opacity:1" fill="#dedfe4" d="M 159.5,830.5 C 164.158,830.491 166.491,832.825 166.5,837.5C 166.534,840.433 165.701,843.1 164,845.5C 157.885,849.295 154.719,847.628 154.5,840.5C 154.06,836.046 155.727,832.713 159.5,830.5 Z"/></g>
<g><path style="opacity:1" fill="#dedfe4" d="M -0.5,832.5 C 4.22711,833.255 8.06044,835.588 11,839.5C 16.0901,850.327 12.2568,855.661 -0.5,855.5C -0.5,847.833 -0.5,840.167 -0.5,832.5 Z"/></g>
<g><path style="opacity:1" fill="#dedfe4" d="M 136.5,837.5 C 142.359,836.523 145.359,839.023 145.5,845C 145.111,848.231 144.111,851.231 142.5,854C 139.166,855.212 136.666,854.379 135,851.5C 132.711,846.469 133.211,841.803 136.5,837.5 Z"/></g>
<g><path style="opacity:1" fill="#dedfe4" d="M 179.5,840.5 C 186.503,839.673 189.003,842.673 187,849.5C 184.09,854.863 179.59,856.863 173.5,855.5C 172.491,849.199 174.491,844.199 179.5,840.5 Z"/></g>
<g><path style="opacity:1" fill="#dedfe4" d="M 141.5,860.5 C 153.239,858.8 162.739,862.467 170,871.5C 172.884,876.813 173.051,882.146 170.5,887.5C 166.314,891.439 162.148,891.439 158,887.5C 157.439,888.022 156.772,888.355 156,888.5C 147.92,885.304 140.92,880.638 135,874.5C 134.299,871.072 134.632,867.738 136,864.5C 138.167,863.512 140,862.179 141.5,860.5 Z"/></g>
<g><path style="opacity:1" fill="#dedfe4" d="M 185.5,863.5 C 194.683,863.524 196.683,867.358 191.5,875C 188.232,876.213 184.899,876.546 181.5,876C 178.278,874.01 177.778,871.51 180,868.5C 181.422,866.258 183.255,864.591 185.5,863.5 Z"/></g>
<g><path style="opacity:1" fill="#a3a3ab" d="M 493.5,818.5 C 503.417,816.961 510.75,820.461 515.5,829C 525.176,828.108 532.676,831.608 538,839.5C 538.921,844.626 538.088,849.459 535.5,854C 546.345,861.767 547.345,870.767 538.5,881C 534.73,884.092 530.396,885.926 525.5,886.5C 525.999,901.771 518.665,907.937 503.5,905C 497.471,902.321 492.138,898.654 487.5,894C 479.687,891.395 472.02,888.395 464.5,885C 454.792,878.671 452.958,870.505 459,860.5C 460.925,858.787 463.092,857.453 465.5,856.5C 461.78,849.218 461.614,841.885 465,834.5C 470.359,827.418 477.025,825.751 485,829.5C 486.898,825.002 489.731,821.336 493.5,818.5 Z"/></g>
<g><path style="opacity:1" fill="#e8e9ec" d="M 495.5,820.5 C 500.182,820.338 504.515,821.505 508.5,824C 510.146,827.31 512.48,829.977 515.5,832C 524.381,831.073 531.214,834.239 536,841.5C 535.579,845.945 534.413,850.278 532.5,854.5C 532.667,855.167 532.833,855.833 533,856.5C 543.393,862.971 544.226,870.804 535.5,880C 531.525,882.576 527.192,884.076 522.5,884.5C 524.69,894.475 521.024,900.808 511.5,903.5C 501.778,901.638 493.445,897.138 486.5,890C 477.054,888.192 468.554,884.359 461,878.5C 456.503,870.17 458.336,863.837 466.5,859.5C 467.415,858.672 468.081,857.672 468.5,856.5C 461.949,846.292 463.616,837.792 473.5,831C 478.3,830.521 482.966,830.854 487.5,832C 489.254,827.432 491.921,823.599 495.5,820.5 Z"/></g>
<g><path style="opacity:1" fill="#dfdfe5" d="M 482.5,860.5 C 498.802,858.474 508.469,865.474 511.5,881.5C 510.114,889.118 505.614,891.784 498,889.5C 490.285,886.125 482.785,882.292 475.5,878C 472.421,874.455 471.754,870.455 473.5,866C 476.234,863.637 479.234,861.804 482.5,860.5 Z"/></g>
<g><path style="opacity:1" fill="#dedfe4" d="M 523.5,863.5 C 526.187,863.336 528.854,863.503 531.5,864C 533.787,866.243 533.953,868.743 532,871.5C 528.434,875.695 523.934,877.195 518.5,876C 516.213,873.757 516.047,871.257 518,868.5C 519.406,866.256 521.239,864.59 523.5,863.5 Z"/></g>
<g><path style="opacity:1" fill="#dedfe3" d="M 518.5,840.5 C 524.996,840.12 527.162,843.12 525,849.5C 522.02,854.17 517.853,856.004 512.5,855C 511.39,852.263 511.223,849.429 512,846.5C 514.037,844.294 516.203,842.294 518.5,840.5 Z"/></g>
<g><path style="opacity:1" fill="#dedfe4" d="M 497.5,830.5 C 500.044,830.104 502.211,830.771 504,832.5C 505.358,838.031 504.191,842.865 500.5,847C 498.527,847.495 496.527,847.662 494.5,847.5C 492.334,841.094 493.334,835.427 497.5,830.5 Z"/></g>
<g><path style="opacity:1" fill="#a3a3ab" d="M 563.5,976.5 C 563.5,977.5 563.5,978.5 563.5,979.5C 553.183,978.127 547.516,982.794 546.5,993.5C 546.439,996.481 547.272,999.148 549,1001.5C 549.667,1003.5 549.667,1005.5 549,1007.5C 541.303,1010.57 538.637,1016.23 541,1024.5C 546.829,1031.5 554.329,1035.5 563.5,1036.5C 563.5,1037.5 563.5,1038.5 563.5,1039.5C 558.963,1039.12 554.629,1037.95 550.5,1036C 537.237,1030.31 534.07,1021.14 541,1008.5C 543.391,1007.57 545.225,1006.07 546.5,1004C 543.068,997.794 542.734,991.461 545.5,985C 549.432,977.532 555.432,974.698 563.5,976.5 Z"/></g>
<g><path style="opacity:1" fill="#dedfe4" d="M 563.5,986.5 C 563.5,991.833 563.5,997.167 563.5,1002.5C 561.83,1002.75 560.33,1003.42 559,1004.5C 553.267,999.609 552.101,993.775 555.5,987C 558.078,985.187 560.745,985.02 563.5,986.5 Z"/></g>
<g><path style="opacity:1" fill="#a3a3ac" d="M 79.5,987.5 C 92.0259,985.703 98.3592,991.036 98.5,1003.5C 112.23,1003.78 118.063,1010.78 116,1024.5C 114.094,1028.9 111.594,1032.9 108.5,1036.5C 114.318,1042.4 115.151,1049.07 111,1056.5C 106.838,1061 101.672,1063.5 95.5,1064C 88.1806,1063.72 80.8473,1063.72 73.5,1064C 64.7107,1067.65 55.7107,1068.32 46.5,1066C 40.1039,1061.49 37.6039,1055.32 39,1047.5C 40.0217,1046.65 40.8551,1045.65 41.5,1044.5C 38.1558,1041.65 34.9891,1038.65 32,1035.5C 28.6667,1028.83 28.6667,1022.17 32,1015.5C 35.0646,1012.05 38.8979,1010.38 43.5,1010.5C 40.4583,997.869 45.4583,991.202 58.5,990.5C 62.286,990.475 65.786,991.475 69,993.5C 72.3346,991.086 75.8346,989.086 79.5,987.5 Z"/></g>
<g><path style="opacity:1" fill="#a3a4ac" d="M 237.5,966.5 C 242.333,966.375 247,967.208 251.5,969C 254.509,971.677 257.176,974.677 259.5,978C 271.187,976.826 278.854,981.66 282.5,992.5C 281.723,996.054 280.39,999.387 278.5,1002.5C 289.503,1010.29 290.503,1019.46 281.5,1030C 277.56,1032.59 273.227,1034.09 268.5,1034.5C 270.005,1043.66 266.672,1050.16 258.5,1054C 251.676,1055.04 245.343,1053.71 239.5,1050C 235.783,1046.62 231.783,1043.62 227.5,1041C 220.879,1039.43 214.546,1037.1 208.5,1034C 198.593,1027.87 196.427,1019.71 202,1009.5C 204.037,1007.56 206.203,1005.9 208.5,1004.5C 203.435,994.621 204.768,985.788 212.5,978C 217.425,974.955 222.425,974.788 227.5,977.5C 229.705,976.115 231.205,974.115 232,971.5C 233.812,969.7 235.645,968.033 237.5,966.5 Z"/></g>
<g><path style="opacity:1" fill="#e8e9ed" d="M 237.5,969.5 C 241.56,969.485 245.56,969.985 249.5,971C 252.693,973.917 255.526,977.084 258,980.5C 267.262,979.459 274.262,982.792 279,990.5C 278.579,994.945 277.413,999.278 275.5,1003.5C 286.383,1010.49 287.383,1018.82 278.5,1028.5C 274.465,1030.55 270.298,1032.21 266,1033.5C 267.148,1048.02 260.648,1053.52 246.5,1050C 241.228,1047.06 236.228,1043.73 231.5,1040C 224.449,1037.49 217.449,1034.82 210.5,1032C 201.319,1027.3 199.152,1020.46 204,1011.5C 205.916,1009.79 208.082,1008.46 210.5,1007.5C 210.833,1006.67 211.167,1005.83 211.5,1005C 207.263,997.057 207.596,989.39 212.5,982C 214.167,981 215.833,980 217.5,979C 221.885,979.038 226.218,979.371 230.5,980C 232.224,976.041 234.557,972.541 237.5,969.5 Z"/></g>
<g><path style="opacity:1" fill="#dedfe4" d="M 259.5,989.5 C 268.408,987.903 270.908,991.236 267,999.5C 264.139,1003.86 260.306,1005.19 255.5,1003.5C 254.053,997.941 255.387,993.274 259.5,989.5 Z"/></g>
<g><path style="opacity:1" fill="#dedfe4" d="M 219.5,985.5 C 222.808,984.974 224.974,986.307 226,989.5C 226.667,992.833 226.667,996.167 226,999.5C 223.814,1003.52 220.981,1004.19 217.5,1001.5C 214.362,995.477 215.029,990.144 219.5,985.5 Z"/></g>
<g><path style="opacity:1" fill="#dedfe3" d="M 240.5,978.5 C 248.817,980.767 250.65,985.767 246,993.5C 243.633,996.932 240.966,997.265 238,994.5C 235.41,988.527 236.244,983.194 240.5,978.5 Z"/></g>
<g><path style="opacity:1" fill="#e8e9ec" d="M 37.5,1036.5 C 37.9256,1034.72 39.0922,1033.72 41,1033.5C 51.3716,1038.42 54.8716,1035.59 51.5,1025C 49.1533,1021.95 46.82,1018.95 44.5,1016C 46.7432,1013.7 48.0765,1010.87 48.5,1007.5C 49.7202,1008.71 50.8869,1008.71 52,1007.5C 53.0991,1011.4 54.9325,1014.9 57.5,1018C 65.5235,1018.8 68.1902,1015.3 65.5,1007.5C 61.4001,1001.71 56.5668,1001.05 51,1005.5C 49.3542,1003.86 48.3542,1004.19 48,1006.5C 47.5026,1003.85 47.3359,1001.19 47.5,998.5C 48.4567,995.832 50.4567,994.332 53.5,994C 59.1499,992.931 64.4832,993.764 69.5,996.5C 72.3444,994.505 75.3444,992.672 78.5,991C 90.7098,988.213 96.5431,993.046 96,1005.5C 110.083,1005.91 115.416,1012.91 112,1026.5C 110.077,1030.26 107.577,1033.59 104.5,1036.5C 111.693,1042.69 112.36,1049.52 106.5,1057C 97.9654,1061.49 88.9654,1062.66 79.5,1060.5C 74.3925,1061.19 69.3925,1062.36 64.5,1064C 59.1667,1064.67 53.8333,1064.67 48.5,1064C 41.304,1059.54 39.804,1053.7 44,1046.5C 44.6667,1045.17 44.6667,1043.83 44,1042.5C 41.6647,1040.6 39.498,1038.6 37.5,1036.5 Z"/></g>
<g><path style="opacity:1" fill="#dedfe4" d="M 79.5,999.5 C 84.8505,999.015 87.5172,1001.51 87.5,1007C 87.3885,1011.76 85.2218,1014.93 81,1016.5C 79.8926,1016.41 78.8926,1016.08 78,1015.5C 74.3924,1009.71 74.8924,1004.37 79.5,999.5 Z"/></g>
<g><path style="opacity:1" fill="#dedfe4" d="M 227.5,1008.5 C 245.159,1008.33 253.992,1016.99 254,1034.5C 250.257,1039.55 245.423,1040.72 239.5,1038C 231.287,1034.65 223.787,1030.15 217,1024.5C 214.715,1015.41 218.215,1010.08 227.5,1008.5 Z"/></g>
<g><path style="opacity:1" fill="#dedfe5" d="M 563.5,1009.5 C 563.5,1016.17 563.5,1022.83 563.5,1029.5C 560.486,1027.88 557.652,1025.88 555,1023.5C 554.333,1020.83 554.333,1018.17 555,1015.5C 557.629,1013.11 560.462,1011.11 563.5,1009.5 Z"/></g>
<g><path style="opacity:1" fill="#e8e9ec" d="M 563.5,979.5 C 563.5,981.833 563.5,984.167 563.5,986.5C 560.745,985.02 558.078,985.187 555.5,987C 552.101,993.775 553.267,999.609 559,1004.5C 560.33,1003.42 561.83,1002.75 563.5,1002.5C 563.5,1004.83 563.5,1007.17 563.5,1009.5C 560.462,1011.11 557.629,1013.11 555,1015.5C 554.333,1018.17 554.333,1020.83 555,1023.5C 557.652,1025.88 560.486,1027.88 563.5,1029.5C 563.5,1031.83 563.5,1034.17 563.5,1036.5C 554.329,1035.5 546.829,1031.5 541,1024.5C 538.637,1016.23 541.303,1010.57 549,1007.5C 549.667,1005.5 549.667,1003.5 549,1001.5C 547.272,999.148 546.439,996.481 546.5,993.5C 547.516,982.794 553.183,978.127 563.5,979.5 Z"/></g>
<g><path style="opacity:1" fill="#e3e4e9" d="M 47.5,998.5 C 47.3359,1001.19 47.5026,1003.85 48,1006.5C 48.3542,1004.19 49.3542,1003.86 51,1005.5C 56.5668,1001.05 61.4001,1001.71 65.5,1007.5C 68.1902,1015.3 65.5235,1018.8 57.5,1018C 54.9325,1014.9 53.0991,1011.4 52,1007.5C 50.8869,1008.71 49.7202,1008.71 48.5,1007.5C 48.0765,1010.87 46.7432,1013.7 44.5,1016C 46.82,1018.95 49.1533,1021.95 51.5,1025C 54.8716,1035.59 51.3716,1038.42 41,1033.5C 39.0922,1033.72 37.9256,1034.72 37.5,1036.5C 35.4959,1035.33 33.9959,1033.66 33,1031.5C 30.203,1019.72 34.703,1013.38 46.5,1012.5C 45.7512,1008.18 45.5845,1003.85 46,999.5C 46.3826,998.944 46.8826,998.611 47.5,998.5 Z"/></g>
<g><path style="opacity:1" fill="#dedfe3" d="M 266.5,1012.5 C 276.288,1010.93 278.622,1014.26 273.5,1022.5C 269.805,1025.09 265.805,1025.76 261.5,1024.5C 259.67,1018.98 261.337,1014.98 266.5,1012.5 Z"/></g>
<g><path style="opacity:1" fill="#dedfe4" d="M 97.5,1014.5 C 102.482,1013.32 105.482,1015.15 106.5,1020C 105.388,1023.72 103.388,1026.89 100.5,1029.5C 97.8742,1030.45 95.2075,1030.45 92.5,1029.5C 91.3721,1023.42 93.0388,1018.42 97.5,1014.5 Z"/></g>
<g><path style="opacity:1" fill="#dfe0e5" d="M 71.5,1030.5 C 79.1066,1029.9 85.7733,1032.07 91.5,1037C 97.6626,1044.34 96.3292,1050.01 87.5,1054C 77.8185,1056.34 68.1519,1056.5 58.5,1054.5C 57.5,1053.83 56.5,1053.17 55.5,1052.5C 53.54,1039.8 58.8733,1032.47 71.5,1030.5 Z"/></g>
<g><path style="opacity:1" fill="#a3a4ac" d="M 417.5,987.5 C 423.348,986.962 428.681,988.295 433.5,991.5C 435.969,995.09 436.969,999.09 436.5,1003.5C 448.421,1003.29 454.421,1009.12 454.5,1021C 453.881,1027.15 451.214,1032.31 446.5,1036.5C 451.651,1042 452.818,1048.33 450,1055.5C 445.866,1060.96 440.366,1063.8 433.5,1064C 426.513,1063.75 419.513,1063.75 412.5,1064C 404.086,1067.16 395.419,1068.16 386.5,1067C 376.996,1061.66 374.662,1054.16 379.5,1044.5C 375.508,1041.34 372.008,1037.67 369,1033.5C 364.891,1021.04 369.057,1013.37 381.5,1010.5C 379.062,997.606 384.395,990.939 397.5,990.5C 400.884,990.773 404.05,991.773 407,993.5C 410.421,991.22 413.921,989.22 417.5,987.5 Z"/></g>
<g><path style="opacity:1" fill="#e4e5ea" d="M 425.5,991.5 C 428.923,991.128 431.423,992.461 433,995.5C 433.246,998.89 433.746,1002.22 434.5,1005.5C 448.195,1005.36 453.695,1012.03 451,1025.5C 448.695,1029.3 446.195,1032.97 443.5,1036.5C 444.767,1038.94 446.267,1041.28 448,1043.5C 449.007,1048.11 448.34,1052.44 446,1056.5C 437.372,1061.28 428.205,1062.61 418.5,1060.5C 410.667,1061.95 402.834,1063.28 395,1064.5C 392.31,1064.5 389.81,1064.16 387.5,1063.5C 396.074,1062.68 404.24,1060.35 412,1056.5C 412.5,1057 413,1057.5 413.5,1058C 419.785,1058.33 425.952,1058.49 432,1058.5C 435.961,1056.72 440.128,1055.72 444.5,1055.5C 444.5,1051.17 444.5,1046.83 444.5,1042.5C 443.5,1042.5 442.5,1042.5 441.5,1042.5C 441.38,1040.8 441.046,1039.13 440.5,1037.5C 441.287,1034.65 442.12,1031.98 443,1029.5C 442.439,1028.98 441.772,1028.64 441,1028.5C 438.67,1030.04 436.17,1030.54 433.5,1030C 429.021,1019.97 432.354,1014.31 443.5,1013C 442.594,1011.3 442.261,1009.47 442.5,1007.5C 437.831,1007.68 433.331,1007.68 429,1007.5C 425.698,1009.22 423.532,1011.88 422.5,1015.5C 416.531,1017.34 413.531,1015.01 413.5,1008.5C 413.701,1005.01 414.368,1001.68 415.5,998.5C 419.22,998.436 422.886,997.936 426.5,997C 423.759,995.104 423.426,993.27 425.5,991.5 Z"/></g>
<g><path style="opacity:1" fill="#e8eaec" d="M 425.5,991.5 C 423.426,993.27 423.759,995.104 426.5,997C 422.886,997.936 419.22,998.436 415.5,998.5C 414.368,1001.68 413.701,1005.01 413.5,1008.5C 413.531,1015.01 416.531,1017.34 422.5,1015.5C 423.532,1011.88 425.698,1009.22 429,1007.5C 433.331,1007.68 437.831,1007.68 442.5,1007.5C 442.261,1009.47 442.594,1011.3 443.5,1013C 432.354,1014.31 429.021,1019.97 433.5,1030C 436.17,1030.54 438.67,1030.04 441,1028.5C 441.772,1028.64 442.439,1028.98 443,1029.5C 442.12,1031.98 441.287,1034.65 440.5,1037.5C 441.046,1039.13 441.38,1040.8 441.5,1042.5C 442.5,1042.5 443.5,1042.5 444.5,1042.5C 444.5,1046.83 444.5,1051.17 444.5,1055.5C 440.128,1055.72 435.961,1056.72 432,1058.5C 425.952,1058.49 419.785,1058.33 413.5,1058C 413,1057.5 412.5,1057 412,1056.5C 404.24,1060.35 396.074,1062.68 387.5,1063.5C 382.161,1061.46 379.495,1057.46 379.5,1051.5C 380.267,1048.9 381.267,1046.4 382.5,1044C 382.167,1043.17 381.833,1042.33 381.5,1041.5C 371.788,1036.53 368.621,1028.86 372,1018.5C 375.189,1014.49 379.355,1012.49 384.5,1012.5C 381.006,1001 385.006,994.666 396.5,993.5C 400.301,993.486 403.801,994.486 407,996.5C 410.705,995.064 414.205,993.231 417.5,991C 420.367,990.199 423.034,990.366 425.5,991.5 Z"/></g>
<g><path style="opacity:1" fill="#dedfe4" d="M 405.5,1031.5 C 411.909,1031.18 418.243,1031.68 424.5,1033C 428,1035.17 430.833,1038 433,1041.5C 434.228,1047.38 432.062,1051.38 426.5,1053.5C 415.82,1055.82 405.154,1055.99 394.5,1054C 391.889,1048.06 392.556,1042.39 396.5,1037C 399.432,1034.87 402.432,1033.04 405.5,1031.5 Z"/></g>
<g><path style="opacity:1" fill="#dedfe4" d="M 380.5,1020.5 C 387.309,1020.57 390.976,1024.07 391.5,1031C 390.815,1035.02 388.481,1036.69 384.5,1036C 382.833,1035 381.167,1034 379.5,1033C 379.833,1032.67 380.167,1032.33 380.5,1032C 377.97,1028.07 377.97,1024.23 380.5,1020.5 Z"/></g>
<g><path style="opacity:1" fill="#dedfe4" d="M 393.5,1002.5 C 400.967,1001.63 404.634,1004.97 404.5,1012.5C 404.824,1017.67 402.49,1019.51 397.5,1018C 392.492,1013.9 391.159,1008.74 393.5,1002.5 Z"/></g>
</svg>
