<?xml version="1.0" encoding="UTF-8"?>
<!DOCTYPE svg PUBLIC "-//W3C//DTD SVG 1.1//EN" "http://www.w3.org/Graphics/SVG/1.1/DTD/svg11.dtd">
<svg xmlns="http://www.w3.org/2000/svg" version="1.1" width="564px" height="1002px" style="shape-rendering:geometricPrecision; text-rendering:geometricPrecision; image-rendering:optimizeQuality; fill-rule:evenodd; clip-rule:evenodd" xmlns:xlink="http://www.w3.org/1999/xlink">
<g><path style="opacity:1" fill="#e4e5e9" d="M -0.5,-0.5 C 5.5,-0.5 11.5,-0.5 17.5,-0.5C 16.3199,1.0145 15.3199,2.68116 14.5,4.5C 2.65572,2.76597 -1.17761,7.76597 3,19.5C 4.88297,22.0244 7.38297,23.3577 10.5,23.5C 6.78192,35.2856 11.1153,40.7856 23.5,40C 31.1097,44.7182 36.4431,42.8848 39.5,34.5C 51.2284,34.6113 56.3951,28.9447 55,17.5C 53.117,14.9756 50.617,13.6423 47.5,13.5C 48.3741,2.61423 43.7074,-1.05244 33.5,2.5C 32.5748,1.64314 31.9081,0.643141 31.5,-0.5C 208.833,-0.5 386.167,-0.5 563.5,-0.5C 563.5,15.1667 563.5,30.8333 563.5,46.5C 556.419,45.7453 552.419,48.912 551.5,56C 552.455,63.3437 556.455,65.5103 563.5,62.5C 563.5,375.5 563.5,688.5 563.5,1001.5C 375.5,1001.5 187.5,1001.5 -0.5,1001.5C -0.5,933.833 -0.5,866.167 -0.5,798.5C 0.74213,799.043 2.07546,799.377 3.5,799.5C 9.63647,797.348 15.9698,795.848 22.5,795C 25.2292,790.985 26.2292,786.485 25.5,781.5C 29.5616,781.276 32.395,779.276 34,775.5C 36.7309,767.456 34.0642,762.456 26,760.5C 24.8926,760.585 23.8926,760.919 23,761.5C 20.7338,754.951 16.2338,752.451 9.5,754C 7.35616,755.146 5.52283,756.646 4,758.5C 2.415,757.956 0.915003,757.289 -0.5,756.5C -0.5,504.167 -0.5,251.833 -0.5,-0.5 Z"/></g>
<g><path style="opacity:1" fill="#141416" d="M 17.5,-0.5 C 19.1667,-0.5 20.8333,-0.5 22.5,-0.5C 21.3117,0.363622 20.1451,1.36362 19,2.5C 18.3333,5.5 18.3333,8.5 19,11.5C 24.8575,16.2407 28.6908,14.9073 30.5,7.5C 30.1078,4.29922 28.7744,1.63255 26.5,-0.5C 28.1667,-0.5 29.8333,-0.5 31.5,-0.5C 31.9081,0.643141 32.5748,1.64314 33.5,2.5C 43.7074,-1.05244 48.3741,2.61423 47.5,13.5C 50.617,13.6423 53.117,14.9756 55,17.5C 56.3951,28.9447 51.2284,34.6113 39.5,34.5C 36.4431,42.8848 31.1097,44.7182 23.5,40C 11.1153,40.7856 6.78192,35.2856 10.5,23.5C 7.38297,23.3577 4.88297,22.0244 3,19.5C -1.17761,7.76597 2.65572,2.76597 14.5,4.5C 15.3199,2.68116 16.3199,1.0145 17.5,-0.5 Z"/></g>
<g><path style="opacity:1" fill="#e0dfe3" d="M 6.5,6.5 C 12.8646,5.51166 16.5312,8.17833 17.5,14.5C 16.6545,19.8439 13.6545,21.6773 8.5,20C 4.08998,16.041 3.42332,11.541 6.5,6.5 Z"/></g>
<g><path style="opacity:1" fill="#e1e0e5" d="M 22.5,-0.5 C 23.8333,-0.5 25.1667,-0.5 26.5,-0.5C 28.7744,1.63255 30.1078,4.29922 30.5,7.5C 28.6908,14.9073 24.8575,16.2407 19,11.5C 18.3333,8.5 18.3333,5.5 19,2.5C 20.1451,1.36362 21.3117,0.363622 22.5,-0.5 Z"/></g>
<g><path style="opacity:1" fill="#e0dfe4" d="M 35.5,4.5 C 42.4933,2.99587 45.3267,5.66253 44,12.5C 41.0775,17.8221 37.0775,18.8221 32,15.5C 30.6624,10.9597 31.8291,7.29302 35.5,4.5 Z"/></g>
<g><path style="opacity:1" fill="#e2e1e6" d="M 19.5,18.5 C 31.3471,16.8548 36.8471,21.8548 36,33.5C 33.1794,40.4644 29.0127,41.2977 23.5,36C 13.6245,37.4685 10.4578,33.6352 14,24.5C 15.3597,21.9774 17.193,19.9774 19.5,18.5 Z"/></g>
<g><path style="opacity:1" fill="#e2e2e6" d="M 43.5,16.5 C 53.3668,17.312 55.0335,21.4787 48.5,29C 40.5117,31.3409 37.3451,28.5075 39,20.5C 40.3968,18.9297 41.8968,17.5964 43.5,16.5 Z"/></g>
<g><path style="opacity:1" fill="#727176" d="M 435.5,22.5 C 435.5,23.8333 435.5,25.1667 435.5,26.5C 433.5,26.5 431.5,26.5 429.5,26.5C 430.919,25.5489 432.585,25.2155 434.5,25.5C 434.263,24.209 434.596,23.209 435.5,22.5 Z"/></g>
<g><path style="opacity:1" fill="#0e0e0f" d="M 288.5,30.5 C 293.133,29.4582 296.299,31.1249 298,35.5C 299.494,40.5256 298.327,44.6923 294.5,48C 290.507,48.753 287.674,47.253 286,43.5C 283.415,38.318 284.248,33.9846 288.5,30.5 Z"/></g>
<g><path style="opacity:1" fill="#111112" d="M 306.5,30.5 C 316.349,31.5284 318.849,36.5284 314,45.5C 307.144,50.5619 302.977,48.8953 301.5,40.5C 301.615,36.2702 303.281,32.9368 306.5,30.5 Z"/></g>
<g><path style="opacity:1" fill="#0c0c0e" d="M 539.5,40.5 C 547.955,40.696 551.122,45.0293 549,53.5C 544.667,60.1667 540.333,60.1667 536,53.5C 534.539,48.3265 535.706,43.9932 539.5,40.5 Z"/></g>
<g><path style="opacity:1" fill="#0e0e0f" d="M 273.5,42.5 C 284.368,42.177 288.034,47.0103 284.5,57C 274.55,59.7224 270.05,55.8891 271,45.5C 272.045,44.6266 272.878,43.6266 273.5,42.5 Z"/></g>
<g><path style="opacity:1" fill="#0b0b0d" d="M 319.5,42.5 C 329.309,42.1547 332.143,46.4881 328,55.5C 320.956,61.6991 316.123,60.3658 313.5,51.5C 314.284,47.5732 316.284,44.5732 319.5,42.5 Z"/></g>
<g><path style="opacity:1" fill="#080809" d="M 563.5,46.5 C 563.5,51.8333 563.5,57.1667 563.5,62.5C 556.455,65.5103 552.455,63.3437 551.5,56C 552.419,48.912 556.419,45.7453 563.5,46.5 Z"/></g>
<g><path style="opacity:1" fill="#0d0d0e" d="M 522.5,47.5 C 529.772,46.7641 533.772,50.0974 534.5,57.5C 533.422,63.0945 530.088,64.9278 524.5,63C 517.815,58.2189 517.149,53.0522 522.5,47.5 Z"/></g>
<g><path style="opacity:1" fill="#060607" d="M 294.5,51.5 C 300.646,50.5465 306.146,51.8799 311,55.5C 315.33,61.4379 315.496,67.4379 311.5,73.5C 303.636,72.2454 295.803,72.2454 288,73.5C 284.296,64.2031 286.463,56.8698 294.5,51.5 Z"/></g>
<g><path style="opacity:1" fill="#0f0f10" d="M 67.5,52.5 C 75.1491,54.9118 77.3158,59.9118 74,67.5C 66.5834,72.7929 62.0834,70.9596 60.5,62C 61.0363,57.3977 63.3696,54.231 67.5,52.5 Z"/></g>
<g><path style="opacity:1" fill="#0b0b0d" d="M 47.5,56.5 C 56.1605,56.4378 59.6605,60.7711 58,69.5C 56.3088,73.2127 53.4755,74.3794 49.5,73C 45.8905,70.705 43.8905,67.3716 43.5,63C 44.2259,60.3661 45.5593,58.1995 47.5,56.5 Z"/></g>
<g><path style="opacity:1" fill="#131315" d="M 429.5,26.5 C 431.5,26.5 433.5,26.5 435.5,26.5C 435.5,25.1667 435.5,23.8333 435.5,22.5C 439.485,14.5699 444.818,13.5699 451.5,19.5C 457.859,13.6842 463.359,14.3509 468,21.5C 468.494,23.1341 468.66,24.8008 468.5,26.5C 474.925,25.5342 478.592,28.2009 479.5,34.5C 478.951,42.7192 474.617,46.7192 466.5,46.5C 467.621,53.9196 464.621,58.2529 457.5,59.5C 451.844,58.6668 446.177,58.5001 440.5,59C 437.096,55.5716 435.429,51.405 435.5,46.5C 425.686,45.5138 421.853,40.1804 424,30.5C 425.451,28.5359 427.284,27.2026 429.5,26.5 Z"/></g>
<g><path style="opacity:1" fill="#e3e2e7" d="M 447.5,36.5 C 459.306,36.1432 464.14,41.8099 462,53.5C 458.774,56.9822 455.107,57.3156 451,54.5C 441.094,57.8423 437.428,54.1756 440,43.5C 441.742,40.2543 444.242,37.921 447.5,36.5 Z"/></g>
<g><path style="opacity:1" fill="#e3e2e7" d="M 429.5,29.5 C 438.671,29.8011 441.338,33.9678 437.5,42C 431.243,43.7431 427.576,41.4098 426.5,35C 426.613,32.6013 427.613,30.7679 429.5,29.5 Z"/></g>
<g><path style="opacity:1" fill="#e3e2e6" d="M 466.5,29.5 C 473.99,28.3019 476.823,31.3019 475,38.5C 471.673,44.1019 467.673,44.7686 463,40.5C 461.662,35.9597 462.829,32.293 466.5,29.5 Z"/></g>
<g><path style="opacity:1" fill="#e3e3e7" d="M 441.5,19.5 C 448.632,19.8021 451.465,23.4688 450,30.5C 445.837,34.7475 442.171,34.4141 439,29.5C 437.861,25.5789 438.695,22.2456 441.5,19.5 Z"/></g>
<g><path style="opacity:1" fill="#dfdfe3" d="M 456.5,19.5 C 463.276,18.7764 466.11,21.7764 465,28.5C 461.721,34.0912 457.721,34.7579 453,30.5C 451.882,26.0767 453.049,22.41 456.5,19.5 Z"/></g>
<g><path style="opacity:1" fill="#09090a" d="M 80.5,62.5 C 90.2191,61.8936 93.0524,66.2269 89,75.5C 82.0274,81.8028 77.5274,80.4694 75.5,71.5C 75.8819,67.7318 77.5486,64.7318 80.5,62.5 Z"/></g>
<g><path style="opacity:1" fill="#111114" d="M 164.5,28.5 C 169.914,28.192 174.247,30.192 177.5,34.5C 187.299,31.4558 192.133,35.1225 192,45.5C 200.056,49.0888 201.556,54.5888 196.5,62C 192.369,65.0772 187.702,66.2438 182.5,65.5C 180.464,75.6834 175.13,77.8501 166.5,72C 163.5,71.6667 160.5,71.3333 157.5,71C 155.667,70.5 154.5,69.3333 154,67.5C 153.501,63.5138 153.334,59.5138 153.5,55.5C 146.411,53.5509 143.577,48.8842 145,41.5C 147.507,35.7341 151.674,34.0674 157.5,36.5C 159.856,33.8136 162.189,31.147 164.5,28.5 Z"/></g>
<g><path style="opacity:1" fill="#e1e0e5" d="M 164.5,50.5 C 175.18,50.0151 180.347,55.0151 180,65.5C 179.117,68.1024 177.617,70.2691 175.5,72C 170.075,69.4167 164.241,67.9167 158,67.5C 155.159,59.8579 157.325,54.1913 164.5,50.5 Z"/></g>
<g><path style="opacity:1" fill="#e1e0e5" d="M 185.5,49.5 C 195.855,48.5987 198.189,52.432 192.5,61C 184.791,64.2852 181.291,61.7852 182,53.5C 183.376,52.2949 184.542,50.9616 185.5,49.5 Z"/></g>
<g><path style="opacity:1" fill="#e1e0e5" d="M 151.5,38.5 C 160.524,39.5558 162.857,44.0558 158.5,52C 150.212,53.2913 147.045,49.7913 149,41.5C 150.045,40.6266 150.878,39.6266 151.5,38.5 Z"/></g>
<g><path style="opacity:1" fill="#dedde2" d="M 164.5,32.5 C 172.322,32.1659 175.156,35.8325 173,43.5C 170.833,46.2868 167.999,47.1201 164.5,46C 160.555,41.5026 160.555,37.0026 164.5,32.5 Z"/></g>
<g><path style="opacity:1" fill="#dddce1" d="M 179.5,36.5 C 189.97,37.8493 191.304,42.3493 183.5,50C 176.676,50.4942 174.176,47.3276 176,40.5C 177.376,39.2949 178.542,37.9616 179.5,36.5 Z"/></g>
<g><path style="opacity:1" fill="#0e0e0f" d="M 513.5,63.5 C 524.554,62.3666 528.22,66.8666 524.5,77C 516.819,79.8261 511.819,77.3261 509.5,69.5C 510.347,67.1291 511.68,65.1291 513.5,63.5 Z"/></g>
<g><path style="opacity:1" fill="#09090a" d="M 539.5,62.5 C 550.163,61.0055 556.496,65.5055 558.5,76C 558.561,78.2605 557.894,80.2605 556.5,82C 553.289,83.1532 549.956,83.8198 546.5,84C 536.645,91.2293 530.978,88.5626 529.5,76C 530.38,69.6281 533.713,65.1281 539.5,62.5 Z"/></g>
<g><path style="opacity:1" fill="#0d0d0f" d="M 36.5,70.5 C 45.0873,70.2487 48.9206,74.2487 48,82.5C 43.4927,87.619 38.826,87.619 34,82.5C 31.3833,77.5777 32.2166,73.5777 36.5,70.5 Z"/></g>
<g><path style="opacity:1" fill="#080809" d="M 61.5,74.5 C 74.0274,74.8547 79.5274,81.1881 78,93.5C 77.5,95.3333 76.3333,96.5 74.5,97C 70.8606,96.7221 67.1939,96.7221 63.5,97C 59.2829,101.665 55.4495,101.498 52,96.5C 47.8413,85.8299 51.0079,78.4966 61.5,74.5 Z"/></g>
<g><path style="opacity:1" fill="#080809" d="M 441.5,105.5 C 450.328,104.839 453.495,108.839 451,117.5C 447.468,123.29 443.135,123.957 438,119.5C 436.744,114.142 437.911,109.476 441.5,105.5 Z"/></g>
<g><path style="opacity:1" fill="#0a090c" d="M 423.5,105.5 C 432.152,104.986 435.652,108.986 434,117.5C 432.058,122.705 428.558,123.871 423.5,121C 419.594,115.696 419.594,110.53 423.5,105.5 Z"/></g>
<g><path style="opacity:1" fill="#0a0a0c" d="M 409.5,117.5 C 416.547,116.349 420.88,119.182 422.5,126C 419.58,134.438 414.746,135.605 408,129.5C 405.667,125.01 406.167,121.01 409.5,117.5 Z"/></g>
<g><path style="opacity:1" fill="#0b0b0d" d="M 455.5,117.5 C 464.507,116.011 467.674,119.677 465,128.5C 461.901,132.966 457.735,134.466 452.5,133C 447.956,126.767 448.956,121.6 455.5,117.5 Z"/></g>
<g><path style="opacity:1" fill="#0b0b0b" d="M 432.5,125.5 C 445.522,125.352 451.356,131.685 450,144.5C 449.215,146.286 448.049,147.786 446.5,149C 442.691,149.588 439.024,149.088 435.5,147.5C 432.643,148.063 429.81,148.73 427,149.5C 425.893,149.415 424.893,149.081 424,148.5C 419.024,137.806 421.857,130.139 432.5,125.5 Z"/></g>
<g><path style="opacity:1" fill="#0f0f10" d="M 199.5,128.5 C 205.331,128.834 208.331,132 208.5,138C 206.568,146.726 202.068,148.559 195,143.5C 192.067,137.012 193.567,132.012 199.5,128.5 Z"/></g>
<g><path style="opacity:1" fill="#131316" d="M 314.5,127.5 C 320.105,126.414 324.605,128.081 328,132.5C 338.733,129.401 343.566,133.401 342.5,144.5C 348.928,145.331 351.428,148.998 350,155.5C 347.144,162.348 341.978,165.181 334.5,164C 332.798,171.063 328.465,174.063 321.5,173C 316.578,171.25 311.578,169.584 306.5,168C 304.315,163.813 303.981,159.48 305.5,155C 295.012,150.724 293.012,144.057 299.5,135C 302.423,133.29 305.423,133.123 308.5,134.5C 310.523,132.147 312.523,129.814 314.5,127.5 Z"/></g>
<g><path style="opacity:1" fill="#0c0c0d" d="M 180.5,132.5 C 186.834,132.162 190.5,135.162 191.5,141.5C 191.315,147.526 188.315,150.026 182.5,149C 176.818,145.469 175.318,140.635 178,134.5C 178.995,133.934 179.828,133.267 180.5,132.5 Z"/></g>
<g><path style="opacity:1" fill="#0b0b0c" d="M 213.5,138.5 C 223.001,138.119 225.835,142.452 222,151.5C 218.686,155.732 214.853,156.398 210.5,153.5C 207.197,147.547 208.197,142.547 213.5,138.5 Z"/></g>
<g><path style="opacity:1" fill="#dcdce0" d="M 316.5,130.5 C 324.301,131.094 326.801,135.094 324,142.5C 317.53,146.852 313.696,145.019 312.5,137C 313.205,134.458 314.539,132.292 316.5,130.5 Z"/></g>
<g><path style="opacity:1" fill="#e2e1e6" d="M 301.5,137.5 C 309.775,136.706 312.942,140.373 311,148.5C 307.751,152.367 304.418,152.367 301,148.5C 298.866,144.647 299.033,140.98 301.5,137.5 Z"/></g>
<g><path style="opacity:1" fill="#dcdcdf" d="M 336.5,147.5 C 330.884,149.856 327.217,148.189 325.5,142.5C 328.013,134.64 332.513,132.973 339,137.5C 339.657,141.192 338.824,144.525 336.5,147.5 Z"/></g>
<g><path style="opacity:1" fill="#0f0f10" d="M 168.5,146.5 C 173.126,145.7 176.96,147.034 180,150.5C 182.875,158.588 180.042,162.421 171.5,162C 164.037,157.705 163.037,152.539 168.5,146.5 Z"/></g>
<g><path style="opacity:1" fill="#e0dfe4" d="M 336.5,147.5 C 346.855,146.599 349.189,150.432 343.5,159C 336.271,162.406 332.771,160.239 333,152.5C 333.997,150.677 335.164,149.01 336.5,147.5 Z"/></g>
<g><path style="opacity:1" fill="#e0dfe4" d="M 314.5,148.5 C 326.229,147.731 331.729,153.065 331,164.5C 328.567,170.003 325.067,171.17 320.5,168C 316.658,167.044 312.825,166.21 309,165.5C 307.543,162.634 307.21,159.634 308,156.5C 310.001,153.669 312.167,151.003 314.5,148.5 Z"/></g>
<g><path style="opacity:1" fill="#080808" d="M 194.5,150.5 C 208.786,151.276 213.786,158.443 209.5,172C 205.167,172.333 200.833,172.667 196.5,173C 193.284,175.555 189.784,176.055 186,174.5C 180.383,163.169 183.217,155.169 194.5,150.5 Z"/></g>
<g><path style="opacity:1" fill="#111114" d="M 60.5,161.5 C 64.9597,160.885 68.9597,161.885 72.5,164.5C 78.1009,160.185 83.2675,160.518 88,165.5C 89.128,167.345 89.628,169.345 89.5,171.5C 98.6299,171.83 101.797,176.496 99,185.5C 96.309,189.762 92.4757,191.762 87.5,191.5C 87.6895,196.436 86.0228,200.602 82.5,204C 81.1667,204.167 79.8333,204.333 78.5,204.5C 72.856,203.86 67.1894,203.693 61.5,204C 57.7518,200.67 56.0851,196.503 56.5,191.5C 46.7398,190.558 42.9065,185.225 45,175.5C 47.5907,171.952 51.0907,170.618 55.5,171.5C 55.574,167.352 57.2406,164.019 60.5,161.5 Z"/></g>
<g><path style="opacity:1" fill="#e2e1e6" d="M 77.5,164.5 C 84.5088,164.129 87.0088,167.462 85,174.5C 83.1792,177.991 80.3458,179.157 76.5,178C 75.3333,177.5 74.5,176.667 74,175.5C 72.6624,170.96 73.8291,167.293 77.5,164.5 Z"/></g>
<g><path style="opacity:1" fill="#e1e0e4" d="M 61.5,164.5 C 69.1474,164.313 72.3141,167.98 71,175.5C 64.6546,180.459 60.4879,178.959 58.5,171C 59.3773,168.747 60.3773,166.581 61.5,164.5 Z"/></g>
<g><path style="opacity:1" fill="#dedde2" d="M 88.5,174.5 C 96.2584,174.671 98.4251,178.337 95,185.5C 92.3466,188.194 89.1799,189.027 85.5,188C 81.1877,182.425 82.1877,177.925 88.5,174.5 Z"/></g>
<g><path style="opacity:1" fill="#e1e0e4" d="M 50.5,174.5 C 59.6709,174.801 62.3376,178.968 58.5,187C 50,188.5 46.5,185 48,176.5C 48.9947,175.934 49.828,175.267 50.5,174.5 Z"/></g>
<g><path style="opacity:1" fill="#e2e1e6" d="M 68.5,181.5 C 80.361,181.193 85.1944,186.86 83,198.5C 79.5758,202.076 75.7424,202.409 71.5,199.5C 68.4161,201.357 65.2494,201.69 62,200.5C 58.3547,191.98 60.5214,185.647 68.5,181.5 Z"/></g>
<g><path style="opacity:1" fill="#6b6a6f" d="M 544.5,191.5 C 543.791,192.404 542.791,192.737 541.5,192.5C 541.768,194.099 541.434,195.432 540.5,196.5C 540.5,194.833 540.5,193.167 540.5,191.5C 541.833,191.5 543.167,191.5 544.5,191.5 Z"/></g>
<g><path style="opacity:1" fill="#0f0f12" d="M 544.5,191.5 C 543.167,191.5 541.833,191.5 540.5,191.5C 540.5,193.167 540.5,194.833 540.5,196.5C 540.358,199.617 539.024,202.117 536.5,204C 529.482,203.593 522.482,203.593 515.5,204C 511.601,200.815 509.934,196.649 510.5,191.5C 499.993,190.138 496.326,184.472 499.5,174.5C 502.266,171.857 505.599,170.857 509.5,171.5C 511.623,161.004 517.29,158.671 526.5,164.5C 531.983,160.24 537.15,160.573 542,165.5C 543.128,167.345 543.628,169.345 543.5,171.5C 553.421,172.237 556.254,177.237 552,186.5C 550.143,189.2 547.643,190.866 544.5,191.5 Z"/></g>
<g><path style="opacity:1" fill="#e0dfe4" d="M 542.5,174.5 C 550.458,174.807 552.458,178.474 548.5,185.5C 540.73,190.906 536.896,188.906 537,179.5C 538.73,177.598 540.563,175.931 542.5,174.5 Z"/></g>
<g><path style="opacity:1" fill="#e2e1e6" d="M 521.5,181.5 C 533.32,180.486 538.487,185.819 537,197.5C 536.535,198.931 535.701,200.097 534.5,201C 531.338,201.602 528.338,201.102 525.5,199.5C 522.416,201.357 519.249,201.69 516,200.5C 512.645,192.509 514.478,186.175 521.5,181.5 Z"/></g>
<g><path style="opacity:1" fill="#e0dfe3" d="M 503.5,174.5 C 513.172,174.3 516.172,178.466 512.5,187C 502.265,188.029 499.265,183.862 503.5,174.5 Z"/></g>
<g><path style="opacity:1" fill="#dfdee3" d="M 515.5,164.5 C 521.251,163.748 524.584,166.248 525.5,172C 524.893,177.608 521.893,179.608 516.5,178C 511.801,173.744 511.468,169.244 515.5,164.5 Z"/></g>
<g><path style="opacity:1" fill="#dfdee3" d="M 531.5,164.5 C 538.509,164.129 541.009,167.462 539,174.5C 536.839,178.124 533.672,179.291 529.5,178C 526.443,172.958 527.11,168.458 531.5,164.5 Z"/></g>
<g><path style="opacity:1" fill="#656469" d="M 436.5,208.5 C 437.255,211.053 437.922,213.72 438.5,216.5C 436.631,214.365 435.964,211.698 436.5,208.5 Z"/></g>
<g><path style="opacity:1" fill="#121215" d="M 436.5,208.5 C 435.964,211.698 436.631,214.365 438.5,216.5C 445.717,219.692 447.217,224.692 443,231.5C 438.834,235.027 434.001,236.36 428.5,235.5C 426.918,244.958 421.918,247.458 413.5,243C 402.11,243.95 397.443,238.95 399.5,228C 396.022,225.855 393.189,223.022 391,219.5C 389.319,209.521 393.319,205.187 403,206.5C 405.054,204.228 407.221,202.061 409.5,200C 411.833,199.333 414.167,199.333 416.5,200C 418.723,201.733 421.056,203.233 423.5,204.5C 429.001,202.352 433.334,203.685 436.5,208.5 Z"/></g>
<g><path style="opacity:1" fill="#e1e0e5" d="M 426.5,206.5 C 433.154,206.634 435.321,209.967 433,216.5C 430.749,220.126 427.582,221.293 423.5,220C 420.71,217.79 419.877,214.956 421,211.5C 422.73,209.598 424.563,207.931 426.5,206.5 Z"/></g>
<g><path style="opacity:1" fill="#e0dfe4" d="M 395.5,209.5 C 405.052,209.197 408.052,213.364 404.5,222C 402.635,223.301 400.635,223.635 398.5,223C 393.153,219.403 392.153,214.903 395.5,209.5 Z"/></g>
<g><path style="opacity:1" fill="#e0e0e4" d="M 411.5,202.5 C 418.409,202.953 420.909,206.62 419,213.5C 413.108,219.4 409.274,218.234 407.5,210C 407.43,206.634 408.763,204.134 411.5,202.5 Z"/></g>
<g><path style="opacity:1" fill="#e2e1e6" d="M 432.5,219.5 C 439.35,218.297 442.183,220.963 441,227.5C 438.774,231.861 435.274,233.361 430.5,232C 426.125,227.08 426.792,222.913 432.5,219.5 Z"/></g>
<g><path style="opacity:1" fill="#e1e0e5" d="M 410.5,220.5 C 422.359,220.231 427.192,225.898 425,237.5C 424.215,239.286 423.049,240.786 421.5,242C 415.694,239.544 409.528,238.044 403,237.5C 400.785,229.6 403.285,223.934 410.5,220.5 Z"/></g>
<g><path style="opacity:1" fill="#0f0f10" d="M 306.5,223.5 C 315.223,225.615 317.39,230.615 313,238.5C 305.624,243.664 301.457,241.664 300.5,232.5C 300.944,228.402 302.944,225.402 306.5,223.5 Z"/></g>
<g><path style="opacity:1" fill="#0c0c0e" d="M 288.5,229.5 C 299.377,231.731 301.711,237.231 295.5,246C 287.582,247.085 283.749,243.585 284,235.5C 284.804,232.854 286.304,230.854 288.5,229.5 Z"/></g>
<g><path style="opacity:1" fill="#0d0d0e" d="M 321.5,230.5 C 330.97,229.771 333.804,233.771 330,242.5C 323.876,249.584 319.042,248.917 315.5,240.5C 315.577,238.701 316.077,237.034 317,235.5C 318.707,233.963 320.207,232.296 321.5,230.5 Z"/></g>
<g><path style="opacity:1" fill="#070708" d="M 302.5,245.5 C 315.543,245.371 321.376,251.704 320,264.5C 316.229,274.068 311.062,274.902 304.5,267C 292.348,267.544 289.182,262.377 295,251.5C 297.114,248.879 299.614,246.879 302.5,245.5 Z"/></g>
<g><path style="opacity:1" fill="#09090b" d="M 328.5,246.5 C 332.839,245.846 336.673,246.846 340,249.5C 340.756,259.231 336.256,263.064 326.5,261C 323.71,258.79 322.877,255.956 324,252.5C 325.332,250.34 326.832,248.34 328.5,246.5 Z"/></g>
<g><path style="opacity:1" fill="#0a0a0c" d="M 515.5,250.5 C 523.963,251.752 526.463,256.418 523,264.5C 515.909,270.832 511.742,269.166 510.5,259.5C 510.377,255.405 512.044,252.405 515.5,250.5 Z"/></g>
<g><path style="opacity:1" fill="#0b0b0c" d="M 497.5,256.5 C 507.628,257.593 510.628,262.76 506.5,272C 498.889,275.194 494.556,272.694 493.5,264.5C 493.8,261.234 495.133,258.567 497.5,256.5 Z"/></g>
<g><path style="opacity:1" fill="#0d0d0e" d="M 532.5,256.5 C 542.273,258.361 544.106,263.361 538,271.5C 533.659,274.448 529.659,274.115 526,270.5C 524.669,264.163 526.836,259.497 532.5,256.5 Z"/></g>
<g><path style="opacity:1" fill="#09090b" d="M 74.5,264.5 C 84.1184,265.389 86.7851,270.389 82.5,279.5C 77.7934,283.898 73.9601,283.231 71,277.5C 70.3333,274.5 70.3333,271.5 71,268.5C 71.6897,266.65 72.8564,265.316 74.5,264.5 Z"/></g>
<g><path style="opacity:1" fill="#121215" d="M 198.5,250.5 C 206.163,249.076 210.996,252.076 213,259.5C 217.129,258.439 220.462,259.772 223,263.5C 225.034,272.1 221.868,277.766 213.5,280.5C 212.686,282.766 212.186,285.1 212,287.5C 211.315,290.057 209.815,291.891 207.5,293C 200.745,293.451 194.078,294.117 187.5,295C 183.507,292.181 181.84,288.347 182.5,283.5C 170.252,283.088 166.085,277.088 170,265.5C 172.565,263.821 175.398,263.154 178.5,263.5C 179.159,252.171 184.493,249.171 194.5,254.5C 196.188,253.479 197.521,252.145 198.5,250.5 Z"/></g>
<g><path style="opacity:1" fill="#e0e0e4" d="M 211.5,262.5 C 219.722,262.225 222.222,265.892 219,273.5C 214.522,277.731 210.522,277.398 207,272.5C 206.616,268.272 208.116,264.939 211.5,262.5 Z"/></g>
<g><path style="opacity:1" fill="#e0dfe4" d="M 184.5,255.5 C 193.609,255.751 196.276,259.917 192.5,268C 186.235,270.528 182.568,268.361 181.5,261.5C 181.984,259.199 182.984,257.199 184.5,255.5 Z"/></g>
<g><path style="opacity:1" fill="#e1e0e5" d="M 200.5,253.5 C 207.314,253.49 209.814,256.823 208,263.5C 205.947,267.292 202.781,268.458 198.5,267C 195.397,261.886 196.064,257.386 200.5,253.5 Z"/></g>
<g><path style="opacity:1" fill="#08080a" d="M 57.5,267.5 C 65.9848,268.493 69.1515,273.16 67,281.5C 61.9556,285.826 57.6222,285.16 54,279.5C 53.3333,276.5 53.3333,273.5 54,270.5C 55.1451,269.364 56.3117,268.364 57.5,267.5 Z"/></g>
<g><path style="opacity:1" fill="#e0dfe4" d="M 174.5,266.5 C 180.246,266.034 183.913,268.534 185.5,274C 184.024,279.138 180.69,280.805 175.5,279C 170.72,275.008 170.387,270.841 174.5,266.5 Z"/></g>
<g><path style="opacity:1" fill="#09090a" d="M 511.5,272.5 C 525.033,271.864 531.2,278.198 530,291.5C 525.81,299.801 520.31,300.634 513.5,294C 501.093,293.689 498.259,288.189 505,277.5C 506.965,275.45 509.132,273.783 511.5,272.5 Z"/></g>
<g><path style="opacity:1" fill="#0b0b0d" d="M 540.5,272.5 C 550.936,273.871 552.936,278.704 546.5,287C 535.828,290.657 531.995,287.157 535,276.5C 536.5,274.531 538.333,273.198 540.5,272.5 Z"/></g>
<g><path style="opacity:1" fill="#0b0b0c" d="M 90.5,273.5 C 99.7589,273.543 102.426,277.876 98.5,286.5C 95.0621,290.851 91.0621,291.517 86.5,288.5C 83.0529,282.156 84.3862,277.156 90.5,273.5 Z"/></g>
<g><path style="opacity:1" fill="#e0e1e5" d="M 193.5,271.5 C 204.598,271.098 209.765,276.431 209,287.5C 206.088,290.782 202.588,291.449 198.5,289.5C 195.708,289.814 193.208,290.814 191,292.5C 189.395,291.899 188.062,290.899 187,289.5C 183.423,281.254 185.589,275.254 193.5,271.5 Z"/></g>
<g><path style="opacity:1" fill="#09090b" d="M 44.5,282.5 C 55.6116,281.419 59.2783,285.919 55.5,296C 45.5499,298.722 41.0499,294.889 42,284.5C 42.9947,283.934 43.828,283.267 44.5,282.5 Z"/></g>
<g><path style="opacity:1" fill="#060607" d="M 68.5,286.5 C 82.6305,285.13 88.7971,291.463 87,305.5C 86.1667,306.333 85.3333,307.167 84.5,308C 80.8606,307.722 77.1939,307.722 73.5,308C 66.5654,313.782 62.0654,312.282 60,303.5C 58.5751,295.683 61.4085,290.016 68.5,286.5 Z"/></g>
<g><path style="opacity:1" fill="#0c0c0d" d="M 415.5,301.5 C 422.283,300.381 425.616,303.214 425.5,310C 425.032,318.142 421.032,320.809 413.5,318C 410.407,311.998 411.074,306.498 415.5,301.5 Z"/></g>
<g><path style="opacity:1" fill="#0f0f0f" d="M 398.5,303.5 C 406.821,304.44 409.988,309.107 408,317.5C 402.863,323.21 398.53,322.544 395,315.5C 394.333,312.5 394.333,309.5 395,306.5C 396.145,305.364 397.312,304.364 398.5,303.5 Z"/></g>
<g><path style="opacity:1" fill="#0d0d0e" d="M 431.5,311.5 C 440.463,311.762 442.963,316.095 439,324.5C 435.897,328.322 432.064,329.322 427.5,327.5C 423.277,320.827 424.611,315.493 431.5,311.5 Z"/></g>
<g><path style="opacity:1" fill="#0c0c0d" d="M 384.5,317.5 C 394.012,316.293 398.179,320.293 397,329.5C 393.168,334.492 388.835,334.826 384,330.5C 380.672,325.856 380.839,321.523 384.5,317.5 Z"/></g>
<g><path style="opacity:1" fill="#080809" d="M 407.5,323.5 C 420.969,322.14 427.469,328.14 427,341.5C 426.535,342.931 425.701,344.097 424.5,345C 421.131,345.663 417.797,345.496 414.5,344.5C 402.163,350.355 396.996,346.355 399,332.5C 400.688,328.315 403.521,325.315 407.5,323.5 Z"/></g>
<g><path style="opacity:1" fill="#111113" d="M 279.5,341.5 C 283.96,340.885 287.96,341.885 291.5,344.5C 296.701,340.534 301.868,340.534 307,344.5C 307.977,346.74 308.477,349.073 308.5,351.5C 317.202,351.555 320.702,355.888 319,364.5C 316.365,369.567 312.199,372.234 306.5,372.5C 306.743,376.774 305.409,380.441 302.5,383.5C 296.517,383.838 290.517,384.172 284.5,384.5C 281.675,384.881 279.509,383.881 278,381.5C 276.801,378.274 276.301,374.941 276.5,371.5C 266.708,371.207 262.542,366.207 264,356.5C 266.425,351.937 270.258,350.271 275.5,351.5C 275.186,347.468 276.519,344.135 279.5,341.5 Z"/></g>
<g><path style="opacity:1" fill="#e1e0e4" d="M 281.5,344.5 C 290.526,345.476 292.859,349.976 288.5,358C 280.238,359.365 277.072,355.865 279,347.5C 280.045,346.627 280.878,345.627 281.5,344.5 Z"/></g>
<g><path style="opacity:1" fill="#dddce1" d="M 296.5,344.5 C 303.276,343.776 306.11,346.776 305,353.5C 301.819,359.252 297.819,359.919 293,355.5C 291.882,351.077 293.049,347.41 296.5,344.5 Z"/></g>
<g><path style="opacity:1" fill="#d9d9dd" d="M 269.5,354.5 C 271.527,354.338 273.527,354.505 275.5,355C 281.644,359.01 281.977,363.344 276.5,368C 270.896,368.414 267.563,365.747 266.5,360C 266.863,357.808 267.863,355.974 269.5,354.5 Z"/></g>
<g><path style="opacity:1" fill="#e1e0e5" d="M 287.5,361.5 C 301.548,361.994 305.882,368.494 300.5,381C 297.338,381.602 294.338,381.102 291.5,379.5C 281.807,383.319 277.974,379.985 280,369.5C 281.52,365.842 284.02,363.176 287.5,361.5 Z"/></g>
<g><path style="opacity:1" fill="#dedde2" d="M 307.5,354.5 C 313.784,353.619 316.617,356.286 316,362.5C 312.761,369.09 308.427,370.09 303,365.5C 301.776,360.626 303.276,356.959 307.5,354.5 Z"/></g>
<g><path style="opacity:1" fill="#0b0b0c" d="M 155.5,369.5 C 164.945,368.035 168.778,372.035 167,381.5C 162.27,388.296 157.936,387.962 154,380.5C 153.112,376.598 153.612,372.931 155.5,369.5 Z"/></g>
<g><path style="opacity:1" fill="#0e0d0e" d="M 175.5,368.5 C 181.626,367.721 184.626,370.388 184.5,376.5C 184.637,381.918 182.137,385.252 177,386.5C 172.061,386.063 169.894,383.396 170.5,378.5C 170.451,374.24 172.117,370.907 175.5,368.5 Z"/></g>
<g><path style="opacity:1" fill="#0a0a0c" d="M 143.5,380.5 C 151.332,380.829 155.165,384.829 155,392.5C 149.687,398.03 144.687,397.697 140,391.5C 138.518,386.774 139.685,383.107 143.5,380.5 Z"/></g>
<g><path style="opacity:1" fill="#0c0c0e" d="M 188.5,380.5 C 198.812,380.77 201.312,385.437 196,394.5C 189.177,399.567 184.677,398.067 182.5,390C 182.542,388.033 183.042,386.199 184,384.5C 185.667,383.267 187.167,381.933 188.5,380.5 Z"/></g>
<g><path style="opacity:1" fill="#121214" d="M 31.5,369.5 C 36.2845,368.839 40.6178,369.839 44.5,372.5C 49.9835,368.24 55.1502,368.573 60,373.5C 61.0086,375.025 61.5086,376.692 61.5,378.5C 69.4932,379.325 72.6598,383.658 71,391.5C 69.0468,397.563 64.8802,400.23 58.5,399.5C 59.7835,406.69 56.9502,411.023 50,412.5C 44.1409,412.012 38.3076,411.679 32.5,411.5C 29.3797,408.139 28.0464,404.139 28.5,399.5C 21.0177,399.021 16.6844,395.021 15.5,387.5C 16.8358,381.148 20.8358,378.148 27.5,378.5C 27.8843,375.104 29.2177,372.104 31.5,369.5 Z"/></g>
<g><path style="opacity:1" fill="#e3e2e6" d="M 21.5,382.5 C 30.8897,382.185 33.8897,386.185 30.5,394.5C 22.3569,396.192 18.8569,392.859 20,384.5C 20.7172,383.956 21.2172,383.289 21.5,382.5 Z"/></g>
<g><path style="opacity:1" fill="#e1e0e4" d="M 49.5,372.5 C 56.5088,372.129 59.0088,375.462 57,382.5C 51.3688,388.465 47.5355,387.632 45.5,380C 45.4302,376.634 46.7635,374.134 49.5,372.5 Z"/></g>
<g><path style="opacity:1" fill="#dfdee3" d="M 33.5,372.5 C 42.3672,372.738 45.0339,376.905 41.5,385C 35.1732,387.5 31.5065,385.333 30.5,378.5C 30.6284,376.045 31.6284,374.045 33.5,372.5 Z"/></g>
<g><path style="opacity:1" fill="#dfdfe3" d="M 59.5,382.5 C 67.5886,381.748 70.0886,385.081 67,392.5C 61.3104,398.366 57.1437,397.533 54.5,390C 55.313,386.858 56.9797,384.358 59.5,382.5 Z"/></g>
<g><path style="opacity:1" fill="#0a0a0b" d="M 163.5,389.5 C 175.386,387.759 182.053,392.759 183.5,404.5C 183.295,409.277 180.962,412.277 176.5,413.5C 171.167,410.833 165.833,410.833 160.5,413.5C 156.114,411.741 154.114,408.408 154.5,403.5C 155.009,397.131 158.009,392.465 163.5,389.5 Z"/></g>
<g><path style="opacity:1" fill="#e1e0e5" d="M 39.5,389.5 C 51.3203,388.486 56.4869,393.819 55,405.5C 54.5348,406.931 53.7014,408.097 52.5,409C 49.1878,409.538 46.0212,409.038 43,407.5C 37.5445,411.053 33.8779,409.72 32,403.5C 31.3103,397.046 33.8103,392.379 39.5,389.5 Z"/></g>
<g><path style="opacity:1" fill="#0f0f12" d="M 517.5,369.5 C 519.199,369.34 520.866,369.506 522.5,370C 525.315,371.493 527.815,373.327 530,375.5C 540.295,372.961 544.795,376.961 543.5,387.5C 551.255,389.349 553.422,394.016 550,401.5C 545.868,406.048 540.701,407.715 534.5,406.5C 534.326,412.342 531.326,415.675 525.5,416.5C 522.893,415.863 520.56,414.696 518.5,413C 515.5,412.667 512.5,412.333 509.5,412C 507.741,410.992 506.574,409.492 506,407.5C 505.825,403.789 505.325,400.122 504.5,396.5C 495.266,391.175 494.266,384.675 501.5,377C 504.562,376.259 507.562,376.425 510.5,377.5C 512.162,374.176 514.495,371.51 517.5,369.5 Z"/></g>
<g><path style="opacity:1" fill="#e1e1e5" d="M 515.5,391.5 C 521.941,390.476 527.108,392.476 531,397.5C 533.639,404.418 531.805,409.751 525.5,413.5C 523.483,412.826 521.817,411.659 520.5,410C 509.459,411.296 505.959,406.796 510,396.5C 511.812,394.7 513.645,393.033 515.5,391.5 Z"/></g>
<g><path style="opacity:1" fill="#e0dfe4" d="M 538.5,390.5 C 546.186,389.345 549.02,392.345 547,399.5C 542.412,404.68 538.079,404.68 534,399.5C 533.377,395.412 534.877,392.412 538.5,390.5 Z"/></g>
<g><path style="opacity:1" fill="#e1e0e5" d="M 518.5,372.5 C 525.955,374.076 528.122,378.41 525,385.5C 518.841,389.243 515.341,387.577 514.5,380.5C 514.667,379.167 514.833,377.833 515,376.5C 516.376,375.295 517.542,373.962 518.5,372.5 Z"/></g>
<g><path style="opacity:1" fill="#dfdee3" d="M 532.5,377.5 C 540.822,378.269 542.655,382.269 538,389.5C 528.803,392.971 525.803,389.971 529,380.5C 530.518,379.837 531.685,378.837 532.5,377.5 Z"/></g>
<g><path style="opacity:1" fill="#dedde1" d="M 503.5,379.5 C 507.888,378.943 511.055,380.61 513,384.5C 514.232,389.711 512.232,392.711 507,393.5C 502.853,392.514 500.687,389.847 500.5,385.5C 500.467,382.898 501.467,380.898 503.5,379.5 Z"/></g>
<g><path style="opacity:1" fill="#141316" d="M 403.5,401.5 C 409.643,399.959 413.976,401.959 416.5,407.5C 426.674,407.506 430.841,412.506 429,422.5C 427.043,426.643 423.876,428.976 419.5,429.5C 421.503,435.316 420.17,440.149 415.5,444C 408.641,444.467 401.975,445.467 395.5,447C 392.015,444.383 390.348,440.883 390.5,436.5C 378.313,437.49 373.48,432.157 376,420.5C 377.883,417.976 380.383,416.642 383.5,416.5C 383.937,405.703 389.103,402.369 399,406.5C 400.707,404.963 402.207,403.296 403.5,401.5 Z"/></g>
<g><path style="opacity:1" fill="#dfdee3" d="M 401.5,422.5 C 410.896,421.518 415.896,425.684 416.5,435C 416.695,437.352 416.028,439.352 414.5,441C 408.939,440.798 403.772,441.965 399,444.5C 397.395,443.899 396.062,442.899 395,441.5C 391.343,432.95 393.509,426.617 401.5,422.5 Z"/></g>
<g><path style="opacity:1" fill="#dfdfe3" d="M 380.5,420.5 C 390.221,419.499 393.221,423.333 389.5,432C 383.108,434.47 379.441,432.303 378.5,425.5C 378.724,423.545 379.391,421.879 380.5,420.5 Z"/></g>
<g><path style="opacity:1" fill="#e1e0e4" d="M 390.5,407.5 C 396.125,407.624 399.459,410.458 400.5,416C 399.458,421.023 396.458,422.69 391.5,421C 386.597,416.843 386.263,412.343 390.5,407.5 Z"/></g>
<g><path style="opacity:1" fill="#e1e0e5" d="M 417.5,412.5 C 426.083,411.982 428.416,415.649 424.5,423.5C 418.747,428.317 415.081,427.151 413.5,420C 413.43,416.634 414.763,414.134 417.5,412.5 Z"/></g>
<g><path style="opacity:1" fill="#e2e1e5" d="M 405.5,404.5 C 412.809,404.666 415.309,408.333 413,415.5C 409.288,419.415 405.622,419.415 402,415.5C 400.662,410.96 401.829,407.293 405.5,404.5 Z"/></g>
<g><path style="opacity:1" fill="#0e0e10" d="M 492.5,459.5 C 497.385,458.856 500.552,460.856 502,465.5C 503.726,471.72 501.559,475.72 495.5,477.5C 490.331,476.028 487.664,472.528 487.5,467C 487.831,463.52 489.498,461.02 492.5,459.5 Z"/></g>
<g><path style="opacity:1" fill="#0c0c0d" d="M 271.5,460.5 C 277.387,459.809 280.387,462.309 280.5,468C 280.809,473.56 278.309,477.06 273,478.5C 268.422,477.302 266.256,474.302 266.5,469.5C 266.906,465.678 268.573,462.678 271.5,460.5 Z"/></g>
<g><path style="opacity:1" fill="#09090b" d="M 474.5,466.5 C 483.865,465.884 487.699,470.218 486,479.5C 485.626,480.416 485.126,481.25 484.5,482C 476.924,483.71 472.59,480.71 471.5,473C 471.84,470.489 472.84,468.322 474.5,466.5 Z"/></g>
<g><path style="opacity:1" fill="#0d0d0e" d="M 509.5,465.5 C 514.352,464.277 517.519,465.944 519,470.5C 519.766,479.067 515.933,482.901 507.5,482C 501.733,475.676 502.4,470.176 509.5,465.5 Z"/></g>
<g><path style="opacity:1" fill="#0e0e0f" d="M 253.5,466.5 C 259.996,466.494 263.996,469.661 265.5,476C 264.296,482.106 260.629,484.439 254.5,483C 248.411,477.76 248.077,472.26 253.5,466.5 Z"/></g>
<g><path style="opacity:1" fill="#0b0b0c" d="M 287.5,467.5 C 296.724,466.897 299.557,470.897 296,479.5C 292.95,483.13 289.117,484.297 284.5,483C 280.167,476.83 281.167,471.663 287.5,467.5 Z"/></g>
<g><path style="opacity:1" fill="#101013" d="M 175.5,461.5 C 181.325,460.745 185.325,463.078 187.5,468.5C 199.163,469.163 202.663,474.83 198,485.5C 196.261,487.741 194.094,489.408 191.5,490.5C 190.676,493.785 190.176,497.118 190,500.5C 189.167,502 188,503.167 186.5,504C 181.824,503.89 177.491,504.89 173.5,507C 165.223,508.567 160.89,505.067 160.5,496.5C 149.031,497.865 144.198,492.865 146,481.5C 148.141,478.679 150.975,477.346 154.5,477.5C 154.144,466.67 158.978,463.004 169,466.5C 171.341,464.984 173.508,463.317 175.5,461.5 Z"/></g>
<g><path style="opacity:1" fill="#dfdee3" d="M 160.5,468.5 C 169.609,468.751 172.276,472.917 168.5,481C 162.132,483.34 158.465,481.007 157.5,474C 157.863,471.808 158.863,469.974 160.5,468.5 Z"/></g>
<g><path style="opacity:1" fill="#e0dfe4" d="M 176.5,464.5 C 182.619,465.119 185.119,468.453 184,474.5C 182.287,479.038 179.12,480.538 174.5,479C 171.366,473.566 172.033,468.733 176.5,464.5 Z"/></g>
<g><path style="opacity:1" fill="#e1e0e5" d="M 188.5,472.5 C 196.003,471.853 198.503,475.186 196,482.5C 193.839,486.124 190.672,487.291 186.5,486C 183.713,483.833 182.88,480.999 184,477.5C 185.366,475.638 186.866,473.972 188.5,472.5 Z"/></g>
<g><path style="opacity:1" fill="#080809" d="M 267.5,482.5 C 275.597,481.796 281.764,484.796 286,491.5C 287.521,497.877 286.021,503.377 281.5,508C 276.961,509.14 273.294,507.806 270.5,504C 258.2,504.164 255.033,498.664 261,487.5C 262.965,485.45 265.132,483.783 267.5,482.5 Z"/></g>
<g><path style="opacity:1" fill="#0b0b0d" d="M 466.5,482.5 C 470.839,481.846 474.673,482.846 478,485.5C 480.937,492.037 478.937,496.037 472,497.5C 466.426,497.094 463.259,494.094 462.5,488.5C 462.866,485.744 464.2,483.744 466.5,482.5 Z"/></g>
<g><path style="opacity:1" fill="#070708" d="M 492.5,481.5 C 503.42,480.113 509.754,484.78 511.5,495.5C 511.563,497.481 510.896,499.148 509.5,500.5C 503.48,500.447 498.48,502.613 494.5,507C 491.901,507.769 489.401,507.602 487,506.5C 479.66,495.995 481.493,487.661 492.5,481.5 Z"/></g>
<g><path style="opacity:1" fill="#dedde2" d="M 151.5,480.5 C 157.629,479.555 161.296,482.055 162.5,488C 161.089,493.141 157.755,494.808 152.5,493C 147.603,489.138 147.27,484.972 151.5,480.5 Z"/></g>
<g><path style="opacity:1" fill="#0b0b0d" d="M 297.5,482.5 C 305.6,483.088 308.1,487.088 305,494.5C 301.146,498.671 296.646,499.504 291.5,497C 287.858,489.789 289.858,484.955 297.5,482.5 Z"/></g>
<g><path style="opacity:1" fill="#e1e0e4" d="M 170.5,483.5 C 180.325,481.894 185.992,485.894 187.5,495.5C 187.514,497.593 186.848,499.426 185.5,501C 179.863,500.927 174.529,502.093 169.5,504.5C 167.617,504.124 166.117,503.124 165,501.5C 161.697,493.789 163.53,487.789 170.5,483.5 Z"/></g>
<g><path style="opacity:1" fill="#0a090b" d="M 73.5,503.5 C 81.9553,503.696 85.122,508.029 83,516.5C 80.8387,520.124 77.672,521.291 73.5,520C 71.6667,519.5 70.5,518.333 70,516.5C 69.3333,513.167 69.3333,509.833 70,506.5C 71.1451,505.364 72.3117,504.364 73.5,503.5 Z"/></g>
<g><path style="opacity:1" fill="#0f0f10" d="M 55.5,510.5 C 63.0448,509.206 67.3781,512.373 68.5,520C 67.6852,526.04 64.3519,528.04 58.5,526C 52.0287,521.813 51.0287,516.646 55.5,510.5 Z"/></g>
<g><path style="opacity:1" fill="#0c0c0d" d="M 91.5,508.5 C 99.9633,509.752 102.463,514.418 99,522.5C 95.6438,526.948 91.6438,527.615 87,524.5C 83.9938,517.771 85.4938,512.438 91.5,508.5 Z"/></g>
<g><path style="opacity:1" fill="#060607" d="M 73.5,525.5 C 83.9596,523.977 90.293,528.311 92.5,538.5C 92.4305,540.709 91.7638,542.709 90.5,544.5C 87.557,545.244 84.557,545.744 81.5,546C 71.1326,554.867 65.1326,552.367 63.5,538.5C 64.6101,532.397 67.9434,528.064 73.5,525.5 Z"/></g>
<g><path style="opacity:1" fill="#0d0d0e" d="M 47.5,526.5 C 54.6804,524.91 59.0138,527.577 60.5,534.5C 59.3834,540.732 55.7167,542.898 49.5,541C 42.7281,536.8 42.0614,531.967 47.5,526.5 Z"/></g>
<g><path style="opacity:1" fill="#141417" d="M 420.5,525.5 C 426.467,525.148 430.134,527.814 431.5,533.5C 443.898,533.47 447.398,539.137 442,550.5C 439.921,552.79 437.421,554.457 434.5,555.5C 436.424,561.814 434.424,566.314 428.5,569C 424.972,569.089 421.638,569.756 418.5,571C 410.082,573.414 405.748,570.248 405.5,561.5C 393.121,562.021 388.287,556.354 391,544.5C 393.235,542.798 395.735,541.798 398.5,541.5C 398.601,530.226 403.767,526.893 414,531.5C 415.914,529.144 418.081,527.144 420.5,525.5 Z"/></g>
<g><path style="opacity:1" fill="#e1e0e5" d="M 415.5,547.5 C 428.747,546.887 433.414,552.72 429.5,565C 426.167,565.333 422.833,565.667 419.5,566C 416.395,568.964 413.228,569.13 410,566.5C 405.866,558.405 407.699,552.072 415.5,547.5 Z"/></g>
<g><path style="opacity:1" fill="#e1e0e5" d="M 394.5,545.5 C 402.81,543.337 406.644,546.337 406,554.5C 405.626,555.416 405.126,556.25 404.5,557C 394.653,558.338 391.32,554.505 394.5,545.5 Z"/></g>
<g><path style="opacity:1" fill="#dedde2" d="M 404.5,532.5 C 413.571,532.503 416.571,536.67 413.5,545C 407.075,547.767 403.408,545.6 402.5,538.5C 402.611,536.286 403.278,534.286 404.5,532.5 Z"/></g>
<g><path style="opacity:1" fill="#dddde2" d="M 432.5,536.5 C 440.44,536.369 442.94,540.035 440,547.5C 434.087,553.565 430.253,552.565 428.5,544.5C 428.667,543.167 428.833,541.833 429,540.5C 430.376,539.295 431.542,537.962 432.5,536.5 Z"/></g>
<g><path style="opacity:1" fill="#e3e2e6" d="M 420.5,529.5 C 427.555,529.25 430.055,532.583 428,539.5C 426.179,542.991 423.346,544.157 419.5,543C 415.305,538.044 415.639,533.544 420.5,529.5 Z"/></g>
<g><path style="opacity:1" fill="#0b0a0c" d="M 323.5,566.5 C 332.328,565.839 335.495,569.839 333,578.5C 328.578,585.059 324.245,585.059 320,578.5C 318.745,573.738 319.912,569.738 323.5,566.5 Z"/></g>
<g><path style="opacity:1" fill="#121215" d="M 516.5,550.5 C 521.708,550.522 525.875,552.522 529,556.5C 538.837,554.331 543.503,558.331 543,568.5C 549.547,571.754 551.214,576.754 548,583.5C 544.099,587.683 539.265,589.517 533.5,589C 529.8,597.994 524.133,599.661 516.5,594C 505.172,594.505 501.172,589.339 504.5,578.5C 494.882,573.47 493.215,566.636 499.5,558C 500.873,557.125 502.373,556.625 504,556.5C 506.154,557.252 508.32,557.419 510.5,557C 512.027,554.31 514.027,552.143 516.5,550.5 Z"/></g>
<g><path style="opacity:1" fill="#e3e2e7" d="M 501.5,560.5 C 511.373,560.192 514.04,564.359 509.5,573C 503.285,575.148 499.952,572.814 499.5,566C 499.395,563.822 500.061,561.988 501.5,560.5 Z"/></g>
<g><path style="opacity:1" fill="#e1e0e5" d="M 530.5,559.5 C 537.442,557.943 540.275,560.61 539,567.5C 535.979,572.667 531.979,573.667 527,570.5C 525.663,565.872 526.83,562.205 530.5,559.5 Z"/></g>
<g><path style="opacity:1" fill="#e0dfe4" d="M 516.5,554.5 C 523.745,553.963 526.578,557.296 525,564.5C 523.179,567.991 520.346,569.157 516.5,568C 515.333,567.5 514.5,566.667 514,565.5C 512.812,561.259 513.645,557.592 516.5,554.5 Z"/></g>
<g><path style="opacity:1" fill="#0c0c0d" d="M 307.5,571.5 C 317.72,573.766 320.054,579.266 314.5,588C 305.922,589.05 302.089,585.217 303,576.5C 304.059,574.341 305.559,572.674 307.5,571.5 Z"/></g>
<g><path style="opacity:1" fill="#dddce1" d="M 537.5,571.5 C 544.38,570.876 547.214,573.876 546,580.5C 542.114,585.715 537.78,586.381 533,582.5C 531.776,577.626 533.276,573.959 537.5,571.5 Z"/></g>
<g><path style="opacity:1" fill="#e1e2e6" d="M 513.5,572.5 C 527.212,571.369 532.379,577.369 529,590.5C 527.833,591.667 526.667,592.833 525.5,594C 519.755,590.889 513.588,588.722 507,587.5C 505.984,581.03 508.15,576.03 513.5,572.5 Z"/></g>
<g><path style="opacity:1" fill="#0c0c0e" d="M 340.5,572.5 C 349.785,571.95 352.619,575.95 349,584.5C 342.876,591.584 338.042,590.917 334.5,582.5C 334.594,580.311 335.261,578.311 336.5,576.5C 338.188,575.479 339.521,574.145 340.5,572.5 Z"/></g>
<g><path style="opacity:1" fill="#070708" d="M 321.5,587.5 C 337.171,588.187 342.338,595.854 337,610.5C 335.289,613.58 332.789,614.746 329.5,614C 327.167,612.333 324.833,610.667 322.5,609C 319.5,608.667 316.5,608.333 313.5,608C 309.568,598.634 312.234,591.801 321.5,587.5 Z"/></g>
<g><path style="opacity:1" fill="#0a0a0c" d="M 347.5,588.5 C 360.587,588.226 362.92,593.059 354.5,603C 345.431,605.747 341.598,602.58 343,593.5C 344.707,591.963 346.207,590.296 347.5,588.5 Z"/></g>
<g><path style="opacity:1" fill="#100f13" d="M 186.5,554.5 C 192.537,553.101 196.871,555.101 199.5,560.5C 213.453,562.908 216.12,569.742 207.5,581C 205.975,582.009 204.308,582.509 202.5,582.5C 202.665,585.85 202.498,589.183 202,592.5C 201.167,594.667 199.667,596.167 197.5,597C 191.049,597.751 184.716,598.751 178.5,600C 175.066,597.297 173.066,593.797 172.5,589.5C 160.058,589.747 155.725,584.08 159.5,572.5C 161.51,570.829 163.843,570.162 166.5,570.5C 166.241,559.41 171.241,555.743 181.5,559.5C 183.521,558.145 185.188,556.479 186.5,554.5 Z"/></g>
<g><path style="opacity:1" fill="#e1e1e5" d="M 182.5,576.5 C 192.102,574.451 197.769,578.118 199.5,587.5C 199.635,589.808 198.969,591.808 197.5,593.5C 191.994,593.758 186.828,595.092 182,597.5C 178.504,595.999 176.504,593.332 176,589.5C 174.973,583.554 177.14,579.221 182.5,576.5 Z"/></g>
<g><path style="opacity:1" fill="#dfdee3" d="M 163.5,573.5 C 169.591,572.286 173.258,574.62 174.5,580.5C 174.21,584.124 172.21,586.124 168.5,586.5C 160.251,584.37 158.584,580.036 163.5,573.5 Z"/></g>
<g><path style="opacity:1" fill="#dedde1" d="M 199.5,565.5 C 210.75,566.189 212.417,570.689 204.5,579C 198.199,580.281 195.365,577.781 196,571.5C 196.926,569.308 198.093,567.308 199.5,565.5 Z"/></g>
<g><path style="opacity:1" fill="#e1e0e4" d="M 172.5,560.5 C 182.132,560.954 184.799,565.454 180.5,574C 174.126,575.956 170.793,573.622 170.5,567C 170.482,564.59 171.149,562.423 172.5,560.5 Z"/></g>
<g><path style="opacity:1" fill="#e1e1e5" d="M 188.5,557.5 C 195.314,557.49 197.814,560.823 196,567.5C 193.947,571.292 190.781,572.458 186.5,571C 183.416,565.862 184.082,561.362 188.5,557.5 Z"/></g>
<g><path style="opacity:1" fill="#101011" d="M 477.5,630.5 C 486.61,631.024 489.443,635.691 486,644.5C 479.011,650.592 474.511,649.092 472.5,640C 472.744,636.01 474.41,632.843 477.5,630.5 Z"/></g>
<g><path style="opacity:1" fill="#0d0d0e" d="M 460.5,632.5 C 469.366,633.864 472.199,638.864 469,647.5C 462.85,651.617 458.516,649.95 456,642.5C 454.571,637.783 456.071,634.45 460.5,632.5 Z"/></g>
<g><path style="opacity:1" fill="#0c0c0d" d="M 493.5,640.5 C 502.768,641.569 504.935,646.235 500,654.5C 496.221,657.859 492.221,658.192 488,655.5C 484.85,648.493 486.684,643.493 493.5,640.5 Z"/></g>
<g><path style="opacity:1" fill="#111114" d="M 72.5,627.5 C 78.4751,626.479 82.4751,628.813 84.5,634.5C 94.4463,634.077 98.613,638.743 97,648.5C 95.2557,652.545 92.2557,655.212 88,656.5C 89.1047,661.53 87.938,666.03 84.5,670C 77.2212,670.289 70.2212,671.289 63.5,673C 60.3085,670.13 57.9752,666.63 56.5,662.5C 46.1964,663.694 41.6964,659.028 43,648.5C 44.6742,644.911 47.5075,643.245 51.5,643.5C 51.2236,632.43 56.2236,628.763 66.5,632.5C 68.5441,630.781 70.5441,629.114 72.5,627.5 Z"/></g>
<g><path style="opacity:1" fill="#e0dfe4" d="M 85.5,638.5 C 95.262,639.653 96.9286,644.153 90.5,652C 83.7185,653.875 80.5518,651.375 81,644.5C 82.332,642.34 83.832,640.34 85.5,638.5 Z"/></g>
<g><path style="opacity:1" fill="#dfdee3" d="M 73.5,630.5 C 78.9147,630.082 81.5814,632.582 81.5,638C 80.0214,645.821 76.1881,647.321 70,642.5C 68.7452,637.738 69.9119,633.738 73.5,630.5 Z"/></g>
<g><path style="opacity:1" fill="#e3e2e7" d="M 57.5,634.5 C 65.3149,634.123 68.4816,637.79 67,645.5C 60.3858,650.29 56.5525,648.456 55.5,640C 55.3948,637.822 56.0615,635.988 57.5,634.5 Z"/></g>
<g><path style="opacity:1" fill="#0b0b0d" d="M 446.5,646.5 C 455.051,645.563 459.218,649.23 459,657.5C 458.535,658.931 457.701,660.097 456.5,661C 446.333,662.833 442.167,658.667 444,648.5C 444.995,647.934 445.828,647.267 446.5,646.5 Z"/></g>
<g><path style="opacity:1" fill="#dfdee3" d="M 48.5,646.5 C 57.8897,646.185 60.8897,650.185 57.5,658.5C 51.3165,660.742 47.3165,658.742 45.5,652.5C 45.9837,650.199 46.9837,648.199 48.5,646.5 Z"/></g>
<g><path style="opacity:1" fill="#e1e2e6" d="M 68.5,649.5 C 81.6559,648.806 86.3225,654.639 82.5,667C 76.8628,666.927 71.5295,668.093 66.5,670.5C 64.9707,670.471 63.804,669.804 63,668.5C 58.8966,660.32 60.7299,653.987 68.5,649.5 Z"/></g>
<g><path style="opacity:1" fill="#0a0a0b" d="M 162.5,650.5 C 172.036,650.201 175.203,654.534 172,663.5C 168,668.833 164,668.833 160,663.5C 158.842,658.693 159.676,654.36 162.5,650.5 Z"/></g>
<g><path style="opacity:1" fill="#111114" d="M 279.5,646.5 C 283.96,645.885 287.96,646.885 291.5,649.5C 295.05,646.72 299.05,645.886 303.5,647C 307.113,649.12 308.78,652.287 308.5,656.5C 317.202,656.555 320.702,660.888 319,669.5C 316.026,674.068 311.859,676.735 306.5,677.5C 307.306,684.612 304.306,688.612 297.5,689.5C 293.167,688.167 288.833,688.167 284.5,689.5C 281.675,689.881 279.509,688.881 278,686.5C 276.801,683.274 276.301,679.941 276.5,676.5C 264.088,675.173 260.754,669.007 266.5,658C 269.351,656.711 272.351,656.211 275.5,656.5C 275.186,652.468 276.519,649.135 279.5,646.5 Z"/></g>
<g><path style="opacity:1" fill="#070708" d="M 472.5,651.5 C 486.883,653.037 491.549,660.537 486.5,674C 483.145,674.546 479.812,674.379 476.5,673.5C 473.366,674.241 470.366,675.241 467.5,676.5C 463.543,675.969 461.376,673.636 461,669.5C 459.389,659.956 463.223,653.956 472.5,651.5 Z"/></g>
<g><path style="opacity:1" fill="#0d0d0e" d="M 180.5,654.5 C 189.746,653.916 192.579,657.916 189,666.5C 179.141,674.653 174.808,672.319 176,659.5C 177.059,657.341 178.559,655.674 180.5,654.5 Z"/></g>
<g><path style="opacity:1" fill="#e3e2e7" d="M 281.5,649.5 C 290.528,650.393 292.861,654.893 288.5,663C 282.372,665.029 279.038,662.863 278.5,656.5C 278.695,653.782 279.695,651.449 281.5,649.5 Z"/></g>
<g><path style="opacity:1" fill="#dedde2" d="M 296.5,649.5 C 303.327,648.825 306.16,651.825 305,658.5C 301.771,664.261 297.771,664.927 293,660.5C 291.882,656.077 293.049,652.41 296.5,649.5 Z"/></g>
<g><path style="opacity:1" fill="#0d0d0e" d="M 146.5,658.5 C 156.843,658.659 160.176,663.493 156.5,673C 148.731,676.41 144.064,673.91 142.5,665.5C 142.734,662.391 144.068,660.058 146.5,658.5 Z"/></g>
<g><path style="opacity:1" fill="#dedde2" d="M 269.5,659.5 C 271.527,659.338 273.527,659.505 275.5,660C 282.542,665.439 282.042,669.939 274,673.5C 266.341,670.561 264.841,665.895 269.5,659.5 Z"/></g>
<g><path style="opacity:1" fill="#dbdadf" d="M 307.5,659.5 C 313.806,658.707 316.639,661.374 316,667.5C 312.634,674.064 308.3,675.064 303,670.5C 301.776,665.626 303.276,661.959 307.5,659.5 Z"/></g>
<g><path style="opacity:1" fill="#e1e1e5" d="M 288.5,666.5 C 302.041,667.49 306.041,673.99 300.5,686C 295.153,685.499 289.82,685.666 284.5,686.5C 282.971,686.471 281.804,685.804 281,684.5C 277.781,675.954 280.281,669.954 288.5,666.5 Z"/></g>
<g><path style="opacity:1" fill="#0b0b0d" d="M 191.5,668.5 C 201.119,668.925 203.619,673.258 199,681.5C 195.662,684.318 191.829,685.151 187.5,684C 184.231,680.547 183.731,676.714 186,672.5C 188.015,671.303 189.849,669.97 191.5,668.5 Z"/></g>
<g><path style="opacity:1" fill="#070708" d="M 162.5,672.5 C 178.004,670.831 184.171,677.497 181,692.5C 179.855,695.477 177.688,697.144 174.5,697.5C 169.043,694.129 163.043,692.629 156.5,693C 153.811,687.516 153.978,682.016 157,676.5C 158.812,675.023 160.645,673.69 162.5,672.5 Z"/></g>
<g><path style="opacity:1" fill="#0a0a0b" d="M 329.5,723.5 C 340.511,723.718 343.511,728.884 338.5,739C 330.993,741.197 326.993,738.197 326.5,730C 326.391,727.288 327.391,725.122 329.5,723.5 Z"/></g>
<g><path style="opacity:1" fill="#0c0c0e" d="M 348.5,722.5 C 354.913,721.747 357.913,724.58 357.5,731C 356.871,739.561 352.705,742.061 345,738.5C 342.276,732.266 343.442,726.932 348.5,722.5 Z"/></g>
<g><path style="opacity:1" fill="#0d0d0f" d="M 362.5,734.5 C 371.46,734.847 373.96,739.18 370,747.5C 365.884,752.249 361.551,752.582 357,748.5C 355.578,745.97 355.245,743.303 356,740.5C 358.063,738.266 360.229,736.266 362.5,734.5 Z"/></g>
<g><path style="opacity:1" fill="#111014" d="M 424.5,709.5 C 430.299,708.651 434.799,710.651 438,715.5C 448.049,713.042 452.882,717.042 452.5,727.5C 458.605,730.943 460.105,735.943 457,742.5C 456.167,743.333 455.333,744.167 454.5,745C 450.532,745.942 446.532,746.775 442.5,747.5C 438.378,757.079 432.378,758.579 424.5,752C 420.767,751.934 417.267,751.101 414,749.5C 412.228,744.916 412.061,740.249 413.5,735.5C 406.873,733.261 404.04,728.594 405,721.5C 407.822,715.649 412.322,713.982 418.5,716.5C 419.833,713.507 421.833,711.173 424.5,709.5 Z"/></g>
<g><path style="opacity:1" fill="#e2e1e6" d="M 425.5,730.5 C 439.556,732.776 442.889,739.942 435.5,752C 431.671,752.758 428.338,751.758 425.5,749C 415.152,749.176 412.652,744.676 418,735.5C 420.17,733.177 422.67,731.51 425.5,730.5 Z"/></g>
<g><path style="opacity:1" fill="#e2e1e6" d="M 410.5,718.5 C 419.829,718.818 422.495,723.151 418.5,731.5C 414.474,733.326 411.307,732.326 409,728.5C 408.037,724.851 408.537,721.518 410.5,718.5 Z"/></g>
<g><path style="opacity:1" fill="#e0dfe4" d="M 440.5,717.5 C 448.509,717.864 450.509,721.531 446.5,728.5C 440.834,733.272 437.167,732.105 435.5,725C 435.782,721.556 437.448,719.056 440.5,717.5 Z"/></g>
<g><path style="opacity:1" fill="#e0dfe4" d="M 426.5,712.5 C 433.612,713.721 435.779,717.721 433,724.5C 427.189,729.303 423.689,727.969 422.5,720.5C 422.282,716.934 423.616,714.268 426.5,712.5 Z"/></g>
<g><path style="opacity:1" fill="#e0dfe4" d="M 446.5,730.5 C 453.163,729.333 455.997,731.999 455,738.5C 452.459,743.069 448.625,744.569 443.5,743C 440.184,737.703 441.184,733.536 446.5,730.5 Z"/></g>
<g><path style="opacity:1" fill="#0b0a0c" d="M 83.5,738.5 C 92.3285,737.839 95.4951,741.839 93,750.5C 89.8191,756.252 85.8191,756.919 81,752.5C 78.4983,747.172 79.3317,742.506 83.5,738.5 Z"/></g>
<g><path style="opacity:1" fill="#09090b" d="M 316.5,734.5 C 321.476,734.238 325.309,736.238 328,740.5C 329.291,748.788 325.791,751.955 317.5,750C 311.34,744.97 311.007,739.803 316.5,734.5 Z"/></g>
<g><path style="opacity:1" fill="#0b0b0c" d="M 337.5,743.5 C 351.003,742.835 357.169,749.168 356,762.5C 355.215,764.286 354.049,765.786 352.5,767C 348.91,767.296 345.41,766.796 342,765.5C 330.783,769.632 326.116,765.632 328,753.5C 330.022,748.98 333.189,745.647 337.5,743.5 Z"/></g>
<g><path style="opacity:1" fill="#0a0a0b" d="M 66.5,745.5 C 73.3908,744.731 77.3908,747.731 78.5,754.5C 77.9616,760.863 74.6282,763.029 68.5,761C 63.8451,758.103 62.3451,753.937 64,748.5C 64.6979,747.309 65.5313,746.309 66.5,745.5 Z"/></g>
<g><path style="opacity:1" fill="#0a0a0c" d="M 101.5,743.5 C 110.46,743.847 112.96,748.18 109,756.5C 104.959,761.313 100.625,761.646 96,757.5C 94.3488,751.36 96.1822,746.694 101.5,743.5 Z"/></g>
<g><path style="opacity:1" fill="#0e0e0f" d="M 110.5,758.5 C 118.045,757.875 121.212,761.208 120,768.5C 117.081,774.025 112.581,775.858 106.5,774C 103.806,771.347 102.973,768.18 104,764.5C 106.063,762.266 108.229,760.266 110.5,758.5 Z"/></g>
<g><path style="opacity:1" fill="#0a0a0b" d="M 81.5,760.5 C 98.1306,759.466 103.964,766.799 99,782.5C 94.7644,787.75 90.5978,787.583 86.5,782C 83.1667,781.667 79.8333,781.333 76.5,781C 75.0692,780.535 73.9025,779.701 73,778.5C 71.8114,770.546 74.6448,764.546 81.5,760.5 Z"/></g>
<g><path style="opacity:1" fill="#131215" d="M -0.5,798.5 C -0.5,796.833 -0.5,795.167 -0.5,793.5C 0.856588,794.685 2.35659,795.685 4,796.5C 8.84743,794.062 14.0141,792.895 19.5,793C 23.1166,786.125 21.7832,780.458 15.5,776C 9.15762,774.318 3.82428,775.818 -0.5,780.5C -0.5,778.167 -0.5,775.833 -0.5,773.5C 5.03517,772.092 6.53517,768.758 4,763.5C 2.87099,761.859 1.37099,760.859 -0.5,760.5C -0.5,759.167 -0.5,757.833 -0.5,756.5C 0.915003,757.289 2.415,757.956 4,758.5C 5.52283,756.646 7.35616,755.146 9.5,754C 16.2338,752.451 20.7338,754.951 23,761.5C 23.8926,760.919 24.8926,760.585 26,760.5C 34.0642,762.456 36.7309,767.456 34,775.5C 32.395,779.276 29.5616,781.276 25.5,781.5C 26.2292,786.485 25.2292,790.985 22.5,795C 15.9698,795.848 9.63647,797.348 3.5,799.5C 2.07546,799.377 0.74213,799.043 -0.5,798.5 Z"/></g>
<g><path style="opacity:1" fill="#e2e1e5" d="M 10.5,756.5 C 17.8085,756.666 20.3085,760.333 18,767.5C 17.6258,768.416 17.1258,769.25 16.5,770C 8.90496,771.93 5.73829,769.097 7,761.5C 7.99728,759.677 9.16394,758.01 10.5,756.5 Z"/></g>
<g><path style="opacity:1" fill="#e3e2e7" d="M -0.5,760.5 C 1.37099,760.859 2.87099,761.859 4,763.5C 6.53517,768.758 5.03517,772.092 -0.5,773.5C -0.5,769.167 -0.5,764.833 -0.5,760.5 Z"/></g>
<g><path style="opacity:1" fill="#070709" d="M 506.5,763.5 C 516.309,763.155 519.143,767.488 515,776.5C 511.294,781.268 507.294,781.601 503,777.5C 501.608,772.093 502.774,767.426 506.5,763.5 Z"/></g>
<g><path style="opacity:1" fill="#0f0f10" d="M 488.5,765.5 C 496.908,765.75 500.408,770.083 499,778.5C 498.535,779.931 497.701,781.097 496.5,782C 487.933,783.769 484.1,780.269 485,771.5C 485.926,769.308 487.093,767.308 488.5,765.5 Z"/></g>
<g><path style="opacity:1" fill="#e0dfe4" d="M 21.5,764.5 C 29.4374,762.606 32.6041,765.606 31,773.5C 27.7211,779.091 23.7211,779.758 19,775.5C 17.9464,771.345 18.7798,767.678 21.5,764.5 Z"/></g>
<g><path style="opacity:1" fill="#0a0a0c" d="M 522.5,772.5 C 534.32,774.604 535.653,779.77 526.5,788C 517.256,789.762 514.09,786.262 517,777.5C 518.73,775.598 520.563,773.931 522.5,772.5 Z"/></g>
<g><path style="opacity:1" fill="#161618" d="M 193.5,745.5 C 198.014,745.073 202.181,746.073 206,748.5C 214.908,743.04 220.408,745.374 222.5,755.5C 232.51,756.707 235.343,762.041 231,771.5C 228.194,774.603 224.694,776.27 220.5,776.5C 220.293,787.504 215.126,791.17 205,787.5C 194.049,791.406 188.883,787.406 189.5,775.5C 179.168,775.134 175.335,769.801 178,759.5C 180.697,756.13 184.197,754.796 188.5,755.5C 189.085,751.663 190.752,748.33 193.5,745.5 Z"/></g>
<g><path style="opacity:1" fill="#e2e1e6" d="M 182.5,759.5 C 192.374,758.615 195.374,762.615 191.5,771.5C 185.118,773.474 181.451,771.141 180.5,764.5C 180.437,762.486 181.103,760.819 182.5,759.5 Z"/></g>
<g><path style="opacity:1" fill="#e2e1e6" d="M 200.5,766.5 C 212.319,765.485 217.486,770.818 216,782.5C 215.535,783.931 214.701,785.097 213.5,786C 210.51,785.848 207.51,785.348 204.5,784.5C 193.995,787.151 190.495,783.151 194,772.5C 195.494,769.686 197.66,767.686 200.5,766.5 Z"/></g>
<g><path style="opacity:1" fill="#e3e2e7" d="M 220.5,759.5 C 228,758.166 230.833,761.166 229,768.5C 225.569,772.894 221.569,773.561 217,770.5C 215.518,765.774 216.685,762.107 220.5,759.5 Z"/></g>
<g><path style="opacity:1" fill="#dfdee2" d="M 195.5,748.5 C 202.632,748.802 205.465,752.469 204,759.5C 200.383,764.815 196.717,764.815 193,759.5C 191.812,755.259 192.645,751.592 195.5,748.5 Z"/></g>
<g><path style="opacity:1" fill="#dfdee2" d="M 211.5,748.5 C 218.109,749.258 220.276,752.925 218,759.5C 212.56,765.235 208.727,764.402 206.5,757C 206.525,753.105 208.192,750.272 211.5,748.5 Z"/></g>
<g><path style="opacity:1" fill="#e2e2e6" d="M -0.5,793.5 C -0.5,789.167 -0.5,784.833 -0.5,780.5C 3.82428,775.818 9.15762,774.318 15.5,776C 21.7832,780.458 23.1166,786.125 19.5,793C 14.0141,792.895 8.84743,794.062 4,796.5C 2.35659,795.685 0.856588,794.685 -0.5,793.5 Z"/></g>
<g><path style="opacity:1" fill="#070708" d="M 497.5,784.5 C 510.51,783.022 517.01,788.688 517,801.5C 512.751,813.019 506.917,814.186 499.5,805C 489.24,804.301 486.407,799.468 491,790.5C 493.063,788.266 495.229,786.266 497.5,784.5 Z"/></g>
<g><path style="opacity:1" fill="#0c0c0e" d="M 526.5,789.5 C 531.287,789.146 535.121,790.812 538,794.5C 538.086,801.081 534.752,804.415 528,804.5C 521.928,804.427 519.595,801.427 521,795.5C 522.36,792.977 524.193,790.977 526.5,789.5 Z"/></g>
<g><path style="opacity:1" fill="#0a090b" d="M 368.5,807.5 C 377.648,807.095 381.148,811.428 379,820.5C 377.309,824.213 374.475,825.379 370.5,824C 364.881,819.115 364.214,813.615 368.5,807.5 Z"/></g>
<g><path style="opacity:1" fill="#0e0e0f" d="M 386.5,807.5 C 389.187,807.336 391.854,807.503 394.5,808C 398.748,813.862 398.081,819.195 392.5,824C 383.906,825.058 380.739,821.225 383,812.5C 384.176,810.804 385.343,809.138 386.5,807.5 Z"/></g>
<g><path style="opacity:1" fill="#0a0b0c" d="M 399.5,819.5 C 408.347,817.63 411.847,820.963 410,829.5C 407.775,834.58 403.942,836.413 398.5,835C 393.297,829.591 393.63,824.424 399.5,819.5 Z"/></g>
<g><path style="opacity:1" fill="#0b0b0c" d="M 354.5,819.5 C 361.84,818.326 366.173,821.326 367.5,828.5C 364.467,836.423 359.8,837.423 353.5,831.5C 350.526,827.098 350.859,823.098 354.5,819.5 Z"/></g>
<g><path style="opacity:1" fill="#070708" d="M 377.5,827.5 C 393.436,828.41 398.436,836.076 392.5,850.5C 388.607,851.561 384.773,851.228 381,849.5C 369.089,853.489 364.755,849.155 368,836.5C 369.832,832.016 372.999,829.016 377.5,827.5 Z"/></g>
<g><path style="opacity:1" fill="#121215" d="M 262.5,833.5 C 267.936,832.387 271.936,834.22 274.5,839C 277.46,838.68 280.46,838.68 283.5,839C 285.848,839.346 287.681,840.513 289,842.5C 289.179,845.553 289.679,848.553 290.5,851.5C 292.753,852.253 294.587,853.586 296,855.5C 297.422,867.412 292.255,872.578 280.5,871C 279.244,876.339 275.911,879.506 270.5,880.5C 268.045,880.106 266.045,878.94 264.5,877C 251.811,877.47 247.477,871.636 251.5,859.5C 243.551,856.848 241.051,851.514 244,843.5C 247.359,839.469 251.525,838.469 256.5,840.5C 258.523,838.147 260.523,835.814 262.5,833.5 Z"/></g>
<g><path style="opacity:1" fill="#dfdee3" d="M 264.5,836.5 C 271.612,837.721 273.779,841.721 271,848.5C 265.189,853.303 261.689,851.969 260.5,844.5C 260.282,840.934 261.616,838.268 264.5,836.5 Z"/></g>
<g><path style="opacity:1" fill="#070708" d="M 161.5,841.5 C 170.077,840.935 173.244,844.935 171,853.5C 168.928,858.143 165.428,859.643 160.5,858C 156.325,852.231 156.658,846.731 161.5,841.5 Z"/></g>
<g><path style="opacity:1" fill="#08080a" d="M 143.5,843.5 C 154.548,843.755 157.548,848.921 152.5,859C 144.95,861.146 140.95,858.146 140.5,850C 140.32,847.198 141.32,845.031 143.5,843.5 Z"/></g>
<g><path style="opacity:1" fill="#e1e0e5" d="M 248.5,842.5 C 258.195,843.005 260.862,847.505 256.5,856C 250.31,857.581 246.976,855.248 246.5,849C 246.482,846.59 247.149,844.423 248.5,842.5 Z"/></g>
<g><path style="opacity:1" fill="#dedde2" d="M 278.5,841.5 C 286.825,842.325 288.659,846.325 284,853.5C 275.479,857.657 272.146,854.991 274,845.5C 275.397,843.93 276.897,842.596 278.5,841.5 Z"/></g>
<g><path style="opacity:1" fill="#0b0b0c" d="M 177.5,851.5 C 186.096,852.27 188.596,856.603 185,864.5C 181.139,868.813 176.806,869.48 172,866.5C 169.316,859.864 171.149,854.864 177.5,851.5 Z"/></g>
<g><path style="opacity:1" fill="#0b0b0c" d="M 130.5,856.5 C 139.001,855.51 143.168,859.177 143,867.5C 142.535,868.931 141.701,870.097 140.5,871C 133.055,872.699 128.722,869.866 127.5,862.5C 127.467,859.898 128.467,857.898 130.5,856.5 Z"/></g>
<g><path style="opacity:1" fill="#e1e1e5" d="M 260.5,855.5 C 271.852,853.702 277.352,858.369 277,869.5C 274.387,877.414 269.887,878.58 263.5,873C 255.585,874.418 252.418,871.252 254,863.5C 255.305,860.039 257.471,857.372 260.5,855.5 Z"/></g>
<g><path style="opacity:1" fill="#141316" d="M 521.5,845.5 C 527.072,845.282 531.072,847.615 533.5,852.5C 544.571,849.035 549.237,853.035 547.5,864.5C 555.694,866.609 557.527,871.276 553,878.5C 548.868,883.048 543.701,884.715 537.5,883.5C 536.409,890.423 532.409,893.256 525.5,892C 522.116,889.063 518.116,887.729 513.5,888C 511.714,887.215 510.214,886.049 509,884.5C 508.337,881.131 508.504,877.797 509.5,874.5C 505.818,871.977 502.985,868.644 501,864.5C 500.266,853.902 505.099,849.735 515.5,852C 517.027,849.31 519.027,847.143 521.5,845.5 Z"/></g>
<g><path style="opacity:1" fill="#dedee2" d="M 506.5,855.5 C 514.164,854.666 517.664,858 517,865.5C 510.39,871.288 506.223,869.788 504.5,861C 504.395,858.822 505.061,856.988 506.5,855.5 Z"/></g>
<g><path style="opacity:1" fill="#e1e0e5" d="M 535.5,854.5 C 542.493,852.996 545.327,855.663 544,862.5C 541.078,867.822 537.078,868.822 532,865.5C 530.662,860.96 531.829,857.293 535.5,854.5 Z"/></g>
<g><path style="opacity:1" fill="#e2e1e6" d="M 521.5,849.5 C 528.745,848.963 531.578,852.296 530,859.5C 528.179,862.991 525.346,864.157 521.5,863C 520.333,862.5 519.5,861.667 519,860.5C 517.812,856.259 518.645,852.592 521.5,849.5 Z"/></g>
<g><path style="opacity:1" fill="#e4e3e7" d="M 284.5,854.5 C 290.873,853.729 293.706,856.396 293,862.5C 290.459,867.069 286.625,868.569 281.5,867C 278.22,861.778 279.22,857.612 284.5,854.5 Z"/></g>
<g><path style="opacity:1" fill="#080809" d="M 154.5,862.5 C 167.492,862.323 173.325,868.656 172,881.5C 171.535,882.931 170.701,884.097 169.5,885C 166.145,885.546 162.812,885.379 159.5,884.5C 156.411,885.21 153.411,886.21 150.5,887.5C 147.129,886.96 145.295,884.96 145,881.5C 142.919,872.327 146.086,865.994 154.5,862.5 Z"/></g>
<g><path style="opacity:1" fill="#e0e0e4" d="M 519.5,867.5 C 534.564,867.524 538.897,874.358 532.5,888C 530.635,889.301 528.635,889.635 526.5,889C 523.116,886.063 519.116,884.729 514.5,885C 510.765,881.116 510.598,876.949 514,872.5C 515.73,870.598 517.563,868.931 519.5,867.5 Z"/></g>
<g><path style="opacity:1" fill="#dfdee3" d="M 541.5,867.5 C 550.929,866.082 553.596,869.582 549.5,878C 540.871,882.696 537.038,880.196 538,870.5C 539.145,869.364 540.312,868.364 541.5,867.5 Z"/></g>
<g><path style="opacity:1" fill="#111112" d="M 485.5,919.5 C 495.349,920.528 497.849,925.528 493,934.5C 489.603,937.981 485.936,938.314 482,935.5C 479.276,929.266 480.442,923.932 485.5,919.5 Z"/></g>
<g><path style="opacity:1" fill="#121215" d="M 36.5,893.5 C 41.3224,893.911 45.3224,895.911 48.5,899.5C 58.3324,897.348 62.8324,901.348 62,911.5C 69.7999,914.794 71.4665,920.127 67,927.5C 62.7592,930.727 57.9259,932.227 52.5,932C 49.0319,941.188 43.3653,942.855 35.5,937C 24.4335,937.603 20.4335,932.603 23.5,922C 20.3085,919.807 17.8085,916.973 16,913.5C 14.0125,902.421 18.5125,897.921 29.5,900C 31.0769,896.92 33.4102,894.753 36.5,893.5 Z"/></g>
<g><path style="opacity:1" fill="#e1e0e5" d="M 55.5,915.5 C 65.8566,914.509 68.1899,918.342 62.5,927C 54.7912,930.285 51.2912,927.785 52,919.5C 53.0319,917.973 54.1986,916.64 55.5,915.5 Z"/></g>
<g><path style="opacity:1" fill="#e2e1e5" d="M 33.5,915.5 C 48.6143,915.568 52.9477,922.401 46.5,936C 42.8546,938.339 39.8546,937.672 37.5,934C 28.0225,935.525 24.5225,931.691 27,922.5C 28.6941,919.642 30.8607,917.309 33.5,915.5 Z"/></g>
<g><path style="opacity:1" fill="#e0e0e4" d="M 20.5,903.5 C 28.1128,902.614 31.6128,905.947 31,913.5C 24.5171,919.36 20.3504,917.86 18.5,909C 18.7579,906.991 19.4245,905.157 20.5,903.5 Z"/></g>
<g><path style="opacity:1" fill="#e3e2e6" d="M 49.5,902.5 C 56.4933,900.996 59.3267,903.663 58,910.5C 54.7706,916.261 50.7706,916.927 46,912.5C 45.3333,910.5 45.3333,908.5 46,906.5C 47.3756,905.295 48.5423,903.962 49.5,902.5 Z"/></g>
<g><path style="opacity:1" fill="#e2e1e6" d="M 35.5,897.5 C 42.7447,896.963 45.578,900.296 44,907.5C 40.8295,912.414 37.1628,912.747 33,908.5C 31.8118,904.259 32.6451,900.592 35.5,897.5 Z"/></g>
<g><path style="opacity:1" fill="#0c0c0d" d="M 466.5,920.5 C 473.862,918.704 477.529,921.538 477.5,929C 478.058,933.738 476.058,936.571 471.5,937.5C 465.102,935.042 462.602,930.376 464,923.5C 465.045,922.627 465.878,921.627 466.5,920.5 Z"/></g>
<g><path style="opacity:1" fill="#131315" d="M 374.5,905.5 C 376.927,905.523 379.26,906.023 381.5,907C 383.029,908.862 384.863,910.362 387,911.5C 397.014,909.181 401.68,913.181 401,923.5C 409.107,928.883 409.607,935.05 402.5,942C 399.009,943.599 395.509,943.766 392,942.5C 388.798,952.536 382.965,954.703 374.5,949C 363.172,949.505 359.172,944.339 362.5,933.5C 352.857,928.432 351.19,921.599 357.5,913C 360.396,911.189 363.396,911.022 366.5,912.5C 369.186,910.144 371.853,907.811 374.5,905.5 Z"/></g>
<g><path style="opacity:1" fill="#dddde1" d="M 388.5,914.5 C 395.442,912.943 398.275,915.61 397,922.5C 394.774,926.861 391.274,928.361 386.5,927C 382.627,922.204 383.294,918.038 388.5,914.5 Z"/></g>
<g><path style="opacity:1" fill="#dedde2" d="M 360.5,914.5 C 367.978,915.104 370.811,919.104 369,926.5C 364.54,930.687 360.873,930.02 358,924.5C 356.861,920.579 357.695,917.246 360.5,914.5 Z"/></g>
<g><path style="opacity:1" fill="#e0dfe4" d="M 374.5,909.5 C 380.119,908.451 383.119,910.785 383.5,916.5C 382.076,923.382 378.409,925.048 372.5,921.5C 370.774,916.98 371.441,912.98 374.5,909.5 Z"/></g>
<g><path style="opacity:1" fill="#e0e1e5" d="M 371.5,927.5 C 385.234,926.39 390.401,932.39 387,945.5C 385.289,948.58 382.789,949.746 379.5,949C 376.065,945.181 371.731,943.515 366.5,944C 364.522,941.503 364.022,938.669 365,935.5C 366.305,932.039 368.471,929.372 371.5,927.5 Z"/></g>
<g><path style="opacity:1" fill="#0e0d10" d="M 453.5,931.5 C 464.042,931.825 467.375,936.658 463.5,946C 453.55,948.722 449.05,944.889 450,934.5C 451.145,933.364 452.312,932.364 453.5,931.5 Z"/></g>
<g><path style="opacity:1" fill="#dedde2" d="M 395.5,926.5 C 402.4,925.895 405.233,928.895 404,935.5C 400.257,941.029 395.924,941.695 391,937.5C 390.333,935.167 390.333,932.833 391,930.5C 392.667,929.267 394.167,927.933 395.5,926.5 Z"/></g>
<g><path style="opacity:1" fill="#0e0e0f" d="M 499.5,931.5 C 508.111,931.592 510.944,935.592 508,943.5C 501.531,950.78 496.365,950.113 492.5,941.5C 493.304,937.04 495.637,933.707 499.5,931.5 Z"/></g>
<g><path style="opacity:1" fill="#080809" d="M 474.5,940.5 C 488.674,939.173 494.841,945.506 493,959.5C 492.215,961.286 491.049,962.786 489.5,964C 485.839,963.846 482.173,963.346 478.5,962.5C 475.547,962.651 472.714,963.317 470,964.5C 468.739,964.241 467.739,963.574 467,962.5C 462.999,952.721 465.499,945.388 474.5,940.5 Z"/></g>
<g><path style="opacity:1" fill="#0d0d0e" d="M 287.5,942.5 C 297.083,941.606 300.583,945.939 298,955.5C 295.893,959.501 292.727,960.501 288.5,958.5C 283.682,953.336 283.349,948.002 287.5,942.5 Z"/></g>
<g><path style="opacity:1" fill="#0b0b0d" d="M 305.5,942.5 C 315.012,941.193 318.179,945.193 315,954.5C 313.287,959.038 310.12,960.538 305.5,959C 303.667,958.5 302.5,957.333 302,955.5C 300.668,950.415 301.835,946.081 305.5,942.5 Z"/></g>
<g><path style="opacity:1" fill="#0a0a0b" d="M 272.5,954.5 C 276.96,953.885 280.96,954.885 284.5,957.5C 288.383,966.544 285.383,970.377 275.5,969C 270.257,965.04 269.257,960.207 272.5,954.5 Z"/></g>
<g><path style="opacity:1" fill="#0d0d0e" d="M 320.5,953.5 C 328.877,953.394 331.71,957.394 329,965.5C 322.212,972.897 317.045,972.064 313.5,963C 314.516,958.823 316.85,955.656 320.5,953.5 Z"/></g>
<g><path style="opacity:1" fill="#0d0d0f" d="M 77.5,957.5 C 86.1532,956.987 89.6532,960.987 88,969.5C 80.5536,975.705 76.0536,973.872 74.5,964C 75.2594,961.735 76.2594,959.568 77.5,957.5 Z"/></g>
<g><path style="opacity:1" fill="#0c0c0e" d="M 95.5,954.5 C 104.957,955.817 106.957,960.484 101.5,968.5C 95.3127,972.306 91.6461,970.639 90.5,963.5C 90.9039,959.771 92.5706,956.771 95.5,954.5 Z"/></g>
<g><path style="opacity:1" fill="#080809" d="M 295.5,962.5 C 308.982,961.814 315.149,968.148 314,981.5C 313.215,983.286 312.049,984.786 310.5,986C 306.91,986.296 303.41,985.796 300,984.5C 296.955,984.959 293.955,985.626 291,986.5C 288.496,985.849 287.163,984.182 287,981.5C 286.333,977.833 286.333,974.167 287,970.5C 289.157,967.024 291.99,964.357 295.5,962.5 Z"/></g>
<g><path style="opacity:1" fill="#0c0c0d" d="M 109.5,963.5 C 117.098,962.725 119.931,966.058 118,973.5C 115.179,977.663 111.345,979.163 106.5,978C 102.059,972.16 103.059,967.327 109.5,963.5 Z"/></g>
<g><path style="opacity:1" fill="#09090a" d="M 86.5,974.5 C 99.0518,973.559 105.218,979.226 105,991.5C 100.746,1001.07 95.2462,1001.9 88.5,994C 78.4725,992.986 75.9725,988.152 81,979.5C 82.7297,977.598 84.563,975.931 86.5,974.5 Z"/></g>
<g><path style="opacity:1" fill="#0a0a0c" d="M 113.5,979.5 C 121.163,978.042 124.663,981.042 124,988.5C 121.103,993.155 116.937,994.655 111.5,993C 107.088,987.714 107.755,983.214 113.5,979.5 Z"/></g>
<g><path style="opacity:1" fill="#151518" d="M 180.5,942.5 C 184.901,941.87 188.568,943.203 191.5,946.5C 196.705,941.212 201.871,941.212 207,946.5C 208.128,948.345 208.628,950.345 208.5,952.5C 217.648,953.43 220.815,958.43 218,967.5C 215.309,971.762 211.476,973.762 206.5,973.5C 207.182,980.846 204.016,985.179 197,986.5C 192.829,985.221 188.662,985.221 184.5,986.5C 180.896,986.451 178.396,984.784 177,981.5C 175.921,978.937 175.421,976.271 175.5,973.5C 168.089,973.15 164.089,969.317 163.5,962C 163.796,955.158 167.463,951.991 174.5,952.5C 174.992,948.169 176.992,944.836 180.5,942.5 Z"/></g>
<g><path style="opacity:1" fill="#e3e2e6" d="M 186.5,963.5 C 198.319,962.485 203.486,967.818 202,979.5C 201.535,980.931 200.701,982.097 199.5,983C 196.567,983.296 193.734,982.796 191,981.5C 188.611,981.963 186.277,982.63 184,983.5C 182.739,983.241 181.739,982.574 181,981.5C 177.709,973.818 179.542,967.818 186.5,963.5 Z"/></g>
<g><path style="opacity:1" fill="#e2e1e6" d="M 168.5,956.5 C 177.806,955.31 181.139,959.143 178.5,968C 171.797,970.815 167.797,968.649 166.5,961.5C 166.437,959.486 167.103,957.819 168.5,956.5 Z"/></g>
<g><path style="opacity:1" fill="#e2e1e6" d="M 206.5,956.5 C 214,955.166 216.833,958.166 215,965.5C 206.836,973.301 202.836,971.634 203,960.5C 204.032,958.973 205.199,957.64 206.5,956.5 Z"/></g>
<g><path style="opacity:1" fill="#e0dfe4" d="M 181.5,945.5 C 188.969,946.082 191.802,950.082 190,957.5C 185.939,961.737 182.272,961.403 179,956.5C 177.946,952.345 178.78,948.678 181.5,945.5 Z"/></g>
<g><path style="opacity:1" fill="#e2e1e6" d="M 196.5,946.5 C 204.003,945.853 206.503,949.186 204,956.5C 200.74,961.285 197.073,961.619 193,957.5C 191.662,952.96 192.829,949.293 196.5,946.5 Z"/></g>
</svg>
