<?xml version="1.0" encoding="UTF-8"?>
<!DOCTYPE svg PUBLIC "-//W3C//DTD SVG 1.1//EN" "http://www.w3.org/Graphics/SVG/1.1/DTD/svg11.dtd">
<svg xmlns="http://www.w3.org/2000/svg" version="1.1" width="564px" height="1002px" style="shape-rendering:geometricPrecision; text-rendering:geometricPrecision; image-rendering:optimizeQuality; fill-rule:evenodd; clip-rule:evenodd" xmlns:xlink="http://www.w3.org/1999/xlink">
<g><path style="opacity:1" fill="#4d4d4e" d="M 91.5,-0.5 C 145.5,-0.5 199.5,-0.5 253.5,-0.5C 249.81,4.18148 245.477,8.18148 240.5,11.5C 239.359,13.4213 239.192,15.4213 240,17.5C 253.85,33.5263 271.016,39.3597 291.5,35C 296.817,32.7292 302.15,30.5626 307.5,28.5C 331.798,20.3087 355.131,22.4754 377.5,35C 382.301,38.799 386.801,42.9657 391,47.5C 391.667,48.1667 391.667,48.8333 391,49.5C 382.227,40.6937 371.727,34.8603 359.5,32C 343.646,28.3221 327.98,28.9888 312.5,34C 302.711,38.3942 293.045,43.0609 283.5,48C 276.089,51.0338 268.422,52.0338 260.5,51C 240.206,48.5341 220.039,45.3674 200,41.5C 193.077,41.2148 187.244,43.5482 182.5,48.5C 181.06,51.2281 181.726,53.3948 184.5,55C 213.579,70.8617 243.912,73.8617 275.5,64C 287.904,57.4649 300.571,51.4649 313.5,46C 337.421,38.4762 360.421,40.4762 382.5,52C 387.606,56.4143 391.606,61.581 394.5,67.5C 393.566,68.5676 393.232,69.901 393.5,71.5C 390.951,71.5589 388.951,70.5589 387.5,68.5C 386.193,72.138 384.526,75.4713 382.5,78.5C 376.575,71.4197 368.908,68.0863 359.5,68.5C 351.45,69.3388 343.45,70.5055 335.5,72C 326.158,72.5664 316.825,72.3997 307.5,71.5C 301.811,71.7432 296.144,72.2432 290.5,73C 284.746,74.9748 279.079,76.8081 273.5,78.5C 267.326,79.2203 261.326,80.2203 255.5,81.5C 230.976,82.9615 207.642,78.4615 185.5,68C 179.756,66.9872 174.089,65.6539 168.5,64C 149.469,63.1095 130.469,63.4428 111.5,65C 104.108,66.2812 97.9409,69.7812 93,75.5C 90.4534,82.7024 91.4534,89.3691 96,95.5C 103.615,105.218 113.115,112.385 124.5,117C 132.5,119.333 140.5,121.667 148.5,124C 177.883,127.847 207.383,130.347 237,131.5C 247.219,131.326 257.385,130.493 267.5,129C 276.629,125.932 285.629,122.599 294.5,119C 301.283,117.296 307.117,118.796 312,123.5C 311.991,127.554 311.324,131.554 310,135.5C 307.746,139.002 305.246,142.336 302.5,145.5C 302.167,144.833 301.833,144.167 301.5,143.5C 302.819,139.906 303.319,136.239 303,132.5C 300.858,130.507 298.358,129.174 295.5,128.5C 289.015,130.205 282.682,132.372 276.5,135C 266.916,137.146 257.25,138.813 247.5,140C 221.131,141.204 194.798,142.871 168.5,145C 150.084,148.396 131.584,151.229 113,153.5C 103.162,153.333 93.6619,151.5 84.5,148C 81.9302,145.886 79.5968,143.553 77.5,141C 73.4168,138.479 70.9168,139.646 70,144.5C 68.4272,153.273 66.4272,161.94 64,170.5C 59.1999,196.231 59.5332,221.898 65,247.5C 71.4333,271.314 86.9333,284.814 111.5,288C 119.5,288.333 127.5,288.667 135.5,289C 136.973,289.71 137.64,290.876 137.5,292.5C 139.167,292.5 140.833,292.5 142.5,292.5C 146.572,291.117 150.572,291.284 154.5,293C 153.672,293.915 152.672,294.581 151.5,295C 152.416,295.278 153.082,295.778 153.5,296.5C 139.072,302.406 124.072,306.073 108.5,307.5C 96.7339,307.683 85.7339,305.016 75.5,299.5C 74.1667,298.833 72.8333,298.167 71.5,297.5C 71.2435,295.224 69.9102,294.057 67.5,294C 66.2008,291.184 64.2008,289.018 61.5,287.5C 61.1667,287.5 60.8333,287.5 60.5,287.5C 59.5669,284.356 57.9002,281.689 55.5,279.5C 53.3256,273.818 50.6589,268.484 47.5,263.5C 44.7719,250.127 41.9386,236.793 39,223.5C 38.1111,198.481 37.1111,173.481 36,148.5C 32.8788,135.255 26.8788,123.589 18,113.5C 13.8157,107.115 11.3157,100.115 10.5,92.5C 11.189,86.7426 12.3557,81.076 14,75.5C 19.2403,66.0271 25.2403,57.0271 32,48.5C 43.3462,36.6538 55.1795,25.3204 67.5,14.5C 69.6456,14.6964 69.8122,15.6964 68,17.5C 55.8745,29.4503 44.7078,42.1169 34.5,55.5C 35.0016,56.521 35.6683,56.6877 36.5,56C 47.9542,43.2792 60.6209,31.9459 74.5,22C 78.6667,17.8333 82.8333,13.6667 87,9.5C 88.7862,6.26353 90.2862,2.93019 91.5,-0.5 Z"/></g>
<g><path style="opacity:1" fill="#cccfd6" d="M 253.5,-0.5 C 286.167,-0.5 318.833,-0.5 351.5,-0.5C 352.097,5.95959 351.43,12.1263 349.5,18C 349.833,18.3333 350.167,18.6667 350.5,19C 345.166,18.9304 339.832,18.4304 334.5,17.5C 329.783,17.9495 325.116,18.6161 320.5,19.5C 319.571,18.3112 319.238,16.9778 319.5,15.5C 316.679,15.3159 315.012,16.6493 314.5,19.5C 310.955,20.7914 307.455,20.7914 304,19.5C 303.192,21.5787 303.359,23.5787 304.5,25.5C 306.213,25.8793 307.213,26.8793 307.5,28.5C 302.15,30.5626 296.817,32.7292 291.5,35C 271.016,39.3597 253.85,33.5263 240,17.5C 239.192,15.4213 239.359,13.4213 240.5,11.5C 245.477,8.18148 249.81,4.18148 253.5,-0.5 Z"/></g>
<g><path style="opacity:1" fill="#747479" d="M 399.5,-0.5 C 410.167,-0.5 420.833,-0.5 431.5,-0.5C 431.336,2.1873 431.503,4.85397 432,7.5C 435.781,16.1766 438.781,25.1766 441,34.5C 444.298,41.0074 447.298,47.674 450,54.5C 455.658,63.8248 463.492,70.6582 473.5,75C 480.739,77.31 488.073,79.31 495.5,81C 498.167,83 500.833,85 503.5,87C 506.629,90.7522 509.129,94.9188 511,99.5C 514.655,111.145 520.155,121.811 527.5,131.5C 529.775,134.389 532.608,135.056 536,133.5C 537.395,123.566 537.895,113.566 537.5,103.5C 540.361,91.0843 544.528,79.0843 550,67.5C 553.705,61.6363 558.205,56.6363 563.5,52.5C 563.5,105.167 563.5,157.833 563.5,210.5C 562.178,210.67 561.011,210.337 560,209.5C 550.911,195.059 540.245,181.726 528,169.5C 521.286,161.788 514.953,153.788 509,145.5C 503.034,135.26 498.034,124.593 494,113.5C 487.294,105.396 478.794,100.23 468.5,98C 450.226,88.3922 436.726,74.2255 428,55.5C 423.258,43.0232 418.258,30.6899 413,18.5C 409.45,11.4567 404.95,5.12337 399.5,-0.5 Z"/></g>
<g><path style="opacity:1" fill="#cccfd7" d="M 431.5,-0.5 C 475.5,-0.5 519.5,-0.5 563.5,-0.5C 563.5,17.1667 563.5,34.8333 563.5,52.5C 558.205,56.6363 553.705,61.6363 550,67.5C 544.528,79.0843 540.361,91.0843 537.5,103.5C 535.938,112.616 535.105,121.949 535,131.5C 532.541,132.649 530.041,132.649 527.5,131.5C 520.155,121.811 514.655,111.145 511,99.5C 509.129,94.9188 506.629,90.7522 503.5,87C 500.833,85 498.167,83 495.5,81C 488.073,79.31 480.739,77.31 473.5,75C 463.492,70.6582 455.658,63.8248 450,54.5C 447.298,47.674 444.298,41.0074 441,34.5C 438.781,25.1766 435.781,16.1766 432,7.5C 431.503,4.85397 431.336,2.1873 431.5,-0.5 Z"/></g>
<g><path style="opacity:1" fill="#737277" d="M 73.5,-0.5 C 79.5,-0.5 85.5,-0.5 91.5,-0.5C 90.2862,2.93019 88.7862,6.26353 87,9.5C 82.8333,13.6667 78.6667,17.8333 74.5,22C 60.6209,31.9459 47.9542,43.2792 36.5,56C 35.6683,56.6877 35.0016,56.521 34.5,55.5C 44.7078,42.1169 55.8745,29.4503 68,17.5C 69.8122,15.6964 69.6456,14.6964 67.5,14.5C 68.6871,13.4664 69.5204,12.133 70,10.5C 70.3333,10.8333 70.6667,11.1667 71,11.5C 71.4828,10.552 71.6495,9.55198 71.5,8.5C 74.6238,8.94286 76.9571,10.6095 78.5,13.5C 79.2309,11.5988 79.2309,9.59885 78.5,7.5C 77.5,7.5 76.5,7.5 75.5,7.5C 75.0372,4.77898 74.3705,2.11231 73.5,-0.5 Z"/></g>
<g><path style="opacity:1" fill="#caccd5" d="M 351.5,-0.5 C 353.5,-0.5 355.5,-0.5 357.5,-0.5C 364.055,2.32262 370.721,5.15596 377.5,8C 389.721,14.5538 398.887,24.0538 405,36.5C 411.622,51.0418 418.622,65.3751 426,79.5C 435.013,91.3468 445.513,101.68 457.5,110.5C 454.272,111.414 450.939,111.747 447.5,111.5C 447.5,116.833 447.5,122.167 447.5,127.5C 438.39,127.169 437.723,128.502 445.5,131.5C 446.192,130.975 446.692,130.308 447,129.5C 447.762,133.587 447.596,137.587 446.5,141.5C 435.27,127.756 423.77,114.089 412,100.5C 405.599,89.6922 399.765,78.6922 394.5,67.5C 391.606,61.581 387.606,56.4143 382.5,52C 360.421,40.4762 337.421,38.4762 313.5,46C 300.571,51.4649 287.904,57.4649 275.5,64C 243.912,73.8617 213.579,70.8617 184.5,55C 181.726,53.3948 181.06,51.2281 182.5,48.5C 187.244,43.5482 193.077,41.2148 200,41.5C 220.039,45.3674 240.206,48.5341 260.5,51C 268.422,52.0338 276.089,51.0338 283.5,48C 293.045,43.0609 302.711,38.3942 312.5,34C 327.98,28.9888 343.646,28.3221 359.5,32C 371.727,34.8603 382.227,40.6937 391,49.5C 391.667,48.8333 391.667,48.1667 391,47.5C 386.801,42.9657 382.301,38.799 377.5,35C 355.131,22.4754 331.798,20.3087 307.5,28.5C 307.213,26.8793 306.213,25.8793 304.5,25.5C 303.359,23.5787 303.192,21.5787 304,19.5C 307.455,20.7914 310.955,20.7914 314.5,19.5C 315.012,16.6493 316.679,15.3159 319.5,15.5C 319.238,16.9778 319.571,18.3112 320.5,19.5C 325.116,18.6161 329.783,17.9495 334.5,17.5C 339.832,18.4304 345.166,18.9304 350.5,19C 350.167,18.6667 349.833,18.3333 349.5,18C 351.43,12.1263 352.097,5.95959 351.5,-0.5 Z"/></g>
<g><path style="opacity:1" fill="#7b7c82" d="M 71.5,-0.5 C 72.1667,-0.5 72.8333,-0.5 73.5,-0.5C 74.3705,2.11231 75.0372,4.77898 75.5,7.5C 76.5,7.5 77.5,7.5 78.5,7.5C 79.2309,9.59885 79.2309,11.5988 78.5,13.5C 76.9571,10.6095 74.6238,8.94286 71.5,8.5C 71.6495,9.55198 71.4828,10.552 71,11.5C 70.6667,11.1667 70.3333,10.8333 70,10.5C 69.5204,12.133 68.6871,13.4664 67.5,14.5C 55.1795,25.3204 43.3462,36.6538 32,48.5C 25.2403,57.0271 19.2403,66.0271 14,75.5C 12.3557,81.076 11.189,86.7426 10.5,92.5C 11.3157,100.115 13.8157,107.115 18,113.5C 26.8788,123.589 32.8788,135.255 36,148.5C 37.1111,173.481 38.1111,198.481 39,223.5C 41.9386,236.793 44.7719,250.127 47.5,263.5C 41.2191,246.194 37.3858,228.194 36,209.5C 35.6667,192.5 35.3333,175.5 35,158.5C 34.0701,151.006 32.4035,143.673 30,136.5C 23.6793,126.533 17.3459,116.533 11,106.5C 6.79962,96.964 6.46629,87.2974 10,77.5C 17.7397,62.0172 27.9064,48.3505 40.5,36.5C 48.1667,29.1667 55.8333,21.8333 63.5,14.5C 67.4865,10.1863 70.1532,5.18634 71.5,-0.5 Z"/></g>
<g><path style="opacity:1" fill="#ccced6" d="M 215.5,84.5 C 215.918,85.2216 216.584,85.7216 217.5,86C 242.018,90.0134 266.018,88.0134 289.5,80C 295.167,79.3333 300.833,79.3333 306.5,80C 318.961,82.9213 331.294,83.088 343.5,80.5C 344.167,80.5 344.833,80.5 345.5,80.5C 352.891,79.0892 360.224,79.2558 367.5,81C 369.333,82.8333 371.167,84.6667 373,86.5C 373.801,92.3109 375.134,97.9775 377,103.5C 386.443,110.446 394.61,118.446 401.5,127.5C 402.492,130.779 402.659,134.112 402,137.5C 398.73,141.774 395.064,145.774 391,149.5C 389.632,152.186 388.299,154.853 387,157.5C 387,166.167 387,174.833 387,183.5C 385.257,185.321 383.757,187.321 382.5,189.5C 372.589,194.387 362.256,198.22 351.5,201C 333.498,205 315.498,209 297.5,213C 284.306,215.527 276.473,223.36 274,236.5C 273.956,253.69 266.122,265.69 250.5,272.5C 248.983,272.489 247.816,271.823 247,270.5C 246.692,271.308 246.192,271.975 245.5,272.5C 238.558,271.536 231.558,271.203 224.5,271.5C 224.663,269.143 224.497,266.81 224,264.5C 222.989,265.337 221.822,265.67 220.5,265.5C 212.885,264.04 205.051,263.373 197,263.5C 184.228,264.344 171.728,264.678 159.5,264.5C 159.5,262.167 159.5,259.833 159.5,257.5C 170.164,258.334 180.831,258.834 191.5,259C 181.034,256.239 170.368,255.073 159.5,255.5C 159.5,250.167 159.5,244.833 159.5,239.5C 164.845,239.313 170.178,238.98 175.5,238.5C 175.5,236.167 175.5,233.833 175.5,231.5C 192.805,229.834 210.138,228.501 227.5,227.5C 239.687,226.602 249.52,221.269 257,211.5C 261.186,205.263 265.186,198.929 269,192.5C 285.38,173.96 302.047,155.627 319,137.5C 322.38,131.993 323.38,125.993 322,119.5C 319.611,115.444 316.111,112.944 311.5,112C 297.148,108.947 283.815,111.28 271.5,119C 238.112,125.116 205.445,122.45 173.5,111C 164.192,106.037 155.692,99.8699 148,92.5C 146.391,86.5792 145.725,80.5792 146,74.5C 147.734,73.7511 149.567,73.2511 151.5,73C 159.5,72.3333 167.5,72.3333 175.5,73C 188.766,77.1371 202.1,80.9704 215.5,84.5 Z"/></g>
<g><path style="opacity:1" fill="#7a7a82" d="M 343.5,80.5 C 331.294,83.088 318.961,82.9213 306.5,80C 300.833,79.3333 295.167,79.3333 289.5,80C 266.018,88.0134 242.018,90.0134 217.5,86C 216.584,85.7216 215.918,85.2216 215.5,84.5C 226.097,86.1635 239.431,86.6635 255.5,86C 257.744,84.1116 257.744,82.6116 255.5,81.5C 261.326,80.2203 267.326,79.2203 273.5,78.5C 275.582,78.472 277.416,79.1387 279,80.5C 284.318,78.8559 289.818,78.0225 295.5,78C 297.676,77.8371 299.509,77.0037 301,75.5C 302.463,77.8853 304.629,78.8853 307.5,78.5C 309.1,78.4493 310.6,78.1159 312,77.5C 312.5,78 313,78.5 313.5,79C 323.498,79.611 333.498,80.111 343.5,80.5 Z"/></g>
<g><path style="opacity:1" fill="#cccfd6" d="M -0.5,-0.5 C 23.5,-0.5 47.5,-0.5 71.5,-0.5C 70.1532,5.18634 67.4865,10.1863 63.5,14.5C 55.8333,21.8333 48.1667,29.1667 40.5,36.5C 27.9064,48.3505 17.7397,62.0172 10,77.5C 6.46629,87.2974 6.79962,96.964 11,106.5C 17.3459,116.533 23.6793,126.533 30,136.5C 32.4035,143.673 34.0701,151.006 35,158.5C 35.3333,175.5 35.6667,192.5 36,209.5C 37.3858,228.194 41.2191,246.194 47.5,263.5C 48.6138,269.728 51.2805,275.061 55.5,279.5C 56.1514,282.803 57.818,285.47 60.5,287.5C 60.8333,287.5 61.1667,287.5 61.5,287.5C 63.1667,292.5 66.5,295.833 71.5,297.5C 72.8333,298.167 74.1667,298.833 75.5,299.5C 77.0945,302.26 79.4279,304.093 82.5,305C 94.4727,309.248 106.806,310.581 119.5,309C 127.494,306.726 135.494,304.559 143.5,302.5C 151.639,304.066 159.639,303.566 167.5,301C 166.376,300.751 165.376,300.251 164.5,299.5C 168.107,298.511 171.774,298.177 175.5,298.5C 175.5,300.167 175.5,301.833 175.5,303.5C 180.833,303.5 186.167,303.5 191.5,303.5C 192.087,309.303 191.42,314.803 189.5,320C 189.833,320.333 190.167,320.667 190.5,321C 188.941,321.98 187.274,322.813 185.5,323.5C 186.815,324.895 186.481,325.895 184.5,326.5C 182.286,324.076 181.286,324.743 181.5,328.5C 175.483,326.996 175.15,327.663 180.5,330.5C 179.167,330.833 177.833,331.167 176.5,331.5C 177.612,332.265 178.279,333.265 178.5,334.5C 164.383,346.495 149.383,357.328 133.5,367C 97.5636,375.476 63.8969,370.143 32.5,351C 22.884,339.883 11.884,330.383 -0.5,322.5C -0.5,214.833 -0.5,107.167 -0.5,-0.5 Z"/></g>
<g><path style="opacity:1" fill="#4d4d4e" d="M 357.5,-0.5 C 371.5,-0.5 385.5,-0.5 399.5,-0.5C 404.95,5.12337 409.45,11.4567 413,18.5C 418.258,30.6899 423.258,43.0232 428,55.5C 436.726,74.2255 450.226,88.3922 468.5,98C 478.794,100.23 487.294,105.396 494,113.5C 498.034,124.593 503.034,135.26 509,145.5C 514.953,153.788 521.286,161.788 528,169.5C 540.245,181.726 550.911,195.059 560,209.5C 561.011,210.337 562.178,210.67 563.5,210.5C 563.5,227.5 563.5,244.5 563.5,261.5C 550.206,260.616 537.706,263.283 526,269.5C 522.343,271.164 521.843,273.33 524.5,276C 529.167,276.333 533.833,276.667 538.5,277C 540.246,277.471 541.913,278.138 543.5,279C 550.158,279.5 556.825,279.666 563.5,279.5C 563.5,287.5 563.5,295.5 563.5,303.5C 502.605,293.29 441.938,294.457 381.5,307C 368.491,309.816 355.825,313.316 343.5,317.5C 333.417,319.784 323.417,322.451 313.5,325.5C 312.833,325.167 312.167,324.833 311.5,324.5C 313.993,322.42 316.659,320.586 319.5,319C 355.986,302.389 393.32,287.722 431.5,275C 438.803,271.683 446.136,268.35 453.5,265C 470.167,253.667 486.833,242.333 503.5,231C 510.85,225.99 516.35,219.49 520,211.5C 520.667,206.833 520.667,202.167 520,197.5C 517.437,189.807 514.103,182.474 510,175.5C 499.262,159.093 488.928,142.426 479,125.5C 472.561,119.372 465.395,114.372 457.5,110.5C 445.513,101.68 435.013,91.3468 426,79.5C 418.622,65.3751 411.622,51.0418 405,36.5C 398.887,24.0538 389.721,14.5538 377.5,8C 370.721,5.15596 364.055,2.32262 357.5,-0.5 Z"/></g>
<g><path style="opacity:1" fill="#7b7b82" d="M 401.5,127.5 C 394.61,118.446 386.443,110.446 377,103.5C 375.134,97.9775 373.801,92.3109 373,86.5C 371.167,84.6667 369.333,82.8333 367.5,81C 360.224,79.2558 352.891,79.0892 345.5,80.5C 348.768,79.1778 352.435,78.5112 356.5,78.5C 361.854,78.6523 367.187,78.9856 372.5,79.5C 372.34,81.1992 372.506,82.8659 373,84.5C 373.667,85.8333 374.333,85.8333 375,84.5C 376.698,86.2661 378.031,88.2661 379,90.5C 379.822,94.8758 380.822,99.2091 382,103.5C 382.333,102.833 382.667,102.167 383,101.5C 384.734,102.249 386.567,102.749 388.5,103C 388.799,104.32 388.966,105.82 389,107.5C 390.808,105.442 392.975,105.108 395.5,106.5C 395.863,108.911 394.863,110.411 392.5,111C 394.5,111.333 396.5,111.667 398.5,112C 396.955,113.688 395.955,115.688 395.5,118C 396.5,118.333 397.5,118.667 398.5,119C 399.061,120.676 400.061,122.009 401.5,123C 400.587,124.414 400.587,125.914 401.5,127.5 Z"/></g>
<g><path style="opacity:1" fill="#ccced6" d="M 457.5,110.5 C 465.395,114.372 472.561,119.372 479,125.5C 488.928,142.426 499.262,159.093 510,175.5C 514.103,182.474 517.437,189.807 520,197.5C 520.667,202.167 520.667,206.833 520,211.5C 516.35,219.49 510.85,225.99 503.5,231C 486.833,242.333 470.167,253.667 453.5,265C 446.136,268.35 438.803,271.683 431.5,275C 393.32,287.722 355.986,302.389 319.5,319C 316.659,320.586 313.993,322.42 311.5,324.5C 312.167,324.833 312.833,325.167 313.5,325.5C 323.417,322.451 333.417,319.784 343.5,317.5C 344.289,317.783 344.956,318.283 345.5,319C 348.667,319.167 351.833,319.333 355,319.5C 358.693,319.416 362.193,318.75 365.5,317.5C 366.192,318.025 366.692,318.692 367,319.5C 367.494,317.866 367.66,316.199 367.5,314.5C 372.833,314.5 378.167,314.5 383.5,314.5C 383.5,317.833 383.5,321.167 383.5,324.5C 384.097,325.139 384.93,325.472 386,325.5C 389.027,325.088 391.86,324.421 394.5,323.5C 407.565,321.287 420.565,319.62 433.5,318.5C 472.138,315.94 509.805,320.774 546.5,333C 552.09,334.419 557.757,335.252 563.5,335.5C 563.5,341.833 563.5,348.167 563.5,354.5C 556.794,354.552 550.128,354.052 543.5,353C 538.062,351.696 532.729,350.196 527.5,348.5C 481.863,331.865 435.53,329.532 388.5,341.5C 379.743,343.219 371.076,345.386 362.5,348C 339.439,358.026 317.773,370.359 297.5,385C 269.984,400.258 242.317,415.258 214.5,430C 189.621,445.736 169.288,465.903 153.5,490.5C 151.771,492.727 149.438,493.727 146.5,493.5C 146.093,487.141 147.259,481.141 150,475.5C 158.977,457.9 170.644,442.233 185,428.5C 185.688,427.668 185.521,427.002 184.5,426.5C 182.471,427.844 180.471,429.177 178.5,430.5C 177.387,429.306 176.387,427.973 175.5,426.5C 176.891,426.891 177.891,426.058 178.5,424C 177.551,423.383 176.718,423.549 176,424.5C 175.502,421.518 175.335,418.518 175.5,415.5C 180.299,416.554 184.965,416.387 189.5,415C 187.359,413.692 185.359,412.192 183.5,410.5C 186.009,409.079 188.343,407.412 190.5,405.5C 191.666,400.497 191.666,395.497 190.5,390.5C 191.317,387.34 192.984,384.673 195.5,382.5C 200.715,377.117 206.048,371.95 211.5,367C 228.195,354.146 245.195,341.646 262.5,329.5C 265.251,326.945 264.584,325.945 260.5,326.5C 257.17,326.837 255.504,325.337 255.5,322C 255.675,320.342 256.342,319.009 257.5,318C 256.643,317.311 255.977,316.478 255.5,315.5C 260.792,314.505 266.125,314.172 271.5,314.5C 271.5,316.167 271.5,317.833 271.5,319.5C 276.833,319.5 282.167,319.5 287.5,319.5C 287.5,314.167 287.5,308.833 287.5,303.5C 289.798,302.69 292.132,301.856 294.5,301C 295.833,300.333 295.833,299.667 294.5,299C 297.482,298.502 300.482,298.335 303.5,298.5C 303.777,295.552 303.444,292.719 302.5,290C 304.848,289.89 306.348,288.723 307,286.5C 311.066,287.464 315.233,287.797 319.5,287.5C 319.5,285.833 319.5,284.167 319.5,282.5C 322.365,282.945 324.865,282.278 327,280.5C 327.497,282.81 327.663,285.143 327.5,287.5C 330.167,287.5 332.833,287.5 335.5,287.5C 335.052,280.677 334.719,273.677 334.5,266.5C 337.911,262.04 338.244,257.373 335.5,252.5C 328.827,246.991 322.327,241.324 316,235.5C 315.613,231.835 317.113,229.002 320.5,227C 334.746,221.251 349.413,216.918 364.5,214C 382.215,213.439 399.882,213.773 417.5,215C 419.249,213.708 421.082,212.542 423,211.5C 425.699,206.503 427.199,201.17 427.5,195.5C 428.768,193.095 429.435,190.428 429.5,187.5C 430.203,185.284 431.536,183.451 433.5,182C 453.371,173.553 457.704,160.053 446.5,141.5C 447.596,137.587 447.762,133.587 447,129.5C 446.692,130.308 446.192,130.975 445.5,131.5C 437.723,128.502 438.39,127.169 447.5,127.5C 447.5,122.167 447.5,116.833 447.5,111.5C 450.939,111.747 454.272,111.414 457.5,110.5 Z"/></g>
<g><path style="opacity:1" fill="#737478" d="M 255.5,81.5 C 257.744,82.6116 257.744,84.1116 255.5,86C 239.431,86.6635 226.097,86.1635 215.5,84.5C 202.1,80.9704 188.766,77.1371 175.5,73C 167.5,72.3333 159.5,72.3333 151.5,73C 149.567,73.2511 147.734,73.7511 146,74.5C 145.725,80.5792 146.391,86.5792 148,92.5C 155.692,99.8699 164.192,106.037 173.5,111C 205.445,122.45 238.112,125.116 271.5,119C 283.815,111.28 297.148,108.947 311.5,112C 316.111,112.944 319.611,115.444 322,119.5C 323.38,125.993 322.38,131.993 319,137.5C 302.047,155.627 285.38,173.96 269,192.5C 265.186,198.929 261.186,205.263 257,211.5C 249.52,221.269 239.687,226.602 227.5,227.5C 209.432,227.002 191.432,227.835 173.5,230C 172.944,230.383 172.611,230.883 172.5,231.5C 166.964,232.68 161.631,234.513 156.5,237C 154.091,238.201 152.091,239.867 150.5,242C 145.82,244.53 141.154,244.697 136.5,242.5C 135.667,241.5 134.833,240.5 134,239.5C 133.333,234.167 133.333,228.833 134,223.5C 136.231,217.374 138.731,211.374 141.5,205.5C 153.449,191.345 168.115,180.845 185.5,174C 188.215,173.125 189.548,171.292 189.5,168.5C 175.584,167.313 161.917,168.813 148.5,173C 136.014,176.693 124.347,182.026 113.5,189C 112.619,189.708 111.953,190.542 111.5,191.5C 110.078,191.709 108.745,192.209 107.5,193C 104.325,196.508 100.825,199.675 97,202.5C 92.7104,209.28 92.3771,216.28 96,223.5C 96.2474,232.203 96.9141,240.87 98,249.5C 100.294,255.095 103.794,259.761 108.5,263.5C 114.067,268.565 120.734,270.898 128.5,270.5C 133.64,271.488 138.974,271.821 144.5,271.5C 134.95,274.112 125.284,273.946 115.5,271C 105.79,267.625 98.9564,261.125 95,251.5C 93.5108,246.543 92.1775,241.543 91,236.5C 80.6067,227.629 78.6067,216.962 85,204.5C 87.7477,199.748 91.2477,195.581 95.5,192C 138.757,164.161 186.09,153.161 237.5,159C 245.639,160.55 246.639,164.217 240.5,170C 250.535,168.564 259.035,164.064 266,156.5C 266.49,155.207 266.657,153.873 266.5,152.5C 228.871,152.435 191.538,155.601 154.5,162C 134.117,168.8 114.117,176.8 94.5,186C 78.2961,195.597 71.4628,209.763 74,228.5C 74.842,236.356 77.6753,243.356 82.5,249.5C 88.6788,255.179 94.6788,261.013 100.5,267C 106.746,271.622 113.746,274.289 121.5,275C 138.384,275.246 155.218,274.413 172,272.5C 176.415,272.514 180.748,272.848 185,273.5C 185.688,274.332 185.521,274.998 184.5,275.5C 171.12,282.737 157.12,288.404 142.5,292.5C 140.833,292.5 139.167,292.5 137.5,292.5C 137.64,290.876 136.973,289.71 135.5,289C 127.5,288.667 119.5,288.333 111.5,288C 86.9333,284.814 71.4333,271.314 65,247.5C 59.5332,221.898 59.1999,196.231 64,170.5C 66.4272,161.94 68.4272,153.273 70,144.5C 70.9168,139.646 73.4168,138.479 77.5,141C 79.5968,143.553 81.9302,145.886 84.5,148C 93.6619,151.5 103.162,153.333 113,153.5C 131.584,151.229 150.084,148.396 168.5,145C 194.798,142.871 221.131,141.204 247.5,140C 257.25,138.813 266.916,137.146 276.5,135C 282.682,132.372 289.015,130.205 295.5,128.5C 298.358,129.174 300.858,130.507 303,132.5C 303.319,136.239 302.819,139.906 301.5,143.5C 301.833,144.167 302.167,144.833 302.5,145.5C 305.246,142.336 307.746,139.002 310,135.5C 311.324,131.554 311.991,127.554 312,123.5C 307.117,118.796 301.283,117.296 294.5,119C 285.629,122.599 276.629,125.932 267.5,129C 257.385,130.493 247.219,131.326 237,131.5C 207.383,130.347 177.883,127.847 148.5,124C 140.5,121.667 132.5,119.333 124.5,117C 113.115,112.385 103.615,105.218 96,95.5C 91.4534,89.3691 90.4534,82.7024 93,75.5C 97.9409,69.7812 104.108,66.2812 111.5,65C 130.469,63.4428 149.469,63.1095 168.5,64C 174.089,65.6539 179.756,66.9872 185.5,68C 207.642,78.4615 230.976,82.9615 255.5,81.5 Z"/></g>
<g><path style="opacity:1" fill="#8c8d95" d="M 537.5,103.5 C 537.895,113.566 537.395,123.566 536,133.5C 532.608,135.056 529.775,134.389 527.5,131.5C 530.041,132.649 532.541,132.649 535,131.5C 535.105,121.949 535.938,112.616 537.5,103.5 Z"/></g>
<g><path style="opacity:1" fill="#ccced6" d="M 141.5,205.5 C 140.325,205.281 139.325,205.614 138.5,206.5C 139.506,207.396 139.506,208.062 138.5,208.5C 135.511,208.186 133.178,206.852 131.5,204.5C 131.167,205 130.833,205.5 130.5,206C 131.715,211.315 131.715,216.649 130.5,222C 130.693,224.504 131.359,226.837 132.5,229C 132.508,232.154 131.842,232.321 130.5,229.5C 130.167,230 129.833,230.5 129.5,231C 130.348,233.77 130.681,236.603 130.5,239.5C 129.5,239.5 128.5,239.5 127.5,239.5C 127.5,244.833 127.5,250.167 127.5,255.5C 122.167,255.5 116.833,255.5 111.5,255.5C 111.5,234.167 111.5,212.833 111.5,191.5C 111.953,190.542 112.619,189.708 113.5,189C 124.347,182.026 136.014,176.693 148.5,173C 161.917,168.813 175.584,167.313 189.5,168.5C 189.548,171.292 188.215,173.125 185.5,174C 168.115,180.845 153.449,191.345 141.5,205.5 Z"/></g>
<g><path style="opacity:1" fill="#919098" d="M 429.5,187.5 C 429.435,190.428 428.768,193.095 427.5,195.5C 427.294,192.505 427.96,189.838 429.5,187.5 Z"/></g>
<g><path style="opacity:1" fill="#4e4e51" d="M 144.5,271.5 C 161.717,268.984 179.05,267.317 196.5,266.5C 221.829,265.635 222.829,269.801 199.5,279C 184.104,284.742 168.771,290.575 153.5,296.5C 153.082,295.778 152.416,295.278 151.5,295C 152.672,294.581 153.672,293.915 154.5,293C 150.572,291.284 146.572,291.117 142.5,292.5C 157.12,288.404 171.12,282.737 184.5,275.5C 185.521,274.998 185.688,274.332 185,273.5C 180.748,272.848 176.415,272.514 172,272.5C 155.218,274.413 138.384,275.246 121.5,275C 113.746,274.289 106.746,271.622 100.5,267C 94.6788,261.013 88.6788,255.179 82.5,249.5C 77.6753,243.356 74.842,236.356 74,228.5C 71.4628,209.763 78.2961,195.597 94.5,186C 114.117,176.8 134.117,168.8 154.5,162C 191.538,155.601 228.871,152.435 266.5,152.5C 266.657,153.873 266.49,155.207 266,156.5C 259.035,164.064 250.535,168.564 240.5,170C 246.639,164.217 245.639,160.55 237.5,159C 186.09,153.161 138.757,164.161 95.5,192C 91.2477,195.581 87.7477,199.748 85,204.5C 78.6067,216.962 80.6067,227.629 91,236.5C 92.1775,241.543 93.5108,246.543 95,251.5C 98.9564,261.125 105.79,267.625 115.5,271C 125.284,273.946 134.95,274.112 144.5,271.5 Z"/></g>
<g><path style="opacity:1" fill="#4d4d50" d="M 394.5,67.5 C 399.765,78.6922 405.599,89.6922 412,100.5C 423.77,114.089 435.27,127.756 446.5,141.5C 457.704,160.053 453.371,173.553 433.5,182C 431.536,183.451 430.203,185.284 429.5,187.5C 427.96,189.838 427.294,192.505 427.5,195.5C 427.199,201.17 425.699,206.503 423,211.5C 421.082,212.542 419.249,213.708 417.5,215C 399.882,213.773 382.215,213.439 364.5,214C 349.413,216.918 334.746,221.251 320.5,227C 317.113,229.002 315.613,231.835 316,235.5C 322.327,241.324 328.827,246.991 335.5,252.5C 338.244,257.373 337.911,262.04 334.5,266.5C 328.943,271.553 322.943,276.053 316.5,280C 299.213,290.142 281.547,299.476 263.5,308C 259.687,309.772 255.687,310.605 251.5,310.5C 250.666,303.896 246.999,301.729 240.5,304C 210.377,325.779 181.71,349.446 154.5,375C 141.739,385.051 127.739,393.051 112.5,399C 88.352,405.743 65.6854,415.743 44.5,429C 33.6949,438.453 29.5282,450.287 32,464.5C 33.6929,474.094 34.8596,483.761 35.5,493.5C 35.3011,499.694 34.1345,505.694 32,511.5C 25.4341,525.067 16.2674,536.567 4.5,546C 2.86586,546.494 1.19919,546.66 -0.5,546.5C -0.5,542.5 -0.5,538.5 -0.5,534.5C 1.85684,534.663 4.19018,534.497 6.5,534C 12.7725,527.062 18.2725,519.562 23,511.5C 24.34,507.49 25.6734,503.49 27,499.5C 27.742,485.292 27.242,471.126 25.5,457C 25.4508,450.12 26.9508,443.62 30,437.5C 38.2301,427.137 48.3967,419.304 60.5,414C 79.0057,406.389 97.6724,399.389 116.5,393C 122.707,389.397 129.04,386.064 135.5,383C 159.91,361.959 184.91,341.626 210.5,322C 221.547,310.952 233.214,300.619 245.5,291C 247.87,289.964 250.37,289.464 253,289.5C 260.105,291.025 267.272,291.525 274.5,291C 288.76,286.046 300.76,277.879 310.5,266.5C 313.163,261.115 312.997,255.782 310,250.5C 304.912,246.084 300.579,241.084 297,235.5C 296.333,233.5 296.333,231.5 297,229.5C 299.48,227.259 302.147,225.259 305,223.5C 336.023,211.706 368.189,205.206 401.5,204C 405.534,203.383 408.867,201.549 411.5,198.5C 412.864,190.394 414.697,182.394 417,174.5C 418.5,173 420,171.5 421.5,170C 427.808,168.096 433.641,165.262 439,161.5C 442.325,154.728 441.992,148.061 438,141.5C 435.667,138.167 433.333,134.833 431,131.5C 421.378,121.555 412.211,111.388 403.5,101C 400.956,99.908 398.289,99.2414 395.5,99C 394.069,98.5348 392.903,97.7014 392,96.5C 388.637,90.6279 385.47,84.6279 382.5,78.5C 384.526,75.4713 386.193,72.138 387.5,68.5C 388.951,70.5589 390.951,71.5589 393.5,71.5C 393.232,69.901 393.566,68.5676 394.5,67.5 Z"/></g>
<g><path style="opacity:1" fill="#8f8f97" d="M 227.5,227.5 C 210.138,228.501 192.805,229.834 175.5,231.5C 174.5,231.5 173.5,231.5 172.5,231.5C 172.611,230.883 172.944,230.383 173.5,230C 191.432,227.835 209.432,227.002 227.5,227.5 Z"/></g>
<g><path style="opacity:1" fill="#cdcdd7" d="M 111.5,191.5 C 111.5,212.833 111.5,234.167 111.5,255.5C 116.833,255.5 122.167,255.5 127.5,255.5C 127.5,250.167 127.5,244.833 127.5,239.5C 128.5,239.5 129.5,239.5 130.5,239.5C 130.681,236.603 130.348,233.77 129.5,231C 129.833,230.5 130.167,230 130.5,229.5C 131.842,232.321 132.508,232.154 132.5,229C 131.359,226.837 130.693,224.504 130.5,222C 131.715,216.649 131.715,211.315 130.5,206C 130.833,205.5 131.167,205 131.5,204.5C 133.178,206.852 135.511,208.186 138.5,208.5C 139.506,208.062 139.506,207.396 138.5,206.5C 139.325,205.614 140.325,205.281 141.5,205.5C 138.731,211.374 136.231,217.374 134,223.5C 133.333,228.833 133.333,234.167 134,239.5C 134.833,240.5 135.667,241.5 136.5,242.5C 141.154,244.697 145.82,244.53 150.5,242C 152.091,239.867 154.091,238.201 156.5,237C 161.631,234.513 166.964,232.68 172.5,231.5C 173.5,231.5 174.5,231.5 175.5,231.5C 175.5,233.833 175.5,236.167 175.5,238.5C 170.178,238.98 164.845,239.313 159.5,239.5C 159.5,244.833 159.5,250.167 159.5,255.5C 170.368,255.073 181.034,256.239 191.5,259C 180.831,258.834 170.164,258.334 159.5,257.5C 159.5,259.833 159.5,262.167 159.5,264.5C 146.194,269.137 132.528,270.303 118.5,268C 119.634,266.984 119.301,266.317 117.5,266C 114.348,265.605 111.348,264.772 108.5,263.5C 103.794,259.761 100.294,255.095 98,249.5C 96.9141,240.87 96.2474,232.203 96,223.5C 92.3771,216.28 92.7104,209.28 97,202.5C 100.825,199.675 104.325,196.508 107.5,193C 108.745,192.209 110.078,191.709 111.5,191.5 Z"/></g>
<g><path style="opacity:1" fill="#727277" d="M 563.5,261.5 C 563.5,267.5 563.5,273.5 563.5,279.5C 556.825,279.666 550.158,279.5 543.5,279C 541.913,278.138 540.246,277.471 538.5,277C 533.833,276.667 529.167,276.333 524.5,276C 521.843,273.33 522.343,271.164 526,269.5C 537.706,263.283 550.206,260.616 563.5,261.5 Z"/></g>
<g><path style="opacity:1" fill="#bfbfc9" d="M 108.5,263.5 C 111.348,264.772 114.348,265.605 117.5,266C 119.301,266.317 119.634,266.984 118.5,268C 132.528,270.303 146.194,269.137 159.5,264.5C 171.728,264.678 184.228,264.344 197,263.5C 205.051,263.373 212.885,264.04 220.5,265.5C 208.178,264.581 195.844,264.414 183.5,265C 165.135,266.887 146.802,268.72 128.5,270.5C 120.734,270.898 114.067,268.565 108.5,263.5 Z"/></g>
<g><path style="opacity:1" fill="#7b7d82" d="M 47.5,263.5 C 50.6589,268.484 53.3256,273.818 55.5,279.5C 51.2805,275.061 48.6138,269.728 47.5,263.5 Z"/></g>
<g><path style="opacity:1" fill="#cccdd6" d="M 250.5,272.5 C 228.294,295.381 204.294,316.048 178.5,334.5C 178.279,333.265 177.612,332.265 176.5,331.5C 177.833,331.167 179.167,330.833 180.5,330.5C 175.15,327.663 175.483,326.996 181.5,328.5C 181.286,324.743 182.286,324.076 184.5,326.5C 186.481,325.895 186.815,324.895 185.5,323.5C 187.274,322.813 188.941,321.98 190.5,321C 190.167,320.667 189.833,320.333 189.5,320C 191.42,314.803 192.087,309.303 191.5,303.5C 186.167,303.5 180.833,303.5 175.5,303.5C 175.5,301.833 175.5,300.167 175.5,298.5C 171.774,298.177 168.107,298.511 164.5,299.5C 165.376,300.251 166.376,300.751 167.5,301C 159.639,303.566 151.639,304.066 143.5,302.5C 166.599,293.289 189.932,284.123 213.5,275C 216.759,273.789 219.592,271.956 222,269.5C 222.484,267.807 221.984,266.473 220.5,265.5C 221.822,265.67 222.989,265.337 224,264.5C 224.497,266.81 224.663,269.143 224.5,271.5C 231.558,271.203 238.558,271.536 245.5,272.5C 246.192,271.975 246.692,271.308 247,270.5C 247.816,271.823 248.983,272.489 250.5,272.5 Z"/></g>
<g><path style="opacity:1" fill="#7e7f86" d="M 220.5,265.5 C 221.984,266.473 222.484,267.807 222,269.5C 219.592,271.956 216.759,273.789 213.5,275C 189.932,284.123 166.599,293.289 143.5,302.5C 135.494,304.559 127.494,306.726 119.5,309C 106.806,310.581 94.4727,309.248 82.5,305C 79.4279,304.093 77.0945,302.26 75.5,299.5C 85.7339,305.016 96.7339,307.683 108.5,307.5C 124.072,306.073 139.072,302.406 153.5,296.5C 168.771,290.575 184.104,284.742 199.5,279C 222.829,269.801 221.829,265.635 196.5,266.5C 179.05,267.317 161.717,268.984 144.5,271.5C 138.974,271.821 133.64,271.488 128.5,270.5C 146.802,268.72 165.135,266.887 183.5,265C 195.844,264.414 208.178,264.581 220.5,265.5 Z"/></g>
<g><path style="opacity:1" fill="#8e8d94" d="M 55.5,279.5 C 57.9002,281.689 59.5669,284.356 60.5,287.5C 57.818,285.47 56.1514,282.803 55.5,279.5 Z"/></g>
<g><path style="opacity:1" fill="#85868d" d="M 61.5,287.5 C 64.2008,289.018 66.2008,291.184 67.5,294C 69.9102,294.057 71.2435,295.224 71.5,297.5C 66.5,295.833 63.1667,292.5 61.5,287.5 Z"/></g>
<g><path style="opacity:1" fill="#cccdd6" d="M 563.5,303.5 C 563.5,312.5 563.5,321.5 563.5,330.5C 550.31,328.744 537.31,325.911 524.5,322C 492.077,315.373 459.411,313.873 426.5,317.5C 414.686,318.268 403.019,319.935 391.5,322.5C 388.779,322.963 386.112,323.629 383.5,324.5C 383.5,321.167 383.5,317.833 383.5,314.5C 378.167,314.5 372.833,314.5 367.5,314.5C 367.66,316.199 367.494,317.866 367,319.5C 366.692,318.692 366.192,318.025 365.5,317.5C 362.193,318.75 358.693,319.416 355,319.5C 351.833,319.333 348.667,319.167 345.5,319C 344.956,318.283 344.289,317.783 343.5,317.5C 355.825,313.316 368.491,309.816 381.5,307C 441.938,294.457 502.605,293.29 563.5,303.5 Z"/></g>
<g><path style="opacity:1" fill="#5e5f66" d="M 426.5,317.5 C 428.607,318.468 430.941,318.802 433.5,318.5C 420.565,319.62 407.565,321.287 394.5,323.5C 393.209,323.737 392.209,323.404 391.5,322.5C 403.019,319.935 414.686,318.268 426.5,317.5 Z"/></g>
<g><path style="opacity:1" fill="#83838d" d="M 391.5,322.5 C 392.209,323.404 393.209,323.737 394.5,323.5C 391.86,324.421 389.027,325.088 386,325.5C 384.93,325.472 384.097,325.139 383.5,324.5C 386.112,323.629 388.779,322.963 391.5,322.5 Z"/></g>
<g><path style="opacity:1" fill="#747479" d="M 382.5,78.5 C 385.47,84.6279 388.637,90.6279 392,96.5C 392.903,97.7014 394.069,98.5348 395.5,99C 398.289,99.2414 400.956,99.908 403.5,101C 412.211,111.388 421.378,121.555 431,131.5C 433.333,134.833 435.667,138.167 438,141.5C 441.992,148.061 442.325,154.728 439,161.5C 433.641,165.262 427.808,168.096 421.5,170C 420,171.5 418.5,173 417,174.5C 414.697,182.394 412.864,190.394 411.5,198.5C 408.867,201.549 405.534,203.383 401.5,204C 368.189,205.206 336.023,211.706 305,223.5C 302.147,225.259 299.48,227.259 297,229.5C 296.333,231.5 296.333,233.5 297,235.5C 300.579,241.084 304.912,246.084 310,250.5C 312.997,255.782 313.163,261.115 310.5,266.5C 300.76,277.879 288.76,286.046 274.5,291C 267.272,291.525 260.105,291.025 253,289.5C 250.37,289.464 247.87,289.964 245.5,291C 233.214,300.619 221.547,310.952 210.5,322C 184.91,341.626 159.91,361.959 135.5,383C 129.04,386.064 122.707,389.397 116.5,393C 97.6724,399.389 79.0057,406.389 60.5,414C 48.3967,419.304 38.2301,427.137 30,437.5C 26.9508,443.62 25.4508,450.12 25.5,457C 27.242,471.126 27.742,485.292 27,499.5C 25.6734,503.49 24.34,507.49 23,511.5C 18.2725,519.562 12.7725,527.062 6.5,534C 4.19018,534.497 1.85684,534.663 -0.5,534.5C -0.5,528.5 -0.5,522.5 -0.5,516.5C 1.7925,516.756 3.95917,516.423 6,515.5C 11.0733,498.518 10.0733,481.852 3,465.5C 2.34001,463.676 1.17335,462.343 -0.5,461.5C -0.5,446.167 -0.5,430.833 -0.5,415.5C 10.065,406.539 21.3983,398.539 33.5,391.5C 36.761,388.883 37.9277,385.55 37,381.5C 31.6139,375.571 25.4472,370.737 18.5,367C 15.8333,363.667 13.1667,360.333 10.5,357C 7.1896,354.181 3.52294,352.014 -0.5,350.5C -0.5,341.167 -0.5,331.833 -0.5,322.5C 11.884,330.383 22.884,339.883 32.5,351C 63.8969,370.143 97.5636,375.476 133.5,367C 149.383,357.328 164.383,346.495 178.5,334.5C 204.294,316.048 228.294,295.381 250.5,272.5C 266.122,265.69 273.956,253.69 274,236.5C 276.473,223.36 284.306,215.527 297.5,213C 315.498,209 333.498,205 351.5,201C 362.256,198.22 372.589,194.387 382.5,189.5C 383.757,187.321 385.257,185.321 387,183.5C 387,174.833 387,166.167 387,157.5C 388.299,154.853 389.632,152.186 391,149.5C 395.064,145.774 398.73,141.774 402,137.5C 402.659,134.112 402.492,130.779 401.5,127.5C 400.587,125.914 400.587,124.414 401.5,123C 400.061,122.009 399.061,120.676 398.5,119C 397.5,118.667 396.5,118.333 395.5,118C 395.955,115.688 396.955,113.688 398.5,112C 396.5,111.667 394.5,111.333 392.5,111C 394.863,110.411 395.863,108.911 395.5,106.5C 392.975,105.108 390.808,105.442 389,107.5C 388.966,105.82 388.799,104.32 388.5,103C 386.567,102.749 384.734,102.249 383,101.5C 382.667,102.167 382.333,102.833 382,103.5C 380.822,99.2091 379.822,94.8758 379,90.5C 378.031,88.2661 376.698,86.2661 375,84.5C 374.333,85.8333 373.667,85.8333 373,84.5C 372.506,82.8659 372.34,81.1992 372.5,79.5C 367.187,78.9856 361.854,78.6523 356.5,78.5C 352.435,78.5112 348.768,79.1778 345.5,80.5C 344.833,80.5 344.167,80.5 343.5,80.5C 333.498,80.111 323.498,79.611 313.5,79C 313,78.5 312.5,78 312,77.5C 310.6,78.1159 309.1,78.4493 307.5,78.5C 304.629,78.8853 302.463,77.8853 301,75.5C 299.509,77.0037 297.676,77.8371 295.5,78C 289.818,78.0225 284.318,78.8559 279,80.5C 277.416,79.1387 275.582,78.472 273.5,78.5C 279.079,76.8081 284.746,74.9748 290.5,73C 296.144,72.2432 301.811,71.7432 307.5,71.5C 316.825,72.3997 326.158,72.5664 335.5,72C 343.45,70.5055 351.45,69.3388 359.5,68.5C 368.908,68.0863 376.575,71.4197 382.5,78.5 Z"/></g>
<g><path style="opacity:1" fill="#4f4f54" d="M 563.5,330.5 C 563.5,332.167 563.5,333.833 563.5,335.5C 557.757,335.252 552.09,334.419 546.5,333C 509.805,320.774 472.138,315.94 433.5,318.5C 430.941,318.802 428.607,318.468 426.5,317.5C 459.411,313.873 492.077,315.373 524.5,322C 537.31,325.911 550.31,328.744 563.5,330.5 Z"/></g>
<g><path style="opacity:1" fill="#7f7f86" d="M 527.5,348.5 C 523.293,348.663 519.126,348.329 515,347.5C 512.163,345.39 508.996,343.89 505.5,343C 503.287,342.374 501.12,342.541 499,343.5C 494.522,341.222 489.855,339.556 485,338.5C 480.736,339.975 476.57,339.809 472.5,338C 472.833,337.667 473.167,337.333 473.5,337C 456.167,336.333 438.833,336.333 421.5,337C 419.938,338.378 418.105,339.211 416,339.5C 412.185,338.626 408.351,338.46 404.5,339C 406.898,340.018 409.231,341.185 411.5,342.5C 410.333,342.833 409.167,343.167 408,343.5C 405.546,343.241 403.546,342.241 402,340.5C 397.548,342.247 393.048,342.581 388.5,341.5C 435.53,329.532 481.863,331.865 527.5,348.5 Z"/></g>
<g><path style="opacity:1" fill="#737478" d="M 527.5,348.5 C 532.729,350.196 538.062,351.696 543.5,353C 550.128,354.052 556.794,354.552 563.5,354.5C 563.5,360.5 563.5,366.5 563.5,372.5C 537.469,370.159 512.136,364.659 487.5,356C 455.965,348.082 424.632,348.748 393.5,358C 383.254,361.788 373.92,367.122 365.5,374C 351.73,387.105 337.063,399.105 321.5,410C 295.384,421.392 270.051,434.392 245.5,449C 234.119,457.365 226.285,468.198 222,481.5C 221.333,484.167 221.333,486.833 222,489.5C 224.08,491.123 226.246,492.623 228.5,494C 258.011,497.153 279.177,511.987 292,538.5C 293.886,544.697 294.72,551.03 294.5,557.5C 290.657,569.694 283.323,579.361 272.5,586.5C 262.479,590.896 252.146,594.396 241.5,597C 225.316,599.023 209.316,602.023 193.5,606C 185.745,608.789 180.245,613.956 177,621.5C 170.462,640.985 167.795,660.985 169,681.5C 173.144,691.314 179.81,698.98 189,704.5C 192.385,708.217 195.385,712.217 198,716.5C 199.949,723.18 200.782,730.014 200.5,737C 199.94,756.102 197.44,774.936 193,793.5C 190.547,798.91 187.713,804.076 184.5,809C 178.642,819.267 181.309,825.933 192.5,829C 237.017,832.908 280.017,827.075 321.5,811.5C 332.091,809.015 342.757,806.849 353.5,805C 374.07,801.309 392.404,805.975 408.5,819C 413.236,824.345 418.069,829.512 423,834.5C 431.301,846.767 438.301,859.767 444,873.5C 448.978,888.746 453.644,904.079 458,919.5C 460.377,923.088 462.877,926.588 465.5,930C 473.28,930.93 479.447,928.097 484,921.5C 489.433,914.3 494.1,906.634 498,898.5C 505.127,880.41 510.127,861.743 513,842.5C 513.587,837.646 515.92,833.98 520,831.5C 520.945,831.905 521.612,832.572 522,833.5C 522.617,840.869 522.283,848.202 521,855.5C 513.877,883.749 502.877,910.415 488,935.5C 482.206,943.628 475.373,950.795 467.5,957C 452.593,966.12 443.427,962.286 440,945.5C 439.271,921.5 433.605,898.834 423,877.5C 420.584,874.337 418.418,871.004 416.5,867.5C 415.675,866.614 414.675,866.281 413.5,866.5C 413.321,864.394 412.321,862.728 410.5,861.5C 385.736,840.412 357.07,830.578 324.5,832C 307.006,835.928 289.339,838.928 271.5,841C 239.451,841.256 207.451,842.256 175.5,844C 165.1,841.098 160.433,834.264 161.5,823.5C 163.438,815.403 166.938,808.069 172,801.5C 174.52,795.612 176.853,789.612 179,783.5C 179.667,777.5 179.667,771.5 179,765.5C 177.456,758.556 173.622,753.389 167.5,750C 160.107,749.683 152.774,750.016 145.5,751C 141.948,743.584 139.781,735.751 139,727.5C 136.975,704.703 139.308,682.37 146,660.5C 146.167,657 146.333,653.5 146.5,650C 146.601,645.719 146.101,641.552 145,637.5C 142.782,635.381 140.282,635.048 137.5,636.5C 126.702,645.069 118.535,655.736 113,668.5C 95.7513,715.167 85.5846,763.333 82.5,813C 82.6378,821.936 83.6378,830.769 85.5,839.5C 85.0785,853.621 81.7452,866.955 75.5,879.5C 72.3555,884.478 68.3555,888.645 63.5,892C 60.5,892.667 57.5,892.667 54.5,892C 51.253,890.541 47.9196,889.374 44.5,888.5C 39.3389,891.246 34.0056,893.746 28.5,896C 25.8333,896.667 23.1667,896.667 20.5,896C 17.7631,894.398 14.7631,893.564 11.5,893.5C 7.46649,894.04 3.46649,894.707 -0.5,895.5C -0.5,860.833 -0.5,826.167 -0.5,791.5C 1.85684,791.337 4.19018,791.503 6.5,792C 13.6511,800.975 22.6511,807.641 33.5,812C 41.5787,813.639 48.7453,811.806 55,806.5C 59.8001,799.232 63.8001,791.566 67,783.5C 72.8351,752.804 78.6685,722.137 84.5,691.5C 85.743,688.323 86.743,684.99 87.5,681.5C 88.7498,681.423 89.5831,680.756 90,679.5C 89.4743,672.818 91.141,666.818 95,661.5C 96.029,656.856 96.8623,652.19 97.5,647.5C 105.599,625.575 117.599,606.075 133.5,589C 136.167,587.333 138.833,585.667 141.5,584C 151.932,582.387 162.266,580.721 172.5,579C 156.068,575.183 139.568,574.683 123,577.5C 109.953,585.874 97.4531,595.041 85.5,605C 73.137,617.029 61.137,629.362 49.5,642C 41.3316,646.121 33.9983,645.121 27.5,639C 16.0035,628.181 8.50348,615.014 5,599.5C 4.2406,586.538 7.2406,574.538 14,563.5C 24.28,549.285 35.28,535.618 47,522.5C 51.1997,515.401 53.6997,507.734 54.5,499.5C 52.2209,485.596 51.0542,471.596 51,457.5C 52.308,454.27 53.308,450.936 54,447.5C 59.2277,440.273 65.7277,434.44 73.5,430C 77.3163,428.591 80.9829,426.924 84.5,425C 103.376,419.394 122.043,413.228 140.5,406.5C 141.93,406.421 143.264,406.754 144.5,407.5C 146.836,405.415 149.169,405.249 151.5,407C 150.631,408.465 151.131,409.631 153,410.5C 154.667,409.833 156.333,409.167 158,408.5C 162.682,410.802 162.515,412.302 157.5,413C 156.788,414.425 156.621,415.925 157,417.5C 153.865,418.311 151.365,419.977 149.5,422.5C 136.818,426.838 124.151,431.172 111.5,435.5C 111.167,435.5 110.833,435.5 110.5,435.5C 98.6882,438.157 88.5215,443.824 80,452.5C 79.4782,455.281 78.3115,457.615 76.5,459.5C 75.5041,459.586 74.6708,459.252 74,458.5C 73.879,460.727 73.0456,462.56 71.5,464C 72.3081,464.308 72.9747,464.808 73.5,465.5C 72.5798,472.124 71.9132,478.79 71.5,485.5C 72.5,485.5 73.5,485.5 74.5,485.5C 74.6813,488.397 74.3479,491.23 73.5,494C 74.5812,495.371 75.4145,496.871 76,498.5C 76.2966,503.691 76.7966,508.857 77.5,514C 77.3749,515.627 76.8749,517.127 76,518.5C 75.6667,514.5 75.3333,510.5 75,506.5C 74.6667,506.167 74.3333,505.833 74,505.5C 73.7636,516.33 74.0969,527.33 75,538.5C 79.7125,539.821 83.8792,538.821 87.5,535.5C 88.8333,534.5 90.1667,533.5 91.5,532.5C 96.4254,530.743 99.9254,527.41 102,522.5C 103.089,516.126 104.423,509.793 106,503.5C 108.788,495.966 112.955,489.3 118.5,483.5C 125.078,479.6 131.411,475.266 137.5,470.5C 138.847,471.028 140.181,471.195 141.5,471C 144.223,469.462 146.556,466.962 148.5,463.5C 149.671,465.169 151.004,466.669 152.5,468C 150.852,471.28 148.852,471.78 146.5,469.5C 146.167,469.833 145.833,470.167 145.5,470.5C 146.122,473.37 146.789,476.204 147.5,479C 146.552,479.483 145.552,479.649 144.5,479.5C 145.109,484.812 145.609,490.146 146,495.5C 151.12,497.693 153.62,496.026 153.5,490.5C 169.288,465.903 189.621,445.736 214.5,430C 242.317,415.258 269.984,400.258 297.5,385C 317.773,370.359 339.439,358.026 362.5,348C 371.076,345.386 379.743,343.219 388.5,341.5C 393.048,342.581 397.548,342.247 402,340.5C 403.546,342.241 405.546,343.241 408,343.5C 409.167,343.167 410.333,342.833 411.5,342.5C 409.231,341.185 406.898,340.018 404.5,339C 408.351,338.46 412.185,338.626 416,339.5C 418.105,339.211 419.938,338.378 421.5,337C 438.833,336.333 456.167,336.333 473.5,337C 473.167,337.333 472.833,337.667 472.5,338C 476.57,339.809 480.736,339.975 485,338.5C 489.855,339.556 494.522,341.222 499,343.5C 501.12,342.541 503.287,342.374 505.5,343C 508.996,343.89 512.163,345.39 515,347.5C 519.126,348.329 523.293,348.663 527.5,348.5 Z"/></g>
<g><path style="opacity:1" fill="#4d4d4e" d="M -0.5,350.5 C 3.52294,352.014 7.1896,354.181 10.5,357C 13.1667,360.333 15.8333,363.667 18.5,367C 25.4472,370.737 31.6139,375.571 37,381.5C 37.9277,385.55 36.761,388.883 33.5,391.5C 21.3983,398.539 10.065,406.539 -0.5,415.5C -0.5,393.833 -0.5,372.167 -0.5,350.5 Z"/></g>
<g><path style="opacity:1" fill="#cccdd6" d="M 334.5,266.5 C 334.719,273.677 335.052,280.677 335.5,287.5C 332.833,287.5 330.167,287.5 327.5,287.5C 327.663,285.143 327.497,282.81 327,280.5C 324.865,282.278 322.365,282.945 319.5,282.5C 319.5,284.167 319.5,285.833 319.5,287.5C 315.233,287.797 311.066,287.464 307,286.5C 306.348,288.723 304.848,289.89 302.5,290C 303.444,292.719 303.777,295.552 303.5,298.5C 300.482,298.335 297.482,298.502 294.5,299C 295.833,299.667 295.833,300.333 294.5,301C 292.132,301.856 289.798,302.69 287.5,303.5C 287.5,308.833 287.5,314.167 287.5,319.5C 282.167,319.5 276.833,319.5 271.5,319.5C 271.5,317.833 271.5,316.167 271.5,314.5C 266.125,314.172 260.792,314.505 255.5,315.5C 255.977,316.478 256.643,317.311 257.5,318C 256.342,319.009 255.675,320.342 255.5,322C 255.504,325.337 257.17,326.837 260.5,326.5C 224.815,343.669 192.482,365.836 163.5,393C 155.782,397.607 148.116,402.107 140.5,406.5C 122.043,413.228 103.376,419.394 84.5,425C 80.9829,426.924 77.3163,428.591 73.5,430C 65.7277,434.44 59.2277,440.273 54,447.5C 53.308,450.936 52.308,454.27 51,457.5C 51.0542,471.596 52.2209,485.596 54.5,499.5C 53.6997,507.734 51.1997,515.401 47,522.5C 35.28,535.618 24.28,549.285 14,563.5C 7.2406,574.538 4.2406,586.538 5,599.5C 8.50348,615.014 16.0035,628.181 27.5,639C 33.9983,645.121 41.3316,646.121 49.5,642C 61.137,629.362 73.137,617.029 85.5,605C 97.4531,595.041 109.953,585.874 123,577.5C 139.568,574.683 156.068,575.183 172.5,579C 162.266,580.721 151.932,582.387 141.5,584C 138.833,585.667 136.167,587.333 133.5,589C 117.599,606.075 105.599,625.575 97.5,647.5C 92.3973,658.158 89.064,669.491 87.5,681.5C 86.743,684.99 85.743,688.323 84.5,691.5C 83.8386,690.282 83.1719,688.949 82.5,687.5C 81.7515,689.332 80.7515,690.999 79.5,692.5C 80.1667,692.833 80.8333,693.167 81.5,693.5C 78.5331,705.636 76.8664,705.47 76.5,693C 77.5164,684.052 76.6831,675.218 74,666.5C 72.1353,668.673 69.9686,669.007 67.5,667.5C 66.4763,668.853 65.143,669.52 63.5,669.5C 63.5,670.5 63.5,671.5 63.5,672.5C 54.7108,688.062 41.3775,696.229 23.5,697C 19.9636,693.799 16.7969,690.299 14,686.5C 9.82314,678.322 4.98981,670.655 -0.5,663.5C -0.5,624.5 -0.5,585.5 -0.5,546.5C 1.19919,546.66 2.86586,546.494 4.5,546C 16.2674,536.567 25.4341,525.067 32,511.5C 34.1345,505.694 35.3011,499.694 35.5,493.5C 34.8596,483.761 33.6929,474.094 32,464.5C 29.5282,450.287 33.6949,438.453 44.5,429C 65.6854,415.743 88.352,405.743 112.5,399C 127.739,393.051 141.739,385.051 154.5,375C 181.71,349.446 210.377,325.779 240.5,304C 246.999,301.729 250.666,303.896 251.5,310.5C 255.687,310.605 259.687,309.772 263.5,308C 281.547,299.476 299.213,290.142 316.5,280C 322.943,276.053 328.943,271.553 334.5,266.5 Z"/></g>
<g><path style="opacity:1" fill="#4d4d4e" d="M 563.5,372.5 C 563.5,382.167 563.5,391.833 563.5,401.5C 540.587,401.369 517.92,399.035 495.5,394.5C 481.173,390.3 466.507,389.467 451.5,392C 449.074,393.145 446.741,394.478 444.5,396C 443.167,396.667 441.833,396.667 440.5,396C 433.184,389.203 428.017,381.036 425,371.5C 423.421,369.959 421.587,368.792 419.5,368C 404.637,366.393 392.803,371.56 384,383.5C 382.416,388.266 380.083,392.6 377,396.5C 362.691,408.752 348.858,421.586 335.5,435C 329.5,439 323.5,443 317.5,447C 309.289,456.209 301.456,465.709 294,475.5C 293.333,478.5 293.333,481.5 294,484.5C 301.33,503.154 305.83,522.487 307.5,542.5C 307.259,548.429 306.259,554.095 304.5,559.5C 303.099,561.583 301.432,563.583 299.5,565.5C 297.826,562.816 296.16,560.149 294.5,557.5C 294.72,551.03 293.886,544.697 292,538.5C 279.177,511.987 258.011,497.153 228.5,494C 226.246,492.623 224.08,491.123 222,489.5C 221.333,486.833 221.333,484.167 222,481.5C 226.285,468.198 234.119,457.365 245.5,449C 270.051,434.392 295.384,421.392 321.5,410C 337.063,399.105 351.73,387.105 365.5,374C 373.92,367.122 383.254,361.788 393.5,358C 424.632,348.748 455.965,348.082 487.5,356C 512.136,364.659 537.469,370.159 563.5,372.5 Z"/></g>
<g><path style="opacity:1" fill="#77787e" d="M 260.5,326.5 C 264.584,325.945 265.251,326.945 262.5,329.5C 245.195,341.646 228.195,354.146 211.5,367C 206.048,371.95 200.715,377.117 195.5,382.5C 192.984,384.673 191.317,387.34 190.5,390.5C 187.088,392.609 184.588,395.609 183,399.5C 173.763,410.281 162.596,417.947 149.5,422.5C 151.365,419.977 153.865,418.311 157,417.5C 156.621,415.925 156.788,414.425 157.5,413C 162.515,412.302 162.682,410.802 158,408.5C 156.333,409.167 154.667,409.833 153,410.5C 151.131,409.631 150.631,408.465 151.5,407C 149.169,405.249 146.836,405.415 144.5,407.5C 143.264,406.754 141.93,406.421 140.5,406.5C 148.116,402.107 155.782,397.607 163.5,393C 192.482,365.836 224.815,343.669 260.5,326.5 Z"/></g>
<g><path style="opacity:1" fill="#ccced7" d="M 495.5,394.5 C 517.92,399.035 540.587,401.369 563.5,401.5C 563.5,414.167 563.5,426.833 563.5,439.5C 548.341,438.469 533.508,440.136 519,444.5C 514.187,443.547 509.354,443.38 504.5,444C 503.944,444.383 503.611,444.883 503.5,445.5C 501.569,446.259 500.069,447.593 499,449.5C 497.939,454.104 497.273,458.771 497,463.5C 494.79,464.749 492.624,464.582 490.5,463C 477.614,447.387 464.614,431.887 451.5,416.5C 452.66,414.797 451.993,414.131 449.5,414.5C 449.33,413.178 449.663,412.011 450.5,411C 447.755,408.541 444.589,406.707 441,405.5C 439.981,403.731 439.814,402.064 440.5,400.5C 444.796,399.672 449.129,399.172 453.5,399C 456.167,398.333 456.167,397.667 453.5,397C 454.333,396.833 455.167,396.667 456,396.5C 458.36,397.78 460.86,398.447 463.5,398.5C 463.5,396.5 463.5,394.5 463.5,392.5C 474.249,392.14 484.915,392.806 495.5,394.5 Z"/></g>
<g><path style="opacity:1" fill="#cbcbd5" d="M 190.5,390.5 C 191.666,395.497 191.666,400.497 190.5,405.5C 188.343,407.412 186.009,409.079 183.5,410.5C 185.359,412.192 187.359,413.692 189.5,415C 184.965,416.387 180.299,416.554 175.5,415.5C 175.335,418.518 175.502,421.518 176,424.5C 176.718,423.549 177.551,423.383 178.5,424C 177.891,426.058 176.891,426.891 175.5,426.5C 176.387,427.973 177.387,429.306 178.5,430.5C 167.551,441.781 156.217,452.781 144.5,463.5C 143.6,458.228 143.267,452.895 143.5,447.5C 148.833,447.5 154.167,447.5 159.5,447.5C 159.5,441.167 159.5,434.833 159.5,428.5C 154.206,428.318 154.206,427.818 159.5,427C 153.5,426.333 147.5,426.333 141.5,427C 143.904,427.508 144.571,428.675 143.5,430.5C 132.603,430.872 121.937,432.539 111.5,435.5C 124.151,431.172 136.818,426.838 149.5,422.5C 162.596,417.947 173.763,410.281 183,399.5C 184.588,395.609 187.088,392.609 190.5,390.5 Z"/></g>
<g><path style="opacity:1" fill="#cccfd7" d="M 144.5,463.5 C 142.167,465.833 139.833,468.167 137.5,470.5C 131.411,475.266 125.078,479.6 118.5,483.5C 112.955,489.3 108.788,495.966 106,503.5C 104.423,509.793 103.089,516.126 102,522.5C 99.9254,527.41 96.4254,530.743 91.5,532.5C 87.5633,532.793 83.73,532.46 80,531.5C 79.9677,508.856 79.801,486.19 79.5,463.5C 84.8333,463.5 90.1667,463.5 95.5,463.5C 95.6653,459.818 95.4986,456.152 95,452.5C 93.9805,453.687 92.8139,454.687 91.5,455.5C 90.1667,452.833 90.1667,450.167 91.5,447.5C 92.8139,448.313 93.9805,449.313 95,450.5C 95.3333,448.833 95.6667,447.167 96,445.5C 98.4473,447.749 100.947,447.916 103.5,446C 101.926,445.647 100.259,444.98 98.5,444C 102.759,442.958 107.093,442.125 111.5,441.5C 108.972,440.184 108.972,439.017 111.5,438C 109.381,437.658 109.047,436.825 110.5,435.5C 110.833,435.5 111.167,435.5 111.5,435.5C 121.937,432.539 132.603,430.872 143.5,430.5C 144.571,428.675 143.904,427.508 141.5,427C 147.5,426.333 153.5,426.333 159.5,427C 154.206,427.818 154.206,428.318 159.5,428.5C 159.5,434.833 159.5,441.167 159.5,447.5C 154.167,447.5 148.833,447.5 143.5,447.5C 143.267,452.895 143.6,458.228 144.5,463.5 Z"/></g>
<g><path style="opacity:1" fill="#747479" d="M 451.5,416.5 C 464.614,431.887 477.614,447.387 490.5,463C 492.624,464.582 494.79,464.749 497,463.5C 497.273,458.771 497.939,454.104 499,449.5C 500.069,447.593 501.569,446.259 503.5,445.5C 505.547,445.489 507.547,445.156 509.5,444.5C 510.672,444.919 511.672,445.585 512.5,446.5C 523.679,445.505 534.013,443.838 543.5,441.5C 550.134,440.503 556.8,440.17 563.5,440.5C 563.5,461.5 563.5,482.5 563.5,503.5C 555.365,503.569 548.365,506.402 542.5,512C 540.098,512.814 537.765,512.647 535.5,511.5C 530.72,505.217 525.387,499.384 519.5,494C 511.556,489.686 503.722,485.186 496,480.5C 486.742,467.64 477.742,454.64 469,441.5C 452.322,420.816 433.155,402.982 411.5,388C 402.808,386.681 398.308,390.514 398,399.5C 397.044,402.377 395.711,405.044 394,407.5C 386.728,413.099 379.728,419.099 373,425.5C 363.78,445.947 351.113,463.947 335,479.5C 333.487,482.524 331.487,485.191 329,487.5C 327.333,491.833 325.667,496.167 324,500.5C 322.09,518.293 319.423,535.959 316,553.5C 309.999,574.793 298.499,592.293 281.5,606C 277.147,608.367 272.813,610.7 268.5,613C 251.411,618.696 234.411,624.363 217.5,630C 204.977,638.055 201.977,648.888 208.5,662.5C 212.345,666.845 216.345,671.012 220.5,675C 229.799,679.986 237.466,686.819 243.5,695.5C 244.768,696.428 246.101,696.595 247.5,696C 251.265,690.379 252.432,684.212 251,677.5C 248.698,672.954 246.698,668.287 245,663.5C 244.163,659.705 244.496,656.039 246,652.5C 250.907,648.629 256.074,645.129 261.5,642C 276.632,637.1 291.299,631.1 305.5,624C 308.412,622.142 309.912,619.642 310,616.5C 303.98,614.043 301.98,609.709 304,603.5C 316.085,576.84 327.419,549.84 338,522.5C 341.418,516.663 345.084,510.996 349,505.5C 359.393,495.435 370.06,485.769 381,476.5C 386.631,465.962 391.964,455.295 397,444.5C 399.537,441.628 402.37,439.128 405.5,437C 415.159,434.711 424.659,432.211 434,429.5C 438.219,429.357 442.052,430.524 445.5,433C 459.109,445.365 469.942,459.865 478,476.5C 484.467,496.036 490.467,515.702 496,535.5C 499.756,540.675 504.923,543.175 511.5,543C 516.581,545.617 520.415,549.45 523,554.5C 529.541,568.702 533.207,583.702 534,599.5C 534.234,617.518 534.9,635.518 536,653.5C 539.871,673.977 544.204,694.311 549,714.5C 558.056,766.634 556.056,818.3 543,869.5C 537.655,891.858 531.322,913.858 524,935.5C 513.759,959.187 500.925,981.187 485.5,1001.5C 478.167,1001.5 470.833,1001.5 463.5,1001.5C 489.649,974.211 509.482,942.878 523,907.5C 526.375,895.041 530.375,882.708 535,870.5C 543.004,843.799 547.504,816.465 548.5,788.5C 547.887,766.6 545.387,744.934 541,723.5C 537.143,706.072 532.976,688.739 528.5,671.5C 528.411,668.811 528.744,665.978 529.5,663C 528.026,660.01 527.026,656.843 526.5,653.5C 526.416,648.855 526.75,644.188 527.5,639.5C 526.5,639.5 525.5,639.5 524.5,639.5C 524.667,626.163 524.5,612.829 524,599.5C 523.667,600.167 523.333,600.833 523,601.5C 522.998,598.949 522.164,596.949 520.5,595.5C 519.064,588.209 515.73,581.876 510.5,576.5C 505.205,575.171 499.872,574.005 494.5,573C 493.149,570.736 491.483,568.902 489.5,567.5C 489.435,564.572 488.768,561.905 487.5,559.5C 485.098,539.78 482.265,520.113 479,500.5C 476.057,486.965 470.723,474.632 463,463.5C 455.783,454.143 446.283,450.143 434.5,451.5C 423.78,449.457 415.28,452.791 409,461.5C 404.288,473.295 398.622,484.628 392,495.5C 381.989,504.845 372.656,514.845 364,525.5C 360.073,531.677 357.573,538.343 356.5,545.5C 356.151,551.02 358.817,553.354 364.5,552.5C 370.952,551.98 377.285,550.814 383.5,549C 392.783,545.794 402.117,542.794 411.5,540C 429.745,534.775 440.745,541.275 444.5,559.5C 445.045,562.998 444.212,565.998 442,568.5C 440.336,566.195 438.836,566.528 437.5,569.5C 438.498,572.028 439.331,572.028 440,569.5C 440.334,571.847 440.167,574.181 439.5,576.5C 438.178,576.67 437.011,576.337 436,575.5C 435.667,573.5 435.333,571.5 435,569.5C 432.973,569.986 430.807,569.986 428.5,569.5C 425.351,569.211 422.351,569.711 419.5,571C 414.448,576.939 410.281,583.439 407,590.5C 400.289,597.644 393.122,604.477 385.5,611C 379.569,614.793 373.569,618.293 367.5,621.5C 362.628,623.476 357.628,625.309 352.5,627C 334.197,630.991 316.197,635.991 298.5,642C 290.534,645.471 283.534,650.304 277.5,656.5C 275.552,668.52 273.385,680.52 271,692.5C 268.033,701.758 264.533,710.758 260.5,719.5C 252.246,733.392 245.413,748.058 240,763.5C 239.501,767.486 239.334,771.486 239.5,775.5C 238.167,778.167 238.167,780.833 239.5,783.5C 239.51,790.229 240.177,796.895 241.5,803.5C 241.674,805.693 241.007,807.527 239.5,809C 234.488,812.832 228.822,814.332 222.5,813.5C 215.888,814.879 210.721,812.879 207,807.5C 207.004,793.116 208.004,778.783 210,764.5C 212.585,750.078 215.585,735.744 219,721.5C 219.667,716.5 219.667,711.5 219,706.5C 216.806,703.446 215.139,700.112 214,696.5C 206.364,689.865 199.03,682.865 192,675.5C 185.97,661.312 186.136,647.145 192.5,633C 195.667,628.418 199.667,624.751 204.5,622C 221.31,617.409 238.31,613.742 255.5,611C 289.475,601.27 308.641,578.77 313,543.5C 313.333,525.167 313.667,506.833 314,488.5C 317.497,478.297 323.497,469.63 332,462.5C 332.901,459.929 334.234,457.596 336,455.5C 341.527,450.395 346.86,445.061 352,439.5C 355.608,433.228 359.608,427.228 364,421.5C 371.279,415.892 378.279,409.892 385,403.5C 388.267,397.757 390.934,391.757 393,385.5C 398.119,378.843 404.619,376.676 412.5,379C 415.429,382.136 418.762,384.803 422.5,387C 431.727,397.392 441.393,407.226 451.5,416.5 Z"/></g>
<g><path style="opacity:1" fill="#86878e" d="M 563.5,439.5 C 563.5,439.833 563.5,440.167 563.5,440.5C 556.8,440.17 550.134,440.503 543.5,441.5C 534.013,443.838 523.679,445.505 512.5,446.5C 511.672,445.585 510.672,444.919 509.5,444.5C 507.547,445.156 505.547,445.489 503.5,445.5C 503.611,444.883 503.944,444.383 504.5,444C 509.354,443.38 514.187,443.547 519,444.5C 533.508,440.136 548.341,438.469 563.5,439.5 Z"/></g>
<g><path style="opacity:1" fill="#cacad4" d="M 110.5,435.5 C 109.047,436.825 109.381,437.658 111.5,438C 108.972,439.017 108.972,440.184 111.5,441.5C 107.093,442.125 102.759,442.958 98.5,444C 100.259,444.98 101.926,445.647 103.5,446C 100.947,447.916 98.4473,447.749 96,445.5C 95.6667,447.167 95.3333,448.833 95,450.5C 93.9805,449.313 92.8139,448.313 91.5,447.5C 90.1667,450.167 90.1667,452.833 91.5,455.5C 92.8139,454.687 93.9805,453.687 95,452.5C 95.4986,456.152 95.6653,459.818 95.5,463.5C 90.1667,463.5 84.8333,463.5 79.5,463.5C 79.801,486.19 79.9677,508.856 80,531.5C 83.73,532.46 87.5633,532.793 91.5,532.5C 90.1667,533.5 88.8333,534.5 87.5,535.5C 83.9351,536.466 80.4351,536.466 77,535.5C 77.2882,527.014 77.7882,518.514 78.5,510C 77.1681,497.677 75.8348,485.343 74.5,473C 74.5885,468.395 75.2552,463.895 76.5,459.5C 78.3115,457.615 79.4782,455.281 80,452.5C 88.5215,443.824 98.6882,438.157 110.5,435.5 Z"/></g>
<g><path style="opacity:1" fill="#7e7e86" d="M 153.5,490.5 C 153.62,496.026 151.12,497.693 146,495.5C 145.609,490.146 145.109,484.812 144.5,479.5C 145.552,479.649 146.552,479.483 147.5,479C 146.789,476.204 146.122,473.37 145.5,470.5C 145.833,470.167 146.167,469.833 146.5,469.5C 148.852,471.78 150.852,471.28 152.5,468C 151.004,466.669 149.671,465.169 148.5,463.5C 146.556,466.962 144.223,469.462 141.5,471C 140.181,471.195 138.847,471.028 137.5,470.5C 139.833,468.167 142.167,465.833 144.5,463.5C 156.217,452.781 167.551,441.781 178.5,430.5C 180.471,429.177 182.471,427.844 184.5,426.5C 185.521,427.002 185.688,427.668 185,428.5C 170.644,442.233 158.977,457.9 150,475.5C 147.259,481.141 146.093,487.141 146.5,493.5C 149.438,493.727 151.771,492.727 153.5,490.5 Z"/></g>
<g><path style="opacity:1" fill="#4d4d4e" d="M -0.5,461.5 C 1.17335,462.343 2.34001,463.676 3,465.5C 10.0733,481.852 11.0733,498.518 6,515.5C 3.95917,516.423 1.7925,516.756 -0.5,516.5C -0.5,498.167 -0.5,479.833 -0.5,461.5 Z"/></g>
<g><path style="opacity:1" fill="#4d4d4d" d="M 563.5,503.5 C 563.5,669.5 563.5,835.5 563.5,1001.5C 537.5,1001.5 511.5,1001.5 485.5,1001.5C 500.925,981.187 513.759,959.187 524,935.5C 531.322,913.858 537.655,891.858 543,869.5C 556.056,818.3 558.056,766.634 549,714.5C 544.204,694.311 539.871,673.977 536,653.5C 534.9,635.518 534.234,617.518 534,599.5C 533.207,583.702 529.541,568.702 523,554.5C 520.415,549.45 516.581,545.617 511.5,543C 504.923,543.175 499.756,540.675 496,535.5C 490.467,515.702 484.467,496.036 478,476.5C 469.942,459.865 459.109,445.365 445.5,433C 442.052,430.524 438.219,429.357 434,429.5C 424.659,432.211 415.159,434.711 405.5,437C 402.37,439.128 399.537,441.628 397,444.5C 391.964,455.295 386.631,465.962 381,476.5C 370.06,485.769 359.393,495.435 349,505.5C 345.084,510.996 341.418,516.663 338,522.5C 327.419,549.84 316.085,576.84 304,603.5C 301.98,609.709 303.98,614.043 310,616.5C 309.912,619.642 308.412,622.142 305.5,624C 291.299,631.1 276.632,637.1 261.5,642C 256.074,645.129 250.907,648.629 246,652.5C 244.496,656.039 244.163,659.705 245,663.5C 246.698,668.287 248.698,672.954 251,677.5C 252.432,684.212 251.265,690.379 247.5,696C 246.101,696.595 244.768,696.428 243.5,695.5C 237.466,686.819 229.799,679.986 220.5,675C 216.345,671.012 212.345,666.845 208.5,662.5C 201.977,648.888 204.977,638.055 217.5,630C 234.411,624.363 251.411,618.696 268.5,613C 272.813,610.7 277.147,608.367 281.5,606C 298.499,592.293 309.999,574.793 316,553.5C 319.423,535.959 322.09,518.293 324,500.5C 325.667,496.167 327.333,491.833 329,487.5C 331.487,485.191 333.487,482.524 335,479.5C 351.113,463.947 363.78,445.947 373,425.5C 379.728,419.099 386.728,413.099 394,407.5C 395.711,405.044 397.044,402.377 398,399.5C 398.308,390.514 402.808,386.681 411.5,388C 433.155,402.982 452.322,420.816 469,441.5C 477.742,454.64 486.742,467.64 496,480.5C 503.722,485.186 511.556,489.686 519.5,494C 525.387,499.384 530.72,505.217 535.5,511.5C 537.765,512.647 540.098,512.814 542.5,512C 548.365,506.402 555.365,503.569 563.5,503.5 Z"/></g>
<g><path style="opacity:1" fill="#7e7e86" d="M 76.5,459.5 C 75.2552,463.895 74.5885,468.395 74.5,473C 75.8348,485.343 77.1681,497.677 78.5,510C 77.7882,518.514 77.2882,527.014 77,535.5C 80.4351,536.466 83.9351,536.466 87.5,535.5C 83.8792,538.821 79.7125,539.821 75,538.5C 74.0969,527.33 73.7636,516.33 74,505.5C 74.3333,505.833 74.6667,506.167 75,506.5C 75.3333,510.5 75.6667,514.5 76,518.5C 76.8749,517.127 77.3749,515.627 77.5,514C 76.7966,508.857 76.2966,503.691 76,498.5C 75.4145,496.871 74.5812,495.371 73.5,494C 74.3479,491.23 74.6813,488.397 74.5,485.5C 73.5,485.5 72.5,485.5 71.5,485.5C 71.9132,478.79 72.5798,472.124 73.5,465.5C 72.9747,464.808 72.3081,464.308 71.5,464C 73.0456,462.56 73.879,460.727 74,458.5C 74.6708,459.252 75.5041,459.586 76.5,459.5 Z"/></g>
<g><path style="opacity:1" fill="#cacbd4" d="M 487.5,559.5 C 486.359,557.333 485.359,555 484.5,552.5C 483.306,555.32 483.306,558.153 484.5,561C 484.138,562.225 483.638,563.391 483,564.5C 482.05,558.674 482.55,553.007 484.5,547.5C 484.263,544.937 483.763,544.937 483,547.5C 482,546.167 481,544.833 480,543.5C 479.96,564.749 479.793,586.082 479.5,607.5C 484.833,607.5 490.167,607.5 495.5,607.5C 496.087,613.303 495.42,618.803 493.5,624C 494.766,624.309 495.933,624.809 497,625.5C 497.333,625.167 497.667,624.833 498,624.5C 498.49,625.793 498.657,627.127 498.5,628.5C 494.418,625.412 489.751,623.579 484.5,623C 480.686,620.519 478.519,617.019 478,612.5C 476.948,606.883 476.282,601.216 476,595.5C 476.122,570.44 475.122,545.44 473,520.5C 472.002,504.471 466.168,490.638 455.5,479C 447.503,472.92 438.503,470.92 428.5,473C 424.764,474.894 421.431,477.394 418.5,480.5C 411.38,493.701 404.546,507.034 398,520.5C 396.672,525.541 398.505,528.207 403.5,528.5C 410.282,527.095 417.115,526.095 424,525.5C 431.399,525.075 437.399,527.742 442,533.5C 448.562,545.307 451.395,557.974 450.5,571.5C 449.493,592.161 449.327,612.827 450,633.5C 455.329,662.158 460.663,690.825 466,719.5C 466.874,732.209 466.54,744.876 465,757.5C 459.849,771.787 450.016,776.287 435.5,771C 433.142,769.724 430.808,768.558 428.5,767.5C 430.262,767.357 431.929,767.691 433.5,768.5C 438.113,767.721 442.78,767.221 447.5,767C 448.328,766.085 449.328,765.419 450.5,765C 447.475,761.989 443.808,760.322 439.5,760C 442.115,759.145 444.448,757.812 446.5,756C 444.023,755.76 441.856,756.594 440,758.5C 438.601,757.773 437.101,757.273 435.5,757C 436.167,756.667 436.833,756.333 437.5,756C 434.167,755.667 430.833,755.333 427.5,755C 428.551,753.615 429.884,752.615 431.5,752C 430.692,751.692 430.025,751.192 429.5,750.5C 430.309,748.929 430.643,747.262 430.5,745.5C 432.167,745.5 433.833,745.5 435.5,745.5C 434.544,746.659 433.544,747.826 432.5,749C 434.262,751.91 436.929,753.076 440.5,752.5C 445.304,752.74 449.304,751.073 452.5,747.5C 455.138,743.889 456.971,739.889 458,735.5C 458.988,710.752 456.321,686.418 450,662.5C 445.489,633.989 444.322,605.323 446.5,576.5C 446.533,570.608 445.867,564.941 444.5,559.5C 440.745,541.275 429.745,534.775 411.5,540C 402.117,542.794 392.783,545.794 383.5,549C 377.285,550.814 370.952,551.98 364.5,552.5C 358.817,553.354 356.151,551.02 356.5,545.5C 357.573,538.343 360.073,531.677 364,525.5C 372.656,514.845 381.989,504.845 392,495.5C 398.622,484.628 404.288,473.295 409,461.5C 415.28,452.791 423.78,449.457 434.5,451.5C 446.283,450.143 455.783,454.143 463,463.5C 470.723,474.632 476.057,486.965 479,500.5C 482.265,520.113 485.098,539.78 487.5,559.5 Z"/></g>
<g><path style="opacity:1" fill="#4d4d4e" d="M 498.5,628.5 C 509.169,661.49 520.002,694.49 531,727.5C 544.278,769.658 544.945,811.992 533,854.5C 525.025,882.427 514.692,909.427 502,935.5C 490.857,956.981 475.69,975.147 456.5,990C 439.651,1000.94 429.151,996.777 425,977.5C 424.667,960.833 424.333,944.167 424,927.5C 423.13,912.864 417.63,900.364 407.5,890C 404.941,888.223 402.274,886.723 399.5,885.5C 397.727,884.108 395.727,882.941 393.5,882C 373.688,875.842 354.355,868.508 335.5,860C 330.171,858.669 324.838,857.335 319.5,856C 291.976,855.851 264.476,855.017 237,853.5C 222.951,855.524 208.951,857.857 195,860.5C 185.729,860.023 176.562,858.857 167.5,857C 152.049,849.598 146.049,837.431 149.5,820.5C 150.117,820.611 150.617,820.944 151,821.5C 151.306,826.137 152.14,830.637 153.5,835C 151.675,836.466 151.175,838.299 152,840.5C 154.4,836.177 156.734,832.51 159,829.5C 159.333,829.833 159.667,830.167 160,830.5C 160.186,827.964 160.686,825.631 161.5,823.5C 160.433,834.264 165.1,841.098 175.5,844C 207.451,842.256 239.451,841.256 271.5,841C 289.339,838.928 307.006,835.928 324.5,832C 357.07,830.578 385.736,840.412 410.5,861.5C 412.321,862.728 413.321,864.394 413.5,866.5C 414.675,866.281 415.675,866.614 416.5,867.5C 418.418,871.004 420.584,874.337 423,877.5C 433.605,898.834 439.271,921.5 440,945.5C 443.427,962.286 452.593,966.12 467.5,957C 475.373,950.795 482.206,943.628 488,935.5C 502.877,910.415 513.877,883.749 521,855.5C 522.283,848.202 522.617,840.869 522,833.5C 521.612,832.572 520.945,831.905 520,831.5C 515.92,833.98 513.587,837.646 513,842.5C 510.127,861.743 505.127,880.41 498,898.5C 494.1,906.634 489.433,914.3 484,921.5C 479.447,928.097 473.28,930.93 465.5,930C 462.877,926.588 460.377,923.088 458,919.5C 453.644,904.079 448.978,888.746 444,873.5C 438.301,859.767 431.301,846.767 423,834.5C 418.069,829.512 413.236,824.345 408.5,819C 392.404,805.975 374.07,801.309 353.5,805C 342.757,806.849 332.091,809.015 321.5,811.5C 321.586,810.504 321.252,809.671 320.5,809C 318.833,808.667 317.167,808.333 315.5,808C 317.301,807.683 317.634,807.016 316.5,806C 318.863,805.411 319.863,803.911 319.5,801.5C 325.053,798.118 330.553,794.451 336,790.5C 337.077,787.738 336.244,786.072 333.5,785.5C 331.708,784.691 329.708,784.191 327.5,784C 312.115,783.874 296.782,783.04 281.5,781.5C 275.832,780.498 270.832,778.165 266.5,774.5C 260.961,768.18 259.128,760.847 261,752.5C 271.272,725.339 283.272,699.006 297,673.5C 305.426,661.891 316.926,655.725 331.5,655C 338.158,654.5 344.825,654.334 351.5,654.5C 360.004,656.365 368.671,658.032 377.5,659.5C 379.102,661.074 381.102,661.741 383.5,661.5C 389.812,663.153 395.812,665.653 401.5,669C 404.409,670.406 406.409,672.572 407.5,675.5C 408.762,680.152 408.762,684.819 407.5,689.5C 404.928,693.747 401.262,696.414 396.5,697.5C 389.535,698.341 382.535,698.674 375.5,698.5C 361.078,696.754 346.745,697.254 332.5,700C 317.121,704.539 308.454,714.706 306.5,730.5C 305.847,738.048 309.18,742.548 316.5,744C 326.381,744.601 336.214,744.101 346,742.5C 363,744.053 379.5,747.886 395.5,754C 406.274,759.054 417.274,763.554 428.5,767.5C 430.808,768.558 433.142,769.724 435.5,771C 450.016,776.287 459.849,771.787 465,757.5C 466.54,744.876 466.874,732.209 466,719.5C 460.663,690.825 455.329,662.158 450,633.5C 449.327,612.827 449.493,592.161 450.5,571.5C 451.395,557.974 448.562,545.307 442,533.5C 437.399,527.742 431.399,525.075 424,525.5C 417.115,526.095 410.282,527.095 403.5,528.5C 398.505,528.207 396.672,525.541 398,520.5C 404.546,507.034 411.38,493.701 418.5,480.5C 421.431,477.394 424.764,474.894 428.5,473C 438.503,470.92 447.503,472.92 455.5,479C 466.168,490.638 472.002,504.471 473,520.5C 475.122,545.44 476.122,570.44 476,595.5C 476.282,601.216 476.948,606.883 478,612.5C 478.519,617.019 480.686,620.519 484.5,623C 489.751,623.579 494.418,625.412 498.5,628.5 Z"/></g>
<g><path style="opacity:1" fill="#cccfd7" d="M 487.5,559.5 C 488.768,561.905 489.435,564.572 489.5,567.5C 487.886,568.83 486.886,571.163 486.5,574.5C 489.428,575.484 492.428,575.817 495.5,575.5C 495.5,580.833 495.5,586.167 495.5,591.5C 502.2,591.17 508.866,591.503 515.5,592.5C 515.167,593.167 514.833,593.833 514.5,594.5C 516.346,598.582 517.013,602.915 516.5,607.5C 517.833,607.5 519.167,607.5 520.5,607.5C 520.524,612.923 521.19,618.257 522.5,623.5C 521.5,623.5 520.5,623.5 519.5,623.5C 519.5,628.833 519.5,634.167 519.5,639.5C 515.37,639.466 511.37,638.799 507.5,637.5C 507.119,639.942 507.786,640.609 509.5,639.5C 510.72,639.887 511.387,640.72 511.5,642C 509.94,644.289 508.773,646.789 508,649.5C 507.333,644.548 506.167,639.548 504.5,634.5C 505.5,634.5 506.5,634.5 507.5,634.5C 506.746,631.622 506.412,628.789 506.5,626C 505.451,625.508 504.451,625.674 503.5,626.5C 502.808,625.975 502.308,625.308 502,624.5C 500.258,624.764 499.091,626.097 498.5,628.5C 498.657,627.127 498.49,625.793 498,624.5C 497.667,624.833 497.333,625.167 497,625.5C 495.933,624.809 494.766,624.309 493.5,624C 495.42,618.803 496.087,613.303 495.5,607.5C 490.167,607.5 484.833,607.5 479.5,607.5C 479.793,586.082 479.96,564.749 480,543.5C 481,544.833 482,546.167 483,547.5C 483.763,544.937 484.263,544.937 484.5,547.5C 482.55,553.007 482.05,558.674 483,564.5C 483.638,563.391 484.138,562.225 484.5,561C 483.306,558.153 483.306,555.32 484.5,552.5C 485.359,555 486.359,557.333 487.5,559.5 Z"/></g>
<g><path style="opacity:1" fill="#ccced6" d="M 428.5,569.5 C 430.887,571.913 433.054,574.58 435,577.5C 437.854,597.045 439.521,616.712 440,636.5C 443.988,661.446 447.488,686.446 450.5,711.5C 450.547,720.126 449.047,728.46 446,736.5C 443.537,740.802 440.037,743.802 435.5,745.5C 433.833,745.5 432.167,745.5 430.5,745.5C 430.643,747.262 430.309,748.929 429.5,750.5C 430.025,751.192 430.692,751.692 431.5,752C 429.884,752.615 428.551,753.615 427.5,755C 430.833,755.333 434.167,755.667 437.5,756C 436.833,756.333 436.167,756.667 435.5,757C 437.101,757.273 438.601,757.773 440,758.5C 441.856,756.594 444.023,755.76 446.5,756C 444.448,757.812 442.115,759.145 439.5,760C 443.808,760.322 447.475,761.989 450.5,765C 449.328,765.419 448.328,766.085 447.5,767C 442.78,767.221 438.113,767.721 433.5,768.5C 431.929,767.691 430.262,767.357 428.5,767.5C 417.274,763.554 406.274,759.054 395.5,754C 379.5,747.886 363,744.053 346,742.5C 336.214,744.101 326.381,744.601 316.5,744C 309.18,742.548 305.847,738.048 306.5,730.5C 308.454,714.706 317.121,704.539 332.5,700C 346.745,697.254 361.078,696.754 375.5,698.5C 378.314,699.165 381.314,699.498 384.5,699.5C 388.797,699.722 392.797,699.055 396.5,697.5C 401.262,696.414 404.928,693.747 407.5,689.5C 409.033,687.366 409.7,684.866 409.5,682C 409.333,680.167 409.167,678.333 409,676.5C 408.617,675.944 408.117,675.611 407.5,675.5C 406.409,672.572 404.409,670.406 401.5,669C 395.812,665.653 389.812,663.153 383.5,661.5C 381.898,659.926 379.898,659.259 377.5,659.5C 368.671,658.032 360.004,656.365 351.5,654.5C 351.5,649.5 351.5,644.5 351.5,639.5C 356.833,639.5 362.167,639.5 367.5,639.5C 367.5,633.5 367.5,627.5 367.5,621.5C 373.569,618.293 379.569,614.793 385.5,611C 393.122,604.477 400.289,597.644 407,590.5C 410.281,583.439 414.448,576.939 419.5,571C 422.351,569.711 425.351,569.211 428.5,569.5 Z"/></g>
<g><path style="opacity:1" fill="#797980" d="M 444.5,559.5 C 445.867,564.941 446.533,570.608 446.5,576.5C 444.322,605.323 445.489,633.989 450,662.5C 456.321,686.418 458.988,710.752 458,735.5C 456.971,739.889 455.138,743.889 452.5,747.5C 449.304,751.073 445.304,752.74 440.5,752.5C 436.929,753.076 434.262,751.91 432.5,749C 433.544,747.826 434.544,746.659 435.5,745.5C 440.037,743.802 443.537,740.802 446,736.5C 449.047,728.46 450.547,720.126 450.5,711.5C 447.488,686.446 443.988,661.446 440,636.5C 439.521,616.712 437.854,597.045 435,577.5C 433.054,574.58 430.887,571.913 428.5,569.5C 430.807,569.986 432.973,569.986 435,569.5C 435.333,571.5 435.667,573.5 436,575.5C 437.011,576.337 438.178,576.67 439.5,576.5C 440.167,574.181 440.334,571.847 440,569.5C 439.331,572.028 438.498,572.028 437.5,569.5C 438.836,566.528 440.336,566.195 442,568.5C 444.212,565.998 445.045,562.998 444.5,559.5 Z"/></g>
<g><path style="opacity:1" fill="#cacbd5" d="M 495.5,394.5 C 484.915,392.806 474.249,392.14 463.5,392.5C 463.5,394.5 463.5,396.5 463.5,398.5C 460.86,398.447 458.36,397.78 456,396.5C 455.167,396.667 454.333,396.833 453.5,397C 456.167,397.667 456.167,398.333 453.5,399C 449.129,399.172 444.796,399.672 440.5,400.5C 439.814,402.064 439.981,403.731 441,405.5C 444.589,406.707 447.755,408.541 450.5,411C 449.663,412.011 449.33,413.178 449.5,414.5C 451.993,414.131 452.66,414.797 451.5,416.5C 441.393,407.226 431.727,397.392 422.5,387C 418.762,384.803 415.429,382.136 412.5,379C 404.619,376.676 398.119,378.843 393,385.5C 390.934,391.757 388.267,397.757 385,403.5C 378.279,409.892 371.279,415.892 364,421.5C 359.608,427.228 355.608,433.228 352,439.5C 346.86,445.061 341.527,450.395 336,455.5C 334.234,457.596 332.901,459.929 332,462.5C 323.497,469.63 317.497,478.297 314,488.5C 313.667,506.833 313.333,525.167 313,543.5C 308.641,578.77 289.475,601.27 255.5,611C 238.31,613.742 221.31,617.409 204.5,622C 199.667,624.751 195.667,628.418 192.5,633C 186.136,647.145 185.97,661.312 192,675.5C 199.03,682.865 206.364,689.865 214,696.5C 215.139,700.112 216.806,703.446 219,706.5C 219.667,711.5 219.667,716.5 219,721.5C 215.585,735.744 212.585,750.078 210,764.5C 208.004,778.783 207.004,793.116 207,807.5C 210.721,812.879 215.888,814.879 222.5,813.5C 228.822,814.332 234.488,812.832 239.5,809C 241.007,807.527 241.674,805.693 241.5,803.5C 240.177,796.895 239.51,790.229 239.5,783.5C 240.319,786.305 240.819,789.305 241,792.5C 241.333,789.5 241.667,786.5 242,783.5C 242.076,788.655 243.242,793.488 245.5,798C 244.811,800.054 243.811,801.054 242.5,801C 243.258,805.397 244.425,805.564 246,801.5C 246.667,803.167 246.667,804.833 246,806.5C 245.667,806.167 245.333,805.833 245,805.5C 244.517,806.448 244.351,807.448 244.5,808.5C 243.5,808.5 242.5,808.5 241.5,808.5C 241.351,809.552 241.517,810.552 242,811.5C 242.893,810.289 243.726,810.289 244.5,811.5C 242.955,812.452 241.288,812.785 239.5,812.5C 239.5,813.5 239.5,814.5 239.5,815.5C 228.833,815.5 218.167,815.5 207.5,815.5C 207.5,816.833 207.5,818.167 207.5,819.5C 217.737,819.497 228.07,819.331 238.5,819C 239.167,817.667 240.167,816.667 241.5,816C 241.167,815.667 240.833,815.333 240.5,815C 242.218,814.654 243.885,814.154 245.5,813.5C 246.974,815.149 248.807,816.149 251,816.5C 257.788,815.555 264.621,815.222 271.5,815.5C 271.5,810.167 271.5,804.833 271.5,799.5C 282.167,799.5 292.833,799.5 303.5,799.5C 303.5,794.5 303.5,789.5 303.5,784.5C 313.516,784.453 323.516,784.787 333.5,785.5C 336.244,786.072 337.077,787.738 336,790.5C 330.553,794.451 325.053,798.118 319.5,801.5C 308.761,805.357 298.094,809.524 287.5,814C 260.744,822.099 233.411,825.099 205.5,823C 198.591,822.909 194.591,819.576 193.5,813C 197.878,801.191 201.045,789.024 203,776.5C 204.491,763.409 206.491,750.409 209,737.5C 213.617,720.871 209.784,706.704 197.5,695C 179.971,683.768 173.804,667.934 179,647.5C 179.959,635.418 184.792,625.251 193.5,617C 200.225,613.901 207.225,611.567 214.5,610C 230.984,607.732 247.317,604.732 263.5,601C 284.142,593.859 297.809,580.026 304.5,559.5C 306.259,554.095 307.259,548.429 307.5,542.5C 305.83,522.487 301.33,503.154 294,484.5C 293.333,481.5 293.333,478.5 294,475.5C 301.456,465.709 309.289,456.209 317.5,447C 323.5,443 329.5,439 335.5,435C 348.858,421.586 362.691,408.752 377,396.5C 380.083,392.6 382.416,388.266 384,383.5C 392.803,371.56 404.637,366.393 419.5,368C 421.587,368.792 423.421,369.959 425,371.5C 428.017,381.036 433.184,389.203 440.5,396C 441.833,396.667 443.167,396.667 444.5,396C 446.741,394.478 449.074,393.145 451.5,392C 466.507,389.467 481.173,390.3 495.5,394.5 Z"/></g>
<g><path style="opacity:1" fill="#cccdd6" d="M 367.5,621.5 C 367.5,627.5 367.5,633.5 367.5,639.5C 362.167,639.5 356.833,639.5 351.5,639.5C 351.5,644.5 351.5,649.5 351.5,654.5C 344.825,654.334 338.158,654.5 331.5,655C 316.926,655.725 305.426,661.891 297,673.5C 283.272,699.006 271.272,725.339 261,752.5C 259.128,760.847 260.961,768.18 266.5,774.5C 265.761,774.369 265.094,774.536 264.5,775C 265.696,775.654 265.696,776.154 264.5,776.5C 263.808,775.975 263.308,775.308 263,774.5C 260.619,775.435 258.119,775.768 255.5,775.5C 256.371,772.938 256.371,770.272 255.5,767.5C 250.5,767.5 245.5,767.5 240.5,767.5C 240.806,770.385 240.473,773.052 239.5,775.5C 239.334,771.486 239.501,767.486 240,763.5C 245.413,748.058 252.246,733.392 260.5,719.5C 264.533,710.758 268.033,701.758 271,692.5C 273.385,680.52 275.552,668.52 277.5,656.5C 283.534,650.304 290.534,645.471 298.5,642C 316.197,635.991 334.197,630.991 352.5,627C 357.628,625.309 362.628,623.476 367.5,621.5 Z"/></g>
<g><path style="opacity:1" fill="#4d4d4d" d="M 161.5,823.5 C 160.686,825.631 160.186,827.964 160,830.5C 159.667,830.167 159.333,829.833 159,829.5C 156.734,832.51 154.4,836.177 152,840.5C 151.175,838.299 151.675,836.466 153.5,835C 152.14,830.637 151.306,826.137 151,821.5C 150.617,820.944 150.117,820.611 149.5,820.5C 150.466,815.184 150.966,809.851 151,804.5C 149.951,803.483 148.784,803.316 147.5,804C 137.297,813.911 131.464,826.077 130,840.5C 128.58,861.81 129.747,882.81 133.5,903.5C 133.618,909.591 134.451,915.591 136,921.5C 142.155,941.962 147.488,962.629 152,983.5C 153.239,989.435 153.739,995.435 153.5,1001.5C 111.833,1001.5 70.1667,1001.5 28.5,1001.5C 19.4665,997.022 9.79986,994.689 -0.5,994.5C -0.5,961.5 -0.5,928.5 -0.5,895.5C 3.46649,894.707 7.46649,894.04 11.5,893.5C 14.7631,893.564 17.7631,894.398 20.5,896C 23.1667,896.667 25.8333,896.667 28.5,896C 34.0056,893.746 39.3389,891.246 44.5,888.5C 47.9196,889.374 51.253,890.541 54.5,892C 57.5,892.667 60.5,892.667 63.5,892C 68.3555,888.645 72.3555,884.478 75.5,879.5C 81.7452,866.955 85.0785,853.621 85.5,839.5C 83.6378,830.769 82.6378,821.936 82.5,813C 85.5846,763.333 95.7513,715.167 113,668.5C 118.535,655.736 126.702,645.069 137.5,636.5C 140.282,635.048 142.782,635.381 145,637.5C 146.101,641.552 146.601,645.719 146.5,650C 146.333,653.5 146.167,657 146,660.5C 139.308,682.37 136.975,704.703 139,727.5C 139.781,735.751 141.948,743.584 145.5,751C 152.774,750.016 160.107,749.683 167.5,750C 173.622,753.389 177.456,758.556 179,765.5C 179.667,771.5 179.667,777.5 179,783.5C 176.853,789.612 174.52,795.612 172,801.5C 166.938,808.069 163.438,815.403 161.5,823.5 Z"/></g>
<g><path style="opacity:1" fill="#4e4e50" d="M 294.5,557.5 C 296.16,560.149 297.826,562.816 299.5,565.5C 301.432,563.583 303.099,561.583 304.5,559.5C 297.809,580.026 284.142,593.859 263.5,601C 247.317,604.732 230.984,607.732 214.5,610C 207.225,611.567 200.225,613.901 193.5,617C 184.792,625.251 179.959,635.418 179,647.5C 173.804,667.934 179.971,683.768 197.5,695C 209.784,706.704 213.617,720.871 209,737.5C 206.491,750.409 204.491,763.409 203,776.5C 201.045,789.024 197.878,801.191 193.5,813C 194.591,819.576 198.591,822.909 205.5,823C 233.411,825.099 260.744,822.099 287.5,814C 298.094,809.524 308.761,805.357 319.5,801.5C 319.863,803.911 318.863,805.411 316.5,806C 317.634,807.016 317.301,807.683 315.5,808C 317.167,808.333 318.833,808.667 320.5,809C 321.252,809.671 321.586,810.504 321.5,811.5C 280.017,827.075 237.017,832.908 192.5,829C 181.309,825.933 178.642,819.267 184.5,809C 187.713,804.076 190.547,798.91 193,793.5C 197.44,774.936 199.94,756.102 200.5,737C 200.782,730.014 199.949,723.18 198,716.5C 195.385,712.217 192.385,708.217 189,704.5C 179.81,698.98 173.144,691.314 169,681.5C 167.795,660.985 170.462,640.985 177,621.5C 180.245,613.956 185.745,608.789 193.5,606C 209.316,602.023 225.316,599.023 241.5,597C 252.146,594.396 262.479,590.896 272.5,586.5C 283.323,579.361 290.657,569.694 294.5,557.5 Z"/></g>
<g><path style="opacity:1" fill="#85868d" d="M 97.5,647.5 C 96.8623,652.19 96.029,656.856 95,661.5C 91.141,666.818 89.4743,672.818 90,679.5C 89.5831,680.756 88.7498,681.423 87.5,681.5C 89.064,669.491 92.3973,658.158 97.5,647.5 Z"/></g>
<g><path style="opacity:1" fill="#8d8c92" d="M 377.5,659.5 C 379.898,659.259 381.898,659.926 383.5,661.5C 381.102,661.741 379.102,661.074 377.5,659.5 Z"/></g>
<g><path style="opacity:1" fill="#7e7e86" d="M 520.5,595.5 C 522.164,596.949 522.998,598.949 523,601.5C 523.333,600.833 523.667,600.167 524,599.5C 524.5,612.829 524.667,626.163 524.5,639.5C 525.5,639.5 526.5,639.5 527.5,639.5C 526.75,644.188 526.416,648.855 526.5,653.5C 527.026,656.843 528.026,660.01 529.5,663C 528.744,665.978 528.411,668.811 528.5,671.5C 524.169,653.234 522.336,634.568 523,615.5C 522.165,608.823 521.332,602.157 520.5,595.5 Z"/></g>
<g><path style="opacity:1" fill="#4d4d4d" d="M -0.5,663.5 C 4.98981,670.655 9.82314,678.322 14,686.5C 16.7969,690.299 19.9636,693.799 23.5,697C 41.3775,696.229 54.7108,688.062 63.5,672.5C 66.0972,670.112 68.5972,670.112 71,672.5C 72.5066,681.807 72.5066,691.14 71,700.5C 67.8642,722.853 64.5309,745.186 61,767.5C 59.2773,777.021 55.444,785.521 49.5,793C 39.4497,799.391 29.7831,798.725 20.5,791C 14.2261,785.448 8.89274,779.114 4.5,772C 2.73498,771.36 1.06831,771.527 -0.5,772.5C -0.5,736.167 -0.5,699.833 -0.5,663.5 Z"/></g>
<g><path style="opacity:1" fill="#777a7f" d="M 407.5,675.5 C 408.117,675.611 408.617,675.944 409,676.5C 409.167,678.333 409.333,680.167 409.5,682C 409.7,684.866 409.033,687.366 407.5,689.5C 408.762,684.819 408.762,680.152 407.5,675.5 Z"/></g>
<g><path style="opacity:1" fill="#9c9da2" d="M 396.5,697.5 C 392.797,699.055 388.797,699.722 384.5,699.5C 381.314,699.498 378.314,699.165 375.5,698.5C 382.535,698.674 389.535,698.341 396.5,697.5 Z"/></g>
<g><path style="opacity:1" fill="#cacbd4" d="M 84.5,691.5 C 78.6685,722.137 72.8351,752.804 67,783.5C 63.8001,791.566 59.8001,799.232 55,806.5C 48.7453,811.806 41.5787,813.639 33.5,812C 22.6511,807.641 13.6511,800.975 6.5,792C 4.19018,791.503 1.85684,791.337 -0.5,791.5C -0.5,785.167 -0.5,778.833 -0.5,772.5C 1.06831,771.527 2.73498,771.36 4.5,772C 8.89274,779.114 14.2261,785.448 20.5,791C 29.7831,798.725 39.4497,799.391 49.5,793C 55.444,785.521 59.2773,777.021 61,767.5C 64.5309,745.186 67.8642,722.853 71,700.5C 72.5066,691.14 72.5066,681.807 71,672.5C 68.5972,670.112 66.0972,670.112 63.5,672.5C 63.5,671.5 63.5,670.5 63.5,669.5C 65.143,669.52 66.4763,668.853 67.5,667.5C 69.9686,669.007 72.1353,668.673 74,666.5C 76.6831,675.218 77.5164,684.052 76.5,693C 76.8664,705.47 78.5331,705.636 81.5,693.5C 80.8333,693.167 80.1667,692.833 79.5,692.5C 80.7515,690.999 81.7515,689.332 82.5,687.5C 83.1719,688.949 83.8386,690.282 84.5,691.5 Z"/></g>
<g><path style="opacity:1" fill="#cccfd7" d="M 266.5,774.5 C 270.832,778.165 275.832,780.498 281.5,781.5C 283.389,782.322 285.389,783.155 287.5,784C 292.823,784.499 298.156,784.666 303.5,784.5C 303.5,789.5 303.5,794.5 303.5,799.5C 292.833,799.5 282.167,799.5 271.5,799.5C 271.5,804.833 271.5,810.167 271.5,815.5C 264.621,815.222 257.788,815.555 251,816.5C 248.807,816.149 246.974,815.149 245.5,813.5C 243.885,814.154 242.218,814.654 240.5,815C 240.833,815.333 241.167,815.667 241.5,816C 240.167,816.667 239.167,817.667 238.5,819C 228.07,819.331 217.737,819.497 207.5,819.5C 207.5,818.167 207.5,816.833 207.5,815.5C 218.167,815.5 228.833,815.5 239.5,815.5C 239.5,814.5 239.5,813.5 239.5,812.5C 241.288,812.785 242.955,812.452 244.5,811.5C 243.726,810.289 242.893,810.289 242,811.5C 241.517,810.552 241.351,809.552 241.5,808.5C 242.5,808.5 243.5,808.5 244.5,808.5C 244.351,807.448 244.517,806.448 245,805.5C 245.333,805.833 245.667,806.167 246,806.5C 246.667,804.833 246.667,803.167 246,801.5C 244.425,805.564 243.258,805.397 242.5,801C 243.811,801.054 244.811,800.054 245.5,798C 243.242,793.488 242.076,788.655 242,783.5C 241.667,786.5 241.333,789.5 241,792.5C 240.819,789.305 240.319,786.305 239.5,783.5C 238.167,780.833 238.167,778.167 239.5,775.5C 240.473,773.052 240.806,770.385 240.5,767.5C 245.5,767.5 250.5,767.5 255.5,767.5C 256.371,770.272 256.371,772.938 255.5,775.5C 258.119,775.768 260.619,775.435 263,774.5C 263.308,775.308 263.808,775.975 264.5,776.5C 265.696,776.154 265.696,775.654 264.5,775C 265.094,774.536 265.761,774.369 266.5,774.5 Z"/></g>
<g><path style="opacity:1" fill="#b5b6be" d="M 281.5,781.5 C 296.782,783.04 312.115,783.874 327.5,784C 329.708,784.191 331.708,784.691 333.5,785.5C 323.516,784.787 313.516,784.453 303.5,784.5C 298.156,784.666 292.823,784.499 287.5,784C 285.389,783.155 283.389,782.322 281.5,781.5 Z"/></g>
<g><path style="opacity:1" fill="#cccdd6" d="M 149.5,820.5 C 146.049,837.431 152.049,849.598 167.5,857C 176.562,858.857 185.729,860.023 195,860.5C 208.951,857.857 222.951,855.524 237,853.5C 264.476,855.017 291.976,855.851 319.5,856C 324.838,857.335 330.171,858.669 335.5,860C 354.355,868.508 373.688,875.842 393.5,882C 395.727,882.941 397.727,884.108 399.5,885.5C 399.5,886.5 399.5,887.5 399.5,888.5C 400.5,888.5 401.5,888.5 402.5,888.5C 402.539,890.359 401.706,891.692 400,892.5C 391.985,891.485 383.818,891.318 375.5,892C 378.167,891.667 380.833,891.333 383.5,891C 379.661,890.541 375.828,890.041 372,889.5C 370.342,889.325 369.009,888.658 368,887.5C 367.667,888.5 367.333,889.5 367,890.5C 366.487,888.479 365.32,886.979 363.5,886C 360.774,885.818 358.107,885.318 355.5,884.5C 357.893,884.045 360.226,883.711 362.5,883.5C 364.569,883.176 364.902,882.342 363.5,881C 359.219,880.79 355.052,880.623 351,880.5C 350.508,881.549 350.674,882.549 351.5,883.5C 346.167,884.833 340.833,884.833 335.5,883.5C 336.376,882.749 337.376,882.249 338.5,882C 333.497,879.47 328.331,878.97 323,880.5C 319.477,878.486 315.643,877.152 311.5,876.5C 293.013,872.651 274.347,869.984 255.5,868.5C 248.679,867.345 241.679,867.179 234.5,868C 233.263,868.232 232.263,868.732 231.5,869.5C 229.5,870.5 227.5,871.5 225.5,872.5C 220.423,875.74 216.09,879.907 212.5,885C 211.667,885.167 210.833,885.333 210,885.5C 203.791,882.979 197.957,879.813 192.5,876C 179.535,871.23 166.202,869.73 152.5,871.5C 151.343,874.784 151.176,878.118 152,881.5C 154.106,883.377 155.439,885.71 156,888.5C 162.464,892.824 169.297,896.491 176.5,899.5C 178.242,901.563 179.909,903.563 181.5,905.5C 180.624,905.369 179.957,905.702 179.5,906.5C 180.506,907.396 180.506,908.062 179.5,908.5C 176.554,907.694 173.888,906.361 171.5,904.5C 172.729,903.719 174.062,903.219 175.5,903C 176.451,902.282 176.617,901.449 176,900.5C 173.263,901.61 170.429,901.777 167.5,901C 168.167,900.667 168.833,900.333 169.5,900C 166.644,897.595 163.477,895.761 160,894.5C 155.587,895.632 151.087,895.799 146.5,895C 147.694,892.342 146.694,891.176 143.5,891.5C 143.863,900.225 143.529,906.891 142.5,911.5C 141.5,911.5 140.5,911.5 139.5,911.5C 140.167,900.833 140.833,890.167 141.5,879.5C 139.5,879.5 137.5,879.5 135.5,879.5C 134.272,883.914 133.272,888.414 132.5,893C 132.439,895.279 133.105,897.279 134.5,899C 134.07,900.598 133.736,902.098 133.5,903.5C 129.747,882.81 128.58,861.81 130,840.5C 131.464,826.077 137.297,813.911 147.5,804C 148.784,803.316 149.951,803.483 151,804.5C 150.966,809.851 150.466,815.184 149.5,820.5 Z"/></g>
<g><path style="opacity:1" fill="#9a9aa2" d="M 255.5,868.5 C 247.471,868.344 239.471,868.677 231.5,869.5C 232.263,868.732 233.263,868.232 234.5,868C 241.679,867.179 248.679,867.345 255.5,868.5 Z"/></g>
<g><path style="opacity:1" fill="#737478" d="M 225.5,872.5 C 229.929,872.978 234.096,872.312 238,870.5C 247.812,871.937 257.645,872.27 267.5,871.5C 274.205,872.064 280.871,872.897 287.5,874C 284.5,875 281.5,876 278.5,877C 280,877.167 281.5,877.333 283,877.5C 287.691,875.627 292.524,874.794 297.5,875C 296.062,875.219 294.729,875.719 293.5,876.5C 294.333,876.833 295.167,877.167 296,877.5C 298.462,876.841 300.962,876.507 303.5,876.5C 303.351,877.552 303.517,878.552 304,879.5C 304.333,879.167 304.667,878.833 305,878.5C 309.763,879.394 314.597,880.061 319.5,880.5C 330.857,884.76 342.523,888.26 354.5,891C 366.773,892.788 379.107,894.122 391.5,895C 405.232,898.317 413.732,906.817 417,920.5C 418.052,928.146 418.886,935.813 419.5,943.5C 417.716,958.122 417.216,972.789 418,987.5C 418.66,992.31 419.827,996.977 421.5,1001.5C 416.833,1001.5 412.167,1001.5 407.5,1001.5C 407.301,984.462 407.968,967.462 409.5,950.5C 410.152,941.744 408.652,933.411 405,925.5C 399.417,918.792 392.25,915.459 383.5,915.5C 364.39,917.295 345.723,921.129 327.5,927C 316.828,929.001 306.162,931.001 295.5,933C 287.5,933.667 279.5,933.667 271.5,933C 264.864,930.455 258.198,928.122 251.5,926C 244.753,923.727 240.253,925.894 238,932.5C 236.513,936.116 235.18,939.783 234,943.5C 232.326,954.228 230.326,964.894 228,975.5C 227.333,979.833 227.333,984.167 228,988.5C 230.09,992.599 231.256,996.933 231.5,1001.5C 222.167,1001.5 212.833,1001.5 203.5,1001.5C 203.657,1000.13 203.49,998.793 203,997.5C 197.545,988.595 193.379,979.262 190.5,969.5C 189.747,960.854 189.413,952.188 189.5,943.5C 189.666,935.493 189.5,927.493 189,919.5C 187.706,914.916 185.873,910.582 183.5,906.5C 183.043,905.702 182.376,905.369 181.5,905.5C 179.909,903.563 178.242,901.563 176.5,899.5C 169.297,896.491 162.464,892.824 156,888.5C 155.439,885.71 154.106,883.377 152,881.5C 151.176,878.118 151.343,874.784 152.5,871.5C 166.202,869.73 179.535,871.23 192.5,876C 197.957,879.813 203.791,882.979 210,885.5C 210.833,885.333 211.667,885.167 212.5,885C 216.09,879.907 220.423,875.74 225.5,872.5 Z"/></g>
<g><path style="opacity:1" fill="#7b7c83" d="M 255.5,868.5 C 274.347,869.984 293.013,872.651 311.5,876.5C 314.079,878.025 316.746,879.359 319.5,880.5C 314.597,880.061 309.763,879.394 305,878.5C 304.667,878.833 304.333,879.167 304,879.5C 303.517,878.552 303.351,877.552 303.5,876.5C 300.962,876.507 298.462,876.841 296,877.5C 295.167,877.167 294.333,876.833 293.5,876.5C 294.729,875.719 296.062,875.219 297.5,875C 292.524,874.794 287.691,875.627 283,877.5C 281.5,877.333 280,877.167 278.5,877C 281.5,876 284.5,875 287.5,874C 280.871,872.897 274.205,872.064 267.5,871.5C 257.645,872.27 247.812,871.937 238,870.5C 234.096,872.312 229.929,872.978 225.5,872.5C 227.5,871.5 229.5,870.5 231.5,869.5C 239.471,868.677 247.471,868.344 255.5,868.5 Z"/></g>
<g><path style="opacity:1" fill="#cccfd7" d="M 181.5,905.5 C 182.376,905.369 183.043,905.702 183.5,906.5C 185.873,910.582 187.706,914.916 189,919.5C 189.5,927.493 189.666,935.493 189.5,943.5C 188.344,951.323 188.177,959.323 189,967.5C 189.278,968.416 189.778,969.082 190.5,969.5C 193.379,979.262 197.545,988.595 203,997.5C 203.49,998.793 203.657,1000.13 203.5,1001.5C 186.833,1001.5 170.167,1001.5 153.5,1001.5C 153.739,995.435 153.239,989.435 152,983.5C 147.488,962.629 142.155,941.962 136,921.5C 134.451,915.591 133.618,909.591 133.5,903.5C 133.736,902.098 134.07,900.598 134.5,899C 133.105,897.279 132.439,895.279 132.5,893C 133.272,888.414 134.272,883.914 135.5,879.5C 137.5,879.5 139.5,879.5 141.5,879.5C 140.833,890.167 140.167,900.833 139.5,911.5C 140.5,911.5 141.5,911.5 142.5,911.5C 143.529,906.891 143.863,900.225 143.5,891.5C 146.694,891.176 147.694,892.342 146.5,895C 151.087,895.799 155.587,895.632 160,894.5C 163.477,895.761 166.644,897.595 169.5,900C 168.833,900.333 168.167,900.667 167.5,901C 170.429,901.777 173.263,901.61 176,900.5C 176.617,901.449 176.451,902.282 175.5,903C 174.062,903.219 172.729,903.719 171.5,904.5C 173.888,906.361 176.554,907.694 179.5,908.5C 180.506,908.062 180.506,907.396 179.5,906.5C 179.957,905.702 180.624,905.369 181.5,905.5 Z"/></g>
<g><path style="opacity:1" fill="#4d4d4d" d="M 407.5,1001.5 C 348.833,1001.5 290.167,1001.5 231.5,1001.5C 231.256,996.933 230.09,992.599 228,988.5C 227.333,984.167 227.333,979.833 228,975.5C 230.326,964.894 232.326,954.228 234,943.5C 235.18,939.783 236.513,936.116 238,932.5C 240.253,925.894 244.753,923.727 251.5,926C 258.198,928.122 264.864,930.455 271.5,933C 279.5,933.667 287.5,933.667 295.5,933C 306.162,931.001 316.828,929.001 327.5,927C 345.723,921.129 364.39,917.295 383.5,915.5C 392.25,915.459 399.417,918.792 405,925.5C 408.652,933.411 410.152,941.744 409.5,950.5C 407.968,967.462 407.301,984.462 407.5,1001.5 Z"/></g>
<g><path style="opacity:1" fill="#acadb7" d="M 189.5,943.5 C 189.413,952.188 189.747,960.854 190.5,969.5C 189.778,969.082 189.278,968.416 189,967.5C 188.177,959.323 188.344,951.323 189.5,943.5 Z"/></g>
<g><path style="opacity:1" fill="#c9cad4" d="M 489.5,567.5 C 491.483,568.902 493.149,570.736 494.5,573C 499.872,574.005 505.205,575.171 510.5,576.5C 515.73,581.876 519.064,588.209 520.5,595.5C 521.332,602.157 522.165,608.823 523,615.5C 522.336,634.568 524.169,653.234 528.5,671.5C 532.976,688.739 537.143,706.072 541,723.5C 545.387,744.934 547.887,766.6 548.5,788.5C 547.504,816.465 543.004,843.799 535,870.5C 530.375,882.708 526.375,895.041 523,907.5C 509.482,942.878 489.649,974.211 463.5,1001.5C 449.5,1001.5 435.5,1001.5 421.5,1001.5C 419.827,996.977 418.66,992.31 418,987.5C 417.216,972.789 417.716,958.122 419.5,943.5C 418.886,935.813 418.052,928.146 417,920.5C 413.732,906.817 405.232,898.317 391.5,895C 379.107,894.122 366.773,892.788 354.5,891C 342.523,888.26 330.857,884.76 319.5,880.5C 316.746,879.359 314.079,878.025 311.5,876.5C 315.643,877.152 319.477,878.486 323,880.5C 328.331,878.97 333.497,879.47 338.5,882C 337.376,882.249 336.376,882.749 335.5,883.5C 340.833,884.833 346.167,884.833 351.5,883.5C 350.674,882.549 350.508,881.549 351,880.5C 355.052,880.623 359.219,880.79 363.5,881C 364.902,882.342 364.569,883.176 362.5,883.5C 360.226,883.711 357.893,884.045 355.5,884.5C 358.107,885.318 360.774,885.818 363.5,886C 365.32,886.979 366.487,888.479 367,890.5C 367.333,889.5 367.667,888.5 368,887.5C 369.009,888.658 370.342,889.325 372,889.5C 375.828,890.041 379.661,890.541 383.5,891C 380.833,891.333 378.167,891.667 375.5,892C 383.818,891.318 391.985,891.485 400,892.5C 401.706,891.692 402.539,890.359 402.5,888.5C 401.5,888.5 400.5,888.5 399.5,888.5C 399.5,887.5 399.5,886.5 399.5,885.5C 402.274,886.723 404.941,888.223 407.5,890C 417.63,900.364 423.13,912.864 424,927.5C 424.333,944.167 424.667,960.833 425,977.5C 429.151,996.777 439.651,1000.94 456.5,990C 475.69,975.147 490.857,956.981 502,935.5C 514.692,909.427 525.025,882.427 533,854.5C 544.945,811.992 544.278,769.658 531,727.5C 520.002,694.49 509.169,661.49 498.5,628.5C 499.091,626.097 500.258,624.764 502,624.5C 502.308,625.308 502.808,625.975 503.5,626.5C 504.451,625.674 505.451,625.508 506.5,626C 506.412,628.789 506.746,631.622 507.5,634.5C 506.5,634.5 505.5,634.5 504.5,634.5C 506.167,639.548 507.333,644.548 508,649.5C 508.773,646.789 509.94,644.289 511.5,642C 511.387,640.72 510.72,639.887 509.5,639.5C 507.786,640.609 507.119,639.942 507.5,637.5C 511.37,638.799 515.37,639.466 519.5,639.5C 519.5,634.167 519.5,628.833 519.5,623.5C 520.5,623.5 521.5,623.5 522.5,623.5C 521.19,618.257 520.524,612.923 520.5,607.5C 519.167,607.5 517.833,607.5 516.5,607.5C 517.013,602.915 516.346,598.582 514.5,594.5C 514.833,593.833 515.167,593.167 515.5,592.5C 508.866,591.503 502.2,591.17 495.5,591.5C 495.5,586.167 495.5,580.833 495.5,575.5C 492.428,575.817 489.428,575.484 486.5,574.5C 486.886,571.163 487.886,568.83 489.5,567.5 Z"/></g>
<g><path style="opacity:1" fill="#c8cad4" d="M -0.5,994.5 C 9.79986,994.689 19.4665,997.022 28.5,1001.5C 18.8333,1001.5 9.16667,1001.5 -0.5,1001.5C -0.5,999.167 -0.5,996.833 -0.5,994.5 Z"/></g>
</svg>
