<?xml version="1.0" encoding="UTF-8"?>
<!DOCTYPE svg PUBLIC "-//W3C//DTD SVG 1.1//EN" "http://www.w3.org/Graphics/SVG/1.1/DTD/svg11.dtd">
<svg xmlns="http://www.w3.org/2000/svg" version="1.1" width="736px" height="1308px" style="shape-rendering:geometricPrecision; text-rendering:geometricPrecision; image-rendering:optimizeQuality; fill-rule:evenodd; clip-rule:evenodd" xmlns:xlink="http://www.w3.org/1999/xlink">
<g><path style="opacity:1" fill="#f5f0f4" d="M -0.5,-0.5 C 31.1667,-0.5 62.8333,-0.5 94.5,-0.5C 90.6049,15.8937 80.2716,25.0604 63.5,27C 53.2477,31.8838 52.9143,37.2171 62.5,43C 63.7932,43.49 65.1266,43.6567 66.5,43.5C 68.901,52.8497 74.2344,55.183 82.5,50.5C 85.6922,45.3273 87.1922,39.6606 87,33.5C 90.7538,27.7419 95.2538,22.5752 100.5,18C 104.749,16.8744 109.082,16.2077 113.5,16C 119.901,14.6966 122.401,10.8633 121,4.5C 119.648,2.25103 117.815,0.584365 115.5,-0.5C 184.167,-0.5 252.833,-0.5 321.5,-0.5C 326.837,13.1114 335.337,15.7781 347,7.5C 347.497,4.85397 347.664,2.1873 347.5,-0.5C 349.833,-0.5 352.167,-0.5 354.5,-0.5C 343.113,18.4229 343.947,36.7562 357,54.5C 364.506,63.6585 373.673,70.4919 384.5,75C 408.291,82.2169 423.458,74.0502 430,50.5C 432.442,30.0559 425.942,13.0559 410.5,-0.5C 464.833,-0.5 519.167,-0.5 573.5,-0.5C 573.265,7.43455 576.932,10.2679 584.5,8C 587.072,5.6872 588.739,2.85386 589.5,-0.5C 598.167,-0.5 606.833,-0.5 615.5,-0.5C 615.643,3.30469 617.643,4.97136 621.5,4.5C 625.232,4.13453 628.232,2.46786 630.5,-0.5C 665.5,-0.5 700.5,-0.5 735.5,-0.5C 735.5,20.5 735.5,41.5 735.5,62.5C 721.162,53.5862 705.829,51.4195 689.5,56C 672.664,64.1946 667.164,77.3613 673,95.5C 679.101,111.916 690.934,121.416 708.5,124C 717.62,124.971 726.62,124.471 735.5,122.5C 735.5,236.833 735.5,351.167 735.5,465.5C 729.341,467.442 726.341,471.775 726.5,478.5C 725.912,485.245 728.912,488.245 735.5,487.5C 735.5,492.833 735.5,498.167 735.5,503.5C 730.365,491.073 721.031,486.573 707.5,490C 692.484,497.335 687.818,508.669 693.5,524C 699.436,525.139 705.436,525.805 711.5,526C 715.649,530.814 720.816,533.98 727,535.5C 730.173,534.813 733.006,533.479 735.5,531.5C 735.5,611.167 735.5,690.833 735.5,770.5C 721.676,762.808 707.01,760.641 691.5,764C 678.249,768.236 671.583,777.236 671.5,791C 671.052,806.444 677.386,818.11 690.5,826C 704.793,833.581 719.793,835.414 735.5,831.5C 735.5,945.5 735.5,1059.5 735.5,1173.5C 729.524,1176.09 726.524,1180.76 726.5,1187.5C 725.861,1194.19 728.861,1197.19 735.5,1196.5C 735.5,1201.5 735.5,1206.5 735.5,1211.5C 730.514,1200.52 721.847,1196.02 709.5,1198C 697.874,1202.23 691.541,1210.56 690.5,1223C 689.809,1228.62 692.142,1232.29 697.5,1234C 702.167,1234.33 706.833,1234.67 711.5,1235C 714.99,1237.91 718.656,1240.58 722.5,1243C 727.585,1244.33 731.919,1243.17 735.5,1239.5C 735.5,1262.17 735.5,1284.83 735.5,1307.5C 728.167,1307.5 720.833,1307.5 713.5,1307.5C 715.075,1303.31 715.575,1298.97 715,1294.5C 713.806,1293.57 712.473,1292.9 711,1292.5C 694.839,1297.78 678.339,1301.61 661.5,1304C 659.121,1304.72 657.121,1305.88 655.5,1307.5C 645.167,1307.5 634.833,1307.5 624.5,1307.5C 624.739,1305.53 624.406,1303.7 623.5,1302C 619.554,1301.82 615.72,1301.66 612,1301.5C 609.869,1295.14 607.869,1288.81 606,1282.5C 604.267,1280.4 602.267,1280.07 600,1281.5C 600.262,1287.38 598.762,1292.71 595.5,1297.5C 591.204,1298.33 586.871,1298.83 582.5,1299C 580.162,1301.54 579.828,1304.38 581.5,1307.5C 544.167,1307.5 506.833,1307.5 469.5,1307.5C 476.174,1307.04 482.841,1305.87 489.5,1304C 495.735,1299.29 497.068,1293.45 493.5,1286.5C 490.244,1284.29 487.078,1281.96 484,1279.5C 478.675,1263.12 470.009,1261.12 458,1273.5C 454.341,1285.82 448.841,1297.15 441.5,1307.5C 381.167,1307.5 320.833,1307.5 260.5,1307.5C 258.821,1305.3 257.821,1302.8 257.5,1300C 258.51,1293.85 258.676,1287.69 258,1281.5C 253.651,1271.7 246.151,1268.2 235.5,1271C 229.819,1273.51 226.152,1277.67 224.5,1283.5C 215.223,1283.9 209.057,1288.57 206,1297.5C 205.502,1300.82 205.335,1304.15 205.5,1307.5C 190.833,1307.5 176.167,1307.5 161.5,1307.5C 161.896,1304.96 161.229,1302.79 159.5,1301C 154.802,1301.45 150.969,1299.95 148,1296.5C 147.124,1292.66 145.791,1288.99 144,1285.5C 141.224,1283.86 139.224,1284.53 138,1287.5C 136.63,1294.11 135.797,1300.77 135.5,1307.5C 91.8333,1307.5 48.1667,1307.5 4.5,1307.5C 6.07474,1303.31 6.57474,1298.97 6,1294.5C 3.99719,1292.54 1.83053,1292.21 -0.5,1293.5C -0.5,1273.5 -0.5,1253.5 -0.5,1233.5C 3.54177,1235.36 7.20843,1237.86 10.5,1241C 22.0333,1245.98 28.0333,1242.15 28.5,1229.5C 28.3562,1220.28 26.1896,1211.62 22,1203.5C 15.2862,1198.45 7.78616,1196.78 -0.5,1198.5C -0.5,1196.17 -0.5,1193.83 -0.5,1191.5C 8.28707,1194.06 12.9537,1190.72 13.5,1181.5C 13.5693,1176.58 11.9026,1172.42 8.5,1169C 5.54566,1167.28 2.54566,1167.11 -0.5,1168.5C -0.5,1157.5 -0.5,1146.5 -0.5,1135.5C 1.45254,1134.37 2.95254,1132.71 4,1130.5C 5.57944,1126.27 6.74611,1121.94 7.5,1117.5C 14.3142,1114.44 17.6476,1109.11 17.5,1101.5C 16.8814,1095.38 13.548,1091.54 7.5,1090C 4.85397,1089.5 2.1873,1089.34 -0.5,1089.5C -0.5,1030.17 -0.5,970.833 -0.5,911.5C 8.83798,914.239 14.5047,910.573 16.5,900.5C 16.0243,896.359 13.691,894.359 9.5,894.5C 5.34246,894.579 2.00912,896.245 -0.5,899.5C -0.5,896.167 -0.5,892.833 -0.5,889.5C 4.86706,885.76 6.53373,880.76 4.5,874.5C 3.15017,873.05 1.4835,872.383 -0.5,872.5C -0.5,859.167 -0.5,845.833 -0.5,832.5C 16.347,836.351 30.5137,832.017 42,819.5C 47.8738,808.872 47.8738,798.205 42,787.5C 32.1844,771.866 18.0177,763.533 -0.5,762.5C -0.5,712.833 -0.5,663.167 -0.5,613.5C 1.79893,605.592 4.13226,597.592 6.5,589.5C 6.44926,587.9 6.11593,586.4 5.5,585C 3.5273,584.505 1.5273,584.338 -0.5,584.5C -0.5,564.833 -0.5,545.167 -0.5,525.5C 5.26516,529.398 11.4318,532.731 18,535.5C 25.8933,533.747 29.3933,528.747 28.5,520.5C 28.0557,512.16 26.2224,504.16 23,496.5C 21.1266,494.291 18.96,492.458 16.5,491C 10.899,489.783 5.23235,489.283 -0.5,489.5C -0.5,487.167 -0.5,484.833 -0.5,482.5C 8.31618,485.021 12.9828,481.687 13.5,472.5C 13.1042,463.091 8.43756,458.757 -0.5,459.5C -0.5,448.833 -0.5,438.167 -0.5,427.5C 1.12879,426.375 2.62879,425.041 4,423.5C 5.81139,419.012 6.81139,414.346 7,409.5C 18.264,403.46 20.4306,395.127 13.5,384.5C 9.27486,381.785 4.6082,380.451 -0.5,380.5C -0.5,321.167 -0.5,261.833 -0.5,202.5C 5.40125,205.808 10.2346,204.475 14,198.5C 18.682,191.417 17.0153,187.083 9,185.5C 5.47937,186.527 2.3127,188.194 -0.5,190.5C -0.5,187.5 -0.5,184.5 -0.5,181.5C 4.95398,177.302 6.45398,171.969 4,165.5C 2.52951,164.733 1.02951,164.067 -0.5,163.5C -0.5,150.5 -0.5,137.5 -0.5,124.5C 14.3108,127.166 27.4774,123.832 39,114.5C 48.6595,101.905 48.9928,88.9052 40,75.5C 29.9221,62.0415 16.4221,54.7081 -0.5,53.5C -0.5,35.5 -0.5,17.5 -0.5,-0.5 Z"/></g>
<g><path style="opacity:1" fill="#232528" d="M 321.5,-0.5 C 330.167,-0.5 338.833,-0.5 347.5,-0.5C 347.664,2.1873 347.497,4.85397 347,7.5C 335.337,15.7781 326.837,13.1114 321.5,-0.5 Z"/></g>
<g><path style="opacity:1" fill="#222325" d="M 354.5,-0.5 C 373.167,-0.5 391.833,-0.5 410.5,-0.5C 425.942,13.0559 432.442,30.0559 430,50.5C 423.458,74.0502 408.291,82.2169 384.5,75C 373.673,70.4919 364.506,63.6585 357,54.5C 343.947,36.7562 343.113,18.4229 354.5,-0.5 Z"/></g>
<g><path style="opacity:1" fill="#393b41" d="M 615.5,-0.5 C 620.5,-0.5 625.5,-0.5 630.5,-0.5C 628.232,2.46786 625.232,4.13453 621.5,4.5C 617.643,4.97136 615.643,3.30469 615.5,-0.5 Z"/></g>
<g><path style="opacity:1" fill="#383a3f" d="M 573.5,-0.5 C 578.833,-0.5 584.167,-0.5 589.5,-0.5C 588.739,2.85386 587.072,5.6872 584.5,8C 576.932,10.2679 573.265,7.43455 573.5,-0.5 Z"/></g>
<g><path style="opacity:1" fill="#37393e" d="M 594.5,4.5 C 601.031,3.98846 607.364,4.8218 613.5,7C 615.709,8.87337 617.542,11.04 619,13.5C 620.576,22.0895 620.91,30.7562 620,39.5C 617.15,45.6822 612.65,47.5155 606.5,45C 602.833,42 599.167,39 595.5,36C 580.36,36.9328 575.86,30.4328 582,16.5C 585.073,11.2578 589.24,7.25781 594.5,4.5 Z"/></g>
<g><path style="opacity:1" fill="#37393e" d="M 469.5,4.5 C 480.443,3.7238 484.943,8.7238 483,19.5C 479.54,26.8122 474.04,28.9789 466.5,26C 459.292,17.74 460.292,10.5733 469.5,4.5 Z"/></g>
<g><path style="opacity:1" fill="#373a3f" d="M 635.5,8.5 C 643,7.16572 645.833,10.1657 644,17.5C 641.876,24.9815 637.043,28.4815 629.5,28C 625.788,25.487 624.622,21.987 626,17.5C 628.406,13.5915 631.572,10.5915 635.5,8.5 Z"/></g>
<g><path style="opacity:1" fill="#37393e" d="M 94.5,-0.5 C 101.5,-0.5 108.5,-0.5 115.5,-0.5C 117.815,0.584365 119.648,2.25103 121,4.5C 122.401,10.8633 119.901,14.6966 113.5,16C 109.082,16.2077 104.749,16.8744 100.5,18C 95.2538,22.5752 90.7538,27.7419 87,33.5C 87.1922,39.6606 85.6922,45.3273 82.5,50.5C 74.2344,55.183 68.901,52.8497 66.5,43.5C 65.1266,43.6567 63.7932,43.49 62.5,43C 52.9143,37.2171 53.2477,31.8838 63.5,27C 80.2716,25.0604 90.6049,15.8937 94.5,-0.5 Z"/></g>
<g><path style="opacity:1" fill="#242529" d="M 682.5,28.5 C 688.173,27.8386 693.506,28.6719 698.5,31C 702.699,36.2814 702.366,41.2814 697.5,46C 685.831,47.987 679.998,43.1537 680,31.5C 681.045,30.6266 681.878,29.6266 682.5,28.5 Z"/></g>
<g><path style="opacity:1" fill="#37393e" d="M 261.5,27.5 C 275.683,27.1944 279.85,33.5277 274,46.5C 261.362,53.8726 255.028,50.2059 255,35.5C 257.001,32.6693 259.167,30.0026 261.5,27.5 Z"/></g>
<g><path style="opacity:1" fill="#9899a7" d="M 198.5,7.5 C 201.325,7.08073 203.491,8.08073 205,10.5C 205.333,14.8333 205.667,19.1667 206,23.5C 207.141,25.6089 208.641,27.4422 210.5,29C 214.833,29.3333 219.167,29.6667 223.5,30C 227.182,31.3198 228.682,33.8198 228,37.5C 223.457,40.6686 219.291,44.1686 215.5,48C 216.586,50.7519 218.086,53.2519 220,55.5C 220.978,58.6693 220.478,61.5027 218.5,64C 217.167,64.6667 215.833,64.6667 214.5,64C 211.958,61.2888 209.291,58.7888 206.5,56.5C 204.368,54.8826 202.035,54.3826 199.5,55C 195.534,59.9675 191.201,64.6342 186.5,69C 181.92,70.4152 179.586,68.7485 179.5,64C 180.184,57.8226 181.851,51.9893 184.5,46.5C 180.889,44.7769 177.722,42.4436 175,39.5C 174.333,37.5 174.333,35.5 175,33.5C 176.4,32.8841 177.9,32.5507 179.5,32.5C 182.842,33.1738 186.175,33.8405 189.5,34.5C 192.309,25.4064 195.309,16.4064 198.5,7.5 Z"/></g>
<g><path style="opacity:1" fill="#252628" d="M 319.5,22.5 C 329.056,21.174 336.889,24.174 343,31.5C 346.41,44.7618 341.244,50.5951 327.5,49C 315.409,45.9898 311.242,38.4898 315,26.5C 316.397,24.9297 317.897,23.5964 319.5,22.5 Z"/></g>
<g><path style="opacity:1" fill="#25262a" d="M 654.5,43.5 C 661.491,42.9959 667.325,45.3293 672,50.5C 674.024,59.4638 670.524,63.9638 661.5,64C 652.981,61.1235 649.481,55.2902 651,46.5C 652.145,45.3636 653.312,44.3636 654.5,43.5 Z"/></g>
<g><path style="opacity:1" fill="#232426" d="M 529.5,39.5 C 542.394,37.4217 549.394,42.755 550.5,55.5C 549.499,59.8168 548.999,64.1501 549,68.5C 559.598,79.4878 570.098,90.6544 580.5,102C 585.167,102.333 589.833,102.667 594.5,103C 605.392,106.998 608.559,114.498 604,125.5C 600.748,128.209 597.248,130.542 593.5,132.5C 591.704,141.963 586.037,147.297 576.5,148.5C 567.991,146.825 562.491,141.825 560,133.5C 560.356,127.188 560.356,120.855 560,114.5C 550.803,105.637 541.969,96.4703 533.5,87C 526.036,88.1514 518.702,87.4848 511.5,85C 505.199,82.0867 501.866,77.0867 501.5,70C 502.408,58.5937 508.408,52.4271 519.5,51.5C 521.009,45.9903 524.342,41.9903 529.5,39.5 Z"/></g>
<g><path style="opacity:1" fill="#222325" d="M 735.5,62.5 C 735.5,82.5 735.5,102.5 735.5,122.5C 726.62,124.471 717.62,124.971 708.5,124C 690.934,121.416 679.101,111.916 673,95.5C 667.164,77.3613 672.664,64.1946 689.5,56C 705.829,51.4195 721.162,53.5862 735.5,62.5 Z"/></g>
<g><path style="opacity:1" fill="#222325" d="M -0.5,53.5 C 16.4221,54.7081 29.9221,62.0415 40,75.5C 48.9928,88.9052 48.6595,101.905 39,114.5C 27.4774,123.832 14.3108,127.166 -0.5,124.5C -0.5,100.833 -0.5,77.1667 -0.5,53.5 Z"/></g>
<g><path style="opacity:1" fill="#9899a8" d="M 136.5,62.5 C 139.249,62.2739 141.916,62.6072 144.5,63.5C 145.182,71.057 145.849,78.557 146.5,86C 151.833,86.3333 157.167,86.6667 162.5,87C 168.454,87.6062 170.954,90.7729 170,96.5C 169.25,97.1258 168.416,97.6258 167.5,98C 161.753,98.7467 156.253,100.247 151,102.5C 150.777,110.162 150.943,117.829 151.5,125.5C 151.333,129.167 151.167,132.833 151,136.5C 149.27,139.548 146.77,140.214 143.5,138.5C 139.723,129.712 136.723,120.712 134.5,111.5C 126.464,112.345 119.13,115.179 112.5,120C 108.78,122.058 105.28,121.891 102,119.5C 101.113,114.928 101.78,110.595 104,106.5C 107.833,102.667 111.667,98.8333 115.5,95C 111.57,93.1167 108.07,90.6167 105,87.5C 104.333,84.8333 104.333,82.1667 105,79.5C 106.822,77.9546 108.989,77.288 111.5,77.5C 116.717,78.1933 121.717,79.36 126.5,81C 129.556,74.6491 132.889,68.4825 136.5,62.5 Z"/></g>
<g><path style="opacity:1" fill="#242628" d="M 648.5,78.5 C 656.913,77.5729 663.413,80.5729 668,87.5C 668.755,90.3033 668.422,92.9699 667,95.5C 655.233,103.412 646.733,100.745 641.5,87.5C 641.667,86.5 641.833,85.5 642,84.5C 644.063,82.2659 646.229,80.2659 648.5,78.5 Z"/></g>
<g><path style="opacity:1" fill="#383a3f" d="M 259.5,92.5 C 270.815,93.32 276.482,99.4867 276.5,111C 276.369,122.471 270.703,127.471 259.5,126C 249.342,117.618 247.842,107.785 255,96.5C 256.667,95.2668 258.167,93.9335 259.5,92.5 Z"/></g>
<g><path style="opacity:1" fill="#373a3f" d="M 291.5,101.5 C 306.83,99.5394 312.33,105.873 308,120.5C 304.222,129.642 297.388,133.475 287.5,132C 283.698,128.936 282.031,124.936 282.5,120C 282.741,112.354 285.741,106.188 291.5,101.5 Z"/></g>
<g><path style="opacity:1" fill="#232427" d="M 663.5,108.5 C 669.605,107.651 675.105,108.984 680,112.5C 683.716,118.141 683.216,123.308 678.5,128C 670.355,134.125 662.855,133.625 656,126.5C 653.928,123.068 653.262,119.402 654,115.5C 657.068,112.917 660.235,110.584 663.5,108.5 Z"/></g>
<g><path style="opacity:1" fill="#383a3f" d="M 225.5,111.5 C 238.542,113.046 244.375,120.379 243,133.5C 240.136,143.182 233.969,146.348 224.5,143C 219.124,136.14 217.29,128.307 219,119.5C 220.305,116.039 222.471,113.372 225.5,111.5 Z"/></g>
<g><path style="opacity:1" fill="#999aa9" d="M 456.5,94.5 C 458.467,94.2606 460.301,94.5939 462,95.5C 465.222,102.945 468.722,110.278 472.5,117.5C 475.705,115.398 479.038,113.565 482.5,112C 492.852,110.707 494.185,113.707 486.5,121C 484.167,122.5 481.833,124 479.5,125.5C 483.751,128.244 487.585,131.578 491,135.5C 493.942,141.562 492.109,143.728 485.5,142C 481.5,140 477.5,138 473.5,136C 472.056,135.219 470.723,135.386 469.5,136.5C 466.633,144.136 464.633,151.97 463.5,160C 461.888,160.72 460.388,160.554 459,159.5C 458.5,150.506 458.334,141.506 458.5,132.5C 455.167,132.5 451.833,132.5 448.5,132.5C 448.34,130.801 448.506,129.134 449,127.5C 451.965,125.854 454.632,123.854 457,121.5C 456.894,112.515 456.727,103.515 456.5,94.5 Z"/></g>
<g><path style="opacity:1" fill="#36393e" d="M 257.5,134.5 C 265.313,134.105 272.98,134.939 280.5,137C 286.792,139.962 290.959,144.795 293,151.5C 296.021,161.981 297.355,172.647 297,183.5C 293.228,197.274 285.061,200.774 272.5,194C 268.833,191 265.167,188 261.5,185C 234.291,188.4 226.125,177.567 237,152.5C 241.875,144.116 248.708,138.116 257.5,134.5 Z"/></g>
<g><path style="opacity:1" fill="#37393e" d="M 319.5,135.5 C 328.649,135.156 332.149,139.49 330,148.5C 328.604,157.501 323.771,163.668 315.5,167C 305.227,167.723 300.727,162.89 302,152.5C 305.77,144.561 311.603,138.895 319.5,135.5 Z"/></g>
<g><path style="opacity:1" fill="#232427" d="M 385.5,134.5 C 390.635,133.426 394.468,135.093 397,139.5C 398.351,151.544 399.684,163.544 401,175.5C 398.853,176.476 396.686,176.309 394.5,175C 385.393,171.409 376.56,167.242 368,162.5C 362.725,155.99 363.558,150.49 370.5,146C 373.482,145.502 376.482,145.335 379.5,145.5C 379.844,140.848 381.844,137.182 385.5,134.5 Z"/></g>
<g><path style="opacity:1" fill="#393b40" d="M 682.5,155.5 C 691.477,155.309 695.31,159.642 694,168.5C 692.533,171.266 690.7,173.766 688.5,176C 683.03,177.221 679.53,175.054 678,169.5C 676.453,163.75 677.953,159.084 682.5,155.5 Z"/></g>
<g><path style="opacity:1" fill="#383a3f" d="M 705.5,163.5 C 712.329,163.507 715.162,166.84 714,173.5C 711.835,180.828 707.001,183.995 699.5,183C 694.711,179.078 694.211,174.578 698,169.5C 700.114,166.879 702.614,164.879 705.5,163.5 Z"/></g>
<g><path style="opacity:1" fill="#383a3f" d="M -0.5,163.5 C 1.02951,164.067 2.52951,164.733 4,165.5C 6.45398,171.969 4.95398,177.302 -0.5,181.5C -0.5,175.5 -0.5,169.5 -0.5,163.5 Z"/></g>
<g><path style="opacity:1" fill="#383b40" d="M 659.5,165.5 C 664.8,165.616 668.3,168.283 670,173.5C 671.937,180.912 669.437,185.912 662.5,188.5C 659.932,187.441 657.765,185.774 656,183.5C 654.541,176.882 655.708,170.882 659.5,165.5 Z"/></g>
<g><path style="opacity:1" fill="#373a3f" d="M 680.5,181.5 C 701.888,183.931 708.721,195.265 701,215.5C 698.459,220.069 694.625,221.569 689.5,220C 687.167,218.333 684.833,216.667 682.5,215C 676.833,214.667 671.167,214.333 665.5,214C 659.38,208.839 658.88,203.006 664,196.5C 667.204,193.631 670.037,190.465 672.5,187C 675.07,184.913 677.737,183.08 680.5,181.5 Z"/></g>
<g><path style="opacity:1" fill="#232427" d="M 106.5,166.5 C 112.434,165.889 118.1,166.722 123.5,169C 126.178,170.841 127.845,173.341 128.5,176.5C 141.236,180.303 145.069,188.303 140,200.5C 134.106,205.354 127.272,207.52 119.5,207C 113.115,218.048 105.948,228.548 98,238.5C 97.6424,243.559 98.1424,248.559 99.5,253.5C 97.1965,263.658 90.8632,267.825 80.5,266C 78.316,263.984 76.316,261.817 74.5,259.5C 65.5828,259.751 59.4162,255.751 56,247.5C 55.3064,238.526 59.1397,232.359 67.5,229C 71.8721,228.579 76.2054,227.912 80.5,227C 87.1236,217.587 93.6236,208.087 100,198.5C 98.1755,191.005 97.5088,183.338 98,175.5C 99.9527,171.534 102.786,168.534 106.5,166.5 Z"/></g>
<g><path style="opacity:1" fill="#37393f" d="M -0.5,202.5 C -0.5,198.5 -0.5,194.5 -0.5,190.5C 2.3127,188.194 5.47937,186.527 9,185.5C 17.0153,187.083 18.682,191.417 14,198.5C 10.2346,204.475 5.40125,205.808 -0.5,202.5 Z"/></g>
<g><path style="opacity:1" fill="#37393e" d="M 475.5,188.5 C 486.458,187.035 491.292,191.702 490,202.5C 487.311,209.802 482.144,212.635 474.5,211C 469.206,207.565 467.373,202.732 469,196.5C 470.305,193.039 472.471,190.372 475.5,188.5 Z"/></g>
<g><path style="opacity:1" fill="#383b40" d="M 715.5,185.5 C 725.7,185.297 728.2,189.63 723,198.5C 719.675,203.927 715.175,205.427 709.5,203C 705.831,199.081 705.665,194.914 709,190.5C 710.965,188.45 713.132,186.783 715.5,185.5 Z"/></g>
<g><path style="opacity:1" fill="#9799a7" d="M 545.5,179.5 C 554.643,178.155 561.476,181.488 566,189.5C 567.034,196.342 568.701,203.008 571,209.5C 580.646,218.743 591.813,225.577 604.5,230C 611.996,228.778 619.663,228.444 627.5,229C 639.378,229.604 644.545,235.771 643,247.5C 641.013,254.31 636.847,258.977 630.5,261.5C 630.712,267.941 629.212,273.941 626,279.5C 619.764,284.872 613.598,284.705 607.5,279C 600.812,269.456 595.312,259.29 591,248.5C 581.34,240.919 570.84,234.753 559.5,230C 552.178,228.94 544.844,227.94 537.5,227C 527.218,224.047 522.385,217.214 523,206.5C 526.87,202.053 531.204,198.053 536,194.5C 537.704,191.001 539.038,187.334 540,183.5C 541.812,182.023 543.645,180.69 545.5,179.5 Z"/></g>
<g><path style="opacity:1" fill="#232427" d="M 182.5,228.5 C 193.485,225.986 199.652,230.32 201,241.5C 201.75,247.928 200.417,253.928 197,259.5C 191.242,264.562 184.742,265.729 177.5,263C 174.769,260.374 172.936,257.207 172,253.5C 168.474,241.913 171.974,233.579 182.5,228.5 Z"/></g>
<g><path style="opacity:1" fill="#252528" d="M 229.5,223.5 C 240.59,223.609 245.09,229.275 243,240.5C 240.213,251.977 233.046,257.144 221.5,256C 215.276,251.363 213.109,245.196 215,237.5C 218.253,231.137 223.087,226.47 229.5,223.5 Z"/></g>
<g><path style="opacity:1" fill="#242528" d="M 269.5,246.5 C 286.87,245.902 290.704,252.902 281,267.5C 275.925,273.472 269.758,274.972 262.5,272C 256.364,266.362 255.864,260.196 261,253.5C 263.628,250.79 266.461,248.456 269.5,246.5 Z"/></g>
<g><path style="opacity:1" fill="#222325" d="M 209.5,260.5 C 222.776,259.454 235.11,262.287 246.5,269C 258.297,279.993 262.464,293.493 259,309.5C 251.13,344.717 229.297,363.217 193.5,365C 175.255,361.754 164.755,350.92 162,332.5C 160.421,305.159 170.588,283.326 192.5,267C 198.02,264.11 203.686,261.943 209.5,260.5 Z"/></g>
<g><path style="opacity:1" fill="#232427" d="M 372.5,222.5 C 378.53,222.181 383.196,224.515 386.5,229.5C 396.796,228.584 404.296,232.584 409,241.5C 410.448,249.828 407.948,256.661 401.5,262C 395.845,263.665 390.178,265.332 384.5,267C 381.963,269.906 379.796,273.073 378,276.5C 373.738,286.022 369.238,295.356 364.5,304.5C 369.915,313.815 370.748,323.482 367,333.5C 356.982,342.754 346.982,342.754 337,333.5C 335.991,331.975 335.491,330.308 335.5,328.5C 321.745,327.57 315.912,320.237 318,306.5C 323.943,298.528 331.943,294.528 342,294.5C 348.776,280.447 355.943,266.613 363.5,253C 360.618,246.763 359.451,240.263 360,233.5C 362.505,227.822 366.671,224.155 372.5,222.5 Z"/></g>
<g><path style="opacity:1" fill="#373a3e" d="M 452.5,281.5 C 457.439,280.352 460.939,282.019 463,286.5C 463.667,290.5 463.667,294.5 463,298.5C 456.633,305.503 451.633,304.503 448,295.5C 446.19,289.519 447.69,284.852 452.5,281.5 Z"/></g>
<g><path style="opacity:1" fill="#36393e" d="M 684.5,289.5 C 696.133,288.184 701.3,293.184 700,304.5C 697.233,310.769 692.4,313.269 685.5,312C 678.93,308.345 676.763,302.845 679,295.5C 680.36,292.977 682.193,290.977 684.5,289.5 Z"/></g>
<g><path style="opacity:1" fill="#242529" d="M 281.5,288.5 C 293.756,286.302 298.256,291.302 295,303.5C 291.764,314.035 284.931,317.535 274.5,314C 268.95,308.865 268.117,303.031 272,296.5C 274.772,293.217 277.939,290.55 281.5,288.5 Z"/></g>
<g><path style="opacity:1" fill="#383a3f" d="M 431.5,289.5 C 441.424,290.919 445.924,296.586 445,306.5C 439.052,312.118 433.718,311.452 429,304.5C 426.755,301.119 426.088,297.452 427,293.5C 427.907,291.391 429.407,290.058 431.5,289.5 Z"/></g>
<g><path style="opacity:1" fill="#9a9ba9" d="M 572.5,286.5 C 573.822,286.33 574.989,286.663 576,287.5C 576.384,296.517 576.384,305.517 576,314.5C 578.421,316.594 581.088,318.26 584,319.5C 584.495,321.473 584.662,323.473 584.5,325.5C 581.167,325.5 577.833,325.5 574.5,325.5C 574.666,334.173 574.5,342.84 574,351.5C 572.667,352.833 571.333,352.833 570,351.5C 568.042,343.958 565.875,336.458 563.5,329C 561.5,328.333 559.5,328.333 557.5,329C 552.626,332.453 547.292,334.12 541.5,334C 540.941,333.275 540.608,332.442 540.5,331.5C 543.65,326.071 547.984,321.737 553.5,318.5C 549.223,315.727 545.39,312.393 542,308.5C 540.92,305.763 541.754,304.096 544.5,303.5C 546.819,304.064 549.153,304.564 551.5,305C 554.112,306.889 556.945,308.389 560,309.5C 564.689,302.122 568.856,294.456 572.5,286.5 Z"/></g>
<g><path style="opacity:1" fill="#393b40" d="M 477.5,291.5 C 482.886,291.377 486.053,294.044 487,299.5C 488.112,305.163 486.612,309.996 482.5,314C 477.572,315.643 474.072,314.143 472,309.5C 470.528,302.421 472.361,296.421 477.5,291.5 Z"/></g>
<g><path style="opacity:1" fill="#37393e" d="M 452.5,308.5 C 457.121,307.993 461.454,308.826 465.5,311C 469.946,315.446 474.446,319.946 479,324.5C 482.493,329.862 482.326,335.029 478.5,340C 472.275,341.251 465.942,341.917 459.5,342C 456.336,345.333 452.502,347.499 448,348.5C 444.575,348.081 441.909,346.414 440,343.5C 437.14,335.604 436.807,327.604 439,319.5C 442.336,314.269 446.836,310.602 452.5,308.5 Z"/></g>
<g><path style="opacity:1" fill="#9899a8" d="M 77.5,297.5 C 79.7224,297.178 81.5557,297.845 83,299.5C 82.9077,306.39 84.7411,312.723 88.5,318.5C 93.4671,319.329 98.4671,319.829 103.5,320C 106.458,322.227 107.125,325.06 105.5,328.5C 101.518,331.152 97.8514,334.152 94.5,337.5C 95.2261,340.621 96.7261,343.287 99,345.5C 100.572,350.884 98.7382,353.717 93.5,354C 89.4346,349.891 84.9346,346.391 80,343.5C 75.2018,347.968 70.7018,352.801 66.5,358C 64.3046,359.373 61.9712,359.706 59.5,359C 58.3781,355.591 58.2114,352.091 59,348.5C 61.2591,344.404 62.2591,340.071 62,335.5C 58.428,333.931 55.428,331.598 53,328.5C 52.2397,323.926 54.2397,321.926 59,322.5C 62.1671,322.901 65.3337,323.234 68.5,323.5C 70.5968,314.407 73.5968,305.741 77.5,297.5 Z"/></g>
<g><path style="opacity:1" fill="#37393e" d="M 418.5,312.5 C 429.865,312.028 434.699,317.362 433,328.5C 427.49,332.81 422.49,332.143 418,326.5C 414.575,321.409 414.741,316.742 418.5,312.5 Z"/></g>
<g><path style="opacity:1" fill="#383a3f" d="M 371.5,372.5 C 384.873,373.975 388.207,380.642 381.5,392.5C 371.448,399.475 365.114,396.975 362.5,385C 363.761,379.574 366.761,375.407 371.5,372.5 Z"/></g>
<g><path style="opacity:1" fill="#9899a8" d="M -0.5,380.5 C 4.6082,380.451 9.27486,381.785 13.5,384.5C 20.4306,395.127 18.264,403.46 7,409.5C 6.81139,414.346 5.81139,419.012 4,423.5C 2.62879,425.041 1.12879,426.375 -0.5,427.5C -0.5,411.833 -0.5,396.167 -0.5,380.5 Z"/></g>
<g><path style="opacity:1" fill="#9899a8" d="M 641.5,337.5 C 650.373,337.189 656.54,341.189 660,349.5C 660.702,354.683 662.036,359.683 664,364.5C 669.555,369.055 675.388,373.221 681.5,377C 685.846,379.674 690.513,381.507 695.5,382.5C 702.712,380.536 710.045,380.036 717.5,381C 725.964,385.109 728.464,391.609 725,400.5C 722.66,404.006 719.826,407.006 716.5,409.5C 715.947,416.098 713.613,421.932 709.5,427C 704.762,429.366 700.429,428.866 696.5,425.5C 690.017,418.202 685.35,409.869 682.5,400.5C 669.403,386.292 653.07,379.125 633.5,379C 624.993,376.12 620.826,370.287 621,361.5C 624.74,358.049 628.573,354.715 632.5,351.5C 634.027,345.753 637.027,341.086 641.5,337.5 Z"/></g>
<g><path style="opacity:1" fill="#232427" d="M 79.5,389.5 C 87.2607,389.269 91.594,392.935 92.5,400.5C 103.143,397.996 107.976,401.996 107,412.5C 102.567,417.635 97.0675,421.135 90.5,423C 85.8333,426 81.1667,429 76.5,432C 75.5,432.667 74.5,432.667 73.5,432C 72.3463,420.576 72.1796,409.076 73,397.5C 74.4785,394.172 76.6452,391.506 79.5,389.5 Z"/></g>
<g><path style="opacity:1" fill="#383b40" d="M 190.5,391.5 C 197.936,390.6 201.603,393.934 201.5,401.5C 201.348,409.693 197.348,413.526 189.5,413C 182.738,405.57 183.071,398.403 190.5,391.5 Z"/></g>
<g><path style="opacity:1" fill="#383a3f" d="M 167.5,398.5 C 176.967,401.107 179.801,407.107 176,416.5C 167.877,423.178 163.044,421.345 161.5,411C 161.801,405.901 163.801,401.734 167.5,398.5 Z"/></g>
<g><path style="opacity:1" fill="#373a3f" d="M 210.5,400.5 C 222.442,401.55 225.108,407.05 218.5,417C 213.66,421.275 208.827,421.442 204,417.5C 202.831,410.513 204.997,404.846 210.5,400.5 Z"/></g>
<g><path style="opacity:1" fill="#999aa8" d="M 282.5,396.5 C 286.697,395.75 290.03,397.083 292.5,400.5C 294.79,405.32 296.623,410.32 298,415.5C 302.118,421.824 307.618,426.657 314.5,430C 319.938,431.359 325.272,433.026 330.5,435C 334.059,437.28 335.559,440.447 335,444.5C 331.966,447.275 328.799,449.942 325.5,452.5C 322.28,460.623 317.447,461.623 311,455.5C 309.62,450.559 308.454,445.559 307.5,440.5C 301.924,435.423 295.924,430.923 289.5,427C 284.5,426.667 279.5,426.333 274.5,426C 269.548,422.6 268.382,418.1 271,412.5C 272.739,410.259 274.906,408.592 277.5,407.5C 277.852,403.136 279.519,399.469 282.5,396.5 Z"/></g>
<g><path style="opacity:1" fill="#26272b" d="M 577.5,414.5 C 584.288,413.78 588.454,416.78 590,423.5C 592.652,435.833 587.819,441.666 575.5,441C 566.961,431.368 567.628,422.535 577.5,414.5 Z"/></g>
<g><path style="opacity:1" fill="#37393e" d="M 182.5,417.5 C 203.186,417.717 211.019,428.05 206,448.5C 205.518,457.993 200.684,461.826 191.5,460C 188.13,456.965 185.13,453.632 182.5,450C 179.289,448.847 175.956,448.18 172.5,448C 169.417,447.214 167.251,445.381 166,442.5C 164.978,434.152 167.811,427.319 174.5,422C 177.191,420.395 179.858,418.895 182.5,417.5 Z"/></g>
<g><path style="opacity:1" fill="#9a9aa9" d="M 468.5,408.5 C 469.93,408.421 471.264,408.754 472.5,409.5C 473.324,412.785 473.824,416.118 474,419.5C 475.022,420.354 475.855,421.354 476.5,422.5C 492.188,423.257 493.522,427.923 480.5,436.5C 482.977,439.435 484.144,442.768 484,446.5C 482.867,448.211 481.367,448.711 479.5,448C 476.75,445.21 473.584,443.043 470,441.5C 466.566,444.934 463.066,448.434 459.5,452C 456.173,452.513 454.507,451.013 454.5,447.5C 456.625,443.456 457.958,439.122 458.5,434.5C 453.303,434.305 450.97,431.638 451.5,426.5C 455.198,426.552 458.865,426.886 462.5,427.5C 463.7,420.902 465.7,414.569 468.5,408.5 Z"/></g>
<g><path style="opacity:1" fill="#383a3f" d="M 220.5,426.5 C 223.518,426.335 226.518,426.502 229.5,427C 231.444,429.153 231.944,431.653 231,434.5C 228.007,442.193 222.507,445.693 214.5,445C 211.735,442.005 210.902,438.505 212,434.5C 214.157,431.024 216.99,428.357 220.5,426.5 Z"/></g>
<g><path style="opacity:1" fill="#232427" d="M 401.5,430.5 C 410.367,428.76 415.701,432.26 417.5,441C 416.127,447.118 413.96,452.951 411,458.5C 405.109,467.821 399.776,477.488 395,487.5C 392.733,488.935 390.733,488.602 389,486.5C 381.237,474.408 373.903,462.074 367,449.5C 364.672,434.83 370.838,428.997 385.5,432C 387.977,433.643 390.31,435.476 392.5,437.5C 395.257,434.73 398.257,432.396 401.5,430.5 Z"/></g>
<g><path style="opacity:1" fill="#252628" d="M 536.5,427.5 C 549.678,428.814 555.512,436.147 554,449.5C 550.416,457.945 544.583,459.779 536.5,455C 528.531,445.804 528.531,436.637 536.5,427.5 Z"/></g>
<g><path style="opacity:1" fill="#25262a" d="M 608.5,433.5 C 615.855,433.002 620.688,436.335 623,443.5C 625.166,450.999 622.666,456.166 615.5,459C 608.392,459.239 604.225,455.739 603,448.5C 602.243,442.518 604.076,437.518 608.5,433.5 Z"/></g>
<g><path style="opacity:1" fill="#222325" d="M 567.5,449.5 C 577.073,448.226 585.739,450.393 593.5,456C 616.414,477.402 620.914,502.235 607,530.5C 592.559,548.855 575.726,551.355 556.5,538C 537.689,518.923 532.523,496.756 541,471.5C 547.905,461.755 556.738,454.421 567.5,449.5 Z"/></g>
<g><path style="opacity:1" fill="#373a3e" d="M -0.5,482.5 C -0.5,474.833 -0.5,467.167 -0.5,459.5C 8.43756,458.757 13.1042,463.091 13.5,472.5C 12.9828,481.687 8.31618,485.021 -0.5,482.5 Z"/></g>
<g><path style="opacity:1" fill="#242527" d="M 513.5,457.5 C 527.288,458.454 534.455,465.787 535,479.5C 530.898,488.746 524.398,490.913 515.5,486C 513,483.5 510.5,481 508,478.5C 504.698,473.003 505.031,467.669 509,462.5C 510.707,460.963 512.207,459.296 513.5,457.5 Z"/></g>
<g><path style="opacity:1" fill="#393b40" d="M 709.5,458.5 C 719.454,459.698 723.621,465.364 722,475.5C 720.58,482.588 716.413,485.088 709.5,483C 701.547,474.835 701.547,466.669 709.5,458.5 Z"/></g>
<g><path style="opacity:1" fill="#36393e" d="M 23.5,465.5 C 35.9458,463.772 40.1125,468.772 36,480.5C 32.6772,486.908 27.5105,489.075 20.5,487C 17.0631,479.104 18.0631,471.938 23.5,465.5 Z"/></g>
<g><path style="opacity:1" fill="#373a3f" d="M 685.5,472.5 C 691.337,473.17 695.504,476.17 698,481.5C 699.296,487.624 697.462,492.457 692.5,496C 690.167,496.667 687.833,496.667 685.5,496C 680.668,490.808 679.168,484.642 681,477.5C 682.025,475.313 683.525,473.646 685.5,472.5 Z"/></g>
<g><path style="opacity:1" fill="#3a3c41" d="M 735.5,465.5 C 735.5,472.833 735.5,480.167 735.5,487.5C 728.912,488.245 725.912,485.245 726.5,478.5C 726.341,471.775 729.341,467.442 735.5,465.5 Z"/></g>
<g><path style="opacity:1" fill="#36393e" d="M 735.5,503.5 C 735.5,512.833 735.5,522.167 735.5,531.5C 733.006,533.479 730.173,534.813 727,535.5C 720.816,533.98 715.649,530.814 711.5,526C 705.436,525.805 699.436,525.139 693.5,524C 687.818,508.669 692.484,497.335 707.5,490C 721.031,486.573 730.365,491.073 735.5,503.5 Z"/></g>
<g><path style="opacity:1" fill="#36393e" d="M -0.5,489.5 C 5.23235,489.283 10.899,489.783 16.5,491C 18.96,492.458 21.1266,494.291 23,496.5C 26.2224,504.16 28.0557,512.16 28.5,520.5C 29.3933,528.747 25.8933,533.747 18,535.5C 11.4318,532.731 5.26516,529.398 -0.5,525.5C -0.5,513.5 -0.5,501.5 -0.5,489.5 Z"/></g>
<g><path style="opacity:1" fill="#383a3f" d="M 42.5,490.5 C 46.0071,489.994 49.1737,490.66 52,492.5C 53.5254,500.576 51.0254,507.076 44.5,512C 35.4653,515.233 31.2986,512.066 32,502.5C 34.2154,497.325 37.7154,493.325 42.5,490.5 Z"/></g>
<g><path style="opacity:1" fill="#383a3f" d="M 218.5,500.5 C 230.179,500.001 234.679,505.334 232,516.5C 228.96,522.603 224.126,524.769 217.5,523C 211.891,519.723 210.058,514.89 212,508.5C 213.305,505.039 215.471,502.372 218.5,500.5 Z"/></g>
<g><path style="opacity:1" fill="#9a9aa9" d="M 283.5,476.5 C 285.144,476.286 286.644,476.62 288,477.5C 288.5,486.494 288.666,495.494 288.5,504.5C 293.463,503.504 298.463,503.337 303.5,504C 309.979,506.436 309.979,509.102 303.5,512C 299.56,513.015 295.56,513.515 291.5,513.5C 291.351,514.552 291.517,515.552 292,516.5C 297.004,521.042 298.838,526.542 297.5,533C 296.584,533.374 295.75,533.874 295,534.5C 290.643,531.643 287.143,527.977 284.5,523.5C 280.662,519.429 277.162,519.763 274,524.5C 270.149,528.69 266.649,533.19 263.5,538C 262.207,538.49 260.873,538.657 259.5,538.5C 259.34,536.801 259.506,535.134 260,533.5C 262.896,526.707 266.063,520.04 269.5,513.5C 267.644,510.98 265.144,509.314 262,508.5C 261.175,506.299 261.675,504.466 263.5,503C 267.089,502.793 270.589,502.293 274,501.5C 276.621,492.931 279.788,484.597 283.5,476.5 Z"/></g>
<g><path style="opacity:1" fill="#383a3f" d="M 452.5,504.5 C 460.963,504.293 466.296,508.293 468.5,516.5C 467.704,523.576 463.704,526.91 456.5,526.5C 448.196,526.034 444.363,521.7 445,513.5C 446.642,509.7 449.142,506.7 452.5,504.5 Z"/></g>
<g><path style="opacity:1" fill="#393b40" d="M 351.5,518.5 C 358.244,517.198 362.244,519.864 363.5,526.5C 362.677,530.477 361.177,534.143 359,537.5C 353.69,540.526 349.69,539.193 347,533.5C 345.376,527.388 346.876,522.388 351.5,518.5 Z"/></g>
<g><path style="opacity:1" fill="#9799a8" d="M 133.5,468.5 C 143.155,468.322 149.821,472.656 153.5,481.5C 159.528,482.286 164.861,484.619 169.5,488.5C 172.238,495.791 170.238,501.291 163.5,505C 156.373,508.23 149.04,510.897 141.5,513C 132.621,518.55 125.787,526.05 121,535.5C 117.417,544.756 114.084,554.089 111,563.5C 106.876,568.316 101.709,570.483 95.5,570C 91.5922,565.515 87.9255,560.848 84.5,556C 76.1144,554.046 72.6144,548.879 74,540.5C 75.25,537.084 77.4167,534.417 80.5,532.5C 88.086,530.406 95.7527,528.572 103.5,527C 111.489,518.68 118.322,509.514 124,499.5C 123.052,492.147 123.385,484.814 125,477.5C 126.688,473.315 129.521,470.315 133.5,468.5 Z"/></g>
<g><path style="opacity:1" fill="#373a3f" d="M 327.5,528.5 C 334.382,527.545 338.216,530.545 339,537.5C 340.421,542.808 338.921,546.975 334.5,550C 329.88,551.538 326.713,550.038 325,545.5C 323.805,539.43 324.638,533.764 327.5,528.5 Z"/></g>
<g><path style="opacity:1" fill="#393b40" d="M 373.5,526.5 C 383.518,526.861 386.018,531.528 381,540.5C 376.8,546.586 371.8,547.586 366,543.5C 363.737,538.744 364.403,534.411 368,530.5C 370.015,529.303 371.849,527.97 373.5,526.5 Z"/></g>
<g><path style="opacity:1" fill="#373a3f" d="M 348.5,544.5 C 369.382,545.57 376.882,556.236 371,576.5C 368.791,581.685 364.958,583.851 359.5,583C 355.855,580.192 351.855,578.025 347.5,576.5C 343.535,577.53 339.535,577.697 335.5,577C 328.983,572.755 327.817,567.255 332,560.5C 336.734,554.264 342.234,548.931 348.5,544.5 Z"/></g>
<g><path style="opacity:1" fill="#393b40" d="M 383.5,548.5 C 395.068,548.142 397.568,552.809 391,562.5C 386.923,568.12 382.256,568.787 377,564.5C 376.333,561.167 376.333,557.833 377,554.5C 378.914,552.144 381.081,550.144 383.5,548.5 Z"/></g>
<g><path style="opacity:1" fill="#9799a7" d="M 466.5,557.5 C 469.518,557.335 472.518,557.502 475.5,558C 476.931,558.465 478.097,559.299 479,560.5C 481.222,565.009 483.722,569.342 486.5,573.5C 489.937,574.636 492.771,576.636 495,579.5C 497.007,586.151 495.173,591.318 489.5,595C 487.167,596 484.833,597 482.5,598C 476.058,598.083 469.725,598.749 463.5,600C 455.241,607.421 447.907,615.588 441.5,624.5C 440.996,631.906 439.996,639.239 438.5,646.5C 431.107,656.471 422.773,657.137 413.5,648.5C 412.022,645.712 410.689,642.878 409.5,640C 399.532,639.366 394.365,634.199 394,624.5C 395.458,622.04 397.291,619.873 399.5,618C 409.216,613.873 419.216,610.539 429.5,608C 436.292,603.542 442.125,598.042 447,591.5C 450.969,582.953 454.636,574.286 458,565.5C 460.157,562.024 462.99,559.357 466.5,557.5 Z"/></g>
<g><path style="opacity:1" fill="#999aa8" d="M 600.5,571.5 C 602.144,571.286 603.644,571.62 605,572.5C 607.405,579.217 609.905,585.883 612.5,592.5C 616.3,592.394 620.133,592.727 624,593.5C 624.667,595.167 624.667,596.833 624,598.5C 621.743,600.341 619.243,601.674 616.5,602.5C 616.502,606.511 617.668,610.178 620,613.5C 620.821,616.554 620.655,619.554 619.5,622.5C 617.902,623.485 616.235,623.651 614.5,623C 612,619.833 609.5,616.667 607,613.5C 604.668,610.209 601.835,609.709 598.5,612C 596.353,614.237 594.02,616.237 591.5,618C 589.888,618.72 588.388,618.554 587,617.5C 585.745,612.728 586.912,608.728 590.5,605.5C 588.062,602.022 584.896,599.356 581,597.5C 580.333,595.5 580.333,593.5 581,591.5C 585.654,589.979 590.487,588.979 595.5,588.5C 596.145,587.354 596.978,586.354 598,585.5C 598.837,580.787 599.67,576.12 600.5,571.5 Z"/></g>
<g><path style="opacity:1" fill="#262628" d="M -0.5,584.5 C 1.5273,584.338 3.5273,584.505 5.5,585C 6.11593,586.4 6.44926,587.9 6.5,589.5C 4.13226,597.592 1.79893,605.592 -0.5,613.5C -0.5,603.833 -0.5,594.167 -0.5,584.5 Z"/></g>
<g><path style="opacity:1" fill="#222326" d="M 707.5,584.5 C 714.673,582.839 717.173,585.506 715,592.5C 711.339,605.484 707.673,618.484 704,631.5C 701.566,640.217 696.399,646.717 688.5,651C 678.871,652.936 672.038,649.436 668,640.5C 666.805,636.249 666.305,631.915 666.5,627.5C 654.94,628.406 647.606,623.406 644.5,612.5C 644.881,607.239 647.214,603.072 651.5,600C 655.419,598.138 659.419,596.471 663.5,595C 678.59,592.726 693.256,589.226 707.5,584.5 Z"/></g>
<g><path style="opacity:1" fill="#999aa8" d="M 138.5,576.5 C 140.467,576.261 142.301,576.594 144,577.5C 145.874,582.283 148.041,586.949 150.5,591.5C 154.034,592.131 157.534,592.798 161,593.5C 161.536,597.169 160.036,599.836 156.5,601.5C 158.944,603.895 161.61,606.062 164.5,608C 166.213,614.205 163.88,616.538 157.5,615C 154.624,612.825 152.124,610.325 150,607.5C 146.333,614.833 142.667,622.167 139,629.5C 137.301,630.406 135.467,630.739 133.5,630.5C 133.805,623.026 134.639,615.693 136,608.5C 133.553,607.594 131.053,606.761 128.5,606C 127.167,604.333 127.167,602.667 128.5,601C 130.659,600.088 132.825,599.255 135,598.5C 135.709,591.045 136.876,583.711 138.5,576.5 Z"/></g>
<g><path style="opacity:1" fill="#232426" d="M 236.5,561.5 C 247.075,559.698 254.242,563.698 258,573.5C 258.582,579.015 258.416,584.515 257.5,590C 257.494,592.3 257.994,594.466 259,596.5C 269.844,606.678 280.01,617.511 289.5,629C 290.672,629.419 291.672,630.085 292.5,631C 298.897,631.182 305.23,631.848 311.5,633C 319.976,638.428 322.476,645.928 319,655.5C 316.026,660.068 311.859,662.735 306.5,663.5C 305.27,674.564 299.104,680.897 288,682.5C 276.413,679.918 270.246,672.751 269.5,661C 270.3,655.842 270.467,650.675 270,645.5C 260.178,634.712 250.011,624.212 239.5,614C 230.568,615.389 221.902,614.389 213.5,611C 207.803,607.276 205.137,601.943 205.5,595C 206.318,583.013 212.651,575.846 224.5,573.5C 226.883,567.783 230.883,563.783 236.5,561.5 Z"/></g>
<g><path style="opacity:1" fill="#9a9ba9" d="M 50.5,620.5 C 52.5273,620.338 54.5273,620.505 56.5,621C 58.7648,624.2 60.7648,627.533 62.5,631C 65.2952,630.709 68.1285,630.209 71,629.5C 75.4722,629.189 77.1389,631.189 76,635.5C 74.3163,637.351 72.4829,639.018 70.5,640.5C 73.0543,643.385 75.5543,646.385 78,649.5C 78.4974,652.146 78.6641,654.813 78.5,657.5C 76.1432,657.663 73.8098,657.497 71.5,657C 68.8333,655.333 66.1667,653.667 63.5,652C 61.5273,651.505 59.5273,651.338 57.5,651.5C 56.0381,657.22 54.3714,662.886 52.5,668.5C 50.8333,668.5 49.1667,668.5 47.5,668.5C 47.5,660.5 47.5,652.5 47.5,644.5C 43.8121,644.219 40.1454,643.719 36.5,643C 33.8076,640.368 34.141,638.034 37.5,636C 41.8206,635.501 46.1539,635.334 50.5,635.5C 50.5,630.5 50.5,625.5 50.5,620.5 Z"/></g>
<g><path style="opacity:1" fill="#9a9aa9" d="M 512.5,627.5 C 513.93,627.421 515.264,627.754 516.5,628.5C 517.489,632.107 517.823,635.774 517.5,639.5C 520.187,639.336 522.854,639.503 525.5,640C 528.124,640.576 528.791,641.91 527.5,644C 524.937,645.079 522.271,645.579 519.5,645.5C 519.5,651.5 519.5,657.5 519.5,663.5C 518.167,663.5 516.833,663.5 515.5,663.5C 514.447,659.066 513.114,654.732 511.5,650.5C 510.127,650.343 508.793,650.51 507.5,651C 504.536,654.211 501.036,655.378 497,654.5C 496.333,652.833 496.333,651.167 497,649.5C 499.018,647.65 500.851,645.65 502.5,643.5C 498.993,641.539 497.66,638.539 498.5,634.5C 501.972,634.126 504.972,635.126 507.5,637.5C 509.703,634.428 511.369,631.094 512.5,627.5 Z"/></g>
<g><path style="opacity:1" fill="#383a3f" d="M 183.5,645.5 C 193.804,645.975 197.97,651.309 196,661.5C 192.336,668.246 186.836,670.413 179.5,668C 172.137,658.978 173.471,651.478 183.5,645.5 Z"/></g>
<g><path style="opacity:1" fill="#252628" d="M 354.5,664.5 C 363.221,664.696 369.055,669.029 372,677.5C 372.298,686.87 367.798,691.036 358.5,690C 348.288,682.793 346.955,674.293 354.5,664.5 Z"/></g>
<g><path style="opacity:1" fill="#242527" d="M 391.5,666.5 C 401.318,666.395 407.318,671.062 409.5,680.5C 408.418,688.878 403.751,692.045 395.5,690C 388.156,685.464 385.656,678.964 388,670.5C 389.032,668.973 390.199,667.64 391.5,666.5 Z"/></g>
<g><path style="opacity:1" fill="#383a3e" d="M 600.5,685.5 C 605.919,684.959 609.419,687.293 611,692.5C 612.358,697.993 611.191,702.827 607.5,707C 601.663,708.992 597.829,707.158 596,701.5C 594.446,695.246 595.946,689.912 600.5,685.5 Z"/></g>
<g><path style="opacity:1" fill="#242529" d="M 326.5,694.5 C 338.13,693.8 345.13,699.133 347.5,710.5C 346.659,718.866 341.992,722.366 333.5,721C 323.743,716.654 319.909,709.154 322,698.5C 323.397,696.93 324.897,695.596 326.5,694.5 Z"/></g>
<g><path style="opacity:1" fill="#222325" d="M 372.5,695.5 C 401.897,696.724 421.064,711.391 430,739.5C 432.134,751.926 430.134,763.593 424,774.5C 414.641,784.617 403.141,788.117 389.5,785C 364.006,777.017 349.673,759.85 346.5,733.5C 347.294,720.743 352.294,709.91 361.5,701C 365.017,698.674 368.683,696.84 372.5,695.5 Z"/></g>
<g><path style="opacity:1" fill="#393b40" d="M 578.5,695.5 C 589.672,698.852 592.172,705.519 586,715.5C 580.25,719.106 576.25,717.773 574,711.5C 573.333,707.5 573.333,703.5 574,699.5C 575.397,697.93 576.897,696.596 578.5,695.5 Z"/></g>
<g><path style="opacity:1" fill="#373a3e" d="M 620.5,693.5 C 633.814,693.135 636.814,698.468 629.5,709.5C 625.442,713.614 620.942,714.281 616,711.5C 614.325,704.603 615.825,698.603 620.5,693.5 Z"/></g>
<g><path style="opacity:1" fill="#37393f" d="M 471.5,712.5 C 482.455,714.07 485.955,720.07 482,730.5C 476.557,737.412 470.557,738.079 464,732.5C 459.497,723.177 461.997,716.51 471.5,712.5 Z"/></g>
<g><path style="opacity:1" fill="#373a3f" d="M 596.5,712.5 C 603.287,712.157 609.62,713.657 615.5,717C 616.667,718.833 617.833,720.667 619,722.5C 620.79,730.069 621.457,737.736 621,745.5C 619.286,752.896 614.786,755.73 607.5,754C 604.203,751.705 601.203,749.038 598.5,746C 593.533,744.935 588.533,743.935 583.5,743C 578.689,737.655 578.189,731.821 582,725.5C 585.162,719.164 589.996,714.831 596.5,712.5 Z"/></g>
<g><path style="opacity:1" fill="#383a3f" d="M 634.5,717.5 C 637.187,717.336 639.854,717.503 642.5,718C 645.168,724.382 643.835,730.049 638.5,735C 634.211,738.27 630.211,738.104 626.5,734.5C 624.646,726.692 627.313,721.025 634.5,717.5 Z"/></g>
<g><path style="opacity:1" fill="#9899a8" d="M 198.5,716.5 C 200.722,716.178 202.556,716.845 204,718.5C 204.325,725.142 206.159,731.308 209.5,737C 214.202,737.172 218.868,737.672 223.5,738.5C 225.733,739.896 227.399,741.729 228.5,744C 228.167,744.833 227.833,745.667 227.5,746.5C 223.46,749.844 219.46,753.177 215.5,756.5C 216.747,759.329 218.247,761.995 220,764.5C 220.814,766.902 220.647,769.235 219.5,771.5C 217.902,772.485 216.235,772.651 214.5,772C 210.071,768.705 205.571,765.538 201,762.5C 195.841,767.327 191.007,772.494 186.5,778C 184.527,778.495 182.527,778.662 180.5,778.5C 179.026,770.409 180.36,762.742 184.5,755.5C 182.206,753.347 179.54,751.68 176.5,750.5C 173.092,745.75 174.092,742.75 179.5,741.5C 182.817,742.053 186.15,742.386 189.5,742.5C 191.886,733.621 194.886,724.955 198.5,716.5 Z"/></g>
<g><path style="opacity:1" fill="#373a3f" d="M 102.5,698.5 C 105.119,698.232 107.619,698.565 110,699.5C 112.224,705.057 115.891,709.39 121,712.5C 122.351,718.844 119.851,723.011 113.5,725C 109.5,725.333 105.5,725.667 101.5,726C 95.8733,730.416 91.04,735.583 87,741.5C 87.5334,748.425 85.7001,754.592 81.5,760C 73.8103,762.656 68.477,760.156 65.5,752.5C 58.2817,751.47 55.115,747.47 56,740.5C 58.4075,738.044 61.2409,736.211 64.5,735C 69.5435,733.822 74.5435,732.489 79.5,731C 88.5952,723.906 94.4285,714.739 97,703.5C 98.7297,701.598 100.563,699.931 102.5,698.5 Z"/></g>
<g><path style="opacity:1" fill="#25262a" d="M 684.5,736.5 C 690.804,735.781 696.304,737.447 701,741.5C 703.391,752.108 699.225,756.608 688.5,755C 681.918,752.333 679.085,747.499 680,740.5C 681.397,738.93 682.897,737.596 684.5,736.5 Z"/></g>
<g><path style="opacity:1" fill="#383a3f" d="M 262.5,735.5 C 274.712,735.882 278.879,741.882 275,753.5C 268.893,760.917 262.56,761.251 256,754.5C 254.087,750.471 254.087,746.471 256,742.5C 257.862,739.833 260.028,737.5 262.5,735.5 Z"/></g>
<g><path style="opacity:1" fill="#262629" d="M 318.5,731.5 C 327.634,729.788 335.467,732.121 342,738.5C 345.246,743.803 345.246,749.137 342,754.5C 334.116,758.588 326.282,758.421 318.5,754C 311.925,746.4 311.925,738.9 318.5,731.5 Z"/></g>
<g><path style="opacity:1" fill="#232427" d="M 527.5,748.5 C 541.317,745.347 548.983,750.68 550.5,764.5C 549.656,768.837 549.156,773.171 549,777.5C 559.899,787.73 570.066,798.563 579.5,810C 585.231,810.21 590.897,810.876 596.5,812C 604.61,816.064 607.443,822.564 605,831.5C 602.995,836.756 599.161,839.422 593.5,839.5C 592.842,850.158 587.175,855.825 576.5,856.5C 568.829,855.655 563.663,851.655 561,844.5C 560.667,837.5 560.333,830.5 560,823.5C 551.197,813.696 542.03,804.196 532.5,795C 526.911,795.568 521.244,795.568 515.5,795C 506.619,792.949 501.952,787.282 501.5,778C 502.852,767.15 508.852,760.65 519.5,758.5C 521.237,754.326 523.903,750.993 527.5,748.5 Z"/></g>
<g><path style="opacity:1" fill="#242529" d="M 653.5,752.5 C 661.126,751.066 667.292,753.399 672,759.5C 673.779,769.721 669.613,773.888 659.5,772C 650.289,767.469 648.289,760.969 653.5,752.5 Z"/></g>
<g><path style="opacity:1" fill="#222325" d="M -0.5,762.5 C 18.0177,763.533 32.1844,771.866 42,787.5C 47.8738,798.205 47.8738,808.872 42,819.5C 30.5137,832.017 16.347,836.351 -0.5,832.5C -0.5,809.167 -0.5,785.833 -0.5,762.5 Z"/></g>
<g><path style="opacity:1" fill="#222325" d="M 735.5,770.5 C 735.5,790.833 735.5,811.167 735.5,831.5C 719.793,835.414 704.793,833.581 690.5,826C 677.386,818.11 671.052,806.444 671.5,791C 671.583,777.236 678.249,768.236 691.5,764C 707.01,760.641 721.676,762.808 735.5,770.5 Z"/></g>
<g><path style="opacity:1" fill="#9899a8" d="M 137.5,770.5 C 140.652,769.959 143.152,770.959 145,773.5C 145.186,780.414 145.686,787.247 146.5,794C 152.874,794.311 159.207,794.977 165.5,796C 170.218,797.774 171.551,800.94 169.5,805.5C 164.274,807.112 158.941,808.279 153.5,809C 152.333,809.5 151.5,810.333 151,811.5C 151.302,822.824 151.302,834.157 151,845.5C 148.916,848.451 146.249,849.117 143,847.5C 140.897,839.96 138.23,832.627 135,825.5C 134.505,823.527 134.338,821.527 134.5,819.5C 131.432,819.547 128.432,820.047 125.5,821C 119.822,825.089 113.655,828.256 107,830.5C 102.887,829.715 101.053,827.215 101.5,823C 101.26,820.109 102.093,817.609 104,815.5C 107.63,811.701 111.13,807.868 114.5,804C 111.043,801.516 107.876,798.683 105,795.5C 104.333,792.833 104.333,790.167 105,787.5C 112.392,784.378 119.225,785.378 125.5,790.5C 128.995,783.507 132.995,776.84 137.5,770.5 Z"/></g>
<g><path style="opacity:1" fill="#252629" d="M 648.5,787.5 C 656.759,786.221 663.259,788.888 668,795.5C 669.316,801.869 666.816,806.036 660.5,808C 650.986,809.304 644.653,805.471 641.5,796.5C 641.621,795.106 641.954,793.772 642.5,792.5C 644.544,790.781 646.544,789.114 648.5,787.5 Z"/></g>
<g><path style="opacity:1" fill="#373a3f" d="M 258.5,801.5 C 266.806,800.396 272.306,803.73 275,811.5C 277.409,818.484 276.742,825.151 273,831.5C 262.981,838.327 255.981,835.993 252,824.5C 249.345,815.451 251.512,807.784 258.5,801.5 Z"/></g>
<g><path style="opacity:1" fill="#383a3f" d="M 292.5,809.5 C 310.512,810.473 314.679,818.806 305,834.5C 299.154,841.138 292.487,842.471 285,838.5C 280.166,826.833 282.666,817.167 292.5,809.5 Z"/></g>
<g><path style="opacity:1" fill="#242528" d="M 662.5,817.5 C 666.846,817.334 671.179,817.501 675.5,818C 682.933,822.729 684.267,828.729 679.5,836C 674.141,840.073 668.141,841.406 661.5,840C 655.91,836.32 653.41,831.154 654,824.5C 656.588,821.8 659.421,819.467 662.5,817.5 Z"/></g>
<g><path style="opacity:1" fill="#999aa9" d="M 456.5,802.5 C 458.262,802.357 459.929,802.691 461.5,803.5C 464.564,811.297 468.398,818.631 473,825.5C 478.183,821.486 484.016,819.653 490.5,820C 491.554,821.388 491.72,822.888 491,824.5C 487.61,828.393 483.777,831.727 479.5,834.5C 483.385,837.368 487.218,840.368 491,843.5C 493.311,849.558 491.144,851.725 484.5,850C 481.392,847.894 478.059,846.228 474.5,845C 472.741,844.202 471.074,844.369 469.5,845.5C 466.473,852.577 464.473,859.91 463.5,867.5C 461.994,868.747 460.494,868.747 459,867.5C 458.5,858.506 458.334,849.506 458.5,840.5C 444.618,840.349 443.952,837.349 456.5,831.5C 457.045,821.862 457.045,812.195 456.5,802.5 Z"/></g>
<g><path style="opacity:1" fill="#383a40" d="M 224.5,820.5 C 241.171,822.491 246.671,831.491 241,847.5C 231.185,856.643 223.851,854.976 219,842.5C 218.333,837.833 218.333,833.167 219,828.5C 220.243,825.424 222.077,822.757 224.5,820.5 Z"/></g>
<g><path style="opacity:1" fill="#37393e" d="M 260.5,842.5 C 268.457,842.658 276.124,844.158 283.5,847C 287.092,849.921 289.925,853.421 292,857.5C 294.749,867.158 296.582,876.992 297.5,887C 297.834,899.661 291.834,905.994 279.5,906C 272.564,902.06 265.897,897.727 259.5,893C 232.431,895.064 225.264,883.898 238,859.5C 243.395,850.925 250.895,845.259 260.5,842.5 Z"/></g>
<g><path style="opacity:1" fill="#383a3f" d="M 317.5,844.5 C 327.659,843.158 331.826,847.491 330,857.5C 327.764,869.082 320.931,875.248 309.5,876C 302.334,873.166 299.834,867.999 302,860.5C 305.355,853.313 310.522,847.979 317.5,844.5 Z"/></g>
<g><path style="opacity:1" fill="#252629" d="M 386.5,842.5 C 394.004,842.834 398.171,846.834 399,854.5C 399.506,864.536 400.339,874.536 401.5,884.5C 390.585,882.35 380.252,878.517 370.5,873C 365.744,869.611 363.91,865.111 365,859.5C 368.914,855.357 373.747,853.024 379.5,852.5C 380.873,848.396 383.206,845.062 386.5,842.5 Z"/></g>
<g><path style="opacity:1" fill="#393b40" d="M 682.5,864.5 C 694.069,864.624 697.236,869.957 692,880.5C 688.626,886.113 684.626,886.779 680,882.5C 676.193,875.692 677.026,869.692 682.5,864.5 Z"/></g>
<g><path style="opacity:1" fill="#393b40" d="M 703.5,872.5 C 709.651,870.844 713.317,873.01 714.5,879C 713.229,888.931 707.896,892.931 698.5,891C 695.03,887.663 694.53,883.83 697,879.5C 698.694,876.642 700.861,874.309 703.5,872.5 Z"/></g>
<g><path style="opacity:1" fill="#373a3f" d="M -0.5,872.5 C 1.4835,872.383 3.15017,873.05 4.5,874.5C 6.53373,880.76 4.86706,885.76 -0.5,889.5C -0.5,883.833 -0.5,878.167 -0.5,872.5 Z"/></g>
<g><path style="opacity:1" fill="#383a3f" d="M 659.5,874.5 C 668.617,875.83 672.117,881.163 670,890.5C 668.268,895.617 664.768,897.45 659.5,896C 655.627,891.215 654.46,885.715 656,879.5C 656.997,877.677 658.164,876.01 659.5,874.5 Z"/></g>
<g><path style="opacity:1" fill="#373a3f" d="M 679.5,890.5 C 701.559,892.269 708.725,903.602 701,924.5C 698.452,928.36 694.952,929.86 690.5,929C 687.167,927 683.833,925 680.5,923C 677.503,922.695 674.503,922.862 671.5,923.5C 663.009,923.178 659.509,918.844 661,910.5C 665.647,902.356 671.814,895.689 679.5,890.5 Z"/></g>
<g><path style="opacity:1" fill="#383a3f" d="M -0.5,911.5 C -0.5,907.5 -0.5,903.5 -0.5,899.5C 2.00912,896.245 5.34246,894.579 9.5,894.5C 13.691,894.359 16.0243,896.359 16.5,900.5C 14.5047,910.573 8.83798,914.239 -0.5,911.5 Z"/></g>
<g><path style="opacity:1" fill="#38393f" d="M 714.5,894.5 C 725.256,893.747 728.089,898.08 723,907.5C 718.735,913.52 713.735,914.52 708,910.5C 706.062,903.389 708.229,898.056 714.5,894.5 Z"/></g>
<g><path style="opacity:1" fill="#383a3f" d="M 476.5,896.5 C 484.675,895.901 489.342,899.568 490.5,907.5C 489.13,917.844 483.464,921.677 473.5,919C 468.847,915.212 467.347,910.378 469,904.5C 471.028,901.308 473.528,898.641 476.5,896.5 Z"/></g>
<g><path style="opacity:1" fill="#242527" d="M 230.5,931.5 C 237.042,931.189 241.209,934.189 243,940.5C 244.34,951.995 239.84,960.161 229.5,965C 221.847,966.373 217.013,963.206 215,955.5C 214.333,952.5 214.333,949.5 215,946.5C 218.081,939.251 223.247,934.251 230.5,931.5 Z"/></g>
<g><path style="opacity:1" fill="#232427" d="M 108.5,874.5 C 115.977,873.57 122.144,875.903 127,881.5C 128.009,883.025 128.509,884.692 128.5,886.5C 139.357,888.205 143.857,894.538 142,905.5C 140.542,907.96 138.709,910.127 136.5,912C 131.723,913.98 126.723,914.98 121.5,915C 120.069,915.465 118.903,916.299 118,917.5C 111.83,927.844 105.163,937.844 98,947.5C 97.8788,951.816 98.0455,956.15 98.5,960.5C 98.7865,969.717 94.2865,974.717 85,975.5C 82.6212,975.518 80.4545,974.851 78.5,973.5C 76.8281,971.329 74.9948,969.329 73,967.5C 63.2551,967.424 57.4218,962.591 55.5,953C 58.5325,939.896 66.8658,934.063 80.5,935.5C 87.1959,925.97 93.6959,916.303 100,906.5C 98.0599,899.359 97.3933,892.026 98,884.5C 100.106,879.557 103.606,876.224 108.5,874.5 Z"/></g>
<g><path style="opacity:1" fill="#232427" d="M 183.5,936.5 C 191.765,934.625 197.265,937.625 200,945.5C 202.131,953.529 201.131,961.195 197,968.5C 190.395,974.087 183.395,974.753 176,970.5C 171.253,962.344 170.253,953.678 173,944.5C 175.94,940.963 179.44,938.297 183.5,936.5 Z"/></g>
<g><path style="opacity:1" fill="#9799a7" d="M 545.5,887.5 C 553.239,886.578 559.406,889.245 564,895.5C 566.666,903.48 569.333,911.48 572,919.5C 582.499,928.248 594.165,934.915 607,939.5C 617.757,936.371 628.257,936.871 638.5,941C 646.305,953.279 643.805,963.113 631,970.5C 631.352,978.475 628.852,985.309 623.5,991C 619.013,993.039 614.68,992.706 610.5,990C 607.628,987.463 605.128,984.63 603,981.5C 599,973.5 595,965.5 591,957.5C 575.401,942.969 556.901,935.469 535.5,935C 526.889,931.264 522.722,924.764 523,915.5C 526.981,911.188 531.314,907.188 536,903.5C 537.24,896.856 540.407,891.523 545.5,887.5 Z"/></g>
<g><path style="opacity:1" fill="#252629" d="M 271.5,954.5 C 284.869,953.68 289.035,959.347 284,971.5C 281.491,976.043 277.991,979.543 273.5,982C 262.387,983.378 257.221,978.545 258,967.5C 260.442,960.888 264.942,956.555 271.5,954.5 Z"/></g>
<g><path style="opacity:1" fill="#222325" d="M 206.5,969.5 C 223.845,966.837 239.012,971.171 252,982.5C 255.142,987.118 257.476,992.118 259,997.5C 261.791,1032.44 247.291,1056.94 215.5,1071C 198.923,1076.55 184.089,1073.72 171,1062.5C 160.366,1045.78 158.7,1028.11 166,1009.5C 173.501,989.83 187.001,976.497 206.5,969.5 Z"/></g>
<g><path style="opacity:1" fill="#232426" d="M 371.5,931.5 C 377.906,930.87 382.906,933.204 386.5,938.5C 406.491,938.938 412.991,948.272 406,966.5C 404.833,967.667 403.667,968.833 402.5,970C 396.086,972.582 389.586,974.749 383,976.5C 377,987.833 371,999.167 365,1010.5C 364.837,1015.2 366.17,1019.54 369,1023.5C 371.999,1042.17 364.166,1050.33 345.5,1048C 339.905,1046.57 336.572,1043.07 335.5,1037.5C 321.841,1036.55 316.007,1029.22 318,1015.5C 322.923,1007.62 330.09,1003.79 339.5,1004C 341.552,1003.07 343.052,1001.57 344,999.5C 349.809,987.215 356.142,975.215 363,963.5C 361.208,956.649 360.208,949.649 360,942.5C 362.437,937.226 366.271,933.56 371.5,931.5 Z"/></g>
<g><path style="opacity:1" fill="#36393e" d="M 451.5,990.5 C 462.115,989.972 465.948,994.972 463,1005.5C 461.481,1011.23 457.981,1012.9 452.5,1010.5C 446.384,1003.89 446.051,997.225 451.5,990.5 Z"/></g>
<g><path style="opacity:1" fill="#373a3f" d="M 683.5,998.5 C 693.329,996.298 699.329,999.965 701.5,1009.5C 697.503,1021.19 690.503,1023.52 680.5,1016.5C 678.553,1012.36 678.053,1008.03 679,1003.5C 680.025,1001.31 681.525,999.646 683.5,998.5 Z"/></g>
<g><path style="opacity:1" fill="#242528" d="M 283.5,996.5 C 294.211,996.057 298.045,1001.06 295,1011.5C 292.707,1020.81 286.874,1024.98 277.5,1024C 267.556,1017.35 266.889,1009.68 275.5,1001C 278.099,999.205 280.766,997.705 283.5,996.5 Z"/></g>
<g><path style="opacity:1" fill="#383a3f" d="M 429.5,998.5 C 438.435,998.438 443.769,1002.77 445.5,1011.5C 445.674,1013.69 445.007,1015.53 443.5,1017C 433.511,1019.87 427.845,1016.04 426.5,1005.5C 426.667,1004.17 426.833,1002.83 427,1001.5C 428.045,1000.63 428.878,999.627 429.5,998.5 Z"/></g>
<g><path style="opacity:1" fill="#393a40" d="M 476.5,1000.5 C 484.153,1000.49 487.82,1004.49 487.5,1012.5C 487.512,1018.52 484.679,1022.18 479,1023.5C 472.172,1020.84 469.838,1015.84 472,1008.5C 473.356,1005.67 474.856,1003 476.5,1000.5 Z"/></g>
<g><path style="opacity:1" fill="#373a3e" d="M 451.5,1017.5 C 456.742,1017.02 461.742,1017.86 466.5,1020C 472.078,1024.91 476.911,1030.41 481,1036.5C 481.956,1040.57 481.456,1044.41 479.5,1048C 478.167,1048.67 476.833,1049.33 475.5,1050C 470.167,1050.33 464.833,1050.67 459.5,1051C 446.684,1060.68 439.184,1057.51 437,1041.5C 435.984,1029.85 440.817,1021.85 451.5,1017.5 Z"/></g>
<g><path style="opacity:1" fill="#989aa8" d="M 77.5,1006.5 C 79.2624,1006.36 80.9291,1006.69 82.5,1007.5C 82.5066,1014.55 84.5066,1020.88 88.5,1026.5C 92.1224,1027.33 95.789,1027.83 99.5,1028C 105.041,1028.33 107.207,1031.17 106,1036.5C 101.805,1039.5 97.9718,1042.83 94.5,1046.5C 97.1516,1050.95 98.6516,1055.62 99,1060.5C 97.1917,1062.4 95.025,1062.9 92.5,1062C 88.9444,1057.98 84.7777,1054.81 80,1052.5C 75.2331,1057.27 70.3997,1062.1 65.5,1067C 60.6356,1069.56 58.3022,1068.06 58.5,1062.5C 59.1572,1058.03 60.3239,1053.7 62,1049.5C 62.6667,1047.5 62.6667,1045.5 62,1043.5C 56.4154,1042.26 53.4154,1038.93 53,1033.5C 54.5253,1032.28 56.3587,1031.61 58.5,1031.5C 61.8413,1031.84 65.1746,1032.17 68.5,1032.5C 70.3893,1023.4 73.3893,1014.73 77.5,1006.5 Z"/></g>
<g><path style="opacity:1" fill="#37393e" d="M 417.5,1021.5 C 431.162,1020.36 435.829,1026.19 431.5,1039C 429.305,1040.37 426.971,1040.71 424.5,1040C 416.045,1035.95 413.711,1029.79 417.5,1021.5 Z"/></g>
<g><path style="opacity:1" fill="#9899a8" d="M 571.5,995.5 C 573.167,995.5 574.833,995.5 576.5,995.5C 576.295,1004.85 576.128,1014.18 576,1023.5C 577.8,1025.32 579.966,1026.48 582.5,1027C 584.602,1028.73 584.935,1030.73 583.5,1033C 580.574,1033.22 577.74,1033.72 575,1034.5C 574.667,1043.17 574.333,1051.83 574,1060.5C 572.644,1061.38 571.144,1061.71 569.5,1061.5C 569.075,1052.73 566.742,1044.57 562.5,1037C 555.625,1039.33 548.625,1041.49 541.5,1043.5C 541.421,1040.73 541.921,1038.06 543,1035.5C 546.44,1032.54 549.94,1029.7 553.5,1027C 550.353,1024.52 547.186,1022.02 544,1019.5C 542.798,1017.32 542.298,1014.99 542.5,1012.5C 549.043,1012.77 555.043,1014.77 560.5,1018.5C 565.508,1011.48 569.175,1003.81 571.5,995.5 Z"/></g>
<g><path style="opacity:1" fill="#37393f" d="M 370.5,1081.5 C 381.761,1080.99 386.261,1086.33 384,1097.5C 380.677,1103.91 375.511,1106.07 368.5,1104C 360.314,1095.75 360.981,1088.25 370.5,1081.5 Z"/></g>
<g><path style="opacity:1" fill="#9899a8" d="M 639.5,1046.5 C 648.111,1045.06 654.611,1048.06 659,1055.5C 659.784,1061.75 661.45,1067.75 664,1073.5C 673.615,1081.81 684.615,1087.47 697,1090.5C 704.547,1089.03 712.047,1089.19 719.5,1091C 726.809,1095.68 728.476,1102.02 724.5,1110C 722.328,1113.51 719.495,1116.34 716,1118.5C 715.624,1124.51 713.791,1130.01 710.5,1135C 705.833,1138.33 701.167,1138.33 696.5,1135C 690.035,1125.24 684.201,1115.07 679,1104.5C 665.075,1093.74 649.242,1087.91 631.5,1087C 617.337,1078.59 617.171,1070.09 631,1061.5C 633.628,1057.91 635.461,1053.91 636.5,1049.5C 637.77,1048.71 638.77,1047.71 639.5,1046.5 Z"/></g>
<g><path style="opacity:1" fill="#232427" d="M 92.5,1107.5 C 94.9878,1109.39 97.9878,1110.05 101.5,1109.5C 107.578,1112.03 109.078,1116.36 106,1122.5C 98.4178,1127.71 90.5844,1132.54 82.5,1137C 79.4388,1139.03 76.1055,1140.2 72.5,1140.5C 72.3335,1129.49 72.5002,1118.49 73,1107.5C 77.5941,1096.65 83.9274,1095.65 92,1104.5C 92.4828,1105.45 92.6495,1106.45 92.5,1107.5 Z"/></g>
<g><path style="opacity:1" fill="#9899a8" d="M -0.5,1089.5 C 2.1873,1089.34 4.85397,1089.5 7.5,1090C 13.548,1091.54 16.8814,1095.38 17.5,1101.5C 17.6476,1109.11 14.3142,1114.44 7.5,1117.5C 6.74611,1121.94 5.57944,1126.27 4,1130.5C 2.95254,1132.71 1.45254,1134.37 -0.5,1135.5C -0.5,1120.17 -0.5,1104.83 -0.5,1089.5 Z"/></g>
<g><path style="opacity:1" fill="#6e6f71" d="M 92.5,1107.5 C 95.6104,1108.09 98.6104,1108.76 101.5,1109.5C 97.9878,1110.05 94.9878,1109.39 92.5,1107.5 Z"/></g>
<g><path style="opacity:1" fill="#393a40" d="M 166.5,1107.5 C 175.863,1108.19 179.363,1113.19 177,1122.5C 174.521,1129.25 170.188,1130.91 164,1127.5C 160.217,1120.16 161.05,1113.49 166.5,1107.5 Z"/></g>
<g><path style="opacity:1" fill="#393b40" d="M 191.5,1099.5 C 199.785,1100.49 202.952,1105.16 201,1113.5C 199.58,1120.59 195.413,1123.09 188.5,1121C 182.642,1112.84 183.642,1105.67 191.5,1099.5 Z"/></g>
<g><path style="opacity:1" fill="#393b40" d="M 209.5,1109.5 C 221.061,1108.53 224.561,1113.2 220,1123.5C 216.064,1129.52 211.064,1130.86 205,1127.5C 202.608,1120.59 204.108,1114.59 209.5,1109.5 Z"/></g>
<g><path style="opacity:1" fill="#25262a" d="M 578.5,1122.5 C 586.601,1123.78 590.601,1128.61 590.5,1137C 590.96,1144.93 587.293,1149.43 579.5,1150.5C 572.78,1148.43 569.446,1143.77 569.5,1136.5C 570.097,1130.25 573.097,1125.58 578.5,1122.5 Z"/></g>
<g><path style="opacity:1" fill="#373a3e" d="M 181.5,1126.5 C 204.071,1126.21 212.238,1137.21 206,1159.5C 204.479,1167 199.979,1170.17 192.5,1169C 188.5,1166.33 185.167,1163 182.5,1159C 178.971,1157.53 175.305,1156.53 171.5,1156C 165.828,1153.23 163.994,1148.73 166,1142.5C 169.381,1135.29 174.548,1129.95 181.5,1126.5 Z"/></g>
<g><path style="opacity:1" fill="#999aa9" d="M 282.5,1105.5 C 286.803,1104.8 290.303,1106.13 293,1109.5C 295.529,1115.42 297.863,1121.42 300,1127.5C 307.274,1135.89 316.441,1140.72 327.5,1142C 338.566,1148.94 338.066,1155.11 326,1160.5C 323.681,1167.78 319.181,1169.45 312.5,1165.5C 311.469,1164.3 310.635,1162.97 310,1161.5C 308.338,1149.09 301.505,1140.59 289.5,1136C 284.833,1135.67 280.167,1135.33 275.5,1135C 270.289,1132.41 268.456,1128.24 270,1122.5C 271.84,1120.16 274.007,1118.16 276.5,1116.5C 277.913,1112.4 279.913,1108.73 282.5,1105.5 Z"/></g>
<g><path style="opacity:1" fill="#9a9ba9" d="M 467.5,1117.5 C 469.467,1117.26 471.301,1117.59 473,1118.5C 472.834,1123.26 474.001,1127.6 476.5,1131.5C 480.511,1132.23 484.511,1132.89 488.5,1133.5C 489.631,1135.07 489.798,1136.74 489,1138.5C 486.147,1140.69 483.314,1142.86 480.5,1145C 483.112,1148.39 484.445,1152.22 484.5,1156.5C 482.801,1156.66 481.134,1156.49 479.5,1156C 476.926,1153.76 474.092,1151.92 471,1150.5C 469.775,1150.86 468.609,1151.36 467.5,1152C 464.731,1156.81 460.731,1159.48 455.5,1160C 454.424,1158.27 454.257,1156.44 455,1154.5C 456.306,1151.39 457.472,1148.22 458.5,1145C 456.273,1143.29 454.106,1141.46 452,1139.5C 451.506,1137.87 451.34,1136.2 451.5,1134.5C 455.179,1134.72 458.846,1135.06 462.5,1135.5C 463.663,1129.35 465.33,1123.35 467.5,1117.5 Z"/></g>
<g><path style="opacity:1" fill="#383a3f" d="M 221.5,1134.5 C 224.607,1134.35 227.607,1134.85 230.5,1136C 232.299,1144.06 229.299,1149.73 221.5,1153C 213.333,1154.83 210.167,1151.67 212,1143.5C 214.406,1139.59 217.572,1136.59 221.5,1134.5 Z"/></g>
<g><path style="opacity:1" fill="#242528" d="M 609.5,1141.5 C 616.508,1142 621.008,1145.67 623,1152.5C 624.833,1164 620,1168.83 608.5,1167C 603.755,1161.73 602.255,1155.56 604,1148.5C 605.666,1146 607.5,1143.67 609.5,1141.5 Z"/></g>
<g><path style="opacity:1" fill="#232426" d="M 403.5,1138.5 C 413.469,1138.63 417.969,1143.63 417,1153.5C 409.598,1167.3 402.432,1181.3 395.5,1195.5C 393.878,1197.44 392.044,1197.77 390,1196.5C 382.738,1185.64 375.738,1174.64 369,1163.5C 366.715,1158.03 366.048,1152.36 367,1146.5C 372.42,1139.07 379.254,1137.57 387.5,1142C 389.585,1143.04 391.252,1144.54 392.5,1146.5C 395.7,1143.08 399.366,1140.41 403.5,1138.5 Z"/></g>
<g><path style="opacity:1" fill="#242529" d="M 536.5,1136.5 C 549.693,1137.2 555.526,1144.2 554,1157.5C 551.13,1166.37 545.63,1168.54 537.5,1164C 528.664,1155.14 528.33,1145.98 536.5,1136.5 Z"/></g>
<g><path style="opacity:1" fill="#222325" d="M 567.5,1158.5 C 578.099,1156.57 587.433,1159.07 595.5,1166C 615.387,1186.1 619.887,1209.27 609,1235.5C 593.598,1258.77 575.098,1261.6 553.5,1244C 540.365,1228.59 534.865,1210.76 537,1190.5C 542.288,1175.05 552.454,1164.38 567.5,1158.5 Z"/></g>
<g><path style="opacity:1" fill="#373a3f" d="M -0.5,1191.5 C -0.5,1183.83 -0.5,1176.17 -0.5,1168.5C 2.54566,1167.11 5.54566,1167.28 8.5,1169C 11.9026,1172.42 13.5693,1176.58 13.5,1181.5C 12.9537,1190.72 8.28707,1194.06 -0.5,1191.5 Z"/></g>
<g><path style="opacity:1" fill="#393b40" d="M 24.5,1173.5 C 37.1213,1173.4 40.6213,1179.07 35,1190.5C 30.7785,1196.23 25.6118,1197.56 19.5,1194.5C 16.047,1186.21 17.7136,1179.21 24.5,1173.5 Z"/></g>
<g><path style="opacity:1" fill="#9799a7" d="M 132.5,1177.5 C 142.4,1176.61 149.4,1180.61 153.5,1189.5C 158.398,1190.73 163.065,1192.56 167.5,1195C 170.41,1198.77 171.076,1202.93 169.5,1207.5C 167.631,1210.11 165.297,1212.28 162.5,1214C 153.294,1217.29 144.294,1220.95 135.5,1225C 123.826,1235.18 116.993,1248.01 115,1263.5C 112.439,1273.84 105.939,1279.01 95.5,1279C 92.3007,1275.43 89.4674,1271.6 87,1267.5C 83.1019,1264.32 79.1019,1261.32 75,1258.5C 71.9245,1249.65 74.7579,1243.48 83.5,1240C 94.9416,1240.6 104.108,1236.43 111,1227.5C 116.329,1221.52 120.663,1214.85 124,1207.5C 123.516,1201.2 123.516,1194.87 124,1188.5C 125.895,1184.01 128.728,1180.35 132.5,1177.5 Z"/></g>
<g><path style="opacity:1" fill="#242528" d="M 513.5,1166.5 C 527.44,1166.7 534.607,1173.7 535,1187.5C 531.951,1196.24 526.118,1199.07 517.5,1196C 504.412,1187.59 503.079,1177.76 513.5,1166.5 Z"/></g>
<g><path style="opacity:1" fill="#383a3f" d="M 735.5,1173.5 C 735.5,1181.17 735.5,1188.83 735.5,1196.5C 728.861,1197.19 725.861,1194.19 726.5,1187.5C 726.524,1180.76 729.524,1176.09 735.5,1173.5 Z"/></g>
<g><path style="opacity:1" fill="#393b41" d="M 709.5,1167.5 C 719.134,1168.4 723.301,1173.73 722,1183.5C 720.603,1191.61 716.103,1194.11 708.5,1191C 701.597,1182.77 701.93,1174.93 709.5,1167.5 Z"/></g>
<g><path style="opacity:1" fill="#38393f" d="M 684.5,1181.5 C 694.583,1182.08 699.083,1187.42 698,1197.5C 696.055,1203.72 691.889,1206.22 685.5,1205C 683.641,1203.44 682.141,1201.61 681,1199.5C 680.333,1194.83 680.333,1190.17 681,1185.5C 682.376,1184.29 683.542,1182.96 684.5,1181.5 Z"/></g>
<g><path style="opacity:1" fill="#373a3f" d="M 735.5,1211.5 C 735.5,1220.83 735.5,1230.17 735.5,1239.5C 731.919,1243.17 727.585,1244.33 722.5,1243C 718.656,1240.58 714.99,1237.91 711.5,1235C 706.833,1234.67 702.167,1234.33 697.5,1234C 692.142,1232.29 689.809,1228.62 690.5,1223C 691.541,1210.56 697.874,1202.23 709.5,1198C 721.847,1196.02 730.514,1200.52 735.5,1211.5 Z"/></g>
<g><path style="opacity:1" fill="#36393e" d="M -0.5,1233.5 C -0.5,1221.83 -0.5,1210.17 -0.5,1198.5C 7.78616,1196.78 15.2862,1198.45 22,1203.5C 26.1896,1211.62 28.3562,1220.28 28.5,1229.5C 28.0333,1242.15 22.0333,1245.98 10.5,1241C 7.20843,1237.86 3.54177,1235.36 -0.5,1233.5 Z"/></g>
<g><path style="opacity:1" fill="#9898a8" d="M 283.5,1185.5 C 285.144,1185.29 286.644,1185.62 288,1186.5C 288.5,1195.16 288.666,1203.83 288.5,1212.5C 294.176,1212.33 299.843,1212.5 305.5,1213C 307.515,1214.56 307.848,1216.39 306.5,1218.5C 301.555,1220.65 296.555,1222.48 291.5,1224C 296.435,1229.09 298.435,1235.09 297.5,1242C 295.833,1242.67 294.167,1242.67 292.5,1242C 289.353,1236.53 285.187,1232.03 280,1228.5C 278.037,1229.63 276.204,1230.96 274.5,1232.5C 270.77,1236.89 267.437,1241.56 264.5,1246.5C 260.359,1247.63 258.859,1245.97 260,1241.5C 264.02,1234.47 267.187,1227.13 269.5,1219.5C 265.552,1219.65 262.886,1217.99 261.5,1214.5C 261.818,1213.35 262.484,1212.52 263.5,1212C 267.233,1211.93 270.733,1211.1 274,1209.5C 276.873,1201.3 280.039,1193.3 283.5,1185.5 Z"/></g>
<g><path style="opacity:1" fill="#383a3f" d="M 220.5,1208.5 C 232.32,1210.13 235.82,1216.47 231,1227.5C 223.611,1234.82 217.278,1234.15 212,1225.5C 210.575,1217.68 213.408,1212.02 220.5,1208.5 Z"/></g>
<g><path style="opacity:1" fill="#383a3f" d="M 43.5,1198.5 C 46.5455,1198.34 49.3788,1199.01 52,1200.5C 53.4277,1208.22 51.261,1214.72 45.5,1220C 34.5882,1223.42 30.4215,1219.59 33,1208.5C 35.7379,1204.26 39.2379,1200.93 43.5,1198.5 Z"/></g>
<g><path style="opacity:1" fill="#383a40" d="M 452.5,1213.5 C 462.675,1212.85 467.842,1217.52 468,1227.5C 464.442,1235.44 458.609,1237.61 450.5,1234C 443.652,1229.07 442.818,1223.24 448,1216.5C 449.652,1215.6 451.152,1214.6 452.5,1213.5 Z"/></g>
<g><path style="opacity:1" fill="#393b40" d="M 351.5,1226.5 C 361.358,1226.51 364.858,1231.18 362,1240.5C 360.271,1246.76 356.438,1248.76 350.5,1246.5C 345.035,1239.55 345.368,1232.89 351.5,1226.5 Z"/></g>
<g><path style="opacity:1" fill="#393b40" d="M 373.5,1234.5 C 381.045,1233.87 384.212,1237.21 383,1244.5C 379.487,1254.95 373.487,1256.95 365,1250.5C 364.159,1246.88 364.826,1243.55 367,1240.5C 369.335,1238.6 371.502,1236.6 373.5,1234.5 Z"/></g>
<g><path style="opacity:1" fill="#373a40" d="M 328.5,1236.5 C 333.84,1236.66 337.34,1239.33 339,1244.5C 340.937,1251.91 338.437,1256.91 331.5,1259.5C 328.261,1258.71 326.094,1256.71 325,1253.5C 323.578,1247.21 324.744,1241.54 328.5,1236.5 Z"/></g>
<g><path style="opacity:1" fill="#37393e" d="M 349.5,1252.5 C 367.563,1253.96 375.063,1263.62 372,1281.5C 370.753,1289.43 366.253,1292.59 358.5,1291C 355.567,1289.73 352.901,1288.06 350.5,1286C 344.833,1285.67 339.167,1285.33 333.5,1285C 328.341,1279.38 328.175,1273.54 333,1267.5C 338.097,1261.9 343.597,1256.9 349.5,1252.5 Z"/></g>
<g><path style="opacity:1" fill="#37393f" d="M 382.5,1257.5 C 395.454,1257 397.954,1262 390,1272.5C 385.52,1276.32 381.187,1276.32 377,1272.5C 375.087,1265.97 376.92,1260.97 382.5,1257.5 Z"/></g>
<g><path style="opacity:1" fill="#222325" d="M 260.5,1307.5 C 242.167,1307.5 223.833,1307.5 205.5,1307.5C 205.335,1304.15 205.502,1300.82 206,1297.5C 209.057,1288.57 215.223,1283.9 224.5,1283.5C 226.152,1277.67 229.819,1273.51 235.5,1271C 246.151,1268.2 253.651,1271.7 258,1281.5C 258.676,1287.69 258.51,1293.85 257.5,1300C 257.821,1302.8 258.821,1305.3 260.5,1307.5 Z"/></g>
<g><path style="opacity:1" fill="#9799a7" d="M 469.5,1307.5 C 460.167,1307.5 450.833,1307.5 441.5,1307.5C 448.841,1297.15 454.341,1285.82 458,1273.5C 470.009,1261.12 478.675,1263.12 484,1279.5C 487.078,1281.96 490.244,1284.29 493.5,1286.5C 497.068,1293.45 495.735,1299.29 489.5,1304C 482.841,1305.87 476.174,1307.04 469.5,1307.5 Z"/></g>
<g><path style="opacity:1" fill="#232527" d="M 4.5,1307.5 C 2.83333,1307.5 1.16667,1307.5 -0.5,1307.5C -0.5,1302.83 -0.5,1298.17 -0.5,1293.5C 1.83053,1292.21 3.99719,1292.54 6,1294.5C 6.57474,1298.97 6.07474,1303.31 4.5,1307.5 Z"/></g>
<g><path style="opacity:1" fill="#9a9aa9" d="M 161.5,1307.5 C 152.833,1307.5 144.167,1307.5 135.5,1307.5C 135.797,1300.77 136.63,1294.11 138,1287.5C 139.224,1284.53 141.224,1283.86 144,1285.5C 145.791,1288.99 147.124,1292.66 148,1296.5C 150.969,1299.95 154.802,1301.45 159.5,1301C 161.229,1302.79 161.896,1304.96 161.5,1307.5 Z"/></g>
<g><path style="opacity:1" fill="#9899a8" d="M 624.5,1307.5 C 610.167,1307.5 595.833,1307.5 581.5,1307.5C 579.828,1304.38 580.162,1301.54 582.5,1299C 586.871,1298.83 591.204,1298.33 595.5,1297.5C 598.762,1292.71 600.262,1287.38 600,1281.5C 602.267,1280.07 604.267,1280.4 606,1282.5C 607.869,1288.81 609.869,1295.14 612,1301.5C 615.72,1301.66 619.554,1301.82 623.5,1302C 624.406,1303.7 624.739,1305.53 624.5,1307.5 Z"/></g>
<g><path style="opacity:1" fill="#252529" d="M 713.5,1307.5 C 694.167,1307.5 674.833,1307.5 655.5,1307.5C 657.121,1305.88 659.121,1304.72 661.5,1304C 678.339,1301.61 694.839,1297.78 711,1292.5C 712.473,1292.9 713.806,1293.57 715,1294.5C 715.575,1298.97 715.075,1303.31 713.5,1307.5 Z"/></g>
</svg>
