<?xml version="1.0" encoding="UTF-8"?>
<!DOCTYPE svg PUBLIC "-//W3C//DTD SVG 1.1//EN" "http://www.w3.org/Graphics/SVG/1.1/DTD/svg11.dtd">
<svg xmlns="http://www.w3.org/2000/svg" version="1.1" width="564px" height="1002px" style="shape-rendering:geometricPrecision; text-rendering:geometricPrecision; image-rendering:optimizeQuality; fill-rule:evenodd; clip-rule:evenodd" xmlns:xlink="http://www.w3.org/1999/xlink">
<g><path style="opacity:1" fill="#060606" d="M 62.5,-0.5 C 92.5,-0.5 122.5,-0.5 152.5,-0.5C 152.063,1.07442 151.063,2.24109 149.5,3C 140.018,5.99009 130.351,8.49009 120.5,10.5C 129.349,22.5153 140.682,31.3486 154.5,37C 176.751,42.8617 198.751,49.5284 220.5,57C 231.321,59.9146 242.321,61.7479 253.5,62.5C 266.327,63.6602 279.327,63.8269 292.5,63C 294.973,62.7805 296.64,61.6138 297.5,59.5C 308.528,56.9057 318.695,52.2391 328,45.5C 347.737,56.2853 367.903,66.452 388.5,76C 402.5,84 416.5,92 430.5,100C 435.542,100.621 437.376,98.4546 436,93.5C 422.233,77.0692 409.233,60.0692 397,42.5C 387.907,30.6508 378.574,18.9841 369,7.5C 367.007,5.1825 365.841,2.51583 365.5,-0.5C 372.5,-0.5 379.5,-0.5 386.5,-0.5C 398.899,14.6209 411.066,29.9542 423,45.5C 432.852,55.1655 443.352,63.9989 454.5,72C 468.802,84.6316 481.302,98.7983 492,114.5C 496.5,119 501,123.5 505.5,128C 524.018,142.751 543.351,156.251 563.5,168.5C 563.5,172.5 563.5,176.5 563.5,180.5C 544.199,175.007 524.866,169.507 505.5,164C 493.389,164.074 481.389,163.074 469.5,161C 464.858,159.843 460.525,158.01 456.5,155.5C 456.167,155.833 455.833,156.167 455.5,156.5C 472.733,171.107 492.733,179.107 515.5,180.5C 532.073,190.098 548.073,200.431 563.5,211.5C 563.5,219.833 563.5,228.167 563.5,236.5C 546.717,220.266 526.717,209.432 503.5,204C 492.524,202.146 481.524,200.48 470.5,199C 466.221,197.527 462.221,195.527 458.5,193C 449.703,185.872 441.203,178.372 433,170.5C 426.452,162.954 420.285,155.121 414.5,147C 410.217,144.385 406.217,141.385 402.5,138C 395.042,135.889 387.709,136.056 380.5,138.5C 368.549,133.929 356.216,130.762 343.5,129C 318.259,127.526 297.759,136.693 282,156.5C 282.28,166.49 282.28,176.49 282,186.5C 281.579,192.037 280.413,197.37 278.5,202.5C 252.954,180.448 225.621,160.948 196.5,144C 192.389,142.109 188.056,141.109 183.5,141C 177.328,135.156 173.995,127.99 173.5,119.5C 204.621,123.981 231.788,136.648 255,157.5C 255.667,156.833 255.667,156.167 255,155.5C 237.936,132.332 215.103,118.165 186.5,113C 172.883,89.0492 154.216,70.0492 130.5,56C 120.137,45.3032 109.471,34.9699 98.5,25C 89.3463,17.9205 79.6796,11.5872 69.5,6C 66.7121,4.28142 64.3788,2.11476 62.5,-0.5 Z"/></g>
<g><path style="opacity:1" fill="#080809" d="M 393.5,-0.5 C 404.5,-0.5 415.5,-0.5 426.5,-0.5C 442.147,18.4642 461.48,32.4642 484.5,41.5C 491.147,40.7854 497.813,40.2854 504.5,40C 497.353,37.4433 490.019,35.7766 482.5,35C 473.322,28.5772 464.322,21.9105 455.5,15C 450.297,9.96464 445.297,4.79798 440.5,-0.5C 453.167,-0.5 465.833,-0.5 478.5,-0.5C 500.587,15.2172 524.254,28.3839 549.5,39C 554.155,39.4992 558.821,39.6658 563.5,39.5C 563.5,43.1667 563.5,46.8333 563.5,50.5C 557.04,52.7612 550.374,53.7612 543.5,53.5C 533.657,54.1153 523.991,53.2819 514.5,51C 508.183,50.2348 501.849,49.7348 495.5,49.5C 486.713,48.3039 478.047,46.4706 469.5,44C 455.374,39.764 441.374,35.264 427.5,30.5C 426.257,25.7278 424.257,21.2278 421.5,17C 416.151,14.2415 410.484,12.2415 404.5,11C 400.252,7.62246 396.585,3.78912 393.5,-0.5 Z"/></g>
<g><path style="opacity:1" fill="#6c6d72" d="M 559.5,-0.5 C 560.833,-0.5 562.167,-0.5 563.5,-0.5C 563.5,1.5 563.5,3.5 563.5,5.5C 562.549,4.08134 562.216,2.41467 562.5,0.5C 561.209,0.737305 560.209,0.403972 559.5,-0.5 Z"/></g>
<g><path style="opacity:1" fill="#080809" d="M 521.5,5.5 C 534.346,5.66303 547.013,5.99637 559.5,6.5C 560.833,6.5 562.167,6.5 563.5,6.5C 563.5,12.1667 563.5,17.8333 563.5,23.5C 556.825,23.6663 550.158,23.4996 543.5,23C 532.939,19.2253 523.273,14.0586 514.5,7.5C 516.51,5.82869 518.843,5.16202 521.5,5.5 Z"/></g>
<g><path style="opacity:1" fill="#c7c8d1" d="M 478.5,-0.5 C 505.5,-0.5 532.5,-0.5 559.5,-0.5C 560.209,0.403972 561.209,0.737305 562.5,0.5C 562.216,2.41467 562.549,4.08134 563.5,5.5C 563.5,5.83333 563.5,6.16667 563.5,6.5C 562.167,6.5 560.833,6.5 559.5,6.5C 552.056,5.01046 544.389,4.34379 536.5,4.5C 531.322,4.50069 526.322,4.83403 521.5,5.5C 518.843,5.16202 516.51,5.82869 514.5,7.5C 523.273,14.0586 532.939,19.2253 543.5,23C 550.158,23.4996 556.825,23.6663 563.5,23.5C 563.5,28.8333 563.5,34.1667 563.5,39.5C 558.821,39.6658 554.155,39.4992 549.5,39C 524.254,28.3839 500.587,15.2172 478.5,-0.5 Z"/></g>
<g><path style="opacity:1" fill="#292a2e" d="M 521.5,5.5 C 526.322,4.83403 531.322,4.50069 536.5,4.5C 544.389,4.34379 552.056,5.01046 559.5,6.5C 547.013,5.99637 534.346,5.66303 521.5,5.5 Z"/></g>
<g><path style="opacity:1" fill="#c4c5ce" d="M 426.5,-0.5 C 431.167,-0.5 435.833,-0.5 440.5,-0.5C 445.297,4.79798 450.297,9.96464 455.5,15C 464.322,21.9105 473.322,28.5772 482.5,35C 490.019,35.7766 497.353,37.4433 504.5,40C 497.813,40.2854 491.147,40.7854 484.5,41.5C 461.48,32.4642 442.147,18.4642 426.5,-0.5 Z"/></g>
<g><path style="opacity:1" fill="#c9cad3" d="M 152.5,-0.5 C 169.833,-0.5 187.167,-0.5 204.5,-0.5C 200.327,3.00205 195.493,5.33538 190,6.5C 180.535,4.09436 171.035,3.92769 161.5,6C 156.786,8.0512 152.619,10.8845 149,14.5C 148.251,15.635 148.417,16.635 149.5,17.5C 162.709,24.144 176.709,26.3107 191.5,24C 201.145,22.4576 209.812,18.7909 217.5,13C 224.785,11.5863 232.118,11.253 239.5,12C 243.892,12.5925 247.892,14.0925 251.5,16.5C 244.524,16.0155 237.524,16.5155 230.5,18C 227.059,19.776 223.892,21.9426 221,24.5C 220.333,25.5 220.333,26.5 221,27.5C 224.862,32.0242 229.362,35.8576 234.5,39C 243.257,41.2538 252.091,43.0871 261,44.5C 278.207,43.6307 295.374,42.2973 312.5,40.5C 294.346,26.5229 275.012,14.3562 254.5,4C 252.959,2.62879 251.625,1.12879 250.5,-0.5C 261.833,-0.5 273.167,-0.5 284.5,-0.5C 293.284,11.1183 303.284,21.6183 314.5,31C 325.891,37.1808 337.558,42.6808 349.5,47.5C 353.338,47.7927 354.838,46.126 354,42.5C 337.582,30.5833 323.749,16.25 312.5,-0.5C 315.833,-0.5 319.167,-0.5 322.5,-0.5C 324.972,8.60628 329.639,16.4396 336.5,23C 354.286,38.3876 372.619,53.0542 391.5,67C 396.976,70.8386 401.309,69.8386 404.5,64C 404.091,61.6793 403.257,59.5126 402,57.5C 389.296,43.7615 377.296,29.4282 366,14.5C 362.911,9.59412 360.077,4.59412 357.5,-0.5C 360.167,-0.5 362.833,-0.5 365.5,-0.5C 365.841,2.51583 367.007,5.1825 369,7.5C 378.574,18.9841 387.907,30.6508 397,42.5C 409.233,60.0692 422.233,77.0692 436,93.5C 437.376,98.4546 435.542,100.621 430.5,100C 416.5,92 402.5,84 388.5,76C 367.903,66.452 347.737,56.2853 328,45.5C 318.695,52.2391 308.528,56.9057 297.5,59.5C 282.983,62.1513 268.316,63.1513 253.5,62.5C 242.321,61.7479 231.321,59.9146 220.5,57C 198.751,49.5284 176.751,42.8617 154.5,37C 140.682,31.3486 129.349,22.5153 120.5,10.5C 130.351,8.49009 140.018,5.99009 149.5,3C 151.063,2.24109 152.063,1.07442 152.5,-0.5 Z"/></g>
<g><path style="opacity:1" fill="#070708" d="M 322.5,-0.5 C 334.167,-0.5 345.833,-0.5 357.5,-0.5C 360.077,4.59412 362.911,9.59412 366,14.5C 377.296,29.4282 389.296,43.7615 402,57.5C 403.257,59.5126 404.091,61.6793 404.5,64C 401.309,69.8386 396.976,70.8386 391.5,67C 372.619,53.0542 354.286,38.3876 336.5,23C 329.639,16.4396 324.972,8.60628 322.5,-0.5 Z"/></g>
<g><path style="opacity:1" fill="#0b0b0c" d="M 284.5,-0.5 C 293.833,-0.5 303.167,-0.5 312.5,-0.5C 323.749,16.25 337.582,30.5833 354,42.5C 354.838,46.126 353.338,47.7927 349.5,47.5C 337.558,42.6808 325.891,37.1808 314.5,31C 303.284,21.6183 293.284,11.1183 284.5,-0.5 Z"/></g>
<g><path style="opacity:1" fill="#080809" d="M 204.5,-0.5 C 219.833,-0.5 235.167,-0.5 250.5,-0.5C 251.625,1.12879 252.959,2.62879 254.5,4C 275.012,14.3562 294.346,26.5229 312.5,40.5C 295.374,42.2973 278.207,43.6307 261,44.5C 252.091,43.0871 243.257,41.2538 234.5,39C 229.362,35.8576 224.862,32.0242 221,27.5C 220.333,26.5 220.333,25.5 221,24.5C 223.892,21.9426 227.059,19.776 230.5,18C 237.524,16.5155 244.524,16.0155 251.5,16.5C 247.892,14.0925 243.892,12.5925 239.5,12C 232.118,11.253 224.785,11.5863 217.5,13C 209.812,18.7909 201.145,22.4576 191.5,24C 176.709,26.3107 162.709,24.144 149.5,17.5C 148.417,16.635 148.251,15.635 149,14.5C 152.619,10.8845 156.786,8.0512 161.5,6C 171.035,3.92769 180.535,4.09436 190,6.5C 195.493,5.33538 200.327,3.00205 204.5,-0.5 Z"/></g>
<g><path style="opacity:1" fill="#0b0b0c" d="M -0.5,30.5 C 1.46283,31.9599 3.29617,33.6266 5,35.5C 14.3333,47.5 23.6667,59.5 33,71.5C 38.3406,80.2036 40.8406,89.5369 40.5,99.5C 33.1768,92.3446 25.6768,85.3446 18,78.5C 11.654,71.5964 5.48736,64.5964 -0.5,57.5C -0.5,48.5 -0.5,39.5 -0.5,30.5 Z"/></g>
<g><path style="opacity:1" fill="#26262a" d="M 495.5,49.5 C 501.849,49.7348 508.183,50.2348 514.5,51C 523.991,53.2819 533.657,54.1153 543.5,53.5C 527.256,55.4708 511.256,54.1375 495.5,49.5 Z"/></g>
<g><path style="opacity:1" fill="#070707" d="M 460.5,60.5 C 480.74,63.1245 501.073,64.4579 521.5,64.5C 528.175,64.6663 534.842,64.4996 541.5,64C 546.412,63.778 551.079,62.9446 555.5,61.5C 558.167,61.5 560.833,61.5 563.5,61.5C 563.5,70.5 563.5,79.5 563.5,88.5C 552.66,91.3072 541.66,92.8072 530.5,93C 513.33,82.7031 494.663,77.0364 474.5,76C 467.246,73.5476 461.246,69.3809 456.5,63.5C 456.586,62.5041 456.252,61.6708 455.5,61C 457.134,60.5065 458.801,60.3398 460.5,60.5 Z"/></g>
<g><path style="opacity:1" fill="#1e1e21" d="M 297.5,59.5 C 296.64,61.6138 294.973,62.7805 292.5,63C 279.327,63.8269 266.327,63.6602 253.5,62.5C 268.316,63.1513 282.983,62.1513 297.5,59.5 Z"/></g>
<g><path style="opacity:1" fill="#232325" d="M 555.5,61.5 C 551.079,62.9446 546.412,63.778 541.5,64C 534.842,64.4996 528.175,64.6663 521.5,64.5C 532.697,63.577 544.031,62.577 555.5,61.5 Z"/></g>
<g><path style="opacity:1" fill="#c4c5ce" d="M 278.5,72.5 C 285.23,72.2264 291.897,72.7264 298.5,74C 268.787,84.7094 238.454,93.2094 207.5,99.5C 205.971,99.4712 204.804,98.8045 204,97.5C 199.371,91.0702 194.871,84.5702 190.5,78C 190.667,77.5 190.833,77 191,76.5C 199.602,86.7964 210.436,90.6298 223.5,88C 237.01,86.193 250.343,83.5263 263.5,80C 268.561,77.4696 273.561,74.9696 278.5,72.5 Z"/></g>
<g><path style="opacity:1" fill="#0a0a0b" d="M -0.5,75.5 C 17.3126,110.135 38.1459,142.802 62,173.5C 73.1128,184.277 85.6128,193.11 99.5,200C 101.602,201.733 101.935,203.733 100.5,206C 97.9234,207.25 95.2567,207.584 92.5,207C 61.1849,187.357 32.5182,164.357 6.5,138C 4.26569,136.25 1.93236,134.75 -0.5,133.5C -0.5,114.167 -0.5,94.8333 -0.5,75.5 Z"/></g>
<g><path style="opacity:1" fill="#c9cad3" d="M 386.5,-0.5 C 388.833,-0.5 391.167,-0.5 393.5,-0.5C 396.585,3.78912 400.252,7.62246 404.5,11C 410.484,12.2415 416.151,14.2415 421.5,17C 424.257,21.2278 426.257,25.7278 427.5,30.5C 441.374,35.264 455.374,39.764 469.5,44C 478.047,46.4706 486.713,48.3039 495.5,49.5C 511.256,54.1375 527.256,55.4708 543.5,53.5C 550.374,53.7612 557.04,52.7612 563.5,50.5C 563.5,54.1667 563.5,57.8333 563.5,61.5C 560.833,61.5 558.167,61.5 555.5,61.5C 544.031,62.577 532.697,63.577 521.5,64.5C 501.073,64.4579 480.74,63.1245 460.5,60.5C 458.149,58.7971 455.482,58.2971 452.5,59C 453.328,60.9923 454.661,62.4923 456.5,63.5C 461.246,69.3809 467.246,73.5476 474.5,76C 494.663,77.0364 513.33,82.7031 530.5,93C 541.66,92.8072 552.66,91.3072 563.5,88.5C 563.5,98.5 563.5,108.5 563.5,118.5C 546.684,108.503 528.684,101.336 509.5,97C 505.112,96.3801 500.778,95.5467 496.5,94.5C 496.167,94.8333 495.833,95.1667 495.5,95.5C 498.53,102.03 502.863,107.53 508.5,112C 526.542,125.345 544.875,138.179 563.5,150.5C 563.5,156.5 563.5,162.5 563.5,168.5C 543.351,156.251 524.018,142.751 505.5,128C 501,123.5 496.5,119 492,114.5C 481.302,98.7983 468.802,84.6316 454.5,72C 443.352,63.9989 432.852,55.1655 423,45.5C 411.066,29.9542 398.899,14.6209 386.5,-0.5 Z"/></g>
<g><path style="opacity:1" fill="#2f2f35" d="M 460.5,60.5 C 458.801,60.3398 457.134,60.5065 455.5,61C 456.252,61.6708 456.586,62.5041 456.5,63.5C 454.661,62.4923 453.328,60.9923 452.5,59C 455.482,58.2971 458.149,58.7971 460.5,60.5 Z"/></g>
<g><path style="opacity:1" fill="#c7c7d1" d="M 434.5,132.5 C 434.5,133.167 434.167,133.5 433.5,133.5C 397.704,121.072 361.371,110.406 324.5,101.5C 320.861,102.619 317.861,104.786 315.5,108C 305.488,115.177 294.488,119.844 282.5,122C 290.747,117.089 297.747,110.755 303.5,103C 317.576,100.641 331.076,96.4742 344,90.5C 349.916,92.4855 355.916,94.1522 362,95.5C 370.601,92.3406 379.435,91.3406 388.5,92.5C 396.726,97.7804 405.393,102.28 414.5,106C 407.906,107.821 401.239,109.321 394.5,110.5C 407.079,119.143 420.412,126.476 434.5,132.5 Z"/></g>
<g><path style="opacity:1" fill="#080808" d="M 563.5,118.5 C 563.5,129.167 563.5,139.833 563.5,150.5C 544.875,138.179 526.542,125.345 508.5,112C 502.863,107.53 498.53,102.03 495.5,95.5C 495.833,95.1667 496.167,94.8333 496.5,94.5C 500.778,95.5467 505.112,96.3801 509.5,97C 528.684,101.336 546.684,108.503 563.5,118.5 Z"/></g>
<g><path style="opacity:1" fill="#606060" d="M 434.5,132.5 C 436.14,133.32 437.807,134.153 439.5,135C 437.225,135.405 435.225,134.905 433.5,133.5C 434.167,133.5 434.5,133.167 434.5,132.5 Z"/></g>
<g><path style="opacity:1" fill="#080809" d="M -0.5,148.5 C 31.8185,177.985 63.6518,207.985 95,238.5C 102.722,248.556 110.055,258.889 117,269.5C 133.161,287.836 152.995,300.502 176.5,307.5C 172.226,313.619 166.226,316.952 158.5,317.5C 146.429,306.933 134.763,295.766 123.5,284C 112.787,274.952 101.787,266.286 90.5,258C 67.2534,244.879 45.5868,229.545 25.5,212C 18.1556,203.148 9.48892,195.982 -0.5,190.5C -0.5,176.5 -0.5,162.5 -0.5,148.5 Z"/></g>
<g><path style="opacity:1" fill="#c9cad3" d="M 563.5,180.5 C 563.5,190.833 563.5,201.167 563.5,211.5C 548.073,200.431 532.073,190.098 515.5,180.5C 492.733,179.107 472.733,171.107 455.5,156.5C 455.833,156.167 456.167,155.833 456.5,155.5C 460.525,158.01 464.858,159.843 469.5,161C 481.389,163.074 493.389,164.074 505.5,164C 524.866,169.507 544.199,175.007 563.5,180.5 Z"/></g>
<g><path style="opacity:1" fill="#060607" d="M -0.5,202.5 C 17.8271,220.66 36.3271,238.66 55,256.5C 59.6765,261.874 64.3432,267.207 69,272.5C 73.2459,277.991 77.2459,283.658 81,289.5C 99.7763,321.55 118.943,353.383 138.5,385C 142.723,386.472 147.057,387.472 151.5,388C 164.833,388.667 178.167,388.667 191.5,388C 215.447,382.513 239.447,377.346 263.5,372.5C 266.85,372.665 270.183,372.498 273.5,372C 273.167,371.667 272.833,371.333 272.5,371C 276.953,370.975 280.953,369.808 284.5,367.5C 302.397,363.704 320.397,360.371 338.5,357.5C 347.786,357.74 356.786,356.74 365.5,354.5C 385.471,353.245 405.471,353.245 425.5,354.5C 424.452,358.719 421.785,361.553 417.5,363C 384.704,370.735 354.704,384.401 327.5,404C 324.756,404.803 322.089,405.803 319.5,407C 306.508,406.707 293.508,406.707 280.5,407C 269.549,409.821 258.549,412.488 247.5,415C 223.668,419.382 201.501,415.215 181,402.5C 180.333,403.167 180.333,403.833 181,404.5C 184.167,407 187.333,409.5 190.5,412C 210.537,422.335 230.537,432.668 250.5,443C 261.121,447.954 269.955,455.12 277,464.5C 289.333,482.5 301.667,500.5 314,518.5C 318.507,523.532 323.007,528.532 327.5,533.5C 327.586,535.677 328.253,537.677 329.5,539.5C 328.482,540.852 327.149,541.852 325.5,542.5C 326.609,543.965 326.109,544.965 324,545.5C 322.67,544.418 321.17,543.751 319.5,543.5C 315.293,540.796 310.96,538.296 306.5,536C 292.189,533.971 277.856,532.138 263.5,530.5C 249.527,530.517 236.193,533.351 223.5,539C 200.718,539.241 179.052,534.408 158.5,524.5C 158.167,524.833 157.833,525.167 157.5,525.5C 162.811,530.155 168.478,534.322 174.5,538C 208.025,551.165 237.192,570.665 262,596.5C 272.901,611.125 284.401,625.292 296.5,639C 314.416,655.245 332.083,671.912 349.5,689C 375.877,709.69 405.21,724.856 437.5,734.5C 443.686,733.912 445.019,731.078 441.5,726C 441.645,725.228 441.978,724.561 442.5,724C 445.833,722.667 449.167,721.333 452.5,720C 429.833,722.42 409.5,716.92 391.5,703.5C 394.962,702.518 398.629,702.185 402.5,702.5C 420.507,701.889 438.507,701.055 456.5,700C 464.805,693.515 474.139,689.182 484.5,687C 492.833,686.667 501.167,686.333 509.5,686C 521.463,679.843 534.13,677.509 547.5,679C 552.295,682.623 557.628,685.123 563.5,686.5C 563.5,693.5 563.5,700.5 563.5,707.5C 543.039,712.892 523.039,719.726 503.5,728C 475.313,736.547 446.646,742.88 417.5,747C 411.319,747.819 405.319,747.653 399.5,746.5C 399.5,745.5 399.5,744.5 399.5,743.5C 394.821,743.666 390.155,743.499 385.5,743C 384.167,742 382.833,741 381.5,740C 383.595,739.444 383.762,738.944 382,738.5C 377.22,739.055 372.387,739.055 367.5,738.5C 346.636,732.821 326.97,724.321 308.5,713C 303.705,702.588 295.705,695.921 284.5,693C 263.667,672.167 242.833,651.333 222,630.5C 216.777,619.052 210.777,608.052 204,597.5C 195.4,586.898 186.067,576.898 176,567.5C 162.835,543.004 145.335,522.17 123.5,505C 107.608,493.447 90.9417,483.113 73.5,474C 46.8473,453.656 29.3473,427.156 21,394.5C 16.2192,383.608 9.05256,374.608 -0.5,367.5C -0.5,357.167 -0.5,346.833 -0.5,336.5C 12.9751,341.802 25.6418,348.636 37.5,357C 65.9565,372.729 95.2899,386.562 125.5,398.5C 125.833,398.167 126.167,397.833 126.5,397.5C 116.158,385.659 105.325,374.326 94,363.5C 80.1933,347.222 67.86,329.888 57,311.5C 43.5681,278.272 24.4014,248.938 -0.5,223.5C -0.5,216.5 -0.5,209.5 -0.5,202.5 Z"/></g>
<g><path style="opacity:1" fill="#070708" d="M 563.5,303.5 C 563.5,310.167 563.5,316.833 563.5,323.5C 531.493,299.663 502.493,272.497 476.5,242C 471.345,237.091 465.345,233.757 458.5,232C 432.998,227.128 409.998,232.461 389.5,248C 382.446,255.054 375.446,262.054 368.5,269C 357.238,273.732 345.572,277.066 333.5,279C 318.816,279.877 304.149,280.877 289.5,282C 283.972,283.429 278.638,285.429 273.5,288C 266.994,290.25 260.327,291.916 253.5,293C 246.833,293.667 240.167,293.667 233.5,293C 226.749,291.804 220.082,290.304 213.5,288.5C 207.849,289.064 202.183,289.397 196.5,289.5C 191.66,289.641 186.993,289.141 182.5,288C 200.249,277.957 218.582,269.291 237.5,262C 257.129,260.743 276.796,260.076 296.5,260C 304.653,258.407 312.819,256.907 321,255.5C 325.168,254.332 329.002,252.499 332.5,250C 339.5,242.333 346.5,234.667 353.5,227C 363.962,218.936 375.628,213.27 388.5,210C 405.392,207.096 422.392,205.763 439.5,206C 442.5,207 445.5,208 448.5,209C 489.479,237.173 527.813,268.673 563.5,303.5 Z"/></g>
<g><path style="opacity:1" fill="#0a0a0b" d="M 563.5,252.5 C 563.5,262.167 563.5,271.833 563.5,281.5C 541.155,261.489 520.155,240.155 500.5,217.5C 524.201,224.187 545.201,235.853 563.5,252.5 Z"/></g>
<g><path style="opacity:1" fill="#cacbd4" d="M -0.5,-0.5 C 7.83333,-0.5 16.1667,-0.5 24.5,-0.5C 40.0908,18.4278 58.4241,34.0944 79.5,46.5C 80.4742,44.2573 80.8076,41.924 80.5,39.5C 79.9431,34.8354 78.6098,30.5021 76.5,26.5C 74.9523,22.4023 73.1189,18.4023 71,14.5C 66.8045,9.38945 62.6379,4.38945 58.5,-0.5C 59.8333,-0.5 61.1667,-0.5 62.5,-0.5C 64.3788,2.11476 66.7121,4.28142 69.5,6C 79.6796,11.5872 89.3463,17.9205 98.5,25C 109.471,34.9699 120.137,45.3032 130.5,56C 154.216,70.0492 172.883,89.0492 186.5,113C 215.103,118.165 237.936,132.332 255,155.5C 255.667,156.167 255.667,156.833 255,157.5C 231.788,136.648 204.621,123.981 173.5,119.5C 173.995,127.99 177.328,135.156 183.5,141C 188.056,141.109 192.389,142.109 196.5,144C 225.621,160.948 252.954,180.448 278.5,202.5C 280.413,197.37 281.579,192.037 282,186.5C 282.28,176.49 282.28,166.49 282,156.5C 297.759,136.693 318.259,127.526 343.5,129C 356.216,130.762 368.549,133.929 380.5,138.5C 387.709,136.056 395.042,135.889 402.5,138C 406.217,141.385 410.217,144.385 414.5,147C 420.285,155.121 426.452,162.954 433,170.5C 441.203,178.372 449.703,185.872 458.5,193C 462.221,195.527 466.221,197.527 470.5,199C 481.524,200.48 492.524,202.146 503.5,204C 526.717,209.432 546.717,220.266 563.5,236.5C 563.5,241.833 563.5,247.167 563.5,252.5C 545.201,235.853 524.201,224.187 500.5,217.5C 520.155,240.155 541.155,261.489 563.5,281.5C 563.5,288.833 563.5,296.167 563.5,303.5C 527.813,268.673 489.479,237.173 448.5,209C 445.5,208 442.5,207 439.5,206C 422.392,205.763 405.392,207.096 388.5,210C 375.628,213.27 363.962,218.936 353.5,227C 346.5,234.667 339.5,242.333 332.5,250C 329.002,252.499 325.168,254.332 321,255.5C 312.819,256.907 304.653,258.407 296.5,260C 276.796,260.076 257.129,260.743 237.5,262C 218.582,269.291 200.249,277.957 182.5,288C 186.993,289.141 191.66,289.641 196.5,289.5C 202.183,289.397 207.849,289.064 213.5,288.5C 220.082,290.304 226.749,291.804 233.5,293C 240.167,293.667 246.833,293.667 253.5,293C 260.327,291.916 266.994,290.25 273.5,288C 278.638,285.429 283.972,283.429 289.5,282C 304.149,280.877 318.816,279.877 333.5,279C 345.572,277.066 357.238,273.732 368.5,269C 375.446,262.054 382.446,255.054 389.5,248C 409.998,232.461 432.998,227.128 458.5,232C 465.345,233.757 471.345,237.091 476.5,242C 502.493,272.497 531.493,299.663 563.5,323.5C 563.5,339.167 563.5,354.833 563.5,370.5C 550.283,361.289 537.95,350.956 526.5,339.5C 509.778,332.013 492.778,331.513 475.5,338C 466.507,341.498 459.507,347.331 454.5,355.5C 453.522,355.811 452.855,356.478 452.5,357.5C 454.299,358.788 455.965,358.788 457.5,357.5C 473.462,355.359 489.462,355.025 505.5,356.5C 513.477,357.723 521.477,359.39 529.5,361.5C 541.255,365.374 552.588,370.374 563.5,376.5C 563.5,383.833 563.5,391.167 563.5,398.5C 554.889,391.19 545.889,384.357 536.5,378C 528.511,373.84 520.177,370.506 511.5,368C 501.833,367.333 492.167,367.333 482.5,368C 472.239,369.26 461.906,369.927 451.5,370C 442.177,373.327 432.843,376.66 423.5,380C 411.216,381.033 399.216,383.367 387.5,387C 377.063,390.772 369.063,397.439 363.5,407C 364.551,408.385 365.884,409.385 367.5,410C 382.664,409.798 397.83,409.298 413,408.5C 425.232,408.492 437.399,409.159 449.5,410.5C 468.494,396.365 489.66,387.032 513,382.5C 522.556,385.196 531.056,389.862 538.5,396.5C 532.167,397.167 525.833,397.833 519.5,398.5C 495.54,397.422 475.373,405.422 459,422.5C 457.711,425.351 457.211,428.351 457.5,431.5C 459.743,432.812 462.41,433.478 465.5,433.5C 468.355,433.497 471.022,433.164 473.5,432.5C 488.026,431.046 501.693,426.879 514.5,420C 531.235,418.673 547.568,420.506 563.5,425.5C 563.5,440.833 563.5,456.167 563.5,471.5C 555.346,465.671 546.512,461.005 537,457.5C 523.245,460.819 509.412,463.319 495.5,465C 504.714,460.95 511.381,454.45 515.5,445.5C 509.673,443.545 503.673,442.545 497.5,442.5C 482.202,444.103 466.868,445.103 451.5,445.5C 445.741,445.786 440.075,445.452 434.5,444.5C 422.32,438.135 409.32,435.635 395.5,437C 390.075,441.296 383.909,443.463 377,443.5C 367.53,442.451 358.197,440.784 349,438.5C 341.682,439.717 334.515,441.55 327.5,444C 309.507,448.301 291.507,448.468 273.5,444.5C 270.072,444.14 269.572,445.14 272,447.5C 283.332,458.753 296.832,466.253 312.5,470C 360.482,470.324 406.149,480.491 449.5,500.5C 472.847,495.831 495.514,488.998 517.5,480C 525.603,477.828 533.603,478.162 541.5,481C 545.545,483.573 549.878,485.573 554.5,487C 557.081,490.088 560.081,492.588 563.5,494.5C 563.5,499.167 563.5,503.833 563.5,508.5C 549.777,504.157 535.777,500.99 521.5,499C 511.248,497.79 501.248,498.79 491.5,502C 483.321,506.253 475.654,511.253 468.5,517C 453.006,524.111 437.339,524.278 421.5,517.5C 390.873,529.768 359.873,531.768 328.5,523.5C 347.171,541.643 368.837,555.143 393.5,564C 397.967,565.905 402.633,566.738 407.5,566.5C 420.22,565.868 432.887,564.701 445.5,563C 477.785,548.178 511.452,537.845 546.5,532C 552.157,531.501 557.824,531.334 563.5,531.5C 563.5,540.5 563.5,549.5 563.5,558.5C 555.493,558.334 547.493,558.5 539.5,559C 506.675,568.331 473.509,576.165 440,582.5C 437.152,582.202 434.319,581.869 431.5,581.5C 418.271,580.944 404.938,580.111 391.5,579C 367.534,567.519 346.201,552.352 327.5,533.5C 323.007,528.532 318.507,523.532 314,518.5C 301.667,500.5 289.333,482.5 277,464.5C 269.955,455.12 261.121,447.954 250.5,443C 230.537,432.668 210.537,422.335 190.5,412C 187.333,409.5 184.167,407 181,404.5C 180.333,403.833 180.333,403.167 181,402.5C 201.501,415.215 223.668,419.382 247.5,415C 258.549,412.488 269.549,409.821 280.5,407C 293.508,406.707 306.508,406.707 319.5,407C 322.089,405.803 324.756,404.803 327.5,404C 354.704,384.401 384.704,370.735 417.5,363C 421.785,361.553 424.452,358.719 425.5,354.5C 405.471,353.245 385.471,353.245 365.5,354.5C 356.245,354.45 347.245,355.45 338.5,357.5C 320.397,360.371 302.397,363.704 284.5,367.5C 277.267,368.643 270.267,370.309 263.5,372.5C 239.447,377.346 215.447,382.513 191.5,388C 178.167,388.667 164.833,388.667 151.5,388C 147.057,387.472 142.723,386.472 138.5,385C 118.943,353.383 99.7763,321.55 81,289.5C 77.2459,283.658 73.2459,277.991 69,272.5C 64.3432,267.207 59.6765,261.874 55,256.5C 36.3271,238.66 17.8271,220.66 -0.5,202.5C -0.5,198.5 -0.5,194.5 -0.5,190.5C 9.48892,195.982 18.1556,203.148 25.5,212C 45.5868,229.545 67.2534,244.879 90.5,258C 101.787,266.286 112.787,274.952 123.5,284C 134.763,295.766 146.429,306.933 158.5,317.5C 166.226,316.952 172.226,313.619 176.5,307.5C 152.995,300.502 133.161,287.836 117,269.5C 110.055,258.889 102.722,248.556 95,238.5C 63.6518,207.985 31.8185,177.985 -0.5,148.5C -0.5,143.5 -0.5,138.5 -0.5,133.5C 1.93236,134.75 4.26569,136.25 6.5,138C 32.5182,164.357 61.1849,187.357 92.5,207C 95.2567,207.584 97.9234,207.25 100.5,206C 101.935,203.733 101.602,201.733 99.5,200C 85.6128,193.11 73.1128,184.277 62,173.5C 38.1459,142.802 17.3126,110.135 -0.5,75.5C -0.5,69.5 -0.5,63.5 -0.5,57.5C 5.48736,64.5964 11.654,71.5964 18,78.5C 25.6768,85.3446 33.1768,92.3446 40.5,99.5C 40.8406,89.5369 38.3406,80.2036 33,71.5C 23.6667,59.5 14.3333,47.5 5,35.5C 3.29617,33.6266 1.46283,31.9599 -0.5,30.5C -0.5,20.1667 -0.5,9.83333 -0.5,-0.5 Z"/></g>
<g><path style="opacity:1" fill="#0b0b0c" d="M 413.5,264.5 C 430.71,268.444 446.71,275.11 461.5,284.5C 456.508,294.272 448.508,298.105 437.5,296C 423.548,286.669 408.214,280.669 391.5,278C 397.794,271.692 405.127,267.192 413.5,264.5 Z"/></g>
<g><path style="opacity:1" fill="#09090a" d="M 163.5,253.5 C 169.069,253.624 174.402,252.957 179.5,251.5C 183.5,251.5 187.5,251.5 191.5,251.5C 189.916,261.912 184.583,269.745 175.5,275C 171.667,276.5 167.833,278 164,279.5C 147.542,272.543 135.042,261.209 126.5,245.5C 127.002,244.479 127.668,244.312 128.5,245C 134.39,249.067 140.39,252.9 146.5,256.5C 152.119,255.175 157.786,254.175 163.5,253.5 Z"/></g>
<g><path style="opacity:1" fill="#3e3e43" d="M 179.5,251.5 C 174.402,252.957 169.069,253.624 163.5,253.5C 168.598,252.043 173.931,251.376 179.5,251.5 Z"/></g>
<g><path style="opacity:1" fill="#0a0a0b" d="M 434.5,242.5 C 468.796,245.39 494.963,261.39 513,290.5C 520.659,299.501 529.492,307.001 539.5,313C 550.352,321.207 556.686,332.04 558.5,345.5C 558.167,346.833 557.833,348.167 557.5,349.5C 545.031,336.867 532.031,324.701 518.5,313C 498.113,297.613 477.447,282.613 456.5,268C 447.812,260.493 440.479,251.993 434.5,242.5 Z"/></g>
<g><path style="opacity:1" fill="#28292c" d="M 183.5,239.5 C 186.959,239.531 190.292,240.198 193.5,241.5C 195.868,239.777 198.534,239.11 201.5,239.5C 195.482,243.409 189.482,243.409 183.5,239.5 Z"/></g>
<g><path style="opacity:1" fill="#4b4b50" d="M 421.5,175.5 C 422.627,176.122 423.627,176.955 424.5,178C 416.173,178.5 407.84,178.666 399.5,178.5C 407.057,178.152 414.39,177.152 421.5,175.5 Z"/></g>
<g><path style="opacity:1" fill="#070708" d="M 421.5,175.5 C 414.39,177.152 407.057,178.152 399.5,178.5C 368.705,180.128 344.539,193.462 327,218.5C 314.697,232.57 299.197,240.737 280.5,243C 269.669,245.917 259.336,244.751 249.5,239.5C 267.417,231.083 280.917,218.083 290,200.5C 293.979,189.907 297.645,179.24 301,168.5C 307.865,161.969 314.365,155.136 320.5,148C 323.629,146.601 326.629,144.935 329.5,143C 341.529,142.258 353.529,142.591 365.5,144C 367.631,144.543 369.631,145.376 371.5,146.5C 351.352,155.49 335.019,168.99 322.5,187C 337.666,175.916 354.666,168.25 373.5,164C 391.205,161.35 407.205,165.183 421.5,175.5 Z"/></g>
<g><path style="opacity:1" fill="#0a0a0c" d="M 60.5,110.5 C 65.0803,110.113 69.4136,110.947 73.5,113C 98.8599,138.426 123.527,164.426 147.5,191C 138.216,192.993 128.883,194.326 119.5,195C 79.7694,184.921 51.2694,161.421 34,124.5C 33.1923,122.421 33.359,120.421 34.5,118.5C 54.751,128.062 72.251,141.395 87,158.5C 92.6211,165.577 98.1211,172.743 103.5,180C 109.581,184.249 116.247,185.749 123.5,184.5C 96.6898,164.697 75.6898,140.03 60.5,110.5 Z"/></g>
<g><path style="opacity:1" fill="#070708" d="M 201.5,239.5 C 198.534,239.11 195.868,239.777 193.5,241.5C 190.292,240.198 186.959,239.531 183.5,239.5C 158.775,231.598 133.775,230.598 108.5,236.5C 105.118,224.092 109.451,215.925 121.5,212C 137.929,207.345 154.595,206.345 171.5,209C 176.226,215.531 182.56,218.531 190.5,218C 198.713,210.948 207.046,204.114 215.5,197.5C 179.574,185.072 152.741,162.072 135,128.5C 128.039,119.87 120.705,111.537 113,103.5C 106.111,93.4314 101.278,82.4314 98.5,70.5C 99,70.1667 99.5,69.8333 100,69.5C 120.68,80.5187 138.68,94.852 154,112.5C 161.581,123.328 168.915,134.328 176,145.5C 187.763,159.606 201.597,171.106 217.5,180C 227.313,184.826 237.313,189.159 247.5,193C 255.742,198.075 262.076,204.909 266.5,213.5C 245.127,222.956 223.46,231.623 201.5,239.5 Z"/></g>
<g><path style="opacity:1" fill="#3c3c41" d="M 76.5,26.5 C 78.6098,30.5021 79.9431,34.8354 80.5,39.5C 78.1924,35.5032 76.8591,31.1698 76.5,26.5 Z"/></g>
<g><path style="opacity:1" fill="#080809" d="M 11.5,17.5 C 43.596,32.4183 69.4293,54.7516 89,84.5C 96.1543,97.9789 104.488,110.646 114,122.5C 125.88,134.209 137.547,145.876 149,157.5C 155.577,165.649 161.41,174.316 166.5,183.5C 166.167,183.833 165.833,184.167 165.5,184.5C 128.478,159.319 93.9784,130.985 62,99.5C 40.3239,75.1475 23.4906,47.8142 11.5,17.5 Z"/></g>
<g><path style="opacity:1" fill="#070808" d="M 24.5,-0.5 C 35.8333,-0.5 47.1667,-0.5 58.5,-0.5C 62.6379,4.38945 66.8045,9.38945 71,14.5C 73.1189,18.4023 74.9523,22.4023 76.5,26.5C 76.8591,31.1698 78.1924,35.5032 80.5,39.5C 80.8076,41.924 80.4742,44.2573 79.5,46.5C 58.4241,34.0944 40.0908,18.4278 24.5,-0.5 Z"/></g>
<g><path style="opacity:1" fill="#080809" d="M -0.5,272.5 C 20.1868,298.638 43.0201,323.305 68,346.5C 72.1722,351.554 73.3388,357.221 71.5,363.5C 54.0063,354.254 36.673,344.754 19.5,335C 11.0194,327.377 4.35272,318.544 -0.5,308.5C -0.5,296.5 -0.5,284.5 -0.5,272.5 Z"/></g>
<g><path style="opacity:1" fill="#050506" d="M 413.5,339.5 C 403.514,338.834 393.514,338.501 383.5,338.5C 342.502,337.499 303.169,344.999 265.5,361C 261.798,361.676 258.131,362.509 254.5,363.5C 253.068,363.267 252.568,362.6 253,361.5C 264.831,344.508 276.164,327.175 287,309.5C 289.441,307.031 292.274,305.198 295.5,304C 311.881,303.77 327.881,301.27 343.5,296.5C 350.341,299.282 357.341,301.782 364.5,304C 371.833,304.667 379.167,304.667 386.5,304C 395.408,301.951 404.242,299.785 413,297.5C 414.833,297.667 416.667,297.833 418.5,298C 428.93,304.229 440.263,306.229 452.5,304C 458.251,302.579 463.918,301.079 469.5,299.5C 476.889,299.953 484.222,300.786 491.5,302C 497.707,305.606 503.373,309.939 508.5,315C 512.078,318.622 515.411,322.455 518.5,326.5C 517.333,326.833 516.167,327.167 515,327.5C 488.889,321.375 463.056,322.208 437.5,330C 429.58,333.463 421.58,336.63 413.5,339.5 Z"/></g>
<g><path style="opacity:1" fill="#050506" d="M 122.5,298.5 C 131.798,310.983 142.131,322.816 153.5,334C 154.729,334.781 156.062,335.281 157.5,335.5C 163.452,332.857 169.119,329.69 174.5,326C 179.57,321.585 184.403,317.085 189,312.5C 201.113,314.901 212.613,313.234 223.5,307.5C 237.274,313.185 251.608,315.518 266.5,314.5C 261.987,338.174 247.653,351.341 223.5,354C 215.464,354.277 207.464,354.943 199.5,356C 182.52,363.097 164.853,365.43 146.5,363C 142.757,361.864 139.09,360.53 135.5,359C 120.744,342.826 110.411,324.159 104.5,303C 109.638,306.398 115.138,309.565 121,312.5C 121.5,312.333 122,312.167 122.5,312C 120.041,307.388 120.041,302.888 122.5,298.5 Z"/></g>
<g><path style="opacity:1" fill="#09090a" d="M 563.5,370.5 C 563.5,372.5 563.5,374.5 563.5,376.5C 552.588,370.374 541.255,365.374 529.5,361.5C 526.192,360.112 522.859,358.612 519.5,357C 514.845,356.501 510.179,356.334 505.5,356.5C 489.462,355.025 473.462,355.359 457.5,357.5C 455.821,357.715 454.821,357.048 454.5,355.5C 459.507,347.331 466.507,341.498 475.5,338C 492.778,331.513 509.778,332.013 526.5,339.5C 537.95,350.956 550.283,361.289 563.5,370.5 Z"/></g>
<g><path style="opacity:1" fill="#222226" d="M 383.5,338.5 C 393.514,338.501 403.514,338.834 413.5,339.5C 411.359,340.163 409.025,340.497 406.5,340.5C 398.655,340.118 390.989,339.451 383.5,338.5 Z"/></g>
<g><path style="opacity:1" fill="#232327" d="M 365.5,354.5 C 356.786,356.74 347.786,357.74 338.5,357.5C 347.245,355.45 356.245,354.45 365.5,354.5 Z"/></g>
<g><path style="opacity:1" fill="#262628" d="M 505.5,356.5 C 510.179,356.334 514.845,356.501 519.5,357C 522.859,358.612 526.192,360.112 529.5,361.5C 521.477,359.39 513.477,357.723 505.5,356.5 Z"/></g>
<g><path style="opacity:1" fill="#4b4b53" d="M 454.5,355.5 C 454.821,357.048 455.821,357.715 457.5,357.5C 455.965,358.788 454.299,358.788 452.5,357.5C 452.855,356.478 453.522,355.811 454.5,355.5 Z"/></g>
<g><path style="opacity:1" fill="#c8c9d2" d="M -0.5,223.5 C 24.4014,248.938 43.5681,278.272 57,311.5C 67.86,329.888 80.1933,347.222 94,363.5C 105.325,374.326 116.158,385.659 126.5,397.5C 126.167,397.833 125.833,398.167 125.5,398.5C 95.2899,386.562 65.9565,372.729 37.5,357C 25.6418,348.636 12.9751,341.802 -0.5,336.5C -0.5,327.167 -0.5,317.833 -0.5,308.5C 4.35272,318.544 11.0194,327.377 19.5,335C 36.673,344.754 54.0063,354.254 71.5,363.5C 73.3388,357.221 72.1722,351.554 68,346.5C 43.0201,323.305 20.1868,298.638 -0.5,272.5C -0.5,256.167 -0.5,239.833 -0.5,223.5 Z"/></g>
<g><path style="opacity:1" fill="#070707" d="M 563.5,398.5 C 563.5,407.5 563.5,416.5 563.5,425.5C 547.568,420.506 531.235,418.673 514.5,420C 501.693,426.879 488.026,431.046 473.5,432.5C 468.073,432.782 462.74,432.449 457.5,431.5C 457.211,428.351 457.711,425.351 459,422.5C 475.373,405.422 495.54,397.422 519.5,398.5C 526.2,398.83 532.866,398.497 539.5,397.5C 539.376,396.893 539.043,396.56 538.5,396.5C 531.056,389.862 522.556,385.196 513,382.5C 489.66,387.032 468.494,396.365 449.5,410.5C 437.399,409.159 425.232,408.492 413,408.5C 397.83,409.298 382.664,409.798 367.5,410C 365.884,409.385 364.551,408.385 363.5,407C 369.063,397.439 377.063,390.772 387.5,387C 399.216,383.367 411.216,381.033 423.5,380C 432.843,376.66 442.177,373.327 451.5,370C 461.906,369.927 472.239,369.26 482.5,368C 492.167,367.333 501.833,367.333 511.5,368C 520.177,370.506 528.511,373.84 536.5,378C 545.889,384.357 554.889,391.19 563.5,398.5 Z"/></g>
<g><path style="opacity:1" fill="#232327" d="M 284.5,367.5 C 280.953,369.808 276.953,370.975 272.5,371C 272.833,371.333 273.167,371.667 273.5,372C 270.183,372.498 266.85,372.665 263.5,372.5C 270.267,370.309 277.267,368.643 284.5,367.5 Z"/></g>
<g><path style="opacity:1" fill="#3f3e40" d="M 41.5,382.5 C 40.9569,382.56 40.6236,382.893 40.5,383.5C 41.4565,385.075 42.1231,386.742 42.5,388.5C 41.8501,388.196 41.1835,387.863 40.5,387.5C 39.9508,383.668 38.6174,380.168 36.5,377C 36.6107,375.278 37.1107,375.112 38,376.5C 38.926,378.692 40.0927,380.692 41.5,382.5 Z"/></g>
<g><path style="opacity:1" fill="#454649" d="M 538.5,396.5 C 539.043,396.56 539.376,396.893 539.5,397.5C 532.866,398.497 526.2,398.83 519.5,398.5C 525.833,397.833 532.167,397.167 538.5,396.5 Z"/></g>
<g><path style="opacity:1" fill="#0a0a0b" d="M -0.5,412.5 C 9.22014,426.447 20.2201,439.281 32.5,451C 42.0996,456.88 50.5996,464.047 58,472.5C 59.2022,474.677 59.7022,477.011 59.5,479.5C 56.5314,480.329 53.5314,480.495 50.5,480C 41.0074,471.09 30.0074,465.09 17.5,462C 10.1924,459.496 4.1924,455.329 -0.5,449.5C -0.5,437.167 -0.5,424.833 -0.5,412.5 Z"/></g>
<g><path style="opacity:1" fill="#8f8e96" d="M 457.5,431.5 C 462.74,432.449 468.073,432.782 473.5,432.5C 471.022,433.164 468.355,433.497 465.5,433.5C 462.41,433.478 459.743,432.812 457.5,431.5 Z"/></g>
<g><path style="opacity:1" fill="#050506" d="M 434.5,444.5 C 436.915,445.814 439.748,446.481 443,446.5C 446.021,446.498 448.854,446.164 451.5,445.5C 466.868,445.103 482.202,444.103 497.5,442.5C 503.673,442.545 509.673,443.545 515.5,445.5C 511.381,454.45 504.714,460.95 495.5,465C 509.412,463.319 523.245,460.819 537,457.5C 546.512,461.005 555.346,465.671 563.5,471.5C 563.5,479.167 563.5,486.833 563.5,494.5C 560.081,492.588 557.081,490.088 554.5,487C 549.878,485.573 545.545,483.573 541.5,481C 533.603,478.162 525.603,477.828 517.5,480C 495.514,488.998 472.847,495.831 449.5,500.5C 406.149,480.491 360.482,470.324 312.5,470C 296.832,466.253 283.332,458.753 272,447.5C 269.572,445.14 270.072,444.14 273.5,444.5C 291.507,448.468 309.507,448.301 327.5,444C 334.515,441.55 341.682,439.717 349,438.5C 358.197,440.784 367.53,442.451 377,443.5C 383.909,443.463 390.075,441.296 395.5,437C 409.32,435.635 422.32,438.135 434.5,444.5 Z"/></g>
<g><path style="opacity:1" fill="#c9cad4" d="M 59.5,394.5 C 71.4621,404.601 85.1288,411.435 100.5,415C 108.841,416.667 117.174,418.334 125.5,420C 134.01,425.755 142.343,431.755 150.5,438C 171.638,448.4 193.805,451.233 217,446.5C 219.7,446.391 222.2,446.891 224.5,448C 194.837,457.112 164.504,460.112 133.5,457C 101.379,444.803 76.7121,423.97 59.5,394.5 Z"/></g>
<g><path style="opacity:1" fill="#929298" d="M 434.5,444.5 C 440.075,445.452 445.741,445.786 451.5,445.5C 448.854,446.164 446.021,446.498 443,446.5C 439.748,446.481 436.915,445.814 434.5,444.5 Z"/></g>
<g><path style="opacity:1" fill="#cacbd4" d="M 41.5,382.5 C 66.8294,420.665 98.1627,453.165 135.5,480C 156.347,491.443 176.013,489.776 194.5,475C 231.865,465.9 262.699,476.4 287,506.5C 289.968,511.602 292.801,516.769 295.5,522C 295.333,522.5 295.167,523 295,523.5C 257.22,499.854 217.387,496.02 175.5,512C 164.572,513.822 154.238,512.155 144.5,507C 128.66,498.838 114.827,488.005 103,474.5C 86.7319,450.966 69.7319,427.966 52,405.5C 48.8212,399.806 45.6546,394.139 42.5,388.5C 42.1231,386.742 41.4565,385.075 40.5,383.5C 40.6236,382.893 40.9569,382.56 41.5,382.5 Z"/></g>
<g><path style="opacity:1" fill="#080809" d="M -0.5,475.5 C 4.84372,475.334 10.1771,475.501 15.5,476C 34.3653,481.427 52.3653,489.094 69.5,499C 104.575,508.688 133.909,527.188 157.5,554.5C 160.747,558.659 163.747,562.992 166.5,567.5C 148.175,551.344 126.508,540.844 101.5,536C 94.5261,534.673 87.5261,533.506 80.5,532.5C 84.8062,528.86 88.8062,524.86 92.5,520.5C 82.0229,517.644 71.3562,516.811 60.5,518C 53.1718,520.005 46.8385,523.672 41.5,529C 33.5211,538.946 24.8545,548.279 15.5,557C 10.5087,560.495 5.17539,563.328 -0.5,565.5C -0.5,552.167 -0.5,538.833 -0.5,525.5C 9.67539,513.395 22.3421,504.729 37.5,499.5C 26.9844,494.344 16.3178,494.178 5.5,499C 3.5273,499.495 1.5273,499.662 -0.5,499.5C -0.5,491.5 -0.5,483.5 -0.5,475.5 Z"/></g>
<g><path style="opacity:1" fill="#c9cad4" d="M -0.5,525.5 C -0.5,516.833 -0.5,508.167 -0.5,499.5C 1.5273,499.662 3.5273,499.495 5.5,499C 16.3178,494.178 26.9844,494.344 37.5,499.5C 22.3421,504.729 9.67539,513.395 -0.5,525.5 Z"/></g>
<g><path style="opacity:1" fill="#050506" d="M 563.5,508.5 C 563.5,516.167 563.5,523.833 563.5,531.5C 557.824,531.334 552.157,531.501 546.5,532C 511.452,537.845 477.785,548.178 445.5,563C 432.887,564.701 420.22,565.868 407.5,566.5C 402.633,566.738 397.967,565.905 393.5,564C 368.837,555.143 347.171,541.643 328.5,523.5C 359.873,531.768 390.873,529.768 421.5,517.5C 437.339,524.278 453.006,524.111 468.5,517C 475.654,511.253 483.321,506.253 491.5,502C 501.248,498.79 511.248,497.79 521.5,499C 535.777,500.99 549.777,504.157 563.5,508.5 Z"/></g>
<g><path style="opacity:1" fill="#0d0d0f" d="M 327.5,533.5 C 346.201,552.352 367.534,567.519 391.5,579C 404.938,580.111 418.271,580.944 431.5,581.5C 418.829,581.333 406.162,581.5 393.5,582C 394.696,582.654 394.696,583.154 393.5,583.5C 391.651,582.407 389.984,581.074 388.5,579.5C 386.886,580.884 385.22,582.384 383.5,584C 386.612,584.851 386.946,586.017 384.5,587.5C 383.571,588.689 383.238,590.022 383.5,591.5C 378.167,591.5 372.833,591.5 367.5,591.5C 367.065,593.703 367.065,595.703 367.5,597.5C 359.823,594.247 351.823,592.247 343.5,591.5C 344.868,590.694 346.201,589.694 347.5,588.5C 348.478,588.977 349.311,589.643 350,590.5C 350.658,588.892 350.158,587.725 348.5,587C 349.5,586.667 350.5,586.333 351.5,586C 350.748,585.329 350.414,584.496 350.5,583.5C 360.33,589.566 370.997,591.733 382.5,590C 361.599,574.251 340.599,558.751 319.5,543.5C 321.17,543.751 322.67,544.418 324,545.5C 326.109,544.965 326.609,543.965 325.5,542.5C 327.149,541.852 328.482,540.852 329.5,539.5C 328.253,537.677 327.586,535.677 327.5,533.5 Z"/></g>
<g><path style="opacity:1" fill="#050505" d="M 563.5,558.5 C 563.5,581.5 563.5,604.5 563.5,627.5C 550.395,610.609 533.729,598.609 513.5,591.5C 486.802,602.109 459.635,611.109 432,618.5C 428.306,616.904 424.472,615.738 420.5,615C 412.5,614.667 404.5,614.333 396.5,614C 392.047,612.274 387.714,610.274 383.5,608C 378.511,603.82 373.178,600.32 367.5,597.5C 367.065,595.703 367.065,593.703 367.5,591.5C 372.833,591.5 378.167,591.5 383.5,591.5C 383.238,590.022 383.571,588.689 384.5,587.5C 386.946,586.017 386.612,584.851 383.5,584C 385.22,582.384 386.886,580.884 388.5,579.5C 389.984,581.074 391.651,582.407 393.5,583.5C 394.696,583.154 394.696,582.654 393.5,582C 406.162,581.5 418.829,581.333 431.5,581.5C 434.319,581.869 437.152,582.202 440,582.5C 473.509,576.165 506.675,568.331 539.5,559C 547.493,558.5 555.493,558.334 563.5,558.5 Z"/></g>
<g><path style="opacity:1" fill="#070708" d="M 350.5,583.5 C 350.414,584.496 350.748,585.329 351.5,586C 350.5,586.333 349.5,586.667 348.5,587C 350.158,587.725 350.658,588.892 350,590.5C 349.311,589.643 348.478,588.977 347.5,588.5C 346.201,589.694 344.868,590.694 343.5,591.5C 332.684,595.945 321.351,597.945 309.5,597.5C 304.056,596.116 298.389,595.45 292.5,595.5C 280.412,593.97 269.078,590.137 258.5,584C 251.913,579.988 248.579,574.155 248.5,566.5C 269.399,566.19 290.232,567.19 311,569.5C 324.734,564.783 335.901,568.283 344.5,580C 346.388,581.394 348.388,582.56 350.5,583.5 Z"/></g>
<g><path style="opacity:1" fill="#cbcbd5" d="M 319.5,543.5 C 340.599,558.751 361.599,574.251 382.5,590C 370.997,591.733 360.33,589.566 350.5,583.5C 348.388,582.56 346.388,581.394 344.5,580C 335.901,568.283 324.734,564.783 311,569.5C 290.232,567.19 269.399,566.19 248.5,566.5C 248.579,574.155 251.913,579.988 258.5,584C 269.078,590.137 280.412,593.97 292.5,595.5C 297.929,597.012 303.596,597.679 309.5,597.5C 321.351,597.945 332.684,595.945 343.5,591.5C 351.823,592.247 359.823,594.247 367.5,597.5C 373.178,600.32 378.511,603.82 383.5,608C 387.714,610.274 392.047,612.274 396.5,614C 404.5,614.333 412.5,614.667 420.5,615C 424.472,615.738 428.306,616.904 432,618.5C 459.635,611.109 486.802,602.109 513.5,591.5C 533.729,598.609 550.395,610.609 563.5,627.5C 563.5,634.167 563.5,640.833 563.5,647.5C 551.294,640.23 538.628,633.73 525.5,628C 511.494,623.416 497.161,620.249 482.5,618.5C 462.157,627.006 441.824,635.506 421.5,644C 414.509,643.753 407.509,643.253 400.5,642.5C 396.354,641.353 392.02,641.186 387.5,642C 383.469,644.016 379.469,646.016 375.5,648C 372.854,648.497 370.187,648.664 367.5,648.5C 352.758,647.938 338.091,646.605 323.5,644.5C 319.085,642.708 314.419,641.874 309.5,642C 310.705,643.376 312.038,644.542 313.5,645.5C 329.025,661.178 346.692,674.012 366.5,684C 377.245,685.513 387.911,687.346 398.5,689.5C 402.708,689.614 406.708,688.781 410.5,687C 416.552,681.947 422.885,677.281 429.5,673C 453.568,671.775 476.401,665.942 498,655.5C 506.775,659.297 515.942,660.464 525.5,659C 529.008,657.331 532.675,656.164 536.5,655.5C 545.574,657.248 554.574,659.248 563.5,661.5C 563.5,669.833 563.5,678.167 563.5,686.5C 557.628,685.123 552.295,682.623 547.5,679C 534.13,677.509 521.463,679.843 509.5,686C 501.167,686.333 492.833,686.667 484.5,687C 474.139,689.182 464.805,693.515 456.5,700C 438.507,701.055 420.507,701.889 402.5,702.5C 398.649,701.191 394.649,701.191 390.5,702.5C 390.624,703.107 390.957,703.44 391.5,703.5C 409.5,716.92 429.833,722.42 452.5,720C 449.167,721.333 445.833,722.667 442.5,724C 441.978,724.561 441.645,725.228 441.5,726C 445.019,731.078 443.686,733.912 437.5,734.5C 405.21,724.856 375.877,709.69 349.5,689C 332.083,671.912 314.416,655.245 296.5,639C 284.401,625.292 272.901,611.125 262,596.5C 237.192,570.665 208.025,551.165 174.5,538C 168.478,534.322 162.811,530.155 157.5,525.5C 157.833,525.167 158.167,524.833 158.5,524.5C 179.052,534.408 200.718,539.241 223.5,539C 236.193,533.351 249.527,530.517 263.5,530.5C 277.856,532.138 292.189,533.971 306.5,536C 310.96,538.296 315.293,540.796 319.5,543.5 Z"/></g>
<g><path style="opacity:1" fill="#38393e" d="M 292.5,595.5 C 298.389,595.45 304.056,596.116 309.5,597.5C 303.596,597.679 297.929,597.012 292.5,595.5 Z"/></g>
<g><path style="opacity:1" fill="#060707" d="M 111.5,627.5 C 112.326,630.68 113.659,633.68 115.5,636.5C 114.098,637.842 114.431,638.676 116.5,639C 115.833,639.167 115.167,639.333 114.5,639.5C 112.711,638.037 110.711,637.037 108.5,636.5C 106.704,635.207 105.037,633.707 103.5,632C 102.5,631.333 101.5,631.333 100.5,632C 89.3262,641.756 76.9929,649.756 63.5,656C 47.1911,663.828 30.1911,669.661 12.5,673.5C 10.8008,673.66 9.13414,673.494 7.5,673C 8.88821,672.111 8.72154,671.611 7,671.5C 5.82877,672.34 4.66211,673.173 3.5,674C 4.41625,677.689 6.41625,680.523 9.5,682.5C 16.5682,692.041 25.5682,699.208 36.5,704C 73.2761,719.687 111.609,729.187 151.5,732.5C 169.386,732.242 186.719,729.075 203.5,723C 205.167,722.333 206.833,722.333 208.5,723C 244.536,745.017 280.869,766.517 317.5,787.5C 317.833,787.167 318.167,786.833 318.5,786.5C 317.305,783.276 315.971,780.109 314.5,777C 306.188,764.863 297.522,753.03 288.5,741.5C 275.583,725.977 262.916,710.31 250.5,694.5C 238.012,676.201 226.012,657.535 214.5,638.5C 214.833,638.167 215.167,637.833 215.5,637.5C 240.363,654.86 262.196,675.527 281,699.5C 293.397,720.758 308.564,739.925 326.5,757C 344.535,768.033 359.702,782.2 372,799.5C 375.913,807.667 380.58,815.333 386,822.5C 409.873,834.035 429.873,850.368 446,871.5C 446.982,872.759 447.315,874.092 447,875.5C 444.417,874.126 441.917,872.626 439.5,871C 412.113,861.82 384.113,855.153 355.5,851C 351.224,848.029 346.558,845.863 341.5,844.5C 340.479,845.002 340.312,845.668 341,846.5C 345.634,848.235 349.468,851.069 352.5,855C 377.7,867.08 402.7,879.747 427.5,893C 471.401,919.365 504.401,955.532 526.5,1001.5C 523.833,1001.5 521.167,1001.5 518.5,1001.5C 503.85,986.354 488.35,972.02 472,958.5C 470.279,954.89 468.446,951.39 466.5,948C 444.16,927.672 419.16,911.338 391.5,899C 379.584,894.513 367.251,891.846 354.5,891C 329.806,867.64 305.806,843.64 282.5,819C 257.656,819.381 233.989,814.381 211.5,804C 208.072,803.299 204.738,803.632 201.5,805C 187.511,811.408 175.677,820.575 166,832.5C 164.374,836.433 164.374,840.433 166,844.5C 167.174,856.005 166.341,867.338 163.5,878.5C 140.127,854.296 114.46,832.796 86.5,814C 81.6036,810.7 76.2703,808.367 70.5,807C 63.8032,801.414 60.4699,794.248 60.5,785.5C 83.6167,792.057 105.283,801.89 125.5,815C 130.034,819.199 134.201,823.699 138,828.5C 128.303,807.819 112.469,793.652 90.5,786C 85.1526,784.323 79.8193,782.657 74.5,781C 58.5319,756.366 38.5319,735.7 14.5,719C 9.21435,713.885 4.21435,708.718 -0.5,703.5C -0.5,690.167 -0.5,676.833 -0.5,663.5C 24.6808,663.986 45.1808,654.653 61,635.5C 63.254,631.993 65.254,628.327 67,624.5C 72.3867,620.733 77.22,616.4 81.5,611.5C 65.0176,612.289 51.0176,618.789 39.5,631C 26.193,632.964 12.8597,634.464 -0.5,635.5C -0.5,626.167 -0.5,616.833 -0.5,607.5C 6.82686,608.205 14.1602,608.372 21.5,608C 22.8333,607.333 24.1667,606.667 25.5,606C 31.8333,605.667 38.1667,605.333 44.5,605C 58.858,602.884 73.1913,600.884 87.5,599C 94.9592,608.959 102.959,618.459 111.5,627.5 Z"/></g>
<g><path style="opacity:1" fill="#c9cad3" d="M -0.5,663.5 C -0.5,654.167 -0.5,644.833 -0.5,635.5C 12.8597,634.464 26.193,632.964 39.5,631C 51.0176,618.789 65.0176,612.289 81.5,611.5C 77.22,616.4 72.3867,620.733 67,624.5C 65.254,628.327 63.254,631.993 61,635.5C 45.1808,654.653 24.6808,663.986 -0.5,663.5 Z"/></g>
<g><path style="opacity:1" fill="#050506" d="M 563.5,647.5 C 563.5,652.167 563.5,656.833 563.5,661.5C 554.574,659.248 545.574,657.248 536.5,655.5C 532.675,656.164 529.008,657.331 525.5,659C 515.942,660.464 506.775,659.297 498,655.5C 476.401,665.942 453.568,671.775 429.5,673C 422.885,677.281 416.552,681.947 410.5,687C 406.708,688.781 402.708,689.614 398.5,689.5C 387.911,687.346 377.245,685.513 366.5,684C 346.692,674.012 329.025,661.178 313.5,645.5C 313.791,644.351 314.624,643.684 316,643.5C 318.462,644.159 320.962,644.493 323.5,644.5C 338.091,646.605 352.758,647.938 367.5,648.5C 372.324,649.871 377.158,649.538 382,647.5C 382.805,649.901 383.638,649.734 384.5,647C 384.167,646.667 383.833,646.333 383.5,646C 384.549,645.508 385.549,645.674 386.5,646.5C 386.489,645.559 386.989,644.892 388,644.5C 389.957,645.884 390.957,645.217 391,642.5C 394.017,642.781 397.183,642.781 400.5,642.5C 407.509,643.253 414.509,643.753 421.5,644C 441.824,635.506 462.157,627.006 482.5,618.5C 497.161,620.249 511.494,623.416 525.5,628C 538.628,633.73 551.294,640.23 563.5,647.5 Z"/></g>
<g><path style="opacity:1" fill="#3c3c43" d="M 323.5,644.5 C 320.962,644.493 318.462,644.159 316,643.5C 314.624,643.684 313.791,644.351 313.5,645.5C 312.038,644.542 310.705,643.376 309.5,642C 314.419,641.874 319.085,642.708 323.5,644.5 Z"/></g>
<g><path style="opacity:1" fill="#1b1c1e" d="M 400.5,642.5 C 397.183,642.781 394.017,642.781 391,642.5C 390.957,645.217 389.957,645.884 388,644.5C 386.989,644.892 386.489,645.559 386.5,646.5C 385.549,645.674 384.549,645.508 383.5,646C 383.833,646.333 384.167,646.667 384.5,647C 383.638,649.734 382.805,649.901 382,647.5C 377.158,649.538 372.324,649.871 367.5,648.5C 370.187,648.664 372.854,648.497 375.5,648C 379.469,646.016 383.469,644.016 387.5,642C 392.02,641.186 396.354,641.353 400.5,642.5 Z"/></g>
<g><path style="opacity:1" fill="#161719" d="M 111.5,627.5 C 122.415,638.25 134.081,648.083 146.5,657C 143.743,657.584 141.077,657.25 138.5,656C 127.241,651.218 117.241,644.718 108.5,636.5C 110.711,637.037 112.711,638.037 114.5,639.5C 115.167,639.333 115.833,639.167 116.5,639C 114.431,638.676 114.098,637.842 115.5,636.5C 113.659,633.68 112.326,630.68 111.5,627.5 Z"/></g>
<g><path style="opacity:1" fill="#c8c9d3" d="M 330.5,694.5 C 330.586,695.496 330.252,696.329 329.5,697C 331.883,697.065 332.55,697.898 331.5,699.5C 333.647,701.737 335.98,703.737 338.5,705.5C 339.429,706.689 339.762,708.022 339.5,709.5C 334.845,710.007 331.512,708.174 329.5,704C 327.5,703.667 325.5,703.333 323.5,703C 324.167,702.667 324.833,702.333 325.5,702C 324.427,700.406 323.427,698.906 322.5,697.5C 321.304,697.846 321.304,698.346 322.5,699C 321.473,699.513 320.473,700.013 319.5,700.5C 304.502,689.002 291.335,675.668 280,660.5C 271.641,652.805 263.307,645.138 255,637.5C 250.5,631.667 246,625.833 241.5,620C 276.818,637.718 306.485,662.551 330.5,694.5 Z"/></g>
<g><path style="opacity:1" fill="#232326" d="M 12.5,673.5 C 10.5939,674.482 8.5939,675.482 6.5,676.5C 7.55879,678.534 8.55879,680.534 9.5,682.5C 6.41625,680.523 4.41625,677.689 3.5,674C 4.66211,673.173 5.82877,672.34 7,671.5C 8.72154,671.611 8.88821,672.111 7.5,673C 9.13414,673.494 10.8008,673.66 12.5,673.5 Z"/></g>
<g><path style="opacity:1" fill="#525358" d="M 402.5,702.5 C 398.629,702.185 394.962,702.518 391.5,703.5C 390.957,703.44 390.624,703.107 390.5,702.5C 394.649,701.191 398.649,701.191 402.5,702.5 Z"/></g>
<g><path style="opacity:1" fill="#bebec5" d="M 330.5,694.5 C 344.229,711.373 361.229,723.873 381.5,732C 382.833,732.667 382.833,733.333 381.5,734C 358.398,727.283 337.731,716.116 319.5,700.5C 320.473,700.013 321.473,699.513 322.5,699C 321.304,698.346 321.304,697.846 322.5,697.5C 323.427,698.906 324.427,700.406 325.5,702C 324.833,702.333 324.167,702.667 323.5,703C 325.5,703.333 327.5,703.667 329.5,704C 331.512,708.174 334.845,710.007 339.5,709.5C 339.762,708.022 339.429,706.689 338.5,705.5C 335.98,703.737 333.647,701.737 331.5,699.5C 332.55,697.898 331.883,697.065 329.5,697C 330.252,696.329 330.586,695.496 330.5,694.5 Z"/></g>
<g><path style="opacity:1" fill="#c8c8d1" d="M 137.5,756.5 C 128.458,757.372 119.791,759.372 111.5,762.5C 105.413,764.018 99.246,765.351 93,766.5C 88.7305,764.565 85.3972,761.565 83,757.5C 80,753.167 77,748.833 74,744.5C 73.3333,743.833 73.3333,743.167 74,742.5C 80.6031,748.962 88.2698,753.295 97,755.5C 117.132,755.426 135.965,750.592 153.5,741C 162.849,741.005 171.516,743.505 179.5,748.5C 165.183,750.327 151.183,752.994 137.5,756.5 Z"/></g>
<g><path style="opacity:1" fill="#060607" d="M -0.5,742.5 C 21.552,758.903 40.7187,778.237 57,800.5C 61.7764,808.275 66.943,815.775 72.5,823C 87.5052,831.834 102.172,841.167 116.5,851C 129.733,861.232 141.233,873.066 151,886.5C 131.505,899.959 109.672,908.292 85.5,911.5C 83.4855,910.076 81.1522,909.41 78.5,909.5C 73.4248,908.398 69.0914,906.064 65.5,902.5C 65.3893,901.883 65.056,901.383 64.5,901C 53.3255,900.174 42.3255,900.341 31.5,901.5C 20.7904,902.14 10.1237,903.14 -0.5,904.5C -0.5,899.833 -0.5,895.167 -0.5,890.5C 12.9802,877.81 29.1469,872.143 48,873.5C 53.2997,873.33 58.4664,873.996 63.5,875.5C 66.9827,882.854 72.6494,886.687 80.5,887C 89.0801,881.548 97.0801,875.382 104.5,868.5C 69.2973,852.13 41.464,827.463 21,794.5C 16.967,790.132 12.6337,786.132 8,782.5C 5.63042,778.403 2.79708,774.736 -0.5,771.5C -0.5,761.833 -0.5,752.167 -0.5,742.5 Z"/></g>
<g><path style="opacity:1" fill="#232425" d="M 137.5,756.5 C 134.992,758.237 131.992,759.07 128.5,759C 127.833,759.667 127.167,760.333 126.5,761C 121.481,761.411 116.481,761.911 111.5,762.5C 119.791,759.372 128.458,757.372 137.5,756.5 Z"/></g>
<g><path style="opacity:1" fill="#8f8e95" d="M 203.5,774.5 C 201.461,775.578 199.294,776.578 197,777.5C 193.943,776.549 190.777,776.216 187.5,776.5C 192.669,775.619 198.002,774.952 203.5,774.5 Z"/></g>
<g><path style="opacity:1" fill="#cacad4" d="M 294.5,788.5 C 292.167,789.167 289.833,789.833 287.5,790.5C 284.161,790.89 280.827,791.39 277.5,792C 276.402,792.77 276.402,793.603 277.5,794.5C 277.489,796.017 276.823,797.184 275.5,798C 273.073,798.902 270.74,799.736 268.5,800.5C 246.461,792.876 224.295,785.543 202,778.5C 197.399,780.074 193.566,782.908 190.5,787C 182.185,792.39 173.185,794.557 163.5,793.5C 168.083,789.419 173.083,785.919 178.5,783C 180.299,779.017 183.299,776.851 187.5,776.5C 190.777,776.216 193.943,776.549 197,777.5C 199.294,776.578 201.461,775.578 203.5,774.5C 210.686,773.706 217.852,772.706 225,771.5C 243.067,774.768 261.234,777.601 279.5,780C 284.852,782.339 289.852,785.172 294.5,788.5 Z"/></g>
<g><path style="opacity:1" fill="#060607" d="M 563.5,783.5 C 563.5,794.833 563.5,806.167 563.5,817.5C 547.696,825.118 531.029,828.951 513.5,829C 509.684,826.067 509.517,822.901 513,819.5C 522.235,810.935 530.735,801.768 538.5,792C 545.864,786.318 554.197,783.485 563.5,783.5 Z"/></g>
<g><path style="opacity:1" fill="#6f6f71" d="M 294.5,788.5 C 295.289,788.783 295.956,789.283 296.5,790C 293.518,790.498 290.518,790.665 287.5,790.5C 289.833,789.833 292.167,789.167 294.5,788.5 Z"/></g>
<g><path style="opacity:1" fill="#080809" d="M 563.5,935.5 C 563.5,940.5 563.5,945.5 563.5,950.5C 562.448,950.649 561.448,950.483 560.5,950C 530.72,925.615 500.053,902.449 468.5,880.5C 447.41,848.908 420.41,823.741 387.5,805C 381.447,799.454 376.78,792.954 373.5,785.5C 408.262,789.388 437.096,804.721 460,831.5C 467.581,845.42 477.081,857.92 488.5,869C 512.391,884.214 534.558,901.714 555,921.5C 558.11,926.064 560.944,930.731 563.5,935.5 Z"/></g>
<g><path style="opacity:1" fill="#0c0d0d" d="M -0.5,790.5 C 17.0301,807.531 35.0301,824.031 53.5,840C 55.4388,841.432 56.7721,843.265 57.5,845.5C 57.7475,847.858 57.0808,849.858 55.5,851.5C 52.7378,850.62 50.0711,849.454 47.5,848C 30.1814,836.852 14.1814,824.019 -0.5,809.5C -0.5,803.167 -0.5,796.833 -0.5,790.5 Z"/></g>
<g><path style="opacity:1" fill="#bebec6" d="M 277.5,794.5 C 283.599,798.083 289.599,801.917 295.5,806C 304.737,810.232 313.737,814.732 322.5,819.5C 320.926,820.631 319.259,820.798 317.5,820C 301.118,813.378 284.785,806.878 268.5,800.5C 270.74,799.736 273.073,798.902 275.5,798C 276.823,797.184 277.489,796.017 277.5,794.5 Z"/></g>
<g><path style="opacity:1" fill="#1b1b1b" d="M -0.5,821.5 C -0.166667,821.5 0.166667,821.5 0.5,821.5C 0.350549,822.552 0.517215,823.552 1,824.5C 4.33333,827.5 7.66667,830.5 11,833.5C 11,834.833 11,836.167 11,837.5C 13.1734,834.723 13.6734,834.89 12.5,838C 13.4491,838.617 14.2825,838.451 15,837.5C 17.0176,839.35 18.8509,841.35 20.5,843.5C 21.086,843.291 21.586,842.957 22,842.5C 23.8975,847.581 26.7308,852.081 30.5,856C 28.7412,856.798 27.0745,856.631 25.5,855.5C 25.7093,854.914 26.0426,854.414 26.5,854C 24.444,853.689 22.444,853.189 20.5,852.5C 19.5,852.833 18.8333,853.5 18.5,854.5C 19.6405,855.425 19.6405,856.259 18.5,857C 20.3921,857.973 22.3921,858.64 24.5,859C 16.8948,860.311 9.22818,860.811 1.5,860.5C 0.833333,860.5 0.166667,860.5 -0.5,860.5C -0.5,847.5 -0.5,834.5 -0.5,821.5 Z"/></g>
<g><path style="opacity:1" fill="#060606" d="M 521.5,840.5 C 535.516,841.947 549.516,843.613 563.5,845.5C 563.5,854.167 563.5,862.833 563.5,871.5C 544.982,871.103 526.982,867.937 509.5,862C 505.041,860.476 501.041,858.309 497.5,855.5C 496.942,854.21 495.942,853.377 494.5,853C 494.833,852 495.167,851 495.5,850C 493.03,850.8 490.697,850.3 488.5,848.5C 489.167,847.833 489.833,847.167 490.5,846.5C 489.349,845.269 488.183,845.269 487,846.5C 486.691,844.609 487.525,843.275 489.5,842.5C 488.372,841.738 487.205,841.071 486,840.5C 485.149,843.612 483.983,843.946 482.5,841.5C 482.709,840.914 483.043,840.414 483.5,840C 496.166,839.766 508.833,839.933 521.5,840.5 Z"/></g>
<g><path style="opacity:1" fill="#17181a" d="M 521.5,840.5 C 508.833,839.933 496.166,839.766 483.5,840C 483.043,840.414 482.709,840.914 482.5,841.5C 483.983,843.946 485.149,843.612 486,840.5C 487.205,841.071 488.372,841.738 489.5,842.5C 487.525,843.275 486.691,844.609 487,846.5C 488.183,845.269 489.349,845.269 490.5,846.5C 489.833,847.167 489.167,847.833 488.5,848.5C 490.697,850.3 493.03,850.8 495.5,850C 495.167,851 494.833,852 494.5,853C 495.942,853.377 496.942,854.21 497.5,855.5C 491.8,853.9 486.967,850.9 483,846.5C 481.293,844.091 480.46,841.425 480.5,838.5C 494.363,838.313 508.029,838.979 521.5,840.5 Z"/></g>
<g><path style="opacity:1" fill="#c9cad3" d="M -0.5,771.5 C 2.79708,774.736 5.63042,778.403 8,782.5C 12.6337,786.132 16.967,790.132 21,794.5C 41.464,827.463 69.2973,852.13 104.5,868.5C 97.0801,875.382 89.0801,881.548 80.5,887C 72.6494,886.687 66.9827,882.854 63.5,875.5C 58.4664,873.996 53.2997,873.33 48,873.5C 29.1469,872.143 12.9802,877.81 -0.5,890.5C -0.5,880.5 -0.5,870.5 -0.5,860.5C 0.166667,860.5 0.833333,860.5 1.5,860.5C 2.26253,861.268 3.26253,861.768 4.5,862C 15.6242,863.406 26.2908,861.906 36.5,857.5C 25.7572,844.151 13.7572,832.151 0.5,821.5C 0.166667,821.5 -0.166667,821.5 -0.5,821.5C -0.5,817.5 -0.5,813.5 -0.5,809.5C 14.1814,824.019 30.1814,836.852 47.5,848C 50.0711,849.454 52.7378,850.62 55.5,851.5C 56.4959,851.586 57.3292,851.252 58,850.5C 58.7796,848.613 58.6129,846.946 57.5,845.5C 56.7721,843.265 55.4388,841.432 53.5,840C 35.0301,824.031 17.0301,807.531 -0.5,790.5C -0.5,784.167 -0.5,777.833 -0.5,771.5 Z"/></g>
<g><path style="opacity:1" fill="#85868a" d="M 57.5,845.5 C 58.6129,846.946 58.7796,848.613 58,850.5C 57.3292,851.252 56.4959,851.586 55.5,851.5C 57.0808,849.858 57.7475,847.858 57.5,845.5 Z"/></g>
<g><path style="opacity:1" fill="#28282a" d="M 0.5,821.5 C 13.7572,832.151 25.7572,844.151 36.5,857.5C 26.2908,861.906 15.6242,863.406 4.5,862C 3.26253,861.768 2.26253,861.268 1.5,860.5C 9.22818,860.811 16.8948,860.311 24.5,859C 22.3921,858.64 20.3921,857.973 18.5,857C 19.6405,856.259 19.6405,855.425 18.5,854.5C 18.8333,853.5 19.5,852.833 20.5,852.5C 22.444,853.189 24.444,853.689 26.5,854C 26.0426,854.414 25.7093,854.914 25.5,855.5C 27.0745,856.631 28.7412,856.798 30.5,856C 26.7308,852.081 23.8975,847.581 22,842.5C 21.586,842.957 21.086,843.291 20.5,843.5C 18.8509,841.35 17.0176,839.35 15,837.5C 14.2825,838.451 13.4491,838.617 12.5,838C 13.6734,834.89 13.1734,834.723 11,837.5C 11,836.167 11,834.833 11,833.5C 7.66667,830.5 4.33333,827.5 1,824.5C 0.517215,823.552 0.350549,822.552 0.5,821.5 Z"/></g>
<g><path style="opacity:1" fill="#c9cad3" d="M -0.5,367.5 C 9.05256,374.608 16.2192,383.608 21,394.5C 29.3473,427.156 46.8473,453.656 73.5,474C 90.9417,483.113 107.608,493.447 123.5,505C 145.335,522.17 162.835,543.004 176,567.5C 186.067,576.898 195.4,586.898 204,597.5C 210.777,608.052 216.777,619.052 222,630.5C 242.833,651.333 263.667,672.167 284.5,693C 295.705,695.921 303.705,702.588 308.5,713C 326.97,724.321 346.636,732.821 367.5,738.5C 368.842,739.793 370.509,740.626 372.5,741C 381.422,743.439 390.422,745.272 399.5,746.5C 405.319,747.653 411.319,747.819 417.5,747C 446.646,742.88 475.313,736.547 503.5,728C 523.039,719.726 543.039,712.892 563.5,707.5C 563.5,732.833 563.5,758.167 563.5,783.5C 554.197,783.485 545.864,786.318 538.5,792C 530.735,801.768 522.235,810.935 513,819.5C 509.517,822.901 509.684,826.067 513.5,829C 531.029,828.951 547.696,825.118 563.5,817.5C 563.5,826.833 563.5,836.167 563.5,845.5C 549.516,843.613 535.516,841.947 521.5,840.5C 508.029,838.979 494.363,838.313 480.5,838.5C 480.46,841.425 481.293,844.091 483,846.5C 486.967,850.9 491.8,853.9 497.5,855.5C 501.041,858.309 505.041,860.476 509.5,862C 526.982,867.937 544.982,871.103 563.5,871.5C 563.5,876.167 563.5,880.833 563.5,885.5C 557.013,881.756 550.347,878.256 543.5,875C 532.257,872.489 520.924,871.989 509.5,873.5C 526.937,888.611 544.937,902.944 563.5,916.5C 563.5,922.833 563.5,929.167 563.5,935.5C 560.944,930.731 558.11,926.064 555,921.5C 534.558,901.714 512.391,884.214 488.5,869C 477.081,857.92 467.581,845.42 460,831.5C 437.096,804.721 408.262,789.388 373.5,785.5C 376.78,792.954 381.447,799.454 387.5,805C 420.41,823.741 447.41,848.908 468.5,880.5C 500.053,902.449 530.72,925.615 560.5,950C 561.448,950.483 562.448,950.649 563.5,950.5C 563.5,960.167 563.5,969.833 563.5,979.5C 549.846,957.018 531.18,939.852 507.5,928C 501.482,925.55 495.482,923.55 489.5,922C 502.688,951.909 520.688,978.409 543.5,1001.5C 537.833,1001.5 532.167,1001.5 526.5,1001.5C 504.401,955.532 471.401,919.365 427.5,893C 402.7,879.747 377.7,867.08 352.5,855C 349.468,851.069 345.634,848.235 341,846.5C 340.312,845.668 340.479,845.002 341.5,844.5C 346.558,845.863 351.224,848.029 355.5,851C 384.113,855.153 412.113,861.82 439.5,871C 441.917,872.626 444.417,874.126 447,875.5C 447.315,874.092 446.982,872.759 446,871.5C 429.873,850.368 409.873,834.035 386,822.5C 380.58,815.333 375.913,807.667 372,799.5C 359.702,782.2 344.535,768.033 326.5,757C 308.564,739.925 293.397,720.758 281,699.5C 262.196,675.527 240.363,654.86 215.5,637.5C 215.167,637.833 214.833,638.167 214.5,638.5C 226.012,657.535 238.012,676.201 250.5,694.5C 249.833,694.5 249.167,694.5 248.5,694.5C 237.352,680.904 226.185,667.237 215,653.5C 209.161,644.492 203.828,635.159 199,625.5C 186.45,605.615 170.45,588.948 151,575.5C 150.846,580.569 151.513,585.569 153,590.5C 154.821,595.452 156.488,600.452 158,605.5C 177.59,641.022 199.924,674.689 225,706.5C 234.833,717.667 245.333,728.167 256.5,738C 262.221,742.721 268.221,747.054 274.5,751C 279.018,751.33 281.685,749.163 282.5,744.5C 283.302,743.048 283.802,741.382 284,739.5C 284.726,742.285 286.226,742.952 288.5,741.5C 297.522,753.03 306.188,764.863 314.5,777C 315.971,780.109 317.305,783.276 318.5,786.5C 318.167,786.833 317.833,787.167 317.5,787.5C 280.869,766.517 244.536,745.017 208.5,723C 206.833,722.333 205.167,722.333 203.5,723C 186.719,729.075 169.386,732.242 151.5,732.5C 111.609,729.187 73.2761,719.687 36.5,704C 25.5682,699.208 16.5682,692.041 9.5,682.5C 8.55879,680.534 7.55879,678.534 6.5,676.5C 8.5939,675.482 10.5939,674.482 12.5,673.5C 30.1911,669.661 47.1911,663.828 63.5,656C 76.9929,649.756 89.3262,641.756 100.5,632C 101.5,631.333 102.5,631.333 103.5,632C 105.037,633.707 106.704,635.207 108.5,636.5C 117.241,644.718 127.241,651.218 138.5,656C 141.077,657.25 143.743,657.584 146.5,657C 134.081,648.083 122.415,638.25 111.5,627.5C 102.959,618.459 94.9592,608.959 87.5,599C 73.1913,600.884 58.858,602.884 44.5,605C 38.1667,605.333 31.8333,605.667 25.5,606C 24.1667,606.667 22.8333,607.333 21.5,608C 14.1602,608.372 6.82686,608.205 -0.5,607.5C -0.5,593.5 -0.5,579.5 -0.5,565.5C 5.17539,563.328 10.5087,560.495 15.5,557C 24.8545,548.279 33.5211,538.946 41.5,529C 46.8385,523.672 53.1718,520.005 60.5,518C 71.3562,516.811 82.0229,517.644 92.5,520.5C 88.8062,524.86 84.8062,528.86 80.5,532.5C 87.5261,533.506 94.5261,534.673 101.5,536C 126.508,540.844 148.175,551.344 166.5,567.5C 163.747,562.992 160.747,558.659 157.5,554.5C 133.909,527.188 104.575,508.688 69.5,499C 52.3653,489.094 34.3653,481.427 15.5,476C 10.1771,475.501 4.84372,475.334 -0.5,475.5C -0.5,466.833 -0.5,458.167 -0.5,449.5C 4.1924,455.329 10.1924,459.496 17.5,462C 30.0074,465.09 41.0074,471.09 50.5,480C 53.5314,480.495 56.5314,480.329 59.5,479.5C 59.7022,477.011 59.2022,474.677 58,472.5C 50.5996,464.047 42.0996,456.88 32.5,451C 20.2201,439.281 9.22014,426.447 -0.5,412.5C -0.5,397.5 -0.5,382.5 -0.5,367.5 Z"/></g>
<g><path style="opacity:1" fill="#070708" d="M 489.5,797.5 C 498.691,796.969 507.691,797.969 516.5,800.5C 507.754,815.412 495.421,826.246 479.5,833C 477.833,833.667 476.167,833.667 474.5,833C 462.821,826.654 453.821,817.654 447.5,806C 447.645,805.228 447.978,804.561 448.5,804C 451.405,802.714 454.405,801.714 457.5,801C 467.468,799.91 477.468,799.244 487.5,799C 488.416,798.722 489.082,798.222 489.5,797.5 Z"/></g>
<g><path style="opacity:1" fill="#6d6e73" d="M 537.5,753.5 C 535.095,754.768 532.428,755.435 529.5,755.5C 531.838,753.96 534.505,753.294 537.5,753.5 Z"/></g>
<g><path style="opacity:1" fill="#878790" d="M 556.5,750.5 C 557.043,750.56 557.376,750.893 557.5,751.5C 551.957,753.125 546.29,753.792 540.5,753.5C 545.856,752.645 551.189,751.645 556.5,750.5 Z"/></g>
<g><path style="opacity:1" fill="#070708" d="M 556.5,750.5 C 551.189,751.645 545.856,752.645 540.5,753.5C 539.5,753.5 538.5,753.5 537.5,753.5C 534.505,753.294 531.838,753.96 529.5,755.5C 517.607,757.778 506.607,762.278 496.5,769C 489.094,780.538 478.428,786.038 464.5,785.5C 440.022,783.852 415.688,781.019 391.5,777C 383.996,772.413 376.329,768.08 368.5,764C 353.956,764.728 342.622,759.061 334.5,747C 377.788,757.855 421.455,759.188 465.5,751C 477.74,747.711 489.407,743.045 500.5,737C 521.424,733.066 540.09,737.566 556.5,750.5 Z"/></g>
<g><path style="opacity:1" fill="#1d1e20" d="M 367.5,738.5 C 372.387,739.055 377.22,739.055 382,738.5C 383.762,738.944 383.595,739.444 381.5,740C 382.833,741 384.167,742 385.5,743C 390.155,743.499 394.821,743.666 399.5,743.5C 399.5,744.5 399.5,745.5 399.5,746.5C 390.422,745.272 381.422,743.439 372.5,741C 370.509,740.626 368.842,739.793 367.5,738.5 Z"/></g>
<g><path style="opacity:1" fill="#1c1c20" d="M 113.5,703.5 C 117.266,703.715 120.6,705.049 123.5,707.5C 124.293,707.069 125.127,706.735 126,706.5C 134.424,708.121 142.924,709.121 151.5,709.5C 140.431,711.326 129.431,710.493 118.5,707C 116.416,706.303 114.749,705.136 113.5,703.5 Z"/></g>
<g><path style="opacity:1" fill="#b0b0b4" d="M 248.5,694.5 C 249.167,694.5 249.833,694.5 250.5,694.5C 262.916,710.31 275.583,725.977 288.5,741.5C 286.226,742.952 284.726,742.285 284,739.5C 283.802,741.382 283.302,743.048 282.5,744.5C 282.911,740.537 282.078,736.87 280,733.5C 273,725.5 266,717.5 259,709.5C 255.255,704.602 251.755,699.602 248.5,694.5 Z"/></g>
<g><path style="opacity:1" fill="#080809" d="M 151.5,709.5 C 142.924,709.121 134.424,708.121 126,706.5C 125.127,706.735 124.293,707.069 123.5,707.5C 120.6,705.049 117.266,703.715 113.5,703.5C 108.389,701.22 104.389,697.72 101.5,693C 101.759,691.739 102.426,690.739 103.5,690C 110.978,684.767 119.311,682.1 128.5,682C 120.46,678.726 112.126,677.726 103.5,679C 99.1189,681.184 95.1189,683.85 91.5,687C 76.2635,691.274 60.9302,691.607 45.5,688C 40.8878,686.361 36.5545,684.194 32.5,681.5C 36.5298,676.64 41.5298,673.14 47.5,671C 57.245,670.356 66.9116,670.689 76.5,672C 86.6159,667.196 95.7825,661.029 104,653.5C 131.332,671.002 158.999,688.002 187,704.5C 189.793,709.26 188.626,712.427 183.5,714C 175.195,714.592 167.195,713.258 159.5,710C 156.854,709.503 154.187,709.336 151.5,709.5 Z"/></g>
<g><path style="opacity:1" fill="#0a0a0b" d="M 145.5,641.5 C 152.968,643.226 160.301,645.393 167.5,648C 191.251,672.026 212.251,698.193 230.5,726.5C 229.635,727.583 228.635,727.749 227.5,727C 194.425,706.592 167.258,680.092 146,647.5C 145.505,645.527 145.338,643.527 145.5,641.5 Z"/></g>
<g><path style="opacity:1" fill="#070808" d="M 248.5,694.5 C 251.755,699.602 255.255,704.602 259,709.5C 266,717.5 273,725.5 280,733.5C 282.078,736.87 282.911,740.537 282.5,744.5C 281.685,749.163 279.018,751.33 274.5,751C 268.221,747.054 262.221,742.721 256.5,738C 245.333,728.167 234.833,717.667 225,706.5C 199.924,674.689 177.59,641.022 158,605.5C 156.488,600.452 154.821,595.452 153,590.5C 151.513,585.569 150.846,580.569 151,575.5C 170.45,588.948 186.45,605.615 199,625.5C 203.828,635.159 209.161,644.492 215,653.5C 226.185,667.237 237.352,680.904 248.5,694.5 Z"/></g>
<g><path style="opacity:1" fill="#070708" d="M 60.5,544.5 C 67.2305,544.226 73.8972,544.726 80.5,546C 83.1152,546.795 85.1152,548.295 86.5,550.5C 80.7102,560.968 73.0436,569.968 63.5,577.5C 63.8333,577.833 64.1667,578.167 64.5,578.5C 73.1629,574.679 80.4962,569.179 86.5,562C 91.9946,559.817 97.6612,559.151 103.5,560C 109.066,561.127 114.399,562.794 119.5,565C 138.507,581.513 149.174,602.347 151.5,627.5C 139.989,624.579 129.322,619.745 119.5,613C 114,608.167 108.5,603.333 103,598.5C 98.8056,593.94 94.9723,589.106 91.5,584C 85.8723,585.089 80.2057,586.422 74.5,588C 66.8869,588.944 59.3869,588.444 52,586.5C 35.7772,593.562 19.2772,594.228 2.5,588.5C 1.36912,586.926 1.20245,585.259 2,583.5C 5.63135,578.037 9.79801,573.037 14.5,568.5C 30.5596,561.745 45.8929,553.745 60.5,544.5 Z"/></g>
<g><path style="opacity:1" fill="#09090a" d="M 563.5,885.5 C 563.5,895.833 563.5,906.167 563.5,916.5C 544.937,902.944 526.937,888.611 509.5,873.5C 520.924,871.989 532.257,872.489 543.5,875C 550.347,878.256 557.013,881.756 563.5,885.5 Z"/></g>
<g><path style="opacity:1" fill="#46454b" d="M 31.5,901.5 C 42.3255,900.341 53.3255,900.174 64.5,901C 65.056,901.383 65.3893,901.883 65.5,902.5C 54.2175,901.543 42.8841,901.21 31.5,901.5 Z"/></g>
<g><path style="opacity:1" fill="#cacad4" d="M -0.5,703.5 C 4.21435,708.718 9.21435,713.885 14.5,719C 38.5319,735.7 58.5319,756.366 74.5,781C 79.8193,782.657 85.1526,784.323 90.5,786C 112.469,793.652 128.303,807.819 138,828.5C 134.201,823.699 130.034,819.199 125.5,815C 105.283,801.89 83.6167,792.057 60.5,785.5C 60.4699,794.248 63.8032,801.414 70.5,807C 76.2703,808.367 81.6036,810.7 86.5,814C 114.46,832.796 140.127,854.296 163.5,878.5C 166.341,867.338 167.174,856.005 166,844.5C 164.374,840.433 164.374,836.433 166,832.5C 175.677,820.575 187.511,811.408 201.5,805C 204.738,803.632 208.072,803.299 211.5,804C 233.989,814.381 257.656,819.381 282.5,819C 305.806,843.64 329.806,867.64 354.5,891C 367.251,891.846 379.584,894.513 391.5,899C 419.16,911.338 444.16,927.672 466.5,948C 468.446,951.39 470.279,954.89 472,958.5C 488.35,972.02 503.85,986.354 518.5,1001.5C 509.5,1001.5 500.5,1001.5 491.5,1001.5C 466.088,955.264 428.421,923.264 378.5,905.5C 378.167,905.833 377.833,906.167 377.5,906.5C 379.412,910.66 381.579,914.66 384,918.5C 411.946,941.446 438.279,966.112 463,992.5C 465.41,995.397 467.577,998.397 469.5,1001.5C 465.167,1001.5 460.833,1001.5 456.5,1001.5C 444.171,988.836 430.838,977.336 416.5,967C 398.581,951.353 380.581,935.686 362.5,920C 350.032,912.543 339.032,903.21 329.5,892C 305.205,888.212 281.205,889.545 257.5,896C 237.402,902.697 221.402,914.697 209.5,932C 204.219,934.089 198.719,935.256 193,935.5C 172.921,932.703 152.754,931.87 132.5,933C 112.448,935.404 94.1143,942.237 77.5,953.5C 76.1667,954.167 76.1667,954.833 77.5,955.5C 85.9572,958.458 94.6239,959.125 103.5,957.5C 112.228,960.579 121.228,962.245 130.5,962.5C 137.321,963.655 144.321,963.821 151.5,963C 158.859,962.557 165.859,961.057 172.5,958.5C 180.406,956.388 188.406,954.555 196.5,953C 208.841,952.74 221.174,952.74 233.5,953C 241.04,950.897 248.373,948.23 255.5,945C 263.128,939.04 270.462,932.707 277.5,926C 298.742,915.307 320.742,913.64 343.5,921C 348.965,923.232 353.965,926.232 358.5,930C 379.663,955.996 402.996,979.829 428.5,1001.5C 425.5,1001.5 422.5,1001.5 419.5,1001.5C 408.052,992.256 396.719,982.756 385.5,973C 374.378,962.551 364.045,951.551 354.5,940C 349.698,936.762 344.698,933.762 339.5,931C 332.422,927.764 325.089,926.598 317.5,927.5C 326.221,940.059 335.888,951.893 346.5,963C 366.35,973.368 384.35,986.201 400.5,1001.5C 396.5,1001.5 392.5,1001.5 388.5,1001.5C 387.118,998.606 385.118,996.106 382.5,994C 374.332,987.916 365.332,983.416 355.5,980.5C 348.416,983.921 341.25,987.255 334,990.5C 311.75,979.415 288.25,975.582 263.5,979C 245.087,974.32 226.42,971.486 207.5,970.5C 203.511,970.116 199.845,970.783 196.5,972.5C 183.867,974.899 173.7,981.232 166,991.5C 163.78,994.54 162.28,997.873 161.5,1001.5C 157.833,1001.5 154.167,1001.5 150.5,1001.5C 151.969,996.618 152.969,991.618 153.5,986.5C 144.592,987.078 135.926,985.912 127.5,983C 123.655,981.58 120.322,979.413 117.5,976.5C 114.244,978.297 110.911,979.797 107.5,981C 99.1828,980.649 90.8495,980.649 82.5,981C 74.8966,988.448 66.8966,995.281 58.5,1001.5C 55.1667,1001.5 51.8333,1001.5 48.5,1001.5C 37.5885,989.416 26.4219,977.416 15,965.5C 15.3916,970.521 15.225,975.521 14.5,980.5C 9.20082,977.195 4.20082,973.528 -0.5,969.5C -0.5,959.167 -0.5,948.833 -0.5,938.5C 16.5869,952.416 32.9202,967.25 48.5,983C 57.3424,984.497 64.8424,981.997 71,975.5C 71.4828,974.552 71.6495,973.552 71.5,972.5C 40.7578,964.814 16.7578,947.814 -0.5,921.5C -0.5,915.833 -0.5,910.167 -0.5,904.5C 10.1237,903.14 20.7904,902.14 31.5,901.5C 42.8841,901.21 54.2175,901.543 65.5,902.5C 69.0914,906.064 73.4248,908.398 78.5,909.5C 80.5145,910.924 82.8478,911.59 85.5,911.5C 109.672,908.292 131.505,899.959 151,886.5C 141.233,873.066 129.733,861.232 116.5,851C 102.172,841.167 87.5052,831.834 72.5,823C 66.943,815.775 61.7764,808.275 57,800.5C 40.7187,778.237 21.552,758.903 -0.5,742.5C -0.5,729.5 -0.5,716.5 -0.5,703.5 Z"/></g>
<g><path style="opacity:1" fill="#080809" d="M 491.5,1001.5 C 484.167,1001.5 476.833,1001.5 469.5,1001.5C 467.577,998.397 465.41,995.397 463,992.5C 438.279,966.112 411.946,941.446 384,918.5C 381.579,914.66 379.412,910.66 377.5,906.5C 377.833,906.167 378.167,905.833 378.5,905.5C 428.421,923.264 466.088,955.264 491.5,1001.5 Z"/></g>
<g><path style="opacity:1" fill="#515151" d="M 78.5,909.5 C 81.1522,909.41 83.4855,910.076 85.5,911.5C 82.8478,911.59 80.5145,910.924 78.5,909.5 Z"/></g>
<g><path style="opacity:1" fill="#070707" d="M 456.5,1001.5 C 447.167,1001.5 437.833,1001.5 428.5,1001.5C 402.996,979.829 379.663,955.996 358.5,930C 353.965,926.232 348.965,923.232 343.5,921C 320.742,913.64 298.742,915.307 277.5,926C 270.462,932.707 263.128,939.04 255.5,945C 248.373,948.23 241.04,950.897 233.5,953C 221.174,952.74 208.841,952.74 196.5,953C 188.406,954.555 180.406,956.388 172.5,958.5C 165.859,961.057 158.859,962.557 151.5,963C 144.321,963.821 137.321,963.655 130.5,962.5C 121.228,962.245 112.228,960.579 103.5,957.5C 94.6239,959.125 85.9572,958.458 77.5,955.5C 76.1667,954.833 76.1667,954.167 77.5,953.5C 94.1143,942.237 112.448,935.404 132.5,933C 152.754,931.87 172.921,932.703 193,935.5C 198.719,935.256 204.219,934.089 209.5,932C 221.402,914.697 237.402,902.697 257.5,896C 281.205,889.545 305.205,888.212 329.5,892C 339.032,903.21 350.032,912.543 362.5,920C 380.581,935.686 398.581,951.353 416.5,967C 430.838,977.336 444.171,988.836 456.5,1001.5 Z"/></g>
<g><path style="opacity:1" fill="#070708" d="M 245.5,848.5 C 251.69,847.857 257.69,846.857 263.5,845.5C 279.664,846.666 294.331,852 307.5,861.5C 308.833,862.167 308.833,862.833 307.5,863.5C 277.485,856.218 250.485,862.051 226.5,881C 219.468,887.697 212.802,894.697 206.5,902C 190.791,913.679 173.125,919.346 153.5,919C 147.746,917.088 142.412,914.421 137.5,911C 149.291,906.859 159.124,900.025 167,890.5C 175.563,877.05 180.896,862.383 183,846.5C 184.396,842.208 186.896,838.708 190.5,836C 196.06,832.375 201.06,828.042 205.5,823C 221.532,820.954 237.032,822.787 252,828.5C 252.089,830.113 251.255,831.28 249.5,832C 232.126,839.437 217.626,850.603 206,865.5C 205.312,866.332 205.479,866.998 206.5,867.5C 217.78,857.693 230.78,851.36 245.5,848.5 Z"/></g>
<g><path style="opacity:1" fill="#4a4a4d" d="M 263.5,845.5 C 257.69,846.857 251.69,847.857 245.5,848.5C 251.18,846.4 257.18,845.4 263.5,845.5 Z"/></g>
<g><path style="opacity:1" fill="#09090a" d="M 18.5,912.5 C 25.3219,915.743 31.6552,919.743 37.5,924.5C 52.5108,919.858 67.8442,918.358 83.5,920C 83.8187,927.705 80.8187,934.038 74.5,939C 69.5167,941.99 64.1834,944.157 58.5,945.5C 39.7174,941.046 26.384,930.046 18.5,912.5 Z"/></g>
<g><path style="opacity:1" fill="#0a0a0b" d="M 419.5,1001.5 C 413.167,1001.5 406.833,1001.5 400.5,1001.5C 384.35,986.201 366.35,973.368 346.5,963C 335.888,951.893 326.221,940.059 317.5,927.5C 325.089,926.598 332.422,927.764 339.5,931C 344.698,933.762 349.698,936.762 354.5,940C 364.045,951.551 374.378,962.551 385.5,973C 396.719,982.756 408.052,992.256 419.5,1001.5 Z"/></g>
<g><path style="opacity:1" fill="#060607" d="M 563.5,979.5 C 563.5,986.167 563.5,992.833 563.5,999.5C 562.167,999.5 561.5,1000.17 561.5,1001.5C 555.5,1001.5 549.5,1001.5 543.5,1001.5C 520.688,978.409 502.688,951.909 489.5,922C 495.482,923.55 501.482,925.55 507.5,928C 531.18,939.852 549.846,957.018 563.5,979.5 Z"/></g>
<g><path style="opacity:1" fill="#0d0d0e" d="M -0.5,921.5 C 16.7578,947.814 40.7578,964.814 71.5,972.5C 71.6495,973.552 71.4828,974.552 71,975.5C 64.8424,981.997 57.3424,984.497 48.5,983C 32.9202,967.25 16.5869,952.416 -0.5,938.5C -0.5,932.833 -0.5,927.167 -0.5,921.5 Z"/></g>
<g><path style="opacity:1" fill="#0a0a0c" d="M 291.5,946.5 C 311.737,948.072 328.57,956.406 342,971.5C 342.667,972.5 342.667,973.5 342,974.5C 337.909,978.305 333.076,979.472 327.5,978C 309.731,971.283 292.064,964.283 274.5,957C 273.289,956.107 273.289,955.274 274.5,954.5C 280.348,952.075 286.014,949.408 291.5,946.5 Z"/></g>
<g><path style="opacity:1" fill="#232326" d="M 172.5,958.5 C 165.859,961.057 158.859,962.557 151.5,963C 144.321,963.821 137.321,963.655 130.5,962.5C 139.541,962.717 148.541,962.217 157.5,961C 161.397,960.7 164.897,959.533 168,957.5C 169.356,958.38 170.856,958.714 172.5,958.5 Z"/></g>
<g><path style="opacity:1" fill="#494a4f" d="M 207.5,970.5 C 204.026,971.525 200.36,972.192 196.5,972.5C 199.845,970.783 203.511,970.116 207.5,970.5 Z"/></g>
<g><path style="opacity:1" fill="#040404" d="M 207.5,970.5 C 226.42,971.486 245.087,974.32 263.5,979C 288.25,975.582 311.75,979.415 334,990.5C 341.25,987.255 348.416,983.921 355.5,980.5C 365.332,983.416 374.332,987.916 382.5,994C 385.118,996.106 387.118,998.606 388.5,1001.5C 312.833,1001.5 237.167,1001.5 161.5,1001.5C 162.28,997.873 163.78,994.54 166,991.5C 173.7,981.232 183.867,974.899 196.5,972.5C 200.36,972.192 204.026,971.525 207.5,970.5 Z"/></g>
<g><path style="opacity:1" fill="#1f1f1f" d="M 48.5,1001.5 C 32.1667,1001.5 15.8333,1001.5 -0.5,1001.5C -0.5,990.833 -0.5,980.167 -0.5,969.5C 4.20082,973.528 9.20082,977.195 14.5,980.5C 15.225,975.521 15.3916,970.521 15,965.5C 26.4219,977.416 37.5885,989.416 48.5,1001.5 Z"/></g>
<g><path style="opacity:1" fill="#050506" d="M 150.5,1001.5 C 119.833,1001.5 89.1667,1001.5 58.5,1001.5C 66.8966,995.281 74.8966,988.448 82.5,981C 90.8495,980.649 99.1828,980.649 107.5,981C 110.911,979.797 114.244,978.297 117.5,976.5C 120.322,979.413 123.655,981.58 127.5,983C 135.926,985.912 144.592,987.078 153.5,986.5C 152.969,991.618 151.969,996.618 150.5,1001.5 Z"/></g>
<g><path style="opacity:1" fill="#656567" d="M 563.5,999.5 C 563.5,1000.17 563.5,1000.83 563.5,1001.5C 562.833,1001.5 562.167,1001.5 561.5,1001.5C 561.5,1000.17 562.167,999.5 563.5,999.5 Z"/></g>
</svg>
