<?xml version="1.0" encoding="UTF-8"?>
<!DOCTYPE svg PUBLIC "-//W3C//DTD SVG 1.1//EN" "http://www.w3.org/Graphics/SVG/1.1/DTD/svg11.dtd">
<svg xmlns="http://www.w3.org/2000/svg" version="1.1" width="564px" height="1002px" style="shape-rendering:geometricPrecision; text-rendering:geometricPrecision; image-rendering:optimizeQuality; fill-rule:evenodd; clip-rule:evenodd" xmlns:xlink="http://www.w3.org/1999/xlink">
<g><path style="opacity:1" fill="#e9e5eb" d="M -0.5,-0.5 C 16.1667,-0.5 32.8333,-0.5 49.5,-0.5C 47.3533,1.46955 45.02,3.30288 42.5,5C 28.8313,12.1699 14.498,17.6699 -0.5,21.5C -0.5,14.1667 -0.5,6.83333 -0.5,-0.5 Z"/></g>
<g><path style="opacity:1" fill="#838695" d="M 49.5,-0.5 C 65.8333,-0.5 82.1667,-0.5 98.5,-0.5C 89.0068,8.82667 79.6735,18.3267 70.5,28C 49.6788,46.6444 26.0122,60.4777 -0.5,69.5C -0.5,53.5 -0.5,37.5 -0.5,21.5C 14.498,17.6699 28.8313,12.1699 42.5,5C 45.02,3.30288 47.3533,1.46955 49.5,-0.5 Z"/></g>
<g><path style="opacity:1" fill="#eae5eb" d="M 98.5,-0.5 C 134.833,-0.5 171.167,-0.5 207.5,-0.5C 215.133,6.65617 223.8,12.3228 233.5,16.5C 240.427,19.8653 247.76,22.3653 255.5,24C 274.164,24.4999 292.83,24.6666 311.5,24.5C 325.996,25.5508 340.663,26.3842 355.5,27C 374.231,29.8678 391.231,36.8678 406.5,48C 417.833,57.3333 429.167,66.6667 440.5,76C 443.222,78.3578 446.222,80.1911 449.5,81.5C 472.805,101.194 498.139,103.86 525.5,89.5C 537.728,83.723 550.394,79.0563 563.5,75.5C 563.5,97.8333 563.5,120.167 563.5,142.5C 558.139,144.338 552.806,146.171 547.5,148C 533.396,155.052 519.396,162.052 505.5,169C 491.348,175.259 477.348,174.926 463.5,168C 457.658,164.246 451.991,160.246 446.5,156C 429.448,137.614 411.115,120.614 391.5,105C 380.181,97.672 367.848,93.172 354.5,91.5C 345.727,89.7894 336.727,89.1228 327.5,89.5C 324.833,89.5 322.167,89.5 319.5,89.5C 296.135,89.1385 272.802,88.3051 249.5,87C 237.03,83.0974 225.364,77.5974 214.5,70.5C 200.389,59.6045 185.722,49.4378 170.5,40C 153.36,31.5919 137.027,32.9252 121.5,44C 101.559,61.9392 82.2258,80.6058 63.5,100C 49.1876,111.156 34.5209,121.823 19.5,132C 11.9324,138.066 5.26569,144.9 -0.5,152.5C -0.5,124.833 -0.5,97.1667 -0.5,69.5C 26.0122,60.4777 49.6788,46.6444 70.5,28C 79.6735,18.3267 89.0068,8.82667 98.5,-0.5 Z"/></g>
<g><path style="opacity:1" fill="#848796" d="M 207.5,-0.5 C 275.5,-0.5 343.5,-0.5 411.5,-0.5C 430.355,10.7631 449.689,21.2631 469.5,31C 483.061,36.1502 497.061,37.8168 511.5,36C 528.79,32.8435 546.123,30.0101 563.5,27.5C 563.5,43.5 563.5,59.5 563.5,75.5C 550.394,79.0563 537.728,83.723 525.5,89.5C 525.265,88.9033 524.765,88.5699 524,88.5C 520.2,89.1563 516.7,90.4897 513.5,92.5C 511.553,91.723 509.72,90.723 508,89.5C 506.274,90.6479 506.441,91.8145 508.5,93C 496.307,98.4983 484.807,97.3317 474,89.5C 473.5,89.6667 473,89.8333 472.5,90C 473.5,90.8333 474.5,91.6667 475.5,92.5C 472.843,93.015 470.177,92.515 467.5,91C 468.167,90.6667 468.833,90.3333 469.5,90C 463.199,88.7186 457.199,85.7186 451.5,81C 453.881,79.7535 453.547,79.4202 450.5,80C 449.944,80.3826 449.611,80.8826 449.5,81.5C 446.222,80.1911 443.222,78.3578 440.5,76C 429.167,66.6667 417.833,57.3333 406.5,48C 391.231,36.8678 374.231,29.8678 355.5,27C 340.663,26.3842 325.996,25.5508 311.5,24.5C 315.182,24.6653 318.848,24.4986 322.5,24C 300.18,22.9308 277.847,22.2642 255.5,22C 254.167,21 254.167,20 255.5,19C 251.452,18.5661 247.452,18.5661 243.5,19C 243.833,18.6667 244.167,18.3333 244.5,18C 242.131,17.4641 240.131,16.2974 238.5,14.5C 239.485,12.9017 239.651,11.235 239,9.5C 237.426,12.1518 235.592,14.4851 233.5,16.5C 223.8,12.3228 215.133,6.65617 207.5,-0.5 Z"/></g>
<g><path style="opacity:1" fill="#eae5eb" d="M 411.5,-0.5 C 462.167,-0.5 512.833,-0.5 563.5,-0.5C 563.5,8.83333 563.5,18.1667 563.5,27.5C 546.123,30.0101 528.79,32.8435 511.5,36C 497.061,37.8168 483.061,36.1502 469.5,31C 449.689,21.2631 430.355,10.7631 411.5,-0.5 Z"/></g>
<g><path style="opacity:1" fill="#7c7e8a" d="M 311.5,24.5 C 292.83,24.6666 274.164,24.4999 255.5,24C 247.76,22.3653 240.427,19.8653 233.5,16.5C 235.592,14.4851 237.426,12.1518 239,9.5C 239.651,11.235 239.485,12.9017 238.5,14.5C 240.131,16.2974 242.131,17.4641 244.5,18C 244.167,18.3333 243.833,18.6667 243.5,19C 247.452,18.5661 251.452,18.5661 255.5,19C 254.167,20 254.167,21 255.5,22C 277.847,22.2642 300.18,22.9308 322.5,24C 318.848,24.4986 315.182,24.6653 311.5,24.5 Z"/></g>
<g><path style="opacity:1" fill="#838695" d="M 214.5,70.5 C 214.511,72.0174 215.177,73.1841 216.5,74C 222.566,76.6919 227.9,80.3586 232.5,85C 238.408,85.977 244.408,87.3104 250.5,89C 252.991,89.6259 252.991,90.4593 250.5,91.5C 251,91.8333 251.5,92.1667 252,92.5C 253.993,90.2544 256.493,89.2544 259.5,89.5C 279.657,90.7913 299.657,90.7913 319.5,89.5C 322.167,89.5 324.833,89.5 327.5,89.5C 336.317,90.6153 345.317,91.282 354.5,91.5C 367.848,93.172 380.181,97.672 391.5,105C 411.115,120.614 429.448,137.614 446.5,156C 451.991,160.246 457.658,164.246 463.5,168C 477.348,174.926 491.348,175.259 505.5,169C 519.396,162.052 533.396,155.052 547.5,148C 552.806,146.171 558.139,144.338 563.5,142.5C 563.5,157.5 563.5,172.5 563.5,187.5C 556.564,188.799 549.897,190.966 543.5,194C 530.368,200.809 517.035,207.143 503.5,213C 491.02,217.94 478.353,218.606 465.5,215C 460.334,212.252 455.334,209.252 450.5,206C 435.526,191.358 420.859,176.358 406.5,161C 396.295,152.46 385.295,145.126 373.5,139C 363.746,136.03 353.746,134.363 343.5,134C 313.195,132.19 282.861,131.19 252.5,131C 247.815,130.178 243.481,128.678 239.5,126.5C 241.337,126.361 241.67,125.694 240.5,124.5C 239.914,124.709 239.414,125.043 239,125.5C 234.405,121.655 229.239,118.988 223.5,117.5C 223.684,114.679 222.351,113.012 219.5,112.5C 218.549,113.326 217.549,113.492 216.5,113C 215.22,110.281 213.553,107.781 211.5,105.5C 209.597,105.694 207.763,105.694 206,105.5C 202.24,101.187 197.74,97.854 192.5,95.5C 190.497,93.8669 189.164,91.8669 188.5,89.5C 187.127,89.6567 185.793,89.49 184.5,89C 185.167,88.6667 185.833,88.3333 186.5,88C 181.516,86.8177 176.85,84.9843 172.5,82.5C 171.893,82.6236 171.56,82.9569 171.5,83.5C 161.665,79.1961 151.332,77.6961 140.5,79C 131.68,81.7448 123.68,86.0781 116.5,92C 90.7158,118.449 64.2158,144.283 37,169.5C 29.6208,177.877 22.6208,186.544 16,195.5C 10.9733,204.241 5.47326,212.575 -0.5,220.5C -0.5,197.833 -0.5,175.167 -0.5,152.5C 5.26569,144.9 11.9324,138.066 19.5,132C 34.5209,121.823 49.1876,111.156 63.5,100C 82.2258,80.6058 101.559,61.9392 121.5,44C 137.027,32.9252 153.36,31.5919 170.5,40C 185.722,49.4378 200.389,59.6045 214.5,70.5 Z"/></g>
<g><path style="opacity:1" fill="#eae5eb" d="M 171.5,83.5 C 187.958,93.9053 203.958,105.072 219.5,117C 225.891,120.847 232.558,124.014 239.5,126.5C 243.481,128.678 247.815,130.178 252.5,131C 282.861,131.19 313.195,132.19 343.5,134C 353.746,134.363 363.746,136.03 373.5,139C 385.295,145.126 396.295,152.46 406.5,161C 420.859,176.358 435.526,191.358 450.5,206C 455.334,209.252 460.334,212.252 465.5,215C 478.353,218.606 491.02,217.94 503.5,213C 517.035,207.143 530.368,200.809 543.5,194C 549.897,190.966 556.564,188.799 563.5,187.5C 563.5,209.167 563.5,230.833 563.5,252.5C 554.692,253.963 546.026,256.13 537.5,259C 519.788,267.284 501.788,274.451 483.5,280.5C 465.553,284.071 450.219,279.404 437.5,266.5C 427.158,255.655 417.325,244.321 408,232.5C 396.167,218.846 382.001,208.513 365.5,201.5C 363.615,199.689 361.281,198.522 358.5,198C 351.909,196.959 345.243,196.626 338.5,197C 334.753,195.784 330.92,194.951 327,194.5C 304.782,195.277 282.282,195.611 259.5,195.5C 254.784,194.992 250.118,194.158 245.5,193C 224.709,183.775 205.709,171.775 188.5,157C 179.495,150.998 169.829,146.331 159.5,143C 151.983,141.927 144.65,142.594 137.5,145C 133.5,147 129.5,149 125.5,151C 99.8206,173.673 76.654,198.506 56,225.5C 41.2489,248.671 26.2489,271.671 11,294.5C 7.58724,299.076 3.7539,303.076 -0.5,306.5C -0.5,277.833 -0.5,249.167 -0.5,220.5C 5.47326,212.575 10.9733,204.241 16,195.5C 22.6208,186.544 29.6208,177.877 37,169.5C 64.2158,144.283 90.7158,118.449 116.5,92C 123.68,86.0781 131.68,81.7448 140.5,79C 151.332,77.6961 161.665,79.1961 171.5,83.5 Z"/></g>
<g><path style="opacity:1" fill="#7e808c" d="M 214.5,70.5 C 225.364,77.5974 237.03,83.0974 249.5,87C 272.802,88.3051 296.135,89.1385 319.5,89.5C 299.657,90.7913 279.657,90.7913 259.5,89.5C 256.493,89.2544 253.993,90.2544 252,92.5C 251.5,92.1667 251,91.8333 250.5,91.5C 252.991,90.4593 252.991,89.6259 250.5,89C 244.408,87.3104 238.408,85.977 232.5,85C 227.9,80.3586 222.566,76.6919 216.5,74C 215.177,73.1841 214.511,72.0174 214.5,70.5 Z"/></g>
<g><path style="opacity:1" fill="#cbcbd4" d="M 327.5,89.5 C 336.727,89.1228 345.727,89.7894 354.5,91.5C 345.317,91.282 336.317,90.6153 327.5,89.5 Z"/></g>
<g><path style="opacity:1" fill="#7d7e8c" d="M 525.5,89.5 C 498.139,103.86 472.805,101.194 449.5,81.5C 449.611,80.8826 449.944,80.3826 450.5,80C 453.547,79.4202 453.881,79.7535 451.5,81C 457.199,85.7186 463.199,88.7186 469.5,90C 468.833,90.3333 468.167,90.6667 467.5,91C 470.177,92.515 472.843,93.015 475.5,92.5C 474.5,91.6667 473.5,90.8333 472.5,90C 473,89.8333 473.5,89.6667 474,89.5C 484.807,97.3317 496.307,98.4983 508.5,93C 506.441,91.8145 506.274,90.6479 508,89.5C 509.72,90.723 511.553,91.723 513.5,92.5C 516.7,90.4897 520.2,89.1563 524,88.5C 524.765,88.5699 525.265,88.9033 525.5,89.5 Z"/></g>
<g><path style="opacity:1" fill="#7d7f8c" d="M 239.5,126.5 C 232.558,124.014 225.891,120.847 219.5,117C 203.958,105.072 187.958,93.9053 171.5,83.5C 171.56,82.9569 171.893,82.6236 172.5,82.5C 176.85,84.9843 181.516,86.8177 186.5,88C 185.833,88.3333 185.167,88.6667 184.5,89C 185.793,89.49 187.127,89.6567 188.5,89.5C 189.164,91.8669 190.497,93.8669 192.5,95.5C 197.74,97.854 202.24,101.187 206,105.5C 207.763,105.694 209.597,105.694 211.5,105.5C 213.553,107.781 215.22,110.281 216.5,113C 217.549,113.492 218.549,113.326 219.5,112.5C 222.351,113.012 223.684,114.679 223.5,117.5C 229.239,118.988 234.405,121.655 239,125.5C 239.414,125.043 239.914,124.709 240.5,124.5C 241.67,125.694 241.337,126.361 239.5,126.5 Z"/></g>
<g><path style="opacity:1" fill="#838695" d="M 259.5,195.5 C 284.674,196.271 310.007,197.104 335.5,198C 345.604,198.584 355.604,199.75 365.5,201.5C 382.001,208.513 396.167,218.846 408,232.5C 417.325,244.321 427.158,255.655 437.5,266.5C 436.986,267.625 436.653,268.791 436.5,270C 437.76,271.113 438.927,271.28 440,270.5C 442.683,271.893 442.85,273.226 440.5,274.5C 442.121,277.271 444.288,277.938 447,276.5C 448.098,277.384 448.598,278.384 448.5,279.5C 451.794,278.479 454.794,279.146 457.5,281.5C 467.609,283.969 477.609,283.802 487.5,281C 486.207,280.51 484.873,280.343 483.5,280.5C 501.788,274.451 519.788,267.284 537.5,259C 546.026,256.13 554.692,253.963 563.5,252.5C 563.5,266.833 563.5,281.167 563.5,295.5C 553.21,295.725 543.21,297.558 533.5,301C 515.753,308.536 497.753,315.536 479.5,322C 461.907,327.577 446.24,324.244 432.5,312C 417.892,296.733 404.059,280.9 391,264.5C 387.201,261.703 383.701,258.536 380.5,255C 372.055,249.365 363.055,245.198 353.5,242.5C 357.449,242.307 357.449,241.807 353.5,241C 326.129,238.661 298.795,237.327 271.5,237C 270.167,237.333 268.833,237.667 267.5,238C 274.346,238.172 281.013,238.672 287.5,239.5C 266.09,240.648 246.09,235.815 227.5,225C 215.816,217.492 204.483,209.492 193.5,201C 181.681,192.339 168.515,187.172 154,185.5C 144.014,185.495 135.181,188.662 127.5,195C 107.284,213.221 89.1175,233.388 73,255.5C 57.8245,282.008 41.8245,308.008 25,333.5C 20.2096,339.959 15.0429,346.126 9.5,352C 6.55336,354.783 3.22002,356.95 -0.5,358.5C -0.5,341.167 -0.5,323.833 -0.5,306.5C 3.7539,303.076 7.58724,299.076 11,294.5C 26.2489,271.671 41.2489,248.671 56,225.5C 76.654,198.506 99.8206,173.673 125.5,151C 129.5,149 133.5,147 137.5,145C 144.65,142.594 151.983,141.927 159.5,143C 169.829,146.331 179.495,150.998 188.5,157C 205.709,171.775 224.709,183.775 245.5,193C 250.118,194.158 254.784,194.992 259.5,195.5 Z"/></g>
<g><path style="opacity:1" fill="#eae5eb" d="M 287.5,239.5 C 309.544,239.668 331.544,240.668 353.5,242.5C 363.055,245.198 372.055,249.365 380.5,255C 383.701,258.536 387.201,261.703 391,264.5C 404.059,280.9 417.892,296.733 432.5,312C 446.24,324.244 461.907,327.577 479.5,322C 497.753,315.536 515.753,308.536 533.5,301C 543.21,297.558 553.21,295.725 563.5,295.5C 563.5,317.167 563.5,338.833 563.5,360.5C 550.385,357.579 537.385,358.079 524.5,362C 503.372,370.565 482.038,378.565 460.5,386C 443.866,388.895 429.199,384.895 416.5,374C 405.277,362.11 394.777,349.61 385,336.5C 375.846,325 364.679,316.167 351.5,310C 346.989,308.075 342.323,306.742 337.5,306C 319.18,304.834 300.846,303.834 282.5,303C 267.475,299.991 253.141,294.991 239.5,288C 225.5,279.333 211.5,270.667 197.5,262C 188.142,256.318 178.142,252.318 167.5,250C 152.235,248.628 139.235,253.462 128.5,264.5C 110.862,282.974 95.6951,303.307 83,325.5C 71.28,349.279 58.28,372.279 44,394.5C 36.9385,405.807 27.7719,414.973 16.5,422C 11.0996,424.524 5.43294,425.691 -0.5,425.5C -0.5,403.167 -0.5,380.833 -0.5,358.5C 3.22002,356.95 6.55336,354.783 9.5,352C 15.0429,346.126 20.2096,339.959 25,333.5C 41.8245,308.008 57.8245,282.008 73,255.5C 89.1175,233.388 107.284,213.221 127.5,195C 135.181,188.662 144.014,185.495 154,185.5C 168.515,187.172 181.681,192.339 193.5,201C 204.483,209.492 215.816,217.492 227.5,225C 246.09,235.815 266.09,240.648 287.5,239.5 Z"/></g>
<g><path style="opacity:1" fill="#d7d6df" d="M 365.5,201.5 C 355.604,199.75 345.604,198.584 335.5,198C 310.007,197.104 284.674,196.271 259.5,195.5C 282.282,195.611 304.782,195.277 327,194.5C 330.92,194.951 334.753,195.784 338.5,197C 345.243,196.626 351.909,196.959 358.5,198C 361.281,198.522 363.615,199.689 365.5,201.5 Z"/></g>
<g><path style="opacity:1" fill="#7e7f8e" d="M 353.5,242.5 C 331.544,240.668 309.544,239.668 287.5,239.5C 281.013,238.672 274.346,238.172 267.5,238C 268.833,237.667 270.167,237.333 271.5,237C 298.795,237.327 326.129,238.661 353.5,241C 357.449,241.807 357.449,242.307 353.5,242.5 Z"/></g>
<g><path style="opacity:1" fill="#838695" d="M 563.5,360.5 C 563.5,376.167 563.5,391.833 563.5,407.5C 544.29,399.742 524.957,399.575 505.5,407C 489.579,413.529 473.579,419.863 457.5,426C 439.536,432.706 423.203,430.04 408.5,418C 393.921,402.759 380.088,386.925 367,370.5C 361.791,365.622 356.291,361.122 350.5,357C 343.58,353.207 336.246,350.54 328.5,349C 314.804,347.998 301.137,346.665 287.5,345C 275.735,341.784 264.402,337.45 253.5,332C 239.523,323.676 225.523,315.343 211.5,307C 202.407,302.12 193.073,297.786 183.5,294C 167.134,289.239 152.801,292.573 140.5,304C 127.847,316.651 116.68,330.485 107,345.5C 97.1233,363.927 87.29,382.26 77.5,400.5C 77.6495,399.448 77.4828,398.448 77,397.5C 75.6503,403.396 72.4837,407.896 67.5,411C 68.0219,411.561 68.3552,412.228 68.5,413C 67.6161,414.098 66.6161,414.598 65.5,414.5C 66.0253,415.192 66.6919,415.692 67.5,416C 64.8925,419.334 62.5592,422.834 60.5,426.5C 59.6667,425.5 58.8333,424.5 58,423.5C 59.2135,427.875 58.3802,431.875 55.5,435.5C 54.675,436.386 53.675,436.719 52.5,436.5C 52.0338,438.201 52.0338,439.701 52.5,441C 51.4479,442.119 50.2812,442.619 49,442.5C 47.6938,446.813 45.1938,450.313 41.5,453C 42.0944,453.464 42.7611,453.631 43.5,453.5C 31.4053,465.513 16.7386,470.18 -0.5,467.5C -0.5,453.5 -0.5,439.5 -0.5,425.5C 5.43294,425.691 11.0996,424.524 16.5,422C 27.7719,414.973 36.9385,405.807 44,394.5C 58.28,372.279 71.28,349.279 83,325.5C 95.6951,303.307 110.862,282.974 128.5,264.5C 139.235,253.462 152.235,248.628 167.5,250C 178.142,252.318 188.142,256.318 197.5,262C 211.5,270.667 225.5,279.333 239.5,288C 253.141,294.991 267.475,299.991 282.5,303C 300.846,303.834 319.18,304.834 337.5,306C 342.323,306.742 346.989,308.075 351.5,310C 364.679,316.167 375.846,325 385,336.5C 394.777,349.61 405.277,362.11 416.5,374C 429.199,384.895 443.866,388.895 460.5,386C 482.038,378.565 503.372,370.565 524.5,362C 537.385,358.079 550.385,357.579 563.5,360.5 Z"/></g>
<g><path style="opacity:1" fill="#7c7d89" d="M 437.5,266.5 C 450.219,279.404 465.553,284.071 483.5,280.5C 484.873,280.343 486.207,280.51 487.5,281C 477.609,283.802 467.609,283.969 457.5,281.5C 454.794,279.146 451.794,278.479 448.5,279.5C 448.598,278.384 448.098,277.384 447,276.5C 444.288,277.938 442.121,277.271 440.5,274.5C 442.85,273.226 442.683,271.893 440,270.5C 438.927,271.28 437.76,271.113 436.5,270C 436.653,268.791 436.986,267.625 437.5,266.5 Z"/></g>
<g><path style="opacity:1" fill="#eae5eb" d="M 563.5,407.5 C 563.5,430.5 563.5,453.5 563.5,476.5C 552.737,472.953 542.07,469.119 531.5,465C 524.208,463.647 516.875,463.314 509.5,464C 500.424,466.369 491.424,469.035 482.5,472C 469.059,477.925 455.392,483.258 441.5,488C 421.543,495.076 403.876,491.409 388.5,477C 378.292,465.794 368.459,454.294 359,442.5C 351.01,433.168 341.843,425.334 331.5,419C 316.112,412.538 300.445,406.871 284.5,402C 260.972,389.742 237.972,376.742 215.5,363C 208.747,359.896 201.747,357.563 194.5,356C 180.933,353.084 168.933,356.084 158.5,365C 137.571,386.242 121.071,410.408 109,437.5C 101.333,454.167 93.6667,470.833 86,487.5C 80.8514,497.633 74.3514,506.799 66.5,515C 52.3403,525.903 36.3403,529.57 18.5,526C 12.1202,524.987 5.78686,523.821 -0.5,522.5C -0.5,504.167 -0.5,485.833 -0.5,467.5C 16.7386,470.18 31.4053,465.513 43.5,453.5C 48.897,448.597 53.397,442.93 57,436.5C 64.4612,424.869 71.2945,412.869 77.5,400.5C 87.29,382.26 97.1233,363.927 107,345.5C 116.68,330.485 127.847,316.651 140.5,304C 152.801,292.573 167.134,289.239 183.5,294C 193.073,297.786 202.407,302.12 211.5,307C 225.523,315.343 239.523,323.676 253.5,332C 264.402,337.45 275.735,341.784 287.5,345C 301.137,346.665 314.804,347.998 328.5,349C 336.246,350.54 343.58,353.207 350.5,357C 356.291,361.122 361.791,365.622 367,370.5C 380.088,386.925 393.921,402.759 408.5,418C 423.203,430.04 439.536,432.706 457.5,426C 473.579,419.863 489.579,413.529 505.5,407C 524.957,399.575 544.29,399.742 563.5,407.5 Z"/></g>
<g><path style="opacity:1" fill="#838695" d="M 563.5,476.5 C 563.5,489.5 563.5,502.5 563.5,515.5C 547.552,514.175 531.885,511.342 516.5,507C 501.674,505.547 487.341,507.547 473.5,513C 461.366,517.569 449.366,522.403 437.5,527.5C 437.53,526.503 437.03,525.836 436,525.5C 429.856,528.223 423.689,530.056 417.5,531C 411.981,531.058 406.648,531.224 401.5,531.5C 392.818,529.826 385.151,525.992 378.5,520C 367.505,508.819 357.338,496.986 348,484.5C 328.766,463.295 305.933,447.129 279.5,436C 262.632,425.734 245.632,415.734 228.5,406C 215.655,399.098 201.988,396.431 187.5,398C 184.167,399.333 180.833,400.667 177.5,402C 165.959,410.541 156.125,420.707 148,432.5C 131.191,459.792 117.858,488.792 108,519.5C 101.862,533.612 93.3615,546.112 82.5,557C 73.1557,563.333 62.8224,566.166 51.5,565.5C 33.9341,564.804 16.6007,562.471 -0.5,558.5C -0.5,546.5 -0.5,534.5 -0.5,522.5C 5.78686,523.821 12.1202,524.987 18.5,526C 36.3403,529.57 52.3403,525.903 66.5,515C 74.3514,506.799 80.8514,497.633 86,487.5C 93.6667,470.833 101.333,454.167 109,437.5C 121.071,410.408 137.571,386.242 158.5,365C 168.933,356.084 180.933,353.084 194.5,356C 201.747,357.563 208.747,359.896 215.5,363C 237.972,376.742 260.972,389.742 284.5,402C 300.445,406.871 316.112,412.538 331.5,419C 341.843,425.334 351.01,433.168 359,442.5C 368.459,454.294 378.292,465.794 388.5,477C 403.876,491.409 421.543,495.076 441.5,488C 455.392,483.258 469.059,477.925 482.5,472C 491.424,469.035 500.424,466.369 509.5,464C 516.875,463.314 524.208,463.647 531.5,465C 542.07,469.119 552.737,472.953 563.5,476.5 Z"/></g>
<g><path style="opacity:1" fill="#eae5eb" d="M 401.5,531.5 C 413.699,533.286 425.699,531.952 437.5,527.5C 449.366,522.403 461.366,517.569 473.5,513C 487.341,507.547 501.674,505.547 516.5,507C 531.885,511.342 547.552,514.175 563.5,515.5C 563.5,531.833 563.5,548.167 563.5,564.5C 539.254,567.026 514.921,568.192 490.5,568C 477.104,569.266 464.104,572.266 451.5,577C 436.003,584.055 420.003,589.721 403.5,594C 389.912,596.717 377.579,594.05 366.5,586C 354.572,575.407 344.072,563.574 335,550.5C 324.889,532.773 312.722,516.606 298.5,502C 294.492,498.335 290.159,495.168 285.5,492.5C 273.496,484.16 260.829,476.827 247.5,470.5C 244.871,468.837 242.204,467.171 239.5,465.5C 239.719,464.325 239.386,463.325 238.5,462.5C 228.181,459.554 217.848,458.888 207.5,460.5C 201.365,461.9 195.699,464.4 190.5,468C 175.426,481.761 164.259,498.261 157,517.5C 149.487,539.882 141.821,562.216 134,584.5C 129.46,595.698 122.626,605.198 113.5,613C 103.964,619.746 93.2971,622.913 81.5,622.5C 62.0642,620.821 42.7309,618.321 23.5,615C 15.5069,614.5 7.50694,614.334 -0.5,614.5C -0.5,595.833 -0.5,577.167 -0.5,558.5C 16.6007,562.471 33.9341,564.804 51.5,565.5C 62.8224,566.166 73.1557,563.333 82.5,557C 93.3615,546.112 101.862,533.612 108,519.5C 117.858,488.792 131.191,459.792 148,432.5C 156.125,420.707 165.959,410.541 177.5,402C 180.833,400.667 184.167,399.333 187.5,398C 201.988,396.431 215.655,399.098 228.5,406C 245.632,415.734 262.632,425.734 279.5,436C 305.933,447.129 328.766,463.295 348,484.5C 357.338,496.986 367.505,508.819 378.5,520C 385.151,525.992 392.818,529.826 401.5,531.5 Z"/></g>
<g><path style="opacity:1" fill="#7b7d8a" d="M 77.5,400.5 C 71.2945,412.869 64.4612,424.869 57,436.5C 53.397,442.93 48.897,448.597 43.5,453.5C 42.7611,453.631 42.0944,453.464 41.5,453C 45.1938,450.313 47.6938,446.813 49,442.5C 50.2812,442.619 51.4479,442.119 52.5,441C 52.0338,439.701 52.0338,438.201 52.5,436.5C 53.675,436.719 54.675,436.386 55.5,435.5C 58.3802,431.875 59.2135,427.875 58,423.5C 58.8333,424.5 59.6667,425.5 60.5,426.5C 62.5592,422.834 64.8925,419.334 67.5,416C 66.6919,415.692 66.0253,415.192 65.5,414.5C 66.6161,414.598 67.6161,414.098 68.5,413C 68.3552,412.228 68.0219,411.561 67.5,411C 72.4837,407.896 75.6503,403.396 77,397.5C 77.4828,398.448 77.6495,399.448 77.5,400.5 Z"/></g>
<g><path style="opacity:1" fill="#d8d7e0" d="M 207.5,460.5 C 217.848,458.888 228.181,459.554 238.5,462.5C 239.386,463.325 239.719,464.325 239.5,465.5C 234.283,463.707 228.95,462.207 223.5,461C 218.177,460.501 212.844,460.334 207.5,460.5 Z"/></g>
<g><path style="opacity:1" fill="#7a7c89" d="M 247.5,470.5 C 260.829,476.827 273.496,484.16 285.5,492.5C 285.44,493.043 285.107,493.376 284.5,493.5C 282.205,492.568 279.871,491.735 277.5,491C 276.167,489 274.5,487.333 272.5,486C 265.354,482.202 258.687,478.368 252.5,474.5C 251.304,474.846 251.304,475.346 252.5,476C 249.932,477.983 247.599,477.817 245.5,475.5C 246.665,474.416 247.998,473.583 249.5,473C 248.244,472.583 247.577,471.75 247.5,470.5 Z"/></g>
<g><path style="opacity:1" fill="#e9e5eb" d="M 479.5,607.5 C 507.438,603.674 535.438,600.341 563.5,597.5C 563.5,617.167 563.5,636.833 563.5,656.5C 561.5,655.833 559.5,655.167 557.5,654.5C 550.414,652.017 543.08,650.683 535.5,650.5C 527.821,651.085 520.154,651.752 512.5,652.5C 494.872,654.992 477.538,658.826 460.5,664C 435.688,673.936 410.688,683.269 385.5,692C 373.342,695.328 362.009,693.662 351.5,687C 346.966,682.801 342.799,678.301 339,673.5C 323.566,649.632 308.899,625.299 295,600.5C 289.667,593.833 284.333,587.167 279,580.5C 245.939,554.099 221.272,560.432 205,599.5C 197.397,617.978 190.397,636.645 184,655.5C 175.653,676.14 164.486,694.973 150.5,712C 143.428,718.357 135.095,721.523 125.5,721.5C 107.044,719.551 89.0443,715.718 71.5,710C 54.1615,704.957 36.4948,702.957 18.5,704C 12.235,705.42 5.90168,706.254 -0.5,706.5C -0.5,689.5 -0.5,672.5 -0.5,655.5C 5.84779,654.415 12.1811,653.248 18.5,652C 25.5,651.333 32.5,651.333 39.5,652C 54.2753,654.027 68.9419,656.693 83.5,660C 108.189,666.661 128.022,659.828 143,639.5C 151.633,624.233 158.633,608.233 164,591.5C 169.77,568.521 178.104,546.521 189,525.5C 202.437,503.538 221.27,497.038 245.5,506C 268.387,514.011 287.22,527.511 302,546.5C 312.864,563.357 322.864,580.69 332,598.5C 338.068,607.905 344.902,616.738 352.5,625C 365.521,635.404 380.188,638.404 396.5,634C 411.705,629.265 426.705,623.931 441.5,618C 454.097,613.853 466.764,610.353 479.5,607.5 Z"/></g>
<g><path style="opacity:1" fill="#787985" d="M 437.5,527.5 C 425.699,531.952 413.699,533.286 401.5,531.5C 406.648,531.224 411.981,531.058 417.5,531C 423.689,530.056 429.856,528.223 436,525.5C 437.03,525.836 437.53,526.503 437.5,527.5 Z"/></g>
<g><path style="opacity:1" fill="#838695" d="M 207.5,460.5 C 212.844,460.334 218.177,460.501 223.5,461C 228.95,462.207 234.283,463.707 239.5,465.5C 242.204,467.171 244.871,468.837 247.5,470.5C 247.577,471.75 248.244,472.583 249.5,473C 247.998,473.583 246.665,474.416 245.5,475.5C 247.599,477.817 249.932,477.983 252.5,476C 251.304,475.346 251.304,474.846 252.5,474.5C 258.687,478.368 265.354,482.202 272.5,486C 274.5,487.333 276.167,489 277.5,491C 279.871,491.735 282.205,492.568 284.5,493.5C 285.107,493.376 285.44,493.043 285.5,492.5C 290.159,495.168 294.492,498.335 298.5,502C 312.722,516.606 324.889,532.773 335,550.5C 344.072,563.574 354.572,575.407 366.5,586C 377.579,594.05 389.912,596.717 403.5,594C 420.003,589.721 436.003,584.055 451.5,577C 464.104,572.266 477.104,569.266 490.5,568C 514.921,568.192 539.254,567.026 563.5,564.5C 563.5,574.167 563.5,583.833 563.5,593.5C 548.923,596.431 534.256,598.764 519.5,600.5C 515.63,600.395 511.963,599.562 508.5,598C 504.179,597.501 499.846,597.334 495.5,597.5C 494.881,593.857 492.881,592.857 489.5,594.5C 489.833,595.167 490.167,595.833 490.5,596.5C 486.978,597.903 483.312,598.903 479.5,599.5C 483.289,601.421 487.289,601.921 491.5,601C 489.405,600.444 489.238,599.944 491,599.5C 492.872,600.068 494.705,600.735 496.5,601.5C 497.696,601.154 497.696,600.654 496.5,600C 498.833,599.333 501.167,599.333 503.5,600C 500.833,600.667 500.833,601.333 503.5,602C 495.54,603.215 487.54,604.048 479.5,604.5C 479.5,605.5 479.5,606.5 479.5,607.5C 466.764,610.353 454.097,613.853 441.5,618C 426.705,623.931 411.705,629.265 396.5,634C 380.188,638.404 365.521,635.404 352.5,625C 344.902,616.738 338.068,607.905 332,598.5C 322.864,580.69 312.864,563.357 302,546.5C 287.22,527.511 268.387,514.011 245.5,506C 221.27,497.038 202.437,503.538 189,525.5C 178.104,546.521 169.77,568.521 164,591.5C 158.633,608.233 151.633,624.233 143,639.5C 128.022,659.828 108.189,666.661 83.5,660C 68.9419,656.693 54.2753,654.027 39.5,652C 32.5,651.333 25.5,651.333 18.5,652C 12.1811,653.248 5.84779,654.415 -0.5,655.5C -0.5,641.833 -0.5,628.167 -0.5,614.5C 7.50694,614.334 15.5069,614.5 23.5,615C 42.7309,618.321 62.0642,620.821 81.5,622.5C 93.2971,622.913 103.964,619.746 113.5,613C 122.626,605.198 129.46,595.698 134,584.5C 141.821,562.216 149.487,539.882 157,517.5C 164.259,498.261 175.426,481.761 190.5,468C 195.699,464.4 201.365,461.9 207.5,460.5 Z"/></g>
<g><path style="opacity:1" fill="#7d808d" d="M 563.5,593.5 C 563.5,594.833 563.5,596.167 563.5,597.5C 535.438,600.341 507.438,603.674 479.5,607.5C 479.5,606.5 479.5,605.5 479.5,604.5C 487.54,604.048 495.54,603.215 503.5,602C 500.833,601.333 500.833,600.667 503.5,600C 501.167,599.333 498.833,599.333 496.5,600C 497.696,600.654 497.696,601.154 496.5,601.5C 494.705,600.735 492.872,600.068 491,599.5C 489.238,599.944 489.405,600.444 491.5,601C 487.289,601.921 483.289,601.421 479.5,599.5C 483.312,598.903 486.978,597.903 490.5,596.5C 490.167,595.833 489.833,595.167 489.5,594.5C 492.881,592.857 494.881,593.857 495.5,597.5C 499.846,597.334 504.179,597.501 508.5,598C 511.963,599.562 515.63,600.395 519.5,600.5C 534.256,598.764 548.923,596.431 563.5,593.5 Z"/></g>
<g><path style="opacity:1" fill="#e9e5eb" d="M 267.5,610.5 C 276.728,616.89 284.895,624.557 292,633.5C 308.436,657.358 323.103,682.358 336,708.5C 340.785,716.952 347.285,723.786 355.5,729C 358.9,730.285 362.4,731.119 366,731.5C 371.938,730.846 377.772,729.679 383.5,728C 407.923,717.081 432.59,706.748 457.5,697C 466.171,694.663 474.838,692.33 483.5,690C 498.116,687.224 512.783,686.891 527.5,689C 543.728,694.229 554.228,705.062 559,721.5C 560.215,727.04 561.715,732.373 563.5,737.5C 563.5,773.5 563.5,809.5 563.5,845.5C 550.763,836.35 541.097,824.683 534.5,810.5C 529.158,794.808 523.658,779.141 518,763.5C 507.615,748.393 493.115,741.393 474.5,742.5C 465.597,742.653 456.93,744.153 448.5,747C 422.698,756.068 398.365,768.068 375.5,783C 370.167,785 364.833,787 359.5,789C 355.167,789.667 350.833,789.667 346.5,789C 337.867,783.592 331.701,776.092 328,766.5C 323.864,756.928 320.364,747.261 317.5,737.5C 313.667,723.167 308.167,709.5 301,696.5C 295.633,685.804 288.133,676.971 278.5,670C 272.479,666.271 266.145,665.604 259.5,668C 250.564,674.405 243.897,682.572 239.5,692.5C 237.75,693.659 236.75,695.326 236.5,697.5C 221.44,724.066 204.94,749.733 187,774.5C 178.243,786.592 168.076,797.426 156.5,807C 147.855,812.831 138.522,814.498 128.5,812C 111.761,804.464 95.4274,796.13 79.5,787C 58.3376,776.713 37.3376,777.046 16.5,788C 8.33525,793.316 2.66859,800.483 -0.5,809.5C -0.5,785.833 -0.5,762.167 -0.5,738.5C 26.1462,731.665 52.1462,733.498 77.5,744C 90.2132,749.908 103.213,755.241 116.5,760C 131.13,764.874 144.13,762.208 155.5,752C 165.144,742.027 173.644,731.194 181,719.5C 195.564,694.04 208.23,667.707 219,640.5C 221.258,635.647 223.758,630.981 226.5,626.5C 231.005,618.496 237.338,612.329 245.5,608C 253.196,605.712 260.529,606.545 267.5,610.5 Z"/></g>
<g><path style="opacity:1" fill="#7c7d8a" d="M 557.5,654.5 C 557.265,655.097 556.765,655.43 556,655.5C 541.615,651.873 527.115,651.539 512.5,654.5C 511.5,654.333 510.5,654.167 509.5,654C 510.737,653.768 511.737,653.268 512.5,652.5C 520.154,651.752 527.821,651.085 535.5,650.5C 543.08,650.683 550.414,652.017 557.5,654.5 Z"/></g>
<g><path style="opacity:1" fill="#818492" d="M 317.5,737.5 C 316.698,738.952 316.198,740.618 316,742.5C 314.691,740.314 314.524,738.147 315.5,736C 314.809,734.933 314.309,733.766 314,732.5C 313.086,736.185 312.419,735.852 312,731.5C 311.576,733.515 310.742,735.349 309.5,737C 311.532,739.894 312.865,743.06 313.5,746.5C 314.5,746.5 315.5,746.5 316.5,746.5C 316.5,748.167 316.5,749.833 316.5,751.5C 315.167,751.5 313.833,751.5 312.5,751.5C 313.045,754.998 312.212,757.998 310,760.5C 308.958,756.452 308.624,752.452 309,748.5C 307.989,747.663 306.822,747.33 305.5,747.5C 306.1,753.165 306.767,758.832 307.5,764.5C 310.083,770.58 311.583,776.913 312,783.5C 313,786.167 314,788.833 315,791.5C 315.333,789.833 315.667,788.167 316,786.5C 316.311,788.556 316.811,790.556 317.5,792.5C 316.626,794.747 316.292,797.08 316.5,799.5C 314.204,795.131 312.371,790.464 311,785.5C 307.112,766.948 302.445,748.614 297,730.5C 294.535,724.03 291.201,718.03 287,712.5C 282.124,707.653 276.291,705.819 269.5,707C 260.572,712.759 253.572,720.259 248.5,729.5C 247.624,729.631 246.957,729.298 246.5,728.5C 247.737,727.719 248.737,726.719 249.5,725.5C 248.674,724.549 248.508,723.549 249,722.5C 251.129,723.863 251.629,723.529 250.5,721.5C 251.751,720.369 252.751,719.036 253.5,717.5C 253.167,716.833 252.833,716.167 252.5,715.5C 248.949,715.714 245.283,716.381 241.5,717.5C 241.477,714.879 242.811,713.545 245.5,713.5C 250.153,714.695 254.486,714.695 258.5,713.5C 260.389,711.568 262.389,709.735 264.5,708C 263.167,707.333 263.167,706.667 264.5,706C 269.897,705.136 275.231,704.803 280.5,705C 277.937,704.237 277.937,703.737 280.5,703.5C 284.535,704.908 288.202,704.242 291.5,701.5C 292.904,702.999 293.57,702.666 293.5,700.5C 290.437,696.183 288.603,691.516 288,686.5C 289.243,687.336 290.41,687.003 291.5,685.5C 290.52,684.019 289.353,682.685 288,681.5C 287.517,682.448 287.351,683.448 287.5,684.5C 283.685,683.918 280.351,684.752 277.5,687C 278.167,687.333 278.833,687.667 279.5,688C 276.854,688.497 274.187,688.664 271.5,688.5C 271.5,690.167 271.5,691.833 271.5,693.5C 267.393,694.15 263.893,693.15 261,690.5C 257.992,693.974 256.492,692.974 256.5,687.5C 261.511,687.666 266.511,687.499 271.5,687C 272.328,686.085 273.328,685.419 274.5,685C 275.168,680.666 275.168,676.166 274.5,671.5C 271.603,671.875 268.937,671.375 266.5,670C 268.935,668.997 268.602,668.497 265.5,668.5C 259.714,669.13 255.881,672.13 254,677.5C 253.346,676.304 252.846,676.304 252.5,677.5C 252.376,680.483 253.376,683.316 255.5,686C 253.194,688.75 252.194,691.917 252.5,695.5C 251.127,695.657 249.793,695.49 248.5,695C 249.435,692.619 249.768,690.119 249.5,687.5C 250.5,687.5 251.5,687.5 252.5,687.5C 251.811,682.629 249.644,681.629 246,684.5C 243.999,687.844 241.999,691.177 240,694.5C 239.536,693.906 239.369,693.239 239.5,692.5C 243.897,682.572 250.564,674.405 259.5,668C 266.145,665.604 272.479,666.271 278.5,670C 288.133,676.971 295.633,685.804 301,696.5C 308.167,709.5 313.667,723.167 317.5,737.5 Z"/></g>
<g><path style="opacity:1" fill="#eae5eb" d="M 316.5,799.5 C 327.57,830.03 346.237,835.697 372.5,816.5C 385.742,807.715 399.408,799.715 413.5,792.5C 420.03,789.403 426.696,786.57 433.5,784C 446.738,779.894 460.071,779.561 473.5,783C 478.266,784.584 482.6,786.917 486.5,790C 490.391,794.893 493.891,800.06 497,805.5C 502.629,822.424 509.629,838.757 518,854.5C 524.634,863.471 532.801,870.638 542.5,876C 549.64,881.638 556.64,887.472 563.5,893.5C 563.5,929.5 563.5,965.5 563.5,1001.5C 546.167,1001.5 528.833,1001.5 511.5,1001.5C 513.501,992.164 515.501,982.831 517.5,973.5C 520.58,956.968 517.747,941.635 509,927.5C 496.002,915.502 483.336,903.169 471,890.5C 464.923,880.967 459.589,870.967 455,860.5C 446.616,847.313 434.783,842.646 419.5,846.5C 413.643,848.092 407.977,850.259 402.5,853C 392.769,859.191 383.102,865.358 373.5,871.5C 366.785,876.022 359.452,879.189 351.5,881C 346.331,881.729 341.331,881.062 336.5,879C 331.494,876.499 326.827,873.499 322.5,870C 313.344,861.165 305.011,851.665 297.5,841.5C 290.606,833.39 284.44,824.723 279,815.5C 275.298,810.116 270.298,806.783 264,805.5C 261.815,805.921 259.649,806.421 257.5,807C 243.347,814.825 230.014,823.825 217.5,834C 195.192,852.971 172.858,871.971 150.5,891C 140.323,896.589 129.99,901.922 119.5,907C 113.173,912.481 109.007,919.314 107,927.5C 102.577,951.98 99.7441,976.647 98.5,1001.5C 67.5,1001.5 36.5,1001.5 5.5,1001.5C 10.3619,989.963 15.6952,978.63 21.5,967.5C 30.3792,946.44 35.0459,924.44 35.5,901.5C 35.3656,896.807 35.0323,892.141 34.5,887.5C 33.065,873.134 33.2316,858.801 35,844.5C 37.3846,830.8 44.8846,821.3 57.5,816C 70.0062,814.791 82.0062,816.791 93.5,822C 105.289,828.229 117.289,833.896 129.5,839C 143.805,841.009 156.138,837.009 166.5,827C 195.8,798.161 222.134,766.994 245.5,733.5C 246.974,732.564 247.974,731.23 248.5,729.5C 253.572,720.259 260.572,712.759 269.5,707C 276.291,705.819 282.124,707.653 287,712.5C 291.201,718.03 294.535,724.03 297,730.5C 302.445,748.614 307.112,766.948 311,785.5C 312.371,790.464 314.204,795.131 316.5,799.5 Z"/></g>
<g><path style="opacity:1" fill="#838695" d="M 512.5,652.5 C 511.737,653.268 510.737,653.768 509.5,654C 510.5,654.167 511.5,654.333 512.5,654.5C 527.115,651.539 541.615,651.873 556,655.5C 556.765,655.43 557.265,655.097 557.5,654.5C 559.5,655.167 561.5,655.833 563.5,656.5C 563.5,683.5 563.5,710.5 563.5,737.5C 561.715,732.373 560.215,727.04 559,721.5C 554.228,705.062 543.728,694.229 527.5,689C 512.783,686.891 498.116,687.224 483.5,690C 474.838,692.33 466.171,694.663 457.5,697C 432.59,706.748 407.923,717.081 383.5,728C 377.772,729.679 371.938,730.846 366,731.5C 362.4,731.119 358.9,730.285 355.5,729C 347.285,723.786 340.785,716.952 336,708.5C 323.103,682.358 308.436,657.358 292,633.5C 284.895,624.557 276.728,616.89 267.5,610.5C 267.783,609.784 268.116,608.951 268.5,608C 266.715,606.837 264.715,606.17 262.5,606C 263.888,605.111 263.722,604.611 262,604.5C 258.857,605.642 255.69,605.642 252.5,604.5C 246.901,606.271 241.235,607.937 235.5,609.5C 232.151,608.17 231.818,608.67 234.5,611C 232.009,611.626 232.009,612.459 234.5,613.5C 231.994,616.505 229.327,619.339 226.5,622C 225.392,623.677 225.392,625.177 226.5,626.5C 223.758,630.981 221.258,635.647 219,640.5C 208.23,667.707 195.564,694.04 181,719.5C 173.644,731.194 165.144,742.027 155.5,752C 144.13,762.208 131.13,764.874 116.5,760C 103.213,755.241 90.2132,749.908 77.5,744C 52.1462,733.498 26.1462,731.665 -0.5,738.5C -0.5,727.833 -0.5,717.167 -0.5,706.5C 5.90168,706.254 12.235,705.42 18.5,704C 36.4948,702.957 54.1615,704.957 71.5,710C 89.0443,715.718 107.044,719.551 125.5,721.5C 135.095,721.523 143.428,718.357 150.5,712C 164.486,694.973 175.653,676.14 184,655.5C 190.397,636.645 197.397,617.978 205,599.5C 221.272,560.432 245.939,554.099 279,580.5C 284.333,587.167 289.667,593.833 295,600.5C 308.899,625.299 323.566,649.632 339,673.5C 342.799,678.301 346.966,682.801 351.5,687C 362.009,693.662 373.342,695.328 385.5,692C 410.688,683.269 435.688,673.936 460.5,664C 477.538,658.826 494.872,654.992 512.5,652.5 Z"/></g>
<g><path style="opacity:1" fill="#7b7d8a" d="M 267.5,610.5 C 260.529,606.545 253.196,605.712 245.5,608C 237.338,612.329 231.005,618.496 226.5,626.5C 225.392,625.177 225.392,623.677 226.5,622C 229.327,619.339 231.994,616.505 234.5,613.5C 232.009,612.459 232.009,611.626 234.5,611C 231.818,608.67 232.151,608.17 235.5,609.5C 241.235,607.937 246.901,606.271 252.5,604.5C 255.69,605.642 258.857,605.642 262,604.5C 263.722,604.611 263.888,605.111 262.5,606C 264.715,606.17 266.715,606.837 268.5,608C 268.116,608.951 267.783,609.784 267.5,610.5 Z"/></g>
<g><path style="opacity:1" fill="#848796" d="M 248.5,729.5 C 247.974,731.23 246.974,732.564 245.5,733.5C 245.631,732.761 245.464,732.094 245,731.5C 241.81,734.163 239.31,737.33 237.5,741C 234.231,744.606 230.231,746.939 225.5,748C 226.793,748.49 228.127,748.657 229.5,748.5C 229.33,749.822 229.663,750.989 230.5,752C 230,752.5 229.5,753 229,753.5C 226.435,751.821 223.602,751.154 220.5,751.5C 221.077,748.45 219.91,746.45 217,745.5C 215.843,741.654 217.009,738.821 220.5,737C 217.737,734.12 218.07,731.12 221.5,728C 220.66,726.334 221.16,726.167 223,727.5C 224.375,725.624 225.542,723.624 226.5,721.5C 227.086,721.709 227.586,722.043 228,722.5C 228.667,721.167 228.667,719.833 228,718.5C 227.346,719.696 226.846,719.696 226.5,718.5C 230.377,711.819 234.377,705.319 238.5,699C 237.956,698.283 237.289,697.783 236.5,697.5C 236.75,695.326 237.75,693.659 239.5,692.5C 239.369,693.239 239.536,693.906 240,694.5C 241.999,691.177 243.999,687.844 246,684.5C 249.644,681.629 251.811,682.629 252.5,687.5C 251.5,687.5 250.5,687.5 249.5,687.5C 249.768,690.119 249.435,692.619 248.5,695C 249.793,695.49 251.127,695.657 252.5,695.5C 252.194,691.917 253.194,688.75 255.5,686C 253.376,683.316 252.376,680.483 252.5,677.5C 252.846,676.304 253.346,676.304 254,677.5C 255.881,672.13 259.714,669.13 265.5,668.5C 268.602,668.497 268.935,668.997 266.5,670C 268.937,671.375 271.603,671.875 274.5,671.5C 275.168,676.166 275.168,680.666 274.5,685C 273.328,685.419 272.328,686.085 271.5,687C 266.511,687.499 261.511,687.666 256.5,687.5C 256.492,692.974 257.992,693.974 261,690.5C 263.893,693.15 267.393,694.15 271.5,693.5C 271.5,691.833 271.5,690.167 271.5,688.5C 274.187,688.664 276.854,688.497 279.5,688C 278.833,687.667 278.167,687.333 277.5,687C 280.351,684.752 283.685,683.918 287.5,684.5C 287.351,683.448 287.517,682.448 288,681.5C 289.353,682.685 290.52,684.019 291.5,685.5C 290.41,687.003 289.243,687.336 288,686.5C 288.603,691.516 290.437,696.183 293.5,700.5C 293.57,702.666 292.904,702.999 291.5,701.5C 288.202,704.242 284.535,704.908 280.5,703.5C 277.937,703.737 277.937,704.237 280.5,705C 275.231,704.803 269.897,705.136 264.5,706C 263.167,706.667 263.167,707.333 264.5,708C 262.389,709.735 260.389,711.568 258.5,713.5C 254.486,714.695 250.153,714.695 245.5,713.5C 242.811,713.545 241.477,714.879 241.5,717.5C 245.283,716.381 248.949,715.714 252.5,715.5C 252.833,716.167 253.167,716.833 253.5,717.5C 252.751,719.036 251.751,720.369 250.5,721.5C 251.629,723.529 251.129,723.863 249,722.5C 248.508,723.549 248.674,724.549 249.5,725.5C 248.737,726.719 247.737,727.719 246.5,728.5C 246.957,729.298 247.624,729.631 248.5,729.5 Z"/></g>
<g><path style="opacity:1" fill="#838695" d="M 317.5,737.5 C 320.364,747.261 323.864,756.928 328,766.5C 331.701,776.092 337.867,783.592 346.5,789C 350.833,789.667 355.167,789.667 359.5,789C 364.833,787 370.167,785 375.5,783C 398.365,768.068 422.698,756.068 448.5,747C 456.93,744.153 465.597,742.653 474.5,742.5C 493.115,741.393 507.615,748.393 518,763.5C 523.658,779.141 529.158,794.808 534.5,810.5C 533.35,809.15 532.683,809.316 532.5,811C 536.37,815.616 538.37,820.783 538.5,826.5C 537.833,827.167 537.167,827.833 536.5,828.5C 538.335,829.192 540.168,828.858 542,827.5C 547.819,834.799 553.985,840.966 560.5,846C 561.448,846.483 562.448,846.649 563.5,846.5C 563.5,862.167 563.5,877.833 563.5,893.5C 556.64,887.472 549.64,881.638 542.5,876C 532.801,870.638 524.634,863.471 518,854.5C 509.629,838.757 502.629,822.424 497,805.5C 493.891,800.06 490.391,794.893 486.5,790C 482.6,786.917 478.266,784.584 473.5,783C 460.071,779.561 446.738,779.894 433.5,784C 426.696,786.57 420.03,789.403 413.5,792.5C 412.796,790.656 411.463,790.156 409.5,791C 407.262,794.874 404.095,796.374 400,795.5C 399.383,796.449 399.549,797.282 400.5,798C 392.786,801.959 386.119,805.792 380.5,809.5C 379.232,808.572 377.899,808.405 376.5,809C 374.5,811.333 372.5,813.667 370.5,816C 371.094,816.464 371.761,816.631 372.5,816.5C 346.237,835.697 327.57,830.03 316.5,799.5C 316.292,797.08 316.626,794.747 317.5,792.5C 316.811,790.556 316.311,788.556 316,786.5C 315.667,788.167 315.333,789.833 315,791.5C 314,788.833 313,786.167 312,783.5C 311.583,776.913 310.083,770.58 307.5,764.5C 306.767,758.832 306.1,753.165 305.5,747.5C 306.822,747.33 307.989,747.663 309,748.5C 308.624,752.452 308.958,756.452 310,760.5C 312.212,757.998 313.045,754.998 312.5,751.5C 313.833,751.5 315.167,751.5 316.5,751.5C 316.5,749.833 316.5,748.167 316.5,746.5C 315.5,746.5 314.5,746.5 313.5,746.5C 312.865,743.06 311.532,739.894 309.5,737C 310.742,735.349 311.576,733.515 312,731.5C 312.419,735.852 313.086,736.185 314,732.5C 314.309,733.766 314.809,734.933 315.5,736C 314.524,738.147 314.691,740.314 316,742.5C 316.198,740.618 316.698,738.952 317.5,737.5 Z"/></g>
<g><path style="opacity:1" fill="#838695" d="M 236.5,697.5 C 237.289,697.783 237.956,698.283 238.5,699C 234.377,705.319 230.377,711.819 226.5,718.5C 226.846,719.696 227.346,719.696 228,718.5C 228.667,719.833 228.667,721.167 228,722.5C 227.586,722.043 227.086,721.709 226.5,721.5C 225.542,723.624 224.375,725.624 223,727.5C 221.16,726.167 220.66,726.334 221.5,728C 218.07,731.12 217.737,734.12 220.5,737C 217.009,738.821 215.843,741.654 217,745.5C 219.91,746.45 221.077,748.45 220.5,751.5C 223.602,751.154 226.435,751.821 229,753.5C 229.5,753 230,752.5 230.5,752C 229.663,750.989 229.33,749.822 229.5,748.5C 228.127,748.657 226.793,748.49 225.5,748C 230.231,746.939 234.231,744.606 237.5,741C 239.31,737.33 241.81,734.163 245,731.5C 245.464,732.094 245.631,732.761 245.5,733.5C 222.134,766.994 195.8,798.161 166.5,827C 156.138,837.009 143.805,841.009 129.5,839C 117.289,833.896 105.289,828.229 93.5,822C 82.0062,816.791 70.0062,814.791 57.5,816C 44.8846,821.3 37.3846,830.8 35,844.5C 33.2316,858.801 33.065,873.134 34.5,887.5C 33.6696,897.992 33.1696,908.659 33,919.5C 31.8099,923.381 31.1432,927.381 31,931.5C 29.7625,935.87 28.2625,940.037 26.5,944C 27.5171,945.049 27.6838,946.216 27,947.5C 26.6667,946.833 26.3333,946.167 26,945.5C 24.7565,950.853 23.4231,956.186 22,961.5C 18.8815,963.391 18.7149,965.391 21.5,967.5C 15.6952,978.63 10.3619,989.963 5.5,1001.5C 3.5,1001.5 1.5,1001.5 -0.5,1001.5C -0.5,971.5 -0.5,941.5 -0.5,911.5C 1.03012,904.903 1.69679,898.07 1.5,891C 1.5333,881.63 0.866633,872.464 -0.5,863.5C -0.5,845.5 -0.5,827.5 -0.5,809.5C 2.66859,800.483 8.33525,793.316 16.5,788C 37.3376,777.046 58.3376,776.713 79.5,787C 95.4274,796.13 111.761,804.464 128.5,812C 138.522,814.498 147.855,812.831 156.5,807C 168.076,797.426 178.243,786.592 187,774.5C 204.94,749.733 221.44,724.066 236.5,697.5 Z"/></g>
<g><path style="opacity:1" fill="#7b7d89" d="M 413.5,792.5 C 399.408,799.715 385.742,807.715 372.5,816.5C 371.761,816.631 371.094,816.464 370.5,816C 372.5,813.667 374.5,811.333 376.5,809C 377.899,808.405 379.232,808.572 380.5,809.5C 386.119,805.792 392.786,801.959 400.5,798C 399.549,797.282 399.383,796.449 400,795.5C 404.095,796.374 407.262,794.874 409.5,791C 411.463,790.156 412.796,790.656 413.5,792.5 Z"/></g>
<g><path style="opacity:1" fill="#7b7c89" d="M 534.5,810.5 C 541.097,824.683 550.763,836.35 563.5,845.5C 563.5,845.833 563.5,846.167 563.5,846.5C 562.448,846.649 561.448,846.483 560.5,846C 553.985,840.966 547.819,834.799 542,827.5C 540.168,828.858 538.335,829.192 536.5,828.5C 537.167,827.833 537.833,827.167 538.5,826.5C 538.37,820.783 536.37,815.616 532.5,811C 532.683,809.316 533.35,809.15 534.5,810.5 Z"/></g>
<g><path style="opacity:1" fill="#7b7d8a" d="M 297.5,841.5 C 305.011,851.665 313.344,861.165 322.5,870C 326.827,873.499 331.494,876.499 336.5,879C 341.331,881.062 346.331,881.729 351.5,881C 359.452,879.189 366.785,876.022 373.5,871.5C 374.239,871.369 374.906,871.536 375.5,872C 375.87,873.61 375.203,875.11 373.5,876.5C 371.958,877.747 370.458,877.747 369,876.5C 368.683,878.301 368.016,878.634 367,877.5C 363.142,878.972 360.309,880.972 358.5,883.5C 353.302,883.203 347.968,882.703 342.5,882C 338.285,881.476 334.452,879.976 331,877.5C 330.586,877.957 330.086,878.291 329.5,878.5C 323.188,872.383 316.355,866.05 309,859.5C 306.796,855.382 304.296,852.215 301.5,850C 300.668,849.312 300.002,849.479 299.5,850.5C 300.629,852.529 300.129,852.863 298,851.5C 297.313,849.432 297.48,847.432 298.5,845.5C 297.833,844.5 297.167,843.5 296.5,842.5C 296.624,841.893 296.957,841.56 297.5,841.5 Z"/></g>
<g><path style="opacity:1" fill="#848795" d="M 297.5,841.5 C 296.957,841.56 296.624,841.893 296.5,842.5C 297.167,843.5 297.833,844.5 298.5,845.5C 297.48,847.432 297.313,849.432 298,851.5C 300.129,852.863 300.629,852.529 299.5,850.5C 300.002,849.479 300.668,849.312 301.5,850C 304.296,852.215 306.796,855.382 309,859.5C 316.355,866.05 323.188,872.383 329.5,878.5C 330.086,878.291 330.586,877.957 331,877.5C 334.452,879.976 338.285,881.476 342.5,882C 347.968,882.703 353.302,883.203 358.5,883.5C 360.309,880.972 363.142,878.972 367,877.5C 368.016,878.634 368.683,878.301 369,876.5C 370.458,877.747 371.958,877.747 373.5,876.5C 375.203,875.11 375.87,873.61 375.5,872C 374.906,871.536 374.239,871.369 373.5,871.5C 383.102,865.358 392.769,859.191 402.5,853C 407.977,850.259 413.643,848.092 419.5,846.5C 418.15,847.65 418.316,848.317 420,848.5C 422.787,847.483 425.62,847.316 428.5,848C 429.833,848.667 429.833,849.333 428.5,850C 426.167,850.333 423.833,850.667 421.5,851C 426.693,851.884 431.026,853.217 434.5,855C 435.939,855.991 436.939,857.324 437.5,859C 441.257,859.358 444.424,860.858 447,863.5C 448.513,867.796 450.513,871.796 453,875.5C 454.415,884.7 456.082,884.7 458,875.5C 458.667,874.167 459.333,874.167 460,875.5C 461.601,878.005 463.101,881.171 464.5,885C 461.736,886.544 461.903,887.711 465,888.5C 465.667,890.167 465.667,891.833 465,893.5C 464.237,890.937 463.737,890.937 463.5,893.5C 463.824,895.569 464.658,895.902 466,894.5C 466.576,896.377 466.409,898.211 465.5,900C 466.871,902.319 467.538,904.819 467.5,907.5C 472.643,907.544 477.31,908.877 481.5,911.5C 482.5,911 483.5,910.5 484.5,910C 479.971,905.662 475.471,903.162 471,902.5C 470.65,898.326 469.983,894.326 469,890.5C 472.393,894.223 475.393,898.223 478,902.5C 478.667,903.833 479.333,903.833 480,902.5C 483.467,906.331 487.3,909.831 491.5,913C 489.171,914.995 489.838,916.162 493.5,916.5C 494.086,916.291 494.586,915.957 495,915.5C 497.097,919.386 500.097,922.386 504,924.5C 504.333,925.833 504.667,927.167 505,928.5C 508.199,927.764 508.365,928.597 505.5,931C 506.449,931.617 507.282,931.451 508,930.5C 508.492,931.549 508.326,932.549 507.5,933.5C 508.59,935.003 509.757,935.336 511,934.5C 513.045,938.903 514.045,943.57 514,948.5C 514.914,944.815 515.581,945.148 516,949.5C 516.784,957.037 516.617,964.537 515.5,972C 515.836,973.03 516.503,973.53 517.5,973.5C 515.501,982.831 513.501,992.164 511.5,1001.5C 499.5,1001.5 487.5,1001.5 475.5,1001.5C 482.221,984.757 483.054,967.757 478,950.5C 475.816,946.119 473.15,942.119 470,938.5C 454.775,923.605 439.275,909.105 423.5,895C 415.224,893.829 407.224,894.829 399.5,898C 386.373,904.565 373.04,910.565 359.5,916C 351.173,917.315 343.173,916.315 335.5,913C 322.054,904.053 310.387,893.22 300.5,880.5C 301.239,880.631 301.906,880.464 302.5,880C 297.478,874.314 291.811,869.314 285.5,865C 285.833,864.667 286.167,864.333 286.5,864C 283.243,863.545 280.909,861.879 279.5,859C 275.822,859.469 272.155,858.802 268.5,857C 260.833,856.667 253.167,856.333 245.5,856C 242.892,854.148 240.559,854.314 238.5,856.5C 233.565,855.552 228.565,855.219 223.5,855.5C 223.5,857.5 223.5,859.5 223.5,861.5C 222.167,861.5 220.833,861.5 219.5,861.5C 219.5,862.5 219.5,863.5 219.5,864.5C 222.564,864.144 225.231,864.977 227.5,867C 224.794,868.908 221.794,869.741 218.5,869.5C 218.5,868.5 218.5,867.5 218.5,866.5C 216.5,866.5 214.5,866.5 212.5,866.5C 212.5,867.5 212.5,868.5 212.5,869.5C 214.288,869.215 215.955,869.548 217.5,870.5C 216.289,871.72 216.289,872.887 217.5,874C 211.522,879.667 205.355,884.833 199,889.5C 196.548,893.052 194.382,896.719 192.5,900.5C 186.686,908.775 180.853,917.109 175,925.5C 160.04,948.874 149.873,974.207 144.5,1001.5C 129.167,1001.5 113.833,1001.5 98.5,1001.5C 99.7441,976.647 102.577,951.98 107,927.5C 109.007,919.314 113.173,912.481 119.5,907C 129.99,901.922 140.323,896.589 150.5,891C 172.858,871.971 195.192,852.971 217.5,834C 230.014,823.825 243.347,814.825 257.5,807C 259.649,806.421 261.815,805.921 264,805.5C 270.298,806.783 275.298,810.116 279,815.5C 284.44,824.723 290.606,833.39 297.5,841.5 Z"/></g>
<g><path style="opacity:1" fill="#80828f" d="M 300.5,880.5 C 294.25,873.748 287.25,867.915 279.5,863C 265.013,856.754 250.679,857.088 236.5,864C 230.5,867.667 224.5,871.333 218.5,875C 209.302,883.032 200.635,891.532 192.5,900.5C 194.382,896.719 196.548,893.052 199,889.5C 205.355,884.833 211.522,879.667 217.5,874C 216.289,872.887 216.289,871.72 217.5,870.5C 215.955,869.548 214.288,869.215 212.5,869.5C 212.5,868.5 212.5,867.5 212.5,866.5C 214.5,866.5 216.5,866.5 218.5,866.5C 218.5,867.5 218.5,868.5 218.5,869.5C 221.794,869.741 224.794,868.908 227.5,867C 225.231,864.977 222.564,864.144 219.5,864.5C 219.5,863.5 219.5,862.5 219.5,861.5C 220.833,861.5 222.167,861.5 223.5,861.5C 223.5,859.5 223.5,857.5 223.5,855.5C 228.565,855.219 233.565,855.552 238.5,856.5C 240.559,854.314 242.892,854.148 245.5,856C 253.167,856.333 260.833,856.667 268.5,857C 272.155,858.802 275.822,859.469 279.5,859C 280.909,861.879 283.243,863.545 286.5,864C 286.167,864.333 285.833,864.667 285.5,865C 291.811,869.314 297.478,874.314 302.5,880C 301.906,880.464 301.239,880.631 300.5,880.5 Z"/></g>
<g><path style="opacity:1" fill="#e9e5eb" d="M 300.5,880.5 C 310.387,893.22 322.054,904.053 335.5,913C 343.173,916.315 351.173,917.315 359.5,916C 373.04,910.565 386.373,904.565 399.5,898C 407.224,894.829 415.224,893.829 423.5,895C 439.275,909.105 454.775,923.605 470,938.5C 473.15,942.119 475.816,946.119 478,950.5C 483.054,967.757 482.221,984.757 475.5,1001.5C 461.167,1001.5 446.833,1001.5 432.5,1001.5C 433.808,997.224 434.808,992.89 435.5,988.5C 438.537,967.761 429.87,954.595 409.5,949C 402.783,948.244 396.117,948.411 389.5,949.5C 374.121,953.347 358.788,957.514 343.5,962C 334.351,963.556 325.684,962.223 317.5,958C 310.633,949.434 305.467,939.934 302,929.5C 291.421,914.789 277.255,905.456 259.5,901.5C 247.791,902.855 237.791,907.688 229.5,916C 207.947,940.609 193.947,969.109 187.5,1001.5C 173.167,1001.5 158.833,1001.5 144.5,1001.5C 149.873,974.207 160.04,948.874 175,925.5C 180.853,917.109 186.686,908.775 192.5,900.5C 200.635,891.532 209.302,883.032 218.5,875C 224.5,871.333 230.5,867.667 236.5,864C 250.679,857.088 265.013,856.754 279.5,863C 287.25,867.915 294.25,873.748 300.5,880.5 Z"/></g>
<g><path style="opacity:1" fill="#808391" d="M 517.5,973.5 C 516.503,973.53 515.836,973.03 515.5,972C 516.617,964.537 516.784,957.037 516,949.5C 515.581,945.148 514.914,944.815 514,948.5C 514.045,943.57 513.045,938.903 511,934.5C 509.757,935.336 508.59,935.003 507.5,933.5C 508.326,932.549 508.492,931.549 508,930.5C 507.282,931.451 506.449,931.617 505.5,931C 508.365,928.597 508.199,927.764 505,928.5C 504.667,927.167 504.333,925.833 504,924.5C 500.097,922.386 497.097,919.386 495,915.5C 494.586,915.957 494.086,916.291 493.5,916.5C 489.838,916.162 489.171,914.995 491.5,913C 487.3,909.831 483.467,906.331 480,902.5C 479.333,903.833 478.667,903.833 478,902.5C 475.393,898.223 472.393,894.223 469,890.5C 469.983,894.326 470.65,898.326 471,902.5C 475.471,903.162 479.971,905.662 484.5,910C 483.5,910.5 482.5,911 481.5,911.5C 477.31,908.877 472.643,907.544 467.5,907.5C 467.538,904.819 466.871,902.319 465.5,900C 466.409,898.211 466.576,896.377 466,894.5C 464.658,895.902 463.824,895.569 463.5,893.5C 463.737,890.937 464.237,890.937 465,893.5C 465.667,891.833 465.667,890.167 465,888.5C 461.903,887.711 461.736,886.544 464.5,885C 463.101,881.171 461.601,878.005 460,875.5C 459.333,874.167 458.667,874.167 458,875.5C 456.082,884.7 454.415,884.7 453,875.5C 450.513,871.796 448.513,867.796 447,863.5C 444.424,860.858 441.257,859.358 437.5,859C 436.939,857.324 435.939,855.991 434.5,855C 431.026,853.217 426.693,851.884 421.5,851C 423.833,850.667 426.167,850.333 428.5,850C 429.833,849.333 429.833,848.667 428.5,848C 425.62,847.316 422.787,847.483 420,848.5C 418.316,848.317 418.15,847.65 419.5,846.5C 434.783,842.646 446.616,847.313 455,860.5C 459.589,870.967 464.923,880.967 471,890.5C 483.336,903.169 496.002,915.502 509,927.5C 517.747,941.635 520.58,956.968 517.5,973.5 Z"/></g>
<g><path style="opacity:1" fill="#e3e1ea" d="M -0.5,863.5 C 0.866633,872.464 1.5333,881.63 1.5,891C 1.69679,898.07 1.03012,904.903 -0.5,911.5C -0.5,895.5 -0.5,879.5 -0.5,863.5 Z"/></g>
<g><path style="opacity:1" fill="#848795" d="M 389.5,949.5 C 389.97,950.693 390.97,951.36 392.5,951.5C 394.916,951.125 397.25,950.459 399.5,949.5C 402.688,950.772 405.855,951.106 409,950.5C 414.287,952.819 419.12,955.152 423.5,957.5C 424.681,958.515 425.681,959.681 426.5,961C 425.257,964.46 426.591,966.46 430.5,967C 433.233,969.93 433.9,973.264 432.5,977C 432.611,978.722 433.111,978.888 434,977.5C 434.177,981.356 434.677,985.023 435.5,988.5C 434.808,992.89 433.808,997.224 432.5,1001.5C 408.833,1001.5 385.167,1001.5 361.5,1001.5C 360.737,1000.73 359.737,1000.23 358.5,1000C 354.667,999.833 350.833,999.667 347,999.5C 335.838,1000.32 324.671,1000.48 313.5,1000C 301.44,998.726 291.94,993.226 285,983.5C 281.061,975.955 277.394,968.288 274,960.5C 267.464,953.826 259.964,952.66 251.5,957C 237.463,968.559 229.13,983.392 226.5,1001.5C 213.5,1001.5 200.5,1001.5 187.5,1001.5C 193.947,969.109 207.947,940.609 229.5,916C 237.791,907.688 247.791,902.855 259.5,901.5C 277.255,905.456 291.421,914.789 302,929.5C 305.467,939.934 310.633,949.434 317.5,958C 325.684,962.223 334.351,963.556 343.5,962C 358.788,957.514 374.121,953.347 389.5,949.5 Z"/></g>
<g><path style="opacity:1" fill="#7d7f8c" d="M 34.5,887.5 C 35.0323,892.141 35.3656,896.807 35.5,901.5C 35.0459,924.44 30.3792,946.44 21.5,967.5C 18.7149,965.391 18.8815,963.391 22,961.5C 23.4231,956.186 24.7565,950.853 26,945.5C 26.3333,946.167 26.6667,946.833 27,947.5C 27.6838,946.216 27.5171,945.049 26.5,944C 28.2625,940.037 29.7625,935.87 31,931.5C 31.1432,927.381 31.8099,923.381 33,919.5C 33.1696,908.659 33.6696,897.992 34.5,887.5 Z"/></g>
<g><path style="opacity:1" fill="#e9e5eb" d="M 361.5,1001.5 C 316.5,1001.5 271.5,1001.5 226.5,1001.5C 229.13,983.392 237.463,968.559 251.5,957C 259.964,952.66 267.464,953.826 274,960.5C 277.394,968.288 281.061,975.955 285,983.5C 291.94,993.226 301.44,998.726 313.5,1000C 324.671,1000.48 335.838,1000.32 347,999.5C 350.833,999.667 354.667,999.833 358.5,1000C 359.737,1000.23 360.737,1000.73 361.5,1001.5 Z"/></g>
<g><path style="opacity:1" fill="#7c7e8a" d="M 435.5,988.5 C 434.677,985.023 434.177,981.356 434,977.5C 433.111,978.888 432.611,978.722 432.5,977C 433.9,973.264 433.233,969.93 430.5,967C 426.591,966.46 425.257,964.46 426.5,961C 425.681,959.681 424.681,958.515 423.5,957.5C 419.12,955.152 414.287,952.819 409,950.5C 405.855,951.106 402.688,950.772 399.5,949.5C 397.25,950.459 394.916,951.125 392.5,951.5C 390.97,951.36 389.97,950.693 389.5,949.5C 396.117,948.411 402.783,948.244 409.5,949C 429.87,954.595 438.537,967.761 435.5,988.5 Z"/></g>
</svg>
