<?xml version="1.0" encoding="UTF-8"?>
<!DOCTYPE svg PUBLIC "-//W3C//DTD SVG 1.1//EN" "http://www.w3.org/Graphics/SVG/1.1/DTD/svg11.dtd">
<svg xmlns="http://www.w3.org/2000/svg" version="1.1" width="736px" height="1308px" style="shape-rendering:geometricPrecision; text-rendering:geometricPrecision; image-rendering:optimizeQuality; fill-rule:evenodd; clip-rule:evenodd" xmlns:xlink="http://www.w3.org/1999/xlink">
<g><path style="opacity:1" fill="#2d2d2e" d="M -0.5,-0.5 C 13.1667,-0.5 26.8333,-0.5 40.5,-0.5C 40.8974,3.7371 43.064,6.7371 47,8.5C 54,16.8333 61,25.1667 68,33.5C 75.4145,46.3774 82.0812,59.7107 88,73.5C 92.0972,80.5943 97.2639,86.761 103.5,92C 109.793,95.0821 116.126,95.0821 122.5,92C 127.39,89.0458 131.723,85.3792 135.5,81C 138.243,78.9617 141.243,77.4617 144.5,76.5C 147.395,76.2717 150.395,76.2717 153.5,76.5C 154.216,75.689 155.05,75.0223 156,74.5C 158.434,75.3223 160.934,75.6556 163.5,75.5C 171.556,77.6845 179.556,80.1845 187.5,83C 202.377,88.5984 215.21,97.0984 226,108.5C 228.446,112.394 230.612,116.394 232.5,120.5C 233.2,124.798 233.533,129.131 233.5,133.5C 231.908,139.356 229.742,145.023 227,150.5C 212.508,173.149 199.841,196.815 189,221.5C 182.083,231.088 174.416,240.088 166,248.5C 164.572,257.249 168.405,261.582 177.5,261.5C 180.5,261 183.5,260.5 186.5,260C 189.186,258.632 191.853,257.299 194.5,256C 210.02,239.811 224.853,222.978 239,205.5C 244.166,200.154 249.999,195.821 256.5,192.5C 262.464,191.693 268.464,191.36 274.5,191.5C 279.313,192.493 283.98,193.993 288.5,196C 298.963,201.234 309.63,205.9 320.5,210C 331.806,215.648 341.639,223.148 350,232.5C 351.299,235.147 352.632,237.814 354,240.5C 355.492,245.411 355.826,250.411 355,255.5C 347.989,271.854 339.656,287.521 330,302.5C 323.113,318.397 315.78,334.064 308,349.5C 305.5,352.667 303,355.833 300.5,359C 296.664,361.084 292.997,363.417 289.5,366C 277.22,371.092 265.22,376.759 253.5,383C 248.641,387.196 243.808,391.363 239,395.5C 235.333,400.833 231.667,406.167 228,411.5C 220.069,427.216 212.736,443.216 206,459.5C 200.107,469.059 193.107,477.726 185,485.5C 181.511,490.205 181.677,494.705 185.5,499C 190.746,500.506 196.079,500.839 201.5,500C 205.295,498.269 208.962,496.269 212.5,494C 224.409,480.418 236.743,467.085 249.5,454C 268.088,437.638 288.421,435.305 310.5,447C 319.705,453.205 327.205,461.038 333,470.5C 342.886,489.94 352.553,509.607 362,529.5C 366.532,534.367 371.366,538.867 376.5,543C 389.784,549.807 403.451,555.807 417.5,561C 433.959,567.103 446.792,577.603 456,592.5C 463.069,606.41 469.736,620.41 476,634.5C 479.667,640.5 483.333,646.5 487,652.5C 496.562,664.845 509.062,671.845 524.5,673.5C 528.311,674.645 532.311,674.812 536.5,674C 537.056,673.617 537.389,673.117 537.5,672.5C 541.351,671.157 544.517,668.823 547,665.5C 551.523,658.455 555.523,651.122 559,643.5C 561.854,639.65 565.021,636.15 568.5,633C 570.677,631.485 572.844,629.985 575,628.5C 588.959,633.681 602.125,632.181 614.5,624C 632.072,606.929 648.405,588.762 663.5,569.5C 672.48,561.666 682.813,559.166 694.5,562C 705.422,565.858 715.755,570.858 725.5,577C 728.618,578.727 731.951,579.561 735.5,579.5C 735.5,626.5 735.5,673.5 735.5,720.5C 709.523,730.956 688.69,747.956 673,771.5C 668.183,780.296 663.183,788.963 658,797.5C 652.684,809.47 647.35,821.47 642,833.5C 637.666,840.652 632.499,846.986 626.5,852.5C 625.883,852.389 625.383,852.056 625,851.5C 622.194,854.306 619.36,857.14 616.5,860C 616.113,864.767 616.613,869.601 618,874.5C 618.77,875.598 619.603,875.598 620.5,874.5C 631.363,876.759 641.03,874.259 649.5,867C 664.336,850.192 678.836,833.025 693,815.5C 704.696,803.382 718.863,799.382 735.5,803.5C 735.5,903.5 735.5,1003.5 735.5,1103.5C 727.525,1102.51 720.525,1099.35 714.5,1094C 704.701,1081.97 693.867,1070.8 682,1060.5C 673,1049.5 664,1038.5 655,1027.5C 653.546,1024.93 652.38,1022.26 651.5,1019.5C 651.618,1017.04 651.951,1014.54 652.5,1012C 650.978,1007.8 649.978,1003.47 649.5,999C 650.714,996.649 651.548,994.149 652,991.5C 652.741,990.359 653.575,990.359 654.5,991.5C 655.313,987.838 655.979,984.172 656.5,980.5C 663.543,972.438 671.043,964.772 679,957.5C 687.825,946.186 693.658,933.519 696.5,919.5C 697.86,914.261 697.693,908.928 696,903.5C 695.617,904.056 695.117,904.389 694.5,904.5C 686.819,895.675 678.485,895.175 669.5,903C 664.916,908.576 660.749,914.41 657,920.5C 652.148,934.405 646.148,947.738 639,960.5C 626.871,973.91 613.038,976.077 597.5,967C 581.6,949.111 568.1,929.611 557,908.5C 551.412,900.91 544.579,894.744 536.5,890C 529.725,882.92 523.559,875.42 518,867.5C 512.707,862.459 507.207,857.793 501.5,853.5C 501.631,852.624 501.298,851.957 500.5,851.5C 497.257,850.985 494.424,849.652 492,847.5C 491.667,847.833 491.333,848.167 491,848.5C 489.116,847.023 487.116,845.69 485,844.5C 484.617,845.056 484.117,845.389 483.5,845.5C 473.652,841.19 466.985,833.857 463.5,823.5C 462.704,811.876 462.538,800.209 463,788.5C 463.667,785.167 464.333,781.833 465,778.5C 465.333,778.833 465.667,779.167 466,779.5C 466.833,776.667 468.667,774.833 471.5,774C 468.833,772.333 468.833,770.667 471.5,769C 470.748,768.329 470.414,767.496 470.5,766.5C 471.572,762.244 473.739,758.578 477,755.5C 478.435,751.966 479.268,748.299 479.5,744.5C 478.44,736.822 476.274,729.489 473,722.5C 473.309,706.893 468.976,692.893 460,680.5C 451.658,672.325 443.492,663.992 435.5,655.5C 434.548,653.888 434.214,652.388 434.5,651C 431.301,649.997 428.801,648.163 427,645.5C 426.014,646.171 424.847,646.171 423.5,645.5C 412.591,639.213 401.258,633.713 389.5,629C 375.767,622.263 364.934,612.43 357,599.5C 353.534,589.301 350.534,578.968 348,568.5C 346.782,565.442 344.949,562.776 342.5,560.5C 329.628,547.463 315.962,535.296 301.5,524C 296.31,521.573 291.31,518.906 286.5,516C 281.455,514.425 276.455,513.259 271.5,512.5C 269.603,511.195 267.269,510.529 264.5,510.5C 260.305,510.039 256.638,511.039 253.5,513.5C 244.616,516.181 237.116,521.181 231,528.5C 221.944,545.283 213.944,562.616 207,580.5C 200.481,593.347 189.981,600.014 175.5,600.5C 166.751,600.453 159.084,597.62 152.5,592C 132.462,573.64 114.295,553.806 98,532.5C 88.4735,517.037 88.1402,501.37 97,485.5C 108.019,474.479 118.352,462.812 128,450.5C 134.246,439.016 139.08,427.016 142.5,414.5C 143.222,414.082 143.722,413.416 144,412.5C 144.814,407.98 144.647,403.646 143.5,399.5C 142.628,394.645 139.628,392.311 134.5,392.5C 123.177,394.493 114.177,400.159 107.5,409.5C 102.401,417.806 98.0676,426.473 94.5,435.5C 92.461,436.911 91.461,438.911 91.5,441.5C 88.8046,451.365 84.1379,460.199 77.5,468C 67.857,475.827 56.857,478.493 44.5,476C 41.3388,474.587 38.3388,472.92 35.5,471C 28.1978,462.697 20.5311,454.697 12.5,447C 8.3812,444.274 4.04786,442.107 -0.5,440.5C -0.5,397.5 -0.5,354.5 -0.5,311.5C 5.78295,309.528 11.7829,306.695 17.5,303C 41.3202,284.846 62.1535,263.679 80,239.5C 83.0075,237.914 85.5075,235.747 87.5,233C 96.3167,228.948 105.317,225.282 114.5,222C 121.085,216.643 123.251,209.809 121,201.5C 113.463,189.958 104.463,179.625 94,170.5C 92.2765,168.283 90.7765,165.95 89.5,163.5C 88.162,157.147 86.662,150.814 85,144.5C 84.6174,143.944 84.1174,143.611 83.5,143.5C 81.8726,136.209 78.8726,129.542 74.5,123.5C 62.8297,111.663 50.8297,100.163 38.5,89C 26.5013,81.5001 13.5013,76.6668 -0.5,74.5C -0.5,49.5 -0.5,24.5 -0.5,-0.5 Z"/></g>
<g><path style="opacity:1" fill="#2d2d2e" d="M 85.5,-0.5 C 137.5,-0.5 189.5,-0.5 241.5,-0.5C 242.363,22.2263 250.196,42.2263 265,59.5C 268.408,62.4532 271.908,65.2865 275.5,68C 293.653,76.5739 311.987,84.9073 330.5,93C 339.333,99.1667 346.833,106.667 353,115.5C 362.318,133.469 371.652,151.469 381,169.5C 385.824,175.408 391.991,179.408 399.5,181.5C 404.792,181.067 409.292,179.067 413,175.5C 420.096,162.503 420.096,149.503 413,136.5C 410.5,134 408,131.5 405.5,129C 392.116,120.948 380.616,110.782 371,98.5C 355.983,84.4822 341.983,69.4822 329,53.5C 325.377,48.5884 322.544,43.255 320.5,37.5C 320.597,32.9698 320.264,28.4698 319.5,24C 320.234,19.8333 320.9,15.6666 321.5,11.5C 321.958,7.46163 322.624,3.46163 323.5,-0.5C 391.5,-0.5 459.5,-0.5 527.5,-0.5C 527.428,5.54534 527.928,11.5453 529,17.5C 529.122,19.437 529.955,20.7703 531.5,21.5C 536.103,37.7077 543.603,52.3744 554,65.5C 557.833,68.6667 561.667,71.8333 565.5,75C 579.481,82.1575 593.814,88.4909 608.5,94C 623.021,99.8559 634.521,109.356 643,122.5C 649.581,132.996 655.081,143.996 659.5,155.5C 659.343,156.873 659.51,158.207 660,159.5C 662.654,163.839 664.32,168.172 665,172.5C 665.667,175.167 666.333,175.167 667,172.5C 667.494,174.134 667.66,175.801 667.5,177.5C 668.5,177.5 669.5,177.5 670.5,177.5C 670.354,180.554 671.687,182.554 674.5,183.5C 682.091,192.487 691.424,199.32 702.5,204C 713.134,208.574 724.134,211.74 735.5,213.5C 735.5,240.167 735.5,266.833 735.5,293.5C 711.814,290.78 690.814,281.946 672.5,267C 668.631,263.466 665.131,259.633 662,255.5C 658.944,245.313 656.611,234.98 655,224.5C 643.585,207.58 629.752,192.747 613.5,180C 599.391,171.612 584.724,164.279 569.5,158C 560.139,152.643 551.972,145.809 545,137.5C 543.546,134.929 542.38,132.262 541.5,129.5C 541.963,126.629 541.963,123.796 541.5,121C 540.259,119.302 538.926,117.802 537.5,116.5C 536.692,110.286 535.192,104.286 533,98.5C 526.282,90.7844 519.282,83.4511 512,76.5C 510.906,74.9221 510.072,73.2554 509.5,71.5C 509.649,70.448 509.483,69.448 509,68.5C 507.638,67.0753 506.138,66.242 504.5,66C 504.833,65.6667 505.167,65.3333 505.5,65C 502.397,64.3984 500.397,62.5651 499.5,59.5C 498.311,58.5713 496.978,58.238 495.5,58.5C 489.09,54.0944 482.424,50.0944 475.5,46.5C 477.172,43.6629 476.506,42.9962 473.5,44.5C 472.304,44.1543 472.304,43.6543 473.5,43C 471.273,42.879 469.44,42.0456 468,40.5C 467.439,41.0219 466.772,41.3552 466,41.5C 461.33,40.8128 456.497,39.8128 451.5,38.5C 449.117,38.361 447.117,39.0277 445.5,40.5C 437.346,41.7936 434.513,46.4603 437,54.5C 438.115,58.7293 439.781,62.7293 442,66.5C 448.337,74.1782 455.837,80.3449 464.5,85C 475.864,90.0171 487.197,95.0171 498.5,100C 508.353,106.188 516.187,114.354 522,124.5C 524.863,130.606 525.03,136.606 522.5,142.5C 520.506,147.309 517.839,151.809 514.5,156C 515.354,157.881 515.021,159.714 513.5,161.5C 511.097,164.567 508.097,166.9 504.5,168.5C 505.616,168.402 506.616,168.902 507.5,170C 505.608,171.313 505.274,172.813 506.5,174.5C 495.512,192.145 486.345,210.812 479,230.5C 472.71,238.792 466.043,246.792 459,254.5C 458.365,256.618 457.531,258.618 456.5,260.5C 457.046,262.135 457.38,263.801 457.5,265.5C 466.659,267.708 475.326,266.541 483.5,262C 501.727,244.941 518.727,226.774 534.5,207.5C 542.455,199.193 552.122,196.026 563.5,198C 583.916,205.537 603.916,214.204 623.5,224C 633.871,230.534 641.537,239.367 646.5,250.5C 646.253,253.939 646.586,257.272 647.5,260.5C 644.863,268.785 641.363,276.785 637,284.5C 622.711,305.4 610.711,327.734 601,351.5C 592.925,362.127 583.092,370.794 571.5,377.5C 552.696,392.39 548.529,410.723 559,432.5C 561.537,435.372 564.37,437.872 567.5,440C 583.677,445.614 599.677,451.614 615.5,458C 621.532,461.348 627.532,464.681 633.5,468C 642.623,475.116 649.456,483.949 654,494.5C 654.667,496.833 654.667,499.167 654,501.5C 651.941,505.677 650.274,510.01 649,514.5C 632.869,540.422 618.536,567.422 606,595.5C 596.906,607.725 585.573,617.392 572,624.5C 561.875,619.042 554.542,611.042 550,600.5C 546.947,598.57 544.447,596.07 542.5,593C 538.369,591.133 534.036,590.3 529.5,590.5C 517.453,591.923 505.453,591.757 493.5,590C 489.289,588.402 485.622,586.068 482.5,583C 465.91,567.08 450.077,550.58 435,533.5C 431.667,528.833 428.333,524.167 425,519.5C 424.517,518.552 424.351,517.552 424.5,516.5C 423.123,509.193 422.123,501.859 421.5,494.5C 422.276,487.533 424.776,481.2 429,475.5C 442.19,464.423 453.523,451.756 463,437.5C 471.712,420.039 480.046,402.372 488,384.5C 491.333,379.833 494.667,375.167 498,370.5C 513.987,357.508 525.82,341.508 533.5,322.5C 534.79,321.942 535.623,320.942 536,319.5C 536.667,314.167 536.667,308.833 536,303.5C 535.722,302.584 535.222,301.918 534.5,301.5C 529.524,292.603 522.19,290.103 512.5,294C 506.06,298.718 500.894,304.552 497,311.5C 490.672,325.49 484.339,339.49 478,353.5C 469.697,362.886 460.197,370.719 449.5,377C 445.695,381.141 441.862,385.307 438,389.5C 430.761,407.087 424.428,425.087 419,443.5C 416.488,448.009 414.155,452.675 412,457.5C 395.578,472.576 378.745,473.076 361.5,459C 349.358,447.191 337.525,435.024 326,422.5C 318.031,410.326 315.031,396.993 317,382.5C 318.473,378.221 320.473,374.221 323,370.5C 329.698,363.027 336.698,356.027 344,349.5C 351.418,338.541 359.918,328.375 369.5,319C 378.4,312.291 388.4,308.291 399.5,307C 409.973,303.529 416.64,296.529 419.5,286C 419.182,281.677 417.182,278.343 413.5,276C 404.819,271.89 396.486,267.224 388.5,262C 382.97,257.636 377.97,252.802 373.5,247.5C 373.665,244.482 373.498,241.482 373,238.5C 372.667,239.5 372.333,240.5 372,241.5C 370.559,233.358 368.893,225.025 367,216.5C 365.641,215.635 364.474,214.635 363.5,213.5C 349.994,197.495 334.994,182.995 318.5,170C 302.834,162.896 287.5,155.229 272.5,147C 255.239,136.313 246.406,120.813 246,100.5C 244.914,97.0848 243.581,93.7514 242,90.5C 228.478,73.6453 212.978,58.8119 195.5,46C 176.301,34.3492 155.634,30.5158 133.5,34.5C 130.212,34.927 127.212,34.2603 124.5,32.5C 121.897,33.5617 119.23,33.7284 116.5,33C 113.28,31.6476 109.947,30.8143 106.5,30.5C 100.948,27.7874 96.4485,23.7874 93,18.5C 89.7148,12.414 87.2148,6.08067 85.5,-0.5 Z"/></g>
<g><path style="opacity:1" fill="#49484d" d="M 527.5,-0.5 C 527.833,-0.5 528.167,-0.5 528.5,-0.5C 528.535,6.97076 529.535,14.3041 531.5,21.5C 529.955,20.7703 529.122,19.437 529,17.5C 527.928,11.5453 527.428,5.54534 527.5,-0.5 Z"/></g>
<g><path style="opacity:1" fill="#2d2d2e" d="M 619.5,-0.5 C 645.833,-0.5 672.167,-0.5 698.5,-0.5C 695.841,5.565 695.008,11.8983 696,18.5C 696.883,21.1024 698.383,23.2691 700.5,25C 704.562,26.3457 708.728,27.179 713,27.5C 720.584,26.5613 728.084,25.228 735.5,23.5C 735.5,47.1667 735.5,70.8333 735.5,94.5C 729.938,96.8919 725.772,100.892 723,106.5C 718.093,112.078 712.593,116.911 706.5,121C 698.269,123.869 689.936,124.202 681.5,122C 675.471,119.321 670.138,115.654 665.5,111C 655.054,100.045 644.554,89.212 634,78.5C 626.948,69.7817 620.281,60.7817 614,51.5C 611.49,46.8053 610.323,41.8053 610.5,36.5C 610.858,32.4908 611.358,28.4908 612,24.5C 612.333,26.1667 612.667,27.8333 613,29.5C 612.417,23.326 613.251,17.326 615.5,11.5C 616.552,11.6495 617.552,11.4828 618.5,11C 619.061,9.32398 620.061,7.99064 621.5,7C 619.709,4.89382 619.042,2.39382 619.5,-0.5 Z"/></g>
<g><path style="opacity:1" fill="#e9e8ec" d="M 698.5,-0.5 C 710.833,-0.5 723.167,-0.5 735.5,-0.5C 735.5,7.5 735.5,15.5 735.5,23.5C 728.084,25.228 720.584,26.5613 713,27.5C 708.728,27.179 704.562,26.3457 700.5,25C 698.383,23.2691 696.883,21.1024 696,18.5C 695.008,11.8983 695.841,5.565 698.5,-0.5 Z"/></g>
<g><path style="opacity:1" fill="#4f4e52" d="M 321.5,11.5 C 320.9,15.6666 320.234,19.8333 319.5,24C 320.264,28.4698 320.597,32.9698 320.5,37.5C 318.027,29.3584 317.861,21.0251 320,12.5C 320.383,11.944 320.883,11.6107 321.5,11.5 Z"/></g>
<g><path style="opacity:1" fill="#434346" d="M 618.5,-0.5 C 618.833,-0.5 619.167,-0.5 619.5,-0.5C 619.042,2.39382 619.709,4.89382 621.5,7C 620.061,7.99064 619.061,9.32398 618.5,11C 617.552,11.4828 616.552,11.6495 615.5,11.5C 613.251,17.326 612.417,23.326 613,29.5C 612.667,27.8333 612.333,26.1667 612,24.5C 611.358,28.4908 610.858,32.4908 610.5,36.5C 609.416,31.6323 609.583,26.6323 611,21.5C 613.804,14.235 616.304,6.90168 618.5,-0.5 Z"/></g>
<g><path style="opacity:1" fill="#4b4a4f" d="M 106.5,30.5 C 109.947,30.8143 113.28,31.6476 116.5,33C 119.23,33.7284 121.897,33.5617 124.5,32.5C 127.212,34.2603 130.212,34.927 133.5,34.5C 131.866,35.1611 130.033,35.4944 128,35.5C 122.83,35.033 117.663,34.533 112.5,34C 110.273,33.059 108.273,31.8923 106.5,30.5 Z"/></g>
<g><path style="opacity:1" fill="#404042" d="M 475.5,46.5 C 465.871,42.623 455.871,40.623 445.5,40.5C 447.117,39.0277 449.117,38.361 451.5,38.5C 456.497,39.8128 461.33,40.8128 466,41.5C 466.772,41.3552 467.439,41.0219 468,40.5C 469.44,42.0456 471.273,42.879 473.5,43C 472.304,43.6543 472.304,44.1543 473.5,44.5C 476.506,42.9962 477.172,43.6629 475.5,46.5 Z"/></g>
<g><path style="opacity:1" fill="#474749" d="M 495.5,58.5 C 496.978,58.238 498.311,58.5713 499.5,59.5C 500.397,62.5651 502.397,64.3984 505.5,65C 505.167,65.3333 504.833,65.6667 504.5,66C 506.138,66.242 507.638,67.0753 509,68.5C 509.483,69.448 509.649,70.448 509.5,71.5C 503.567,68.533 498.9,64.1997 495.5,58.5 Z"/></g>
<g><path style="opacity:1" fill="#e8e8ec" d="M 241.5,-0.5 C 268.833,-0.5 296.167,-0.5 323.5,-0.5C 322.624,3.46163 321.958,7.46163 321.5,11.5C 320.883,11.6107 320.383,11.944 320,12.5C 317.861,21.0251 318.027,29.3584 320.5,37.5C 322.544,43.255 325.377,48.5884 329,53.5C 341.983,69.4822 355.983,84.4822 371,98.5C 380.616,110.782 392.116,120.948 405.5,129C 408,131.5 410.5,134 413,136.5C 420.096,149.503 420.096,162.503 413,175.5C 409.292,179.067 404.792,181.067 399.5,181.5C 391.991,179.408 385.824,175.408 381,169.5C 371.652,151.469 362.318,133.469 353,115.5C 346.833,106.667 339.333,99.1667 330.5,93C 311.987,84.9073 293.653,76.5739 275.5,68C 271.908,65.2865 268.408,62.4532 265,59.5C 250.196,42.2263 242.363,22.2263 241.5,-0.5 Z"/></g>
<g><path style="opacity:1" fill="#e9e8ec" d="M 528.5,-0.5 C 558.5,-0.5 588.5,-0.5 618.5,-0.5C 616.304,6.90168 613.804,14.235 611,21.5C 609.583,26.6323 609.416,31.6323 610.5,36.5C 610.323,41.8053 611.49,46.8053 614,51.5C 620.281,60.7817 626.948,69.7817 634,78.5C 644.554,89.212 655.054,100.045 665.5,111C 670.138,115.654 675.471,119.321 681.5,122C 689.936,124.202 698.269,123.869 706.5,121C 712.593,116.911 718.093,112.078 723,106.5C 725.772,100.892 729.938,96.8919 735.5,94.5C 735.5,134.167 735.5,173.833 735.5,213.5C 724.134,211.74 713.134,208.574 702.5,204C 691.424,199.32 682.091,192.487 674.5,183.5C 668.931,174.355 663.931,165.022 659.5,155.5C 655.081,143.996 649.581,132.996 643,122.5C 634.521,109.356 623.021,99.8559 608.5,94C 593.814,88.4909 579.481,82.1575 565.5,75C 561.667,71.8333 557.833,68.6667 554,65.5C 543.603,52.3744 536.103,37.7077 531.5,21.5C 529.535,14.3041 528.535,6.97076 528.5,-0.5 Z"/></g>
<g><path style="opacity:1" fill="#2d2d2e" d="M -0.5,115.5 C 16.1035,119.426 32.1035,125.259 47.5,133C 57.6171,140.108 65.1171,149.275 70,160.5C 70.3513,167.462 69.0179,174.128 66,180.5C 59.4342,193.401 52.4342,206.068 45,218.5C 38.2734,233.62 31.2734,248.62 24,263.5C 17.9341,272.754 9.76746,279.088 -0.5,282.5C -0.5,226.833 -0.5,171.167 -0.5,115.5 Z"/></g>
<g><path style="opacity:1" fill="#474749" d="M 537.5,116.5 C 538.926,117.802 540.259,119.302 541.5,121C 541.963,123.796 541.963,126.629 541.5,129.5C 538.793,125.693 537.46,121.36 537.5,116.5 Z"/></g>
<g><path style="opacity:1" fill="#525256" d="M 232.5,120.5 C 235.958,124.639 236.291,128.972 233.5,133.5C 233.533,129.131 233.2,124.798 232.5,120.5 Z"/></g>
<g><path style="opacity:1" fill="#4d4d4f" d="M 83.5,143.5 C 84.1174,143.611 84.6174,143.944 85,144.5C 86.662,150.814 88.162,157.147 89.5,163.5C 88.6851,162.571 87.8518,161.571 87,160.5C 85.6707,154.852 84.504,149.185 83.5,143.5 Z"/></g>
<g><path style="opacity:1" fill="#e8e7ec" d="M -0.5,74.5 C 13.5013,76.6668 26.5013,81.5001 38.5,89C 50.8297,100.163 62.8297,111.663 74.5,123.5C 78.8726,129.542 81.8726,136.209 83.5,143.5C 84.504,149.185 85.6707,154.852 87,160.5C 87.8518,161.571 88.6851,162.571 89.5,163.5C 90.7765,165.95 92.2765,168.283 94,170.5C 104.463,179.625 113.463,189.958 121,201.5C 123.251,209.809 121.085,216.643 114.5,222C 105.317,225.282 96.3167,228.948 87.5,233C 85.5075,235.747 83.0075,237.914 80,239.5C 62.1535,263.679 41.3202,284.846 17.5,303C 11.7829,306.695 5.78295,309.528 -0.5,311.5C -0.5,301.833 -0.5,292.167 -0.5,282.5C 9.76746,279.088 17.9341,272.754 24,263.5C 31.2734,248.62 38.2734,233.62 45,218.5C 52.4342,206.068 59.4342,193.401 66,180.5C 69.0179,174.128 70.3513,167.462 70,160.5C 65.1171,149.275 57.6171,140.108 47.5,133C 32.1035,125.259 16.1035,119.426 -0.5,115.5C -0.5,101.833 -0.5,88.1667 -0.5,74.5 Z"/></g>
<g><path style="opacity:1" fill="#444446" d="M 659.5,155.5 C 663.931,165.022 668.931,174.355 674.5,183.5C 671.687,182.554 670.354,180.554 670.5,177.5C 669.5,177.5 668.5,177.5 667.5,177.5C 667.66,175.801 667.494,174.134 667,172.5C 666.333,175.167 665.667,175.167 665,172.5C 664.32,168.172 662.654,163.839 660,159.5C 659.51,158.207 659.343,156.873 659.5,155.5 Z"/></g>
<g><path style="opacity:1" fill="#e7e7eb" d="M 225.5,283.5 C 234.59,282.016 241.09,285.35 245,293.5C 246.203,307.147 243.203,319.814 236,331.5C 232.054,337.779 227.721,343.779 223,349.5C 217.506,353.995 212.339,358.828 207.5,364C 201.992,367.255 196.325,370.255 190.5,373C 186.833,373.667 183.167,373.667 179.5,373C 177.496,370.159 176.996,366.993 178,363.5C 182.405,357.648 186.072,351.315 189,344.5C 194.678,331.146 200.345,317.813 206,304.5C 209.581,299.672 212.915,294.672 216,289.5C 219.34,287.637 222.507,285.637 225.5,283.5 Z"/></g>
<g><path style="opacity:1" fill="#e8e7ec" d="M 40.5,-0.5 C 55.5,-0.5 70.5,-0.5 85.5,-0.5C 87.2148,6.08067 89.7148,12.414 93,18.5C 96.4485,23.7874 100.948,27.7874 106.5,30.5C 108.273,31.8923 110.273,33.059 112.5,34C 117.663,34.533 122.83,35.033 128,35.5C 130.033,35.4944 131.866,35.1611 133.5,34.5C 155.634,30.5158 176.301,34.3492 195.5,46C 212.978,58.8119 228.478,73.6453 242,90.5C 243.581,93.7514 244.914,97.0848 246,100.5C 246.406,120.813 255.239,136.313 272.5,147C 287.5,155.229 302.834,162.896 318.5,170C 334.994,182.995 349.994,197.495 363.5,213.5C 366.481,221.152 368.314,229.152 369,237.5C 370.232,241.061 371.732,244.394 373.5,247.5C 377.97,252.802 382.97,257.636 388.5,262C 396.486,267.224 404.819,271.89 413.5,276C 417.182,278.343 419.182,281.677 419.5,286C 416.64,296.529 409.973,303.529 399.5,307C 388.4,308.291 378.4,312.291 369.5,319C 359.918,328.375 351.418,338.541 344,349.5C 336.698,356.027 329.698,363.027 323,370.5C 320.473,374.221 318.473,378.221 317,382.5C 315.031,396.993 318.031,410.326 326,422.5C 337.525,435.024 349.358,447.191 361.5,459C 378.745,473.076 395.578,472.576 412,457.5C 414.155,452.675 416.488,448.009 419,443.5C 424.428,425.087 430.761,407.087 438,389.5C 441.862,385.307 445.695,381.141 449.5,377C 460.197,370.719 469.697,362.886 478,353.5C 484.339,339.49 490.672,325.49 497,311.5C 500.894,304.552 506.06,298.718 512.5,294C 522.19,290.103 529.524,292.603 534.5,301.5C 535.718,308.551 535.385,315.551 533.5,322.5C 525.82,341.508 513.987,357.508 498,370.5C 494.667,375.167 491.333,379.833 488,384.5C 480.046,402.372 471.712,420.039 463,437.5C 453.523,451.756 442.19,464.423 429,475.5C 424.776,481.2 422.276,487.533 421.5,494.5C 419.752,502.173 420.752,509.506 424.5,516.5C 424.351,517.552 424.517,518.552 425,519.5C 428.333,524.167 431.667,528.833 435,533.5C 450.077,550.58 465.91,567.08 482.5,583C 485.622,586.068 489.289,588.402 493.5,590C 505.453,591.757 517.453,591.923 529.5,590.5C 534.036,590.3 538.369,591.133 542.5,593C 544.447,596.07 546.947,598.57 550,600.5C 554.542,611.042 561.875,619.042 572,624.5C 585.573,617.392 596.906,607.725 606,595.5C 618.536,567.422 632.869,540.422 649,514.5C 650.274,510.01 651.941,505.677 654,501.5C 654.667,499.167 654.667,496.833 654,494.5C 649.456,483.949 642.623,475.116 633.5,468C 627.532,464.681 621.532,461.348 615.5,458C 599.677,451.614 583.677,445.614 567.5,440C 564.37,437.872 561.537,435.372 559,432.5C 548.529,410.723 552.696,392.39 571.5,377.5C 583.092,370.794 592.925,362.127 601,351.5C 610.711,327.734 622.711,305.4 637,284.5C 641.363,276.785 644.863,268.785 647.5,260.5C 648.865,257.041 648.531,253.708 646.5,250.5C 641.537,239.367 633.871,230.534 623.5,224C 603.916,214.204 583.916,205.537 563.5,198C 552.122,196.026 542.455,199.193 534.5,207.5C 518.727,226.774 501.727,244.941 483.5,262C 475.326,266.541 466.659,267.708 457.5,265.5C 457.38,263.801 457.046,262.135 456.5,260.5C 457.531,258.618 458.365,256.618 459,254.5C 466.043,246.792 472.71,238.792 479,230.5C 486.345,210.812 495.512,192.145 506.5,174.5C 513.946,164.942 519.279,154.276 522.5,142.5C 525.03,136.606 524.863,130.606 522,124.5C 516.187,114.354 508.353,106.188 498.5,100C 487.197,95.0171 475.864,90.0171 464.5,85C 455.837,80.3449 448.337,74.1782 442,66.5C 439.781,62.7293 438.115,58.7293 437,54.5C 434.513,46.4603 437.346,41.7936 445.5,40.5C 455.871,40.623 465.871,42.623 475.5,46.5C 482.424,50.0944 489.09,54.0944 495.5,58.5C 498.9,64.1997 503.567,68.533 509.5,71.5C 510.072,73.2554 510.906,74.9221 512,76.5C 519.282,83.4511 526.282,90.7844 533,98.5C 535.192,104.286 536.692,110.286 537.5,116.5C 537.46,121.36 538.793,125.693 541.5,129.5C 542.38,132.262 543.546,134.929 545,137.5C 551.972,145.809 560.139,152.643 569.5,158C 584.724,164.279 599.391,171.612 613.5,180C 629.752,192.747 643.585,207.58 655,224.5C 656.611,234.98 658.944,245.313 662,255.5C 665.131,259.633 668.631,263.466 672.5,267C 690.814,281.946 711.814,290.78 735.5,293.5C 735.5,307.5 735.5,321.5 735.5,335.5C 730.106,335.122 724.773,334.288 719.5,333C 709.06,328.114 698.394,323.78 687.5,320C 680.766,319.171 674.099,319.504 667.5,321C 662.044,324.787 656.877,328.954 652,333.5C 643.388,345.714 634.054,357.381 624,368.5C 619.054,374.891 615.888,382.057 614.5,390C 614.969,395.892 615.803,401.725 617,407.5C 619.333,411.833 621.667,416.167 624,420.5C 635.667,434.167 647.333,447.833 659,461.5C 659.113,463.974 660.113,465.974 662,467.5C 663.157,474.956 664.49,482.29 666,489.5C 671.628,500.802 679.795,509.969 690.5,517C 704.173,525.724 719.173,530.557 735.5,531.5C 735.5,547.5 735.5,563.5 735.5,579.5C 731.951,579.561 728.618,578.727 725.5,577C 715.755,570.858 705.422,565.858 694.5,562C 682.813,559.166 672.48,561.666 663.5,569.5C 648.405,588.762 632.072,606.929 614.5,624C 602.125,632.181 588.959,633.681 575,628.5C 572.844,629.985 570.677,631.485 568.5,633C 565.021,636.15 561.854,639.65 559,643.5C 555.523,651.122 551.523,658.455 547,665.5C 544.517,668.823 541.351,671.157 537.5,672.5C 533.232,673.373 528.898,673.706 524.5,673.5C 509.062,671.845 496.562,664.845 487,652.5C 483.333,646.5 479.667,640.5 476,634.5C 469.736,620.41 463.069,606.41 456,592.5C 446.792,577.603 433.959,567.103 417.5,561C 403.451,555.807 389.784,549.807 376.5,543C 371.366,538.867 366.532,534.367 362,529.5C 352.553,509.607 342.886,489.94 333,470.5C 327.205,461.038 319.705,453.205 310.5,447C 288.421,435.305 268.088,437.638 249.5,454C 236.743,467.085 224.409,480.418 212.5,494C 208.962,496.269 205.295,498.269 201.5,500C 196.079,500.839 190.746,500.506 185.5,499C 181.677,494.705 181.511,490.205 185,485.5C 193.107,477.726 200.107,469.059 206,459.5C 212.736,443.216 220.069,427.216 228,411.5C 231.667,406.167 235.333,400.833 239,395.5C 243.808,391.363 248.641,387.196 253.5,383C 265.22,376.759 277.22,371.092 289.5,366C 292.997,363.417 296.664,361.084 300.5,359C 303,355.833 305.5,352.667 308,349.5C 315.78,334.064 323.113,318.397 330,302.5C 339.656,287.521 347.989,271.854 355,255.5C 355.826,250.411 355.492,245.411 354,240.5C 352.632,237.814 351.299,235.147 350,232.5C 341.639,223.148 331.806,215.648 320.5,210C 309.63,205.9 298.963,201.234 288.5,196C 283.98,193.993 279.313,192.493 274.5,191.5C 272.19,190.836 269.69,190.503 267,190.5C 263.195,190.304 259.695,190.97 256.5,192.5C 249.999,195.821 244.166,200.154 239,205.5C 224.853,222.978 210.02,239.811 194.5,256C 191.853,257.299 189.186,258.632 186.5,260C 183.5,260.5 180.5,261 177.5,261.5C 168.405,261.582 164.572,257.249 166,248.5C 174.416,240.088 182.083,231.088 189,221.5C 199.841,196.815 212.508,173.149 227,150.5C 229.742,145.023 231.908,139.356 233.5,133.5C 236.291,128.972 235.958,124.639 232.5,120.5C 230.612,116.394 228.446,112.394 226,108.5C 215.21,97.0984 202.377,88.5984 187.5,83C 179.556,80.1845 171.556,77.6845 163.5,75.5C 157.014,72.7114 150.681,73.0447 144.5,76.5C 141.243,77.4617 138.243,78.9617 135.5,81C 131.723,85.3792 127.39,89.0458 122.5,92C 116.126,95.0821 109.793,95.0821 103.5,92C 97.2639,86.761 92.0972,80.5943 88,73.5C 82.0812,59.7107 75.4145,46.3774 68,33.5C 61,25.1667 54,16.8333 47,8.5C 43.064,6.7371 40.8974,3.7371 40.5,-0.5 Z"/></g>
<g><path style="opacity:1" fill="#4a4a4c" d="M 534.5,301.5 C 535.222,301.918 535.722,302.584 536,303.5C 536.667,308.833 536.667,314.167 536,319.5C 535.623,320.942 534.79,321.942 533.5,322.5C 535.385,315.551 535.718,308.551 534.5,301.5 Z"/></g>
<g><path style="opacity:1" fill="#535257" d="M 646.5,250.5 C 648.531,253.708 648.865,257.041 647.5,260.5C 646.586,257.272 646.253,253.939 646.5,250.5 Z"/></g>
<g><path style="opacity:1" fill="#48474a" d="M 363.5,213.5 C 364.474,214.635 365.641,215.635 367,216.5C 368.893,225.025 370.559,233.358 372,241.5C 372.333,240.5 372.667,239.5 373,238.5C 373.498,241.482 373.665,244.482 373.5,247.5C 371.732,244.394 370.232,241.061 369,237.5C 368.314,229.152 366.481,221.152 363.5,213.5 Z"/></g>
<g><path style="opacity:1" fill="#68676b" d="M 274.5,191.5 C 268.464,191.36 262.464,191.693 256.5,192.5C 259.695,190.97 263.195,190.304 267,190.5C 269.69,190.503 272.19,190.836 274.5,191.5 Z"/></g>
<g><path style="opacity:1" fill="#434344" d="M 522.5,142.5 C 519.279,154.276 513.946,164.942 506.5,174.5C 505.274,172.813 505.608,171.313 507.5,170C 506.616,168.902 505.616,168.402 504.5,168.5C 508.097,166.9 511.097,164.567 513.5,161.5C 515.021,159.714 515.354,157.881 514.5,156C 517.839,151.809 520.506,147.309 522.5,142.5 Z"/></g>
<g><path style="opacity:1" fill="#4d4d4f" d="M 163.5,75.5 C 160.934,75.6556 158.434,75.3223 156,74.5C 155.05,75.0223 154.216,75.689 153.5,76.5C 150.395,76.2717 147.395,76.2717 144.5,76.5C 150.681,73.0447 157.014,72.7114 163.5,75.5 Z"/></g>
<g><path style="opacity:1" fill="#403f41" d="M 119.5,339.5 C 122.27,332.121 122.103,324.787 119,317.5C 116.574,315.548 114.074,313.881 111.5,312.5C 111.735,311.903 112.235,311.57 113,311.5C 118.281,313.806 122.281,318.139 125,324.5C 124.516,327.746 123.85,331.079 123,334.5C 122.303,336.584 121.136,338.251 119.5,339.5 Z"/></g>
<g><path style="opacity:1" fill="#2d2d2e" d="M 735.5,335.5 C 735.5,358.833 735.5,382.167 735.5,405.5C 725.358,402.716 715.025,401.049 704.5,400.5C 687.788,401.044 681.622,409.377 686,425.5C 688.009,427.522 689.509,429.855 690.5,432.5C 691.167,435.167 692.833,436.833 695.5,437.5C 707.85,446.137 721.183,453.137 735.5,458.5C 735.5,482.833 735.5,507.167 735.5,531.5C 719.173,530.557 704.173,525.724 690.5,517C 679.795,509.969 671.628,500.802 666,489.5C 664.49,482.29 663.157,474.956 662,467.5C 660.113,465.974 659.113,463.974 659,461.5C 647.333,447.833 635.667,434.167 624,420.5C 621.667,416.167 619.333,411.833 617,407.5C 615.803,401.725 614.969,395.892 614.5,390C 615.888,382.057 619.054,374.891 624,368.5C 634.054,357.381 643.388,345.714 652,333.5C 656.877,328.954 662.044,324.787 667.5,321C 674.099,319.504 680.766,319.171 687.5,320C 698.394,323.78 709.06,328.114 719.5,333C 724.773,334.288 730.106,335.122 735.5,335.5 Z"/></g>
<g><path style="opacity:1" fill="#e7e7eb" d="M 111.5,312.5 C 114.074,313.881 116.574,315.548 119,317.5C 122.103,324.787 122.27,332.121 119.5,339.5C 110.174,355.661 97.1743,367.828 80.5,376C 75.179,377.434 69.8457,377.601 64.5,376.5C 61.5004,372.654 60.8338,368.321 62.5,363.5C 67.3232,357.874 72.1566,352.207 77,346.5C 82.0318,338.146 87.0318,329.813 92,321.5C 94.5366,318.628 97.3699,316.128 100.5,314C 104.06,312.763 107.727,312.263 111.5,312.5 Z"/></g>
<g><path style="opacity:1" fill="#e8e7ec" d="M 735.5,405.5 C 735.5,423.167 735.5,440.833 735.5,458.5C 721.183,453.137 707.85,446.137 695.5,437.5C 694.167,435.5 692.5,433.833 690.5,432.5C 689.509,429.855 688.009,427.522 686,425.5C 681.622,409.377 687.788,401.044 704.5,400.5C 715.025,401.049 725.358,402.716 735.5,405.5 Z"/></g>
<g><path style="opacity:1" fill="#616162" d="M 143.5,399.5 C 144.647,403.646 144.814,407.98 144,412.5C 143.722,413.416 143.222,414.082 142.5,414.5C 143.329,409.547 143.663,404.547 143.5,399.5 Z"/></g>
<g><path style="opacity:1" fill="#6c6c6e" d="M 690.5,432.5 C 692.5,433.833 694.167,435.5 695.5,437.5C 692.833,436.833 691.167,435.167 690.5,432.5 Z"/></g>
<g><path style="opacity:1" fill="#6d6d6f" d="M 94.5,435.5 C 94.0075,437.819 93.0075,439.819 91.5,441.5C 91.461,438.911 92.461,436.911 94.5,435.5 Z"/></g>
<g><path style="opacity:1" fill="#e4e3e7" d="M 525.5,475.5 C 529.224,474.773 531.891,476.106 533.5,479.5C 532.074,481.937 530.741,484.437 529.5,487C 521.315,491.926 517.815,489.759 519,480.5C 521.352,478.97 523.519,477.303 525.5,475.5 Z"/></g>
<g><path style="opacity:1" fill="#505052" d="M 421.5,494.5 C 422.123,501.859 423.123,509.193 424.5,516.5C 420.752,509.506 419.752,502.173 421.5,494.5 Z"/></g>
<g><path style="opacity:1" fill="#2d2d2e" d="M -0.5,492.5 C 1.80678,493.653 4.14011,494.82 6.5,496C 16.8186,508.805 25.4853,522.638 32.5,537.5C 39.5499,546.188 48.2165,552.688 58.5,557C 70.7168,562.52 83.0501,567.853 95.5,573C 102.201,576.367 108.368,580.533 114,585.5C 119.811,592.441 125.144,599.774 130,607.5C 137,622.167 144,636.833 151,651.5C 158.292,663.461 168.125,672.627 180.5,679C 196.653,685.653 212.32,693.153 227.5,701.5C 227.343,702.873 227.51,704.207 228,705.5C 228.333,705.167 228.667,704.833 229,704.5C 230.31,707.473 232.31,709.807 235,711.5C 237.667,716.833 240.333,722.167 243,727.5C 244.011,728.337 245.178,728.67 246.5,728.5C 257.865,747.003 273.532,751.503 293.5,742C 296.63,739.872 299.463,737.372 302,734.5C 314.474,715.353 328.474,697.353 344,680.5C 358.032,666.448 374.199,663.615 392.5,672C 406.167,678.333 419.833,684.667 433.5,691C 445.085,698.922 454.252,709.089 461,721.5C 463.057,729.385 462.39,737.052 459,744.5C 456.744,747.436 455.411,750.77 455,754.5C 442.102,770.071 430.769,786.738 421,804.5C 406.486,843.747 389.486,881.747 370,918.5C 362.047,925.759 355.547,934.093 350.5,943.5C 352.872,951.482 358.205,954.315 366.5,952C 372.052,950.542 377.052,948.042 381.5,944.5C 390.149,934.684 398.982,925.017 408,915.5C 415,906.833 422,898.167 429,889.5C 438.046,881.612 448.546,878.779 460.5,881C 481.283,888.726 501.283,898.059 520.5,909C 533.853,921.064 538.353,935.897 534,953.5C 529.05,968.024 522.383,981.69 514,994.5C 508.43,1009.64 501.763,1024.31 494,1038.5C 488.374,1045.79 482.374,1052.79 476,1059.5C 472.772,1068.16 475.772,1072.83 485,1073.5C 491.521,1073.16 497.354,1070.99 502.5,1067C 517.448,1051.72 532.782,1036.72 548.5,1022C 558.517,1014.74 568.517,1014.74 578.5,1022C 582.752,1025.58 586.252,1029.75 589,1034.5C 593.707,1038.21 598.04,1042.21 602,1046.5C 620.721,1055.86 639.887,1064.36 659.5,1072C 671.898,1080.39 681.398,1091.22 688,1104.5C 695.758,1121.43 704.091,1138.1 713,1154.5C 715.872,1157.04 718.372,1159.87 720.5,1163C 725.04,1166.41 730.04,1168.58 735.5,1169.5C 735.5,1196.17 735.5,1222.83 735.5,1249.5C 720.451,1245.63 708.951,1236.96 701,1223.5C 699.057,1212.47 696.057,1201.8 692,1191.5C 677.731,1173.23 660.898,1157.73 641.5,1145C 629.435,1140.13 617.769,1134.47 606.5,1128C 600.551,1123.89 595.884,1118.72 592.5,1112.5C 590.738,1106.98 588.738,1101.48 586.5,1096C 587.151,1094.69 586.485,1093.86 584.5,1093.5C 578.382,1077.84 567.382,1073.34 551.5,1080C 545.707,1082.73 540.04,1085.73 534.5,1089C 529.633,1093.53 525.133,1098.37 521,1103.5C 511.99,1122.55 502.99,1141.55 494,1160.5C 490.864,1164.48 487.031,1167.48 482.5,1169.5C 474.337,1170.42 466.337,1169.75 458.5,1167.5C 456.616,1167.72 454.949,1168.38 453.5,1169.5C 451.827,1167.91 449.827,1167.25 447.5,1167.5C 424.84,1148.51 404.674,1127.17 387,1103.5C 384.409,1099.56 382.909,1095.23 382.5,1090.5C 382.241,1083.24 382.574,1075.91 383.5,1068.5C 384.517,1064.13 386.35,1060.13 389,1056.5C 398.67,1047.16 408.003,1037.5 417,1027.5C 423.854,1017.29 428.354,1006.12 430.5,994C 429.345,976.152 420.678,970.818 404.5,978C 398.511,983.654 393.677,990.154 390,997.5C 384.673,1012.49 378.006,1026.82 370,1040.5C 353.032,1053.95 336.198,1053.78 319.5,1040C 305.528,1026.36 292.028,1012.53 279,998.5C 273,992.5 267,986.5 261,980.5C 253.937,972.083 251.603,962.416 254,951.5C 258.62,936.574 266.953,924.241 279,914.5C 294.295,894.98 305.629,873.314 313,849.5C 315.349,844.802 317.682,840.136 320,835.5C 327.579,825.342 334.912,815.009 342,804.5C 348.467,793.299 350.801,781.299 349,768.5C 344.179,759.882 337.012,757.049 327.5,760C 322.881,762.561 318.714,765.728 315,769.5C 309.163,779.17 303.83,789.17 299,799.5C 296.666,803 293.832,806 290.5,808.5C 289.883,808.389 289.383,808.056 289,807.5C 285.713,808.777 283.213,810.277 281.5,812C 274.174,812.5 266.841,812.666 259.5,812.5C 255.737,811.299 252.07,809.799 248.5,808C 238.191,797.358 227.524,787.025 216.5,777C 201.868,768.85 186.868,761.517 171.5,755C 163.186,750.254 155.686,744.421 149,737.5C 147,734.167 145,730.833 143,727.5C 141.12,720.221 139.453,712.888 138,705.5C 136.347,700.861 134.181,696.528 131.5,692.5C 129.651,686.548 125.984,682.215 120.5,679.5C 113.077,672.249 105.41,665.083 97.5,658C 83.3807,649.607 68.714,642.274 53.5,636C 44.1137,630.613 35.9471,623.779 29,615.5C 28.5621,612.624 27.5621,609.957 26,607.5C 23.9557,597.106 21.6224,586.772 19,576.5C 14.4894,568.986 7.98943,563.986 -0.5,561.5C -0.5,538.5 -0.5,515.5 -0.5,492.5 Z"/></g>
<g><path style="opacity:1" fill="#474749" d="M 271.5,512.5 C 265.464,512.36 259.464,512.693 253.5,513.5C 256.638,511.039 260.305,510.039 264.5,510.5C 267.269,510.529 269.603,511.195 271.5,512.5 Z"/></g>
<g><path style="opacity:1" fill="#49494b" d="M 423.5,645.5 C 424.847,646.171 426.014,646.171 427,645.5C 428.801,648.163 431.301,649.997 434.5,651C 434.214,652.388 434.548,653.888 435.5,655.5C 431.5,652.167 427.5,648.833 423.5,645.5 Z"/></g>
<g><path style="opacity:1" fill="#4f4f51" d="M 662.5,669.5 C 663.222,669.918 663.722,670.584 664,671.5C 664.667,674.167 664.667,676.833 664,679.5C 662.378,684.032 661.378,688.699 661,693.5C 660.617,692.944 660.117,692.611 659.5,692.5C 660.619,686.455 661.952,680.455 663.5,674.5C 662.691,672.929 662.357,671.262 662.5,669.5 Z"/></g>
<g><path style="opacity:1" fill="#818183" d="M 537.5,672.5 C 537.389,673.117 537.056,673.617 536.5,674C 532.311,674.812 528.311,674.645 524.5,673.5C 528.898,673.706 533.232,673.373 537.5,672.5 Z"/></g>
<g><path style="opacity:1" fill="#2c2c2e" d="M 104.5,700.5 C 104.082,701.222 103.416,701.722 102.5,702C 105.005,702.51 106.505,704.01 107,706.5C 107.561,705.978 108.228,705.645 109,705.5C 111.302,707.805 113.802,709.805 116.5,711.5C 116.365,714.266 117.865,716.266 121,717.5C 122.339,723.446 124.839,729.446 128.5,735.5C 127.011,740.87 125.178,746.203 123,751.5C 116.259,763.314 109.259,774.981 102,786.5C 95.2568,802.208 87.9235,817.542 80,832.5C 67.8456,844.647 54.6789,855.481 40.5,865C 32.0381,874.8 22.3715,883.133 11.5,890C 7.69282,891.881 3.69282,893.047 -0.5,893.5C -0.5,867.167 -0.5,840.833 -0.5,814.5C 3.302,813.221 6.46867,810.888 9,807.5C 10.6966,804.328 12.5299,801.328 14.5,798.5C 16.4934,795.574 18.4934,792.574 20.5,789.5C 19.3083,785.197 19.3083,780.863 20.5,776.5C 20.3802,774.412 19.3802,773.078 17.5,772.5C 13.5948,765.535 7.59475,761.535 -0.5,760.5C -0.5,737.833 -0.5,715.167 -0.5,692.5C 0.551975,692.649 1.55198,692.483 2.5,692C 9.64305,685.927 17.3097,680.594 25.5,676C 31.6427,673.655 37.9761,672.989 44.5,674C 65.1848,681.514 85.1848,690.347 104.5,700.5 Z"/></g>
<g><path style="opacity:1" fill="#49494b" d="M 120.5,679.5 C 125.984,682.215 129.651,686.548 131.5,692.5C 127.487,688.485 123.821,684.152 120.5,679.5 Z"/></g>
<g><path style="opacity:1" fill="#414143" d="M 227.5,701.5 C 236.056,708.949 242.389,717.949 246.5,728.5C 245.178,728.67 244.011,728.337 243,727.5C 240.333,722.167 237.667,716.833 235,711.5C 232.31,709.807 230.31,707.473 229,704.5C 228.667,704.833 228.333,705.167 228,705.5C 227.51,704.207 227.343,702.873 227.5,701.5 Z"/></g>
<g><path style="opacity:1" fill="#444446" d="M 104.5,700.5 C 114.664,705.999 122.164,713.999 127,724.5C 128.237,728.06 128.737,731.727 128.5,735.5C 124.839,729.446 122.339,723.446 121,717.5C 117.865,716.266 116.365,714.266 116.5,711.5C 113.802,709.805 111.302,707.805 109,705.5C 108.228,705.645 107.561,705.978 107,706.5C 106.505,704.01 105.005,702.51 102.5,702C 103.416,701.722 104.082,701.222 104.5,700.5 Z"/></g>
<g><path style="opacity:1" fill="#e8e7ec" d="M 735.5,720.5 C 735.5,748.167 735.5,775.833 735.5,803.5C 718.863,799.382 704.696,803.382 693,815.5C 678.836,833.025 664.336,850.192 649.5,867C 641.03,874.259 631.363,876.759 620.5,874.5C 616.516,869.221 616.516,863.888 620.5,858.5C 622.854,856.812 624.854,854.812 626.5,852.5C 632.499,846.986 637.666,840.652 642,833.5C 647.35,821.47 652.684,809.47 658,797.5C 663.183,788.963 668.183,780.296 673,771.5C 688.69,747.956 709.523,730.956 735.5,720.5 Z"/></g>
<g><path style="opacity:1" fill="#e8e7eb" d="M 662.5,669.5 C 662.357,671.262 662.691,672.929 663.5,674.5C 661.952,680.455 660.619,686.455 659.5,692.5C 654.643,702.371 648.643,711.537 641.5,720C 627.259,733.813 611.259,745.147 593.5,754C 590.035,756.463 586.869,759.296 584,762.5C 576.884,777.945 570.218,793.611 564,809.5C 559.011,817.828 552.178,823.995 543.5,828C 535.079,830.541 529.579,827.708 527,819.5C 525.066,810.545 526.066,801.878 530,793.5C 536.294,778.88 546.127,767.38 559.5,759C 567.356,755.24 575.022,751.24 582.5,747C 588.306,742.527 593.473,737.36 598,731.5C 604.373,722.754 609.706,713.42 614,703.5C 618.215,689.148 624.882,676.148 634,664.5C 639.433,658.134 646.266,655.968 654.5,658C 659.291,660.434 661.958,664.267 662.5,669.5 Z"/></g>
<g><path style="opacity:1" fill="#e7e7eb" d="M -0.5,760.5 C 7.59475,761.535 13.5948,765.535 17.5,772.5C 18.935,781.454 17.935,790.12 14.5,798.5C 12.5299,801.328 10.6966,804.328 9,807.5C 6.46867,810.888 3.302,813.221 -0.5,814.5C -0.5,796.5 -0.5,778.5 -0.5,760.5 Z"/></g>
<g><path style="opacity:1" fill="#e8e7ec" d="M -0.5,561.5 C 7.98943,563.986 14.4894,568.986 19,576.5C 21.6224,586.772 23.9557,597.106 26,607.5C 27.5621,609.957 28.5621,612.624 29,615.5C 35.9471,623.779 44.1137,630.613 53.5,636C 68.714,642.274 83.3807,649.607 97.5,658C 105.41,665.083 113.077,672.249 120.5,679.5C 123.821,684.152 127.487,688.485 131.5,692.5C 134.181,696.528 136.347,700.861 138,705.5C 139.453,712.888 141.12,720.221 143,727.5C 145,730.833 147,734.167 149,737.5C 155.686,744.421 163.186,750.254 171.5,755C 186.868,761.517 201.868,768.85 216.5,777C 227.524,787.025 238.191,797.358 248.5,808C 252.07,809.799 255.737,811.299 259.5,812.5C 268.435,815.263 277.435,815.097 286.5,812C 287.731,810.595 289.064,809.429 290.5,808.5C 293.832,806 296.666,803 299,799.5C 303.83,789.17 309.163,779.17 315,769.5C 318.714,765.728 322.881,762.561 327.5,760C 337.012,757.049 344.179,759.882 349,768.5C 350.801,781.299 348.467,793.299 342,804.5C 334.912,815.009 327.579,825.342 320,835.5C 317.682,840.136 315.349,844.802 313,849.5C 305.629,873.314 294.295,894.98 279,914.5C 266.953,924.241 258.62,936.574 254,951.5C 251.603,962.416 253.937,972.083 261,980.5C 267,986.5 273,992.5 279,998.5C 292.028,1012.53 305.528,1026.36 319.5,1040C 336.198,1053.78 353.032,1053.95 370,1040.5C 378.006,1026.82 384.673,1012.49 390,997.5C 393.677,990.154 398.511,983.654 404.5,978C 420.678,970.818 429.345,976.152 430.5,994C 428.354,1006.12 423.854,1017.29 417,1027.5C 408.003,1037.5 398.67,1047.16 389,1056.5C 386.35,1060.13 384.517,1064.13 383.5,1068.5C 380.645,1075.81 380.312,1083.14 382.5,1090.5C 382.909,1095.23 384.409,1099.56 387,1103.5C 404.674,1127.17 424.84,1148.51 447.5,1167.5C 452.663,1171.67 458.663,1173.67 465.5,1173.5C 471.65,1173.67 477.317,1172.34 482.5,1169.5C 487.031,1167.48 490.864,1164.48 494,1160.5C 502.99,1141.55 511.99,1122.55 521,1103.5C 525.133,1098.37 529.633,1093.53 534.5,1089C 540.04,1085.73 545.707,1082.73 551.5,1080C 567.382,1073.34 578.382,1077.84 584.5,1093.5C 586.016,1100.4 588.683,1106.73 592.5,1112.5C 595.884,1118.72 600.551,1123.89 606.5,1128C 617.769,1134.47 629.435,1140.13 641.5,1145C 660.898,1157.73 677.731,1173.23 692,1191.5C 696.057,1201.8 699.057,1212.47 701,1223.5C 708.951,1236.96 720.451,1245.63 735.5,1249.5C 735.5,1263.83 735.5,1278.17 735.5,1292.5C 730.97,1292.6 726.47,1292.26 722,1291.5C 718.938,1291.74 716.105,1292.41 713.5,1293.5C 705.311,1295.03 699.977,1299.7 697.5,1307.5C 681.167,1307.5 664.833,1307.5 648.5,1307.5C 649.077,1302.6 650.577,1297.93 653,1293.5C 665.855,1274.7 676.855,1255.03 686,1234.5C 686.502,1221.66 681.669,1211.16 671.5,1203C 667.553,1200.72 663.887,1198.05 660.5,1195C 639.873,1185.52 618.873,1176.86 597.5,1169C 583.989,1165.91 570.655,1162.24 557.5,1158C 552.833,1157.33 548.167,1157.33 543.5,1158C 532.773,1162.35 523.106,1168.18 514.5,1175.5C 507.044,1181.64 502.877,1189.64 502,1199.5C 501.195,1202.7 501.362,1205.7 502.5,1208.5C 504.723,1221.11 510.723,1231.61 520.5,1240C 528.201,1247.85 537.535,1252.35 548.5,1253.5C 551.87,1255.14 555.537,1256.14 559.5,1256.5C 566.888,1258.24 572.555,1262.24 576.5,1268.5C 577.851,1272.54 578.517,1276.7 578.5,1281C 578.055,1286.94 577.055,1292.78 575.5,1298.5C 573.69,1301.14 572.69,1304.14 572.5,1307.5C 561.167,1307.5 549.833,1307.5 538.5,1307.5C 533.528,1293.68 525.528,1281.85 514.5,1272C 499.641,1264.74 484.641,1257.74 469.5,1251C 464.162,1248.33 459.162,1245.17 454.5,1241.5C 450.142,1236.31 445.976,1230.98 442,1225.5C 439.33,1218.83 436.163,1212.49 432.5,1206.5C 430.157,1201.12 427.823,1195.79 425.5,1190.5C 418.385,1173.22 407.052,1159.38 391.5,1149C 373.706,1141.45 356.04,1133.45 338.5,1125C 331,1120.17 324.833,1114 320,1106.5C 311.924,1091.65 304.59,1076.32 298,1060.5C 292.413,1049.84 285.247,1040.34 276.5,1032C 266.616,1025.56 256.283,1019.89 245.5,1015C 239.8,1011.15 234.467,1006.81 229.5,1002C 220.318,995.042 210.318,993.708 199.5,998C 188.559,1003.08 179.059,1010.24 171,1019.5C 161.95,1036.3 163.117,1052.3 174.5,1067.5C 180.254,1075.92 187.587,1082.59 196.5,1087.5C 200.14,1089.66 204.14,1091.16 208.5,1092C 224.358,1092.42 239.691,1095.42 254.5,1101C 259.672,1104.09 264.672,1107.42 269.5,1111C 281.724,1122.89 293.557,1135.06 305,1147.5C 308.502,1156.82 310.836,1166.49 312,1176.5C 318.69,1190.86 329.19,1201.69 343.5,1209C 356.742,1214.62 369.742,1220.79 382.5,1227.5C 399.195,1240 413.862,1254.5 426.5,1271C 429.013,1277.29 429.846,1283.79 429,1290.5C 426.86,1292.49 424.36,1293.82 421.5,1294.5C 411.381,1286.89 401.381,1279.05 391.5,1271C 377.965,1265.38 364.631,1259.38 351.5,1253C 346.653,1250.91 341.653,1249.41 336.5,1248.5C 329.942,1246.83 323.609,1247.49 317.5,1250.5C 312.614,1253.21 308.114,1256.54 304,1260.5C 295.309,1271.35 286.476,1282.02 277.5,1292.5C 273.283,1296.73 270.283,1301.73 268.5,1307.5C 254.167,1307.5 239.833,1307.5 225.5,1307.5C 226.694,1302.05 228.194,1296.72 230,1291.5C 231.861,1289.11 233.194,1286.45 234,1283.5C 242.64,1273.52 251.307,1263.52 260,1253.5C 267.245,1241.91 274.912,1230.58 283,1219.5C 286.432,1213.64 289.599,1207.64 292.5,1201.5C 297.537,1194.18 298.703,1186.18 296,1177.5C 295.623,1176.06 294.79,1175.06 293.5,1174.5C 288.157,1162.32 279.157,1154.16 266.5,1150C 264.212,1149.18 261.878,1148.51 259.5,1148C 246.158,1147.69 232.825,1147.69 219.5,1148C 211.543,1146.61 205.043,1142.77 200,1136.5C 193.095,1126.18 184.928,1117.01 175.5,1109C 157.491,1101.44 139.825,1093.11 122.5,1084C 120.423,1081.26 117.757,1079.26 114.5,1078C 108.829,1071.52 103.996,1064.36 100,1056.5C 93.2172,1038.93 84.8839,1022.27 75,1006.5C 70.5334,1001.03 65.7,995.865 60.5,991C 41.5829,979.686 21.2496,972.186 -0.5,968.5C -0.5,943.5 -0.5,918.5 -0.5,893.5C 3.69282,893.047 7.69282,891.881 11.5,890C 22.3715,883.133 32.0381,874.8 40.5,865C 54.6789,855.481 67.8456,844.647 80,832.5C 87.9235,817.542 95.2568,802.208 102,786.5C 109.259,774.981 116.259,763.314 123,751.5C 125.178,746.203 127.011,740.87 128.5,735.5C 128.737,731.727 128.237,728.06 127,724.5C 122.164,713.999 114.664,705.999 104.5,700.5C 85.1848,690.347 65.1848,681.514 44.5,674C 37.9761,672.989 31.6427,673.655 25.5,676C 17.3097,680.594 9.64305,685.927 2.5,692C 1.55198,692.483 0.551975,692.649 -0.5,692.5C -0.5,648.833 -0.5,605.167 -0.5,561.5 Z"/></g>
<g><path style="opacity:1" fill="#4d4d50" d="M 17.5,772.5 C 19.3802,773.078 20.3802,774.412 20.5,776.5C 19.3083,780.863 19.3083,785.197 20.5,789.5C 18.4934,792.574 16.4934,795.574 14.5,798.5C 17.935,790.12 18.935,781.454 17.5,772.5 Z"/></g>
<g><path style="opacity:1" fill="#2d2d2e" d="M 154.5,795.5 C 162.152,794.817 169.485,795.984 176.5,799C 194.103,806.195 211.103,814.529 227.5,824C 235.396,830.96 240.896,839.46 244,849.5C 248.948,866.274 248.615,882.941 243,899.5C 238.909,907.502 232.743,913.335 224.5,917C 212.001,921.154 200.334,926.821 189.5,934C 178.641,947.55 170.807,962.717 166,979.5C 162.689,986.789 158.856,993.789 154.5,1000.5C 141.629,1011.23 127.295,1013.39 111.5,1007C 91.9683,989.135 73.4683,970.302 56,950.5C 37.584,927.002 39.7507,905.502 62.5,886C 75.2325,876.273 87.0658,865.439 98,853.5C 112.167,836.667 126.333,819.833 140.5,803C 144.815,799.678 149.482,797.178 154.5,795.5 Z"/></g>
<g><path style="opacity:1" fill="#424145" d="M 470.5,766.5 C 470.414,767.496 470.748,768.329 471.5,769C 468.833,770.667 468.833,772.333 471.5,774C 468.667,774.833 466.833,776.667 466,779.5C 465.667,779.167 465.333,778.833 465,778.5C 464.333,781.833 463.667,785.167 463,788.5C 462.538,800.209 462.704,811.876 463.5,823.5C 462.113,821.123 461.279,818.457 461,815.5C 459.533,801.537 460.867,787.871 465,774.5C 466.306,771.379 468.14,768.713 470.5,766.5 Z"/></g>
<g><path style="opacity:1" fill="#434246" d="M 290.5,808.5 C 289.064,809.429 287.731,810.595 286.5,812C 277.435,815.097 268.435,815.263 259.5,812.5C 266.841,812.666 274.174,812.5 281.5,812C 283.213,810.277 285.713,808.777 289,807.5C 289.383,808.056 289.883,808.389 290.5,808.5 Z"/></g>
<g><path style="opacity:1" fill="#4d4d50" d="M 501.5,853.5 C 495.173,851.398 489.173,848.731 483.5,845.5C 484.117,845.389 484.617,845.056 485,844.5C 487.116,845.69 489.116,847.023 491,848.5C 491.333,848.167 491.667,847.833 492,847.5C 494.424,849.652 497.257,850.985 500.5,851.5C 501.298,851.957 501.631,852.624 501.5,853.5 Z"/></g>
<g><path style="opacity:1" fill="#4a494c" d="M 626.5,852.5 C 624.854,854.812 622.854,856.812 620.5,858.5C 616.516,863.888 616.516,869.221 620.5,874.5C 619.603,875.598 618.77,875.598 618,874.5C 616.613,869.601 616.113,864.767 616.5,860C 619.36,857.14 622.194,854.306 625,851.5C 625.383,852.056 625.883,852.389 626.5,852.5 Z"/></g>
<g><path style="opacity:1" fill="#e6e6ea" d="M 148.5,887.5 C 152.846,887.334 157.179,887.501 161.5,888C 164.934,891.569 165.934,895.736 164.5,900.5C 158.195,910.838 149.195,914.005 137.5,910C 133.244,904.178 133.911,898.845 139.5,894C 142.567,891.812 145.567,889.645 148.5,887.5 Z"/></g>
<g><path style="opacity:1" fill="#e8e7ec" d="M 143.5,399.5 C 143.663,404.547 143.329,409.547 142.5,414.5C 139.08,427.016 134.246,439.016 128,450.5C 118.352,462.812 108.019,474.479 97,485.5C 88.1402,501.37 88.4735,517.037 98,532.5C 114.295,553.806 132.462,573.64 152.5,592C 159.084,597.62 166.751,600.453 175.5,600.5C 189.981,600.014 200.481,593.347 207,580.5C 213.944,562.616 221.944,545.283 231,528.5C 237.116,521.181 244.616,516.181 253.5,513.5C 259.464,512.693 265.464,512.36 271.5,512.5C 276.455,513.259 281.455,514.425 286.5,516C 291.31,518.906 296.31,521.573 301.5,524C 315.962,535.296 329.628,547.463 342.5,560.5C 344.949,562.776 346.782,565.442 348,568.5C 350.534,578.968 353.534,589.301 357,599.5C 364.934,612.43 375.767,622.263 389.5,629C 401.258,633.713 412.591,639.213 423.5,645.5C 427.5,648.833 431.5,652.167 435.5,655.5C 443.492,663.992 451.658,672.325 460,680.5C 468.976,692.893 473.309,706.893 473,722.5C 476.274,729.489 478.44,736.822 479.5,744.5C 479.268,748.299 478.435,751.966 477,755.5C 473.739,758.578 471.572,762.244 470.5,766.5C 468.14,768.713 466.306,771.379 465,774.5C 460.867,787.871 459.533,801.537 461,815.5C 461.279,818.457 462.113,821.123 463.5,823.5C 466.985,833.857 473.652,841.19 483.5,845.5C 489.173,848.731 495.173,851.398 501.5,853.5C 507.207,857.793 512.707,862.459 518,867.5C 523.559,875.42 529.725,882.92 536.5,890C 544.579,894.744 551.412,900.91 557,908.5C 568.1,929.611 581.6,949.111 597.5,967C 613.038,976.077 626.871,973.91 639,960.5C 646.148,947.738 652.148,934.405 657,920.5C 660.749,914.41 664.916,908.576 669.5,903C 678.485,895.175 686.819,895.675 694.5,904.5C 696.242,909.303 696.909,914.303 696.5,919.5C 693.658,933.519 687.825,946.186 679,957.5C 671.043,964.772 663.543,972.438 656.5,980.5C 648.937,989.429 646.437,999.762 649,1011.5C 649.279,1014.46 650.113,1017.12 651.5,1019.5C 652.38,1022.26 653.546,1024.93 655,1027.5C 664,1038.5 673,1049.5 682,1060.5C 693.867,1070.8 704.701,1081.97 714.5,1094C 720.525,1099.35 727.525,1102.51 735.5,1103.5C 735.5,1125.5 735.5,1147.5 735.5,1169.5C 730.04,1168.58 725.04,1166.41 720.5,1163C 718.372,1159.87 715.872,1157.04 713,1154.5C 704.091,1138.1 695.758,1121.43 688,1104.5C 681.398,1091.22 671.898,1080.39 659.5,1072C 639.887,1064.36 620.721,1055.86 602,1046.5C 598.04,1042.21 593.707,1038.21 589,1034.5C 586.252,1029.75 582.752,1025.58 578.5,1022C 568.517,1014.74 558.517,1014.74 548.5,1022C 532.782,1036.72 517.448,1051.72 502.5,1067C 497.354,1070.99 491.521,1073.16 485,1073.5C 475.772,1072.83 472.772,1068.16 476,1059.5C 482.374,1052.79 488.374,1045.79 494,1038.5C 501.763,1024.31 508.43,1009.64 514,994.5C 522.383,981.69 529.05,968.024 534,953.5C 538.353,935.897 533.853,921.064 520.5,909C 501.283,898.059 481.283,888.726 460.5,881C 448.546,878.779 438.046,881.612 429,889.5C 422,898.167 415,906.833 408,915.5C 398.982,925.017 390.149,934.684 381.5,944.5C 377.052,948.042 372.052,950.542 366.5,952C 358.205,954.315 352.872,951.482 350.5,943.5C 355.547,934.093 362.047,925.759 370,918.5C 389.486,881.747 406.486,843.747 421,804.5C 430.769,786.738 442.102,770.071 455,754.5C 455.411,750.77 456.744,747.436 459,744.5C 462.39,737.052 463.057,729.385 461,721.5C 454.252,709.089 445.085,698.922 433.5,691C 419.833,684.667 406.167,678.333 392.5,672C 374.199,663.615 358.032,666.448 344,680.5C 328.474,697.353 314.474,715.353 302,734.5C 299.463,737.372 296.63,739.872 293.5,742C 273.532,751.503 257.865,747.003 246.5,728.5C 242.389,717.949 236.056,708.949 227.5,701.5C 212.32,693.153 196.653,685.653 180.5,679C 168.125,672.627 158.292,663.461 151,651.5C 144,636.833 137,622.167 130,607.5C 125.144,599.774 119.811,592.441 114,585.5C 108.368,580.533 102.201,576.367 95.5,573C 83.0501,567.853 70.7168,562.52 58.5,557C 48.2165,552.688 39.5499,546.188 32.5,537.5C 25.4853,522.638 16.8186,508.805 6.5,496C 4.14011,494.82 1.80678,493.653 -0.5,492.5C -0.5,475.167 -0.5,457.833 -0.5,440.5C 4.04786,442.107 8.3812,444.274 12.5,447C 20.5311,454.697 28.1978,462.697 35.5,471C 38.3388,472.92 41.3388,474.587 44.5,476C 56.857,478.493 67.857,475.827 77.5,468C 84.1379,460.199 88.8046,451.365 91.5,441.5C 93.0075,439.819 94.0075,437.819 94.5,435.5C 98.0676,426.473 102.401,417.806 107.5,409.5C 114.177,400.159 123.177,394.493 134.5,392.5C 139.628,392.311 142.628,394.645 143.5,399.5 Z"/></g>
<g><path style="opacity:1" fill="#3f3f42" d="M 213.5,616.5 C 212.623,623.904 212.623,631.071 213.5,638C 214.799,642.797 217.466,646.63 221.5,649.5C 218.972,650.517 218.972,651.684 221.5,653C 220.584,653.278 219.918,653.778 219.5,654.5C 210.743,642.829 208.743,630.162 213.5,616.5 Z"/></g>
<g><path style="opacity:1" fill="#434345" d="M 328.5,586.5 C 336.96,596.99 337.627,607.99 330.5,619.5C 330.421,618.07 330.754,616.736 331.5,615.5C 330.284,614.904 328.951,614.737 327.5,615C 331.781,613.114 333.781,609.781 333.5,605C 331.759,598.805 330.092,592.638 328.5,586.5 Z"/></g>
<g><path style="opacity:1" fill="#2d2d2e" d="M 328.5,586.5 C 330.092,592.638 331.759,598.805 333.5,605C 333.781,609.781 331.781,613.114 327.5,615C 328.951,614.737 330.284,614.904 331.5,615.5C 330.754,616.736 330.421,618.07 330.5,619.5C 329.572,623.362 328.072,627.029 326,630.5C 316.69,646.445 307.357,662.445 298,678.5C 287.992,689.803 275.492,693.636 260.5,690C 250.695,686.531 242.195,681.031 235,673.5C 229.346,667.503 224.18,661.17 219.5,654.5C 219.918,653.778 220.584,653.278 221.5,653C 218.972,651.684 218.972,650.517 221.5,649.5C 217.466,646.63 214.799,642.797 213.5,638C 212.623,631.071 212.623,623.904 213.5,616.5C 214.045,614.407 214.878,612.407 216,610.5C 225.934,599.144 236.434,588.31 247.5,578C 270.288,557.119 293.955,556.119 318.5,575C 321.427,577.382 324.261,579.882 327,582.5C 327.791,583.745 328.291,585.078 328.5,586.5 Z"/></g>
<g><path style="opacity:1" fill="#666569" d="M 696.5,919.5 C 696.909,914.303 696.242,909.303 694.5,904.5C 695.117,904.389 695.617,904.056 696,903.5C 697.693,908.928 697.86,914.261 696.5,919.5 Z"/></g>
<g><path style="opacity:1" fill="#2d2d2e" d="M -0.5,968.5 C 21.2496,972.186 41.5829,979.686 60.5,991C 65.7,995.865 70.5334,1001.03 75,1006.5C 84.8839,1022.27 93.2172,1038.93 100,1056.5C 103.996,1064.36 108.829,1071.52 114.5,1078C 117.757,1079.26 120.423,1081.26 122.5,1084C 139.825,1093.11 157.491,1101.44 175.5,1109C 184.928,1117.01 193.095,1126.18 200,1136.5C 205.043,1142.77 211.543,1146.61 219.5,1148C 232.825,1147.69 246.158,1147.69 259.5,1148C 261.878,1148.51 264.212,1149.18 266.5,1150C 279.157,1154.16 288.157,1162.32 293.5,1174.5C 295.114,1177.79 296.114,1181.79 296.5,1186.5C 294.755,1191.4 293.422,1196.4 292.5,1201.5C 289.599,1207.64 286.432,1213.64 283,1219.5C 274.912,1230.58 267.245,1241.91 260,1253.5C 251.307,1263.52 242.64,1273.52 234,1283.5C 233.194,1286.45 231.861,1289.11 230,1291.5C 228.194,1296.72 226.694,1302.05 225.5,1307.5C 150.167,1307.5 74.8333,1307.5 -0.5,1307.5C -0.5,1234.83 -0.5,1162.17 -0.5,1089.5C 20.8565,1094.89 41.1898,1102.73 60.5,1113C 66.5613,1117.97 72.0613,1123.47 77,1129.5C 81.123,1135.92 82.4564,1142.92 81,1150.5C 79.4076,1154.03 78.0743,1157.7 77,1161.5C 59.0185,1190.09 43.6851,1220.09 31,1251.5C 29.509,1263.02 34.009,1266.52 44.5,1262C 52.804,1258.03 60.304,1252.87 67,1246.5C 75.1915,1237.28 83.0249,1227.78 90.5,1218C 93.9895,1215.09 97.6562,1212.42 101.5,1210C 111.59,1206.71 121.59,1207.04 131.5,1211C 144.117,1216.87 156.784,1222.54 169.5,1228C 175.677,1230.92 181.344,1234.59 186.5,1239C 193.537,1247.16 201.871,1253.33 211.5,1257.5C 213.955,1257.37 215.955,1256.37 217.5,1254.5C 219.23,1249.62 219.397,1244.62 218,1239.5C 217.292,1238.62 216.458,1237.95 215.5,1237.5C 207.467,1226.48 198.801,1216.15 189.5,1206.5C 189.415,1204.07 188.415,1202.07 186.5,1200.5C 183.661,1197.83 180.661,1195.33 177.5,1193C 178.167,1192.67 178.833,1192.33 179.5,1192C 178.072,1191.42 176.738,1191.59 175.5,1192.5C 161.85,1183.17 147.183,1175.67 131.5,1170C 119.213,1163.71 108.713,1155.21 100,1144.5C 96.1384,1137.01 93.9718,1129.01 93.5,1120.5C 94.6596,1115.09 94.1596,1109.76 92,1104.5C 91.6667,1105.5 91.3333,1106.5 91,1107.5C 88.339,1104.33 85.839,1101 83.5,1097.5C 82.1502,1096.05 80.4835,1095.38 78.5,1095.5C 67.997,1084.83 56.997,1074.67 45.5,1065C 31.2707,1056.31 15.9374,1051.15 -0.5,1049.5C -0.5,1022.5 -0.5,995.5 -0.5,968.5 Z"/></g>
<g><path style="opacity:1" fill="#2d2d2e" d="M 425.5,1190.5 C 424.986,1192.51 424.82,1194.51 425,1196.5C 425.75,1197.13 426.584,1197.63 427.5,1198C 427.167,1198.33 426.833,1198.67 426.5,1199C 428.769,1201.44 430.769,1203.94 432.5,1206.5C 436.163,1212.49 439.33,1218.83 442,1225.5C 445.976,1230.98 450.142,1236.31 454.5,1241.5C 459.162,1245.17 464.162,1248.33 469.5,1251C 484.641,1257.74 499.641,1264.74 514.5,1272C 525.528,1281.85 533.528,1293.68 538.5,1307.5C 448.833,1307.5 359.167,1307.5 269.5,1307.5C 271.525,1303.31 274.191,1299.47 277.5,1296C 276.829,1295.01 276.829,1293.85 277.5,1292.5C 286.476,1282.02 295.309,1271.35 304,1260.5C 308.114,1256.54 312.614,1253.21 317.5,1250.5C 323.764,1248.51 330.098,1247.84 336.5,1248.5C 341.653,1249.41 346.653,1250.91 351.5,1253C 364.631,1259.38 377.965,1265.38 391.5,1271C 401.381,1279.05 411.381,1286.89 421.5,1294.5C 424.36,1293.82 426.86,1292.49 429,1290.5C 429.846,1283.79 429.013,1277.29 426.5,1271C 413.862,1254.5 399.195,1240 382.5,1227.5C 369.742,1220.79 356.742,1214.62 343.5,1209C 329.19,1201.69 318.69,1190.86 312,1176.5C 310.836,1166.49 308.502,1156.82 305,1147.5C 293.557,1135.06 281.724,1122.89 269.5,1111C 264.672,1107.42 259.672,1104.09 254.5,1101C 239.691,1095.42 224.358,1092.42 208.5,1092C 204.14,1091.16 200.14,1089.66 196.5,1087.5C 195.859,1083.21 193.525,1081.37 189.5,1082C 189.188,1080.34 188.355,1078.5 187,1076.5C 185.933,1075.81 184.766,1075.31 183.5,1075C 183.867,1073.24 183.034,1071.74 181,1070.5C 180.667,1070.83 180.333,1071.17 180,1071.5C 178.469,1069.7 176.636,1068.37 174.5,1067.5C 163.117,1052.3 161.95,1036.3 171,1019.5C 179.059,1010.24 188.559,1003.08 199.5,998C 210.318,993.708 220.318,995.042 229.5,1002C 234.467,1006.81 239.8,1011.15 245.5,1015C 256.283,1019.89 266.616,1025.56 276.5,1032C 285.247,1040.34 292.413,1049.84 298,1060.5C 304.59,1076.32 311.924,1091.65 320,1106.5C 324.833,1114 331,1120.17 338.5,1125C 356.04,1133.45 373.706,1141.45 391.5,1149C 407.052,1159.38 418.385,1173.22 425.5,1190.5 Z"/></g>
<g><path style="opacity:1" fill="#414144" d="M 656.5,980.5 C 655.979,984.172 655.313,987.838 654.5,991.5C 653.575,990.359 652.741,990.359 652,991.5C 651.548,994.149 650.714,996.649 649.5,999C 649.978,1003.47 650.978,1007.8 652.5,1012C 651.951,1014.54 651.618,1017.04 651.5,1019.5C 650.113,1017.12 649.279,1014.46 649,1011.5C 646.437,999.762 648.937,989.429 656.5,980.5 Z"/></g>
<g><path style="opacity:1" fill="#404041" d="M 174.5,1067.5 C 176.636,1068.37 178.469,1069.7 180,1071.5C 180.333,1071.17 180.667,1070.83 181,1070.5C 183.034,1071.74 183.867,1073.24 183.5,1075C 184.766,1075.31 185.933,1075.81 187,1076.5C 188.355,1078.5 189.188,1080.34 189.5,1082C 193.525,1081.37 195.859,1083.21 196.5,1087.5C 187.587,1082.59 180.254,1075.92 174.5,1067.5 Z"/></g>
<g><path style="opacity:1" fill="#49474d" d="M 383.5,1068.5 C 382.574,1075.91 382.241,1083.24 382.5,1090.5C 380.312,1083.14 380.645,1075.81 383.5,1068.5 Z"/></g>
<g><path style="opacity:1" fill="#4f4e51" d="M 584.5,1093.5 C 586.485,1093.86 587.151,1094.69 586.5,1096C 588.738,1101.48 590.738,1106.98 592.5,1112.5C 588.683,1106.73 586.016,1100.4 584.5,1093.5 Z"/></g>
<g><path style="opacity:1" fill="#424243" d="M 78.5,1095.5 C 80.4835,1095.38 82.1502,1096.05 83.5,1097.5C 85.839,1101 88.339,1104.33 91,1107.5C 91.3333,1106.5 91.6667,1105.5 92,1104.5C 94.1596,1109.76 94.6596,1115.09 93.5,1120.5C 91.3445,1110.53 86.3445,1102.2 78.5,1095.5 Z"/></g>
<g><path style="opacity:1" fill="#e8e7ec" d="M -0.5,1049.5 C 15.9374,1051.15 31.2707,1056.31 45.5,1065C 56.997,1074.67 67.997,1084.83 78.5,1095.5C 86.3445,1102.2 91.3445,1110.53 93.5,1120.5C 93.9718,1129.01 96.1384,1137.01 100,1144.5C 108.713,1155.21 119.213,1163.71 131.5,1170C 147.183,1175.67 161.85,1183.17 175.5,1192.5C 179.833,1197.5 184.5,1202.17 189.5,1206.5C 198.801,1216.15 207.467,1226.48 215.5,1237.5C 217.344,1242.92 218.011,1248.58 217.5,1254.5C 215.955,1256.37 213.955,1257.37 211.5,1257.5C 201.871,1253.33 193.537,1247.16 186.5,1239C 181.344,1234.59 175.677,1230.92 169.5,1228C 156.784,1222.54 144.117,1216.87 131.5,1211C 121.59,1207.04 111.59,1206.71 101.5,1210C 97.6562,1212.42 93.9895,1215.09 90.5,1218C 83.0249,1227.78 75.1915,1237.28 67,1246.5C 60.304,1252.87 52.804,1258.03 44.5,1262C 34.009,1266.52 29.509,1263.02 31,1251.5C 43.6851,1220.09 59.0185,1190.09 77,1161.5C 78.0743,1157.7 79.4076,1154.03 81,1150.5C 82.4564,1142.92 81.123,1135.92 77,1129.5C 72.0613,1123.47 66.5613,1117.97 60.5,1113C 41.1898,1102.73 20.8565,1094.89 -0.5,1089.5C -0.5,1076.17 -0.5,1062.83 -0.5,1049.5 Z"/></g>
<g><path style="opacity:1" fill="#2d2c2e" d="M 648.5,1307.5 C 623.167,1307.5 597.833,1307.5 572.5,1307.5C 572.69,1304.14 573.69,1301.14 575.5,1298.5C 577.912,1295.5 579.912,1292.17 581.5,1288.5C 579.297,1284.06 578.964,1279.39 580.5,1274.5C 581.687,1275.89 582.354,1275.73 582.5,1274C 582.108,1272.99 581.441,1272.49 580.5,1272.5C 582.011,1270.16 581.677,1269.5 579.5,1270.5C 578.735,1269.39 577.735,1268.72 576.5,1268.5C 572.555,1262.24 566.888,1258.24 559.5,1256.5C 559.389,1255.88 559.056,1255.38 558.5,1255C 555.207,1254.17 551.874,1253.67 548.5,1253.5C 537.535,1252.35 528.201,1247.85 520.5,1240C 510.723,1231.61 504.723,1221.11 502.5,1208.5C 503.041,1202.09 504.207,1195.76 506,1189.5C 508.623,1184.85 511.623,1181.18 515,1178.5C 515.47,1177.42 515.303,1176.42 514.5,1175.5C 523.106,1168.18 532.773,1162.35 543.5,1158C 548.167,1157.33 552.833,1157.33 557.5,1158C 570.655,1162.24 583.989,1165.91 597.5,1169C 618.873,1176.86 639.873,1185.52 660.5,1195C 663.887,1198.05 667.553,1200.72 671.5,1203C 681.669,1211.16 686.502,1221.66 686,1234.5C 676.855,1255.03 665.855,1274.7 653,1293.5C 650.577,1297.93 649.077,1302.6 648.5,1307.5 Z"/></g>
<g><path style="opacity:1" fill="#39393c" d="M 447.5,1167.5 C 449.827,1167.25 451.827,1167.91 453.5,1169.5C 454.949,1168.38 456.616,1167.72 458.5,1167.5C 466.337,1169.75 474.337,1170.42 482.5,1169.5C 477.317,1172.34 471.65,1173.67 465.5,1173.5C 458.663,1173.67 452.663,1171.67 447.5,1167.5 Z"/></g>
<g><path style="opacity:1" fill="#4c4b4e" d="M 514.5,1175.5 C 515.303,1176.42 515.47,1177.42 515,1178.5C 511.623,1181.18 508.623,1184.85 506,1189.5C 504.207,1195.76 503.041,1202.09 502.5,1208.5C 501.362,1205.7 501.195,1202.7 502,1199.5C 502.877,1189.64 507.044,1181.64 514.5,1175.5 Z"/></g>
<g><path style="opacity:1" fill="#504f52" d="M 293.5,1174.5 C 294.79,1175.06 295.623,1176.06 296,1177.5C 298.703,1186.18 297.537,1194.18 292.5,1201.5C 293.422,1196.4 294.755,1191.4 296.5,1186.5C 296.114,1181.79 295.114,1177.79 293.5,1174.5 Z"/></g>
<g><path style="opacity:1" fill="#484749" d="M 189.5,1206.5 C 184.5,1202.17 179.833,1197.5 175.5,1192.5C 176.738,1191.59 178.072,1191.42 179.5,1192C 178.833,1192.33 178.167,1192.67 177.5,1193C 180.661,1195.33 183.661,1197.83 186.5,1200.5C 188.415,1202.07 189.415,1204.07 189.5,1206.5 Z"/></g>
<g><path style="opacity:1" fill="#49494b" d="M 425.5,1190.5 C 427.823,1195.79 430.157,1201.12 432.5,1206.5C 430.769,1203.94 428.769,1201.44 426.5,1199C 426.833,1198.67 427.167,1198.33 427.5,1198C 426.584,1197.63 425.75,1197.13 425,1196.5C 424.82,1194.51 424.986,1192.51 425.5,1190.5 Z"/></g>
<g><path style="opacity:1" fill="#5c5c5e" d="M 215.5,1237.5 C 216.458,1237.95 217.292,1238.62 218,1239.5C 219.397,1244.62 219.23,1249.62 217.5,1254.5C 218.011,1248.58 217.344,1242.92 215.5,1237.5 Z"/></g>
<g><path style="opacity:1" fill="#4f4f4f" d="M 336.5,1248.5 C 330.098,1247.84 323.764,1248.51 317.5,1250.5C 323.609,1247.49 329.942,1246.83 336.5,1248.5 Z"/></g>
<g><path style="opacity:1" fill="#59585d" d="M 548.5,1253.5 C 551.874,1253.67 555.207,1254.17 558.5,1255C 559.056,1255.38 559.389,1255.88 559.5,1256.5C 555.537,1256.14 551.87,1255.14 548.5,1253.5 Z"/></g>
<g><path style="opacity:1" fill="#404043" d="M 576.5,1268.5 C 577.735,1268.72 578.735,1269.39 579.5,1270.5C 581.677,1269.5 582.011,1270.16 580.5,1272.5C 581.441,1272.49 582.108,1272.99 582.5,1274C 582.354,1275.73 581.687,1275.89 580.5,1274.5C 578.964,1279.39 579.297,1284.06 581.5,1288.5C 579.912,1292.17 577.912,1295.5 575.5,1298.5C 577.055,1292.78 578.055,1286.94 578.5,1281C 578.517,1276.7 577.851,1272.54 576.5,1268.5 Z"/></g>
<g><path style="opacity:1" fill="#56555a" d="M 735.5,1292.5 C 735.5,1292.83 735.5,1293.17 735.5,1293.5C 728.071,1293.82 720.738,1293.82 713.5,1293.5C 716.105,1292.41 718.938,1291.74 722,1291.5C 726.47,1292.26 730.97,1292.6 735.5,1292.5 Z"/></g>
<g><path style="opacity:1" fill="#2e2e2f" d="M 713.5,1293.5 C 720.738,1293.82 728.071,1293.82 735.5,1293.5C 735.5,1298.17 735.5,1302.83 735.5,1307.5C 722.833,1307.5 710.167,1307.5 697.5,1307.5C 699.977,1299.7 705.311,1295.03 713.5,1293.5 Z"/></g>
<g><path style="opacity:1" fill="#48484a" d="M 277.5,1292.5 C 276.829,1293.85 276.829,1295.01 277.5,1296C 274.191,1299.47 271.525,1303.31 269.5,1307.5C 269.167,1307.5 268.833,1307.5 268.5,1307.5C 270.283,1301.73 273.283,1296.73 277.5,1292.5 Z"/></g>
</svg>
