<svg class="" id="" xmlns="http://www.w3.org/2000/svg" style="" width="1000" height="1000" viewBox="0 0 10000 10000"><g id="l5G5qZv7x7mJ3R7G2r9QqoI" fill="rgb(255,255,255)" style="transform: none;"><g style="transform: none;"><path id="pLfNpEUmA" d="M6625 9289 l-420 -6 -245 -12 c-135 -6 -486 -18 -780 -27 -294 -8 -580 -19 -636 -24 l-101 -9 -554 -11 c-305 -6 -808 -17 -1119 -25 l-565 -13 -27 -11 -27 -10 -11 -22 -12 -21 11 -207 c6 -113 18 -291 26 -396 8 -104 19 -316 25 -470 l10 -280 0 -510 0 -510 -10 -150 c-5 -82 -17 -238 -26 -345 l-16 -195 13 -205 12 -205 1 -415 1 -415 -18 -120 -19 -120 -33 -95 c-18 -52 -44 -122 -58 -156 l-26 -60 -12 -74 -11 -73 13 -92 12 -92 -29 -53 -29 -53 -42 -42 -42 -42 -87 -38 -87 -37 -33 -1 -32 -1 -42 38 -42 38 -72 34 -71 34 -100 20 -100 21 -30 -7 c-16 -4 -40 -13 -52 -21 l-22 -14 -42 -72 c-56 -95 -82 -135 -154 -237 -34 -47 -99 -147 -146 -223 -46 -76 -160 -254 -254 -397 -93 -143 -194 -297 -222 -342 l-53 -83 0 -22 0 -23 47 -34 47 -34 245 -123 c135 -68 273 -139 306 -157 33 -19 76 -43 95 -54 317 -181 705 -437 1065 -704 l111 -82 59 -30 c33 -16 114 -48 180 -70 119 -41 230 -80 335 -121 l56 -21 89 -56 c116 -73 240 -132 396 -188 68 -25 189 -70 269 -101 178 -70 342 -125 370 -125 12 0 62 -12 111 -26 l90 -26 67 45 c116 78 236 130 390 171 l93 25 118 12 118 12 149 -12 149 -12 99 -20 c186 -38 356 -101 478 -178 36 -23 71 -41 78 -41 7 0 88 27 179 59 l166 60 127 60 c154 74 311 138 478 196 222 77 262 97 430 214 63 44 169 115 235 157 66 42 156 101 201 131 l80 54 85 75 c46 42 93 82 104 89 l20 14 110 16 110 16 70 33 70 33 80 60 c44 34 115 87 157 119 131 100 333 247 572 415 215 152 389 279 583 427 l82 63 6 20 7 20 -46 67 -46 67 -95 104 c-52 57 -121 138 -152 179 -32 41 -89 113 -127 161 -65 81 -162 213 -251 340 -75 106 -132 176 -179 219 l-47 44 -34 14 -34 14 -110 0 -110 0 -100 -19 c-109 -21 -249 -65 -296 -92 l-30 -17 -47 -7 -48 -7 -35 6 -35 7 -36 31 -35 31 -24 41 -24 42 -12 609 -11 610 11 165 c6 91 18 255 26 365 l14 200 6 625 c9 942 30 1720 65 2390 l11 195 -10 48 -9 48 -18 14 c-11 8 -32 17 -49 19 -51 8 -816 11 -1260 5z"></path></g></g><g id="l4Ij2eD6putFlV8rgzp3bol" fill="rgb(0,0,0)" style="transform: none;"><g style="transform: none;"></g></g></svg>