<svg id="svg" version="1.1" width="3508" height="4961" xmlns="http://www.w3.org/2000/svg"><path d="M1125.581 618.397 L 1065.676 746.794 937.347 806.647 C 866.766 839.566,809.018 866.725,809.018 867.000 C 809.018 867.275,866.785 894.443,937.390 927.373 L 1065.761 987.246 1125.614 1115.623 C 1158.533 1186.230,1185.699 1243.996,1185.983 1243.991 C 1186.267 1243.986,1213.442 1186.216,1246.372 1115.613 L 1306.244 987.244 1434.613 927.372 C 1505.216 894.442,1562.982 867.275,1562.982 867.000 C 1562.982 866.725,1505.211 839.556,1434.603 806.623 L 1306.224 746.747 1246.377 618.373 C 1213.461 547.768,1186.295 490.000,1186.008 490.000 C 1185.721 490.000,1158.529 547.779,1125.581 618.397 M2284.581 1359.397 L 2224.676 1487.794 2096.347 1547.647 C 2025.766 1580.566,1968.018 1607.725,1968.018 1608.000 C 1968.018 1608.275,2025.785 1635.443,2096.390 1668.373 L 2224.761 1728.246 2284.614 1856.623 C 2317.533 1927.230,2344.699 1984.996,2344.983 1984.991 C 2345.267 1984.986,2372.442 1927.216,2405.372 1856.613 L 2465.244 1728.244 2593.613 1668.372 C 2664.216 1635.442,2721.982 1608.275,2721.982 1608.000 C 2721.982 1607.725,2664.211 1580.556,2593.603 1547.623 L 2465.224 1487.747 2405.377 1359.373 C 2372.461 1288.768,2345.295 1231.000,2345.008 1231.000 C 2344.721 1231.000,2317.529 1288.779,2284.581 1359.397 " stroke="none" fill="black" fill-rule="evenodd"/></svg>