<svg id="svg" version="1.1" width="3508" height="4961" xmlns="http://www.w3.org/2000/svg"><path d="M2284.500 639.078 L 2224.500 767.154 2096.256 826.827 C 2025.722 859.647,1968.013 886.725,1968.013 887.000 C 1968.013 887.275,2025.722 914.351,2096.256 947.169 L 2224.500 1006.838 2284.500 1134.916 C 2317.500 1205.360,2344.725 1262.995,2345.000 1262.994 C 2345.275 1262.994,2372.500 1205.356,2405.500 1134.909 L 2465.500 1006.823 2593.745 947.162 C 2664.280 914.348,2721.990 887.275,2721.990 887.000 C 2721.990 886.725,2664.280 859.652,2593.745 826.838 L 2465.500 767.176 2405.500 639.089 C 2372.500 568.641,2345.275 511.001,2345.000 511.001 C 2344.725 511.001,2317.500 568.636,2284.500 639.078 M1125.500 1712.596 L 1065.500 1841.149 938.039 1900.585 C 867.936 1933.276,810.207 1960.393,809.754 1960.846 C 809.301 1961.299,866.713 1988.631,937.336 2021.585 L 1065.742 2081.500 1125.582 2209.750 C 1158.493 2280.287,1185.681 2338.000,1186.000 2338.000 C 1186.319 2338.000,1213.507 2280.287,1246.418 2209.750 L 1306.258 2081.500 1434.664 2021.585 C 1505.287 1988.631,1562.695 1961.295,1562.238 1960.838 C 1561.781 1960.381,1504.053 1933.274,1433.953 1900.601 L 1306.500 1841.196 1246.500 1712.617 C 1213.500 1641.898,1186.275 1584.039,1186.000 1584.040 C 1185.725 1584.042,1158.500 1641.892,1125.500 1712.596 " stroke="none" fill="black" fill-rule="evenodd"/></svg>