<svg id="svg" version="1.1" width="3253" height="2000" xmlns="http://www.w3.org/2000/svg"><path d="M620.002 18.750 C 616.670 29.063,583.445 131.550,546.170 246.500 L 478.398 455.500 239.696 456.000 L 0.994 456.500 53.747 494.959 C 82.761 516.111,169.275 579.067,246.000 634.862 C 322.725 690.657,385.826 736.586,386.224 736.927 C 386.622 737.268,377.253 767.462,365.404 804.024 C 353.555 840.586,322.936 935.075,297.361 1014.000 C 271.786 1092.925,248.227 1165.516,245.009 1175.314 C 239.214 1192.951,239.183 1193.110,241.828 1191.383 C 244.050 1189.933,381.368 1090.007,584.000 942.387 L 625.500 912.154 625.751 1456.077 L 626.002 2000.000 1626.001 2000.000 L 2626.000 2000.000 2626.000 1859.500 C 2626.000 1782.225,2626.257 1719.000,2626.572 1719.000 C 2627.087 1719.000,2711.963 1780.703,2935.000 1943.222 C 2977.075 1973.880,3011.793 1998.972,3012.151 1998.982 C 3012.509 1998.992,3010.178 1991.012,3006.971 1981.250 C 3003.763 1971.487,2972.288 1874.400,2937.026 1765.500 C 2901.764 1656.600,2871.173 1562.234,2869.046 1555.797 L 2865.179 1544.094 2921.912 1502.797 C 2953.115 1480.084,3039.905 1416.950,3114.779 1362.500 C 3189.653 1308.050,3250.933 1263.163,3250.957 1262.752 C 3250.981 1262.341,3143.581 1261.891,3012.291 1261.752 L 2773.582 1261.500 2756.386 1208.500 C 2746.928 1179.350,2713.722 1076.918,2682.595 980.872 L 2626.000 806.245 2626.000 403.122 L 2626.000 0.000 1626.031 0.000 L 626.062 0.000 620.002 18.750 M2596.000 464.669 L 2596.000 899.338 2556.574 1020.919 C 2534.890 1087.789,2508.453 1169.384,2497.824 1202.243 L 2478.500 1261.985 2239.750 1261.993 C 2108.438 1261.997,2001.020 1262.338,2001.044 1262.750 C 2001.069 1263.162,2004.331 1265.785,2008.294 1268.578 C 2021.573 1277.935,2384.485 1542.169,2385.669 1543.342 C 2386.560 1544.224,2380.773 1563.197,2361.372 1623.000 C 2341.434 1684.457,2285.038 1858.441,2252.863 1957.750 L 2248.894 1970.000 1452.447 1970.000 L 656.000 1970.000 656.000 1451.941 C 656.000 1037.758,656.251 934.033,657.250 934.636 C 657.938 935.051,681.450 952.103,709.500 972.530 C 857.444 1080.266,1010.643 1191.694,1011.688 1192.325 C 1012.384 1192.745,1011.883 1190.028,1010.479 1185.771 C 1009.160 1181.772,981.478 1096.375,948.963 996.000 C 916.448 895.625,884.297 796.406,877.517 775.514 L 865.189 737.529 871.845 732.670 C 875.505 729.998,962.388 666.767,1064.917 592.156 L 1251.335 456.500 1012.568 456.000 L 773.802 455.500 759.491 411.500 C 751.620 387.300,725.115 305.580,700.590 229.899 L 656.000 92.298 656.000 61.149 L 656.000 30.000 1626.000 30.000 L 2596.000 30.000 2596.000 464.669 M683.492 274.250 C 714.764 370.637,742.991 457.711,746.219 467.748 L 752.088 485.995 955.624 486.248 L 1159.160 486.500 1111.830 520.954 C 1085.798 539.903,1012.300 593.398,948.500 639.830 C 884.700 686.262,831.956 724.758,831.292 725.376 C 830.358 726.244,844.383 770.570,892.872 920.000 C 927.405 1026.425,955.546 1113.653,955.407 1113.840 C 955.187 1114.135,861.733 1046.254,679.079 913.124 C 650.248 892.110,626.118 875.124,625.458 875.378 C 624.798 875.631,597.814 895.112,565.494 918.669 C 364.057 1065.490,297.469 1113.754,297.230 1113.110 C 297.082 1112.710,325.105 1025.585,359.504 919.500 C 409.734 764.590,421.796 726.381,420.773 725.411 C 420.073 724.748,382.600 697.353,337.500 664.534 C 292.400 631.715,218.953 578.232,174.285 545.682 L 93.071 486.500 296.503 486.248 L 499.935 485.995 510.780 452.748 C 516.744 434.461,544.996 347.388,573.562 259.251 C 602.128 171.114,625.755 99.002,626.067 99.001 C 626.379 99.000,652.220 177.863,683.492 274.250 M2690.016 1101.000 C 2722.517 1201.375,2749.592 1285.075,2750.184 1287.000 C 2750.776 1288.925,2751.707 1291.063,2752.253 1291.750 C 2753.041 1292.743,2794.959 1293.000,2955.837 1293.000 C 3129.764 1293.000,3158.221 1293.199,3156.964 1294.404 C 3156.159 1295.176,3082.375 1349.005,2993.000 1414.024 C 2903.625 1479.043,2830.378 1532.346,2830.229 1532.475 C 2830.031 1532.646,2944.858 1887.807,2954.502 1916.850 C 2955.547 1919.995,2955.608 1920.940,2954.724 1920.261 C 2954.051 1919.744,2917.333 1893.036,2873.129 1860.911 C 2828.925 1828.785,2755.490 1775.388,2709.940 1742.250 C 2664.390 1709.112,2626.650 1682.000,2626.073 1682.000 C 2624.991 1682.000,2592.633 1705.426,2407.000 1840.604 C 2295.398 1921.872,2295.316 1921.931,2296.236 1920.405 C 2297.198 1918.808,2422.173 1532.839,2421.830 1532.523 C 2421.340 1532.072,2354.405 1483.297,2216.597 1382.973 L 2093.694 1293.500 2296.765 1293.248 L 2499.836 1292.995 2503.854 1280.748 C 2509.065 1264.862,2522.812 1222.478,2579.021 1049.000 C 2604.416 970.625,2625.457 906.072,2625.780 905.549 C 2626.102 905.026,2627.392 907.726,2628.645 911.549 C 2629.899 915.372,2657.516 1000.625,2690.016 1101.000 M2596.000 1855.500 L 2596.000 1970.000 2438.300 1970.000 C 2351.565 1970.000,2281.028 1969.620,2281.550 1969.156 C 2282.786 1968.059,2279.695 1970.313,2449.000 1847.050 C 2529.025 1788.788,2594.838 1741.092,2595.250 1741.059 C 2595.662 1741.027,2596.000 1792.525,2596.000 1855.500 " stroke="none" fill="black" fill-rule="evenodd"/></svg>