<svg id="svg" version="1.1" width="2289" height="2063" xmlns="http://www.w3.org/2000/svg"><path d="M538.577 217.250 C 517.748 261.938,499.949 299.185,499.023 300.023 C 498.097 300.861,460.813 318.609,416.170 339.464 C 371.526 360.319,335.000 377.660,335.000 378.000 C 335.000 378.340,371.526 395.681,416.170 416.536 C 460.813 437.391,498.098 455.139,499.026 455.977 C 499.954 456.815,517.754 494.063,538.581 538.750 C 559.409 583.438,576.698 620.000,577.002 620.000 C 577.307 620.000,594.698 583.212,615.650 538.250 L 653.745 456.500 663.629 451.500 C 669.065 448.750,706.247 431.230,746.256 412.567 C 786.265 393.904,819.000 378.349,819.000 378.000 C 819.000 377.651,786.265 362.096,746.256 343.433 C 706.247 324.770,669.065 307.250,663.629 304.500 L 653.745 299.500 615.650 217.750 C 594.698 172.787,577.306 136.000,577.002 136.000 C 576.697 136.000,559.406 172.563,538.577 217.250 M380.000 225.607 C 380.000 280.855,380.239 293.122,381.307 292.712 C 382.026 292.437,388.776 289.374,396.307 285.906 L 410.000 279.602 410.000 233.801 L 410.000 188.000 449.552 188.000 L 489.104 188.000 496.052 173.391 C 499.873 165.356,503.000 158.606,503.000 158.391 C 503.000 158.176,475.325 158.000,441.500 158.000 L 380.000 158.000 380.000 225.607 M651.167 158.880 C 651.350 159.364,654.425 166.101,658.000 173.850 L 664.500 187.941 1271.750 187.970 L 1879.000 188.000 1879.009 598.750 L 1879.019 1009.500 1893.166 1016.000 C 1900.947 1019.575,1907.693 1022.650,1908.157 1022.833 C 1908.621 1023.017,1909.000 828.504,1909.000 590.583 L 1909.000 158.000 1279.917 158.000 C 918.177 158.000,650.975 158.374,651.167 158.880 M380.000 1074.893 L 380.000 1687.000 1144.500 1687.000 L 1909.000 1687.000 1909.000 1450.917 C 1909.000 1314.244,1908.627 1214.974,1908.114 1215.167 C 1907.627 1215.350,1900.881 1218.425,1893.122 1222.000 L 1879.016 1228.500 1879.008 1442.750 L 1879.000 1657.000 1144.500 1657.000 L 410.000 1657.000 410.000 1066.699 L 410.000 476.398 396.307 470.094 C 388.776 466.626,382.026 463.563,381.307 463.288 C 380.232 462.875,380.000 571.373,380.000 1074.893 M1697.568 958.250 C 1676.734 1002.938,1659.176 1040.066,1658.550 1040.758 C 1657.622 1041.784,1565.863 1085.138,1507.750 1112.006 C 1500.188 1115.503,1494.000 1118.650,1494.000 1119.000 C 1494.000 1119.350,1500.188 1122.497,1507.750 1125.994 C 1566.003 1152.927,1657.621 1196.216,1658.543 1197.242 C 1659.164 1197.934,1676.722 1235.063,1697.560 1279.750 C 1718.398 1324.438,1735.696 1361.000,1735.999 1361.000 C 1736.303 1361.000,1753.591 1324.438,1774.419 1279.750 C 1795.246 1235.063,1813.055 1197.807,1813.995 1196.960 C 1814.934 1196.113,1852.220 1178.365,1896.852 1157.520 C 1941.483 1136.675,1978.000 1119.346,1978.000 1119.011 C 1978.000 1118.676,1941.477 1101.337,1896.837 1080.479 C 1852.197 1059.622,1814.907 1041.869,1813.970 1041.028 C 1813.032 1040.188,1795.231 1002.938,1774.411 958.250 C 1753.592 913.563,1736.308 877.000,1736.003 877.000 C 1735.697 877.000,1718.401 913.563,1697.568 958.250 M148.059 1768.761 C 137.366 1791.717,125.396 1817.277,121.459 1825.559 L 114.301 1840.619 57.651 1867.053 C 26.493 1881.592,1.000 1893.716,1.000 1893.996 C 1.000 1894.275,26.537 1906.427,57.750 1921.002 L 114.500 1947.500 140.998 2004.250 C 155.573 2035.463,167.723 2061.000,168.000 2061.000 C 168.277 2061.000,180.427 2035.472,195.002 2004.271 L 221.500 1947.543 238.640 1939.521 C 248.068 1935.110,273.602 1923.175,295.384 1913.000 C 317.165 1902.825,334.986 1894.275,334.984 1894.000 C 334.983 1893.725,309.909 1881.811,279.264 1867.523 C 248.620 1853.236,222.861 1840.861,222.023 1840.022 C 221.186 1839.184,208.800 1813.416,194.500 1782.760 C 180.200 1752.104,168.275 1727.022,168.000 1727.022 C 167.725 1727.022,158.751 1745.804,148.059 1768.761 M2117.362 1733.750 C 2115.699 1737.463,2103.822 1762.958,2090.968 1790.406 L 2067.598 1840.313 2050.549 1848.443 C 2041.172 1852.914,2015.616 1864.881,1993.757 1875.036 C 1971.898 1885.191,1954.013 1893.725,1954.012 1894.000 C 1954.012 1894.275,1968.296 1901.150,1985.756 1909.278 C 2003.215 1917.406,2028.750 1929.353,2042.500 1935.827 L 2067.500 1947.598 2093.998 2004.299 C 2108.573 2035.485,2120.723 2061.000,2121.000 2061.000 C 2121.277 2061.000,2133.427 2035.463,2148.002 2004.250 L 2174.500 1947.500 2231.250 1921.002 C 2262.463 1906.427,2288.000 1894.275,2288.000 1893.996 C 2288.000 1893.716,2262.511 1881.594,2231.358 1867.057 L 2174.715 1840.627 2167.064 1824.563 C 2162.855 1815.728,2150.882 1790.166,2140.456 1767.759 C 2130.030 1745.351,2121.249 1727.013,2120.943 1727.009 C 2120.636 1727.004,2119.025 1730.037,2117.362 1733.750 M1108.500 1755.126 C 1052.660 1758.460,992.857 1772.891,951.000 1793.133 C 941.925 1797.522,931.125 1803.191,927.000 1805.732 C 894.982 1825.453,873.721 1849.512,866.568 1874.119 L 864.944 1879.703 622.472 1879.209 L 380.000 1878.714 380.000 1893.857 L 380.000 1909.000 545.250 1909.001 C 636.138 1909.001,745.250 1909.300,787.723 1909.665 L 864.946 1910.329 867.098 1916.914 C 878.323 1951.268,913.295 1981.473,967.777 2003.868 C 1001.307 2017.651,1044.102 2027.780,1089.500 2032.678 C 1112.733 2035.184,1176.112 2035.202,1198.500 2032.707 C 1238.960 2028.200,1269.040 2021.993,1299.490 2011.868 C 1341.042 1998.051,1370.924 1981.502,1393.786 1959.643 C 1408.088 1945.969,1416.675 1933.097,1421.899 1917.500 L 1424.913 1908.500 1666.957 1908.890 L 1909.000 1909.280 1909.000 1894.140 L 1909.000 1879.000 1724.250 1878.861 C 1622.638 1878.784,1513.461 1878.446,1481.636 1878.111 L 1423.773 1877.500 1422.070 1872.000 C 1417.447 1857.071,1405.037 1839.339,1389.845 1825.955 C 1332.888 1775.776,1223.572 1748.255,1108.500 1755.126 M1174.000 1785.033 C 1288.969 1791.044,1386.944 1836.810,1394.985 1888.258 C 1398.474 1910.585,1382.648 1934.692,1351.000 1955.260 C 1289.221 1995.408,1180.042 2013.818,1080.000 2000.956 C 1029.878 1994.511,989.062 1982.750,955.311 1965.027 C 924.759 1948.983,903.400 1928.805,896.319 1909.298 C 893.550 1901.669,893.199 1890.061,895.503 1882.302 C 902.636 1858.284,932.296 1832.890,973.232 1815.754 C 1030.986 1791.578,1099.289 1781.126,1174.000 1785.033 M995.000 1894.500 L 995.000 1936.000 1027.000 1936.000 L 1059.000 1936.000 1059.000 1920.212 L 1059.000 1904.425 1053.997 1899.497 L 1048.994 1894.569 1053.997 1889.503 L 1059.000 1884.437 1059.000 1868.719 L 1059.000 1853.000 1027.000 1853.000 L 995.000 1853.000 995.000 1894.500 M1065.000 1894.500 L 1065.000 1936.000 1096.500 1936.000 L 1128.000 1936.000 1128.000 1894.500 L 1128.000 1853.000 1117.500 1853.000 L 1107.000 1853.000 1107.000 1885.000 L 1107.000 1917.000 1096.500 1917.000 L 1086.000 1917.000 1086.000 1885.000 L 1086.000 1853.000 1075.500 1853.000 L 1065.000 1853.000 1065.000 1894.500 M1176.000 1885.000 L 1176.000 1917.000 1165.500 1917.000 L 1155.000 1917.000 1155.000 1910.500 L 1155.000 1904.000 1144.500 1904.000 L 1134.000 1904.000 1134.000 1920.000 L 1134.000 1936.000 1165.500 1936.000 L 1197.000 1936.000 1197.000 1894.500 L 1197.000 1853.000 1186.500 1853.000 L 1176.000 1853.000 1176.000 1885.000 M1203.000 1894.500 L 1203.000 1936.000 1214.000 1936.000 L 1225.000 1936.000 1225.000 1894.500 L 1225.000 1853.000 1214.000 1853.000 L 1203.000 1853.000 1203.000 1894.500 M1231.000 1894.500 L 1231.000 1936.000 1241.500 1936.000 L 1252.000 1936.000 1252.000 1920.000 L 1252.000 1904.000 1262.500 1904.000 L 1273.000 1904.000 1273.000 1920.000 L 1273.000 1936.000 1283.500 1936.000 L 1294.000 1936.000 1294.000 1894.500 L 1294.000 1853.000 1283.500 1853.000 L 1273.000 1853.000 1273.000 1869.000 L 1273.000 1885.000 1262.500 1885.000 L 1252.000 1885.000 1252.000 1869.000 L 1252.000 1853.000 1241.500 1853.000 L 1231.000 1853.000 1231.000 1894.500 M1037.000 1878.500 L 1037.000 1885.000 1026.500 1885.000 L 1016.000 1885.000 1016.000 1878.500 L 1016.000 1872.000 1026.500 1872.000 L 1037.000 1872.000 1037.000 1878.500 M1037.000 1910.500 L 1037.000 1917.000 1026.500 1917.000 L 1016.000 1917.000 1016.000 1910.500 L 1016.000 1904.000 1026.500 1904.000 L 1037.000 1904.000 1037.000 1910.500 " stroke="none" fill="black" fill-rule="evenodd"/></svg>