<svg id="svg" version="1.1" width="3057" height="2000" xmlns="http://www.w3.org/2000/svg"><path d="M528.000 50.903 L 528.000 101.806 506.672 167.653 C 494.941 203.869,466.936 290.311,444.439 359.748 L 403.535 485.995 202.118 486.248 L 0.702 486.500 38.601 514.036 C 215.410 642.496,326.000 723.328,326.000 724.100 C 326.000 724.608,304.660 790.830,278.577 871.261 C 204.632 1099.288,202.025 1107.360,202.270 1107.578 C 202.396 1107.690,216.675 1097.443,234.000 1084.806 C 251.325 1072.169,309.150 1030.038,362.500 991.182 C 415.850 952.326,474.800 909.387,493.500 895.763 L 527.500 870.991 527.751 1435.496 L 528.002 2000.000 1527.998 2000.000 L 2527.994 2000.000 2528.247 1839.589 L 2528.500 1679.178 2560.500 1702.476 C 2578.100 1715.290,2651.218 1768.545,2722.984 1820.819 C 2794.751 1873.094,2853.621 1915.713,2853.806 1915.527 C 2854.121 1915.212,2831.153 1844.051,2759.548 1623.500 L 2730.003 1532.500 2732.752 1530.236 C 2734.263 1528.991,2782.975 1493.421,2841.000 1451.190 C 2899.025 1408.960,2970.800 1356.716,3000.500 1335.092 C 3030.200 1313.469,3054.650 1295.378,3054.833 1294.891 C 3055.025 1294.379,2970.267 1293.898,2853.873 1293.752 L 2652.580 1293.500 2609.787 1161.500 C 2586.251 1088.900,2558.220 1002.409,2547.497 969.298 L 2528.000 909.096 2528.000 454.548 L 2528.000 0.000 1528.000 0.000 L 528.000 0.000 528.000 50.903 M2498.040 516.250 L 2498.079 1002.500 2450.858 1148.250 L 2403.637 1294.000 2202.318 1294.000 C 2091.593 1294.000,2001.023 1294.338,2001.051 1294.750 C 2001.092 1295.353,2226.667 1459.835,2306.537 1517.500 C 2317.202 1525.200,2325.944 1531.915,2325.964 1532.422 C 2326.001 1533.380,2317.778 1558.865,2245.430 1781.990 C 2221.624 1855.409,2202.270 1915.604,2202.422 1915.755 C 2202.574 1915.907,2221.402 1902.411,2244.264 1885.765 C 2305.063 1841.496,2477.928 1715.614,2488.728 1707.744 L 2498.000 1700.987 2498.000 1835.494 L 2498.000 1970.000 1528.000 1970.000 L 558.000 1970.000 558.000 1431.500 C 558.000 1135.325,558.250 893.000,558.556 893.000 C 559.049 893.000,614.651 933.359,728.000 1015.991 C 835.847 1094.613,853.189 1107.144,853.588 1106.745 C 853.828 1106.505,829.242 1029.852,798.952 936.404 C 768.662 842.957,740.754 756.850,736.935 745.055 C 733.115 733.260,730.330 723.302,730.745 722.927 C 731.160 722.551,740.725 715.575,752.000 707.424 C 763.275 699.273,827.850 652.293,895.500 603.023 C 963.150 553.753,1026.879 507.380,1037.121 499.971 L 1055.741 486.500 854.221 486.000 L 652.701 485.500 605.630 341.000 L 558.560 196.500 558.258 113.250 L 557.955 30.000 1527.978 30.000 L 2498.000 30.000 2498.040 516.250 " stroke="none" fill="black" fill-rule="evenodd"/></svg>