<svg id="svg" version="1.1" width="2289" height="2146" xmlns="http://www.w3.org/2000/svg"><path d="M538.546 301.250 C 517.734 345.938,499.948 383.185,499.022 384.023 C 498.097 384.861,460.813 402.609,416.170 423.464 C 371.526 444.319,335.000 461.656,335.000 461.991 C 335.000 462.471,434.421 509.151,489.500 534.533 L 499.500 539.141 537.956 621.570 C 559.107 666.907,576.681 704.000,577.010 704.000 C 577.339 704.000,594.878 666.935,615.987 621.632 L 654.366 539.264 736.683 500.975 C 781.957 479.916,819.000 462.389,819.000 462.026 C 819.000 461.663,786.265 446.096,746.256 427.433 C 706.247 408.770,669.070 391.250,663.641 388.500 L 653.771 383.500 615.684 301.750 C 594.736 256.788,577.325 220.000,576.992 220.000 C 576.660 220.000,559.359 256.563,538.546 301.250 M380.000 309.607 C 380.000 364.855,380.239 377.122,381.307 376.712 C 382.026 376.437,388.776 373.374,396.307 369.906 L 410.000 363.602 410.000 317.801 L 410.000 272.000 449.552 272.000 L 489.104 272.000 496.052 257.391 C 499.873 249.356,503.000 242.606,503.000 242.391 C 503.000 242.176,475.325 242.000,441.500 242.000 L 380.000 242.000 380.000 309.607 M651.000 242.391 C 651.000 242.606,654.127 249.356,657.948 257.391 L 664.896 272.000 1271.948 272.000 L 1879.000 272.000 1879.030 682.750 L 1879.059 1093.500 1893.150 1100.000 C 1900.899 1103.575,1907.636 1106.650,1908.120 1106.833 C 1908.626 1107.025,1909.000 923.201,1909.000 674.583 L 1909.000 242.000 1280.000 242.000 C 934.050 242.000,651.000 242.176,651.000 242.391 M380.000 1159.000 L 380.000 1771.000 1144.500 1771.000 L 1909.000 1771.000 1909.000 1534.917 C 1909.000 1398.244,1908.627 1298.974,1908.114 1299.167 C 1907.627 1299.350,1900.881 1302.425,1893.122 1306.000 L 1879.016 1312.500 1879.008 1526.750 L 1879.000 1741.000 1144.500 1741.000 L 410.000 1741.000 410.000 1150.676 L 410.000 560.353 395.551 553.676 C 387.603 550.004,380.853 547.000,380.551 547.000 C 380.248 547.000,380.000 822.400,380.000 1159.000 M1697.529 1042.250 C 1676.707 1086.938,1659.156 1124.073,1658.526 1124.774 C 1657.580 1125.827,1608.624 1148.939,1509.250 1195.248 C 1500.862 1199.156,1494.000 1202.624,1494.000 1202.954 C 1494.000 1203.283,1531.044 1220.833,1576.319 1241.952 L 1658.639 1280.351 1697.021 1362.676 C 1718.132 1407.954,1735.672 1445.000,1736.000 1445.000 C 1736.328 1445.000,1753.868 1407.956,1774.977 1362.679 L 1813.358 1280.358 1895.679 1241.977 C 1940.956 1220.868,1978.000 1203.328,1978.000 1202.999 C 1978.000 1202.671,1941.477 1185.337,1896.837 1164.479 C 1852.197 1143.622,1814.910 1125.869,1813.976 1125.028 C 1813.042 1124.188,1795.248 1086.938,1774.433 1042.250 C 1753.619 997.563,1736.318 961.000,1735.988 961.000 C 1735.658 961.000,1718.351 997.563,1697.529 1042.250 M140.999 1867.755 L 114.498 1924.500 57.749 1950.998 C 26.537 1965.573,1.000 1977.723,1.000 1978.000 C 1.000 1978.277,26.537 1990.427,57.750 2005.002 L 114.500 2031.500 140.998 2088.250 C 155.573 2119.463,167.723 2144.996,167.998 2144.991 C 168.274 2144.986,180.152 2119.898,194.394 2089.241 C 208.635 2058.583,221.082 2032.786,222.053 2031.913 C 223.024 2031.040,248.830 2018.665,279.400 2004.413 C 309.970 1990.161,334.982 1978.275,334.982 1978.000 C 334.983 1977.725,316.649 1968.974,294.241 1958.553 C 271.834 1948.132,246.281 1936.168,237.458 1931.968 L 221.417 1924.330 194.958 1867.672 C 180.406 1836.511,168.275 1811.014,168.000 1811.012 C 167.725 1811.011,155.575 1836.545,140.999 1867.755 M2094.050 1867.659 L 2067.599 1924.312 2050.550 1932.443 C 2041.172 1936.914,2015.616 1948.881,1993.757 1959.036 C 1971.898 1969.191,1954.013 1977.725,1954.013 1978.000 C 1954.013 1978.275,1971.898 1986.809,1993.757 1996.964 C 2015.616 2007.119,2041.177 2019.088,2050.559 2023.562 L 2067.618 2031.697 2094.053 2088.348 C 2108.592 2119.507,2120.716 2144.996,2120.994 2144.991 C 2121.272 2144.986,2133.166 2119.898,2147.424 2089.241 C 2161.682 2058.583,2173.736 2032.984,2174.211 2032.353 C 2174.685 2031.722,2200.482 2019.350,2231.537 2004.859 C 2262.592 1990.368,2288.000 1978.284,2288.000 1978.004 C 2288.000 1977.725,2262.464 1965.573,2231.254 1950.998 L 2174.508 1924.500 2148.004 1867.759 C 2133.427 1836.551,2121.275 1811.015,2121.000 1811.012 C 2120.725 1811.009,2108.597 1836.500,2094.050 1867.659 M1108.500 1839.126 C 1079.737 1840.843,1042.809 1846.692,1014.642 1853.990 C 936.665 1874.195,880.994 1912.617,867.416 1955.602 L 864.857 1963.703 622.428 1963.209 L 380.000 1962.714 380.000 1977.857 L 380.000 1993.000 564.250 1993.140 C 665.588 1993.218,774.733 1993.555,806.796 1993.890 L 865.092 1994.500 867.796 2002.525 C 877.112 2030.174,904.197 2056.678,943.699 2076.801 C 982.661 2096.648,1027.331 2109.087,1085.097 2116.173 C 1101.467 2118.182,1107.974 2118.429,1144.000 2118.410 C 1193.788 2118.383,1215.765 2116.246,1256.638 2107.455 C 1344.023 2088.663,1406.928 2048.196,1422.102 2001.011 L 1424.840 1992.500 1666.920 1992.890 L 1909.000 1993.280 1909.000 1978.140 L 1909.000 1963.000 1724.250 1962.861 C 1622.638 1962.784,1513.461 1962.446,1481.636 1962.111 L 1423.773 1961.500 1422.070 1956.000 C 1408.850 1913.310,1352.623 1874.451,1274.500 1854.014 C 1224.434 1840.916,1166.116 1835.686,1108.500 1839.126 M1174.000 1869.033 C 1288.969 1875.044,1386.944 1920.810,1394.985 1972.258 C 1401.846 2016.161,1334.300 2062.976,1238.969 2080.388 C 1167.899 2093.368,1094.513 2091.658,1027.000 2075.446 C 960.973 2059.591,908.382 2026.532,896.319 1993.298 C 893.550 1985.669,893.199 1974.061,895.503 1966.302 C 901.642 1945.631,924.623 1923.667,957.523 1907.026 C 1014.190 1878.365,1091.841 1864.736,1174.000 1869.033 M995.000 1978.500 L 995.000 2020.000 1027.000 2020.000 L 1059.000 2020.000 1059.000 2004.212 L 1059.000 1988.425 1053.997 1983.497 L 1048.994 1978.569 1053.997 1973.503 L 1059.000 1968.437 1059.000 1952.719 L 1059.000 1937.000 1027.000 1937.000 L 995.000 1937.000 995.000 1978.500 M1065.000 1978.500 L 1065.000 2020.000 1096.500 2020.000 L 1128.000 2020.000 1128.000 1978.500 L 1128.000 1937.000 1117.500 1937.000 L 1107.000 1937.000 1107.000 1969.000 L 1107.000 2001.000 1096.500 2001.000 L 1086.000 2001.000 1086.000 1969.000 L 1086.000 1937.000 1075.500 1937.000 L 1065.000 1937.000 1065.000 1978.500 M1176.000 1969.000 L 1176.000 2001.000 1165.500 2001.000 L 1155.000 2001.000 1155.000 1994.500 L 1155.000 1988.000 1144.500 1988.000 L 1134.000 1988.000 1134.000 2004.000 L 1134.000 2020.000 1165.500 2020.000 L 1197.000 2020.000 1197.000 1978.500 L 1197.000 1937.000 1186.500 1937.000 L 1176.000 1937.000 1176.000 1969.000 M1203.000 1978.500 L 1203.000 2020.000 1214.000 2020.000 L 1225.000 2020.000 1225.000 1978.500 L 1225.000 1937.000 1214.000 1937.000 L 1203.000 1937.000 1203.000 1978.500 M1231.000 1978.500 L 1231.000 2020.000 1241.500 2020.000 L 1252.000 2020.000 1252.000 2004.000 L 1252.000 1988.000 1262.500 1988.000 L 1273.000 1988.000 1273.000 2004.000 L 1273.000 2020.000 1283.500 2020.000 L 1294.000 2020.000 1294.000 1978.500 L 1294.000 1937.000 1283.500 1937.000 L 1273.000 1937.000 1273.000 1953.000 L 1273.000 1969.000 1262.500 1969.000 L 1252.000 1969.000 1252.000 1953.000 L 1252.000 1937.000 1241.500 1937.000 L 1231.000 1937.000 1231.000 1978.500 M1037.000 1962.500 L 1037.000 1969.000 1026.500 1969.000 L 1016.000 1969.000 1016.000 1962.500 L 1016.000 1956.000 1026.500 1956.000 L 1037.000 1956.000 1037.000 1962.500 M1037.000 1994.500 L 1037.000 2001.000 1026.500 2001.000 L 1016.000 2001.000 1016.000 1994.500 L 1016.000 1988.000 1026.500 1988.000 L 1037.000 1988.000 1037.000 1994.500 " stroke="none" fill="black" fill-rule="evenodd"/></svg>