<svg id="svg" version="1.1" width="2000" height="2000" xmlns="http://www.w3.org/2000/svg"><path d="M889.007 389.250 C 828.320 576.388,775.352 739.737,771.301 752.249 L 763.934 774.997 382.311 775.249 L 0.689 775.500 307.594 998.884 C 476.393 1121.746,615.266 1222.996,616.201 1223.884 C 617.794 1225.398,610.585 1248.064,502.449 1581.500 C 371.777 1984.430,381.735 1953.446,383.308 1952.219 C 383.964 1951.709,522.987 1850.425,692.250 1727.145 L 1000.000 1503.000 1307.750 1727.146 C 1477.012 1850.427,1616.073 1951.740,1616.773 1952.288 C 1617.691 1953.005,1617.908 1952.895,1617.551 1951.891 C 1617.278 1951.126,1564.190 1787.375,1499.576 1588.000 C 1389.496 1248.336,1382.203 1225.398,1383.798 1223.881 C 1384.734 1222.991,1523.608 1121.741,1692.407 998.881 L 1999.314 775.500 1617.688 775.249 L 1236.063 774.997 1228.197 750.749 C 1223.870 737.412,1170.902 574.063,1110.490 387.750 C 1050.078 201.438,1000.357 49.000,999.998 49.000 C 999.640 49.000,949.694 202.112,889.007 389.250 " stroke="none" fill="black" fill-rule="evenodd"></path></svg>