<svg id="svg" version="1.1" width="2457" height="2093" xmlns="http://www.w3.org/2000/svg"><path d="M216.000 240.083 C 216.000 329.016,216.365 388.034,216.913 387.833 C 217.416 387.650,224.166 384.587,231.913 381.027 L 246.000 374.554 246.000 248.277 L 246.000 122.000 339.250 121.992 L 432.500 121.984 439.000 107.878 C 442.575 100.119,445.650 93.373,445.833 92.886 C 446.026 92.375,397.494 92.000,331.083 92.000 L 216.000 92.000 216.000 240.083 M539.229 107.000 L 546.339 122.000 1366.170 122.000 L 2186.000 122.000 2186.000 699.347 L 2186.000 1276.695 2200.250 1283.371 C 2208.088 1287.043,2214.838 1290.036,2215.250 1290.023 C 2215.662 1290.011,2216.000 1020.450,2216.000 691.000 L 2216.000 92.000 1374.060 92.000 L 532.119 92.000 539.229 107.000 M486.152 181.106 C 473.197 209.730,389.584 387.754,388.670 388.657 C 387.555 389.759,308.949 426.731,218.500 468.695 C 195.400 479.413,176.169 488.494,175.764 488.877 C 175.023 489.576,188.813 496.119,318.282 556.493 L 389.063 589.500 438.902 696.287 C 466.313 755.020,488.912 803.240,489.120 803.442 C 489.329 803.645,512.000 755.590,539.500 696.655 L 589.500 589.500 696.650 539.500 C 755.583 512.000,803.635 489.327,803.432 489.116 C 803.230 488.904,755.079 466.321,696.430 438.930 C 637.781 411.539,589.668 388.987,589.513 388.814 C 589.358 388.641,566.858 340.575,539.512 282.000 C 512.166 223.425,489.624 175.323,489.419 175.106 C 489.213 174.889,487.743 177.589,486.152 181.106 M216.000 1341.048 L 216.000 2092.000 1216.000 2092.000 L 2216.000 2092.000 2216.000 1803.525 L 2216.000 1515.050 2213.750 1515.930 C 2212.512 1516.415,2205.763 1519.531,2198.750 1522.855 L 2186.000 1528.899 2186.000 1795.450 L 2186.000 2062.000 1216.000 2062.000 L 246.000 2062.000 246.000 1332.964 L 246.000 603.929 241.750 602.070 C 239.412 601.048,232.662 597.936,226.750 595.154 L 216.000 590.097 216.000 1341.048 M1924.053 1179.369 C 1900.707 1229.491,1878.170 1277.714,1873.972 1286.532 L 1866.339 1302.564 1825.420 1321.741 C 1802.914 1332.288,1754.620 1354.851,1718.099 1371.882 L 1651.698 1402.847 1655.099 1404.308 C 1656.970 1405.112,1686.850 1419.025,1721.500 1435.225 C 1756.150 1451.426,1802.973 1473.314,1825.552 1483.865 L 1866.604 1503.049 1916.509 1610.018 C 1943.956 1668.851,1966.736 1716.652,1967.131 1716.244 C 1967.525 1715.835,1989.977 1668.025,2017.024 1610.000 C 2044.071 1551.975,2066.717 1503.980,2067.350 1503.344 C 2067.982 1502.709,2115.975 1480.061,2174.000 1453.015 C 2232.025 1425.970,2279.831 1403.524,2280.235 1403.136 C 2280.639 1402.747,2232.801 1379.935,2173.928 1352.441 L 2066.886 1302.453 2017.041 1195.658 C 1989.626 1136.921,1967.039 1088.722,1966.848 1088.551 C 1966.657 1088.379,1947.399 1129.248,1924.053 1179.369 " stroke="none" fill="black" fill-rule="evenodd"/></svg>