<svg id="svg" version="1.1" width="2000" height="2000" xmlns="http://www.w3.org/2000/svg"><path d="M0.000 1000.000 L 0.000 2000.000 1000.000 2000.000 L 2000.000 2000.000 2000.000 1000.000 L 2000.000 0.000 1000.000 0.000 L 0.000 0.000 0.000 1000.000 M215.991 30.250 C 215.986 30.387,193.817 77.964,166.725 135.976 L 117.468 241.453 74.080 261.726 C 50.217 272.877,30.536 282.000,30.346 282.000 C 30.156 282.000,30.000 225.300,30.000 156.000 L 30.000 30.000 123.000 30.000 C 174.150 30.000,215.996 30.113,215.991 30.250 M1970.000 607.390 L 1970.000 1184.779 1938.250 1169.932 L 1906.500 1155.085 1828.941 989.067 C 1786.283 897.757,1751.160 822.827,1750.889 822.556 C 1750.618 822.285,1715.602 896.636,1673.075 987.781 C 1630.549 1078.927,1595.248 1154.011,1594.627 1154.635 C 1594.007 1155.260,1518.940 1190.560,1427.812 1233.081 C 1336.683 1275.601,1262.284 1310.640,1262.480 1310.945 C 1262.675 1311.250,1337.565 1346.374,1428.902 1388.997 L 1594.969 1466.495 1672.459 1632.497 C 1715.078 1723.799,1750.288 1798.436,1750.704 1798.357 C 1751.119 1798.279,1786.163 1723.894,1828.579 1633.058 C 1870.994 1542.222,1906.159 1467.441,1906.723 1466.877 C 1907.573 1466.027,1968.756 1437.000,1969.698 1437.000 C 1969.864 1437.000,1970.000 1556.925,1970.000 1703.500 L 1970.000 1970.000 1000.000 1970.000 L 30.000 1970.000 30.000 1241.033 L 30.000 512.066 39.250 516.373 C 44.338 518.743,64.027 527.959,83.004 536.854 L 117.508 553.027 195.004 719.099 C 237.627 810.439,272.728 885.317,273.007 885.495 C 273.286 885.673,308.349 811.174,350.925 719.941 C 393.501 628.709,428.695 553.705,429.135 553.265 C 429.574 552.826,504.671 517.599,596.016 474.983 C 704.092 424.562,761.645 397.212,760.799 396.677 C 760.085 396.224,685.106 361.120,594.180 318.669 L 428.860 241.484 386.403 150.492 C 363.051 100.446,340.837 52.862,337.038 44.750 L 330.131 30.000 1150.065 30.000 L 1970.000 30.000 1970.000 607.390 " stroke="none" fill="black" fill-rule="evenodd"/></svg>