<svg id="svg" version="1.1" width="2289" height="2146" xmlns="http://www.w3.org/2000/svg"><path d="M1697.055 322.413 L 1658.610 404.777 1576.305 443.097 C 1531.037 464.173,1494.000 481.679,1494.000 482.000 C 1494.000 482.321,1531.031 499.825,1576.292 520.897 L 1658.584 559.211 1696.940 641.105 C 1718.035 686.147,1735.611 723.000,1735.996 723.000 C 1736.382 723.000,1753.949 686.149,1775.034 641.110 L 1813.371 559.219 1895.685 520.902 C 1940.958 499.827,1978.000 482.316,1978.000 481.988 C 1978.000 481.660,1940.962 464.150,1895.692 443.077 L 1813.384 404.763 1788.545 351.631 C 1774.884 322.409,1757.585 285.346,1750.103 269.268 C 1742.621 253.190,1736.275 240.039,1736.000 240.043 C 1735.725 240.046,1718.200 277.113,1697.055 322.413 M380.000 856.940 L 380.000 1471.881 395.000 1464.771 L 410.000 1457.661 410.000 864.831 L 410.000 272.002 1034.010 271.751 L 1658.020 271.500 1664.949 256.750 L 1671.878 242.000 1025.939 242.000 L 380.000 242.000 380.000 856.940 M1805.646 253.750 C 1808.709 260.212,1811.849 266.962,1812.621 268.750 L 1814.027 272.000 1846.513 272.000 L 1879.000 272.000 1879.000 322.324 L 1879.000 372.647 1893.449 379.324 C 1901.397 382.996,1908.147 386.000,1908.449 386.000 C 1908.752 386.000,1909.000 353.600,1909.000 314.000 L 1909.000 242.000 1854.538 242.000 L 1800.075 242.000 1805.646 253.750 M1893.250 584.718 L 1879.000 591.355 1879.000 1166.177 L 1879.000 1740.998 1272.990 1741.249 L 666.980 1741.500 660.051 1756.250 L 653.122 1771.000 1281.061 1771.000 L 1909.000 1771.000 1909.000 1174.500 C 1909.000 846.425,1908.662 578.018,1908.250 578.041 C 1907.838 578.063,1901.088 581.068,1893.250 584.718 M538.057 1396.377 L 499.636 1478.753 417.568 1517.026 C 372.431 1538.075,335.193 1555.568,334.819 1555.899 C 334.444 1556.230,371.344 1573.870,416.819 1595.101 L 499.500 1633.702 537.912 1715.851 C 559.038 1761.033,576.627 1798.000,576.997 1798.000 C 577.368 1798.000,594.957 1761.022,616.085 1715.828 L 654.500 1633.655 737.181 1595.078 C 782.656 1573.860,819.556 1556.230,819.181 1555.899 C 818.807 1555.568,781.569 1538.075,736.432 1517.026 L 654.364 1478.753 615.943 1396.377 C 594.811 1351.070,577.287 1314.000,577.000 1314.000 C 576.713 1314.000,559.189 1351.070,538.057 1396.377 M380.000 1706.000 L 380.000 1771.000 440.439 1771.000 L 500.878 1771.000 493.950 1756.250 L 487.021 1741.500 448.510 1741.238 L 410.000 1740.977 410.000 1697.923 L 410.000 1654.869 395.433 1647.935 C 387.421 1644.121,380.671 1641.000,380.433 1641.000 C 380.195 1641.000,380.000 1670.250,380.000 1706.000 M140.999 1867.755 L 114.498 1924.500 57.749 1950.998 C 26.537 1965.573,1.000 1977.723,1.000 1978.000 C 1.000 1978.277,26.537 1990.427,57.750 2005.002 L 114.500 2031.500 140.998 2088.250 C 155.573 2119.463,167.723 2144.996,167.998 2144.991 C 168.274 2144.986,180.152 2119.898,194.394 2089.241 C 208.635 2058.583,221.082 2032.786,222.053 2031.913 C 223.024 2031.040,248.830 2018.665,279.400 2004.413 C 309.970 1990.161,334.982 1978.275,334.982 1978.000 C 334.983 1977.725,316.649 1968.974,294.241 1958.553 C 271.834 1948.132,246.281 1936.168,237.458 1931.968 L 221.417 1924.330 194.958 1867.672 C 180.406 1836.511,168.275 1811.014,168.000 1811.012 C 167.725 1811.011,155.575 1836.545,140.999 1867.755 M2094.050 1867.659 L 2067.599 1924.312 2050.550 1932.443 C 2041.172 1936.914,2015.616 1948.881,1993.757 1959.036 C 1971.898 1969.191,1954.013 1977.725,1954.013 1978.000 C 1954.013 1978.275,1971.898 1986.809,1993.757 1996.964 C 2015.616 2007.119,2041.177 2019.088,2050.559 2023.562 L 2067.618 2031.697 2094.053 2088.348 C 2108.592 2119.507,2120.716 2144.996,2120.994 2144.991 C 2121.272 2144.986,2133.166 2119.898,2147.424 2089.241 C 2161.682 2058.583,2173.736 2032.984,2174.211 2032.353 C 2174.685 2031.722,2200.482 2019.350,2231.537 2004.859 C 2262.592 1990.368,2288.000 1978.284,2288.000 1978.004 C 2288.000 1977.725,2262.464 1965.573,2231.254 1950.998 L 2174.508 1924.500 2148.004 1867.759 C 2133.427 1836.551,2121.275 1811.015,2121.000 1811.012 C 2120.725 1811.009,2108.597 1836.500,2094.050 1867.659 M1108.500 1839.126 C 1079.737 1840.843,1042.809 1846.692,1014.642 1853.990 C 936.665 1874.195,880.994 1912.617,867.416 1955.602 L 864.857 1963.703 622.428 1963.209 L 380.000 1962.714 380.000 1977.857 L 380.000 1993.000 564.250 1993.140 C 665.588 1993.218,774.733 1993.555,806.796 1993.890 L 865.092 1994.500 867.796 2002.525 C 877.112 2030.174,904.197 2056.678,943.699 2076.801 C 982.661 2096.648,1027.331 2109.087,1085.097 2116.173 C 1101.467 2118.182,1107.974 2118.429,1144.000 2118.410 C 1193.788 2118.383,1215.765 2116.246,1256.638 2107.455 C 1344.023 2088.663,1406.928 2048.196,1422.102 2001.011 L 1424.840 1992.500 1666.920 1992.890 L 1909.000 1993.280 1909.000 1978.140 L 1909.000 1963.000 1724.250 1962.861 C 1622.638 1962.784,1513.461 1962.446,1481.636 1962.111 L 1423.773 1961.500 1422.070 1956.000 C 1408.850 1913.310,1352.623 1874.451,1274.500 1854.014 C 1224.434 1840.916,1166.116 1835.686,1108.500 1839.126 M1174.000 1869.033 C 1288.969 1875.044,1386.944 1920.810,1394.985 1972.258 C 1401.846 2016.161,1334.300 2062.976,1238.969 2080.388 C 1167.899 2093.368,1094.513 2091.658,1027.000 2075.446 C 960.973 2059.591,908.382 2026.532,896.319 1993.298 C 893.550 1985.669,893.199 1974.061,895.503 1966.302 C 901.642 1945.631,924.623 1923.667,957.523 1907.026 C 1014.190 1878.365,1091.841 1864.736,1174.000 1869.033 M995.000 1978.500 L 995.000 2020.000 1027.000 2020.000 L 1059.000 2020.000 1059.000 2004.212 L 1059.000 1988.425 1053.997 1983.497 L 1048.994 1978.569 1053.997 1973.503 L 1059.000 1968.437 1059.000 1952.719 L 1059.000 1937.000 1027.000 1937.000 L 995.000 1937.000 995.000 1978.500 M1065.000 1978.500 L 1065.000 2020.000 1096.500 2020.000 L 1128.000 2020.000 1128.000 1978.500 L 1128.000 1937.000 1117.500 1937.000 L 1107.000 1937.000 1107.000 1969.000 L 1107.000 2001.000 1096.500 2001.000 L 1086.000 2001.000 1086.000 1969.000 L 1086.000 1937.000 1075.500 1937.000 L 1065.000 1937.000 1065.000 1978.500 M1176.000 1969.000 L 1176.000 2001.000 1165.500 2001.000 L 1155.000 2001.000 1155.000 1994.500 L 1155.000 1988.000 1144.500 1988.000 L 1134.000 1988.000 1134.000 2004.000 L 1134.000 2020.000 1165.500 2020.000 L 1197.000 2020.000 1197.000 1978.500 L 1197.000 1937.000 1186.500 1937.000 L 1176.000 1937.000 1176.000 1969.000 M1203.000 1978.500 L 1203.000 2020.000 1214.000 2020.000 L 1225.000 2020.000 1225.000 1978.500 L 1225.000 1937.000 1214.000 1937.000 L 1203.000 1937.000 1203.000 1978.500 M1231.000 1978.500 L 1231.000 2020.000 1241.500 2020.000 L 1252.000 2020.000 1252.000 2004.000 L 1252.000 1988.000 1262.500 1988.000 L 1273.000 1988.000 1273.000 2004.000 L 1273.000 2020.000 1283.500 2020.000 L 1294.000 2020.000 1294.000 1978.500 L 1294.000 1937.000 1283.500 1937.000 L 1273.000 1937.000 1273.000 1953.000 L 1273.000 1969.000 1262.500 1969.000 L 1252.000 1969.000 1252.000 1953.000 L 1252.000 1937.000 1241.500 1937.000 L 1231.000 1937.000 1231.000 1978.500 M1037.000 1962.500 L 1037.000 1969.000 1026.500 1969.000 L 1016.000 1969.000 1016.000 1962.500 L 1016.000 1956.000 1026.500 1956.000 L 1037.000 1956.000 1037.000 1962.500 M1037.000 1994.500 L 1037.000 2001.000 1026.500 2001.000 L 1016.000 2001.000 1016.000 1994.500 L 1016.000 1988.000 1026.500 1988.000 L 1037.000 1988.000 1037.000 1994.500 " stroke="none" fill="black" fill-rule="evenodd"/></svg>