<svg id="svg" version="1.1" width="2000" height="2000" xmlns="http://www.w3.org/2000/svg"><path d="M0.079 456.626 L 0.000 911.751 192.250 1051.700 C 297.988 1128.672,385.039 1191.966,385.699 1192.352 C 386.553 1192.853,386.481 1191.826,385.449 1188.777 C 371.987 1149.018,239.359 737.381,239.892 737.014 C 240.302 736.731,327.133 673.500,432.850 596.500 L 625.062 456.500 386.377 456.000 L 147.692 455.500 75.038 231.500 C 35.079 108.300,1.884 6.150,1.272 4.500 C 0.450 2.288,0.137 121.040,0.079 456.626 M1926.000 1034.982 L 1852.500 1261.961 1613.750 1261.981 C 1482.438 1261.991,1375.016 1262.338,1375.036 1262.750 C 1375.056 1263.162,1461.870 1326.669,1567.956 1403.876 C 1674.043 1481.082,1760.666 1544.757,1760.451 1545.376 C 1754.754 1561.831,1614.016 1997.540,1614.214 1998.113 C 1614.371 1998.570,1701.218 1935.844,1807.207 1858.722 L 1999.914 1718.500 1999.957 1263.250 C 1999.981 1012.862,1999.888 808.001,1999.750 808.002 C 1999.612 808.003,1966.425 910.144,1926.000 1034.982 " stroke="none" fill="black" fill-rule="evenodd"/></svg>