<svg xmlns="http://www.w3.org/2000/svg" xmlns:xlink="http://www.w3.org/1999/xlink" width="3508" zoomAndPan="magnify" viewBox="0 0 2631 3720.749967" height="4961" preserveAspectRatio="xMidYMid meet" version="1.0"><defs><clipPath id="2d4a9caa6a"><path d="M 143.898438 328.585938 L 1074.585938 328.585938 L 1074.585938 1422 L 143.898438 1422 Z M 143.898438 328.585938 " clip-rule="nonzero"/></clipPath><clipPath id="5765dabeee"><path d="M 1587.136719 1498 L 2517.824219 1498 L 2517.824219 2591 L 1587.136719 2591 Z M 1587.136719 1498 " clip-rule="nonzero"/></clipPath></defs><g clip-path="url(#2d4a9caa6a)"><path fill="#000000" d="M 1074.714844 874.722656 C 842.011719 874.722656 611.402344 875.910156 611.402344 338.542969 L 609.308594 328.96875 L 611.355469 338.542969 C 611.355469 874.722656 399.367188 874.722656 143.898438 874.722656 L 143.898438 875.910156 C 390.515625 875.910156 611.355469 989.300781 611.355469 1418.386719 L 609.308594 1421.667969 L 611.402344 1418.386719 C 611.402344 953.746094 840.746094 875.910156 1074.714844 875.910156 L 1069.480469 874.722656 Z M 1074.714844 874.722656 " fill-opacity="1" fill-rule="evenodd"/></g><g clip-path="url(#5765dabeee)"><path fill="#000000" d="M 2517.953125 2043.847656 C 2285.25 2043.847656 2054.640625 2045.035156 2054.640625 1507.667969 L 2052.546875 1498.089844 L 2054.59375 1507.667969 C 2054.59375 2043.847656 1842.605469 2043.847656 1587.136719 2043.847656 L 1587.136719 2045.035156 C 1833.753906 2045.035156 2054.59375 2158.421875 2054.59375 2587.507812 L 2052.546875 2590.789062 L 2054.640625 2587.507812 C 2054.640625 2122.871094 2283.984375 2045.035156 2517.953125 2045.035156 L 2512.722656 2043.847656 Z M 2517.953125 2043.847656 " fill-opacity="1" fill-rule="evenodd"/></g></svg>