<svg xmlns="http://www.w3.org/2000/svg" xmlns:xlink="http://www.w3.org/1999/xlink" width="3508" zoomAndPan="magnify" viewBox="0 0 2631 3720.749967" height="4961" preserveAspectRatio="xMidYMid meet" version="1.0"><defs><clipPath id="1e11ec1120"><path d="M 310.390625 524.171875 L 908.101562 524.171875 L 908.101562 1226.125 L 310.390625 1226.125 Z M 310.390625 524.171875 " clip-rule="nonzero"/></clipPath><clipPath id="73fddedc7a"><path d="M 1753.628906 1693.296875 L 2351.339844 1693.296875 L 2351.339844 2395.25 L 1753.628906 2395.25 Z M 1753.628906 1693.296875 " clip-rule="nonzero"/></clipPath></defs><g clip-path="url(#1e11ec1120)"><path fill="#000000" d="M 908.21875 874.9375 C 758.761719 874.9375 610.648438 875.699219 610.648438 530.570312 L 609.304688 524.421875 L 610.621094 530.570312 C 610.621094 874.9375 474.46875 874.9375 310.390625 874.9375 L 310.390625 875.699219 C 468.78125 875.699219 610.621094 948.523438 610.621094 1224.109375 L 609.304688 1226.21875 L 610.648438 1224.109375 C 610.648438 925.691406 757.949219 875.699219 908.21875 875.699219 L 904.855469 874.9375 Z M 908.21875 874.9375 " fill-opacity="1" fill-rule="evenodd"/></g><g clip-path="url(#73fddedc7a)"><path fill="#000000" d="M 2351.457031 2044.058594 C 2202 2044.058594 2053.890625 2044.824219 2053.890625 1699.691406 L 2052.542969 1693.542969 L 2053.859375 1699.691406 C 2053.859375 2044.058594 1917.707031 2044.058594 1753.628906 2044.058594 L 1753.628906 2044.824219 C 1912.023438 2044.824219 2053.859375 2117.648438 2053.859375 2393.234375 L 2052.542969 2395.339844 L 2053.890625 2393.234375 C 2053.890625 2094.8125 2201.1875 2044.824219 2351.457031 2044.824219 L 2348.097656 2044.058594 Z M 2351.457031 2044.058594 " fill-opacity="1" fill-rule="evenodd"/></g></svg>