<svg xmlns="http://www.w3.org/2000/svg" xmlns:xlink="http://www.w3.org/1999/xlink" width="3288" zoomAndPan="magnify" viewBox="0 0 2466 274.499992" height="366" preserveAspectRatio="xMidYMid meet" version="1.0"><defs><g/><clipPath id="d8081ca841"><path d="M 991.789062 20.808594 L 1465.675781 20.808594 L 1465.675781 252.886719 L 991.789062 252.886719 Z M 991.789062 20.808594 " clip-rule="nonzero"/></clipPath><clipPath id="e61848d430"><path d="M 2189.757812 0 L 2463.734375 0 L 2463.734375 273.972656 L 2189.757812 273.972656 Z M 2189.757812 0 " clip-rule="nonzero"/></clipPath><clipPath id="bb1e4e2e59"><path d="M 2326.746094 0 L 2370.335938 93.398438 L 2463.734375 136.988281 L 2370.335938 180.574219 L 2326.746094 273.972656 L 2283.15625 180.574219 L 2189.757812 136.988281 L 2283.15625 93.398438 Z M 2326.746094 0 " clip-rule="nonzero"/></clipPath><clipPath id="019ba0d10b"><path d="M 2.242188 0 L 276.214844 0 L 276.214844 273.972656 L 2.242188 273.972656 Z M 2.242188 0 " clip-rule="nonzero"/></clipPath><clipPath id="1695403c8b"><path d="M 139.230469 0 L 182.816406 93.398438 L 276.214844 136.988281 L 182.816406 180.574219 L 139.230469 273.972656 L 95.640625 180.574219 L 2.242188 136.988281 L 95.640625 93.398438 Z M 139.230469 0 " clip-rule="nonzero"/></clipPath></defs><path stroke-linecap="round" transform="matrix(0.748636, 0, 0, 0.748636, 330.865997, 127.628893)" fill="none" stroke-linejoin="miter" d="M 12.498271 12.501916 L 889.1391 12.501916 " stroke="#000000" stroke-width="25" stroke-opacity="1" stroke-miterlimit="4"/><g clip-path="url(#d8081ca841)"><path fill="#000000" d="M 1228.886719 35.21875 C 1259.898438 35.21875 1289.960938 38.160156 1318.320312 44.039062 C 1345.347656 49.636719 1369.625 57.601562 1390.300781 67.75 C 1410.027344 77.421875 1426.054688 88.992188 1436.582031 101.132812 C 1446.632812 112.796875 1451.757812 124.84375 1451.757812 136.980469 C 1451.757812 149.121094 1446.632812 161.164062 1436.582031 172.832031 C 1426.054688 184.96875 1410.027344 196.539062 1390.300781 206.214844 C 1369.625 216.359375 1345.347656 224.328125 1318.320312 229.921875 C 1290.058594 235.804688 1259.992188 238.742188 1228.886719 238.742188 C 1197.777344 238.742188 1167.808594 235.804688 1139.453125 229.921875 C 1112.425781 224.328125 1088.144531 216.359375 1067.472656 206.214844 C 1047.746094 196.539062 1031.71875 184.96875 1021.191406 172.832031 C 1011.136719 161.164062 1006.015625 149.121094 1006.015625 136.980469 C 1006.015625 124.84375 1011.136719 112.796875 1021.191406 101.132812 C 1031.71875 88.992188 1047.746094 77.421875 1067.472656 67.75 C 1088.144531 57.601562 1112.425781 49.636719 1139.453125 44.039062 C 1167.808594 38.253906 1197.875 35.21875 1228.886719 35.21875 M 1228.886719 20.996094 C 1097.914062 20.996094 991.789062 72.964844 991.789062 136.980469 C 991.789062 200.996094 1097.914062 252.96875 1228.886719 252.96875 C 1359.859375 252.96875 1465.980469 201.09375 1465.980469 136.980469 C 1465.980469 72.964844 1359.859375 20.996094 1228.886719 20.996094 Z M 1228.886719 20.996094 " fill-opacity="1" fill-rule="nonzero"/></g><g fill="#000000" fill-opacity="1"><g transform="translate(1071.802764, 178.350979)"><g><path d="M 9.234375 0 L 41.894531 0 C 55.285156 0 66.25 -10.964844 66.25 -24.8125 C 66.25 -31.277344 63.132812 -37.625 57.707031 -41.320312 C 62.902344 -44.898438 65.09375 -51.359375 65.324219 -57.59375 C 65.671875 -72.132812 56.554688 -82.636719 41.894531 -82.636719 L 9.234375 -82.636719 Z M 25.851562 -66.132812 L 40.511719 -66.132812 C 45.242188 -66.132812 48.128906 -62.441406 48.128906 -57.824219 C 48.128906 -53.320312 45.242188 -49.511719 40.511719 -49.511719 L 25.851562 -49.511719 Z M 25.851562 -33.007812 L 40.511719 -33.007812 C 45.242188 -33.007812 48.820312 -29.429688 48.820312 -24.8125 C 48.820312 -20.199219 45.242188 -16.503906 40.511719 -16.503906 L 25.851562 -16.503906 Z M 25.851562 -33.007812 "/></g></g></g><g fill="#000000" fill-opacity="1"><g transform="translate(1143.473043, 178.350979)"><g><path d="M 68.441406 -28.738281 L 68.441406 -82.523438 L 52.050781 -82.523438 L 52.050781 -28.855469 C 52.050781 -11.542969 25.277344 -11.542969 25.277344 -28.855469 L 25.277344 -82.523438 L 8.773438 -82.523438 L 8.773438 -28.738281 C 8.773438 10.503906 68.441406 10.503906 68.441406 -28.738281 Z M 68.441406 -28.738281 "/></g></g></g><g fill="#000000" fill-opacity="1"><g transform="translate(1220.913905, 178.350979)"><g><path d="M 3.691406 0 L 19.96875 0 C 33.46875 0 44.320312 -11.078125 44.320312 -24.8125 L 44.320312 -82.523438 L 27.929688 -82.523438 L 27.929688 -24.8125 C 27.929688 -20.199219 24.238281 -16.503906 19.503906 -16.503906 L 3.691406 -16.503906 Z M 3.691406 0 "/></g></g></g><g fill="#000000" fill-opacity="1"><g transform="translate(1274.580068, 178.350979)"><g><path d="M 25.738281 0 L 25.738281 -82.523438 L 9.234375 -82.523438 L 9.234375 0 Z M 25.738281 0 "/></g></g></g><g fill="#000000" fill-opacity="1"><g transform="translate(1309.665053, 178.350979)"><g><path d="M 66.941406 0 L 66.941406 -82.523438 L 50.4375 -82.523438 L 50.4375 -49.511719 L 25.738281 -49.511719 L 25.738281 -82.523438 L 9.234375 -82.523438 L 9.234375 0 L 25.738281 0 L 25.738281 -33.007812 L 50.4375 -33.007812 L 50.4375 0 Z M 66.941406 0 "/></g></g></g><g clip-path="url(#e61848d430)"><g clip-path="url(#bb1e4e2e59)"><path fill="#000000" d="M 2189.757812 0 L 2463.734375 0 L 2463.734375 273.972656 L 2189.757812 273.972656 Z M 2189.757812 0 " fill-opacity="1" fill-rule="nonzero"/></g></g><path stroke-linecap="round" transform="matrix(0.748636, 0, 0, 0.748636, 1453.260682, 127.628893)" fill="none" stroke-linejoin="miter" d="M 12.498066 12.501916 L 898.697943 12.501916 " stroke="#000000" stroke-width="25" stroke-opacity="1" stroke-miterlimit="4"/><g clip-path="url(#019ba0d10b)"><g clip-path="url(#1695403c8b)"><path fill="#000000" d="M 2.242188 0 L 276.214844 0 L 276.214844 273.972656 L 2.242188 273.972656 Z M 2.242188 0 " fill-opacity="1" fill-rule="nonzero"/></g></g></svg>