<svg xmlns="http://www.w3.org/2000/svg" xmlns:xlink="http://www.w3.org/1999/xlink" width="3486" zoomAndPan="magnify" viewBox="0 0 2614.5 3053.999987" height="4072" preserveAspectRatio="xMidYMid meet" version="1.0"><defs><clipPath id="30ef51d4f3"><path d="M 330.710938 0.292969 L 2287.53125 0.292969 L 2287.53125 3053.601562 L 330.710938 3053.601562 Z M 330.710938 0.292969 " clip-rule="nonzero"/></clipPath><clipPath id="3a7b2b4417"><path d="M 0 6.480469 L 684.617188 6.480469 L 684.617188 810.328125 L 0 810.328125 Z M 0 6.480469 " clip-rule="nonzero"/></clipPath><clipPath id="d451942108"><path d="M 1929.511719 1706 L 2614 1706 L 2614 2509.679688 L 1929.511719 2509.679688 Z M 1929.511719 1706 " clip-rule="nonzero"/></clipPath></defs><g clip-path="url(#30ef51d4f3)"><path stroke-linecap="butt" transform="matrix(0.749857, 0, 0, 0.749857, 330.7122, 0.292063)" fill="none" stroke-linejoin="miter" d="M -0.00168317 0.00120805 L 2609.591142 0.00120805 L 2609.591142 4071.85806 L -0.00168317 4071.85806 Z M -0.00168317 0.00120805 " stroke="#000000" stroke-width="76" stroke-opacity="1" stroke-miterlimit="4"/></g><g clip-path="url(#3a7b2b4417)"><path fill="#000000" d="M 684.359375 408.015625 C 513.269531 408.015625 343.71875 408.890625 343.71875 13.800781 L 342.179688 6.761719 L 343.6875 13.800781 C 343.6875 408.015625 187.828125 408.015625 0 408.015625 L 0 408.890625 C 181.320312 408.890625 343.6875 492.253906 343.6875 807.730469 L 342.179688 810.140625 L 343.71875 807.730469 C 343.71875 466.113281 512.339844 408.890625 684.359375 408.890625 L 680.511719 408.015625 Z M 684.359375 408.015625 " fill-opacity="1" fill-rule="evenodd"/></g><g clip-path="url(#d451942108)"><path fill="#000000" d="M 2613.871094 2107.367188 C 2442.78125 2107.367188 2273.230469 2108.242188 2273.230469 1713.152344 L 2271.691406 1706.113281 L 2273.199219 1713.152344 C 2273.199219 2107.367188 2117.339844 2107.367188 1929.511719 2107.367188 L 1929.511719 2108.242188 C 2110.828125 2108.242188 2273.199219 2191.605469 2273.199219 2507.082031 L 2271.691406 2509.496094 L 2273.230469 2507.082031 C 2273.230469 2165.46875 2441.851562 2108.242188 2613.871094 2108.242188 L 2610.023438 2107.367188 Z M 2613.871094 2107.367188 " fill-opacity="1" fill-rule="evenodd"/></g></svg>