<svg xmlns="http://www.w3.org/2000/svg" xmlns:xlink="http://www.w3.org/1999/xlink" width="3508" zoomAndPan="magnify" viewBox="0 0 2631 3720.749967" height="4961" preserveAspectRatio="xMidYMid meet" version="1.0"><defs><clipPath id="c08351ed7b"><path d="M 377.558594 370.539062 L 802.867188 370.539062 L 802.867188 795.847656 L 377.558594 795.847656 Z M 377.558594 370.539062 " clip-rule="nonzero"/></clipPath><clipPath id="3658e4bb75"><path d="M 590.214844 370.539062 L 657.878906 515.527344 L 802.867188 583.195312 L 657.878906 650.859375 L 590.214844 795.847656 L 522.546875 650.859375 L 377.558594 583.195312 L 522.546875 515.527344 Z M 590.214844 370.539062 " clip-rule="nonzero"/></clipPath><clipPath id="2d2f65601c"><path d="M 1923.5 1532.589844 L 2279.535156 1532.589844 L 2279.535156 1888.621094 L 1923.5 1888.621094 Z M 1923.5 1532.589844 " clip-rule="nonzero"/></clipPath><clipPath id="4814572a78"><path d="M 2101.515625 1532.589844 L 2158.160156 1653.960938 L 2279.535156 1710.605469 L 2158.160156 1767.25 L 2101.515625 1888.621094 L 2044.871094 1767.25 L 1923.5 1710.605469 L 2044.871094 1653.960938 Z M 2101.515625 1532.589844 " clip-rule="nonzero"/></clipPath></defs><g clip-path="url(#c08351ed7b)"><g clip-path="url(#3658e4bb75)"><path fill="#000000" d="M 377.558594 370.539062 L 802.867188 370.539062 L 802.867188 795.847656 L 377.558594 795.847656 Z M 377.558594 370.539062 " fill-opacity="1" fill-rule="nonzero"/></g></g><g clip-path="url(#2d2f65601c)"><g clip-path="url(#4814572a78)"><path fill="#000000" d="M 1923.5 1532.589844 L 2279.535156 1532.589844 L 2279.535156 1888.621094 L 1923.5 1888.621094 Z M 1923.5 1532.589844 " fill-opacity="1" fill-rule="nonzero"/></g></g></svg>