<svg xmlns="http://www.w3.org/2000/svg" xmlns:xlink="http://www.w3.org/1999/xlink" width="3508" zoomAndPan="magnify" viewBox="0 0 2631 3720.749967" height="4961" preserveAspectRatio="xMidYMid meet" version="1.0"><defs><clipPath id="6b8fe320cf"><path d="M 301.917969 294.902344 L 878.507812 294.902344 L 878.507812 871.488281 L 301.917969 871.488281 Z M 301.917969 294.902344 " clip-rule="nonzero"/></clipPath><clipPath id="32690ba92a"><path d="M 590.214844 294.902344 L 681.945312 491.460938 L 878.507812 583.195312 L 681.945312 674.929688 L 590.214844 871.488281 L 498.480469 674.929688 L 301.917969 583.195312 L 498.480469 491.460938 Z M 590.214844 294.902344 " clip-rule="nonzero"/></clipPath><clipPath id="53dc599ff6"><path d="M 1860.183594 1469.269531 L 2342.851562 1469.269531 L 2342.851562 1951.941406 L 1860.183594 1951.941406 Z M 1860.183594 1469.269531 " clip-rule="nonzero"/></clipPath><clipPath id="730edbf236"><path d="M 2101.515625 1469.269531 L 2178.308594 1633.8125 L 2342.851562 1710.605469 L 2178.308594 1787.398438 L 2101.515625 1951.941406 L 2024.726562 1787.398438 L 1860.183594 1710.605469 L 2024.726562 1633.8125 Z M 2101.515625 1469.269531 " clip-rule="nonzero"/></clipPath></defs><g clip-path="url(#6b8fe320cf)"><g clip-path="url(#32690ba92a)"><path fill="#000000" d="M 301.917969 294.902344 L 878.507812 294.902344 L 878.507812 871.488281 L 301.917969 871.488281 Z M 301.917969 294.902344 " fill-opacity="1" fill-rule="nonzero"/></g></g><g clip-path="url(#53dc599ff6)"><g clip-path="url(#730edbf236)"><path fill="#000000" d="M 1860.183594 1469.269531 L 2342.851562 1469.269531 L 2342.851562 1951.941406 L 1860.183594 1951.941406 Z M 1860.183594 1469.269531 " fill-opacity="1" fill-rule="nonzero"/></g></g></svg>