<svg xmlns="http://www.w3.org/2000/svg" xmlns:xlink="http://www.w3.org/1999/xlink" width="3425" zoomAndPan="magnify" viewBox="0 0 2568.75 3720.750007" height="4961" preserveAspectRatio="xMidYMid meet" version="1.0"><defs><g/></defs><g fill="#000000" fill-opacity="1"><g transform="translate(375.837726, 762.593766)"><g><path d="M 66.1875 3.546875 C 65.945312 3.546875 65.648438 3.484375 65.296875 3.359375 C 64.941406 3.242188 64.53125 3.1875 64.0625 3.1875 C 62.40625 3.1875 61.222656 2.476562 60.515625 1.0625 C 59.578125 -0.59375 58.632812 -2.007812 57.6875 -3.1875 C 56.75 -4.363281 55.6875 -5.539062 54.5 -6.71875 C 53.320312 -7.90625 52.320312 -9.203125 51.5 -10.609375 C 50.675781 -12.023438 49.910156 -13.441406 49.203125 -14.859375 C 48.492188 -16.046875 48.140625 -17.226562 48.140625 -18.40625 L 48.140625 -21.9375 C 48.140625 -23.125 48.078125 -24.363281 47.953125 -25.65625 C 47.835938 -26.957031 47.660156 -28.195312 47.421875 -29.375 C 46.953125 -31.257812 46.539062 -33.265625 46.1875 -35.390625 C 45.832031 -37.515625 45.421875 -39.519531 44.953125 -41.40625 C 44.953125 -41.882812 44.890625 -42.414062 44.765625 -43 C 44.648438 -43.59375 44.59375 -44.125 44.59375 -44.59375 C 44.351562 -47.1875 44 -49.835938 43.53125 -52.546875 C 43.0625 -55.265625 42.59375 -57.921875 42.125 -60.515625 C 41.414062 -65.242188 40.644531 -69.90625 39.8125 -74.5 C 38.988281 -79.101562 38.222656 -83.644531 37.515625 -88.125 L 35.390625 -99.8125 C 35.160156 -101.695312 34.453125 -103.703125 33.265625 -105.828125 C 31.847656 -108.421875 30.785156 -111.253906 30.078125 -114.328125 C 29.847656 -115.742188 29.492188 -117.097656 29.015625 -118.390625 C 28.546875 -119.691406 28.078125 -121.050781 27.609375 -122.46875 C 26.898438 -124.820312 26.191406 -127.175781 25.484375 -129.53125 C 24.773438 -131.894531 24.1875 -134.257812 23.71875 -136.625 C 23.476562 -138.507812 23.117188 -140.394531 22.640625 -142.28125 C 22.171875 -144.164062 21.703125 -146.054688 21.234375 -147.953125 L 19.109375 -157.5 C 19.109375 -157.96875 18.992188 -158.320312 18.765625 -158.5625 C 18.523438 -161.863281 18.050781 -165.222656 17.34375 -168.640625 C 16.632812 -172.066406 15.925781 -175.429688 15.21875 -178.734375 C 14.976562 -180.617188 14.679688 -182.914062 14.328125 -185.625 C 13.972656 -188.34375 13.914062 -190.53125 14.15625 -192.1875 L 14.15625 -195.734375 C 14.625 -199.035156 15.6875 -202.101562 17.34375 -204.9375 C 19.226562 -208.238281 22.296875 -210.832031 26.546875 -212.71875 C 27.722656 -213.1875 28.898438 -213.535156 30.078125 -213.765625 C 31.265625 -214.003906 32.328125 -214.242188 33.265625 -214.484375 C 35.859375 -214.722656 38.332031 -214.425781 40.6875 -213.59375 C 43.050781 -212.769531 45.414062 -211.648438 47.78125 -210.234375 C 48.488281 -209.765625 49.078125 -209.175781 49.546875 -208.46875 C 50.253906 -207.289062 51.019531 -206.109375 51.84375 -204.921875 C 52.675781 -203.742188 53.207031 -202.445312 53.4375 -201.03125 C 53.914062 -199.613281 54.445312 -198.195312 55.03125 -196.78125 C 55.625 -195.375 56.273438 -194.078125 56.984375 -192.890625 C 58.160156 -190.535156 58.984375 -188.054688 59.453125 -185.453125 C 59.929688 -182.859375 60.40625 -180.265625 60.875 -177.671875 C 61.582031 -174.140625 61.9375 -170.363281 61.9375 -166.34375 L 61.9375 -164.578125 C 62.40625 -162.222656 62.640625 -159.921875 62.640625 -157.671875 C 62.640625 -155.429688 62.640625 -153.132812 62.640625 -150.78125 C 62.878906 -147 63.234375 -143.28125 63.703125 -139.625 C 64.179688 -135.96875 64.65625 -132.132812 65.125 -128.125 L 67.25 -111.484375 L 67.25 -110.78125 C 67.71875 -108.1875 68.242188 -105.53125 68.828125 -102.8125 C 69.421875 -100.101562 69.835938 -97.453125 70.078125 -94.859375 C 70.785156 -90.847656 71.550781 -86.773438 72.375 -82.640625 C 73.207031 -78.515625 73.859375 -74.445312 74.328125 -70.4375 L 76.453125 -55.5625 C 76.921875 -53.207031 77.332031 -50.847656 77.6875 -48.484375 C 78.039062 -46.128906 78.453125 -43.769531 78.921875 -41.40625 C 79.398438 -39.050781 79.816406 -36.75 80.171875 -34.5 C 80.523438 -32.257812 80.9375 -29.960938 81.40625 -27.609375 C 81.644531 -26.660156 81.820312 -25.773438 81.9375 -24.953125 C 82.050781 -24.128906 82.109375 -23.242188 82.109375 -22.296875 C 82.347656 -18.753906 81.757812 -15.332031 80.34375 -12.03125 C 80.101562 -11.09375 79.515625 -10.148438 78.578125 -9.203125 C 77.628906 -7.785156 76.800781 -6.84375 76.09375 -6.375 C 74.207031 -4.488281 72.789062 -2.484375 71.84375 -0.359375 C 71.84375 -0.117188 71.664062 0.234375 71.3125 0.703125 C 70.957031 1.179688 70.546875 1.65625 70.078125 2.125 C 69.128906 3.070312 67.832031 3.546875 66.1875 3.546875 Z M 66.1875 3.546875 "/></g></g></g><g fill="#000000" fill-opacity="1"><g transform="translate(472.110502, 762.593766)"><g><path d="M 25.84375 -162.8125 C 24.1875 -163.050781 23.003906 -164.113281 22.296875 -166 C 21.117188 -167.882812 20.53125 -169.890625 20.53125 -172.015625 C 20.289062 -173.429688 20.050781 -174.847656 19.8125 -176.265625 C 19.582031 -177.679688 19.234375 -179.097656 18.765625 -180.515625 C 18.765625 -181.453125 18.289062 -182.628906 17.34375 -184.046875 L 15.578125 -186.171875 C 12.273438 -189.710938 10.625 -194.429688 10.625 -200.328125 C 10.851562 -203.628906 11.554688 -206.753906 12.734375 -209.703125 C 13.921875 -212.648438 15.691406 -215.304688 18.046875 -217.671875 C 19.234375 -218.847656 20.414062 -219.789062 21.59375 -220.5 C 22.769531 -221.207031 23.945312 -221.914062 25.125 -222.625 C 26.3125 -223.09375 27.316406 -223.5625 28.140625 -224.03125 C 28.960938 -224.507812 29.847656 -224.867188 30.796875 -225.109375 C 31.265625 -225.578125 31.734375 -225.925781 32.203125 -226.15625 C 32.679688 -226.394531 33.035156 -226.632812 33.265625 -226.875 C 34.453125 -227.582031 35.515625 -228.347656 36.453125 -229.171875 C 37.398438 -229.992188 38.34375 -230.878906 39.28125 -231.828125 C 42.582031 -234.191406 45.828125 -236.609375 49.015625 -239.078125 C 52.203125 -241.554688 55.332031 -243.976562 58.40625 -246.34375 C 61.707031 -248.9375 64.535156 -251.765625 66.890625 -254.828125 C 67.597656 -255.773438 68.363281 -256.660156 69.1875 -257.484375 C 70.019531 -258.316406 70.90625 -259.203125 71.84375 -260.140625 C 73.03125 -261.316406 74.566406 -262.257812 76.453125 -262.96875 L 83.890625 -265.09375 C 85.296875 -265.570312 86.351562 -265.691406 87.0625 -265.453125 C 87.300781 -265.210938 87.773438 -265.09375 88.484375 -265.09375 C 92.253906 -265.09375 95.910156 -263.5625 99.453125 -260.5 C 101.335938 -259.082031 102.515625 -258.132812 102.984375 -257.65625 C 103.460938 -257.1875 103.9375 -255.773438 104.40625 -253.421875 C 104.882812 -251.535156 105.125 -250 105.125 -248.8125 C 105.351562 -248.101562 105.234375 -247.28125 104.765625 -246.34375 C 104.765625 -245.863281 104.644531 -245.390625 104.40625 -244.921875 C 104.175781 -244.453125 103.941406 -243.984375 103.703125 -243.515625 L 100.515625 -235.71875 C 100.285156 -235.007812 99.992188 -234.359375 99.640625 -233.765625 C 99.285156 -233.179688 98.867188 -232.65625 98.390625 -232.1875 C 97.453125 -230.53125 96.332031 -228.992188 95.03125 -227.578125 C 93.726562 -226.160156 92.375 -224.742188 90.96875 -223.328125 C 90.019531 -222.390625 88.894531 -221.328125 87.59375 -220.140625 C 86.300781 -218.960938 85.066406 -217.785156 83.890625 -216.609375 C 80.578125 -213.546875 77.15625 -210.832031 73.625 -208.46875 C 71.5 -207.050781 69.3125 -205.578125 67.0625 -204.046875 C 64.820312 -202.515625 62.640625 -200.921875 60.515625 -199.265625 C 60.046875 -199.023438 59.578125 -198.726562 59.109375 -198.375 C 58.640625 -198.019531 58.164062 -197.726562 57.6875 -197.5 C 56.507812 -196.550781 55.390625 -195.722656 54.328125 -195.015625 C 53.265625 -194.304688 52.144531 -193.484375 50.96875 -192.546875 C 49.3125 -190.890625 47.539062 -189.351562 45.65625 -187.9375 C 43.769531 -186.519531 41.882812 -184.988281 40 -183.34375 C 37.164062 -181.21875 35.394531 -178.382812 34.6875 -174.84375 L 33.625 -168.46875 C 33.382812 -166.34375 32.554688 -164.8125 31.140625 -163.875 C 29.492188 -162.925781 27.726562 -162.570312 25.84375 -162.8125 Z M 25.84375 -162.8125 "/></g></g></g><g fill="#000000" fill-opacity="1"><g transform="translate(594.929063, 762.593766)"><g><path d="M 34.6875 28.3125 C 32.09375 27.84375 30.320312 26.664062 29.375 24.78125 C 28.664062 23.363281 28.132812 21.882812 27.78125 20.34375 C 27.425781 18.8125 27.132812 17.335938 26.90625 15.921875 C 26.664062 14.035156 26.425781 12.085938 26.1875 10.078125 C 25.957031 8.078125 25.722656 6.132812 25.484375 4.25 C 25.242188 1.882812 24.890625 -0.351562 24.421875 -2.46875 C 23.953125 -4.59375 23.242188 -6.835938 22.296875 -9.203125 C 22.054688 -9.910156 21.816406 -10.554688 21.578125 -11.140625 C 21.347656 -11.734375 21 -12.382812 20.53125 -13.09375 L 16.28125 -21.9375 C 15.101562 -24.300781 14.515625 -26.660156 14.515625 -29.015625 C 14.273438 -32.085938 14.15625 -35.039062 14.15625 -37.875 C 14.15625 -40.707031 14.273438 -43.535156 14.515625 -46.359375 C 14.515625 -47.304688 14.75 -48.488281 15.21875 -49.90625 C 15.6875 -52.257812 16.21875 -54.554688 16.8125 -56.796875 C 17.40625 -59.046875 17.816406 -61.234375 18.046875 -63.359375 C 18.523438 -66.191406 19 -68.960938 19.46875 -71.671875 C 19.9375 -74.390625 20.289062 -77.046875 20.53125 -79.640625 C 21 -82.234375 21.347656 -84.828125 21.578125 -87.421875 C 21.816406 -90.015625 22.054688 -92.609375 22.296875 -95.203125 C 22.535156 -97.097656 22.769531 -98.925781 23 -100.6875 C 23.238281 -102.457031 23.476562 -104.171875 23.71875 -105.828125 C 23.945312 -106.535156 24.0625 -107.597656 24.0625 -109.015625 C 24.0625 -110.191406 24.179688 -111.425781 24.421875 -112.71875 C 24.660156 -114.019531 24.894531 -115.265625 25.125 -116.453125 C 25.601562 -118.335938 25.898438 -120.28125 26.015625 -122.28125 C 26.128906 -124.289062 26.304688 -126.238281 26.546875 -128.125 C 26.785156 -128.832031 26.90625 -129.773438 26.90625 -130.953125 C 27.613281 -133.546875 28.140625 -136.257812 28.484375 -139.09375 C 28.835938 -141.925781 29.132812 -144.757812 29.375 -147.59375 L 30.4375 -153.609375 C 30.90625 -156.203125 31.257812 -158.851562 31.5 -161.5625 C 31.738281 -164.28125 31.972656 -166.9375 32.203125 -169.53125 C 32.679688 -172.125 32.921875 -174.773438 32.921875 -177.484375 C 32.921875 -180.203125 32.921875 -182.863281 32.921875 -185.46875 C 32.921875 -186.882812 32.976562 -188.238281 33.09375 -189.53125 C 33.207031 -190.832031 33.382812 -192.191406 33.625 -193.609375 C 34.09375 -199.742188 33.617188 -205.640625 32.203125 -211.296875 C 31.972656 -211.535156 31.859375 -211.773438 31.859375 -212.015625 C 30.910156 -215.078125 30.789062 -217.90625 31.5 -220.5 C 32.207031 -223.09375 33.390625 -225.570312 35.046875 -227.9375 C 37.867188 -232.65625 41.878906 -235.488281 47.078125 -236.4375 C 48.015625 -236.664062 48.835938 -236.835938 49.546875 -236.953125 C 50.253906 -237.078125 51.082031 -237.019531 52.03125 -236.78125 C 52.96875 -236.3125 53.789062 -236.078125 54.5 -236.078125 C 56.625 -235.835938 58.628906 -234.894531 60.515625 -233.25 L 63.703125 -229 C 65.359375 -226.164062 66.894531 -224.039062 68.3125 -222.625 C 72.082031 -217.90625 75.382812 -212.832031 78.21875 -207.40625 C 79.875 -204.34375 81.347656 -201.332031 82.640625 -198.375 C 83.941406 -195.425781 85.300781 -192.535156 86.71875 -189.703125 C 87.425781 -188.054688 88.070312 -186.523438 88.65625 -185.109375 C 89.25 -183.691406 89.898438 -182.273438 90.609375 -180.859375 C 91.078125 -180.148438 91.785156 -179.328125 92.734375 -178.390625 C 93.671875 -176.972656 94.140625 -175.910156 94.140625 -175.203125 C 94.617188 -174.253906 94.503906 -173.425781 93.796875 -172.71875 C 93.554688 -172.488281 93.550781 -172.132812 93.78125 -171.65625 C 94.019531 -171.1875 94.257812 -170.71875 94.5 -170.25 C 94.738281 -170.007812 95.210938 -168.648438 95.921875 -166.171875 C 96.628906 -163.691406 96.863281 -162.804688 96.625 -163.515625 C 97.09375 -162.335938 97.800781 -161.75 98.75 -161.75 C 99.457031 -161.507812 99.929688 -161.035156 100.171875 -160.328125 C 100.398438 -159.859375 100.046875 -159.269531 99.109375 -158.5625 C 98.398438 -158.320312 98.398438 -157.4375 99.109375 -155.90625 C 99.816406 -154.375 100.285156 -153.375 100.515625 -152.90625 C 101.460938 -150.539062 102.289062 -148.238281 103 -146 C 103.707031 -143.757812 104.53125 -141.457031 105.46875 -139.09375 C 106.65625 -136.03125 107.71875 -132.847656 108.65625 -129.546875 C 109.601562 -126.242188 110.546875 -122.9375 111.484375 -119.625 C 112.191406 -117.269531 112.957031 -114.96875 113.78125 -112.71875 C 114.613281 -110.476562 115.382812 -108.300781 116.09375 -106.1875 C 116.09375 -105.707031 116.328125 -105.46875 116.796875 -105.46875 L 117.5 -106.1875 C 117.5 -106.65625 117.738281 -107.363281 118.21875 -108.3125 C 118.6875 -110.90625 119.273438 -113.554688 119.984375 -116.265625 C 120.691406 -118.984375 121.398438 -121.640625 122.109375 -124.234375 C 123.285156 -127.773438 124.285156 -131.3125 125.109375 -134.84375 C 125.941406 -138.382812 126.828125 -141.925781 127.765625 -145.46875 C 128.242188 -147.59375 128.835938 -149.773438 129.546875 -152.015625 C 130.253906 -154.253906 130.722656 -156.4375 130.953125 -158.5625 C 131.898438 -162.570312 132.84375 -166.460938 133.78125 -170.234375 C 134.726562 -174.015625 135.554688 -177.789062 136.265625 -181.5625 C 136.503906 -182.039062 136.679688 -182.515625 136.796875 -182.984375 C 136.910156 -183.453125 136.96875 -183.925781 136.96875 -184.40625 C 137.207031 -186.757812 137.914062 -189 139.09375 -191.125 C 141.457031 -196.082031 145.351562 -199.269531 150.78125 -200.6875 C 153.375 -201.394531 155.96875 -201.394531 158.5625 -200.6875 C 160.6875 -200.207031 162.222656 -199.378906 163.171875 -198.203125 C 164.816406 -196.554688 166.40625 -194.90625 167.9375 -193.25 C 169.476562 -191.59375 170.835938 -189.820312 172.015625 -187.9375 C 172.953125 -186.519531 173.894531 -185.160156 174.84375 -183.859375 C 175.789062 -182.566406 176.734375 -181.210938 177.671875 -179.796875 C 178.378906 -178.859375 179.085938 -177.859375 179.796875 -176.796875 C 180.503906 -175.734375 181.09375 -174.609375 181.5625 -173.421875 C 183.457031 -170.117188 185.226562 -166.695312 186.875 -163.15625 C 188.53125 -159.625 189.945312 -155.96875 191.125 -152.1875 C 191.125 -151.71875 191.242188 -151.363281 191.484375 -151.125 C 192.660156 -148.769531 193.601562 -146.351562 194.3125 -143.875 C 195.019531 -141.394531 195.726562 -138.859375 196.4375 -136.265625 C 197.375 -133.671875 198.140625 -131.078125 198.734375 -128.484375 C 199.328125 -125.890625 199.976562 -123.289062 200.6875 -120.6875 C 200.6875 -119.75 200.800781 -119.039062 201.03125 -118.5625 C 201.738281 -116.675781 202.328125 -114.671875 202.796875 -112.546875 C 203.273438 -110.421875 203.75 -108.414062 204.21875 -106.53125 C 204.695312 -103.695312 205.171875 -100.863281 205.640625 -98.03125 C 206.109375 -95.207031 206.578125 -92.5 207.046875 -89.90625 C 207.523438 -86.363281 208 -82.820312 208.46875 -79.28125 C 208.9375 -75.738281 209.523438 -72.195312 210.234375 -68.65625 C 210.710938 -66.300781 211.128906 -63.828125 211.484375 -61.234375 C 211.835938 -58.640625 212.128906 -56.039062 212.359375 -53.4375 C 212.359375 -52.726562 212.59375 -51.671875 213.0625 -50.265625 L 214.125 -41.765625 C 214.125 -40.585938 214.242188 -39.757812 214.484375 -39.28125 C 215.660156 -34.800781 216.367188 -30.203125 216.609375 -25.484375 C 216.847656 -25.242188 216.96875 -24.945312 216.96875 -24.59375 C 216.96875 -24.238281 217.082031 -23.828125 217.3125 -23.359375 L 219.796875 -9.203125 C 220.265625 -7.546875 220.265625 -5.773438 219.796875 -3.890625 L 219.09375 -1.0625 C 219.09375 0.820312 218.738281 2.585938 218.03125 4.234375 C 217.320312 5.890625 216.492188 7.546875 215.546875 9.203125 C 214.835938 10.148438 214.007812 11.148438 213.0625 12.203125 C 212.125 13.265625 211.066406 14.148438 209.890625 14.859375 C 207.285156 16.753906 204.6875 16.875 202.09375 15.21875 C 196.664062 11.675781 192.65625 7.3125 190.0625 2.125 C 189.820312 1.175781 189.523438 0.289062 189.171875 -0.53125 C 188.828125 -1.351562 188.65625 -2.238281 188.65625 -3.1875 L 187.59375 -9.90625 C 187.351562 -11.09375 187.171875 -12.332031 187.046875 -13.625 C 186.929688 -14.925781 186.757812 -16.164062 186.53125 -17.34375 L 182.984375 -37.875 C 182.742188 -39.519531 182.503906 -41.050781 182.265625 -42.46875 C 182.035156 -43.882812 181.800781 -45.421875 181.5625 -47.078125 L 180.15625 -54.859375 C 179.6875 -57.453125 179.210938 -60.101562 178.734375 -62.8125 C 178.265625 -65.53125 177.796875 -68.1875 177.328125 -70.78125 L 173.78125 -93.4375 C 173.539062 -96.738281 173.007812 -99.984375 172.1875 -103.171875 C 171.363281 -106.359375 170.597656 -109.484375 169.890625 -112.546875 C 168.941406 -116.328125 167.878906 -119.925781 166.703125 -123.34375 C 165.523438 -126.769531 164.226562 -130.132812 162.8125 -133.4375 L 161.75 -136.625 C 161.507812 -137.332031 161.15625 -138.039062 160.6875 -138.75 C 160.21875 -139.457031 159.742188 -140.046875 159.265625 -140.515625 C 158.554688 -140.515625 158.203125 -140.394531 158.203125 -140.15625 L 157.140625 -136.625 C 156.203125 -133.550781 155.378906 -130.300781 154.671875 -126.875 C 153.960938 -123.457031 153.132812 -120.097656 152.1875 -116.796875 C 151.71875 -114.910156 151.242188 -113.023438 150.765625 -111.140625 C 150.296875 -109.253906 149.828125 -107.363281 149.359375 -105.46875 C 148.890625 -103.820312 148.476562 -102.113281 148.125 -100.34375 C 147.769531 -98.570312 147.359375 -96.742188 146.890625 -94.859375 C 146.410156 -92.023438 145.816406 -89.191406 145.109375 -86.359375 C 144.398438 -83.523438 143.8125 -80.691406 143.34375 -77.859375 C 143.101562 -75.742188 142.804688 -73.625 142.453125 -71.5 C 142.097656 -69.375 141.804688 -67.25 141.578125 -65.125 L 141.578125 -63 C 142.046875 -61.113281 141.570312 -59.460938 140.15625 -58.046875 C 139.925781 -57.335938 139.632812 -56.6875 139.28125 -56.09375 C 138.925781 -55.507812 138.628906 -54.863281 138.390625 -54.15625 C 137.921875 -52.03125 137.332031 -50.492188 136.625 -49.546875 L 135.5625 -47.078125 C 135.320312 -46.835938 135.140625 -46.421875 135.015625 -45.828125 C 134.898438 -45.242188 134.609375 -44.710938 134.140625 -44.234375 C 132.492188 -41.410156 130.367188 -39.523438 127.765625 -38.578125 C 126.828125 -38.109375 125.941406 -37.632812 125.109375 -37.15625 C 124.285156 -36.6875 123.40625 -36.21875 122.46875 -35.75 C 120.101562 -34.570312 117.625 -34.691406 115.03125 -36.109375 C 111.488281 -38.460938 108.773438 -41.054688 106.890625 -43.890625 L 100.515625 -53.09375 C 100.515625 -53.320312 100.457031 -53.492188 100.34375 -53.609375 C 100.226562 -53.734375 100.171875 -53.796875 100.171875 -53.796875 C 99.222656 -56.390625 98.15625 -58.75 96.96875 -60.875 C 95.789062 -63 94.847656 -65.242188 94.140625 -67.609375 L 89.90625 -79.984375 C 88.71875 -83.054688 87.648438 -86.125 86.703125 -89.1875 C 85.765625 -92.257812 84.707031 -95.328125 83.53125 -98.390625 L 82.46875 -101.21875 C 82 -103.34375 81.46875 -105.46875 80.875 -107.59375 C 80.28125 -109.71875 79.628906 -111.722656 78.921875 -113.609375 C 78.453125 -115.734375 77.863281 -117.796875 77.15625 -119.796875 C 76.445312 -121.804688 75.859375 -123.753906 75.390625 -125.640625 C 74.441406 -128.242188 73.554688 -130.898438 72.734375 -133.609375 C 71.910156 -136.328125 70.90625 -138.984375 69.71875 -141.578125 C 69.25 -143.222656 68.546875 -144.519531 67.609375 -145.46875 C 65.710938 -147.351562 64.410156 -149.59375 63.703125 -152.1875 C 63.703125 -152.664062 63.46875 -152.90625 63 -152.90625 L 62.296875 -152.1875 L 62.296875 -151.84375 C 62.054688 -151.601562 61.9375 -151.25 61.9375 -150.78125 C 61.695312 -148.414062 61.457031 -145.9375 61.21875 -143.34375 C 60.988281 -140.75 60.640625 -138.15625 60.171875 -135.5625 L 59.109375 -123.875 C 58.867188 -121.988281 58.691406 -120.101562 58.578125 -118.21875 C 58.460938 -116.332031 58.285156 -114.441406 58.046875 -112.546875 C 57.804688 -111.609375 57.628906 -110.664062 57.515625 -109.71875 C 57.398438 -108.78125 57.34375 -107.71875 57.34375 -106.53125 C 57.101562 -100.632812 56.394531 -94.382812 55.21875 -87.78125 C 54.976562 -86.125 54.738281 -84.289062 54.5 -82.28125 C 54.269531 -80.28125 54.035156 -78.335938 53.796875 -76.453125 L 52.734375 -68.65625 C 52.023438 -64.414062 51.671875 -60.289062 51.671875 -56.28125 C 51.671875 -54.625 51.726562 -52.96875 51.84375 -51.3125 C 51.96875 -49.664062 51.796875 -48.015625 51.328125 -46.359375 C 51.085938 -44.242188 51.320312 -41.769531 52.03125 -38.9375 C 52.96875 -37.28125 53.378906 -35.625 53.265625 -33.96875 C 53.148438 -32.320312 52.851562 -30.554688 52.375 -28.671875 C 52.144531 -27.253906 51.734375 -25.835938 51.140625 -24.421875 C 50.554688 -23.003906 49.671875 -21.707031 48.484375 -20.53125 C 48.015625 -19.820312 47.484375 -18.992188 46.890625 -18.046875 C 46.304688 -17.109375 45.660156 -16.285156 44.953125 -15.578125 C 43.066406 -13.210938 42.125 -10.613281 42.125 -7.78125 L 42.125 0 C 42.125 1.882812 42.0625 3.710938 41.9375 5.484375 C 41.820312 7.253906 41.882812 9.082031 42.125 10.96875 C 42.125 11.207031 42.0625 11.441406 41.9375 11.671875 C 41.820312 11.910156 41.765625 12.265625 41.765625 12.734375 C 41.523438 13.441406 41.40625 14.148438 41.40625 14.859375 C 41.40625 15.566406 41.40625 16.273438 41.40625 16.984375 C 41.644531 19.109375 41.410156 21.351562 40.703125 23.71875 C 39.523438 25.84375 37.992188 27.257812 36.109375 27.96875 C 35.628906 28.195312 35.15625 28.3125 34.6875 28.3125 Z M 34.6875 28.3125 "/></g></g></g><g fill="#000000" fill-opacity="1"><g transform="translate(829.239958, 762.593766)"><g/></g></g><g fill="#000000" fill-opacity="1"><g transform="translate(970.817578, 762.593766)"><g><path d="M 184.046875 133.4375 L 179.453125 129.1875 C 178.972656 128.71875 178.734375 128.242188 178.734375 127.765625 L 177.671875 124.234375 C 177.671875 122.347656 177.316406 120.34375 176.609375 118.21875 C 176.378906 117.738281 176.265625 117.144531 176.265625 116.4375 C 176.265625 115.738281 176.144531 115.148438 175.90625 114.671875 C 175.90625 112.785156 175.785156 110.957031 175.546875 109.1875 C 175.316406 107.414062 174.960938 105.707031 174.484375 104.0625 L 174.484375 102.640625 C 174.253906 99.335938 173.898438 95.972656 173.421875 92.546875 C 172.953125 89.128906 172.71875 85.769531 172.71875 82.46875 L 172.71875 77.515625 C 172.71875 76.804688 172.773438 76.097656 172.890625 75.390625 C 173.015625 74.679688 172.957031 73.851562 172.71875 72.90625 C 172.71875 71.488281 172.660156 69.894531 172.546875 68.125 C 172.429688 66.363281 172.375 64.65625 172.375 63 C 172.375 61.820312 172.375 60.523438 172.375 59.109375 C 172.375 57.691406 172.253906 56.394531 172.015625 55.21875 C 171.773438 52.851562 171.535156 50.488281 171.296875 48.125 C 171.066406 45.769531 170.832031 43.414062 170.59375 41.0625 C 170.363281 38.695312 170.1875 36.332031 170.0625 33.96875 C 169.945312 31.613281 169.890625 29.257812 169.890625 26.90625 C 169.421875 25.007812 169.066406 23.234375 168.828125 21.578125 C 168.585938 19.929688 168.234375 18.285156 167.765625 16.640625 C 167.296875 14.515625 166.46875 12.863281 165.28125 11.6875 C 164.34375 10.5 163.457031 9.375 162.625 8.3125 C 161.800781 7.25 161.15625 6.128906 160.6875 4.953125 C 160.21875 4.015625 159.742188 3.304688 159.265625 2.828125 C 158.085938 1.648438 156.96875 0.296875 155.90625 -1.234375 C 154.84375 -2.773438 153.722656 -4.25 152.546875 -5.65625 C 151.367188 -7.78125 150.070312 -9.671875 148.65625 -11.328125 C 147.945312 -12.503906 147.175781 -13.625 146.34375 -14.6875 C 145.519531 -15.75 144.875 -16.753906 144.40625 -17.703125 C 143.9375 -18.878906 143.285156 -19.878906 142.453125 -20.703125 C 141.628906 -21.523438 140.863281 -22.289062 140.15625 -23 L 126.703125 -37.875 C 124.585938 -40.226562 122.582031 -42.585938 120.6875 -44.953125 C 120.21875 -46.128906 119.628906 -47.070312 118.921875 -47.78125 C 118.210938 -48.488281 117.390625 -49.316406 116.453125 -50.265625 L 107.953125 -59.109375 C 107.242188 -60.046875 106.472656 -60.8125 105.640625 -61.40625 C 104.816406 -62 103.9375 -62.53125 103 -63 C 101.113281 -63.945312 99.222656 -65.363281 97.328125 -67.25 C 97.328125 -67.488281 97.09375 -67.84375 96.625 -68.3125 C 95.207031 -69.25 93.847656 -70.304688 92.546875 -71.484375 C 91.253906 -72.671875 90.019531 -73.851562 88.84375 -75.03125 C 87.425781 -76.445312 86.363281 -77.390625 85.65625 -77.859375 C 83.769531 -79.753906 81.820312 -81.523438 79.8125 -83.171875 C 77.800781 -84.828125 75.851562 -86.597656 73.96875 -88.484375 C 73.03125 -89.429688 72.144531 -90.316406 71.3125 -91.140625 C 70.488281 -91.960938 69.722656 -92.847656 69.015625 -93.796875 L 66.890625 -95.921875 C 66.890625 -95.921875 66.832031 -95.921875 66.71875 -95.921875 C 66.601562 -95.921875 66.546875 -95.800781 66.546875 -95.5625 L 66.1875 -95.203125 L 66.1875 -94.859375 C 67.363281 -90.140625 68.1875 -84.945312 68.65625 -79.28125 C 68.65625 -78.570312 68.773438 -78.097656 69.015625 -77.859375 C 69.722656 -75.503906 70.015625 -73.207031 69.890625 -70.96875 C 69.773438 -68.726562 69.484375 -66.425781 69.015625 -64.0625 C 68.546875 -62.175781 68.898438 -60.644531 70.078125 -59.46875 C 70.546875 -58.988281 70.546875 -58.515625 70.078125 -58.046875 C 70.078125 -56.867188 70.078125 -56.28125 70.078125 -56.28125 C 70.316406 -55.09375 70.4375 -53.910156 70.4375 -52.734375 C 70.4375 -51.554688 70.4375 -50.378906 70.4375 -49.203125 C 70.4375 -47.546875 70.550781 -46.363281 70.78125 -45.65625 C 71.488281 -42.113281 71.726562 -38.8125 71.5 -35.75 C 71.257812 -34.800781 71.140625 -33.738281 71.140625 -32.5625 C 71.140625 -31.382812 71.019531 -30.203125 70.78125 -29.015625 C 70.550781 -28.316406 70.492188 -27.671875 70.609375 -27.078125 C 70.722656 -26.484375 70.78125 -25.953125 70.78125 -25.484375 C 71.019531 -24.535156 71.195312 -23.648438 71.3125 -22.828125 C 71.4375 -22.003906 71.378906 -21.117188 71.140625 -20.171875 C 71.140625 -18.046875 70.664062 -16.160156 69.71875 -14.515625 C 68.3125 -12.148438 66.425781 -10.734375 64.0625 -10.265625 C 63.351562 -10.265625 62.878906 -10.144531 62.640625 -9.90625 C 61.460938 -9.4375 60.875 -8.847656 60.875 -8.140625 C 60.875 -6.960938 60.8125 -5.84375 60.6875 -4.78125 C 60.570312 -3.71875 60.515625 -2.597656 60.515625 -1.421875 L 60.515625 7.78125 C 60.753906 9.90625 60.285156 12.03125 59.109375 14.15625 C 58.398438 15.332031 57.453125 16.15625 56.265625 16.625 C 55.085938 17.101562 53.910156 17.222656 52.734375 16.984375 C 49.429688 15.804688 47.304688 13.6875 46.359375 10.625 L 45.296875 6.375 C 45.066406 4.71875 44.65625 3.125 44.0625 1.59375 C 43.476562 0.0625 42.59375 -1.410156 41.40625 -2.828125 C 40.9375 -3.773438 40.460938 -4.71875 39.984375 -5.65625 C 39.515625 -6.601562 39.046875 -7.550781 38.578125 -8.5 C 37.628906 -10.625 36.859375 -12.804688 36.265625 -15.046875 C 35.679688 -17.285156 35.15625 -19.582031 34.6875 -21.9375 C 34.445312 -23.351562 34.328125 -24.710938 34.328125 -26.015625 C 34.328125 -27.316406 34.328125 -28.671875 34.328125 -30.078125 C 34.328125 -31.023438 34.269531 -31.96875 34.15625 -32.90625 C 34.039062 -33.851562 33.984375 -34.800781 33.984375 -35.75 C 33.742188 -37.394531 33.625 -39.046875 33.625 -40.703125 C 33.625 -42.359375 33.625 -44.007812 33.625 -45.65625 C 33.625 -46.832031 33.625 -48.128906 33.625 -49.546875 C 33.625 -50.960938 33.390625 -52.257812 32.921875 -53.4375 L 32.921875 -54.859375 C 32.921875 -57.222656 32.800781 -59.460938 32.5625 -61.578125 C 32.320312 -63.703125 32.085938 -65.945312 31.859375 -68.3125 C 31.859375 -68.78125 31.738281 -69.132812 31.5 -69.375 C 31.257812 -70.789062 31.019531 -72.265625 30.78125 -73.796875 C 30.550781 -75.328125 30.203125 -76.800781 29.734375 -78.21875 C 29.253906 -80.101562 28.835938 -81.988281 28.484375 -83.875 C 28.140625 -85.769531 27.726562 -87.660156 27.25 -89.546875 C 27.019531 -91.203125 26.785156 -92.796875 26.546875 -94.328125 C 26.304688 -95.859375 25.953125 -97.453125 25.484375 -99.109375 C 25.242188 -100.046875 25.066406 -100.925781 24.953125 -101.75 C 24.835938 -102.582031 24.78125 -103.46875 24.78125 -104.40625 C 24.539062 -105.820312 24.359375 -107.175781 24.234375 -108.46875 C 24.117188 -109.769531 24.0625 -111.015625 24.0625 -112.203125 C 23.832031 -114.085938 23.597656 -116.03125 23.359375 -118.03125 C 23.117188 -120.039062 22.765625 -121.988281 22.296875 -123.875 C 22.054688 -125.050781 21.878906 -126.289062 21.765625 -127.59375 C 21.648438 -128.894531 21.59375 -130.132812 21.59375 -131.3125 C 21.351562 -134.375 21.054688 -137.320312 20.703125 -140.15625 C 20.347656 -142.988281 20.171875 -145.9375 20.171875 -149 C 20.171875 -150.1875 20.113281 -151.3125 20 -152.375 C 19.882812 -153.4375 19.828125 -154.4375 19.828125 -155.375 C 19.585938 -157.5 19.289062 -159.679688 18.9375 -161.921875 C 18.582031 -164.160156 18.285156 -166.34375 18.046875 -168.46875 L 15.921875 -182.625 C 15.691406 -185.226562 15.457031 -187.941406 15.21875 -190.765625 C 14.976562 -193.597656 14.859375 -196.3125 14.859375 -198.90625 C 14.859375 -200.5625 14.859375 -202.210938 14.859375 -203.859375 C 14.859375 -205.515625 14.742188 -207.171875 14.515625 -208.828125 C 14.035156 -211.890625 14.148438 -214.835938 14.859375 -217.671875 C 15.566406 -220.972656 16.984375 -223.804688 19.109375 -226.171875 C 19.816406 -227.109375 20.523438 -227.929688 21.234375 -228.640625 C 21.941406 -229.347656 22.648438 -230.054688 23.359375 -230.765625 C 24.773438 -231.941406 26.367188 -232.765625 28.140625 -233.234375 C 29.910156 -233.710938 31.617188 -234.070312 33.265625 -234.3125 C 34.453125 -234.3125 35.632812 -234.25 36.8125 -234.125 C 37.988281 -234.007812 39.050781 -233.832031 40 -233.59375 C 41.414062 -233.125 42.890625 -232.828125 44.421875 -232.703125 C 45.953125 -232.585938 47.546875 -232.53125 49.203125 -232.53125 C 52.265625 -232.53125 55.269531 -232.53125 58.21875 -232.53125 C 61.164062 -232.53125 64.175781 -232.414062 67.25 -232.1875 C 72.675781 -232.1875 78.222656 -231.832031 83.890625 -231.125 C 87.191406 -230.644531 90.316406 -229.992188 93.265625 -229.171875 C 96.210938 -228.347656 99.21875 -227.347656 102.28125 -226.171875 C 107.476562 -224.273438 112.316406 -222.148438 116.796875 -219.796875 C 118.921875 -218.847656 120.925781 -217.722656 122.8125 -216.421875 C 124.695312 -215.128906 126.46875 -213.660156 128.125 -212.015625 C 128.832031 -211.304688 129.539062 -210.597656 130.25 -209.890625 C 130.957031 -209.179688 131.546875 -208.351562 132.015625 -207.40625 C 132.722656 -206.695312 133.429688 -205.988281 134.140625 -205.28125 C 134.847656 -204.570312 135.320312 -203.628906 135.5625 -202.453125 C 136.03125 -201.503906 136.265625 -201.03125 136.265625 -201.03125 C 137.921875 -198.675781 139.160156 -196.082031 139.984375 -193.25 C 140.804688 -190.414062 141.453125 -187.582031 141.921875 -184.75 C 142.398438 -182.394531 142.460938 -180.09375 142.109375 -177.84375 C 141.753906 -175.601562 141.457031 -173.304688 141.21875 -170.953125 C 141.21875 -169.296875 141.097656 -167.757812 140.859375 -166.34375 C 140.628906 -164.9375 140.28125 -163.523438 139.8125 -162.109375 C 139.570312 -159.742188 138.921875 -157.5 137.859375 -155.375 C 136.796875 -153.25 135.675781 -151.242188 134.5 -149.359375 C 134.5 -149.117188 134.378906 -148.941406 134.140625 -148.828125 C 133.898438 -148.710938 133.664062 -148.421875 133.4375 -147.953125 C 131.78125 -146.054688 129.945312 -144.164062 127.9375 -142.28125 C 125.9375 -140.394531 123.640625 -138.742188 121.046875 -137.328125 C 120.097656 -136.859375 119.210938 -136.269531 118.390625 -135.5625 C 117.566406 -134.851562 116.566406 -134.257812 115.390625 -133.78125 C 114.910156 -133.3125 114.910156 -132.84375 115.390625 -132.375 C 116.328125 -131.425781 117.03125 -130.835938 117.5 -130.609375 C 119.15625 -129.191406 120.867188 -127.773438 122.640625 -126.359375 C 124.410156 -124.941406 126.117188 -123.523438 127.765625 -122.109375 C 129.660156 -120.929688 131.3125 -119.570312 132.71875 -118.03125 C 134.132812 -116.5 135.671875 -115.023438 137.328125 -113.609375 C 138.984375 -111.960938 140.632812 -110.3125 142.28125 -108.65625 C 143.9375 -107.007812 145.585938 -105.359375 147.234375 -103.703125 C 147.710938 -103.460938 148.1875 -103.109375 148.65625 -102.640625 C 149.125 -102.171875 149.59375 -101.695312 150.0625 -101.21875 C 151.25 -100.28125 152.3125 -99.335938 153.25 -98.390625 C 154.195312 -97.453125 155.144531 -96.390625 156.09375 -95.203125 C 156.5625 -94.265625 157.148438 -93.5 157.859375 -92.90625 C 158.566406 -92.320312 159.273438 -91.675781 159.984375 -90.96875 C 160.921875 -90.257812 161.742188 -89.550781 162.453125 -88.84375 C 163.160156 -88.132812 163.988281 -87.304688 164.9375 -86.359375 C 166.113281 -84.941406 167.410156 -83.46875 168.828125 -81.9375 C 170.242188 -80.40625 171.660156 -78.929688 173.078125 -77.515625 L 175.203125 -75.03125 C 175.671875 -74.5625 176.140625 -74.085938 176.609375 -73.609375 C 177.085938 -73.140625 177.441406 -72.671875 177.671875 -72.203125 C 179.796875 -69.835938 181.976562 -67.472656 184.21875 -65.109375 C 186.46875 -62.753906 188.769531 -60.28125 191.125 -57.6875 L 193.25 -55.5625 C 194.664062 -54.625 196.019531 -53.382812 197.3125 -51.84375 C 198.613281 -50.3125 199.851562 -48.957031 201.03125 -47.78125 C 201.976562 -47.070312 202.6875 -46.007812 203.15625 -44.59375 C 203.394531 -43.882812 203.628906 -43.234375 203.859375 -42.640625 C 204.097656 -42.054688 204.335938 -41.410156 204.578125 -40.703125 C 205.285156 -38.816406 205.519531 -37.046875 205.28125 -35.390625 C 205.050781 -34.921875 204.9375 -34.097656 204.9375 -32.921875 C 204.9375 -31.023438 204.519531 -29.25 203.6875 -27.59375 C 202.863281 -25.945312 201.863281 -24.414062 200.6875 -23 L 197.5 -20.171875 C 194.664062 -17.335938 192.894531 -13.679688 192.1875 -9.203125 C 191.945312 -6.835938 191.769531 -4.472656 191.65625 -2.109375 C 191.539062 0.242188 191.484375 2.71875 191.484375 5.3125 C 191.484375 7.90625 191.484375 10.5 191.484375 13.09375 C 191.484375 15.6875 191.597656 18.28125 191.828125 20.875 L 191.828125 25.484375 C 192.066406 26.191406 192.1875 27.488281 192.1875 29.375 L 192.1875 77.859375 C 192.1875 79.515625 192.125 81.226562 192 83 C 191.882812 84.769531 191.828125 86.597656 191.828125 88.484375 C 191.597656 89.429688 191.484375 90.375 191.484375 91.3125 C 191.484375 92.257812 191.484375 93.203125 191.484375 94.140625 L 191.484375 101.21875 C 191.484375 102.40625 191.597656 103.351562 191.828125 104.0625 C 192.304688 107.832031 192.484375 111.601562 192.359375 115.375 C 192.242188 119.15625 192.304688 123.050781 192.546875 127.0625 C 192.546875 129.1875 191.597656 131.191406 189.703125 133.078125 C 187.816406 134.960938 185.929688 135.082031 184.046875 133.4375 Z M 60.515625 -149 C 60.753906 -149.238281 60.988281 -149.359375 61.21875 -149.359375 C 61.457031 -149.359375 61.695312 -149.476562 61.9375 -149.71875 C 65.71875 -152.3125 69.492188 -153.488281 73.265625 -153.25 C 74.679688 -153.25 75.742188 -153.132812 76.453125 -152.90625 C 78.335938 -152.425781 79.988281 -152.78125 81.40625 -153.96875 C 83.53125 -155.144531 85.65625 -156.144531 87.78125 -156.96875 C 89.90625 -157.789062 91.910156 -158.796875 93.796875 -159.984375 C 94.023438 -159.984375 94.140625 -160.039062 94.140625 -160.15625 C 94.140625 -160.269531 94.257812 -160.328125 94.5 -160.328125 C 97.570312 -161.273438 100.40625 -162.925781 103 -165.28125 C 105.351562 -166.9375 106.707031 -168.054688 107.0625 -168.640625 C 107.414062 -169.234375 107.832031 -171.066406 108.3125 -174.140625 L 108.3125 -175.546875 C 108.3125 -176.960938 108.191406 -178.257812 107.953125 -179.4375 C 107.710938 -180.625 107.59375 -181.6875 107.59375 -182.625 C 106.882812 -185.226562 105.46875 -187.238281 103.34375 -188.65625 C 101.226562 -190.0625 98.988281 -191.117188 96.625 -191.828125 C 94.03125 -193.015625 91.316406 -193.898438 88.484375 -194.484375 C 85.648438 -195.078125 82.9375 -195.609375 80.34375 -196.078125 C 80.101562 -196.078125 79.925781 -196.132812 79.8125 -196.25 C 79.695312 -196.375 79.519531 -196.4375 79.28125 -196.4375 C 76.925781 -196.90625 74.800781 -196.429688 72.90625 -195.015625 C 72.90625 -195.015625 72.847656 -195.015625 72.734375 -195.015625 C 72.617188 -195.015625 72.441406 -194.898438 72.203125 -194.671875 C 69.609375 -193.253906 67.25 -192.898438 65.125 -193.609375 L 63.359375 -193.609375 C 59.816406 -193.609375 57.335938 -192.070312 55.921875 -189 C 55.453125 -187.582031 55.21875 -186.519531 55.21875 -185.8125 C 55.21875 -184.632812 55.21875 -183.335938 55.21875 -181.921875 C 55.21875 -180.503906 55.332031 -179.207031 55.5625 -178.03125 C 56.039062 -176.613281 56.28125 -175.550781 56.28125 -174.84375 C 56.28125 -173.195312 56.394531 -171.664062 56.625 -170.25 C 56.863281 -168.832031 57.101562 -167.414062 57.34375 -166 C 57.570312 -165.757812 57.6875 -165.285156 57.6875 -164.578125 C 57.457031 -163.640625 57.398438 -162.816406 57.515625 -162.109375 C 57.628906 -161.398438 57.6875 -160.570312 57.6875 -159.625 C 57.925781 -158.675781 58.101562 -157.847656 58.21875 -157.140625 C 58.34375 -156.441406 58.285156 -155.738281 58.046875 -155.03125 C 58.046875 -153.132812 58.398438 -151.242188 59.109375 -149.359375 C 59.109375 -149.117188 59.285156 -148.941406 59.640625 -148.828125 C 59.992188 -148.710938 60.285156 -148.769531 60.515625 -149 Z M 60.515625 -149 "/></g></g></g><g fill="#000000" fill-opacity="1"><g transform="translate(1190.262835, 762.593766)"><g><path d="M 80.34375 48.484375 C 77.039062 49.898438 74.328125 48.835938 72.203125 45.296875 C 71.023438 43.648438 70.195312 41.410156 69.71875 38.578125 C 69.488281 36.453125 69.132812 34.328125 68.65625 32.203125 C 68.1875 30.078125 67.71875 27.835938 67.25 25.484375 C 67.007812 24.535156 66.710938 23.585938 66.359375 22.640625 C 66.003906 21.703125 65.59375 20.765625 65.125 19.828125 C 64.414062 18.410156 63.707031 16.992188 63 15.578125 C 62.289062 14.160156 61.460938 12.863281 60.515625 11.6875 C 59.578125 9.789062 58.988281 8.488281 58.75 7.78125 L 56.984375 3.890625 C 55.566406 0.585938 54.859375 -2.832031 54.859375 -6.375 C 54.617188 -8.019531 54.554688 -9.664062 54.671875 -11.3125 C 54.796875 -12.96875 54.976562 -14.625 55.21875 -16.28125 C 55.925781 -20.53125 55.804688 -24.425781 54.859375 -27.96875 L 51.671875 -43.890625 C 51.441406 -45.304688 51.207031 -46.78125 50.96875 -48.3125 C 50.726562 -49.84375 50.492188 -51.4375 50.265625 -53.09375 L 49.203125 -58.046875 C 48.960938 -60.171875 48.722656 -62.296875 48.484375 -64.421875 C 48.253906 -66.546875 48.019531 -68.550781 47.78125 -70.4375 C 47.539062 -71.144531 47.421875 -71.851562 47.421875 -72.5625 C 47.421875 -73.269531 47.421875 -73.976562 47.421875 -74.6875 C 47.421875 -77.28125 46.597656 -79.519531 44.953125 -81.40625 C 44.003906 -82.582031 43.117188 -83.816406 42.296875 -85.109375 C 41.472656 -86.410156 40.820312 -87.65625 40.34375 -88.84375 C 39.40625 -90.257812 38.519531 -91.613281 37.6875 -92.90625 C 36.863281 -94.207031 36.097656 -95.566406 35.390625 -96.984375 C 34.679688 -98.398438 33.503906 -99.222656 31.859375 -99.453125 C 30.441406 -99.691406 29.144531 -100.28125 27.96875 -101.21875 C 26.3125 -102.632812 24.773438 -104.171875 23.359375 -105.828125 C 22.890625 -106.773438 22.414062 -107.484375 21.9375 -107.953125 C 21.226562 -108.890625 20.992188 -109.832031 21.234375 -110.78125 C 21.703125 -111.488281 21.703125 -112.195312 21.234375 -112.90625 C 20.523438 -114.082031 20.285156 -115.140625 20.515625 -116.078125 C 20.753906 -117.023438 20.992188 -117.972656 21.234375 -118.921875 C 21.234375 -119.867188 21.46875 -120.695312 21.9375 -121.40625 C 22.414062 -122.113281 22.890625 -122.820312 23.359375 -123.53125 C 24.304688 -124.9375 25.425781 -126.171875 26.71875 -127.234375 C 28.019531 -128.296875 29.378906 -129.300781 30.796875 -130.25 C 31.734375 -130.71875 32.441406 -131.191406 32.921875 -131.671875 C 34.097656 -132.140625 34.453125 -132.84375 33.984375 -133.78125 L 33.984375 -134.84375 C 33.503906 -137.445312 33.03125 -139.925781 32.5625 -142.28125 C 32.09375 -144.644531 31.503906 -147.003906 30.796875 -149.359375 C 30.554688 -150.535156 30.257812 -151.710938 29.90625 -152.890625 C 29.550781 -154.078125 29.140625 -155.257812 28.671875 -156.4375 C 28.429688 -156.675781 28.3125 -157.148438 28.3125 -157.859375 C 28.3125 -159.035156 28.191406 -160.210938 27.953125 -161.390625 C 27.722656 -162.578125 27.488281 -163.640625 27.25 -164.578125 C 26.539062 -170.242188 25.476562 -175.90625 24.0625 -181.5625 C 23.832031 -183.21875 23.242188 -184.875 22.296875 -186.53125 C 21.347656 -188.644531 20.757812 -190.53125 20.53125 -192.1875 C 19.820312 -194.78125 19.113281 -197.316406 18.40625 -199.796875 C 17.695312 -202.273438 17.109375 -204.691406 16.640625 -207.046875 C 15.929688 -209.410156 15.398438 -211.769531 15.046875 -214.125 C 14.691406 -216.488281 14.394531 -218.847656 14.15625 -221.203125 C 13.914062 -226.867188 15.921875 -231.472656 20.171875 -235.015625 L 21.234375 -236.078125 C 23.117188 -237.722656 25.0625 -238.84375 27.0625 -239.4375 C 29.070312 -240.03125 31.257812 -240.328125 33.625 -240.328125 C 35.75 -240.085938 37.695312 -240.257812 39.46875 -240.84375 C 41.238281 -241.4375 42.945312 -242.207031 44.59375 -243.15625 C 45.0625 -243.394531 45.769531 -243.515625 46.71875 -243.515625 L 47.78125 -243.515625 C 48.488281 -243.515625 49.078125 -243.394531 49.546875 -243.15625 C 50.253906 -242.6875 51.082031 -242.921875 52.03125 -243.859375 C 52.257812 -244.097656 52.613281 -243.984375 53.09375 -243.515625 C 53.5625 -242.804688 54.148438 -242.453125 54.859375 -242.453125 C 55.328125 -242.210938 55.859375 -242.09375 56.453125 -242.09375 C 57.046875 -242.09375 57.695312 -241.859375 58.40625 -241.390625 C 58.875 -241.148438 59.398438 -240.789062 59.984375 -240.3125 C 60.578125 -239.84375 60.992188 -239.140625 61.234375 -238.203125 L 62.296875 -237.140625 C 63.003906 -236.898438 63.59375 -236.3125 64.0625 -235.375 C 64.300781 -234.425781 65.128906 -233.953125 66.546875 -233.953125 C 67.253906 -233.953125 68.3125 -234.1875 69.71875 -234.65625 C 72.320312 -235.132812 74.859375 -235.609375 77.328125 -236.078125 C 79.804688 -236.546875 82.226562 -236.898438 84.59375 -237.140625 C 85.300781 -237.367188 86.125 -237.484375 87.0625 -237.484375 C 91.78125 -237.722656 96.5 -238.195312 101.21875 -238.90625 C 105.945312 -239.613281 110.550781 -240.441406 115.03125 -241.390625 L 116.796875 -242.09375 C 121.515625 -242.800781 126 -244.21875 130.25 -246.34375 C 131.894531 -247.28125 133.660156 -248.101562 135.546875 -248.8125 C 137.441406 -249.519531 139.210938 -250.226562 140.859375 -250.9375 L 152.90625 -255.1875 C 154.550781 -255.65625 155.613281 -256.128906 156.09375 -256.609375 C 157.5 -257.785156 158.796875 -258.609375 159.984375 -259.078125 C 163.046875 -260.960938 166.46875 -262.144531 170.25 -262.625 C 172.363281 -262.625 174.484375 -262.269531 176.609375 -261.5625 C 179.910156 -260.144531 182.976562 -257.898438 185.8125 -254.828125 C 186.519531 -253.648438 186.757812 -252.351562 186.53125 -250.9375 C 185.820312 -249.519531 185.820312 -247.988281 186.53125 -246.34375 C 186.757812 -244.925781 186.757812 -243.742188 186.53125 -242.796875 C 186.289062 -241.859375 186.171875 -240.914062 186.171875 -239.96875 C 186.171875 -239.019531 186.050781 -238.078125 185.8125 -237.140625 C 185.8125 -235.960938 185.457031 -235.019531 184.75 -234.3125 C 183.101562 -231.945312 181.453125 -230.175781 179.796875 -229 C 179.566406 -228.757812 179.390625 -228.519531 179.265625 -228.28125 C 179.148438 -228.050781 178.859375 -227.703125 178.390625 -227.234375 C 178.148438 -226.992188 177.96875 -226.753906 177.84375 -226.515625 C 177.726562 -226.285156 177.4375 -225.929688 176.96875 -225.453125 C 175.789062 -224.515625 174.785156 -223.453125 173.953125 -222.265625 C 173.128906 -221.085938 172.25 -219.910156 171.3125 -218.734375 C 170.363281 -217.078125 169.238281 -215.484375 167.9375 -213.953125 C 166.644531 -212.421875 165.171875 -211.066406 163.515625 -209.890625 L 160.6875 -206.703125 C 159.269531 -204.816406 158.441406 -203.046875 158.203125 -201.390625 C 157.734375 -199.265625 157.320312 -197.195312 156.96875 -195.1875 C 156.613281 -193.1875 156.4375 -191.125 156.4375 -189 L 155.375 -181.5625 C 155.375 -180.625 155.140625 -179.679688 154.671875 -178.734375 C 153.722656 -176.378906 151.832031 -175.203125 149 -175.203125 C 148.769531 -174.960938 148.476562 -174.898438 148.125 -175.015625 C 147.769531 -175.140625 147.472656 -175.203125 147.234375 -175.203125 C 145.109375 -176.378906 143.691406 -177.910156 142.984375 -179.796875 C 142.046875 -182.867188 141.335938 -186.289062 140.859375 -190.0625 C 140.859375 -191.238281 140.800781 -192.476562 140.6875 -193.78125 C 140.570312 -195.082031 140.394531 -196.320312 140.15625 -197.5 L 139.09375 -199.96875 C 138.625 -201.625 137.679688 -201.976562 136.265625 -201.03125 C 136.023438 -201.03125 135.726562 -200.910156 135.375 -200.671875 C 135.019531 -200.441406 134.609375 -200.207031 134.140625 -199.96875 C 133.191406 -199.5 132.304688 -198.96875 131.484375 -198.375 C 130.660156 -197.789062 129.894531 -197.144531 129.1875 -196.4375 C 127.0625 -195.257812 124.46875 -194.078125 121.40625 -192.890625 C 117.15625 -191.472656 113.257812 -189.351562 109.71875 -186.53125 C 109.25 -186.289062 108.71875 -185.929688 108.125 -185.453125 C 107.539062 -184.984375 106.894531 -184.515625 106.1875 -184.046875 C 105.476562 -183.578125 104.769531 -183.101562 104.0625 -182.625 C 103.351562 -182.15625 102.523438 -181.6875 101.578125 -181.21875 L 99.109375 -179.796875 C 98.398438 -179.328125 97.570312 -178.382812 96.625 -176.96875 C 96.382812 -175.789062 96.085938 -174.550781 95.734375 -173.25 C 95.378906 -171.957031 95.203125 -170.601562 95.203125 -169.1875 C 95.203125 -167.0625 95.144531 -164.9375 95.03125 -162.8125 C 94.914062 -160.6875 94.972656 -158.5625 95.203125 -156.4375 C 95.203125 -155.257812 95.203125 -154.019531 95.203125 -152.71875 C 95.203125 -151.425781 94.96875 -150.1875 94.5 -149 C 94.03125 -147.351562 94.617188 -146.765625 96.265625 -147.234375 C 97.453125 -147.234375 98.398438 -147.351562 99.109375 -147.59375 C 101.703125 -148.0625 104.351562 -148.472656 107.0625 -148.828125 C 109.78125 -149.179688 112.316406 -149.59375 114.671875 -150.0625 L 122.46875 -151.125 C 123.644531 -151.363281 124.644531 -151.597656 125.46875 -151.828125 C 126.289062 -152.066406 127.175781 -152.425781 128.125 -152.90625 C 129.539062 -153.84375 130.957031 -154.429688 132.375 -154.671875 C 133.789062 -154.910156 135.207031 -155.144531 136.625 -155.375 C 139.6875 -156.082031 142.753906 -155.492188 145.828125 -153.609375 L 150.421875 -150.421875 C 151.367188 -149.472656 151.84375 -148.53125 151.84375 -147.59375 C 152.3125 -145.9375 152.898438 -145.109375 153.609375 -145.109375 C 154.316406 -145.347656 154.789062 -145.347656 155.03125 -145.109375 C 155.738281 -144.171875 156.382812 -143.171875 156.96875 -142.109375 C 157.5625 -141.046875 157.972656 -139.925781 158.203125 -138.75 C 158.203125 -137.800781 157.847656 -137.207031 157.140625 -136.96875 C 156.203125 -136.96875 155.492188 -136.613281 155.015625 -135.90625 C 154.546875 -135.195312 154.078125 -134.488281 153.609375 -133.78125 C 153.367188 -133.550781 153.304688 -133.316406 153.421875 -133.078125 C 153.546875 -132.835938 153.609375 -132.601562 153.609375 -132.375 C 154.078125 -131.664062 154.078125 -130.835938 153.609375 -129.890625 C 153.367188 -129.421875 153.128906 -128.890625 152.890625 -128.296875 C 152.660156 -127.710938 152.425781 -127.179688 152.1875 -126.703125 C 151.25 -124.585938 149.835938 -122.820312 147.953125 -121.40625 C 147.003906 -120.457031 146.175781 -119.75 145.46875 -119.28125 C 143.582031 -118.09375 141.8125 -115.96875 140.15625 -112.90625 C 139.925781 -112.4375 139.691406 -111.90625 139.453125 -111.3125 C 139.210938 -110.71875 138.859375 -110.066406 138.390625 -109.359375 C 137.679688 -108.421875 136.617188 -107.71875 135.203125 -107.25 C 132.847656 -106.769531 130.960938 -106.882812 129.546875 -107.59375 L 127.421875 -108.65625 C 126.003906 -109.125 124.820312 -109.007812 123.875 -108.3125 C 123.644531 -108.070312 123.054688 -107.71875 122.109375 -107.25 C 119.984375 -106.300781 117.625 -106.179688 115.03125 -106.890625 C 113.851562 -107.359375 112.613281 -107.945312 111.3125 -108.65625 C 110.007812 -109.363281 108.769531 -109.953125 107.59375 -110.421875 C 107.125 -110.660156 106.65625 -111.015625 106.1875 -111.484375 C 105.238281 -112.191406 104.175781 -112.3125 103 -111.84375 C 101.582031 -111.601562 100.164062 -111.304688 98.75 -110.953125 C 97.332031 -110.597656 95.914062 -110.1875 94.5 -109.71875 C 92.375 -109.476562 90.015625 -108.769531 87.421875 -107.59375 C 86.710938 -107.59375 86.003906 -107.238281 85.296875 -106.53125 C 84.117188 -105.59375 83.648438 -104.53125 83.890625 -103.34375 L 83.890625 -102.640625 C 84.585938 -100.515625 85.113281 -98.390625 85.46875 -96.265625 C 85.820312 -94.140625 86.117188 -92.019531 86.359375 -89.90625 L 88.484375 -75.03125 C 88.484375 -74.800781 88.539062 -74.625 88.65625 -74.5 C 88.78125 -74.382812 88.84375 -74.328125 88.84375 -74.328125 C 88.84375 -71.734375 88.957031 -69.132812 89.1875 -66.53125 C 89.425781 -63.9375 89.546875 -61.34375 89.546875 -58.75 C 89.546875 -55.6875 89.601562 -52.738281 89.71875 -49.90625 C 89.84375 -47.070312 89.90625 -44.238281 89.90625 -41.40625 L 89.90625 -37.15625 C 90.375 -36.21875 91.082031 -35.75 92.03125 -35.75 L 96.625 -36.8125 C 97.800781 -37.039062 98.921875 -37.273438 99.984375 -37.515625 C 101.046875 -37.753906 102.050781 -37.988281 103 -38.21875 L 109.359375 -39.28125 C 110.773438 -39.28125 111.835938 -39.398438 112.546875 -39.640625 C 115.617188 -40.109375 118.6875 -40.695312 121.75 -41.40625 C 124.820312 -42.113281 127.890625 -42.707031 130.953125 -43.1875 C 132.367188 -43.414062 133.84375 -43.644531 135.375 -43.875 C 136.914062 -44.113281 138.507812 -44.351562 140.15625 -44.59375 C 142.75 -44.832031 145.285156 -45.128906 147.765625 -45.484375 C 150.242188 -45.835938 152.664062 -46.128906 155.03125 -46.359375 C 156.207031 -46.597656 157.328125 -46.773438 158.390625 -46.890625 C 159.453125 -47.015625 160.453125 -47.078125 161.390625 -47.078125 C 162.804688 -47.546875 163.867188 -48.015625 164.578125 -48.484375 C 165.046875 -48.960938 165.578125 -49.316406 166.171875 -49.546875 C 166.765625 -49.785156 167.175781 -50.023438 167.40625 -50.265625 C 169.53125 -52.148438 171.890625 -52.851562 174.484375 -52.375 C 175.191406 -52.375 175.785156 -52.492188 176.265625 -52.734375 C 176.734375 -52.734375 177.320312 -52.734375 178.03125 -52.734375 C 178.738281 -52.734375 179.328125 -52.613281 179.796875 -52.375 C 180.972656 -51.90625 182.035156 -51.492188 182.984375 -51.140625 C 183.929688 -50.785156 184.875 -50.253906 185.8125 -49.546875 C 186.050781 -49.316406 186.289062 -49.203125 186.53125 -49.203125 C 188.414062 -48.015625 190.300781 -47.894531 192.1875 -48.84375 C 192.894531 -49.3125 193.71875 -49.722656 194.65625 -50.078125 C 195.601562 -50.429688 196.550781 -50.726562 197.5 -50.96875 C 199.851562 -51.675781 202.210938 -51.675781 204.578125 -50.96875 C 205.285156 -50.726562 206.050781 -50.488281 206.875 -50.25 C 207.695312 -50.019531 208.347656 -49.671875 208.828125 -49.203125 C 210.242188 -48.492188 211.539062 -47.3125 212.71875 -45.65625 C 214.84375 -42.59375 216.257812 -39.410156 216.96875 -36.109375 C 217.4375 -35.398438 217.4375 -34.691406 216.96875 -33.984375 C 216.726562 -33.273438 216.488281 -32.625 216.25 -32.03125 C 216.019531 -31.4375 215.785156 -30.785156 215.546875 -30.078125 C 215.304688 -29.609375 215.066406 -29.078125 214.828125 -28.484375 C 214.597656 -27.898438 214.363281 -27.375 214.125 -26.90625 C 214.125 -25.957031 213.65625 -25.25 212.71875 -24.78125 C 211.769531 -24.539062 211.0625 -23.832031 210.59375 -22.65625 C 210.125 -21.707031 209.535156 -21.46875 208.828125 -21.9375 C 207.878906 -21.9375 207.285156 -21.820312 207.046875 -21.59375 C 205.867188 -20.644531 204.570312 -19.9375 203.15625 -19.46875 C 201.738281 -19 200.320312 -18.523438 198.90625 -18.046875 C 196.3125 -17.578125 193.71875 -16.925781 191.125 -16.09375 C 188.53125 -15.269531 185.9375 -14.503906 183.34375 -13.796875 C 181.925781 -13.328125 180.863281 -13.09375 180.15625 -13.09375 C 178.738281 -12.851562 177.378906 -12.554688 176.078125 -12.203125 C 174.785156 -11.859375 173.550781 -11.445312 172.375 -10.96875 C 172.132812 -10.738281 171.835938 -10.625 171.484375 -10.625 C 171.128906 -10.625 170.71875 -10.503906 170.25 -10.265625 C 168.59375 -10.023438 166.878906 -9.671875 165.109375 -9.203125 C 163.335938 -8.734375 161.628906 -8.144531 159.984375 -7.4375 C 159.273438 -6.957031 158.210938 -6.71875 156.796875 -6.71875 C 154.910156 -6.71875 152.90625 -6.363281 150.78125 -5.65625 C 148.414062 -5.1875 146.050781 -4.773438 143.6875 -4.421875 C 141.332031 -4.066406 138.859375 -3.65625 136.265625 -3.1875 L 128.828125 -2.125 C 125.765625 -1.414062 123.050781 -0.585938 120.6875 0.359375 C 120.21875 0.585938 119.628906 0.820312 118.921875 1.0625 C 118.210938 1.300781 117.625 1.535156 117.15625 1.765625 C 112.195312 2.710938 107.59375 4.484375 103.34375 7.078125 L 100.515625 8.140625 C 98.628906 8.378906 96.800781 8.96875 95.03125 9.90625 C 93.257812 10.851562 91.429688 11.796875 89.546875 12.734375 C 88.128906 13.679688 87.1875 14.390625 86.71875 14.859375 C 86.238281 15.335938 85.765625 16.046875 85.296875 16.984375 C 84.117188 19.816406 83.53125 22.296875 83.53125 24.421875 C 83.769531 26.078125 83.890625 27.671875 83.890625 29.203125 C 83.890625 30.734375 84.003906 32.441406 84.234375 34.328125 C 84.703125 37.160156 84.585938 39.757812 83.890625 42.125 C 83.890625 43.0625 83.648438 44.238281 83.171875 45.65625 C 82.234375 47.070312 81.289062 48.015625 80.34375 48.484375 Z M 80.34375 -144.046875 C 81.289062 -144.523438 81.765625 -145.234375 81.765625 -146.171875 C 81.523438 -146.648438 81.40625 -147.179688 81.40625 -147.765625 C 81.40625 -148.359375 81.285156 -148.890625 81.046875 -149.359375 C 79.867188 -152.429688 79.28125 -155.144531 79.28125 -157.5 C 79.28125 -157.96875 79.21875 -158.320312 79.09375 -158.5625 C 78.976562 -158.800781 78.921875 -159.035156 78.921875 -159.265625 C 78.453125 -159.742188 78.21875 -159.984375 78.21875 -159.984375 L 78.21875 -159.265625 C 77.976562 -158.085938 77.800781 -156.789062 77.6875 -155.375 C 77.570312 -153.957031 77.515625 -152.539062 77.515625 -151.125 L 77.515625 -145.46875 C 77.984375 -144.757812 78.453125 -144.40625 78.921875 -144.40625 C 79.160156 -144.164062 79.632812 -144.046875 80.34375 -144.046875 Z M 80.34375 -144.046875 "/></g></g></g><g fill="#000000" fill-opacity="1"><g transform="translate(1421.742133, 762.593766)"><g><path d="M 26.546875 31.859375 C 26.304688 31.859375 25.476562 31.617188 24.0625 31.140625 C 23.351562 30.910156 22.53125 30.085938 21.59375 28.671875 C 21.351562 27.960938 21.113281 27.253906 20.875 26.546875 C 20.644531 25.835938 20.53125 25.128906 20.53125 24.421875 C 19.820312 20.878906 19.46875 17.335938 19.46875 13.796875 L 19.46875 -10.625 C 19.46875 -12.738281 19.226562 -14.859375 18.75 -16.984375 C 18.28125 -19.109375 17.8125 -21.234375 17.34375 -23.359375 C 17.34375 -23.828125 17.109375 -24.535156 16.640625 -25.484375 C 16.398438 -26.191406 16.039062 -26.957031 15.5625 -27.78125 C 15.09375 -28.601562 14.625 -29.367188 14.15625 -30.078125 C 13.207031 -31.734375 12.5 -33.503906 12.03125 -35.390625 C 11.5625 -37.273438 11.207031 -39.046875 10.96875 -40.703125 C 10.738281 -43.296875 10.738281 -45.773438 10.96875 -48.140625 C 11.445312 -49.554688 11.800781 -50.910156 12.03125 -52.203125 C 12.269531 -53.503906 12.625 -54.742188 13.09375 -55.921875 C 13.800781 -57.804688 14.390625 -59.75 14.859375 -61.75 C 15.335938 -63.757812 15.929688 -65.828125 16.640625 -67.953125 L 21.9375 -85.296875 C 23.59375 -90.253906 25.71875 -95.328125 28.3125 -100.515625 C 30.90625 -105.472656 33.382812 -111.019531 35.75 -117.15625 C 36.21875 -118.570312 36.804688 -120.101562 37.515625 -121.75 C 38.460938 -124.34375 39.46875 -126.878906 40.53125 -129.359375 C 41.59375 -131.835938 42.59375 -134.257812 43.53125 -136.625 L 48.84375 -151.484375 C 49.3125 -152.429688 49.664062 -153.375 49.90625 -154.3125 C 50.144531 -155.257812 50.378906 -156.203125 50.609375 -157.140625 C 52.492188 -161.867188 54.382812 -166.351562 56.28125 -170.59375 C 57.695312 -173.425781 58.640625 -176.492188 59.109375 -179.796875 C 59.578125 -183.097656 59.578125 -186.398438 59.109375 -189.703125 C 58.867188 -191.117188 58.691406 -192.59375 58.578125 -194.125 C 58.460938 -195.664062 58.40625 -197.144531 58.40625 -198.5625 C 58.40625 -199.269531 58.226562 -199.914062 57.875 -200.5 C 57.519531 -201.09375 57.457031 -201.742188 57.6875 -202.453125 C 57.925781 -202.921875 58.222656 -203.390625 58.578125 -203.859375 C 58.929688 -204.335938 59.226562 -204.8125 59.46875 -205.28125 C 60.164062 -207.875 61.28125 -210.171875 62.8125 -212.171875 C 64.351562 -214.179688 66.066406 -216.015625 67.953125 -217.671875 C 68.898438 -218.617188 70.195312 -219.328125 71.84375 -219.796875 C 72.789062 -220.265625 73.675781 -220.734375 74.5 -221.203125 C 75.332031 -221.679688 76.097656 -222.273438 76.796875 -222.984375 C 77.984375 -223.921875 79.285156 -224.507812 80.703125 -224.75 C 82.585938 -224.988281 84.59375 -225.695312 86.71875 -226.875 C 88.601562 -228.050781 90.722656 -228.40625 93.078125 -227.9375 L 96.265625 -227.9375 C 97.921875 -227.9375 99.691406 -227.347656 101.578125 -226.171875 C 102.046875 -225.929688 102.578125 -225.632812 103.171875 -225.28125 C 103.765625 -224.925781 104.414062 -224.515625 105.125 -224.046875 C 107.007812 -222.628906 107.953125 -220.859375 107.953125 -218.734375 C 107.953125 -217.078125 108.128906 -215.539062 108.484375 -214.125 C 108.835938 -212.71875 109.128906 -211.1875 109.359375 -209.53125 C 109.835938 -208.113281 109.835938 -206.582031 109.359375 -204.9375 C 109.128906 -204.457031 109.015625 -203.921875 109.015625 -203.328125 C 109.015625 -202.742188 108.894531 -202.21875 108.65625 -201.75 C 108.65625 -200.800781 108.597656 -199.851562 108.484375 -198.90625 C 108.367188 -197.96875 108.191406 -197.023438 107.953125 -196.078125 C 107.242188 -194.429688 107.476562 -192.78125 108.65625 -191.125 C 110.539062 -188.0625 112.25 -184.875 113.78125 -181.5625 C 115.320312 -178.257812 116.914062 -174.957031 118.5625 -171.65625 L 124.9375 -160.328125 C 126.820312 -157.265625 128.710938 -153.609375 130.609375 -149.359375 C 131.078125 -148.648438 131.488281 -147.941406 131.84375 -147.234375 C 132.195312 -146.523438 132.609375 -145.816406 133.078125 -145.109375 C 133.785156 -143.929688 134.429688 -142.632812 135.015625 -141.21875 C 135.609375 -139.800781 136.257812 -138.382812 136.96875 -136.96875 C 138.863281 -133.4375 140.457031 -129.835938 141.75 -126.171875 C 143.050781 -122.515625 144.410156 -118.679688 145.828125 -114.671875 C 145.828125 -114.441406 145.882812 -114.265625 146 -114.140625 C 146.113281 -114.023438 146.171875 -113.847656 146.171875 -113.609375 C 146.410156 -111.960938 147.59375 -111.140625 149.71875 -111.140625 C 150.425781 -111.367188 151.191406 -111.484375 152.015625 -111.484375 C 152.835938 -111.484375 153.601562 -111.484375 154.3125 -111.484375 C 156.90625 -111.484375 159.148438 -111.015625 161.046875 -110.078125 C 162.222656 -109.835938 163.398438 -109.128906 164.578125 -107.953125 C 166.460938 -106.066406 167.757812 -104.53125 168.46875 -103.34375 C 169.175781 -102.164062 169.648438 -100.398438 169.890625 -98.046875 C 170.835938 -93.554688 169.894531 -89.660156 167.0625 -86.359375 L 164.9375 -84.59375 C 164.46875 -84.125 163.878906 -83.710938 163.171875 -83.359375 C 162.460938 -83.003906 161.867188 -82.585938 161.390625 -82.109375 C 160.210938 -81.171875 159.5625 -80.460938 159.4375 -79.984375 C 159.320312 -79.515625 159.617188 -78.453125 160.328125 -76.796875 L 165.640625 -64.0625 C 167.765625 -59.34375 169.945312 -54.625 172.1875 -49.90625 C 174.425781 -45.1875 176.726562 -40.46875 179.09375 -35.75 C 180.039062 -34.09375 180.804688 -32.4375 181.390625 -30.78125 C 181.984375 -29.132812 182.394531 -27.367188 182.625 -25.484375 C 182.863281 -24.066406 182.921875 -22.648438 182.796875 -21.234375 C 182.679688 -19.816406 182.507812 -18.398438 182.28125 -16.984375 C 182.28125 -16.753906 182.039062 -15.929688 181.5625 -14.515625 C 180.863281 -13.566406 180.21875 -12.617188 179.625 -11.671875 C 179.03125 -10.734375 178.378906 -9.789062 177.671875 -8.84375 C 175.785156 -6.25 174.253906 -3.300781 173.078125 0 C 172.609375 2.125 171.070312 3.773438 168.46875 4.953125 C 167.050781 5.660156 165.519531 5.660156 163.875 4.953125 C 161.75 4.242188 160.332031 2.828125 159.625 0.703125 L 158.921875 -1.0625 C 158.210938 -3.414062 157.148438 -5.65625 155.734375 -7.78125 C 154.785156 -9.4375 153.898438 -11.148438 153.078125 -12.921875 C 152.253906 -14.691406 151.367188 -16.398438 150.421875 -18.046875 C 150.179688 -18.523438 150.0625 -18.941406 150.0625 -19.296875 C 150.0625 -19.648438 149.945312 -19.941406 149.71875 -20.171875 C 149.476562 -21.585938 149.0625 -22.941406 148.46875 -24.234375 C 147.882812 -25.535156 147.238281 -26.78125 146.53125 -27.96875 C 145.113281 -31.5 143.640625 -34.972656 142.109375 -38.390625 C 140.578125 -41.816406 138.984375 -45.300781 137.328125 -48.84375 L 132.015625 -60.171875 C 131.785156 -60.878906 131.550781 -61.644531 131.3125 -62.46875 C 131.070312 -63.289062 130.71875 -64.175781 130.25 -65.125 L 126 -74.6875 C 126 -75.15625 125.765625 -75.859375 125.296875 -76.796875 C 124.117188 -78.691406 122.582031 -79.753906 120.6875 -79.984375 C 119.039062 -79.984375 117.507812 -80.101562 116.09375 -80.34375 C 114.675781 -80.582031 113.257812 -80.703125 111.84375 -80.703125 C 108.070312 -80.703125 104.296875 -80.347656 100.515625 -79.640625 C 96.742188 -78.929688 93.207031 -77.632812 89.90625 -75.75 C 85.414062 -73.144531 80.8125 -71.488281 76.09375 -70.78125 C 75.15625 -70.78125 74.210938 -70.660156 73.265625 -70.421875 C 72.316406 -70.191406 71.375 -69.84375 70.4375 -69.375 C 69.019531 -68.425781 68.191406 -67.363281 67.953125 -66.1875 C 67.484375 -64.769531 67.25 -63.707031 67.25 -63 L 66.1875 -58.046875 C 65.945312 -56.390625 65.003906 -54.738281 63.359375 -53.09375 C 62.171875 -51.914062 60.519531 -51.328125 58.40625 -51.328125 C 55.332031 -51.796875 53.320312 -53.328125 52.375 -55.921875 C 52.144531 -56.628906 51.910156 -57.335938 51.671875 -58.046875 C 51.441406 -58.753906 51.207031 -59.578125 50.96875 -60.515625 C 50.019531 -59.109375 49.898438 -57.929688 50.609375 -56.984375 C 51.085938 -56.035156 50.851562 -55.207031 49.90625 -54.5 C 49.4375 -54.03125 49.316406 -53.675781 49.546875 -53.4375 C 50.023438 -52.5 49.910156 -51.675781 49.203125 -50.96875 C 48.492188 -50.257812 48.253906 -49.429688 48.484375 -48.484375 C 48.722656 -48.015625 48.722656 -47.425781 48.484375 -46.71875 C 47.304688 -45.0625 46.484375 -43.054688 46.015625 -40.703125 C 46.242188 -39.753906 45.648438 -39.046875 44.234375 -38.578125 C 43.765625 -38.578125 43.53125 -38.34375 43.53125 -37.875 C 43.0625 -37.164062 42.59375 -36.101562 42.125 -34.6875 C 41.882812 -33.507812 41.585938 -32.269531 41.234375 -30.96875 C 40.878906 -29.664062 40.46875 -28.425781 40 -27.25 L 37.875 -18.40625 L 37.875 -16.984375 C 37.875 -14.859375 37.695312 -12.789062 37.34375 -10.78125 C 36.988281 -8.78125 36.8125 -6.71875 36.8125 -4.59375 L 35.75 7.078125 C 35.507812 8.734375 35.332031 10.441406 35.21875 12.203125 C 35.101562 13.972656 35.046875 15.804688 35.046875 17.703125 C 34.804688 19.117188 34.625 20.472656 34.5 21.765625 C 34.382812 23.066406 34.09375 24.425781 33.625 25.84375 C 33.15625 27.957031 32.328125 29.488281 31.140625 30.4375 C 30.203125 31.851562 28.671875 32.328125 26.546875 31.859375 Z M 72.5625 -111.484375 L 72.90625 -111.484375 C 75.269531 -111.960938 77.515625 -112.316406 79.640625 -112.546875 C 81.765625 -112.785156 83.882812 -113.023438 86 -113.265625 C 87.414062 -113.492188 88.832031 -113.664062 90.25 -113.78125 C 91.664062 -113.90625 93.082031 -113.96875 94.5 -113.96875 L 101.9375 -113.96875 C 102.40625 -113.96875 102.875 -114.023438 103.34375 -114.140625 C 103.820312 -114.265625 104.175781 -114.328125 104.40625 -114.328125 C 104.882812 -114.328125 105.125 -114.796875 105.125 -115.734375 C 104.414062 -116.679688 103.820312 -117.625 103.34375 -118.5625 C 102.875 -119.507812 102.40625 -120.457031 101.9375 -121.40625 C 100.519531 -124.707031 98.628906 -127.535156 96.265625 -129.890625 C 96.035156 -130.367188 95.800781 -130.785156 95.5625 -131.140625 C 95.320312 -131.492188 95.085938 -131.90625 94.859375 -132.375 C 94.617188 -132.84375 94.320312 -133.367188 93.96875 -133.953125 C 93.613281 -134.546875 93.203125 -135.082031 92.734375 -135.5625 C 91.554688 -136.5 90.375 -136.257812 89.1875 -134.84375 L 88.125 -132.015625 C 87.894531 -130.128906 87.539062 -128.179688 87.0625 -126.171875 C 86.59375 -124.171875 86.125 -122.226562 85.65625 -120.34375 C 85.65625 -119.863281 85.414062 -119.15625 84.9375 -118.21875 C 84.46875 -116.800781 83.347656 -115.738281 81.578125 -115.03125 C 79.804688 -114.320312 77.976562 -114.554688 76.09375 -115.734375 L 73.96875 -117.15625 C 73.96875 -117.15625 73.734375 -117.15625 73.265625 -117.15625 C 72.796875 -116.207031 72.5625 -115.5 72.5625 -115.03125 C 72.5625 -114.5625 72.617188 -114.085938 72.734375 -113.609375 C 72.847656 -113.140625 72.671875 -112.671875 72.203125 -112.203125 C 71.734375 -111.722656 71.851562 -111.484375 72.5625 -111.484375 Z M 72.5625 -111.484375 "/></g></g></g><g fill="#000000" fill-opacity="1"><g transform="translate(1614.995502, 762.593766)"><g><path d="M 148.65625 41.765625 C 146.289062 41.523438 144.519531 40.109375 143.34375 37.515625 C 143.101562 37.273438 142.984375 36.6875 142.984375 35.75 C 142.753906 33.863281 142.460938 31.972656 142.109375 30.078125 C 141.753906 28.191406 141.691406 26.304688 141.921875 24.421875 L 141.921875 22.65625 C 141.691406 20.53125 141.578125 18.40625 141.578125 16.28125 C 141.578125 14.15625 141.457031 12.148438 141.21875 10.265625 C 140.75 6.253906 139.332031 3.1875 136.96875 1.0625 L 133.78125 -2.125 C 132.601562 -3.539062 131.070312 -4.015625 129.1875 -3.546875 C 127.769531 -3.304688 126.410156 -3.1875 125.109375 -3.1875 C 123.816406 -3.1875 122.460938 -3.304688 121.046875 -3.546875 C 120.097656 -3.546875 119.09375 -3.484375 118.03125 -3.359375 C 116.976562 -3.242188 115.859375 -3.1875 114.671875 -3.1875 C 113.734375 -3.1875 112.734375 -3.242188 111.671875 -3.359375 C 110.609375 -3.484375 109.601562 -3.425781 108.65625 -3.1875 C 107.71875 -2.945312 106.832031 -2.828125 106 -2.828125 C 105.175781 -2.828125 104.410156 -2.828125 103.703125 -2.828125 L 91.671875 -2.828125 C 89.078125 -2.828125 86.363281 -2.472656 83.53125 -1.765625 L 75.03125 0.359375 C 72.195312 1.296875 69.367188 2.003906 66.546875 2.484375 C 65.597656 2.710938 64.648438 2.945312 63.703125 3.1875 C 62.765625 3.425781 61.820312 3.78125 60.875 4.25 C 57.332031 5.894531 53.910156 6.835938 50.609375 7.078125 C 48.484375 7.546875 46.953125 8.488281 46.015625 9.90625 L 44.234375 12.03125 C 43.765625 12.269531 43.296875 12.566406 42.828125 12.921875 C 42.359375 13.273438 41.882812 13.6875 41.40625 14.15625 C 39.757812 15.101562 37.992188 15.101562 36.109375 14.15625 C 33.984375 12.976562 32.679688 11.679688 32.203125 10.265625 C 32.203125 10.023438 32.144531 9.847656 32.03125 9.734375 C 31.914062 9.617188 31.859375 9.441406 31.859375 9.203125 C 30.203125 5.191406 27.488281 1.648438 23.71875 -1.421875 C 22.769531 -2.128906 21.941406 -2.953125 21.234375 -3.890625 C 20.992188 -4.597656 20.640625 -5.242188 20.171875 -5.828125 C 19.703125 -6.421875 19.234375 -6.957031 18.765625 -7.4375 L 16.640625 -10.625 C 15.691406 -12.269531 15.335938 -14.15625 15.578125 -16.28125 C 15.804688 -17.457031 15.976562 -18.691406 16.09375 -19.984375 C 16.21875 -21.285156 16.398438 -22.53125 16.640625 -23.71875 L 16.640625 -25.84375 C 16.640625 -28.4375 16.640625 -31.085938 16.640625 -33.796875 C 16.640625 -36.515625 16.753906 -39.050781 16.984375 -41.40625 L 16.984375 -44.953125 C 17.460938 -45.890625 17.640625 -46.769531 17.515625 -47.59375 C 17.398438 -48.425781 17.34375 -49.316406 17.34375 -50.265625 C 17.582031 -53.328125 17.640625 -56.332031 17.515625 -59.28125 C 17.398438 -62.226562 17.460938 -65.238281 17.703125 -68.3125 L 18.765625 -84.234375 C 18.992188 -86.828125 19.164062 -89.300781 19.28125 -91.65625 C 19.40625 -94.019531 19.46875 -96.382812 19.46875 -98.75 L 19.46875 -99.8125 C 19.9375 -102.644531 20.171875 -105.472656 20.171875 -108.296875 C 20.171875 -111.128906 20.171875 -114.082031 20.171875 -117.15625 L 20.171875 -141.578125 C 19.941406 -144.171875 19.765625 -146.765625 19.640625 -149.359375 C 19.523438 -151.953125 19.46875 -154.546875 19.46875 -157.140625 C 19.46875 -159.972656 19.347656 -162.863281 19.109375 -165.8125 C 18.878906 -168.769531 18.523438 -171.78125 18.046875 -174.84375 C 17.816406 -176.726562 17.523438 -178.734375 17.171875 -180.859375 C 16.816406 -182.984375 16.640625 -185.109375 16.640625 -187.234375 C 16.640625 -187.703125 16.578125 -188.171875 16.453125 -188.640625 C 16.335938 -189.117188 16.28125 -189.59375 16.28125 -190.0625 C 14.863281 -196.4375 14.15625 -202.925781 14.15625 -209.53125 L 14.15625 -224.390625 C 14.15625 -226.046875 14.210938 -227.640625 14.328125 -229.171875 C 14.453125 -230.703125 14.628906 -232.296875 14.859375 -233.953125 C 15.335938 -236.785156 16.285156 -238.910156 17.703125 -240.328125 L 19.46875 -242.453125 C 20.882812 -244.335938 22.535156 -245.691406 24.421875 -246.515625 C 26.304688 -247.335938 28.3125 -247.867188 30.4375 -248.109375 L 32.921875 -248.109375 C 36.453125 -248.109375 39.28125 -246.8125 41.40625 -244.21875 C 41.882812 -243.976562 42.238281 -243.738281 42.46875 -243.5 C 42.707031 -243.269531 42.945312 -243.035156 43.1875 -242.796875 C 44.363281 -241.859375 45.066406 -240.796875 45.296875 -239.609375 C 46.484375 -237.253906 47.132812 -235.722656 47.25 -235.015625 C 47.363281 -234.304688 47.421875 -232.65625 47.421875 -230.0625 L 47.421875 -227.578125 C 47.421875 -225.929688 47.421875 -224.335938 47.421875 -222.796875 C 47.421875 -221.265625 47.539062 -219.675781 47.78125 -218.03125 C 48.019531 -217.550781 48.140625 -216.84375 48.140625 -215.90625 C 48.140625 -214.25 48.195312 -212.59375 48.3125 -210.9375 C 48.425781 -209.289062 48.601562 -207.640625 48.84375 -205.984375 C 49.082031 -203.628906 49.316406 -201.332031 49.546875 -199.09375 C 49.785156 -196.851562 49.90625 -194.429688 49.90625 -191.828125 C 49.90625 -191.359375 49.960938 -190.828125 50.078125 -190.234375 C 50.203125 -189.648438 50.265625 -189.125 50.265625 -188.65625 C 50.265625 -188.414062 50.320312 -188.117188 50.4375 -187.765625 C 50.550781 -187.410156 50.609375 -187 50.609375 -186.53125 L 51.671875 -168.46875 C 51.910156 -167.289062 52.03125 -166.050781 52.03125 -164.75 C 52.03125 -163.457031 52.03125 -162.101562 52.03125 -160.6875 C 52.257812 -160.445312 52.375 -159.859375 52.375 -158.921875 C 52.144531 -157.734375 52.03125 -156.488281 52.03125 -155.1875 C 52.03125 -153.894531 52.144531 -152.660156 52.375 -151.484375 L 52.375 -128.125 C 52.144531 -126.707031 52.144531 -125.289062 52.375 -123.875 L 52.375 -121.75 C 52.144531 -119.863281 52.03125 -117.914062 52.03125 -115.90625 C 52.03125 -113.90625 51.910156 -111.84375 51.671875 -109.71875 C 51.671875 -108.070312 51.671875 -106.363281 51.671875 -104.59375 C 51.671875 -102.820312 51.554688 -100.992188 51.328125 -99.109375 C 51.085938 -98.160156 50.96875 -97.09375 50.96875 -95.90625 C 50.96875 -94.726562 50.96875 -93.550781 50.96875 -92.375 C 50.96875 -91.4375 50.90625 -90.316406 50.78125 -89.015625 C 50.664062 -87.710938 50.492188 -86.472656 50.265625 -85.296875 L 50.265625 -84.234375 C 50.023438 -81.878906 49.84375 -79.519531 49.71875 -77.15625 C 49.601562 -74.800781 49.429688 -72.320312 49.203125 -69.71875 C 48.960938 -68.539062 48.84375 -67.242188 48.84375 -65.828125 C 48.84375 -64.410156 48.722656 -62.992188 48.484375 -61.578125 C 48.253906 -60.640625 48.140625 -59.460938 48.140625 -58.046875 C 48.140625 -56.867188 48.140625 -55.6875 48.140625 -54.5 C 48.140625 -53.320312 48.019531 -52.144531 47.78125 -50.96875 C 47.539062 -48.375 47.421875 -45.835938 47.421875 -43.359375 C 47.421875 -40.878906 47.421875 -38.34375 47.421875 -35.75 L 47.421875 -35.390625 C 47.898438 -34.210938 48.492188 -33.625 49.203125 -33.625 L 56.28125 -32.5625 C 61.9375 -31.851562 67.476562 -31.5 72.90625 -31.5 C 74.320312 -31.5 75.503906 -31.617188 76.453125 -31.859375 C 77.628906 -32.085938 78.925781 -32.203125 80.34375 -32.203125 C 81.757812 -32.203125 83.054688 -32.320312 84.234375 -32.5625 L 94.140625 -32.5625 C 95.796875 -32.5625 97.445312 -32.738281 99.09375 -33.09375 C 100.75 -33.445312 102.40625 -33.742188 104.0625 -33.984375 L 105.828125 -33.984375 C 108.421875 -33.984375 111.015625 -34.160156 113.609375 -34.515625 C 116.203125 -34.867188 118.800781 -35.046875 121.40625 -35.046875 L 133.078125 -35.046875 C 136.378906 -35.046875 139.210938 -35.75 141.578125 -37.15625 C 143.460938 -37.863281 145.289062 -38.335938 147.0625 -38.578125 C 148.832031 -38.816406 150.660156 -39.050781 152.546875 -39.28125 C 155.378906 -39.28125 157.859375 -38.570312 159.984375 -37.15625 C 164.703125 -34.332031 167.769531 -30.441406 169.1875 -25.484375 C 169.65625 -23.828125 169.945312 -22.054688 170.0625 -20.171875 C 170.1875 -18.285156 170.128906 -16.398438 169.890625 -14.515625 C 169.648438 -12.390625 169.175781 -10.441406 168.46875 -8.671875 C 167.757812 -6.898438 166.816406 -5.070312 165.640625 -3.1875 L 162.453125 1.421875 C 161.035156 4.015625 159.972656 6.609375 159.265625 9.203125 C 159.035156 11.328125 158.679688 13.390625 158.203125 15.390625 C 157.734375 17.398438 157.5 19.46875 157.5 21.59375 C 157.5 22.53125 157.4375 23.472656 157.3125 24.421875 C 157.195312 25.367188 157.140625 26.3125 157.140625 27.25 C 156.910156 28.195312 156.796875 29.023438 156.796875 29.734375 C 156.796875 30.441406 156.796875 31.265625 156.796875 32.203125 C 156.796875 34.097656 156.207031 36.222656 155.03125 38.578125 C 153.613281 40.941406 151.488281 42.003906 148.65625 41.765625 Z M 148.65625 41.765625 "/></g></g></g><g fill="#000000" fill-opacity="1"><g transform="translate(1799.400347, 762.593766)"><g><path d="M 148.65625 41.765625 C 146.289062 41.523438 144.519531 40.109375 143.34375 37.515625 C 143.101562 37.273438 142.984375 36.6875 142.984375 35.75 C 142.753906 33.863281 142.460938 31.972656 142.109375 30.078125 C 141.753906 28.191406 141.691406 26.304688 141.921875 24.421875 L 141.921875 22.65625 C 141.691406 20.53125 141.578125 18.40625 141.578125 16.28125 C 141.578125 14.15625 141.457031 12.148438 141.21875 10.265625 C 140.75 6.253906 139.332031 3.1875 136.96875 1.0625 L 133.78125 -2.125 C 132.601562 -3.539062 131.070312 -4.015625 129.1875 -3.546875 C 127.769531 -3.304688 126.410156 -3.1875 125.109375 -3.1875 C 123.816406 -3.1875 122.460938 -3.304688 121.046875 -3.546875 C 120.097656 -3.546875 119.09375 -3.484375 118.03125 -3.359375 C 116.976562 -3.242188 115.859375 -3.1875 114.671875 -3.1875 C 113.734375 -3.1875 112.734375 -3.242188 111.671875 -3.359375 C 110.609375 -3.484375 109.601562 -3.425781 108.65625 -3.1875 C 107.71875 -2.945312 106.832031 -2.828125 106 -2.828125 C 105.175781 -2.828125 104.410156 -2.828125 103.703125 -2.828125 L 91.671875 -2.828125 C 89.078125 -2.828125 86.363281 -2.472656 83.53125 -1.765625 L 75.03125 0.359375 C 72.195312 1.296875 69.367188 2.003906 66.546875 2.484375 C 65.597656 2.710938 64.648438 2.945312 63.703125 3.1875 C 62.765625 3.425781 61.820312 3.78125 60.875 4.25 C 57.332031 5.894531 53.910156 6.835938 50.609375 7.078125 C 48.484375 7.546875 46.953125 8.488281 46.015625 9.90625 L 44.234375 12.03125 C 43.765625 12.269531 43.296875 12.566406 42.828125 12.921875 C 42.359375 13.273438 41.882812 13.6875 41.40625 14.15625 C 39.757812 15.101562 37.992188 15.101562 36.109375 14.15625 C 33.984375 12.976562 32.679688 11.679688 32.203125 10.265625 C 32.203125 10.023438 32.144531 9.847656 32.03125 9.734375 C 31.914062 9.617188 31.859375 9.441406 31.859375 9.203125 C 30.203125 5.191406 27.488281 1.648438 23.71875 -1.421875 C 22.769531 -2.128906 21.941406 -2.953125 21.234375 -3.890625 C 20.992188 -4.597656 20.640625 -5.242188 20.171875 -5.828125 C 19.703125 -6.421875 19.234375 -6.957031 18.765625 -7.4375 L 16.640625 -10.625 C 15.691406 -12.269531 15.335938 -14.15625 15.578125 -16.28125 C 15.804688 -17.457031 15.976562 -18.691406 16.09375 -19.984375 C 16.21875 -21.285156 16.398438 -22.53125 16.640625 -23.71875 L 16.640625 -25.84375 C 16.640625 -28.4375 16.640625 -31.085938 16.640625 -33.796875 C 16.640625 -36.515625 16.753906 -39.050781 16.984375 -41.40625 L 16.984375 -44.953125 C 17.460938 -45.890625 17.640625 -46.769531 17.515625 -47.59375 C 17.398438 -48.425781 17.34375 -49.316406 17.34375 -50.265625 C 17.582031 -53.328125 17.640625 -56.332031 17.515625 -59.28125 C 17.398438 -62.226562 17.460938 -65.238281 17.703125 -68.3125 L 18.765625 -84.234375 C 18.992188 -86.828125 19.164062 -89.300781 19.28125 -91.65625 C 19.40625 -94.019531 19.46875 -96.382812 19.46875 -98.75 L 19.46875 -99.8125 C 19.9375 -102.644531 20.171875 -105.472656 20.171875 -108.296875 C 20.171875 -111.128906 20.171875 -114.082031 20.171875 -117.15625 L 20.171875 -141.578125 C 19.941406 -144.171875 19.765625 -146.765625 19.640625 -149.359375 C 19.523438 -151.953125 19.46875 -154.546875 19.46875 -157.140625 C 19.46875 -159.972656 19.347656 -162.863281 19.109375 -165.8125 C 18.878906 -168.769531 18.523438 -171.78125 18.046875 -174.84375 C 17.816406 -176.726562 17.523438 -178.734375 17.171875 -180.859375 C 16.816406 -182.984375 16.640625 -185.109375 16.640625 -187.234375 C 16.640625 -187.703125 16.578125 -188.171875 16.453125 -188.640625 C 16.335938 -189.117188 16.28125 -189.59375 16.28125 -190.0625 C 14.863281 -196.4375 14.15625 -202.925781 14.15625 -209.53125 L 14.15625 -224.390625 C 14.15625 -226.046875 14.210938 -227.640625 14.328125 -229.171875 C 14.453125 -230.703125 14.628906 -232.296875 14.859375 -233.953125 C 15.335938 -236.785156 16.285156 -238.910156 17.703125 -240.328125 L 19.46875 -242.453125 C 20.882812 -244.335938 22.535156 -245.691406 24.421875 -246.515625 C 26.304688 -247.335938 28.3125 -247.867188 30.4375 -248.109375 L 32.921875 -248.109375 C 36.453125 -248.109375 39.28125 -246.8125 41.40625 -244.21875 C 41.882812 -243.976562 42.238281 -243.738281 42.46875 -243.5 C 42.707031 -243.269531 42.945312 -243.035156 43.1875 -242.796875 C 44.363281 -241.859375 45.066406 -240.796875 45.296875 -239.609375 C 46.484375 -237.253906 47.132812 -235.722656 47.25 -235.015625 C 47.363281 -234.304688 47.421875 -232.65625 47.421875 -230.0625 L 47.421875 -227.578125 C 47.421875 -225.929688 47.421875 -224.335938 47.421875 -222.796875 C 47.421875 -221.265625 47.539062 -219.675781 47.78125 -218.03125 C 48.019531 -217.550781 48.140625 -216.84375 48.140625 -215.90625 C 48.140625 -214.25 48.195312 -212.59375 48.3125 -210.9375 C 48.425781 -209.289062 48.601562 -207.640625 48.84375 -205.984375 C 49.082031 -203.628906 49.316406 -201.332031 49.546875 -199.09375 C 49.785156 -196.851562 49.90625 -194.429688 49.90625 -191.828125 C 49.90625 -191.359375 49.960938 -190.828125 50.078125 -190.234375 C 50.203125 -189.648438 50.265625 -189.125 50.265625 -188.65625 C 50.265625 -188.414062 50.320312 -188.117188 50.4375 -187.765625 C 50.550781 -187.410156 50.609375 -187 50.609375 -186.53125 L 51.671875 -168.46875 C 51.910156 -167.289062 52.03125 -166.050781 52.03125 -164.75 C 52.03125 -163.457031 52.03125 -162.101562 52.03125 -160.6875 C 52.257812 -160.445312 52.375 -159.859375 52.375 -158.921875 C 52.144531 -157.734375 52.03125 -156.488281 52.03125 -155.1875 C 52.03125 -153.894531 52.144531 -152.660156 52.375 -151.484375 L 52.375 -128.125 C 52.144531 -126.707031 52.144531 -125.289062 52.375 -123.875 L 52.375 -121.75 C 52.144531 -119.863281 52.03125 -117.914062 52.03125 -115.90625 C 52.03125 -113.90625 51.910156 -111.84375 51.671875 -109.71875 C 51.671875 -108.070312 51.671875 -106.363281 51.671875 -104.59375 C 51.671875 -102.820312 51.554688 -100.992188 51.328125 -99.109375 C 51.085938 -98.160156 50.96875 -97.09375 50.96875 -95.90625 C 50.96875 -94.726562 50.96875 -93.550781 50.96875 -92.375 C 50.96875 -91.4375 50.90625 -90.316406 50.78125 -89.015625 C 50.664062 -87.710938 50.492188 -86.472656 50.265625 -85.296875 L 50.265625 -84.234375 C 50.023438 -81.878906 49.84375 -79.519531 49.71875 -77.15625 C 49.601562 -74.800781 49.429688 -72.320312 49.203125 -69.71875 C 48.960938 -68.539062 48.84375 -67.242188 48.84375 -65.828125 C 48.84375 -64.410156 48.722656 -62.992188 48.484375 -61.578125 C 48.253906 -60.640625 48.140625 -59.460938 48.140625 -58.046875 C 48.140625 -56.867188 48.140625 -55.6875 48.140625 -54.5 C 48.140625 -53.320312 48.019531 -52.144531 47.78125 -50.96875 C 47.539062 -48.375 47.421875 -45.835938 47.421875 -43.359375 C 47.421875 -40.878906 47.421875 -38.34375 47.421875 -35.75 L 47.421875 -35.390625 C 47.898438 -34.210938 48.492188 -33.625 49.203125 -33.625 L 56.28125 -32.5625 C 61.9375 -31.851562 67.476562 -31.5 72.90625 -31.5 C 74.320312 -31.5 75.503906 -31.617188 76.453125 -31.859375 C 77.628906 -32.085938 78.925781 -32.203125 80.34375 -32.203125 C 81.757812 -32.203125 83.054688 -32.320312 84.234375 -32.5625 L 94.140625 -32.5625 C 95.796875 -32.5625 97.445312 -32.738281 99.09375 -33.09375 C 100.75 -33.445312 102.40625 -33.742188 104.0625 -33.984375 L 105.828125 -33.984375 C 108.421875 -33.984375 111.015625 -34.160156 113.609375 -34.515625 C 116.203125 -34.867188 118.800781 -35.046875 121.40625 -35.046875 L 133.078125 -35.046875 C 136.378906 -35.046875 139.210938 -35.75 141.578125 -37.15625 C 143.460938 -37.863281 145.289062 -38.335938 147.0625 -38.578125 C 148.832031 -38.816406 150.660156 -39.050781 152.546875 -39.28125 C 155.378906 -39.28125 157.859375 -38.570312 159.984375 -37.15625 C 164.703125 -34.332031 167.769531 -30.441406 169.1875 -25.484375 C 169.65625 -23.828125 169.945312 -22.054688 170.0625 -20.171875 C 170.1875 -18.285156 170.128906 -16.398438 169.890625 -14.515625 C 169.648438 -12.390625 169.175781 -10.441406 168.46875 -8.671875 C 167.757812 -6.898438 166.816406 -5.070312 165.640625 -3.1875 L 162.453125 1.421875 C 161.035156 4.015625 159.972656 6.609375 159.265625 9.203125 C 159.035156 11.328125 158.679688 13.390625 158.203125 15.390625 C 157.734375 17.398438 157.5 19.46875 157.5 21.59375 C 157.5 22.53125 157.4375 23.472656 157.3125 24.421875 C 157.195312 25.367188 157.140625 26.3125 157.140625 27.25 C 156.910156 28.195312 156.796875 29.023438 156.796875 29.734375 C 156.796875 30.441406 156.796875 31.265625 156.796875 32.203125 C 156.796875 34.097656 156.207031 36.222656 155.03125 38.578125 C 153.613281 40.941406 151.488281 42.003906 148.65625 41.765625 Z M 148.65625 41.765625 "/></g></g></g><g fill="#000000" fill-opacity="1"><g transform="translate(1983.805192, 762.593766)"><g><path d="M 100.515625 37.15625 L 98.046875 36.109375 C 96.859375 35.398438 96.265625 34.453125 96.265625 33.265625 C 96.035156 31.140625 95.445312 29.070312 94.5 27.0625 C 93.550781 25.0625 92.488281 23.238281 91.3125 21.59375 C 89.425781 18.519531 88.128906 15.21875 87.421875 11.6875 C 87.421875 10.976562 87.359375 10.207031 87.234375 9.375 C 87.117188 8.550781 87.0625 7.785156 87.0625 7.078125 C 87.300781 3.066406 87.125 -1 86.53125 -5.125 C 85.945312 -9.257812 85.414062 -13.332031 84.9375 -17.34375 C 84.707031 -19 84.472656 -20.59375 84.234375 -22.125 C 84.003906 -23.65625 83.769531 -25.25 83.53125 -26.90625 C 83.289062 -27.613281 83.171875 -28.257812 83.171875 -28.84375 C 83.171875 -29.4375 83.054688 -29.96875 82.828125 -30.4375 C 82.347656 -32.800781 81.988281 -35.101562 81.75 -37.34375 C 81.519531 -39.582031 81.171875 -41.878906 80.703125 -44.234375 C 80.460938 -45.648438 80.222656 -47.066406 79.984375 -48.484375 C 79.753906 -49.898438 79.398438 -51.316406 78.921875 -52.734375 C 78.691406 -54.617188 78.335938 -56.503906 77.859375 -58.390625 C 77.390625 -60.285156 76.921875 -62.175781 76.453125 -64.0625 C 76.210938 -65.71875 75.859375 -67.3125 75.390625 -68.84375 C 74.921875 -70.375 74.566406 -71.96875 74.328125 -73.625 C 74.085938 -74.332031 73.910156 -75.035156 73.796875 -75.734375 C 73.679688 -76.441406 73.382812 -77.148438 72.90625 -77.859375 L 71.84375 -80.34375 C 71.375 -82.46875 70.785156 -84.648438 70.078125 -86.890625 C 69.367188 -89.128906 68.78125 -91.3125 68.3125 -93.4375 C 67.84375 -94.851562 67.253906 -96.269531 66.546875 -97.6875 C 65.835938 -99.101562 65.242188 -100.519531 64.765625 -101.9375 L 62.640625 -107.25 C 62.171875 -108.894531 61.695312 -110.601562 61.21875 -112.375 C 60.75 -114.144531 60.28125 -115.851562 59.8125 -117.5 L 58.75 -123.53125 C 58.519531 -124.707031 58.285156 -126.003906 58.046875 -127.421875 C 57.804688 -128.835938 57.570312 -130.132812 57.34375 -131.3125 C 57.34375 -132.488281 57.28125 -133.488281 57.15625 -134.3125 C 57.039062 -135.144531 56.984375 -136.03125 56.984375 -136.96875 C 56.742188 -138.625 56.625 -140.21875 56.625 -141.75 C 56.625 -143.28125 56.507812 -144.875 56.28125 -146.53125 L 56.28125 -149 C 56.75 -150.65625 57.039062 -152.191406 57.15625 -153.609375 C 57.28125 -155.023438 57.457031 -156.441406 57.6875 -157.859375 C 58.164062 -159.035156 58.164062 -160.097656 57.6875 -161.046875 L 55.5625 -165.640625 C 55.332031 -166.109375 55.15625 -166.460938 55.03125 -166.703125 C 54.914062 -166.941406 54.738281 -167.175781 54.5 -167.40625 C 53.320312 -168.59375 52.257812 -169.953125 51.3125 -171.484375 C 50.375 -173.015625 49.316406 -174.488281 48.140625 -175.90625 L 47.421875 -176.96875 C 46.710938 -178.382812 45.945312 -179.859375 45.125 -181.390625 C 44.300781 -182.921875 43.300781 -184.160156 42.125 -185.109375 L 36.8125 -192.546875 C 35.863281 -193.960938 34.914062 -195.375 33.96875 -196.78125 C 33.03125 -198.195312 31.972656 -199.613281 30.796875 -201.03125 C 29.609375 -202.925781 28.363281 -204.753906 27.0625 -206.515625 C 25.769531 -208.285156 24.300781 -210 22.65625 -211.65625 C 19.113281 -215.90625 16.28125 -220.742188 14.15625 -226.171875 L 12.03125 -232.53125 C 10.613281 -236.539062 10.257812 -240.789062 10.96875 -245.28125 C 10.96875 -245.75 11.023438 -246.21875 11.140625 -246.6875 C 11.265625 -247.164062 11.328125 -247.640625 11.328125 -248.109375 C 12.035156 -253.535156 14.867188 -258.019531 19.828125 -261.5625 C 20.765625 -262.269531 21.707031 -262.738281 22.65625 -262.96875 C 23.125 -263.207031 23.648438 -263.328125 24.234375 -263.328125 C 24.828125 -263.328125 25.363281 -263.445312 25.84375 -263.6875 C 27.257812 -264.15625 28.554688 -264.390625 29.734375 -264.390625 C 30.203125 -264.390625 30.726562 -264.269531 31.3125 -264.03125 C 31.90625 -263.800781 32.441406 -263.566406 32.921875 -263.328125 C 33.859375 -263.085938 34.859375 -262.96875 35.921875 -262.96875 C 36.984375 -262.96875 37.988281 -262.5 38.9375 -261.5625 C 40.113281 -260.382812 41.171875 -259.144531 42.109375 -257.84375 C 43.054688 -256.539062 43.882812 -255.066406 44.59375 -253.421875 C 45.0625 -252.242188 45.890625 -251.535156 47.078125 -251.296875 C 47.785156 -251.054688 48.375 -250.46875 48.84375 -249.53125 C 48.84375 -249.289062 48.898438 -248.992188 49.015625 -248.640625 C 49.140625 -248.285156 49.203125 -247.988281 49.203125 -247.75 C 49.429688 -245.632812 50.375 -243.628906 52.03125 -241.734375 C 52.257812 -241.265625 52.613281 -240.796875 53.09375 -240.328125 C 54.976562 -237.960938 56.863281 -235.597656 58.75 -233.234375 C 60.632812 -230.878906 62.523438 -228.523438 64.421875 -226.171875 C 64.890625 -225.460938 65.414062 -224.8125 66 -224.21875 C 66.59375 -223.625 67.007812 -222.972656 67.25 -222.265625 C 70.082031 -217.785156 72.910156 -213.421875 75.734375 -209.171875 C 78.566406 -204.929688 81.285156 -200.6875 83.890625 -196.4375 L 86.71875 -192.1875 C 86.945312 -191.945312 87.117188 -191.828125 87.234375 -191.828125 C 87.359375 -191.828125 87.539062 -191.710938 87.78125 -191.484375 C 88.25 -191.003906 88.835938 -191.003906 89.546875 -191.484375 L 93.078125 -195.015625 C 94.265625 -196.429688 95.503906 -197.847656 96.796875 -199.265625 C 98.097656 -200.679688 99.457031 -201.976562 100.875 -203.15625 C 104.175781 -206.457031 107.300781 -209.816406 110.25 -213.234375 C 113.195312 -216.660156 116.207031 -220.023438 119.28125 -223.328125 C 120.457031 -224.742188 121.753906 -226.160156 123.171875 -227.578125 C 124.585938 -228.992188 125.882812 -230.289062 127.0625 -231.46875 L 132.015625 -236.78125 C 133.898438 -239.144531 135.785156 -241.445312 137.671875 -243.6875 C 139.566406 -245.925781 141.457031 -248.226562 143.34375 -250.59375 C 144.757812 -252.476562 146.113281 -254.242188 147.40625 -255.890625 C 148.707031 -257.546875 150.1875 -259.203125 151.84375 -260.859375 C 155.613281 -265.097656 159.742188 -268.398438 164.234375 -270.765625 C 165.878906 -271.703125 167.410156 -272.703125 168.828125 -273.765625 C 170.242188 -274.828125 171.660156 -275.832031 173.078125 -276.78125 C 174.960938 -278.195312 177.441406 -279.140625 180.515625 -279.609375 C 185.941406 -280.078125 190.1875 -278.304688 193.25 -274.296875 C 194.195312 -273.359375 195.023438 -272.296875 195.734375 -271.109375 C 196.441406 -269.929688 196.910156 -268.632812 197.140625 -267.21875 C 198.085938 -265.570312 198.320312 -263.453125 197.84375 -260.859375 C 197.84375 -258.734375 197.253906 -256.722656 196.078125 -254.828125 C 194.660156 -251.765625 192.65625 -248.695312 190.0625 -245.625 L 187.59375 -242.09375 C 187.113281 -241.144531 186.519531 -240.257812 185.8125 -239.4375 C 185.101562 -238.613281 184.515625 -237.847656 184.046875 -237.140625 C 183.578125 -236.429688 182.867188 -235.601562 181.921875 -234.65625 C 180.984375 -233.007812 179.863281 -231.65625 178.5625 -230.59375 C 177.257812 -229.53125 175.898438 -228.410156 174.484375 -227.234375 C 173.546875 -226.523438 172.660156 -225.816406 171.828125 -225.109375 C 171.003906 -224.398438 170.125 -223.691406 169.1875 -222.984375 L 164.9375 -220.5 C 163.28125 -219.789062 161.742188 -218.726562 160.328125 -217.3125 C 159.617188 -216.601562 159.03125 -216.132812 158.5625 -215.90625 C 156.914062 -214.71875 155.320312 -213.359375 153.78125 -211.828125 C 152.25 -210.296875 150.773438 -208.820312 149.359375 -207.40625 C 148.421875 -206.457031 147.535156 -205.628906 146.703125 -204.921875 C 145.878906 -204.222656 144.992188 -203.519531 144.046875 -202.8125 C 143.109375 -202.101562 142.164062 -201.332031 141.21875 -200.5 C 140.28125 -199.675781 139.335938 -198.910156 138.390625 -198.203125 L 133.78125 -193.953125 C 133.550781 -193.722656 133.316406 -193.546875 133.078125 -193.421875 C 132.835938 -193.304688 132.601562 -193.128906 132.375 -192.890625 C 130.007812 -190.066406 127.175781 -187.59375 123.875 -185.46875 C 123.164062 -184.757812 122.8125 -184.40625 122.8125 -184.40625 C 122.582031 -183.457031 122.171875 -182.742188 121.578125 -182.265625 C 120.984375 -181.796875 120.332031 -181.328125 119.625 -180.859375 C 119.394531 -180.628906 119.160156 -180.394531 118.921875 -180.15625 C 118.679688 -179.914062 118.328125 -179.679688 117.859375 -179.453125 C 116.921875 -177.796875 115.742188 -176.257812 114.328125 -174.84375 C 112.910156 -173.425781 111.492188 -172.128906 110.078125 -170.953125 C 109.367188 -170.484375 108.71875 -169.894531 108.125 -169.1875 C 107.539062 -168.476562 107.007812 -167.769531 106.53125 -167.0625 C 106.0625 -166.582031 105.945312 -165.753906 106.1875 -164.578125 C 106.414062 -163.867188 106.648438 -163.101562 106.890625 -162.28125 C 107.128906 -161.457031 107.363281 -160.691406 107.59375 -159.984375 C 108.300781 -157.617188 108.300781 -155.140625 107.59375 -152.546875 C 107.59375 -152.304688 107.535156 -152.007812 107.421875 -151.65625 C 107.304688 -151.300781 107.25 -150.890625 107.25 -150.421875 C 107.007812 -149.953125 106.65625 -149.476562 106.1875 -149 C 105.707031 -148.53125 105.46875 -147.941406 105.46875 -147.234375 C 105.238281 -146.765625 105.125 -146.054688 105.125 -145.109375 C 105.125 -143.929688 104.414062 -143.109375 103 -142.640625 C 102.519531 -142.640625 102.046875 -142.285156 101.578125 -141.578125 C 101.335938 -141.335938 101.21875 -141.097656 101.21875 -140.859375 C 101.21875 -140.628906 100.984375 -140.394531 100.515625 -140.15625 C 99.097656 -139.445312 98.628906 -138.382812 99.109375 -136.96875 C 99.109375 -136.03125 99.164062 -134.96875 99.28125 -133.78125 C 99.394531 -132.601562 99.453125 -131.425781 99.453125 -130.25 C 99.691406 -128.363281 99.925781 -126.472656 100.15625 -124.578125 C 100.394531 -122.691406 100.632812 -120.804688 100.875 -118.921875 L 101.9375 -112.203125 C 102.644531 -109.128906 103.289062 -106 103.875 -102.8125 C 104.46875 -99.632812 105 -96.390625 105.46875 -93.078125 L 108.65625 -76.453125 C 109.125 -74.328125 109.59375 -72.203125 110.0625 -70.078125 C 110.539062 -67.953125 110.898438 -65.828125 111.140625 -63.703125 C 111.367188 -61.816406 111.660156 -59.867188 112.015625 -57.859375 C 112.367188 -55.859375 112.664062 -53.914062 112.90625 -52.03125 C 113.144531 -50.613281 113.265625 -49.253906 113.265625 -47.953125 C 113.265625 -46.660156 113.265625 -45.304688 113.265625 -43.890625 C 113.492188 -43.648438 113.609375 -43.296875 113.609375 -42.828125 C 113.609375 -42.359375 113.726562 -41.882812 113.96875 -41.40625 C 114.675781 -39.28125 115.03125 -37.160156 115.03125 -35.046875 C 115.03125 -34.097656 115.085938 -33.207031 115.203125 -32.375 C 115.328125 -31.550781 115.390625 -30.785156 115.390625 -30.078125 C 115.617188 -29.367188 115.789062 -28.660156 115.90625 -27.953125 C 116.03125 -27.253906 116.210938 -26.550781 116.453125 -25.84375 L 116.453125 -24.78125 C 116.679688 -23.125 116.910156 -21.585938 117.140625 -20.171875 C 117.378906 -18.753906 117.617188 -17.222656 117.859375 -15.578125 L 117.859375 -14.15625 C 117.617188 -12.269531 117.617188 -10.320312 117.859375 -8.3125 C 118.097656 -6.3125 118.332031 -4.367188 118.5625 -2.484375 C 118.5625 -1.296875 118.738281 -0.171875 119.09375 0.890625 C 119.445312 1.953125 119.742188 3.070312 119.984375 4.25 C 119.984375 5.1875 119.863281 5.894531 119.625 6.375 C 118.6875 7.3125 117.976562 8.726562 117.5 10.625 C 117.5 10.851562 117.441406 11.085938 117.328125 11.328125 C 117.210938 11.566406 117.15625 11.6875 117.15625 11.6875 C 116.445312 12.625 116.09375 13.679688 116.09375 14.859375 C 115.625 17.460938 114.679688 19.46875 113.265625 20.875 C 110.898438 23.238281 109.71875 26.425781 109.71875 30.4375 L 109.015625 33.265625 C 108.546875 34.921875 107.363281 36.160156 105.46875 36.984375 C 103.582031 37.804688 101.929688 37.863281 100.515625 37.15625 Z M 100.515625 37.15625 "/></g></g></g></svg>