<svg xmlns="http://www.w3.org/2000/svg" xmlns:xlink="http://www.w3.org/1999/xlink" width="3508" zoomAndPan="magnify" viewBox="0 0 2631 3720.749967" height="4961" preserveAspectRatio="xMidYMid meet" version="1.0"><defs><g/><clipPath id="ab20656037"><path d="M 40.816406 3070.308594 L 1262.484375 3070.308594 L 1262.484375 3514 L 40.816406 3514 Z M 40.816406 3070.308594 " clip-rule="nonzero"/></clipPath></defs><g clip-path="url(#ab20656037)"><path fill="#000000" d="M 257.097656 3235.976562 L 257.097656 3070.695312 L 41.167969 3070.695312 L 41.167969 3235.976562 Z M 244.195312 3223.082031 L 206.796875 3223.082031 C 222.417969 3215.488281 235.375 3204.96875 244.195312 3192.460938 Z M 149.132812 3223.082031 C 96.714844 3223.082031 54.070312 3191.792969 54.070312 3153.335938 C 54.070312 3114.878906 96.714844 3083.589844 149.132812 3083.589844 C 201.554688 3083.589844 244.195312 3114.878906 244.195312 3153.335938 C 244.195312 3191.792969 201.554688 3223.082031 149.132812 3223.082031 Z M 244.195312 3083.589844 L 244.195312 3114.210938 C 235.375 3101.703125 222.417969 3091.183594 206.796875 3083.589844 C 206.796875 3083.589844 244.195312 3083.589844 244.195312 3083.589844 Z M 54.070312 3083.589844 L 91.472656 3083.589844 C 75.851562 3091.183594 62.894531 3101.703125 54.070312 3114.210938 Z M 54.070312 3223.082031 L 54.070312 3192.460938 C 62.894531 3204.96875 75.851562 3215.488281 91.472656 3223.082031 Z M 506.769531 3235.976562 L 506.769531 3070.695312 L 290.839844 3070.695312 L 290.839844 3235.976562 Z M 493.867188 3223.082031 L 456.464844 3223.082031 C 472.089844 3215.488281 485.046875 3204.96875 493.867188 3192.460938 Z M 398.804688 3223.082031 C 346.386719 3223.082031 303.742188 3191.792969 303.742188 3153.335938 C 303.742188 3114.878906 346.386719 3083.589844 398.804688 3083.589844 C 451.226562 3083.589844 493.867188 3114.878906 493.867188 3153.335938 C 493.867188 3191.792969 451.226562 3223.082031 398.804688 3223.082031 Z M 493.867188 3083.589844 L 493.867188 3114.210938 C 485.046875 3101.703125 472.089844 3091.183594 456.464844 3083.589844 C 456.464844 3083.589844 493.867188 3083.589844 493.867188 3083.589844 Z M 303.742188 3083.589844 L 341.144531 3083.589844 C 325.523438 3091.183594 312.5625 3101.703125 303.742188 3114.210938 Z M 303.742188 3223.082031 L 303.742188 3192.460938 C 312.5625 3204.96875 325.523438 3215.488281 341.144531 3223.082031 Z M 756.433594 3070.695312 L 540.503906 3070.695312 L 540.503906 3235.976562 L 756.433594 3235.976562 Z M 637.726562 3153.335938 L 553.40625 3216.625 L 553.40625 3090.046875 Z M 566.289062 3083.589844 L 730.648438 3083.589844 L 648.46875 3145.269531 Z M 648.46875 3161.398438 L 730.648438 3223.082031 L 566.289062 3223.082031 Z M 659.214844 3153.335938 L 743.53125 3090.046875 L 743.53125 3216.625 Z M 1011.769531 3235.976562 L 1011.769531 3070.695312 L 795.839844 3070.695312 L 795.839844 3235.976562 Z M 998.867188 3223.082031 L 961.464844 3223.082031 C 977.085938 3215.488281 990.042969 3204.96875 998.867188 3192.460938 Z M 903.808594 3223.082031 C 851.390625 3223.082031 808.742188 3191.792969 808.742188 3153.335938 C 808.742188 3114.878906 851.390625 3083.589844 903.808594 3083.589844 C 956.222656 3083.589844 998.867188 3114.878906 998.867188 3153.335938 C 998.867188 3191.792969 956.222656 3223.082031 903.808594 3223.082031 Z M 998.867188 3083.589844 L 998.867188 3114.210938 C 990.042969 3101.703125 977.085938 3091.183594 961.464844 3083.589844 C 961.464844 3083.589844 998.867188 3083.589844 998.867188 3083.589844 Z M 808.742188 3083.589844 L 846.144531 3083.589844 C 830.523438 3091.183594 817.5625 3101.703125 808.742188 3114.214844 Z M 808.742188 3223.082031 L 808.742188 3192.457031 C 817.5625 3204.96875 830.523438 3215.488281 846.144531 3223.082031 C 846.144531 3223.082031 808.742188 3223.082031 808.742188 3223.082031 Z M 1262.484375 3070.695312 L 1046.554688 3070.695312 L 1046.554688 3235.976562 L 1262.484375 3235.976562 C 1262.484375 3235.976562 1262.484375 3070.695312 1262.484375 3070.695312 Z M 1143.78125 3153.335938 L 1059.457031 3216.628906 L 1059.457031 3090.042969 Z M 1072.332031 3083.589844 L 1236.707031 3083.589844 L 1154.519531 3145.277344 Z M 1154.519531 3161.394531 L 1236.707031 3223.082031 L 1072.332031 3223.082031 Z M 1165.257812 3153.335938 L 1249.582031 3090.042969 L 1249.582031 3216.628906 Z M 1262.484375 3513.945312 L 1262.484375 3282.90625 L 40.816406 3282.90625 L 40.816406 3513.945312 Z M 85.089844 3459.613281 L 97.4375 3459.613281 L 97.4375 3453.167969 L 89.328125 3453.167969 L 97.175781 3441.234375 L 123.242188 3456.515625 L 123.242188 3459.613281 L 128.523438 3459.613281 L 174.21875 3486.402344 L 200.652344 3458.738281 L 200.652344 3459.613281 L 213.554688 3459.613281 L 213.554688 3453.167969 L 205.976562 3453.167969 L 337.085938 3315.960938 L 398.210938 3451.96875 L 432.886719 3401.628906 L 432.886719 3401.648438 L 445.789062 3401.648438 L 445.789062 3395.199219 L 437.316406 3395.199219 L 472.796875 3343.6875 L 473.035156 3343.6875 L 544.359375 3496.519531 L 585.824219 3415.996094 L 612.496094 3443.910156 L 676.953125 3401.648438 L 678.019531 3401.648438 L 678.019531 3400.945312 L 809.875 3314.484375 L 830.296875 3337.238281 L 819.941406 3337.238281 L 819.941406 3343.6875 L 832.84375 3343.6875 L 832.84375 3340.074219 L 849.695312 3358.847656 L 871.480469 3343.6875 L 871.546875 3343.6875 L 871.546875 3343.636719 L 875.359375 3340.984375 L 895.671875 3365.160156 L 938.734375 3395.199219 L 936.058594 3395.199219 L 936.058594 3401.648438 L 947.976562 3401.648438 L 967.078125 3414.96875 L 976.453125 3401.648438 L 987.664062 3401.648438 L 987.664062 3395.199219 L 980.988281 3395.199219 L 1000.605469 3367.328125 L 1032.492188 3385.214844 L 1072.257812 3453.46875 L 1126.234375 3484.417969 L 1136.78125 3459.613281 L 1142.488281 3459.613281 L 1142.488281 3453.167969 L 1139.519531 3453.167969 L 1196.300781 3319.609375 L 1219.867188 3395.199219 L 1206.996094 3395.199219 L 1206.996094 3401.648438 L 1219.898438 3401.648438 L 1219.898438 3395.296875 L 1254.882812 3507.5 L 53.601562 3507.5 Z M 1256.035156 3489.558594 L 1246.699219 3459.613281 L 1256.035156 3459.613281 Z M 1256.035156 3289.351562 L 1256.035156 3337.238281 L 1245.703125 3337.238281 L 1245.703125 3343.6875 L 1256.035156 3343.6875 L 1256.035156 3395.199219 L 1245.703125 3395.199219 L 1245.703125 3401.648438 L 1256.035156 3401.648438 L 1256.035156 3453.167969 L 1245.703125 3453.167969 L 1245.703125 3456.414062 L 1210.5625 3343.6875 L 1219.898438 3343.6875 L 1219.898438 3337.238281 L 1208.550781 3337.238281 L 1197.230469 3300.925781 L 1181.191406 3338.652344 L 1181.191406 3337.238281 L 1168.289062 3337.238281 L 1168.289062 3343.6875 L 1179.050781 3343.6875 L 1132.507812 3453.167969 L 1129.585938 3453.167969 L 1129.585938 3459.613281 L 1129.765625 3459.613281 L 1123.132812 3475.214844 L 1095.9375 3459.613281 L 1103.78125 3459.613281 L 1103.78125 3453.167969 L 1090.878906 3453.167969 L 1090.878906 3456.710938 L 1076.96875 3448.734375 L 1037.179688 3380.453125 L 998.691406 3358.851562 L 965.492188 3406.015625 L 900.332031 3360.691406 L 876.507812 3332.324219 L 869.445312 3337.238281 L 858.648438 3337.238281 L 858.648438 3343.6875 L 860.183594 3343.6875 L 850.691406 3350.296875 L 810.96875 3306.050781 L 755.433594 3342.46875 L 755.433594 3337.238281 L 742.53125 3337.238281 L 742.53125 3343.6875 L 753.578125 3343.6875 L 675.023438 3395.199219 L 665.121094 3395.199219 L 665.121094 3401.644531 L 665.195312 3401.644531 L 613.457031 3435.574219 L 584.238281 3404.988281 L 559.433594 3453.164062 L 549.003906 3453.164062 L 549.003906 3459.613281 L 556.113281 3459.613281 L 544.648438 3481.875 L 480.160156 3343.6875 L 484.492188 3343.6875 L 484.492188 3337.238281 L 477.148438 3337.238281 L 474.023438 3330.539062 L 399.398438 3438.875 L 356.617188 3343.6875 L 368.378906 3343.6875 L 368.378906 3337.238281 L 355.476562 3337.238281 L 355.476562 3341.148438 L 339.039062 3304.578125 L 252.261719 3395.394531 L 252.261719 3395.199219 L 239.359375 3395.199219 L 239.359375 3401.648438 L 246.289062 3401.648438 L 173.085938 3478.253906 L 136.144531 3456.601562 L 136.144531 3453.167969 L 130.28125 3453.167969 L 95.144531 3432.574219 L 47.269531 3505.390625 L 47.269531 3459.613281 L 58.734375 3459.613281 L 58.734375 3453.167969 L 47.269531 3453.167969 L 47.269531 3401.648438 L 58.734375 3401.648438 L 58.734375 3395.199219 L 47.269531 3395.199219 L 47.269531 3343.6875 L 58.734375 3343.6875 L 58.734375 3337.238281 L 47.269531 3337.238281 L 47.269531 3289.351562 Z M 1065.078125 3343.6875 L 1052.175781 3343.6875 L 1052.175781 3337.238281 L 1065.078125 3337.238281 C 1065.078125 3337.238281 1065.078125 3343.6875 1065.078125 3343.6875 Z M 290.964844 3343.6875 L 278.0625 3343.6875 L 278.0625 3337.238281 L 290.964844 3337.238281 Z M 174.851562 3343.6875 L 161.949219 3343.6875 L 161.949219 3337.238281 L 174.851562 3337.238281 Z M 407.082031 3343.6875 L 394.179688 3343.6875 L 394.179688 3337.238281 L 407.082031 3337.238281 Z M 252.261719 3343.6875 L 239.359375 3343.6875 L 239.359375 3337.238281 L 252.261719 3337.238281 Z M 1103.78125 3343.6875 L 1090.878906 3343.6875 L 1090.878906 3337.238281 L 1103.78125 3337.238281 Z M 213.554688 3343.6875 L 200.652344 3343.6875 L 200.652344 3337.238281 L 213.554688 3337.238281 Z M 445.789062 3343.6875 L 432.886719 3343.6875 L 432.886719 3337.238281 L 445.789062 3337.238281 Z M 716.726562 3343.6875 L 703.824219 3343.6875 L 703.824219 3337.238281 L 716.726562 3337.238281 Z M 678.019531 3343.6875 L 665.121094 3343.6875 L 665.121094 3337.238281 L 678.019531 3337.238281 Z M 523.199219 3343.6875 L 510.296875 3343.6875 L 510.296875 3337.238281 L 523.199219 3337.238281 Z M 910.253906 3343.6875 L 897.351562 3343.6875 L 897.351562 3337.238281 L 910.253906 3337.238281 Z M 639.316406 3343.6875 L 626.414062 3343.6875 L 626.414062 3337.238281 L 639.316406 3337.238281 Z M 1026.371094 3343.6875 L 1013.46875 3343.6875 L 1013.46875 3337.238281 L 1026.371094 3337.238281 Z M 561.90625 3343.6875 L 549.003906 3343.6875 L 549.003906 3337.238281 L 561.90625 3337.238281 Z M 987.664062 3343.6875 L 974.761719 3343.6875 L 974.761719 3337.238281 L 987.664062 3337.238281 Z M 600.609375 3343.6875 L 587.707031 3343.6875 L 587.707031 3337.238281 L 600.609375 3337.238281 Z M 136.144531 3343.6875 L 123.242188 3343.6875 L 123.242188 3337.238281 L 136.144531 3337.238281 Z M 97.4375 3343.6875 L 84.535156 3343.6875 L 84.535156 3337.238281 L 97.4375 3337.238281 C 97.4375 3337.238281 97.4375 3343.6875 97.4375 3343.6875 Z M 329.671875 3343.6875 L 316.769531 3343.6875 L 316.769531 3337.238281 L 329.671875 3337.238281 C 329.671875 3337.238281 329.671875 3343.6875 329.671875 3343.6875 Z M 794.136719 3343.6875 L 781.234375 3343.6875 L 781.234375 3337.238281 L 794.136719 3337.238281 Z M 948.960938 3343.6875 L 936.058594 3343.6875 L 936.058594 3337.238281 L 948.960938 3337.238281 Z M 1142.488281 3343.6875 L 1129.585938 3343.6875 L 1129.585938 3337.238281 L 1142.488281 3337.238281 Z M 832.84375 3401.648438 L 819.941406 3401.648438 L 819.941406 3395.199219 L 832.84375 3395.199219 C 832.84375 3395.199219 832.84375 3401.648438 832.84375 3401.648438 Z M 794.136719 3401.648438 L 781.234375 3401.648438 L 781.234375 3395.199219 L 794.136719 3395.199219 Z M 871.546875 3401.648438 L 858.648438 3401.648438 L 858.648438 3395.199219 L 871.546875 3395.199219 Z M 1026.371094 3401.648438 L 1013.46875 3401.648438 L 1013.46875 3395.199219 L 1026.371094 3395.199219 Z M 910.253906 3401.648438 L 897.351562 3401.648438 L 897.351562 3395.199219 L 910.253906 3395.199219 Z M 1181.191406 3401.648438 L 1168.292969 3401.648438 L 1168.292969 3395.199219 L 1181.191406 3395.199219 Z M 755.433594 3401.648438 L 742.53125 3401.648438 L 742.53125 3395.199219 L 755.433594 3395.199219 Z M 329.671875 3401.648438 L 316.769531 3401.648438 L 316.769531 3395.199219 L 329.671875 3395.199219 C 329.671875 3395.199219 329.671875 3401.648438 329.671875 3401.648438 Z M 1065.078125 3401.648438 L 1052.175781 3401.648438 L 1052.175781 3395.199219 L 1065.078125 3395.199219 C 1065.078125 3395.199219 1065.078125 3401.648438 1065.078125 3401.648438 Z M 290.964844 3401.648438 L 278.0625 3401.648438 L 278.0625 3395.199219 L 290.964844 3395.199219 Z M 1103.78125 3401.648438 L 1090.878906 3401.648438 L 1090.878906 3395.199219 L 1103.78125 3395.199219 Z M 368.378906 3401.648438 L 355.476562 3401.648438 L 355.476562 3395.199219 L 368.378906 3395.199219 Z M 716.726562 3401.648438 L 703.824219 3401.648438 L 703.824219 3395.199219 L 716.726562 3395.199219 Z M 484.492188 3401.648438 L 471.59375 3401.648438 L 471.59375 3395.199219 L 484.492188 3395.199219 Z M 1142.488281 3401.648438 L 1129.585938 3401.648438 L 1129.585938 3395.199219 L 1142.488281 3395.199219 Z M 97.4375 3401.648438 L 84.535156 3401.648438 L 84.535156 3395.199219 L 97.4375 3395.199219 C 97.4375 3395.199219 97.4375 3401.648438 97.4375 3401.648438 Z M 136.144531 3401.648438 L 123.242188 3401.648438 L 123.242188 3395.199219 L 136.144531 3395.199219 Z M 639.316406 3401.648438 L 626.414062 3401.648438 L 626.414062 3395.199219 L 639.316406 3395.199219 Z M 174.851562 3401.648438 L 161.949219 3401.648438 L 161.949219 3395.199219 L 174.851562 3395.199219 Z M 213.554688 3401.648438 L 200.652344 3401.648438 L 200.652344 3395.199219 L 213.554688 3395.199219 Z M 523.199219 3401.648438 L 510.296875 3401.648438 L 510.296875 3395.199219 L 523.199219 3395.199219 Z M 600.609375 3401.648438 L 587.707031 3401.648438 L 587.707031 3395.199219 L 600.609375 3395.199219 Z M 561.90625 3401.648438 L 549.003906 3401.648438 L 549.003906 3395.199219 L 561.90625 3395.199219 Z M 407.082031 3401.648438 L 394.179688 3401.648438 L 394.179688 3395.199219 L 407.082031 3395.199219 Z M 600.609375 3459.613281 L 587.707031 3459.613281 L 587.707031 3453.167969 L 600.609375 3453.167969 Z M 1026.371094 3459.613281 L 1013.46875 3459.613281 L 1013.46875 3453.167969 L 1026.371094 3453.167969 Z M 716.726562 3459.613281 L 703.824219 3459.613281 L 703.824219 3453.167969 L 716.726562 3453.167969 Z M 639.316406 3459.613281 L 626.414062 3459.613281 L 626.414062 3453.167969 L 639.316406 3453.167969 Z M 523.199219 3459.613281 L 510.296875 3459.613281 L 510.296875 3453.167969 L 523.199219 3453.167969 Z M 678.019531 3459.613281 L 665.121094 3459.613281 L 665.121094 3453.167969 L 678.019531 3453.167969 Z M 794.136719 3459.613281 L 781.234375 3459.613281 L 781.234375 3453.167969 L 794.136719 3453.167969 Z M 910.253906 3459.613281 L 897.351562 3459.613281 L 897.351562 3453.167969 L 910.253906 3453.167969 Z M 755.433594 3459.613281 L 742.53125 3459.613281 L 742.53125 3453.167969 L 755.433594 3453.167969 Z M 871.546875 3459.613281 L 858.648438 3459.613281 L 858.648438 3453.167969 L 871.546875 3453.167969 Z M 832.84375 3459.613281 L 819.941406 3459.613281 L 819.941406 3453.167969 L 832.84375 3453.167969 C 832.84375 3453.167969 832.84375 3459.613281 832.84375 3459.613281 Z M 948.960938 3459.613281 L 936.058594 3459.613281 L 936.058594 3453.167969 L 948.960938 3453.167969 Z M 987.664062 3459.613281 L 974.761719 3459.613281 L 974.761719 3453.167969 L 987.664062 3453.167969 Z M 252.261719 3459.613281 L 239.359375 3459.613281 L 239.359375 3453.167969 L 252.261719 3453.167969 Z M 290.964844 3459.613281 L 278.0625 3459.613281 L 278.0625 3453.167969 L 290.964844 3453.167969 Z M 1219.898438 3459.613281 L 1206.996094 3459.613281 L 1206.996094 3453.167969 L 1219.898438 3453.167969 Z M 174.851562 3459.613281 L 161.949219 3459.613281 L 161.949219 3453.167969 L 174.851562 3453.167969 Z M 329.671875 3459.613281 L 316.769531 3459.613281 L 316.769531 3453.167969 L 329.671875 3453.167969 C 329.671875 3453.167969 329.671875 3459.613281 329.671875 3459.613281 Z M 368.378906 3459.613281 L 355.476562 3459.613281 L 355.476562 3453.167969 L 368.378906 3453.167969 Z M 407.082031 3459.613281 L 394.179688 3459.613281 L 394.179688 3453.167969 L 407.082031 3453.167969 Z M 445.789062 3459.613281 L 432.886719 3459.613281 L 432.886719 3453.167969 L 445.789062 3453.167969 Z M 1065.078125 3459.613281 L 1052.175781 3459.613281 L 1052.175781 3453.167969 L 1065.078125 3453.167969 C 1065.078125 3453.167969 1065.078125 3459.613281 1065.078125 3459.613281 Z M 484.492188 3459.613281 L 471.59375 3459.613281 L 471.59375 3453.167969 L 484.492188 3453.167969 Z M 1181.191406 3459.613281 L 1168.292969 3459.613281 L 1168.292969 3453.167969 L 1181.191406 3453.167969 Z M 1181.191406 3459.613281 " fill-opacity="1" fill-rule="nonzero"/></g><g fill="#000000" fill-opacity="1"><g transform="translate(210.508858, 350.028685)"><g><path d="M 156.140625 -262.734375 C 200.671875 -262.734375 235.070312 -251.347656 259.34375 -228.578125 C 283.625 -205.804688 295.765625 -172.648438 295.765625 -129.109375 C 295.765625 -85.578125 283.625 -52.425781 259.34375 -29.65625 C 235.070312 -6.882812 200.671875 4.5 156.140625 4.5 C 111.597656 4.5 77.253906 -6.820312 53.109375 -29.46875 C 28.960938 -52.113281 16.890625 -85.328125 16.890625 -129.109375 C 16.890625 -172.898438 28.960938 -206.117188 53.109375 -228.765625 C 77.253906 -251.410156 111.597656 -262.734375 156.140625 -262.734375 Z M 156.140625 -200.796875 C 138.367188 -200.796875 124.851562 -195.414062 115.59375 -184.65625 C 106.34375 -173.894531 101.71875 -159.382812 101.71875 -141.125 L 101.71875 -117.109375 C 101.71875 -98.835938 106.34375 -84.320312 115.59375 -73.5625 C 124.851562 -62.800781 138.367188 -57.421875 156.140625 -57.421875 C 173.898438 -57.421875 187.472656 -62.800781 196.859375 -73.5625 C 206.242188 -84.320312 210.9375 -98.835938 210.9375 -117.109375 L 210.9375 -141.125 C 210.9375 -159.382812 206.242188 -173.894531 196.859375 -184.65625 C 187.472656 -195.414062 173.898438 -200.796875 156.140625 -200.796875 Z M 156.140625 -200.796875 "/></g></g></g><g fill="#000000" fill-opacity="1"><g transform="translate(523.162167, 350.028685)"><g><path d="M 212.4375 0 L 103.96875 -125.359375 L 103.96875 0 L 27.78125 0 L 27.78125 -258.21875 L 100.21875 -258.21875 L 208.6875 -130.984375 L 208.6875 -258.21875 L 284.875 -258.21875 L 284.875 0 Z M 212.4375 0 "/></g></g></g><g fill="#000000" fill-opacity="1"><g transform="translate(835.815477, 350.028685)"><g><path d="M 27.78125 -258.21875 L 110.71875 -258.21875 L 110.71875 -66.0625 L 243.21875 -66.0625 L 243.21875 0 L 27.78125 0 Z M 27.78125 -258.21875 "/></g></g></g><g fill="#000000" fill-opacity="1"><g transform="translate(1086.163328, 350.028685)"><g><path d="M 188.046875 0 L 105.09375 0 L 105.09375 -100.21875 L 2.625 -258.21875 L 97.953125 -258.21875 L 147.5 -172.28125 L 149 -172.28125 L 198.546875 -258.21875 L 289 -258.21875 L 188.046875 -100.21875 Z M 188.046875 0 "/></g></g></g><g fill="#000000" fill-opacity="1"><g transform="translate(1378.173293, 350.028685)"><g/></g></g><g fill="#000000" fill-opacity="1"><g transform="translate(1503.159548, 350.028685)"><g><path d="M 188.046875 0 L 105.09375 0 L 105.09375 -100.21875 L 2.625 -258.21875 L 97.953125 -258.21875 L 147.5 -172.28125 L 149 -172.28125 L 198.546875 -258.21875 L 289 -258.21875 L 188.046875 -100.21875 Z M 188.046875 0 "/></g></g></g><g fill="#000000" fill-opacity="1"><g transform="translate(1795.169513, 350.028685)"><g><path d="M 156.140625 -262.734375 C 200.671875 -262.734375 235.070312 -251.347656 259.34375 -228.578125 C 283.625 -205.804688 295.765625 -172.648438 295.765625 -129.109375 C 295.765625 -85.578125 283.625 -52.425781 259.34375 -29.65625 C 235.070312 -6.882812 200.671875 4.5 156.140625 4.5 C 111.597656 4.5 77.253906 -6.820312 53.109375 -29.46875 C 28.960938 -52.113281 16.890625 -85.328125 16.890625 -129.109375 C 16.890625 -172.898438 28.960938 -206.117188 53.109375 -228.765625 C 77.253906 -251.410156 111.597656 -262.734375 156.140625 -262.734375 Z M 156.140625 -200.796875 C 138.367188 -200.796875 124.851562 -195.414062 115.59375 -184.65625 C 106.34375 -173.894531 101.71875 -159.382812 101.71875 -141.125 L 101.71875 -117.109375 C 101.71875 -98.835938 106.34375 -84.320312 115.59375 -73.5625 C 124.851562 -62.800781 138.367188 -57.421875 156.140625 -57.421875 C 173.898438 -57.421875 187.472656 -62.800781 196.859375 -73.5625 C 206.242188 -84.320312 210.9375 -98.835938 210.9375 -117.109375 L 210.9375 -141.125 C 210.9375 -159.382812 206.242188 -173.894531 196.859375 -184.65625 C 187.472656 -195.414062 173.898438 -200.796875 156.140625 -200.796875 Z M 156.140625 -200.796875 "/></g></g></g><g fill="#000000" fill-opacity="1"><g transform="translate(2107.822867, 350.028685)"><g><path d="M 284.875 -103.96875 C 284.875 -68.6875 273.738281 -41.785156 251.46875 -23.265625 C 229.195312 -4.753906 197.546875 4.5 156.515625 4.5 C 115.472656 4.5 83.753906 -4.753906 61.359375 -23.265625 C 38.972656 -41.785156 27.78125 -68.6875 27.78125 -103.96875 L 27.78125 -258.21875 L 110.71875 -258.21875 L 110.71875 -105.09375 C 110.71875 -90.582031 114.59375 -79.007812 122.34375 -70.375 C 130.101562 -61.738281 141.367188 -57.421875 156.140625 -57.421875 C 170.898438 -57.421875 182.21875 -61.800781 190.09375 -70.5625 C 197.976562 -79.320312 201.921875 -90.832031 201.921875 -105.09375 L 201.921875 -258.21875 L 284.875 -258.21875 Z M 284.875 -103.96875 "/></g></g></g><path stroke-linecap="butt" transform="matrix(0.74995, 0, 0, 0.74995, 23.607363, 265.948506)" fill="none" stroke-linejoin="miter" d="M 457.424063 165.689174 C 516.808264 165.689174 562.670723 180.882904 595.011439 211.265155 C 627.430286 241.569276 643.639709 285.759747 643.639709 343.836569 C 643.639709 401.918599 627.430286 446.15074 595.011439 476.532991 C 562.670723 506.837112 516.808264 521.989172 457.424063 521.989172 C 398.045071 521.989172 352.224282 506.915242 319.966904 476.777799 C 287.787657 446.557017 271.703243 402.241537 271.703243 343.836569 C 271.703243 285.4316 287.787657 241.15779 319.966904 211.020347 C 352.224282 180.799565 398.045071 165.689174 457.424063 165.689174 Z M 457.424063 248.288478 C 433.719344 248.288478 415.676465 255.455626 403.295424 269.789923 C 390.997722 284.129429 384.846267 303.47448 384.846267 327.830284 L 384.846267 359.842853 C 384.846267 384.198658 390.997722 403.548917 403.295424 417.883214 C 415.676465 432.217511 433.719344 439.389868 457.424063 439.389868 C 481.128782 439.389868 499.213331 432.217511 511.677711 417.883214 C 524.220221 403.548917 530.496685 384.198658 530.496685 359.842853 L 530.496685 327.830284 C 530.496685 303.47448 524.220221 284.129429 511.677711 269.789923 C 499.213331 255.455626 481.128782 248.288478 457.424063 248.288478 Z M 949.347764 515.999186 L 804.801586 348.847322 L 804.801586 515.999186 L 703.138501 515.999186 L 703.138501 171.673951 L 799.790833 171.673951 L 944.33701 341.273896 L 944.33701 171.673951 L 1046.000096 171.673951 L 1046.000096 515.999186 Z M 1120.041532 171.673951 L 1230.621884 171.673951 L 1230.621884 427.904721 L 1407.30043 427.904721 L 1407.30043 515.999186 L 1120.041532 515.999186 Z M 1667.562721 515.999186 L 1556.987578 515.999186 L 1556.987578 382.32874 L 1420.379434 171.673951 L 1547.455687 171.673951 L 1613.55909 286.285824 L 1615.512346 286.285824 L 1681.615749 171.673951 L 1802.217608 171.673951 L 1667.562721 382.32874 Z M 2223.600107 515.999186 L 2113.019755 515.999186 L 2113.019755 382.32874 L 1976.411612 171.673951 L 2103.487864 171.673951 L 2169.591267 286.285824 L 2171.544524 286.285824 L 2237.647926 171.673951 L 2358.249785 171.673951 L 2223.600107 382.32874 Z M 2570.451553 165.689174 C 2629.830546 165.689174 2675.693004 180.882904 2708.03372 211.265155 C 2740.452567 241.569276 2756.66199 285.759747 2756.66199 343.836569 C 2756.66199 401.918599 2740.452567 446.15074 2708.03372 476.532991 C 2675.693004 506.837112 2629.830546 521.989172 2570.451553 521.989172 C 2511.067352 521.989172 2465.246563 506.915242 2432.989186 476.777799 C 2400.809939 446.557017 2384.725524 402.241537 2384.725524 343.836569 C 2384.725524 285.4316 2400.809939 241.15779 2432.989186 211.020347 C 2465.246563 180.799565 2511.067352 165.689174 2570.451553 165.689174 Z M 2570.451553 248.288478 C 2546.746834 248.288478 2528.703954 255.455626 2516.317705 269.789923 C 2504.020003 284.129429 2497.868548 303.47448 2497.868548 327.830284 L 2497.868548 359.842853 C 2497.868548 384.198658 2504.020003 403.548917 2516.317705 417.883214 C 2528.703954 432.217511 2546.746834 439.389868 2570.451553 439.389868 C 2594.151063 439.389868 2612.235613 432.217511 2624.699992 417.883214 C 2637.242502 403.548917 2643.518966 384.198658 2643.518966 359.842853 L 2643.518966 327.830284 C 2643.518966 303.47448 2637.242502 284.129429 2624.699992 269.789923 C 2612.235613 255.455626 2594.151063 248.288478 2570.451553 248.288478 Z M 3159.022377 377.317987 C 3159.022377 424.399277 3144.156794 460.281898 3114.425628 484.965849 C 3084.772593 509.644592 3042.577047 521.989172 2987.838992 521.989172 C 2933.095728 521.989172 2890.780383 509.644592 2860.882539 484.965849 C 2831.068034 460.281898 2816.165991 424.399277 2816.165991 377.317987 L 2816.165991 171.673951 L 2926.741134 171.673951 L 2926.741134 375.849138 C 2926.741134 395.235858 2931.918565 410.674396 2942.263011 422.159543 C 2952.607456 433.64469 2967.634508 439.389868 2987.349376 439.389868 C 3007.059034 439.389868 3022.169425 433.56656 3032.680549 421.914735 C 3043.186463 410.268119 3048.442025 394.91292 3048.442025 375.849138 L 3048.442025 171.673951 L 3159.022377 171.673951 Z M 3159.022377 377.317987 " stroke="#000000" stroke-width="18.768225" stroke-opacity="1" stroke-miterlimit="4"/><path stroke-linecap="butt" transform="matrix(0.74995, 0, 0, 0.74995, 23.607363, 577.016989)" fill="none" stroke-linejoin="miter" d="M 457.424063 165.686405 C 516.808264 165.686405 562.670723 180.880135 595.011439 211.262386 C 627.430286 241.566507 643.639709 285.756979 643.639709 343.839009 C 643.639709 401.91583 627.430286 446.147971 595.011439 476.535431 C 562.670723 506.834343 516.808264 521.986404 457.424063 521.986404 C 398.045071 521.986404 352.224282 506.917682 319.966904 476.780239 C 287.787657 446.554248 271.703243 402.243977 271.703243 343.839009 C 271.703243 285.43404 287.787657 241.16023 319.966904 211.017578 C 352.224282 180.796796 398.045071 165.686405 457.424063 165.686405 Z M 457.424063 248.285709 C 433.719344 248.285709 415.676465 255.458066 403.295424 269.792363 C 390.997722 284.126661 384.846267 303.47692 384.846267 327.832724 L 384.846267 359.845293 C 384.846267 384.201098 390.997722 403.546148 403.295424 417.885654 C 415.676465 432.219951 433.719344 439.3871 457.424063 439.3871 C 481.128782 439.3871 499.213331 432.219951 511.677711 417.885654 C 524.220221 403.546148 530.496685 384.201098 530.496685 359.845293 L 530.496685 327.832724 C 530.496685 303.47692 524.220221 284.126661 511.677711 269.792363 C 499.213331 255.458066 481.128782 248.285709 457.424063 248.285709 Z M 949.347764 516.001626 L 804.801586 348.849762 L 804.801586 516.001626 L 703.138501 516.001626 L 703.138501 171.676391 L 799.790833 171.676391 L 944.33701 341.271128 L 944.33701 171.676391 L 1046.000096 171.676391 L 1046.000096 516.001626 Z M 1120.041532 171.676391 L 1230.621884 171.676391 L 1230.621884 427.901953 L 1407.30043 427.901953 L 1407.30043 516.001626 L 1120.041532 516.001626 Z M 1667.562721 516.001626 L 1556.987578 516.001626 L 1556.987578 382.325972 L 1420.379434 171.676391 L 1547.455687 171.676391 L 1613.55909 286.288264 L 1615.512346 286.288264 L 1681.615749 171.676391 L 1802.217608 171.676391 L 1667.562721 382.325972 Z M 2223.600107 516.001626 L 2113.019755 516.001626 L 2113.019755 382.325972 L 1976.411612 171.676391 L 2103.487864 171.676391 L 2169.591267 286.288264 L 2171.544524 286.288264 L 2237.647926 171.676391 L 2358.249785 171.676391 L 2223.600107 382.325972 Z M 2570.451553 165.686405 C 2629.830546 165.686405 2675.693004 180.880135 2708.03372 211.262386 C 2740.452567 241.566507 2756.66199 285.756979 2756.66199 343.839009 C 2756.66199 401.91583 2740.452567 446.147971 2708.03372 476.535431 C 2675.693004 506.834343 2629.830546 521.986404 2570.451553 521.986404 C 2511.067352 521.986404 2465.246563 506.917682 2432.989186 476.780239 C 2400.809939 446.554248 2384.725524 402.243977 2384.725524 343.839009 C 2384.725524 285.43404 2400.809939 241.16023 2432.989186 211.017578 C 2465.246563 180.796796 2511.067352 165.686405 2570.451553 165.686405 Z M 2570.451553 248.285709 C 2546.746834 248.285709 2528.703954 255.458066 2516.317705 269.792363 C 2504.020003 284.126661 2497.868548 303.47692 2497.868548 327.832724 L 2497.868548 359.845293 C 2497.868548 384.201098 2504.020003 403.546148 2516.317705 417.885654 C 2528.703954 432.219951 2546.746834 439.3871 2570.451553 439.3871 C 2594.151063 439.3871 2612.235613 432.219951 2624.699992 417.885654 C 2637.242502 403.546148 2643.518966 384.201098 2643.518966 359.845293 L 2643.518966 327.832724 C 2643.518966 303.47692 2637.242502 284.126661 2624.699992 269.792363 C 2612.235613 255.458066 2594.151063 248.285709 2570.451553 248.285709 Z M 3159.022377 377.315218 C 3159.022377 424.401717 3144.156794 460.284338 3114.425628 484.963081 C 3084.772593 509.647032 3042.577047 521.986404 2987.838992 521.986404 C 2933.095728 521.986404 2890.780383 509.647032 2860.882539 484.963081 C 2831.068034 460.284338 2816.165991 424.401717 2816.165991 377.315218 L 2816.165991 171.676391 L 2926.741134 171.676391 L 2926.741134 375.851578 C 2926.741134 395.238298 2931.918565 410.676836 2942.263011 422.161983 C 2952.607456 433.647131 2967.634508 439.3871 2987.349376 439.3871 C 3007.059034 439.3871 3022.169425 433.563792 3032.680549 421.917175 C 3043.186463 410.26535 3048.442025 394.910151 3048.442025 375.851578 L 3048.442025 171.676391 L 3159.022377 171.676391 Z M 3159.022377 377.315218 " stroke="#000000" stroke-width="18.768225" stroke-opacity="1" stroke-miterlimit="4"/></svg>