<svg xmlns="http://www.w3.org/2000/svg" xmlns:xlink="http://www.w3.org/1999/xlink" width="3508" zoomAndPan="magnify" viewBox="0 0 2631 3720.749967" height="4961" preserveAspectRatio="xMidYMid meet" version="1.0"><defs><g/><clipPath id="24e09aafe7"><path d="M 40.816406 3070.308594 L 1262.484375 3070.308594 L 1262.484375 3514 L 40.816406 3514 Z M 40.816406 3070.308594 " clip-rule="nonzero"/></clipPath></defs><g clip-path="url(#24e09aafe7)"><path fill="#000000" d="M 257.097656 3235.976562 L 257.097656 3070.695312 L 41.167969 3070.695312 L 41.167969 3235.976562 Z M 244.195312 3223.082031 L 206.796875 3223.082031 C 222.417969 3215.488281 235.375 3204.96875 244.195312 3192.460938 Z M 149.132812 3223.082031 C 96.714844 3223.082031 54.070312 3191.792969 54.070312 3153.335938 C 54.070312 3114.878906 96.714844 3083.589844 149.132812 3083.589844 C 201.554688 3083.589844 244.195312 3114.878906 244.195312 3153.335938 C 244.195312 3191.792969 201.554688 3223.082031 149.132812 3223.082031 Z M 244.195312 3083.589844 L 244.195312 3114.210938 C 235.375 3101.703125 222.417969 3091.183594 206.796875 3083.589844 C 206.796875 3083.589844 244.195312 3083.589844 244.195312 3083.589844 Z M 54.070312 3083.589844 L 91.472656 3083.589844 C 75.851562 3091.183594 62.894531 3101.703125 54.070312 3114.210938 Z M 54.070312 3223.082031 L 54.070312 3192.460938 C 62.894531 3204.96875 75.851562 3215.488281 91.472656 3223.082031 Z M 506.769531 3235.976562 L 506.769531 3070.695312 L 290.839844 3070.695312 L 290.839844 3235.976562 Z M 493.867188 3223.082031 L 456.464844 3223.082031 C 472.089844 3215.488281 485.046875 3204.96875 493.867188 3192.460938 Z M 398.804688 3223.082031 C 346.386719 3223.082031 303.742188 3191.792969 303.742188 3153.335938 C 303.742188 3114.878906 346.386719 3083.589844 398.804688 3083.589844 C 451.226562 3083.589844 493.867188 3114.878906 493.867188 3153.335938 C 493.867188 3191.792969 451.226562 3223.082031 398.804688 3223.082031 Z M 493.867188 3083.589844 L 493.867188 3114.210938 C 485.046875 3101.703125 472.089844 3091.183594 456.464844 3083.589844 C 456.464844 3083.589844 493.867188 3083.589844 493.867188 3083.589844 Z M 303.742188 3083.589844 L 341.144531 3083.589844 C 325.523438 3091.183594 312.5625 3101.703125 303.742188 3114.210938 Z M 303.742188 3223.082031 L 303.742188 3192.460938 C 312.5625 3204.96875 325.523438 3215.488281 341.144531 3223.082031 Z M 756.433594 3070.695312 L 540.503906 3070.695312 L 540.503906 3235.976562 L 756.433594 3235.976562 Z M 637.726562 3153.335938 L 553.40625 3216.625 L 553.40625 3090.046875 Z M 566.289062 3083.589844 L 730.648438 3083.589844 L 648.46875 3145.269531 Z M 648.46875 3161.398438 L 730.648438 3223.082031 L 566.289062 3223.082031 Z M 659.214844 3153.335938 L 743.53125 3090.046875 L 743.53125 3216.625 Z M 1011.769531 3235.976562 L 1011.769531 3070.695312 L 795.839844 3070.695312 L 795.839844 3235.976562 Z M 998.867188 3223.082031 L 961.464844 3223.082031 C 977.085938 3215.488281 990.042969 3204.96875 998.867188 3192.460938 Z M 903.808594 3223.082031 C 851.390625 3223.082031 808.742188 3191.792969 808.742188 3153.335938 C 808.742188 3114.878906 851.390625 3083.589844 903.808594 3083.589844 C 956.222656 3083.589844 998.867188 3114.878906 998.867188 3153.335938 C 998.867188 3191.792969 956.222656 3223.082031 903.808594 3223.082031 Z M 998.867188 3083.589844 L 998.867188 3114.210938 C 990.042969 3101.703125 977.085938 3091.183594 961.464844 3083.589844 C 961.464844 3083.589844 998.867188 3083.589844 998.867188 3083.589844 Z M 808.742188 3083.589844 L 846.144531 3083.589844 C 830.523438 3091.183594 817.5625 3101.703125 808.742188 3114.214844 Z M 808.742188 3223.082031 L 808.742188 3192.457031 C 817.5625 3204.96875 830.523438 3215.488281 846.144531 3223.082031 C 846.144531 3223.082031 808.742188 3223.082031 808.742188 3223.082031 Z M 1262.484375 3070.695312 L 1046.554688 3070.695312 L 1046.554688 3235.976562 L 1262.484375 3235.976562 C 1262.484375 3235.976562 1262.484375 3070.695312 1262.484375 3070.695312 Z M 1143.78125 3153.335938 L 1059.457031 3216.628906 L 1059.457031 3090.042969 Z M 1072.332031 3083.589844 L 1236.707031 3083.589844 L 1154.519531 3145.277344 Z M 1154.519531 3161.394531 L 1236.707031 3223.082031 L 1072.332031 3223.082031 Z M 1165.257812 3153.335938 L 1249.582031 3090.042969 L 1249.582031 3216.628906 Z M 1262.484375 3513.945312 L 1262.484375 3282.90625 L 40.816406 3282.90625 L 40.816406 3513.945312 Z M 85.089844 3459.613281 L 97.4375 3459.613281 L 97.4375 3453.167969 L 89.328125 3453.167969 L 97.175781 3441.234375 L 123.242188 3456.515625 L 123.242188 3459.613281 L 128.523438 3459.613281 L 174.21875 3486.402344 L 200.652344 3458.738281 L 200.652344 3459.613281 L 213.554688 3459.613281 L 213.554688 3453.167969 L 205.976562 3453.167969 L 337.085938 3315.960938 L 398.210938 3451.96875 L 432.886719 3401.628906 L 432.886719 3401.648438 L 445.789062 3401.648438 L 445.789062 3395.199219 L 437.316406 3395.199219 L 472.796875 3343.6875 L 473.035156 3343.6875 L 544.359375 3496.519531 L 585.824219 3415.996094 L 612.496094 3443.910156 L 676.953125 3401.648438 L 678.019531 3401.648438 L 678.019531 3400.945312 L 809.875 3314.484375 L 830.296875 3337.238281 L 819.941406 3337.238281 L 819.941406 3343.6875 L 832.84375 3343.6875 L 832.84375 3340.074219 L 849.695312 3358.847656 L 871.480469 3343.6875 L 871.546875 3343.6875 L 871.546875 3343.636719 L 875.359375 3340.984375 L 895.671875 3365.160156 L 938.734375 3395.199219 L 936.058594 3395.199219 L 936.058594 3401.648438 L 947.976562 3401.648438 L 967.078125 3414.96875 L 976.453125 3401.648438 L 987.664062 3401.648438 L 987.664062 3395.199219 L 980.988281 3395.199219 L 1000.605469 3367.328125 L 1032.492188 3385.214844 L 1072.257812 3453.46875 L 1126.234375 3484.417969 L 1136.78125 3459.613281 L 1142.488281 3459.613281 L 1142.488281 3453.167969 L 1139.519531 3453.167969 L 1196.300781 3319.609375 L 1219.867188 3395.199219 L 1206.996094 3395.199219 L 1206.996094 3401.648438 L 1219.898438 3401.648438 L 1219.898438 3395.296875 L 1254.882812 3507.5 L 53.601562 3507.5 Z M 1256.035156 3489.558594 L 1246.699219 3459.613281 L 1256.035156 3459.613281 Z M 1256.035156 3289.351562 L 1256.035156 3337.238281 L 1245.703125 3337.238281 L 1245.703125 3343.6875 L 1256.035156 3343.6875 L 1256.035156 3395.199219 L 1245.703125 3395.199219 L 1245.703125 3401.648438 L 1256.035156 3401.648438 L 1256.035156 3453.167969 L 1245.703125 3453.167969 L 1245.703125 3456.414062 L 1210.5625 3343.6875 L 1219.898438 3343.6875 L 1219.898438 3337.238281 L 1208.550781 3337.238281 L 1197.230469 3300.925781 L 1181.191406 3338.652344 L 1181.191406 3337.238281 L 1168.289062 3337.238281 L 1168.289062 3343.6875 L 1179.050781 3343.6875 L 1132.507812 3453.167969 L 1129.585938 3453.167969 L 1129.585938 3459.613281 L 1129.765625 3459.613281 L 1123.132812 3475.214844 L 1095.9375 3459.613281 L 1103.78125 3459.613281 L 1103.78125 3453.167969 L 1090.878906 3453.167969 L 1090.878906 3456.710938 L 1076.96875 3448.734375 L 1037.179688 3380.453125 L 998.691406 3358.851562 L 965.492188 3406.015625 L 900.332031 3360.691406 L 876.507812 3332.324219 L 869.445312 3337.238281 L 858.648438 3337.238281 L 858.648438 3343.6875 L 860.183594 3343.6875 L 850.691406 3350.296875 L 810.96875 3306.050781 L 755.433594 3342.46875 L 755.433594 3337.238281 L 742.53125 3337.238281 L 742.53125 3343.6875 L 753.578125 3343.6875 L 675.023438 3395.199219 L 665.121094 3395.199219 L 665.121094 3401.644531 L 665.195312 3401.644531 L 613.457031 3435.574219 L 584.238281 3404.988281 L 559.433594 3453.164062 L 549.003906 3453.164062 L 549.003906 3459.613281 L 556.113281 3459.613281 L 544.648438 3481.875 L 480.160156 3343.6875 L 484.492188 3343.6875 L 484.492188 3337.238281 L 477.148438 3337.238281 L 474.023438 3330.539062 L 399.398438 3438.875 L 356.617188 3343.6875 L 368.378906 3343.6875 L 368.378906 3337.238281 L 355.476562 3337.238281 L 355.476562 3341.148438 L 339.039062 3304.578125 L 252.261719 3395.394531 L 252.261719 3395.199219 L 239.359375 3395.199219 L 239.359375 3401.648438 L 246.289062 3401.648438 L 173.085938 3478.253906 L 136.144531 3456.601562 L 136.144531 3453.167969 L 130.28125 3453.167969 L 95.144531 3432.574219 L 47.269531 3505.390625 L 47.269531 3459.613281 L 58.734375 3459.613281 L 58.734375 3453.167969 L 47.269531 3453.167969 L 47.269531 3401.648438 L 58.734375 3401.648438 L 58.734375 3395.199219 L 47.269531 3395.199219 L 47.269531 3343.6875 L 58.734375 3343.6875 L 58.734375 3337.238281 L 47.269531 3337.238281 L 47.269531 3289.351562 Z M 1065.078125 3343.6875 L 1052.175781 3343.6875 L 1052.175781 3337.238281 L 1065.078125 3337.238281 C 1065.078125 3337.238281 1065.078125 3343.6875 1065.078125 3343.6875 Z M 290.964844 3343.6875 L 278.0625 3343.6875 L 278.0625 3337.238281 L 290.964844 3337.238281 Z M 174.851562 3343.6875 L 161.949219 3343.6875 L 161.949219 3337.238281 L 174.851562 3337.238281 Z M 407.082031 3343.6875 L 394.179688 3343.6875 L 394.179688 3337.238281 L 407.082031 3337.238281 Z M 252.261719 3343.6875 L 239.359375 3343.6875 L 239.359375 3337.238281 L 252.261719 3337.238281 Z M 1103.78125 3343.6875 L 1090.878906 3343.6875 L 1090.878906 3337.238281 L 1103.78125 3337.238281 Z M 213.554688 3343.6875 L 200.652344 3343.6875 L 200.652344 3337.238281 L 213.554688 3337.238281 Z M 445.789062 3343.6875 L 432.886719 3343.6875 L 432.886719 3337.238281 L 445.789062 3337.238281 Z M 716.726562 3343.6875 L 703.824219 3343.6875 L 703.824219 3337.238281 L 716.726562 3337.238281 Z M 678.019531 3343.6875 L 665.121094 3343.6875 L 665.121094 3337.238281 L 678.019531 3337.238281 Z M 523.199219 3343.6875 L 510.296875 3343.6875 L 510.296875 3337.238281 L 523.199219 3337.238281 Z M 910.253906 3343.6875 L 897.351562 3343.6875 L 897.351562 3337.238281 L 910.253906 3337.238281 Z M 639.316406 3343.6875 L 626.414062 3343.6875 L 626.414062 3337.238281 L 639.316406 3337.238281 Z M 1026.371094 3343.6875 L 1013.46875 3343.6875 L 1013.46875 3337.238281 L 1026.371094 3337.238281 Z M 561.90625 3343.6875 L 549.003906 3343.6875 L 549.003906 3337.238281 L 561.90625 3337.238281 Z M 987.664062 3343.6875 L 974.761719 3343.6875 L 974.761719 3337.238281 L 987.664062 3337.238281 Z M 600.609375 3343.6875 L 587.707031 3343.6875 L 587.707031 3337.238281 L 600.609375 3337.238281 Z M 136.144531 3343.6875 L 123.242188 3343.6875 L 123.242188 3337.238281 L 136.144531 3337.238281 Z M 97.4375 3343.6875 L 84.535156 3343.6875 L 84.535156 3337.238281 L 97.4375 3337.238281 C 97.4375 3337.238281 97.4375 3343.6875 97.4375 3343.6875 Z M 329.671875 3343.6875 L 316.769531 3343.6875 L 316.769531 3337.238281 L 329.671875 3337.238281 C 329.671875 3337.238281 329.671875 3343.6875 329.671875 3343.6875 Z M 794.136719 3343.6875 L 781.234375 3343.6875 L 781.234375 3337.238281 L 794.136719 3337.238281 Z M 948.960938 3343.6875 L 936.058594 3343.6875 L 936.058594 3337.238281 L 948.960938 3337.238281 Z M 1142.488281 3343.6875 L 1129.585938 3343.6875 L 1129.585938 3337.238281 L 1142.488281 3337.238281 Z M 832.84375 3401.648438 L 819.941406 3401.648438 L 819.941406 3395.199219 L 832.84375 3395.199219 C 832.84375 3395.199219 832.84375 3401.648438 832.84375 3401.648438 Z M 794.136719 3401.648438 L 781.234375 3401.648438 L 781.234375 3395.199219 L 794.136719 3395.199219 Z M 871.546875 3401.648438 L 858.648438 3401.648438 L 858.648438 3395.199219 L 871.546875 3395.199219 Z M 1026.371094 3401.648438 L 1013.46875 3401.648438 L 1013.46875 3395.199219 L 1026.371094 3395.199219 Z M 910.253906 3401.648438 L 897.351562 3401.648438 L 897.351562 3395.199219 L 910.253906 3395.199219 Z M 1181.191406 3401.648438 L 1168.292969 3401.648438 L 1168.292969 3395.199219 L 1181.191406 3395.199219 Z M 755.433594 3401.648438 L 742.53125 3401.648438 L 742.53125 3395.199219 L 755.433594 3395.199219 Z M 329.671875 3401.648438 L 316.769531 3401.648438 L 316.769531 3395.199219 L 329.671875 3395.199219 C 329.671875 3395.199219 329.671875 3401.648438 329.671875 3401.648438 Z M 1065.078125 3401.648438 L 1052.175781 3401.648438 L 1052.175781 3395.199219 L 1065.078125 3395.199219 C 1065.078125 3395.199219 1065.078125 3401.648438 1065.078125 3401.648438 Z M 290.964844 3401.648438 L 278.0625 3401.648438 L 278.0625 3395.199219 L 290.964844 3395.199219 Z M 1103.78125 3401.648438 L 1090.878906 3401.648438 L 1090.878906 3395.199219 L 1103.78125 3395.199219 Z M 368.378906 3401.648438 L 355.476562 3401.648438 L 355.476562 3395.199219 L 368.378906 3395.199219 Z M 716.726562 3401.648438 L 703.824219 3401.648438 L 703.824219 3395.199219 L 716.726562 3395.199219 Z M 484.492188 3401.648438 L 471.59375 3401.648438 L 471.59375 3395.199219 L 484.492188 3395.199219 Z M 1142.488281 3401.648438 L 1129.585938 3401.648438 L 1129.585938 3395.199219 L 1142.488281 3395.199219 Z M 97.4375 3401.648438 L 84.535156 3401.648438 L 84.535156 3395.199219 L 97.4375 3395.199219 C 97.4375 3395.199219 97.4375 3401.648438 97.4375 3401.648438 Z M 136.144531 3401.648438 L 123.242188 3401.648438 L 123.242188 3395.199219 L 136.144531 3395.199219 Z M 639.316406 3401.648438 L 626.414062 3401.648438 L 626.414062 3395.199219 L 639.316406 3395.199219 Z M 174.851562 3401.648438 L 161.949219 3401.648438 L 161.949219 3395.199219 L 174.851562 3395.199219 Z M 213.554688 3401.648438 L 200.652344 3401.648438 L 200.652344 3395.199219 L 213.554688 3395.199219 Z M 523.199219 3401.648438 L 510.296875 3401.648438 L 510.296875 3395.199219 L 523.199219 3395.199219 Z M 600.609375 3401.648438 L 587.707031 3401.648438 L 587.707031 3395.199219 L 600.609375 3395.199219 Z M 561.90625 3401.648438 L 549.003906 3401.648438 L 549.003906 3395.199219 L 561.90625 3395.199219 Z M 407.082031 3401.648438 L 394.179688 3401.648438 L 394.179688 3395.199219 L 407.082031 3395.199219 Z M 600.609375 3459.613281 L 587.707031 3459.613281 L 587.707031 3453.167969 L 600.609375 3453.167969 Z M 1026.371094 3459.613281 L 1013.46875 3459.613281 L 1013.46875 3453.167969 L 1026.371094 3453.167969 Z M 716.726562 3459.613281 L 703.824219 3459.613281 L 703.824219 3453.167969 L 716.726562 3453.167969 Z M 639.316406 3459.613281 L 626.414062 3459.613281 L 626.414062 3453.167969 L 639.316406 3453.167969 Z M 523.199219 3459.613281 L 510.296875 3459.613281 L 510.296875 3453.167969 L 523.199219 3453.167969 Z M 678.019531 3459.613281 L 665.121094 3459.613281 L 665.121094 3453.167969 L 678.019531 3453.167969 Z M 794.136719 3459.613281 L 781.234375 3459.613281 L 781.234375 3453.167969 L 794.136719 3453.167969 Z M 910.253906 3459.613281 L 897.351562 3459.613281 L 897.351562 3453.167969 L 910.253906 3453.167969 Z M 755.433594 3459.613281 L 742.53125 3459.613281 L 742.53125 3453.167969 L 755.433594 3453.167969 Z M 871.546875 3459.613281 L 858.648438 3459.613281 L 858.648438 3453.167969 L 871.546875 3453.167969 Z M 832.84375 3459.613281 L 819.941406 3459.613281 L 819.941406 3453.167969 L 832.84375 3453.167969 C 832.84375 3453.167969 832.84375 3459.613281 832.84375 3459.613281 Z M 948.960938 3459.613281 L 936.058594 3459.613281 L 936.058594 3453.167969 L 948.960938 3453.167969 Z M 987.664062 3459.613281 L 974.761719 3459.613281 L 974.761719 3453.167969 L 987.664062 3453.167969 Z M 252.261719 3459.613281 L 239.359375 3459.613281 L 239.359375 3453.167969 L 252.261719 3453.167969 Z M 290.964844 3459.613281 L 278.0625 3459.613281 L 278.0625 3453.167969 L 290.964844 3453.167969 Z M 1219.898438 3459.613281 L 1206.996094 3459.613281 L 1206.996094 3453.167969 L 1219.898438 3453.167969 Z M 174.851562 3459.613281 L 161.949219 3459.613281 L 161.949219 3453.167969 L 174.851562 3453.167969 Z M 329.671875 3459.613281 L 316.769531 3459.613281 L 316.769531 3453.167969 L 329.671875 3453.167969 C 329.671875 3453.167969 329.671875 3459.613281 329.671875 3459.613281 Z M 368.378906 3459.613281 L 355.476562 3459.613281 L 355.476562 3453.167969 L 368.378906 3453.167969 Z M 407.082031 3459.613281 L 394.179688 3459.613281 L 394.179688 3453.167969 L 407.082031 3453.167969 Z M 445.789062 3459.613281 L 432.886719 3459.613281 L 432.886719 3453.167969 L 445.789062 3453.167969 Z M 1065.078125 3459.613281 L 1052.175781 3459.613281 L 1052.175781 3453.167969 L 1065.078125 3453.167969 C 1065.078125 3453.167969 1065.078125 3459.613281 1065.078125 3459.613281 Z M 484.492188 3459.613281 L 471.59375 3459.613281 L 471.59375 3453.167969 L 484.492188 3453.167969 Z M 1181.191406 3459.613281 L 1168.292969 3459.613281 L 1168.292969 3453.167969 L 1181.191406 3453.167969 Z M 1181.191406 3459.613281 " fill-opacity="1" fill-rule="nonzero"/></g><g fill="#000000" fill-opacity="1"><g transform="translate(85.138382, 350.028685)"><g><path d="M 199.671875 -258.21875 C 212.679688 -258.21875 224.628906 -255.53125 235.515625 -250.15625 C 246.398438 -244.78125 255.03125 -237.210938 261.40625 -227.453125 C 267.789062 -217.691406 270.984375 -206.804688 270.984375 -194.796875 C 270.984375 -163.015625 256.597656 -143 227.828125 -134.75 L 227.828125 -133.234375 C 260.597656 -125.734375 276.984375 -104.21875 276.984375 -68.6875 C 276.984375 -55.175781 273.664062 -43.226562 267.03125 -32.84375 C 260.40625 -22.457031 251.335938 -14.382812 239.828125 -8.625 C 228.316406 -2.875 215.679688 0 201.921875 0 L 27.78125 0 L 27.78125 -258.21875 Z M 110.71875 -157.640625 L 167.765625 -157.640625 C 173.273438 -157.640625 177.84375 -159.578125 181.46875 -163.453125 C 185.09375 -167.328125 186.90625 -172.144531 186.90625 -177.90625 L 186.90625 -181.65625 C 186.90625 -187.164062 185.03125 -191.859375 181.28125 -195.734375 C 177.53125 -199.609375 173.023438 -201.546875 167.765625 -201.546875 L 110.71875 -201.546875 Z M 110.71875 -60.046875 L 173.78125 -60.046875 C 179.28125 -60.046875 183.84375 -61.984375 187.46875 -65.859375 C 191.101562 -69.742188 192.921875 -74.5625 192.921875 -80.3125 L 192.921875 -84.078125 C 192.921875 -89.828125 191.101562 -94.640625 187.46875 -98.515625 C 183.84375 -102.398438 179.28125 -104.34375 173.78125 -104.34375 L 110.71875 -104.34375 Z M 110.71875 -60.046875 "/></g></g></g><g fill="#000000" fill-opacity="1"><g transform="translate(377.148347, 350.028685)"><g><path d="M 156.140625 -262.734375 C 200.671875 -262.734375 235.070312 -251.347656 259.34375 -228.578125 C 283.625 -205.804688 295.765625 -172.648438 295.765625 -129.109375 C 295.765625 -85.578125 283.625 -52.425781 259.34375 -29.65625 C 235.070312 -6.882812 200.671875 4.5 156.140625 4.5 C 111.597656 4.5 77.253906 -6.820312 53.109375 -29.46875 C 28.960938 -52.113281 16.890625 -85.328125 16.890625 -129.109375 C 16.890625 -172.898438 28.960938 -206.117188 53.109375 -228.765625 C 77.253906 -251.410156 111.597656 -262.734375 156.140625 -262.734375 Z M 156.140625 -200.796875 C 138.367188 -200.796875 124.851562 -195.414062 115.59375 -184.65625 C 106.34375 -173.894531 101.71875 -159.382812 101.71875 -141.125 L 101.71875 -117.109375 C 101.71875 -98.835938 106.34375 -84.320312 115.59375 -73.5625 C 124.851562 -62.800781 138.367188 -57.421875 156.140625 -57.421875 C 173.898438 -57.421875 187.472656 -62.800781 196.859375 -73.5625 C 206.242188 -84.320312 210.9375 -98.835938 210.9375 -117.109375 L 210.9375 -141.125 C 210.9375 -159.382812 206.242188 -173.894531 196.859375 -184.65625 C 187.472656 -195.414062 173.898438 -200.796875 156.140625 -200.796875 Z M 156.140625 -200.796875 "/></g></g></g><g fill="#000000" fill-opacity="1"><g transform="translate(689.801656, 350.028685)"><g><path d="M 188.046875 0 L 105.09375 0 L 105.09375 -100.21875 L 2.625 -258.21875 L 97.953125 -258.21875 L 147.5 -172.28125 L 149 -172.28125 L 198.546875 -258.21875 L 289 -258.21875 L 188.046875 -100.21875 Z M 188.046875 0 "/></g></g></g><g fill="#000000" fill-opacity="1"><g transform="translate(981.811666, 350.028685)"><g><path d="M 27.78125 -258.21875 L 236.453125 -258.21875 L 236.453125 -196.296875 L 110.71875 -196.296875 L 110.71875 -152.015625 L 218.8125 -152.015625 L 218.8125 -92.703125 L 110.71875 -92.703125 L 110.71875 0 L 27.78125 0 Z M 27.78125 -258.21875 "/></g></g></g><g fill="#000000" fill-opacity="1"><g transform="translate(1232.159517, 350.028685)"><g><path d="M 272.859375 -179.03125 C 272.859375 -163.269531 268.601562 -149.007812 260.09375 -136.25 C 251.59375 -123.488281 239.207031 -114.101562 222.9375 -108.09375 L 280.375 0 L 187.28125 0 L 141.5 -94.203125 L 110.71875 -94.203125 L 110.71875 0 L 27.78125 0 L 27.78125 -258.21875 L 185.78125 -258.21875 C 204.300781 -258.21875 220.128906 -254.648438 233.265625 -247.515625 C 246.398438 -240.390625 256.28125 -230.757812 262.90625 -218.625 C 269.539062 -206.488281 272.859375 -193.289062 272.859375 -179.03125 Z M 188.421875 -175.65625 C 188.421875 -182.40625 186.164062 -188.03125 181.65625 -192.53125 C 177.15625 -197.039062 171.648438 -199.296875 165.140625 -199.296875 L 110.71875 -199.296875 L 110.71875 -151.625 L 165.140625 -151.625 C 171.648438 -151.625 177.15625 -153.9375 181.65625 -158.5625 C 186.164062 -163.195312 188.421875 -168.894531 188.421875 -175.65625 Z M 188.421875 -175.65625 "/></g></g></g><g fill="#000000" fill-opacity="1"><g transform="translate(1524.169482, 350.028685)"><g><path d="M 31.53125 0 L 31.53125 -258.21875 L 114.46875 -258.21875 L 114.46875 0 Z M 31.53125 0 "/></g></g></g><g fill="#000000" fill-opacity="1"><g transform="translate(1670.174375, 350.028685)"><g><path d="M 27.78125 -258.21875 L 251.09375 -258.21875 L 251.09375 -196.296875 L 110.71875 -196.296875 L 110.71875 -160.640625 L 230.828125 -160.640625 L 230.828125 -101.34375 L 110.71875 -101.34375 L 110.71875 -61.921875 L 253.71875 -61.921875 L 253.71875 0 L 27.78125 0 Z M 27.78125 -258.21875 "/></g></g></g><g fill="#000000" fill-opacity="1"><g transform="translate(1941.165615, 350.028685)"><g><path d="M 212.4375 0 L 103.96875 -125.359375 L 103.96875 0 L 27.78125 0 L 27.78125 -258.21875 L 100.21875 -258.21875 L 208.6875 -130.984375 L 208.6875 -258.21875 L 284.875 -258.21875 L 284.875 0 Z M 212.4375 0 "/></g></g></g><g fill="#000000" fill-opacity="1"><g transform="translate(2253.81897, 350.028685)"><g><path d="M 139.625 -258.21875 C 229.945312 -258.21875 275.109375 -215.179688 275.109375 -129.109375 C 275.109375 -43.035156 229.945312 0 139.625 0 L 27.78125 0 L 27.78125 -258.21875 Z M 110.71875 -61.921875 L 138.125 -61.921875 C 172.90625 -61.921875 190.296875 -80.566406 190.296875 -117.859375 L 190.296875 -140.375 C 190.296875 -177.65625 172.90625 -196.296875 138.125 -196.296875 L 110.71875 -196.296875 Z M 110.71875 -61.921875 "/></g></g></g><path stroke-linecap="butt" transform="matrix(0.74995, 0, 0, 0.74995, 23.607363, 265.948506)" fill="none" stroke-linejoin="miter" d="M 348.291726 171.673951 C 365.64185 171.673951 381.570005 175.257526 396.07098 182.429883 C 410.566746 189.597031 422.051893 199.696669 430.526421 212.728795 C 439.07908 225.76613 443.355409 240.261896 443.355409 256.23172 C 443.355409 298.588735 424.171828 325.304073 385.804664 336.382943 L 385.804664 338.341408 C 429.547189 348.357706 451.418451 377.031509 451.418451 424.357608 C 451.418451 442.442157 446.980653 458.406772 438.099847 472.256662 C 429.302381 486.106551 417.207818 496.857274 401.810949 504.514039 C 386.497419 512.170804 369.67858 515.999186 351.349223 515.999186 L 119.06798 515.999186 L 119.06798 171.673951 Z M 229.648332 305.839222 L 305.773242 305.839222 C 313.10186 305.839222 319.169976 303.271341 323.977591 298.140788 C 328.863336 292.926896 331.311417 286.452502 331.311417 278.712398 L 331.311417 273.826653 C 331.311417 266.409488 328.785206 260.138233 323.732783 255.007679 C 318.763699 249.793787 312.778921 247.189445 305.773242 247.189445 L 229.648332 247.189445 Z M 229.648332 435.967763 L 313.716484 435.967763 C 321.128441 435.967763 327.238227 433.399882 332.040633 428.269329 C 336.848248 423.055437 339.249451 416.581043 339.249451 408.840939 L 339.249451 403.830186 C 339.249451 396.173421 336.848248 389.782366 332.040633 384.646604 C 327.238227 379.432712 321.128441 376.82837 313.716484 376.82837 L 229.648332 376.82837 Z M 679.626503 165.689174 C 739.010705 165.689174 784.873163 180.882904 817.208671 211.265155 C 849.632726 241.569276 865.842149 285.759747 865.842149 343.836569 C 865.842149 401.918599 849.632726 446.15074 817.208671 476.532991 C 784.873163 506.837112 739.010705 521.989172 679.626503 521.989172 C 620.242302 521.989172 574.421513 506.915242 542.164136 476.777799 C 509.990098 446.557017 493.900474 402.241537 493.900474 343.836569 C 493.900474 285.4316 509.990098 241.15779 542.164136 211.020347 C 574.421513 180.799565 620.242302 165.689174 679.626503 165.689174 Z M 679.626503 248.288478 C 655.921785 248.288478 637.878905 255.455626 625.497864 269.789923 C 613.200162 284.129429 607.048707 303.47448 607.048707 327.830284 L 607.048707 359.842853 C 607.048707 384.198658 613.200162 403.548917 625.497864 417.883214 C 637.878905 432.217511 655.921785 439.389868 679.626503 439.389868 C 703.331222 439.389868 721.415772 432.217511 733.880151 417.883214 C 746.422661 403.548917 752.693916 384.198658 752.693916 359.842853 L 752.693916 327.830284 C 752.693916 303.47448 746.422661 284.129429 733.880151 269.789923 C 721.415772 255.455626 703.331222 248.288478 679.626503 248.288478 Z M 1139.048018 515.999186 L 1028.467667 515.999186 L 1028.467667 382.32874 L 891.864732 171.673951 L 1018.935776 171.673951 L 1085.039179 286.285824 L 1086.997644 286.285824 L 1153.101047 171.673951 L 1273.697697 171.673951 L 1139.048018 382.32874 Z M 1314.71608 171.673951 L 1592.937912 171.673951 L 1592.937912 254.273255 L 1425.296432 254.273255 L 1425.296432 313.292848 L 1569.472792 313.292848 L 1569.472792 392.345039 L 1425.296432 392.345039 L 1425.296432 515.999186 L 1314.71608 515.999186 Z M 1975.385501 277.24355 C 1975.385501 298.260588 1969.681993 317.2827 1958.280184 334.304678 C 1946.956506 351.331864 1930.460606 363.837914 1908.792482 371.817617 L 1985.407008 515.999186 L 1861.263245 515.999186 L 1800.170595 390.391782 L 1759.115751 390.391782 L 1759.115751 515.999186 L 1648.5354 515.999186 L 1648.5354 171.673951 L 1859.309988 171.673951 C 1883.988731 171.673951 1905.089108 176.439897 1922.600702 185.971788 C 1940.112296 195.42034 1953.269431 208.249327 1962.066897 224.45875 C 1970.947703 240.673382 1975.385501 258.268315 1975.385501 277.24355 Z M 1862.726885 281.764687 C 1862.726885 272.722412 1859.716266 265.232325 1853.68461 259.284009 C 1847.741502 253.257562 1840.407676 250.241734 1831.693548 250.241734 L 1759.115751 250.241734 L 1759.115751 313.777256 L 1831.693548 313.777256 C 1840.407676 313.777256 1847.741502 310.724967 1853.68461 304.615182 C 1859.716266 298.427266 1862.726885 290.806961 1862.726885 281.764687 Z M 2042.916083 515.999186 L 2042.916083 171.673951 L 2153.496435 171.673951 L 2153.496435 515.999186 Z M 2232.595503 171.673951 L 2530.365525 171.673951 L 2530.365525 254.273255 L 2343.170646 254.273255 L 2343.170646 301.807701 L 2503.3585 301.807701 L 2503.3585 380.859891 L 2343.170646 380.859891 L 2343.170646 433.399882 L 2533.907429 433.399882 L 2533.907429 515.999186 L 2232.595503 515.999186 Z M 2840.14677 515.999186 L 2695.600593 348.847322 L 2695.600593 515.999186 L 2593.937507 515.999186 L 2593.937507 171.673951 L 2690.589839 171.673951 L 2835.136016 341.273896 L 2835.136016 171.673951 L 2936.799102 171.673951 L 2936.799102 515.999186 Z M 3160.027653 171.673951 C 3280.426373 171.673951 3340.623129 229.063227 3340.623129 343.836569 C 3340.623129 458.615119 3280.426373 515.999186 3160.027653 515.999186 L 3010.840538 515.999186 L 3010.840538 171.673951 Z M 3121.415681 433.399882 L 3157.949388 433.399882 C 3204.384802 433.399882 3227.599904 408.554462 3227.599904 358.868829 L 3227.599904 328.809517 C 3227.599904 279.118676 3204.384802 254.273255 3157.949388 254.273255 L 3121.415681 254.273255 Z M 3121.415681 433.399882 " stroke="#000000" stroke-width="18.768225" stroke-opacity="1" stroke-miterlimit="4"/><path stroke-linecap="butt" transform="matrix(0.74995, 0, 0, 0.74995, 23.607363, 577.016989)" fill="none" stroke-linejoin="miter" d="M 348.291726 171.676391 C 365.64185 171.676391 381.570005 175.259966 396.07098 182.427114 C 410.566746 189.594263 422.051893 199.699109 430.526421 212.731235 C 439.07908 225.763361 443.355409 240.264336 443.355409 256.228951 C 443.355409 298.585966 424.171828 325.306513 385.804664 336.385383 L 385.804664 338.338639 C 429.547189 348.360146 451.418451 377.033949 451.418451 424.360048 C 451.418451 442.444597 446.980653 458.409212 438.099847 472.259102 C 429.302381 486.103783 417.207818 496.859714 401.810949 504.516479 C 386.497419 512.173244 369.67858 516.001626 351.349223 516.001626 L 119.06798 516.001626 L 119.06798 171.676391 Z M 229.648332 305.836454 L 305.773242 305.836454 C 313.10186 305.836454 319.169976 303.273781 323.977591 298.138019 C 328.863336 292.924127 331.311417 286.449733 331.311417 278.70963 L 331.311417 273.823885 C 331.311417 266.411928 328.785206 260.140673 323.732783 255.004911 C 318.763699 249.796227 312.778921 247.186677 305.773242 247.186677 L 229.648332 247.186677 Z M 229.648332 435.964995 L 313.716484 435.964995 C 321.128441 435.964995 327.238227 433.402322 332.040633 428.271769 C 336.848248 423.057877 339.249451 416.578275 339.249451 408.843379 L 339.249451 403.832626 C 339.249451 396.175861 336.848248 389.779598 332.040633 384.649044 C 327.238227 379.435152 321.128441 376.83081 313.716484 376.83081 L 229.648332 376.83081 Z M 679.626503 165.686405 C 739.010705 165.686405 784.873163 180.880135 817.208671 211.262386 C 849.632726 241.566507 865.842149 285.756979 865.842149 343.839009 C 865.842149 401.91583 849.632726 446.147971 817.208671 476.535431 C 784.873163 506.834343 739.010705 521.986404 679.626503 521.986404 C 620.242302 521.986404 574.421513 506.917682 542.164136 476.780239 C 509.990098 446.554248 493.900474 402.243977 493.900474 343.839009 C 493.900474 285.43404 509.990098 241.16023 542.164136 211.017578 C 574.421513 180.796796 620.242302 165.686405 679.626503 165.686405 Z M 679.626503 248.285709 C 655.921785 248.285709 637.878905 255.458066 625.497864 269.792363 C 613.200162 284.126661 607.048707 303.47692 607.048707 327.832724 L 607.048707 359.845293 C 607.048707 384.201098 613.200162 403.546148 625.497864 417.885654 C 637.878905 432.219951 655.921785 439.3871 679.626503 439.3871 C 703.331222 439.3871 721.415772 432.219951 733.880151 417.885654 C 746.422661 403.546148 752.693916 384.201098 752.693916 359.845293 L 752.693916 327.832724 C 752.693916 303.47692 746.422661 284.126661 733.880151 269.792363 C 721.415772 255.458066 703.331222 248.285709 679.626503 248.285709 Z M 1139.048018 516.001626 L 1028.467667 516.001626 L 1028.467667 382.325972 L 891.864732 171.676391 L 1018.935776 171.676391 L 1085.039179 286.288264 L 1086.997644 286.288264 L 1153.101047 171.676391 L 1273.697697 171.676391 L 1139.048018 382.325972 Z M 1314.71608 171.676391 L 1592.937912 171.676391 L 1592.937912 254.275695 L 1425.296432 254.275695 L 1425.296432 313.29008 L 1569.472792 313.29008 L 1569.472792 392.347479 L 1425.296432 392.347479 L 1425.296432 516.001626 L 1314.71608 516.001626 Z M 1975.385501 277.24599 C 1975.385501 298.263028 1969.681993 317.279931 1958.280184 334.307118 C 1946.956506 351.334304 1930.460606 363.835145 1908.792482 371.820057 L 1985.407008 516.001626 L 1861.263245 516.001626 L 1800.170595 390.389014 L 1759.115751 390.389014 L 1759.115751 516.001626 L 1648.5354 516.001626 L 1648.5354 171.676391 L 1859.309988 171.676391 C 1883.988731 171.676391 1905.089108 176.442337 1922.600702 185.969019 C 1940.112296 195.42278 1953.269431 208.251767 1962.066897 224.461191 C 1970.947703 240.670614 1975.385501 258.265547 1975.385501 277.24599 Z M 1862.726885 281.767127 C 1862.726885 272.724852 1859.716266 265.229557 1853.68461 259.286449 C 1847.741502 253.254793 1840.407676 250.244174 1831.693548 250.244174 L 1759.115751 250.244174 L 1759.115751 313.779696 L 1831.693548 313.779696 C 1840.407676 313.779696 1847.741502 310.727407 1853.68461 304.617622 C 1859.716266 298.424497 1862.726885 290.809402 1862.726885 281.767127 Z M 2042.916083 516.001626 L 2042.916083 171.676391 L 2153.496435 171.676391 L 2153.496435 516.001626 Z M 2232.595503 171.676391 L 2530.365525 171.676391 L 2530.365525 254.275695 L 2343.170646 254.275695 L 2343.170646 301.804933 L 2503.3585 301.804933 L 2503.3585 380.862331 L 2343.170646 380.862331 L 2343.170646 433.402322 L 2533.907429 433.402322 L 2533.907429 516.001626 L 2232.595503 516.001626 Z M 2840.14677 516.001626 L 2695.600593 348.849762 L 2695.600593 516.001626 L 2593.937507 516.001626 L 2593.937507 171.676391 L 2690.589839 171.676391 L 2835.136016 341.271128 L 2835.136016 171.676391 L 2936.799102 171.676391 L 2936.799102 516.001626 Z M 3160.027653 171.676391 C 3280.426373 171.676391 3340.623129 229.060458 3340.623129 343.839009 C 3340.623129 458.612351 3280.426373 516.001626 3160.027653 516.001626 L 3010.840538 516.001626 L 3010.840538 171.676391 Z M 3121.415681 433.402322 L 3157.949388 433.402322 C 3204.384802 433.402322 3227.599904 408.556902 3227.599904 358.866061 L 3227.599904 328.806748 C 3227.599904 279.121116 3204.384802 254.275695 3157.949388 254.275695 L 3121.415681 254.275695 Z M 3121.415681 433.402322 " stroke="#000000" stroke-width="18.768225" stroke-opacity="1" stroke-miterlimit="4"/></svg>