<svg xmlns="http://www.w3.org/2000/svg" xmlns:xlink="http://www.w3.org/1999/xlink" width="3508" zoomAndPan="magnify" viewBox="0 0 2631 3720.749967" height="4961" preserveAspectRatio="xMidYMid meet" version="1.0"><defs><g/><clipPath id="8de1322f5e"><path d="M 40.816406 3070.308594 L 1262.484375 3070.308594 L 1262.484375 3514 L 40.816406 3514 Z M 40.816406 3070.308594 " clip-rule="nonzero"/></clipPath><clipPath id="ae475fb4f2"><path d="M 0.0898438 307 L 2630.910156 307 L 2630.910156 735 L 0.0898438 735 Z M 0.0898438 307 " clip-rule="nonzero"/></clipPath><clipPath id="b2e1c887ac"><path d="M 0.0898438 618 L 2630.910156 618 L 2630.910156 1046 L 0.0898438 1046 Z M 0.0898438 618 " clip-rule="nonzero"/></clipPath></defs><g clip-path="url(#8de1322f5e)"><path fill="#000000" d="M 257.097656 3235.976562 L 257.097656 3070.695312 L 41.167969 3070.695312 L 41.167969 3235.976562 Z M 244.195312 3223.082031 L 206.796875 3223.082031 C 222.417969 3215.488281 235.375 3204.96875 244.195312 3192.460938 Z M 149.132812 3223.082031 C 96.714844 3223.082031 54.070312 3191.792969 54.070312 3153.335938 C 54.070312 3114.878906 96.714844 3083.589844 149.132812 3083.589844 C 201.554688 3083.589844 244.195312 3114.878906 244.195312 3153.335938 C 244.195312 3191.792969 201.554688 3223.082031 149.132812 3223.082031 Z M 244.195312 3083.589844 L 244.195312 3114.210938 C 235.375 3101.703125 222.417969 3091.183594 206.796875 3083.589844 C 206.796875 3083.589844 244.195312 3083.589844 244.195312 3083.589844 Z M 54.070312 3083.589844 L 91.472656 3083.589844 C 75.851562 3091.183594 62.894531 3101.703125 54.070312 3114.210938 Z M 54.070312 3223.082031 L 54.070312 3192.460938 C 62.894531 3204.96875 75.851562 3215.488281 91.472656 3223.082031 Z M 506.769531 3235.976562 L 506.769531 3070.695312 L 290.839844 3070.695312 L 290.839844 3235.976562 Z M 493.867188 3223.082031 L 456.464844 3223.082031 C 472.089844 3215.488281 485.046875 3204.96875 493.867188 3192.460938 Z M 398.804688 3223.082031 C 346.386719 3223.082031 303.742188 3191.792969 303.742188 3153.335938 C 303.742188 3114.878906 346.386719 3083.589844 398.804688 3083.589844 C 451.226562 3083.589844 493.867188 3114.878906 493.867188 3153.335938 C 493.867188 3191.792969 451.226562 3223.082031 398.804688 3223.082031 Z M 493.867188 3083.589844 L 493.867188 3114.210938 C 485.046875 3101.703125 472.089844 3091.183594 456.464844 3083.589844 C 456.464844 3083.589844 493.867188 3083.589844 493.867188 3083.589844 Z M 303.742188 3083.589844 L 341.144531 3083.589844 C 325.523438 3091.183594 312.5625 3101.703125 303.742188 3114.210938 Z M 303.742188 3223.082031 L 303.742188 3192.460938 C 312.5625 3204.96875 325.523438 3215.488281 341.144531 3223.082031 Z M 756.433594 3070.695312 L 540.503906 3070.695312 L 540.503906 3235.976562 L 756.433594 3235.976562 Z M 637.726562 3153.335938 L 553.40625 3216.625 L 553.40625 3090.046875 Z M 566.289062 3083.589844 L 730.648438 3083.589844 L 648.46875 3145.269531 Z M 648.46875 3161.398438 L 730.648438 3223.082031 L 566.289062 3223.082031 Z M 659.214844 3153.335938 L 743.53125 3090.046875 L 743.53125 3216.625 Z M 1011.769531 3235.976562 L 1011.769531 3070.695312 L 795.839844 3070.695312 L 795.839844 3235.976562 Z M 998.867188 3223.082031 L 961.464844 3223.082031 C 977.085938 3215.488281 990.042969 3204.96875 998.867188 3192.460938 Z M 903.808594 3223.082031 C 851.390625 3223.082031 808.742188 3191.792969 808.742188 3153.335938 C 808.742188 3114.878906 851.390625 3083.589844 903.808594 3083.589844 C 956.222656 3083.589844 998.867188 3114.878906 998.867188 3153.335938 C 998.867188 3191.792969 956.222656 3223.082031 903.808594 3223.082031 Z M 998.867188 3083.589844 L 998.867188 3114.210938 C 990.042969 3101.703125 977.085938 3091.183594 961.464844 3083.589844 C 961.464844 3083.589844 998.867188 3083.589844 998.867188 3083.589844 Z M 808.742188 3083.589844 L 846.144531 3083.589844 C 830.523438 3091.183594 817.5625 3101.703125 808.742188 3114.214844 Z M 808.742188 3223.082031 L 808.742188 3192.457031 C 817.5625 3204.96875 830.523438 3215.488281 846.144531 3223.082031 C 846.144531 3223.082031 808.742188 3223.082031 808.742188 3223.082031 Z M 1262.484375 3070.695312 L 1046.554688 3070.695312 L 1046.554688 3235.976562 L 1262.484375 3235.976562 C 1262.484375 3235.976562 1262.484375 3070.695312 1262.484375 3070.695312 Z M 1143.78125 3153.335938 L 1059.457031 3216.628906 L 1059.457031 3090.042969 Z M 1072.332031 3083.589844 L 1236.707031 3083.589844 L 1154.519531 3145.277344 Z M 1154.519531 3161.394531 L 1236.707031 3223.082031 L 1072.332031 3223.082031 Z M 1165.257812 3153.335938 L 1249.582031 3090.042969 L 1249.582031 3216.628906 Z M 1262.484375 3513.945312 L 1262.484375 3282.90625 L 40.816406 3282.90625 L 40.816406 3513.945312 Z M 85.089844 3459.613281 L 97.4375 3459.613281 L 97.4375 3453.167969 L 89.328125 3453.167969 L 97.175781 3441.234375 L 123.242188 3456.515625 L 123.242188 3459.613281 L 128.523438 3459.613281 L 174.21875 3486.402344 L 200.652344 3458.738281 L 200.652344 3459.613281 L 213.554688 3459.613281 L 213.554688 3453.167969 L 205.976562 3453.167969 L 337.085938 3315.960938 L 398.210938 3451.96875 L 432.886719 3401.628906 L 432.886719 3401.648438 L 445.789062 3401.648438 L 445.789062 3395.199219 L 437.316406 3395.199219 L 472.796875 3343.6875 L 473.035156 3343.6875 L 544.359375 3496.519531 L 585.824219 3415.996094 L 612.496094 3443.910156 L 676.953125 3401.648438 L 678.019531 3401.648438 L 678.019531 3400.945312 L 809.875 3314.484375 L 830.296875 3337.238281 L 819.941406 3337.238281 L 819.941406 3343.6875 L 832.84375 3343.6875 L 832.84375 3340.074219 L 849.695312 3358.847656 L 871.480469 3343.6875 L 871.546875 3343.6875 L 871.546875 3343.636719 L 875.359375 3340.984375 L 895.671875 3365.160156 L 938.734375 3395.199219 L 936.058594 3395.199219 L 936.058594 3401.648438 L 947.976562 3401.648438 L 967.078125 3414.96875 L 976.453125 3401.648438 L 987.664062 3401.648438 L 987.664062 3395.199219 L 980.988281 3395.199219 L 1000.605469 3367.328125 L 1032.492188 3385.214844 L 1072.257812 3453.46875 L 1126.234375 3484.417969 L 1136.78125 3459.613281 L 1142.488281 3459.613281 L 1142.488281 3453.167969 L 1139.519531 3453.167969 L 1196.300781 3319.609375 L 1219.867188 3395.199219 L 1206.996094 3395.199219 L 1206.996094 3401.648438 L 1219.898438 3401.648438 L 1219.898438 3395.296875 L 1254.882812 3507.5 L 53.601562 3507.5 Z M 1256.035156 3489.558594 L 1246.699219 3459.613281 L 1256.035156 3459.613281 Z M 1256.035156 3289.351562 L 1256.035156 3337.238281 L 1245.703125 3337.238281 L 1245.703125 3343.6875 L 1256.035156 3343.6875 L 1256.035156 3395.199219 L 1245.703125 3395.199219 L 1245.703125 3401.648438 L 1256.035156 3401.648438 L 1256.035156 3453.167969 L 1245.703125 3453.167969 L 1245.703125 3456.414062 L 1210.5625 3343.6875 L 1219.898438 3343.6875 L 1219.898438 3337.238281 L 1208.550781 3337.238281 L 1197.230469 3300.925781 L 1181.191406 3338.652344 L 1181.191406 3337.238281 L 1168.289062 3337.238281 L 1168.289062 3343.6875 L 1179.050781 3343.6875 L 1132.507812 3453.167969 L 1129.585938 3453.167969 L 1129.585938 3459.613281 L 1129.765625 3459.613281 L 1123.132812 3475.214844 L 1095.9375 3459.613281 L 1103.78125 3459.613281 L 1103.78125 3453.167969 L 1090.878906 3453.167969 L 1090.878906 3456.710938 L 1076.96875 3448.734375 L 1037.179688 3380.453125 L 998.691406 3358.851562 L 965.492188 3406.015625 L 900.332031 3360.691406 L 876.507812 3332.324219 L 869.445312 3337.238281 L 858.648438 3337.238281 L 858.648438 3343.6875 L 860.183594 3343.6875 L 850.691406 3350.296875 L 810.96875 3306.050781 L 755.433594 3342.46875 L 755.433594 3337.238281 L 742.53125 3337.238281 L 742.53125 3343.6875 L 753.578125 3343.6875 L 675.023438 3395.199219 L 665.121094 3395.199219 L 665.121094 3401.644531 L 665.195312 3401.644531 L 613.457031 3435.574219 L 584.238281 3404.988281 L 559.433594 3453.164062 L 549.003906 3453.164062 L 549.003906 3459.613281 L 556.113281 3459.613281 L 544.648438 3481.875 L 480.160156 3343.6875 L 484.492188 3343.6875 L 484.492188 3337.238281 L 477.148438 3337.238281 L 474.023438 3330.539062 L 399.398438 3438.875 L 356.617188 3343.6875 L 368.378906 3343.6875 L 368.378906 3337.238281 L 355.476562 3337.238281 L 355.476562 3341.148438 L 339.039062 3304.578125 L 252.261719 3395.394531 L 252.261719 3395.199219 L 239.359375 3395.199219 L 239.359375 3401.648438 L 246.289062 3401.648438 L 173.085938 3478.253906 L 136.144531 3456.601562 L 136.144531 3453.167969 L 130.28125 3453.167969 L 95.144531 3432.574219 L 47.269531 3505.390625 L 47.269531 3459.613281 L 58.734375 3459.613281 L 58.734375 3453.167969 L 47.269531 3453.167969 L 47.269531 3401.648438 L 58.734375 3401.648438 L 58.734375 3395.199219 L 47.269531 3395.199219 L 47.269531 3343.6875 L 58.734375 3343.6875 L 58.734375 3337.238281 L 47.269531 3337.238281 L 47.269531 3289.351562 Z M 1065.078125 3343.6875 L 1052.175781 3343.6875 L 1052.175781 3337.238281 L 1065.078125 3337.238281 C 1065.078125 3337.238281 1065.078125 3343.6875 1065.078125 3343.6875 Z M 290.964844 3343.6875 L 278.0625 3343.6875 L 278.0625 3337.238281 L 290.964844 3337.238281 Z M 174.851562 3343.6875 L 161.949219 3343.6875 L 161.949219 3337.238281 L 174.851562 3337.238281 Z M 407.082031 3343.6875 L 394.179688 3343.6875 L 394.179688 3337.238281 L 407.082031 3337.238281 Z M 252.261719 3343.6875 L 239.359375 3343.6875 L 239.359375 3337.238281 L 252.261719 3337.238281 Z M 1103.78125 3343.6875 L 1090.878906 3343.6875 L 1090.878906 3337.238281 L 1103.78125 3337.238281 Z M 213.554688 3343.6875 L 200.652344 3343.6875 L 200.652344 3337.238281 L 213.554688 3337.238281 Z M 445.789062 3343.6875 L 432.886719 3343.6875 L 432.886719 3337.238281 L 445.789062 3337.238281 Z M 716.726562 3343.6875 L 703.824219 3343.6875 L 703.824219 3337.238281 L 716.726562 3337.238281 Z M 678.019531 3343.6875 L 665.121094 3343.6875 L 665.121094 3337.238281 L 678.019531 3337.238281 Z M 523.199219 3343.6875 L 510.296875 3343.6875 L 510.296875 3337.238281 L 523.199219 3337.238281 Z M 910.253906 3343.6875 L 897.351562 3343.6875 L 897.351562 3337.238281 L 910.253906 3337.238281 Z M 639.316406 3343.6875 L 626.414062 3343.6875 L 626.414062 3337.238281 L 639.316406 3337.238281 Z M 1026.371094 3343.6875 L 1013.46875 3343.6875 L 1013.46875 3337.238281 L 1026.371094 3337.238281 Z M 561.90625 3343.6875 L 549.003906 3343.6875 L 549.003906 3337.238281 L 561.90625 3337.238281 Z M 987.664062 3343.6875 L 974.761719 3343.6875 L 974.761719 3337.238281 L 987.664062 3337.238281 Z M 600.609375 3343.6875 L 587.707031 3343.6875 L 587.707031 3337.238281 L 600.609375 3337.238281 Z M 136.144531 3343.6875 L 123.242188 3343.6875 L 123.242188 3337.238281 L 136.144531 3337.238281 Z M 97.4375 3343.6875 L 84.535156 3343.6875 L 84.535156 3337.238281 L 97.4375 3337.238281 C 97.4375 3337.238281 97.4375 3343.6875 97.4375 3343.6875 Z M 329.671875 3343.6875 L 316.769531 3343.6875 L 316.769531 3337.238281 L 329.671875 3337.238281 C 329.671875 3337.238281 329.671875 3343.6875 329.671875 3343.6875 Z M 794.136719 3343.6875 L 781.234375 3343.6875 L 781.234375 3337.238281 L 794.136719 3337.238281 Z M 948.960938 3343.6875 L 936.058594 3343.6875 L 936.058594 3337.238281 L 948.960938 3337.238281 Z M 1142.488281 3343.6875 L 1129.585938 3343.6875 L 1129.585938 3337.238281 L 1142.488281 3337.238281 Z M 832.84375 3401.648438 L 819.941406 3401.648438 L 819.941406 3395.199219 L 832.84375 3395.199219 C 832.84375 3395.199219 832.84375 3401.648438 832.84375 3401.648438 Z M 794.136719 3401.648438 L 781.234375 3401.648438 L 781.234375 3395.199219 L 794.136719 3395.199219 Z M 871.546875 3401.648438 L 858.648438 3401.648438 L 858.648438 3395.199219 L 871.546875 3395.199219 Z M 1026.371094 3401.648438 L 1013.46875 3401.648438 L 1013.46875 3395.199219 L 1026.371094 3395.199219 Z M 910.253906 3401.648438 L 897.351562 3401.648438 L 897.351562 3395.199219 L 910.253906 3395.199219 Z M 1181.191406 3401.648438 L 1168.292969 3401.648438 L 1168.292969 3395.199219 L 1181.191406 3395.199219 Z M 755.433594 3401.648438 L 742.53125 3401.648438 L 742.53125 3395.199219 L 755.433594 3395.199219 Z M 329.671875 3401.648438 L 316.769531 3401.648438 L 316.769531 3395.199219 L 329.671875 3395.199219 C 329.671875 3395.199219 329.671875 3401.648438 329.671875 3401.648438 Z M 1065.078125 3401.648438 L 1052.175781 3401.648438 L 1052.175781 3395.199219 L 1065.078125 3395.199219 C 1065.078125 3395.199219 1065.078125 3401.648438 1065.078125 3401.648438 Z M 290.964844 3401.648438 L 278.0625 3401.648438 L 278.0625 3395.199219 L 290.964844 3395.199219 Z M 1103.78125 3401.648438 L 1090.878906 3401.648438 L 1090.878906 3395.199219 L 1103.78125 3395.199219 Z M 368.378906 3401.648438 L 355.476562 3401.648438 L 355.476562 3395.199219 L 368.378906 3395.199219 Z M 716.726562 3401.648438 L 703.824219 3401.648438 L 703.824219 3395.199219 L 716.726562 3395.199219 Z M 484.492188 3401.648438 L 471.59375 3401.648438 L 471.59375 3395.199219 L 484.492188 3395.199219 Z M 1142.488281 3401.648438 L 1129.585938 3401.648438 L 1129.585938 3395.199219 L 1142.488281 3395.199219 Z M 97.4375 3401.648438 L 84.535156 3401.648438 L 84.535156 3395.199219 L 97.4375 3395.199219 C 97.4375 3395.199219 97.4375 3401.648438 97.4375 3401.648438 Z M 136.144531 3401.648438 L 123.242188 3401.648438 L 123.242188 3395.199219 L 136.144531 3395.199219 Z M 639.316406 3401.648438 L 626.414062 3401.648438 L 626.414062 3395.199219 L 639.316406 3395.199219 Z M 174.851562 3401.648438 L 161.949219 3401.648438 L 161.949219 3395.199219 L 174.851562 3395.199219 Z M 213.554688 3401.648438 L 200.652344 3401.648438 L 200.652344 3395.199219 L 213.554688 3395.199219 Z M 523.199219 3401.648438 L 510.296875 3401.648438 L 510.296875 3395.199219 L 523.199219 3395.199219 Z M 600.609375 3401.648438 L 587.707031 3401.648438 L 587.707031 3395.199219 L 600.609375 3395.199219 Z M 561.90625 3401.648438 L 549.003906 3401.648438 L 549.003906 3395.199219 L 561.90625 3395.199219 Z M 407.082031 3401.648438 L 394.179688 3401.648438 L 394.179688 3395.199219 L 407.082031 3395.199219 Z M 600.609375 3459.613281 L 587.707031 3459.613281 L 587.707031 3453.167969 L 600.609375 3453.167969 Z M 1026.371094 3459.613281 L 1013.46875 3459.613281 L 1013.46875 3453.167969 L 1026.371094 3453.167969 Z M 716.726562 3459.613281 L 703.824219 3459.613281 L 703.824219 3453.167969 L 716.726562 3453.167969 Z M 639.316406 3459.613281 L 626.414062 3459.613281 L 626.414062 3453.167969 L 639.316406 3453.167969 Z M 523.199219 3459.613281 L 510.296875 3459.613281 L 510.296875 3453.167969 L 523.199219 3453.167969 Z M 678.019531 3459.613281 L 665.121094 3459.613281 L 665.121094 3453.167969 L 678.019531 3453.167969 Z M 794.136719 3459.613281 L 781.234375 3459.613281 L 781.234375 3453.167969 L 794.136719 3453.167969 Z M 910.253906 3459.613281 L 897.351562 3459.613281 L 897.351562 3453.167969 L 910.253906 3453.167969 Z M 755.433594 3459.613281 L 742.53125 3459.613281 L 742.53125 3453.167969 L 755.433594 3453.167969 Z M 871.546875 3459.613281 L 858.648438 3459.613281 L 858.648438 3453.167969 L 871.546875 3453.167969 Z M 832.84375 3459.613281 L 819.941406 3459.613281 L 819.941406 3453.167969 L 832.84375 3453.167969 C 832.84375 3453.167969 832.84375 3459.613281 832.84375 3459.613281 Z M 948.960938 3459.613281 L 936.058594 3459.613281 L 936.058594 3453.167969 L 948.960938 3453.167969 Z M 987.664062 3459.613281 L 974.761719 3459.613281 L 974.761719 3453.167969 L 987.664062 3453.167969 Z M 252.261719 3459.613281 L 239.359375 3459.613281 L 239.359375 3453.167969 L 252.261719 3453.167969 Z M 290.964844 3459.613281 L 278.0625 3459.613281 L 278.0625 3453.167969 L 290.964844 3453.167969 Z M 1219.898438 3459.613281 L 1206.996094 3459.613281 L 1206.996094 3453.167969 L 1219.898438 3453.167969 Z M 174.851562 3459.613281 L 161.949219 3459.613281 L 161.949219 3453.167969 L 174.851562 3453.167969 Z M 329.671875 3459.613281 L 316.769531 3459.613281 L 316.769531 3453.167969 L 329.671875 3453.167969 C 329.671875 3453.167969 329.671875 3459.613281 329.671875 3459.613281 Z M 368.378906 3459.613281 L 355.476562 3459.613281 L 355.476562 3453.167969 L 368.378906 3453.167969 Z M 407.082031 3459.613281 L 394.179688 3459.613281 L 394.179688 3453.167969 L 407.082031 3453.167969 Z M 445.789062 3459.613281 L 432.886719 3459.613281 L 432.886719 3453.167969 L 445.789062 3453.167969 Z M 1065.078125 3459.613281 L 1052.175781 3459.613281 L 1052.175781 3453.167969 L 1065.078125 3453.167969 C 1065.078125 3453.167969 1065.078125 3459.613281 1065.078125 3459.613281 Z M 484.492188 3459.613281 L 471.59375 3459.613281 L 471.59375 3453.167969 L 484.492188 3453.167969 Z M 1181.191406 3459.613281 L 1168.292969 3459.613281 L 1168.292969 3453.167969 L 1181.191406 3453.167969 Z M 1181.191406 3459.613281 " fill-opacity="1" fill-rule="nonzero"/></g><g fill="#000000" fill-opacity="1"><g transform="translate(32.963028, 347.299962)"><g><path d="M 157.640625 -262.734375 C 182.410156 -262.734375 204.675781 -258.976562 224.4375 -251.46875 C 244.207031 -243.957031 259.910156 -232.882812 271.546875 -218.25 C 283.179688 -203.613281 289 -185.785156 289 -164.765625 L 209.8125 -164.765625 C 209.8125 -175.523438 205.054688 -184.21875 195.546875 -190.84375 C 186.035156 -197.476562 174.523438 -200.796875 161.015625 -200.796875 C 141.492188 -200.796875 126.726562 -195.601562 116.71875 -185.21875 C 106.71875 -174.832031 101.71875 -160.132812 101.71875 -141.125 L 101.71875 -117.109375 C 101.71875 -98.085938 106.71875 -83.382812 116.71875 -73 C 126.726562 -62.613281 141.492188 -57.421875 161.015625 -57.421875 C 174.523438 -57.421875 186.035156 -60.609375 195.546875 -66.984375 C 205.054688 -73.367188 209.8125 -81.566406 209.8125 -91.578125 L 151.25 -91.578125 L 151.25 -144.125 L 289 -144.125 L 289 0 L 246.21875 0 L 237.953125 -25.515625 C 214.429688 -5.503906 183.65625 4.5 145.625 4.5 C 102.84375 4.5 70.691406 -6.695312 49.171875 -29.09375 C 27.648438 -51.488281 16.890625 -84.828125 16.890625 -129.109375 C 16.890625 -172.898438 29.085938 -206.117188 53.484375 -228.765625 C 77.878906 -251.410156 112.597656 -262.734375 157.640625 -262.734375 Z M 157.640625 -262.734375 "/></g></g></g><g fill="#000000" fill-opacity="1"><g transform="translate(345.614333, 347.299962)"><g><path d="M 31.53125 0 L 31.53125 -258.21875 L 114.46875 -258.21875 L 114.46875 0 Z M 31.53125 0 "/></g></g></g><g fill="#000000" fill-opacity="1"><g transform="translate(491.618363, 347.299962)"><g><path d="M 272.859375 -179.03125 C 272.859375 -163.269531 268.601562 -149.007812 260.09375 -136.25 C 251.59375 -123.488281 239.207031 -114.101562 222.9375 -108.09375 L 280.375 0 L 187.28125 0 L 141.5 -94.203125 L 110.71875 -94.203125 L 110.71875 0 L 27.78125 0 L 27.78125 -258.21875 L 185.78125 -258.21875 C 204.300781 -258.21875 220.128906 -254.648438 233.265625 -247.515625 C 246.398438 -240.390625 256.28125 -230.757812 262.90625 -218.625 C 269.539062 -206.488281 272.859375 -193.289062 272.859375 -179.03125 Z M 188.421875 -175.65625 C 188.421875 -182.40625 186.164062 -188.03125 181.65625 -192.53125 C 177.15625 -197.039062 171.648438 -199.296875 165.140625 -199.296875 L 110.71875 -199.296875 L 110.71875 -151.625 L 165.140625 -151.625 C 171.648438 -151.625 177.15625 -153.9375 181.65625 -158.5625 C 186.164062 -163.195312 188.421875 -168.894531 188.421875 -175.65625 Z M 188.421875 -175.65625 "/></g></g></g><g fill="#000000" fill-opacity="1"><g transform="translate(783.626424, 347.299962)"><g><path d="M 27.78125 -258.21875 L 110.71875 -258.21875 L 110.71875 -66.0625 L 243.21875 -66.0625 L 243.21875 0 L 27.78125 0 Z M 27.78125 -258.21875 "/></g></g></g><g fill="#000000" fill-opacity="1"><g transform="translate(1033.972684, 347.299962)"><g><path d="M 27.78125 -258.21875 L 236.453125 -258.21875 L 236.453125 -196.296875 L 110.71875 -196.296875 L 110.71875 -152.015625 L 218.8125 -152.015625 L 218.8125 -92.703125 L 110.71875 -92.703125 L 110.71875 0 L 27.78125 0 Z M 27.78125 -258.21875 "/></g></g></g><g fill="#000000" fill-opacity="1"><g transform="translate(1284.318874, 347.299962)"><g><path d="M 272.859375 -179.03125 C 272.859375 -163.269531 268.601562 -149.007812 260.09375 -136.25 C 251.59375 -123.488281 239.207031 -114.101562 222.9375 -108.09375 L 280.375 0 L 187.28125 0 L 141.5 -94.203125 L 110.71875 -94.203125 L 110.71875 0 L 27.78125 0 L 27.78125 -258.21875 L 185.78125 -258.21875 C 204.300781 -258.21875 220.128906 -254.648438 233.265625 -247.515625 C 246.398438 -240.390625 256.28125 -230.757812 262.90625 -218.625 C 269.539062 -206.488281 272.859375 -193.289062 272.859375 -179.03125 Z M 188.421875 -175.65625 C 188.421875 -182.40625 186.164062 -188.03125 181.65625 -192.53125 C 177.15625 -197.039062 171.648438 -199.296875 165.140625 -199.296875 L 110.71875 -199.296875 L 110.71875 -151.625 L 165.140625 -151.625 C 171.648438 -151.625 177.15625 -153.9375 181.65625 -158.5625 C 186.164062 -163.195312 188.421875 -168.894531 188.421875 -175.65625 Z M 188.421875 -175.65625 "/></g></g></g><g fill="#000000" fill-opacity="1"><g transform="translate(1576.326862, 347.299962)"><g><path d="M 31.53125 0 L 31.53125 -258.21875 L 114.46875 -258.21875 L 114.46875 0 Z M 31.53125 0 "/></g></g></g><g fill="#000000" fill-opacity="1"><g transform="translate(1722.330856, 347.299962)"><g><path d="M 27.78125 -258.21875 L 251.09375 -258.21875 L 251.09375 -196.296875 L 110.71875 -196.296875 L 110.71875 -160.640625 L 230.828125 -160.640625 L 230.828125 -101.34375 L 110.71875 -101.34375 L 110.71875 -61.921875 L 253.71875 -61.921875 L 253.71875 0 L 27.78125 0 Z M 27.78125 -258.21875 "/></g></g></g><g fill="#000000" fill-opacity="1"><g transform="translate(1993.320398, 347.299962)"><g><path d="M 212.4375 0 L 103.96875 -125.359375 L 103.96875 0 L 27.78125 0 L 27.78125 -258.21875 L 100.21875 -258.21875 L 208.6875 -130.984375 L 208.6875 -258.21875 L 284.875 -258.21875 L 284.875 0 Z M 212.4375 0 "/></g></g></g><g fill="#000000" fill-opacity="1"><g transform="translate(2305.971739, 347.299962)"><g><path d="M 139.625 -258.21875 C 229.945312 -258.21875 275.109375 -215.179688 275.109375 -129.109375 C 275.109375 -43.035156 229.945312 0 139.625 0 L 27.78125 0 L 27.78125 -258.21875 Z M 110.71875 -61.921875 L 138.125 -61.921875 C 172.90625 -61.921875 190.296875 -80.566406 190.296875 -117.859375 L 190.296875 -140.375 C 190.296875 -177.65625 172.90625 -196.296875 138.125 -196.296875 L 110.71875 -196.296875 Z M 110.71875 -61.921875 "/></g></g></g><g clip-path="url(#ae475fb4f2)"><path stroke-linecap="butt" transform="matrix(2.357333, 0, 0, 2.357333, 23.607363, 265.948506)" fill="none" stroke-linejoin="miter" d="M 70.828714 51.553202 C 81.34941 51.553202 90.796328 53.147297 99.166156 56.335487 C 107.562496 59.52202 114.222234 64.226423 119.147026 70.445382 C 124.096674 76.639485 126.57067 84.194037 126.57067 93.107381 L 92.985309 93.107381 C 92.985309 88.547142 90.963692 84.866804 86.922114 82.068024 C 82.878879 79.244388 77.993857 77.830913 72.267045 77.830913 C 63.999956 77.830913 57.741228 80.034807 53.492517 84.439282 C 49.242149 88.845414 47.116137 95.077629 47.116137 103.137585 L 47.116137 113.321897 C 47.116137 121.380196 49.242149 127.614069 53.492517 132.018543 C 57.741228 136.424675 63.999956 138.626912 72.267045 138.626912 C 77.993857 138.626912 82.878879 137.27972 86.922114 134.585335 C 90.963692 131.862779 92.985309 128.391232 92.985309 124.167377 L 68.145929 124.167377 L 68.145929 101.855018 L 126.57067 101.855018 L 126.57067 163.000658 L 108.417541 163.000658 L 104.91948 152.155178 C 94.942301 160.654256 81.881327 164.904624 65.736559 164.904624 C 47.596686 164.904624 33.952425 160.162108 24.803778 150.677077 C 15.681644 141.16719 11.121406 127.017526 11.121406 108.229741 C 11.121406 89.649089 16.291444 75.56405 26.631519 65.974625 C 36.996451 56.360343 51.729402 51.553202 70.828714 51.553202 Z M 149.970062 163.000658 L 149.970062 53.458825 L 185.149518 53.458825 L 185.149518 163.000658 Z M 314.294411 87.044186 C 314.294411 93.730436 312.481584 99.780375 308.852615 105.197315 C 305.250159 110.612598 300.003897 114.591208 293.110513 117.131486 L 317.482601 163.000658 L 277.988152 163.000658 L 258.552456 123.038917 L 245.491482 123.038917 L 245.491482 163.000658 L 210.312026 163.000658 L 210.312026 53.458825 L 277.366754 53.458825 C 285.219577 53.458825 291.930684 54.975038 297.501731 58.005807 C 303.074435 61.013377 307.25852 65.094724 310.0573 70.251505 C 312.882593 75.408286 314.294411 81.005847 314.294411 87.044186 Z M 278.455444 88.482517 C 278.455444 85.605855 277.496005 83.22134 275.578782 81.328974 C 273.686416 79.411752 271.354928 78.453969 268.581003 78.453969 L 245.491482 78.453969 L 245.491482 98.666828 L 268.581003 98.666828 C 271.354928 98.666828 273.686416 97.694132 275.578782 95.752054 C 277.496005 93.781805 278.455444 91.359179 278.455444 88.482517 Z M 334.184143 53.458825 L 369.363599 53.458825 L 369.363599 134.973087 L 425.572847 134.973087 L 425.572847 163.000658 L 334.184143 163.000658 Z M 440.38368 53.458825 L 528.895721 53.458825 L 528.895721 79.736536 L 475.563136 79.736536 L 475.563136 98.511064 L 521.432308 98.511064 L 521.432308 123.661973 L 475.563136 123.661973 L 475.563136 163.000658 L 440.38368 163.000658 Z M 650.565601 87.044186 C 650.565601 93.730436 648.751117 99.780375 645.123805 105.197315 C 641.521349 110.612598 636.273429 114.591208 629.380046 117.131486 L 653.752134 163.000658 L 614.259342 163.000658 L 594.821989 123.038917 L 581.761015 123.038917 L 581.761015 163.000658 L 546.583216 163.000658 L 546.583216 53.458825 L 613.636286 53.458825 C 621.48911 53.458825 628.200217 54.975038 633.772921 58.005807 C 639.343968 61.013377 643.52971 65.094724 646.32849 70.251505 C 649.152126 75.408286 650.565601 81.005847 650.565601 87.044186 Z M 614.724977 88.482517 C 614.724977 85.605855 613.765537 83.22134 611.848315 81.328974 C 609.957606 79.411752 607.62446 78.453969 604.852193 78.453969 L 581.761015 78.453969 L 581.761015 98.666828 L 604.852193 98.666828 C 607.62446 98.666828 609.957606 97.694132 611.848315 95.752054 C 613.765537 93.781805 614.724977 91.359179 614.724977 88.482517 Z M 672.047771 163.000658 L 672.047771 53.458825 L 707.227227 53.458825 L 707.227227 163.000658 Z M 732.391392 53.458825 L 827.122392 53.458825 L 827.122392 79.736536 L 767.569191 79.736536 L 767.569191 94.85724 L 818.530519 94.85724 L 818.530519 120.008148 L 767.569191 120.008148 L 767.569191 136.722946 L 828.249196 136.722946 L 828.249196 163.000658 L 732.391392 163.000658 Z M 925.674581 163.000658 L 879.687758 109.822179 L 879.687758 163.000658 L 847.346851 163.000658 L 847.346851 53.458825 L 878.09532 53.458825 L 924.080486 107.412809 L 924.080486 53.458825 L 956.421392 53.458825 L 956.421392 163.000658 Z M 1027.438159 53.458825 C 1065.741179 53.458825 1084.891861 71.714692 1084.891861 108.229741 C 1084.891861 144.743133 1065.741179 163.000658 1027.438159 163.000658 L 979.976549 163.000658 L 979.976549 53.458825 Z M 1015.156005 136.722946 L 1026.778647 136.722946 C 1041.54971 136.722946 1048.935242 128.818754 1048.935242 113.010369 L 1048.935242 103.447456 C 1048.935242 87.640728 1041.54971 79.736536 1026.778647 79.736536 L 1015.156005 79.736536 Z M 1015.156005 136.722946 " stroke="#000000" stroke-width="5.970825" stroke-opacity="1" stroke-miterlimit="4"/></g><g clip-path="url(#b2e1c887ac)"><path stroke-linecap="butt" transform="matrix(2.357333, 0, 0, 2.357333, 23.607363, 577.016989)" fill="none" stroke-linejoin="miter" d="M 70.828714 51.553978 C 81.34941 51.553978 90.796328 53.148073 99.166156 56.334606 C 107.562496 59.522796 114.222234 64.225542 119.147026 70.446158 C 124.096674 76.638604 126.57067 84.193156 126.57067 93.108157 L 92.985309 93.108157 C 92.985309 88.546261 90.963692 84.867581 86.922114 82.068801 C 82.878879 79.243507 77.993857 77.831689 72.267045 77.831689 C 63.999956 77.831689 57.741228 80.033927 53.492517 84.440058 C 49.242149 88.844533 47.116137 95.076748 47.116137 103.136705 L 47.116137 113.321016 C 47.116137 121.380973 49.242149 127.613188 53.492517 132.01932 C 57.741228 136.423794 63.999956 138.627689 72.267045 138.627689 C 77.993857 138.627689 82.878879 137.278839 86.922114 134.584454 C 90.963692 131.863556 92.985309 128.390351 92.985309 124.166496 L 68.145929 124.166496 L 68.145929 101.854138 L 126.57067 101.854138 L 126.57067 162.999777 L 108.417541 162.999777 L 104.91948 152.154297 C 94.942301 160.655032 81.881327 164.9054 65.736559 164.9054 C 47.596686 164.9054 33.952425 160.162884 24.803778 150.677854 C 15.681644 141.16631 11.121406 127.016645 11.121406 108.22886 C 11.121406 89.648209 16.291444 75.56317 26.631519 65.975401 C 36.996451 56.361119 51.729402 51.553978 70.828714 51.553978 Z M 149.970062 162.999777 L 149.970062 53.457944 L 185.149518 53.457944 L 185.149518 162.999777 Z M 314.294411 87.043305 C 314.294411 93.729556 312.481584 99.781151 308.852615 105.196434 C 305.250159 110.613375 300.003897 114.591984 293.110513 117.130605 L 317.482601 162.999777 L 277.988152 162.999777 L 258.552456 123.039693 L 245.491482 123.039693 L 245.491482 162.999777 L 210.312026 162.999777 L 210.312026 53.457944 L 277.366754 53.457944 C 285.219577 53.457944 291.930684 54.974157 297.501731 58.006583 C 303.074435 61.012496 307.25852 65.093843 310.0573 70.250624 C 312.882593 75.409063 314.294411 81.006623 314.294411 87.043305 Z M 278.455444 88.481636 C 278.455444 85.604974 277.496005 83.222117 275.578782 81.32975 C 273.686416 79.412528 271.354928 78.453088 268.581003 78.453088 L 245.491482 78.453088 L 245.491482 98.665948 L 268.581003 98.665948 C 271.354928 98.665948 273.686416 97.694908 275.578782 95.751173 C 277.496005 93.782582 278.455444 91.358298 278.455444 88.481636 Z M 334.184143 53.457944 L 369.363599 53.457944 L 369.363599 134.973864 L 425.572847 134.973864 L 425.572847 162.999777 L 334.184143 162.999777 Z M 440.38368 53.457944 L 528.895721 53.457944 L 528.895721 79.735655 L 475.563136 79.735655 L 475.563136 98.511841 L 521.432308 98.511841 L 521.432308 123.661092 L 475.563136 123.661092 L 475.563136 162.999777 L 440.38368 162.999777 Z M 650.565601 87.043305 C 650.565601 93.729556 648.751117 99.781151 645.123805 105.196434 C 641.521349 110.613375 636.273429 114.591984 629.380046 117.130605 L 653.752134 162.999777 L 614.259342 162.999777 L 594.821989 123.039693 L 581.761015 123.039693 L 581.761015 162.999777 L 546.583216 162.999777 L 546.583216 53.457944 L 613.636286 53.457944 C 621.48911 53.457944 628.200217 54.974157 633.772921 58.006583 C 639.343968 61.012496 643.52971 65.093843 646.32849 70.250624 C 649.152126 75.409063 650.565601 81.006623 650.565601 87.043305 Z M 614.724977 88.481636 C 614.724977 85.604974 613.765537 83.222117 611.848315 81.32975 C 609.957606 79.412528 607.62446 78.453088 604.852193 78.453088 L 581.761015 78.453088 L 581.761015 98.665948 L 604.852193 98.665948 C 607.62446 98.665948 609.957606 97.694908 611.848315 95.751173 C 613.765537 93.782582 614.724977 91.358298 614.724977 88.481636 Z M 672.047771 162.999777 L 672.047771 53.457944 L 707.227227 53.457944 L 707.227227 162.999777 Z M 732.391392 53.457944 L 827.122392 53.457944 L 827.122392 79.735655 L 767.569191 79.735655 L 767.569191 94.858016 L 818.530519 94.858016 L 818.530519 120.007267 L 767.569191 120.007267 L 767.569191 136.722066 L 828.249196 136.722066 L 828.249196 162.999777 L 732.391392 162.999777 Z M 925.674581 162.999777 L 879.687758 109.822955 L 879.687758 162.999777 L 847.346851 162.999777 L 847.346851 53.457944 L 878.09532 53.457944 L 924.080486 107.413585 L 924.080486 53.457944 L 956.421392 53.457944 L 956.421392 162.999777 Z M 1027.438159 53.457944 C 1065.741179 53.457944 1084.891861 71.715468 1084.891861 108.22886 C 1084.891861 144.74391 1065.741179 162.999777 1027.438159 162.999777 L 979.976549 162.999777 L 979.976549 53.457944 Z M 1015.156005 136.722066 L 1026.778647 136.722066 C 1041.54971 136.722066 1048.935242 128.817873 1048.935242 113.011145 L 1048.935242 103.448233 C 1048.935242 87.639848 1041.54971 79.735655 1026.778647 79.735655 L 1015.156005 79.735655 Z M 1015.156005 136.722066 " stroke="#000000" stroke-width="5.970825" stroke-opacity="1" stroke-miterlimit="4"/></g></svg>