<svg xmlns="http://www.w3.org/2000/svg" xmlns:xlink="http://www.w3.org/1999/xlink" width="1096" zoomAndPan="magnify" viewBox="0 0 822 1190.249948" height="1587" preserveAspectRatio="xMidYMid meet" version="1.0"><defs><g/><clipPath id="2c8f45c9f0"><path d="M 3.089844 982.164062 L 394 982.164062 L 394 1124.574219 L 3.089844 1124.574219 Z M 3.089844 982.164062 " clip-rule="nonzero"/></clipPath><clipPath id="859fc9d962"><path d="M 0.257812 97 L 821.738281 97 L 821.738281 234 L 0.257812 234 Z M 0.257812 97 " clip-rule="nonzero"/></clipPath><clipPath id="a6ab66b906"><path d="M 0.257812 196 L 821.738281 196 L 821.738281 333 L 0.257812 333 Z M 0.257812 196 " clip-rule="nonzero"/></clipPath></defs><g clip-path="url(#2c8f45c9f0)"><path fill="#ffffff" d="M 72.296875 1035.203125 L 72.296875 982.285156 L 3.203125 982.285156 L 3.203125 1035.203125 Z M 68.167969 1031.074219 L 56.199219 1031.074219 C 61.199219 1028.644531 65.34375 1025.277344 68.167969 1021.269531 Z M 37.75 1031.074219 C 20.976562 1031.074219 7.332031 1021.058594 7.332031 1008.746094 C 7.332031 996.433594 20.976562 986.414062 37.75 986.414062 C 54.523438 986.414062 68.167969 996.433594 68.167969 1008.746094 C 68.167969 1021.058594 54.523438 1031.074219 37.75 1031.074219 Z M 68.167969 986.414062 L 68.167969 996.21875 C 65.34375 992.214844 61.199219 988.84375 56.199219 986.414062 C 56.199219 986.414062 68.167969 986.414062 68.167969 986.414062 Z M 7.332031 986.414062 L 19.300781 986.414062 C 14.300781 988.84375 10.15625 992.214844 7.332031 996.21875 Z M 7.332031 1031.074219 L 7.332031 1021.269531 C 10.15625 1025.277344 14.300781 1028.644531 19.300781 1031.074219 Z M 152.183594 1035.203125 L 152.183594 982.285156 L 83.09375 982.285156 L 83.09375 1035.203125 Z M 148.054688 1031.074219 L 136.089844 1031.074219 C 141.085938 1028.644531 145.234375 1025.277344 148.054688 1021.269531 Z M 117.636719 1031.074219 C 100.867188 1031.074219 87.222656 1021.058594 87.222656 1008.746094 C 87.222656 996.433594 100.867188 986.414062 117.636719 986.414062 C 134.410156 986.414062 148.054688 996.433594 148.054688 1008.746094 C 148.054688 1021.058594 134.410156 1031.074219 117.636719 1031.074219 Z M 148.054688 986.414062 L 148.054688 996.21875 C 145.234375 992.214844 141.085938 988.84375 136.089844 986.414062 C 136.089844 986.414062 148.054688 986.414062 148.054688 986.414062 Z M 87.222656 986.414062 L 99.1875 986.414062 C 94.191406 988.84375 90.042969 992.214844 87.222656 996.21875 Z M 87.222656 1031.074219 L 87.222656 1021.269531 C 90.042969 1025.277344 94.191406 1028.644531 99.1875 1031.074219 Z M 232.070312 982.285156 L 162.980469 982.285156 L 162.980469 1035.203125 L 232.070312 1035.203125 Z M 194.085938 1008.746094 L 167.105469 1029.007812 L 167.105469 988.480469 Z M 171.230469 986.414062 L 223.820312 986.414062 L 197.523438 1006.164062 Z M 197.523438 1011.328125 L 223.820312 1031.074219 L 171.230469 1031.074219 Z M 200.960938 1008.746094 L 227.941406 988.480469 L 227.941406 1029.007812 Z M 313.769531 1035.203125 L 313.769531 982.285156 L 244.679688 982.285156 L 244.679688 1035.203125 Z M 309.644531 1031.074219 L 297.675781 1031.074219 C 302.675781 1028.644531 306.820312 1025.277344 309.644531 1021.269531 Z M 279.226562 1031.074219 C 262.453125 1031.074219 248.808594 1021.058594 248.808594 1008.746094 C 248.808594 996.433594 262.453125 986.414062 279.226562 986.414062 C 296 986.414062 309.644531 996.433594 309.644531 1008.746094 C 309.644531 1021.058594 296 1031.074219 279.226562 1031.074219 Z M 309.644531 986.414062 L 309.644531 996.21875 C 306.820312 992.214844 302.675781 988.84375 297.675781 986.414062 C 297.675781 986.414062 309.644531 986.414062 309.644531 986.414062 Z M 248.808594 986.414062 L 260.777344 986.414062 C 255.777344 988.847656 251.628906 992.214844 248.808594 996.21875 Z M 248.808594 1031.074219 L 248.808594 1021.269531 C 251.628906 1025.277344 255.777344 1028.644531 260.777344 1031.074219 C 260.777344 1031.074219 248.808594 1031.074219 248.808594 1031.074219 Z M 393.992188 982.285156 L 324.902344 982.285156 L 324.902344 1035.203125 L 393.992188 1035.203125 C 393.992188 1035.203125 393.992188 982.285156 393.992188 982.285156 Z M 356.011719 1008.746094 L 329.03125 1029.007812 L 329.03125 988.480469 Z M 333.152344 986.414062 L 385.746094 986.414062 L 359.449219 1006.164062 Z M 359.449219 1011.324219 L 385.746094 1031.074219 L 333.152344 1031.074219 Z M 362.882812 1008.746094 L 389.867188 988.480469 L 389.867188 1029.007812 Z M 393.992188 1124.199219 L 393.992188 1050.230469 L 3.089844 1050.230469 L 3.089844 1124.199219 Z M 17.257812 1106.804688 L 21.210938 1106.804688 L 21.210938 1104.742188 L 18.613281 1104.742188 L 21.125 1100.921875 L 29.464844 1105.8125 L 29.464844 1106.804688 L 31.15625 1106.804688 L 45.777344 1115.382812 L 54.234375 1106.523438 L 54.234375 1106.804688 L 58.363281 1106.804688 L 58.363281 1104.742188 L 55.9375 1104.742188 L 97.890625 1060.8125 L 117.449219 1104.359375 L 128.542969 1088.242188 L 128.542969 1088.246094 L 132.671875 1088.246094 L 132.671875 1086.183594 L 129.960938 1086.183594 L 141.3125 1069.6875 L 141.390625 1069.6875 L 164.210938 1118.621094 L 177.480469 1092.839844 L 186.015625 1101.777344 L 206.636719 1088.246094 L 206.980469 1088.246094 L 206.980469 1088.019531 L 249.171875 1060.339844 L 255.707031 1067.625 L 252.390625 1067.625 L 252.390625 1069.6875 L 256.519531 1069.6875 L 256.519531 1068.53125 L 261.910156 1074.542969 L 268.882812 1069.6875 L 268.90625 1069.6875 L 268.90625 1069.671875 L 270.125 1068.824219 L 276.621094 1076.566406 L 290.402344 1086.179688 L 289.546875 1086.179688 L 289.546875 1088.246094 L 293.359375 1088.246094 L 299.472656 1092.511719 L 302.472656 1088.246094 L 306.058594 1088.246094 L 306.058594 1086.179688 L 303.921875 1086.179688 L 310.199219 1077.257812 L 320.402344 1082.984375 L 333.125 1104.835938 L 350.398438 1114.746094 L 353.769531 1106.804688 L 355.597656 1106.804688 L 355.597656 1104.742188 L 354.648438 1104.742188 L 372.816406 1061.980469 L 380.355469 1086.183594 L 376.238281 1086.183594 L 376.238281 1088.246094 L 380.367188 1088.246094 L 380.367188 1086.214844 L 391.5625 1122.136719 L 7.183594 1122.136719 Z M 391.929688 1116.390625 L 388.941406 1106.804688 L 391.929688 1106.804688 Z M 391.929688 1052.292969 L 391.929688 1067.625 L 388.625 1067.625 L 388.625 1069.6875 L 391.929688 1069.6875 L 391.929688 1086.183594 L 388.625 1086.183594 L 388.625 1088.246094 L 391.929688 1088.246094 L 391.929688 1104.742188 L 388.625 1104.742188 L 388.625 1105.78125 L 377.378906 1069.6875 L 380.367188 1069.6875 L 380.367188 1067.625 L 376.738281 1067.625 L 373.113281 1055.996094 L 367.984375 1068.078125 L 367.984375 1067.625 L 363.855469 1067.625 L 363.855469 1069.6875 L 367.296875 1069.6875 L 352.40625 1104.742188 L 351.46875 1104.742188 L 351.46875 1106.804688 L 351.527344 1106.804688 L 349.40625 1111.800781 L 340.703125 1106.804688 L 343.214844 1106.804688 L 343.214844 1104.742188 L 339.085938 1104.742188 L 339.085938 1105.875 L 334.632812 1103.320312 L 321.902344 1081.460938 L 309.585938 1074.542969 L 298.964844 1089.644531 L 278.113281 1075.132812 L 270.492188 1066.050781 L 268.230469 1067.625 L 264.777344 1067.625 L 264.777344 1069.6875 L 265.269531 1069.6875 L 262.230469 1071.804688 L 249.519531 1057.636719 L 231.75 1069.300781 L 231.75 1067.625 L 227.621094 1067.625 L 227.621094 1069.6875 L 231.15625 1069.6875 L 206.023438 1086.179688 L 202.851562 1086.179688 L 202.851562 1088.246094 L 202.875 1088.246094 L 186.320312 1099.109375 L 176.972656 1089.316406 L 169.035156 1104.742188 L 165.699219 1104.742188 L 165.699219 1106.804688 L 167.972656 1106.804688 L 164.304688 1113.933594 L 143.667969 1069.6875 L 145.058594 1069.6875 L 145.058594 1067.625 L 142.707031 1067.625 L 141.707031 1065.480469 L 117.828125 1100.164062 L 104.140625 1069.6875 L 107.902344 1069.6875 L 107.902344 1067.625 L 103.773438 1067.625 L 103.773438 1068.875 L 98.515625 1057.167969 L 70.75 1086.246094 L 70.75 1086.183594 L 66.621094 1086.183594 L 66.621094 1088.246094 L 68.835938 1088.246094 L 45.414062 1112.773438 L 33.59375 1105.839844 L 33.59375 1104.742188 L 31.71875 1104.742188 L 20.476562 1098.148438 L 5.15625 1121.460938 L 5.15625 1106.804688 L 8.824219 1106.804688 L 8.824219 1104.742188 L 5.15625 1104.742188 L 5.15625 1088.246094 L 8.824219 1088.246094 L 8.824219 1086.183594 L 5.15625 1086.183594 L 5.15625 1069.6875 L 8.824219 1069.6875 L 8.824219 1067.625 L 5.15625 1067.625 L 5.15625 1052.292969 Z M 330.828125 1069.6875 L 326.699219 1069.6875 L 326.699219 1067.625 L 330.828125 1067.625 C 330.828125 1067.625 330.828125 1069.6875 330.828125 1069.6875 Z M 83.132812 1069.6875 L 79.003906 1069.6875 L 79.003906 1067.625 L 83.132812 1067.625 Z M 45.980469 1069.6875 L 41.851562 1069.6875 L 41.851562 1067.625 L 45.980469 1067.625 Z M 120.289062 1069.6875 L 116.160156 1069.6875 L 116.160156 1067.625 L 120.289062 1067.625 Z M 70.75 1069.6875 L 66.621094 1069.6875 L 66.621094 1067.625 L 70.75 1067.625 Z M 343.214844 1069.6875 L 339.085938 1069.6875 L 339.085938 1067.625 L 343.214844 1067.625 Z M 58.363281 1069.6875 L 54.234375 1069.6875 L 54.234375 1067.625 L 58.363281 1067.625 Z M 132.671875 1069.6875 L 128.542969 1069.6875 L 128.542969 1067.625 L 132.671875 1067.625 Z M 219.367188 1069.6875 L 215.238281 1069.6875 L 215.238281 1067.625 L 219.367188 1067.625 Z M 206.980469 1069.6875 L 202.851562 1069.6875 L 202.851562 1067.625 L 206.980469 1067.625 Z M 157.441406 1069.6875 L 153.3125 1069.6875 L 153.3125 1067.625 L 157.441406 1067.625 Z M 281.289062 1069.6875 L 277.160156 1069.6875 L 277.160156 1067.625 L 281.289062 1067.625 Z M 194.597656 1069.6875 L 190.46875 1069.6875 L 190.46875 1067.625 L 194.597656 1067.625 Z M 318.445312 1069.6875 L 314.316406 1069.6875 L 314.316406 1067.625 L 318.445312 1067.625 Z M 169.828125 1069.6875 L 165.699219 1069.6875 L 165.699219 1067.625 L 169.828125 1067.625 Z M 306.058594 1069.6875 L 301.929688 1069.6875 L 301.929688 1067.625 L 306.058594 1067.625 Z M 182.210938 1069.6875 L 178.082031 1069.6875 L 178.082031 1067.625 L 182.210938 1067.625 Z M 33.59375 1069.6875 L 29.464844 1069.6875 L 29.464844 1067.625 L 33.59375 1067.625 Z M 21.210938 1069.6875 L 17.082031 1069.6875 L 17.082031 1067.625 L 21.210938 1067.625 C 21.210938 1067.625 21.210938 1069.6875 21.210938 1069.6875 Z M 95.519531 1069.6875 L 91.390625 1069.6875 L 91.390625 1067.625 L 95.519531 1067.625 C 95.519531 1067.625 95.519531 1069.6875 95.519531 1069.6875 Z M 244.136719 1069.6875 L 240.007812 1069.6875 L 240.007812 1067.625 L 244.136719 1067.625 Z M 293.675781 1069.6875 L 289.546875 1069.6875 L 289.546875 1067.625 L 293.675781 1067.625 Z M 355.597656 1069.6875 L 351.46875 1069.6875 L 351.46875 1067.625 L 355.597656 1067.625 Z M 256.519531 1088.246094 L 252.390625 1088.246094 L 252.390625 1086.183594 L 256.519531 1086.183594 C 256.519531 1086.183594 256.519531 1088.246094 256.519531 1088.246094 Z M 244.136719 1088.246094 L 240.007812 1088.246094 L 240.007812 1086.183594 L 244.136719 1086.183594 Z M 268.90625 1088.246094 L 264.777344 1088.246094 L 264.777344 1086.183594 L 268.90625 1086.183594 Z M 318.445312 1088.246094 L 314.316406 1088.246094 L 314.316406 1086.183594 L 318.445312 1086.183594 Z M 281.289062 1088.246094 L 277.160156 1088.246094 L 277.160156 1086.183594 L 281.289062 1086.183594 Z M 367.984375 1088.246094 L 363.855469 1088.246094 L 363.855469 1086.183594 L 367.984375 1086.183594 Z M 231.75 1088.246094 L 227.621094 1088.246094 L 227.621094 1086.183594 L 231.75 1086.183594 Z M 95.519531 1088.246094 L 91.390625 1088.246094 L 91.390625 1086.183594 L 95.519531 1086.183594 C 95.519531 1086.183594 95.519531 1088.246094 95.519531 1088.246094 Z M 330.828125 1088.246094 L 326.699219 1088.246094 L 326.699219 1086.183594 L 330.828125 1086.183594 C 330.828125 1086.183594 330.828125 1088.246094 330.828125 1088.246094 Z M 83.132812 1088.246094 L 79.003906 1088.246094 L 79.003906 1086.183594 L 83.132812 1086.183594 Z M 343.214844 1088.246094 L 339.085938 1088.246094 L 339.085938 1086.183594 L 343.214844 1086.183594 Z M 107.902344 1088.246094 L 103.773438 1088.246094 L 103.773438 1086.183594 L 107.902344 1086.183594 Z M 219.367188 1088.246094 L 215.238281 1088.246094 L 215.238281 1086.183594 L 219.367188 1086.183594 Z M 145.058594 1088.246094 L 140.929688 1088.246094 L 140.929688 1086.183594 L 145.058594 1086.183594 Z M 355.597656 1088.246094 L 351.46875 1088.246094 L 351.46875 1086.183594 L 355.597656 1086.183594 Z M 21.210938 1088.246094 L 17.082031 1088.246094 L 17.082031 1086.183594 L 21.210938 1086.183594 C 21.210938 1086.183594 21.210938 1088.246094 21.210938 1088.246094 Z M 33.59375 1088.246094 L 29.464844 1088.246094 L 29.464844 1086.183594 L 33.59375 1086.183594 Z M 194.597656 1088.246094 L 190.46875 1088.246094 L 190.46875 1086.183594 L 194.597656 1086.183594 Z M 45.980469 1088.246094 L 41.851562 1088.246094 L 41.851562 1086.183594 L 45.980469 1086.183594 Z M 58.363281 1088.246094 L 54.234375 1088.246094 L 54.234375 1086.183594 L 58.363281 1086.183594 Z M 157.441406 1088.246094 L 153.3125 1088.246094 L 153.3125 1086.183594 L 157.441406 1086.183594 Z M 182.210938 1088.246094 L 178.082031 1088.246094 L 178.082031 1086.183594 L 182.210938 1086.183594 Z M 169.828125 1088.246094 L 165.699219 1088.246094 L 165.699219 1086.183594 L 169.828125 1086.183594 Z M 120.289062 1088.246094 L 116.160156 1088.246094 L 116.160156 1086.183594 L 120.289062 1086.183594 Z M 182.210938 1106.804688 L 178.082031 1106.804688 L 178.082031 1104.742188 L 182.210938 1104.742188 Z M 318.445312 1106.804688 L 314.316406 1106.804688 L 314.316406 1104.742188 L 318.445312 1104.742188 Z M 219.367188 1106.804688 L 215.238281 1106.804688 L 215.238281 1104.742188 L 219.367188 1104.742188 Z M 194.597656 1106.804688 L 190.46875 1106.804688 L 190.46875 1104.742188 L 194.597656 1104.742188 Z M 157.441406 1106.804688 L 153.3125 1106.804688 L 153.3125 1104.742188 L 157.441406 1104.742188 Z M 206.980469 1106.804688 L 202.851562 1106.804688 L 202.851562 1104.742188 L 206.980469 1104.742188 Z M 244.136719 1106.804688 L 240.007812 1106.804688 L 240.007812 1104.742188 L 244.136719 1104.742188 Z M 281.289062 1106.804688 L 277.160156 1106.804688 L 277.160156 1104.742188 L 281.289062 1104.742188 Z M 231.75 1106.804688 L 227.621094 1106.804688 L 227.621094 1104.742188 L 231.75 1104.742188 Z M 268.90625 1106.804688 L 264.777344 1106.804688 L 264.777344 1104.742188 L 268.90625 1104.742188 Z M 256.519531 1106.804688 L 252.390625 1106.804688 L 252.390625 1104.742188 L 256.519531 1104.742188 C 256.519531 1104.742188 256.519531 1106.804688 256.519531 1106.804688 Z M 293.675781 1106.804688 L 289.546875 1106.804688 L 289.546875 1104.742188 L 293.675781 1104.742188 Z M 306.058594 1106.804688 L 301.929688 1106.804688 L 301.929688 1104.742188 L 306.058594 1104.742188 Z M 70.75 1106.804688 L 66.621094 1106.804688 L 66.621094 1104.742188 L 70.75 1104.742188 Z M 83.132812 1106.804688 L 79.003906 1106.804688 L 79.003906 1104.742188 L 83.132812 1104.742188 Z M 380.367188 1106.804688 L 376.238281 1106.804688 L 376.238281 1104.742188 L 380.367188 1104.742188 Z M 45.980469 1106.804688 L 41.851562 1106.804688 L 41.851562 1104.742188 L 45.980469 1104.742188 Z M 95.519531 1106.804688 L 91.390625 1106.804688 L 91.390625 1104.742188 L 95.519531 1104.742188 C 95.519531 1104.742188 95.519531 1106.804688 95.519531 1106.804688 Z M 107.902344 1106.804688 L 103.773438 1106.804688 L 103.773438 1104.742188 L 107.902344 1104.742188 Z M 120.289062 1106.804688 L 116.160156 1106.804688 L 116.160156 1104.742188 L 120.289062 1104.742188 Z M 132.671875 1106.804688 L 128.542969 1106.804688 L 128.542969 1104.742188 L 132.671875 1104.742188 Z M 330.828125 1106.804688 L 326.699219 1106.804688 L 326.699219 1104.742188 L 330.828125 1104.742188 C 330.828125 1104.742188 330.828125 1106.804688 330.828125 1106.804688 Z M 145.058594 1106.804688 L 140.929688 1106.804688 L 140.929688 1104.742188 L 145.058594 1104.742188 Z M 367.984375 1106.804688 L 363.855469 1106.804688 L 363.855469 1104.742188 L 367.984375 1104.742188 Z M 367.984375 1106.804688 " fill-opacity="1" fill-rule="nonzero"/></g><g fill="#ffffff" fill-opacity="1"><g transform="translate(3.233522, 110.238857)"><g><path d="M 50.125 -83.546875 C 58 -83.546875 65.078125 -82.347656 71.359375 -79.953125 C 77.648438 -77.566406 82.644531 -74.046875 86.34375 -69.390625 C 90.039062 -64.742188 91.890625 -59.078125 91.890625 -52.390625 L 66.71875 -52.390625 C 66.71875 -55.816406 65.203125 -58.582031 62.171875 -60.6875 C 59.148438 -62.789062 55.492188 -63.84375 51.203125 -63.84375 C 44.992188 -63.84375 40.296875 -62.191406 37.109375 -58.890625 C 33.929688 -55.585938 32.34375 -50.914062 32.34375 -44.875 L 32.34375 -37.234375 C 32.34375 -31.191406 33.929688 -26.519531 37.109375 -23.21875 C 40.296875 -19.914062 44.992188 -18.265625 51.203125 -18.265625 C 55.492188 -18.265625 59.148438 -19.273438 62.171875 -21.296875 C 65.203125 -23.328125 66.71875 -25.9375 66.71875 -29.125 L 48.09375 -29.125 L 48.09375 -45.828125 L 91.890625 -45.828125 L 91.890625 0 L 78.296875 0 L 75.65625 -8.109375 C 68.1875 -1.742188 58.40625 1.4375 46.3125 1.4375 C 32.695312 1.4375 22.46875 -2.125 15.625 -9.25 C 8.789062 -16.375 5.375 -26.972656 5.375 -41.046875 C 5.375 -54.972656 9.25 -65.535156 17 -72.734375 C 24.757812 -79.941406 35.800781 -83.546875 50.125 -83.546875 Z M 50.125 -83.546875 "/></g></g></g><g fill="#ffffff" fill-opacity="1"><g transform="translate(102.642816, 110.238857)"><g><path d="M 10.03125 0 L 10.03125 -82.109375 L 36.40625 -82.109375 L 36.40625 0 Z M 10.03125 0 "/></g></g></g><g fill="#ffffff" fill-opacity="1"><g transform="translate(149.065644, 110.238857)"><g><path d="M 86.765625 -56.921875 C 86.765625 -51.910156 85.410156 -47.375 82.703125 -43.3125 C 79.992188 -39.257812 76.054688 -36.28125 70.890625 -34.375 L 89.15625 0 L 59.546875 0 L 45 -29.953125 L 35.203125 -29.953125 L 35.203125 0 L 8.828125 0 L 8.828125 -82.109375 L 59.078125 -82.109375 C 64.960938 -82.109375 69.992188 -80.972656 74.171875 -78.703125 C 78.347656 -76.441406 81.488281 -73.378906 83.59375 -69.515625 C 85.707031 -65.660156 86.765625 -61.460938 86.765625 -56.921875 Z M 59.90625 -55.859375 C 59.90625 -58.003906 59.1875 -59.789062 57.75 -61.21875 C 56.320312 -62.65625 54.578125 -63.375 52.515625 -63.375 L 35.203125 -63.375 L 35.203125 -48.21875 L 52.515625 -48.21875 C 54.578125 -48.21875 56.320312 -48.953125 57.75 -50.421875 C 59.1875 -51.890625 59.90625 -53.703125 59.90625 -55.859375 Z M 59.90625 -55.859375 "/></g></g></g><g fill="#ffffff" fill-opacity="1"><g transform="translate(241.911299, 110.238857)"><g><path d="M 8.828125 -82.109375 L 35.203125 -82.109375 L 35.203125 -21 L 77.328125 -21 L 77.328125 0 L 8.828125 0 Z M 8.828125 -82.109375 "/></g></g></g><g fill="#ffffff" fill-opacity="1"><g transform="translate(321.510343, 110.238857)"><g><path d="M 8.828125 -82.109375 L 75.1875 -82.109375 L 75.1875 -62.421875 L 35.203125 -62.421875 L 35.203125 -48.328125 L 69.578125 -48.328125 L 69.578125 -29.484375 L 35.203125 -29.484375 L 35.203125 0 L 8.828125 0 Z M 8.828125 -82.109375 "/></g></g></g><g fill="#ffffff" fill-opacity="1"><g transform="translate(401.109365, 110.238857)"><g><path d="M 86.765625 -56.921875 C 86.765625 -51.910156 85.410156 -47.375 82.703125 -43.3125 C 79.992188 -39.257812 76.054688 -36.28125 70.890625 -34.375 L 89.15625 0 L 59.546875 0 L 45 -29.953125 L 35.203125 -29.953125 L 35.203125 0 L 8.828125 0 L 8.828125 -82.109375 L 59.078125 -82.109375 C 64.960938 -82.109375 69.992188 -80.972656 74.171875 -78.703125 C 78.347656 -76.441406 81.488281 -73.378906 83.59375 -69.515625 C 85.707031 -65.660156 86.765625 -61.460938 86.765625 -56.921875 Z M 59.90625 -55.859375 C 59.90625 -58.003906 59.1875 -59.789062 57.75 -61.21875 C 56.320312 -62.65625 54.578125 -63.375 52.515625 -63.375 L 35.203125 -63.375 L 35.203125 -48.21875 L 52.515625 -48.21875 C 54.578125 -48.21875 56.320312 -48.953125 57.75 -50.421875 C 59.1875 -51.890625 59.90625 -53.703125 59.90625 -55.859375 Z M 59.90625 -55.859375 "/></g></g></g><g fill="#ffffff" fill-opacity="1"><g transform="translate(493.954997, 110.238857)"><g><path d="M 10.03125 0 L 10.03125 -82.109375 L 36.40625 -82.109375 L 36.40625 0 Z M 10.03125 0 "/></g></g></g><g fill="#ffffff" fill-opacity="1"><g transform="translate(540.377814, 110.238857)"><g><path d="M 8.828125 -82.109375 L 79.84375 -82.109375 L 79.84375 -62.421875 L 35.203125 -62.421875 L 35.203125 -51.078125 L 73.390625 -51.078125 L 73.390625 -32.21875 L 35.203125 -32.21875 L 35.203125 -19.6875 L 80.671875 -19.6875 L 80.671875 0 L 8.828125 0 Z M 8.828125 -82.109375 "/></g></g></g><g fill="#ffffff" fill-opacity="1"><g transform="translate(626.540509, 110.238857)"><g><path d="M 67.546875 0 L 33.0625 -39.859375 L 33.0625 0 L 8.828125 0 L 8.828125 -82.109375 L 31.859375 -82.109375 L 66.359375 -41.65625 L 66.359375 -82.109375 L 90.578125 -82.109375 L 90.578125 0 Z M 67.546875 0 "/></g></g></g><g fill="#ffffff" fill-opacity="1"><g transform="translate(725.949815, 110.238857)"><g><path d="M 44.390625 -82.109375 C 73.117188 -82.109375 87.484375 -68.421875 87.484375 -41.046875 C 87.484375 -13.679688 73.117188 0 44.390625 0 L 8.828125 0 L 8.828125 -82.109375 Z M 35.203125 -19.6875 L 43.921875 -19.6875 C 54.972656 -19.6875 60.5 -25.613281 60.5 -37.46875 L 60.5 -44.640625 C 60.5 -56.492188 54.972656 -62.421875 43.921875 -62.421875 L 35.203125 -62.421875 Z M 35.203125 -19.6875 "/></g></g></g><g clip-path="url(#859fc9d962)"><path stroke-linecap="butt" transform="matrix(0.749528, 0, 0, 0.749528, 0.258834, 84.372697)" fill="none" stroke-linejoin="miter" d="M 70.829705 51.556374 C 81.351957 51.556374 90.795405 53.145917 99.16526 56.335426 C 107.561172 59.524934 114.221617 64.225812 119.146594 70.443269 C 124.097629 76.63988 126.573146 84.191511 126.573146 93.108586 L 92.984284 93.108586 C 92.984284 88.548422 90.962177 84.869021 86.923175 82.070384 C 82.878961 79.245688 77.995677 77.83334 72.268111 77.83334 C 64.002489 77.83334 57.743338 80.032642 53.49066 84.441669 C 49.243193 88.845484 47.116854 95.078576 47.116854 103.135734 L 47.116854 113.319231 C 47.116854 121.3816 49.243193 127.614693 53.49066 132.018508 C 57.743338 136.422323 64.002489 138.626837 72.268111 138.626837 C 77.995677 138.626837 82.878961 137.28224 86.923175 134.582623 C 90.962177 131.86216 92.984284 128.391224 92.984284 124.164603 L 68.145723 124.164603 L 68.145723 101.853677 L 126.573146 101.853677 L 126.573146 163.001563 L 108.415877 163.001563 L 104.918883 152.156191 C 94.943851 160.656336 81.883542 164.903803 65.737957 164.903803 C 47.596323 164.903803 33.952313 160.161233 24.805928 150.676092 C 15.680389 141.164893 11.120225 127.015357 11.120225 108.227483 C 11.120225 89.648073 16.290148 75.566287 26.629993 65.976914 C 36.995897 56.361484 51.729134 51.556374 70.829705 51.556374 Z M 149.968089 163.001563 L 149.968089 53.458614 L 185.151706 53.458614 L 185.151706 163.001563 Z M 314.295542 87.042265 C 314.295542 93.728768 312.4819 99.779454 308.854615 105.199534 C 305.253389 110.614403 300.005292 114.590865 293.110325 117.128922 L 317.485051 163.001563 L 277.986216 163.001563 L 258.552101 123.038894 L 245.491792 123.038894 L 245.491792 163.001563 L 210.313387 163.001563 L 210.313387 53.458614 L 277.366034 53.458614 C 285.219938 53.458614 291.932499 54.975194 297.503717 58.008354 C 303.074934 61.010245 307.259861 65.096151 310.058499 70.250439 C 312.883194 75.409939 314.295542 81.007214 314.295542 87.042265 Z M 278.455261 88.480671 C 278.455261 85.603859 277.496324 83.222151 275.578449 81.330334 C 273.686633 79.41246 271.357041 78.453522 268.57925 78.453522 L 245.491792 78.453522 L 245.491792 98.664168 L 268.57925 98.664168 C 271.357041 98.664168 273.686633 97.694807 275.578449 95.750875 C 277.496324 93.780884 278.455261 91.357483 278.455261 88.480671 Z M 334.183067 53.458614 L 369.361473 53.458614 L 369.361473 134.973494 L 425.57396 134.973494 L 425.57396 163.001563 L 334.183067 163.001563 Z M 440.385371 53.458614 L 528.89424 53.458614 L 528.89424 79.73558 L 475.563777 79.73558 L 475.563777 98.513031 L 521.431206 98.513031 L 521.431206 123.659077 L 475.563777 123.659077 L 475.563777 163.001563 L 440.385371 163.001563 Z M 650.564619 87.042265 C 650.564619 93.728768 648.750977 99.779454 645.123692 105.199534 C 641.522466 110.614403 636.274369 114.590865 629.379401 117.128922 L 653.754128 163.001563 L 614.260504 163.001563 L 594.821178 123.038894 L 581.760869 123.038894 L 581.760869 163.001563 L 546.582463 163.001563 L 546.582463 53.458614 L 613.63511 53.458614 C 621.489015 53.458614 628.201576 54.975194 633.772793 58.008354 C 639.34401 61.010245 643.528938 65.096151 646.327575 70.250439 C 649.152271 75.409939 650.564619 81.007214 650.564619 87.042265 Z M 614.724338 88.480671 C 614.724338 85.603859 613.765401 83.222151 611.847526 81.330334 C 609.95571 79.41246 607.626118 78.453522 604.853538 78.453522 L 581.760869 78.453522 L 581.760869 98.664168 L 604.853538 98.664168 C 607.626118 98.664168 609.95571 97.694807 611.847526 95.750875 C 613.765401 93.780884 614.724338 91.357483 614.724338 88.480671 Z M 672.046899 163.001563 L 672.046899 53.458614 L 707.225304 53.458614 L 707.225304 163.001563 Z M 732.392196 53.458614 L 827.123734 53.458614 L 827.123734 79.73558 L 767.570602 79.73558 L 767.570602 94.859688 L 818.52978 94.859688 L 818.52978 120.005734 L 767.570602 120.005734 L 767.570602 136.724597 L 828.249443 136.724597 L 828.249443 163.001563 L 732.392196 163.001563 Z M 925.675386 163.001563 L 879.688089 109.822237 L 879.688089 163.001563 L 847.344803 163.001563 L 847.344803 53.458614 L 878.093335 53.458614 L 924.080631 107.414471 L 924.080631 53.458614 L 956.423918 53.458614 L 956.423918 163.001563 Z M 1027.437393 53.458614 C 1065.742768 53.458614 1084.890244 71.714903 1084.890244 108.227483 C 1084.890244 144.745273 1065.742768 163.001563 1027.437393 163.001563 L 979.975209 163.001563 L 979.975209 53.458614 Z M 1015.153615 136.724597 L 1026.775518 136.724597 C 1041.550448 136.724597 1048.935308 128.818576 1048.935308 113.011746 L 1048.935308 103.448431 C 1048.935308 87.641601 1041.550448 79.73558 1026.775518 79.73558 L 1015.153615 79.73558 Z M 1015.153615 136.724597 " stroke="#ffffff" stroke-width="5.970825" stroke-opacity="1" stroke-miterlimit="4"/></g><g clip-path="url(#a6ab66b906)"><path stroke-linecap="butt" transform="matrix(0.749528, 0, 0, 0.749528, 0.258834, 183.278739)" fill="none" stroke-linejoin="miter" d="M 70.829705 51.55144 C 81.351957 51.55144 90.795405 53.146195 99.16526 56.335703 C 107.561172 59.520001 114.221617 64.22609 119.146594 70.443547 C 124.097629 76.640158 126.573146 84.191789 126.573146 93.108863 L 92.984284 93.108863 C 92.984284 88.5487 90.962177 84.869299 86.923175 82.070662 C 82.878961 79.245966 77.995677 77.833618 72.268111 77.833618 C 64.002489 77.833618 57.743338 80.03292 53.49066 84.441947 C 49.243193 88.845762 47.116854 95.078854 47.116854 103.136012 L 47.116854 113.319509 C 47.116854 121.381878 49.243193 127.614971 53.49066 132.018786 C 57.743338 136.422601 64.002489 138.627115 72.268111 138.627115 C 77.995677 138.627115 82.878961 137.277306 86.923175 134.582901 C 90.962177 131.862437 92.984284 128.391501 92.984284 124.164881 L 68.145723 124.164881 L 68.145723 101.853955 L 126.573146 101.853955 L 126.573146 163.001841 L 108.415877 163.001841 L 104.918883 152.156469 C 94.943851 160.656614 81.883542 164.904081 65.737957 164.904081 C 47.596323 164.904081 33.952313 160.16151 24.805928 150.67637 C 15.680389 141.165171 11.120225 127.015635 11.120225 108.22776 C 11.120225 89.648351 16.290148 75.561354 26.629993 65.977192 C 36.995897 56.361762 51.729134 51.55144 70.829705 51.55144 Z M 149.968089 163.001841 L 149.968089 53.458892 L 185.151706 53.458892 L 185.151706 163.001841 Z M 314.295542 87.042543 C 314.295542 93.729046 312.4819 99.779731 308.854615 105.199812 C 305.253389 110.61468 300.005292 114.591143 293.110325 117.1292 L 317.485051 163.001841 L 277.986216 163.001841 L 258.552101 123.039172 L 245.491792 123.039172 L 245.491792 163.001841 L 210.313387 163.001841 L 210.313387 53.458892 L 277.366034 53.458892 C 285.219938 53.458892 291.932499 54.975472 297.503717 58.008632 C 303.074934 61.010523 307.259861 65.096429 310.058499 70.250717 C 312.883194 75.410217 314.295542 81.007492 314.295542 87.042543 Z M 278.455261 88.480949 C 278.455261 85.604137 277.496324 83.222429 275.578449 81.330612 C 273.686633 79.412738 271.357041 78.4538 268.57925 78.4538 L 245.491792 78.4538 L 245.491792 98.664446 L 268.57925 98.664446 C 271.357041 98.664446 273.686633 97.695085 275.578449 95.751153 C 277.496324 93.781162 278.455261 91.357761 278.455261 88.480949 Z M 334.183067 53.458892 L 369.361473 53.458892 L 369.361473 134.973772 L 425.57396 134.973772 L 425.57396 163.001841 L 334.183067 163.001841 Z M 440.385371 53.458892 L 528.89424 53.458892 L 528.89424 79.735858 L 475.563777 79.735858 L 475.563777 98.513309 L 521.431206 98.513309 L 521.431206 123.659354 L 475.563777 123.659354 L 475.563777 163.001841 L 440.385371 163.001841 Z M 650.564619 87.042543 C 650.564619 93.729046 648.750977 99.779731 645.123692 105.199812 C 641.522466 110.61468 636.274369 114.591143 629.379401 117.1292 L 653.754128 163.001841 L 614.260504 163.001841 L 594.821178 123.039172 L 581.760869 123.039172 L 581.760869 163.001841 L 546.582463 163.001841 L 546.582463 53.458892 L 613.63511 53.458892 C 621.489015 53.458892 628.201576 54.975472 633.772793 58.008632 C 639.34401 61.010523 643.528938 65.096429 646.327575 70.250717 C 649.152271 75.410217 650.564619 81.007492 650.564619 87.042543 Z M 614.724338 88.480949 C 614.724338 85.604137 613.765401 83.222429 611.847526 81.330612 C 609.95571 79.412738 607.626118 78.4538 604.853538 78.4538 L 581.760869 78.4538 L 581.760869 98.664446 L 604.853538 98.664446 C 607.626118 98.664446 609.95571 97.695085 611.847526 95.751153 C 613.765401 93.781162 614.724338 91.357761 614.724338 88.480949 Z M 672.046899 163.001841 L 672.046899 53.458892 L 707.225304 53.458892 L 707.225304 163.001841 Z M 732.392196 53.458892 L 827.123734 53.458892 L 827.123734 79.735858 L 767.570602 79.735858 L 767.570602 94.854755 L 818.52978 94.854755 L 818.52978 120.006012 L 767.570602 120.006012 L 767.570602 136.724875 L 828.249443 136.724875 L 828.249443 163.001841 L 732.392196 163.001841 Z M 925.675386 163.001841 L 879.688089 109.822515 L 879.688089 163.001841 L 847.344803 163.001841 L 847.344803 53.458892 L 878.093335 53.458892 L 924.080631 107.414748 L 924.080631 53.458892 L 956.423918 53.458892 L 956.423918 163.001841 Z M 1027.437393 53.458892 C 1065.742768 53.458892 1084.890244 71.715181 1084.890244 108.22776 C 1084.890244 144.745551 1065.742768 163.001841 1027.437393 163.001841 L 979.975209 163.001841 L 979.975209 53.458892 Z M 1015.153615 136.724875 L 1026.775518 136.724875 C 1041.550448 136.724875 1048.935308 128.818854 1048.935308 113.012024 L 1048.935308 103.448709 C 1048.935308 87.641879 1041.550448 79.735858 1026.775518 79.735858 L 1015.153615 79.735858 Z M 1015.153615 136.724875 " stroke="#ffffff" stroke-width="5.970825" stroke-opacity="1" stroke-miterlimit="4"/></g></svg>