<svg xmlns="http://www.w3.org/2000/svg" xmlns:xlink="http://www.w3.org/1999/xlink" width="1040" zoomAndPan="magnify" viewBox="0 0 780 74.999997" height="100" preserveAspectRatio="xMidYMid meet" version="1.0"><defs><g/><clipPath id="b066f250bf"><path d="M 0 0 L 152.25 0 L 152.25 74.25 L 0 74.25 Z M 0 0 " clip-rule="nonzero"/></clipPath></defs><g clip-path="url(#b066f250bf)"><path fill="#000000" d="M 76.003906 4.617188 C 85.941406 4.617188 95.578125 5.558594 104.667969 7.445312 C 113.335938 9.238281 121.117188 11.789062 127.742188 15.042969 C 134.066406 18.144531 139.207031 21.855469 142.578125 25.746094 C 145.800781 29.484375 147.445312 33.34375 147.445312 37.234375 C 147.445312 41.128906 145.800781 44.988281 142.578125 48.726562 C 139.207031 52.617188 134.066406 56.328125 127.742188 59.429688 C 121.117188 62.683594 113.335938 65.234375 104.667969 67.027344 C 95.609375 68.914062 85.972656 69.855469 76.003906 69.855469 C 66.03125 69.855469 56.425781 68.914062 47.335938 67.027344 C 38.667969 65.234375 30.886719 62.683594 24.261719 59.429688 C 17.9375 56.328125 12.796875 52.617188 9.425781 48.726562 C 6.203125 44.988281 4.558594 41.128906 4.558594 37.234375 C 4.558594 33.34375 6.203125 29.484375 9.425781 25.746094 C 12.796875 21.855469 17.9375 18.144531 24.261719 15.042969 C 30.886719 11.789062 38.667969 9.238281 47.335938 7.445312 C 56.425781 5.589844 66.0625 4.617188 76.003906 4.617188 M 76.003906 0.0546875 C 34.019531 0.0546875 0 16.714844 0 37.234375 C 0 57.757812 34.019531 74.417969 76.003906 74.417969 C 117.984375 74.417969 152.003906 57.789062 152.003906 37.234375 C 152.003906 16.714844 117.984375 0.0546875 76.003906 0.0546875 Z M 76.003906 0.0546875 " fill-opacity="1" fill-rule="nonzero"/></g><path stroke-linecap="round" transform="matrix(0.75, 0, 0, 0.75, 162.334162, 34.241971)" fill="none" stroke-linejoin="miter" d="M 4.002368 4.000289 L 623.471169 4.000289 " stroke="#000000" stroke-width="8" stroke-opacity="1" stroke-miterlimit="4"/><g fill="#000000" fill-opacity="1"><g transform="translate(650.598538, 45.866969)"><g><path d="M 8.25 0 L 8.25 -26.453125 L 2.960938 -26.453125 L 2.960938 0 Z M 8.25 0 "/></g></g></g><g fill="#000000" fill-opacity="1"><g transform="translate(661.845345, 45.866969)"><g><path d="M 12.617188 0 L 12.617188 -21.164062 L 19.203125 -21.164062 L 19.203125 -26.417969 L 0.738281 -26.417969 L 0.738281 -21.164062 L 7.324219 -21.164062 L 7.324219 0 Z M 12.617188 0 "/></g></g></g><g fill="#000000" fill-opacity="1"><g transform="translate(682.082194, 45.866969)"><g/></g></g><g fill="#000000" fill-opacity="1"><g transform="translate(692.589071, 45.866969)"><g><path d="M 2.960938 0 L 13.429688 0 C 17.722656 0 21.238281 -3.515625 21.238281 -7.953125 C 21.238281 -10.027344 20.238281 -12.0625 18.5 -13.246094 C 20.164062 -14.390625 20.867188 -16.464844 20.941406 -18.460938 C 21.050781 -23.125 18.128906 -26.488281 13.429688 -26.488281 L 2.960938 -26.488281 Z M 8.289062 -21.199219 L 12.984375 -21.199219 C 14.503906 -21.199219 15.429688 -20.015625 15.429688 -18.535156 C 15.429688 -17.09375 14.503906 -15.871094 12.984375 -15.871094 L 8.289062 -15.871094 Z M 8.289062 -10.582031 L 12.984375 -10.582031 C 14.503906 -10.582031 15.648438 -9.433594 15.648438 -7.953125 C 15.648438 -6.472656 14.503906 -5.289062 12.984375 -5.289062 L 8.289062 -5.289062 Z M 8.289062 -10.582031 "/></g></g></g><g fill="#000000" fill-opacity="1"><g transform="translate(715.563621, 45.866969)"><g><path d="M 15.6875 0.371094 C 33.890625 0.371094 33.890625 -26.898438 15.6875 -26.898438 C -2.515625 -26.898438 -2.515625 0.371094 15.6875 0.371094 Z M 15.6875 -5.105469 C 5.105469 -5.105469 5.105469 -21.457031 15.6875 -21.457031 C 26.269531 -21.457031 26.269531 -5.105469 15.6875 -5.105469 Z M 15.6875 -5.105469 "/></g></g></g><g fill="#000000" fill-opacity="1"><g transform="translate(746.899282, 45.866969)"><g><path d="M 9.433594 0 L 14.6875 0 L 14.6875 -11.914062 L 23.9375 -26.453125 L 17.460938 -26.453125 L 12.0625 -17.351562 L 6.660156 -26.453125 L 0.222656 -26.453125 L 9.433594 -11.914062 Z M 9.433594 0 "/></g></g></g><g fill="#000000" fill-opacity="1"><g transform="translate(31.138808, 50.366969)"><g><path d="M 19.496094 0 L 19.496094 -9.691406 L 16.761719 -12.394531 L 19.496094 -15.132812 L 19.496094 -24.675781 L 0.960938 -24.675781 L 0.960938 0 Z M 13.320312 -15.132812 L 7.140625 -15.132812 L 7.140625 -19.015625 L 13.320312 -19.015625 Z M 13.320312 -5.625 L 7.140625 -5.625 L 7.140625 -9.691406 L 13.320312 -9.691406 Z M 13.320312 -5.625 "/></g></g></g><g fill="#000000" fill-opacity="1"><g transform="translate(51.597627, 50.366969)"><g><path d="M 19.496094 0 L 19.496094 -24.675781 L 13.320312 -24.675781 L 13.320312 -5.625 L 7.140625 -5.625 L 7.140625 -24.675781 L 0.960938 -24.675781 L 0.960938 0 Z M 19.496094 0 "/></g></g></g><g fill="#000000" fill-opacity="1"><g transform="translate(72.056445, 50.366969)"><g><path d="M 19.277344 0 L 19.277344 -24.675781 L 13.058594 -24.675781 L 13.058594 -5.625 L 6.917969 -5.625 L 6.917969 -9.691406 L 0.738281 -9.691406 L 0.738281 0 Z M 19.277344 0 "/></g></g></g><g fill="#000000" fill-opacity="1"><g transform="translate(92.293295, 50.366969)"><g><path d="M 7.140625 0 L 7.140625 -24.675781 L 0.960938 -24.675781 L 0.960938 0 Z M 7.140625 0 "/></g></g></g><g fill="#000000" fill-opacity="1"><g transform="translate(100.395436, 50.366969)"><g><path d="M 19.496094 0 L 19.496094 -24.675781 L 13.320312 -24.675781 L 13.320312 -15.132812 L 7.140625 -15.132812 L 7.140625 -24.675781 L 0.960938 -24.675781 L 0.960938 0 L 7.140625 0 L 7.140625 -9.691406 L 13.320312 -9.691406 L 13.320312 0 Z M 19.496094 0 "/></g></g></g></svg>