<svg xmlns="http://www.w3.org/2000/svg" xmlns:xlink="http://www.w3.org/1999/xlink" width="1063" zoomAndPan="magnify" viewBox="0 0 797.25 962.249993" height="1283" preserveAspectRatio="xMidYMid meet" version="1.0"><defs><clipPath id="d1dd931109"><path d="M 91.546875 0.0820312 L 705.21875 0.0820312 L 705.21875 961.066406 L 91.546875 961.066406 Z M 91.546875 0.0820312 " clip-rule="nonzero"/></clipPath><clipPath id="731478eda0"><path d="M 0 29.226562 L 191.070312 29.226562 L 191.070312 254 L 0 254 Z M 0 29.226562 " clip-rule="nonzero"/></clipPath><clipPath id="3020cd3087"><path d="M 604.6875 600.113281 L 795.757812 600.113281 L 795.757812 824.898438 L 604.6875 824.898438 Z M 604.6875 600.113281 " clip-rule="nonzero"/></clipPath></defs><g clip-path="url(#d1dd931109)"><path stroke-linecap="butt" transform="matrix(0.749295, 0, 0, 0.749295, 91.546245, 0.0832522)" fill="none" stroke-linejoin="miter" d="M 0.000840607 -0.00162946 L 819.156174 -0.00162946 L 819.156174 1282.516298 L 0.000840607 1282.516298 Z M 0.000840607 -0.00162946 " stroke="#084eaf" stroke-width="24" stroke-opacity="1" stroke-miterlimit="4"/></g><g clip-path="url(#731478eda0)"><path fill="#084eaf" d="M 191.117188 141.367188 C 143.335938 141.367188 95.988281 141.609375 95.988281 31.277344 L 95.558594 29.308594 L 95.980469 31.277344 C 95.980469 141.367188 52.453125 141.367188 0 141.367188 L 0 141.609375 C 50.636719 141.609375 95.980469 164.890625 95.980469 252.992188 L 95.558594 253.664062 L 95.988281 252.992188 C 95.988281 157.589844 143.078125 141.609375 191.117188 141.609375 L 190.042969 141.367188 Z M 191.117188 141.367188 " fill-opacity="1" fill-rule="evenodd"/></g><g clip-path="url(#3020cd3087)"><path fill="#084eaf" d="M 795.804688 712.25 C 748.027344 712.25 700.675781 712.492188 700.675781 602.160156 L 700.246094 600.195312 L 700.667969 602.160156 C 700.667969 712.25 657.140625 712.25 604.6875 712.25 L 604.6875 712.492188 C 655.324219 712.492188 700.667969 735.773438 700.667969 823.875 L 700.246094 824.546875 L 700.675781 823.875 C 700.675781 728.472656 747.765625 712.492188 795.804688 712.492188 L 794.730469 712.25 Z M 795.804688 712.25 " fill-opacity="1" fill-rule="evenodd"/></g></svg>