<svg xmlns="http://www.w3.org/2000/svg" xmlns:xlink="http://www.w3.org/1999/xlink" width="1096" zoomAndPan="magnify" viewBox="0 0 822 1190.249948" height="1587" preserveAspectRatio="xMidYMid meet" version="1.0"><defs><g/><clipPath id="fd89a266ce"><path d="M 0.640625 966.734375 L 510.316406 966.734375 L 510.316406 1151.867188 L 0.640625 1151.867188 Z M 0.640625 966.734375 " clip-rule="nonzero"/></clipPath><clipPath id="c1dd4c1707"><path d="M 530.96875 967 L 803 967 L 803 1152 L 530.96875 1152 Z M 530.96875 967 " clip-rule="nonzero"/></clipPath><clipPath id="8cb9d22ab8"><path d="M 0.257812 97 L 821.738281 97 L 821.738281 234 L 0.257812 234 Z M 0.257812 97 " clip-rule="nonzero"/></clipPath><clipPath id="02d315432f"><path d="M 0.257812 196 L 821.738281 196 L 821.738281 333 L 0.257812 333 Z M 0.257812 196 " clip-rule="nonzero"/></clipPath></defs><g clip-path="url(#fd89a266ce)"><path fill="#ffffff" d="M 90.855469 1035.882812 L 90.855469 966.898438 L 0.785156 966.898438 L 0.785156 1035.882812 Z M 85.476562 1030.5 L 69.875 1030.5 C 76.390625 1027.332031 81.796875 1022.941406 85.476562 1017.722656 Z M 45.820312 1030.5 C 23.957031 1030.5 6.167969 1017.441406 6.167969 1001.390625 C 6.167969 985.339844 23.957031 972.28125 45.820312 972.28125 C 67.6875 972.28125 85.476562 985.339844 85.476562 1001.390625 C 85.476562 1017.441406 67.6875 1030.5 45.820312 1030.5 Z M 85.476562 972.28125 L 85.476562 985.058594 C 81.796875 979.839844 76.390625 975.449219 69.875 972.28125 C 69.875 972.28125 85.476562 972.28125 85.476562 972.28125 Z M 6.167969 972.28125 L 21.769531 972.28125 C 15.253906 975.449219 9.847656 979.839844 6.167969 985.058594 Z M 6.167969 1030.5 L 6.167969 1017.722656 C 9.847656 1022.941406 15.253906 1027.332031 21.769531 1030.5 Z M 195.003906 1035.882812 L 195.003906 966.898438 L 104.933594 966.898438 L 104.933594 1035.882812 Z M 189.621094 1030.5 L 174.019531 1030.5 C 180.535156 1027.332031 185.941406 1022.941406 189.621094 1017.722656 Z M 149.96875 1030.5 C 128.101562 1030.5 110.3125 1017.441406 110.3125 1001.390625 C 110.3125 985.339844 128.101562 972.28125 149.96875 972.28125 C 171.832031 972.28125 189.621094 985.339844 189.621094 1001.390625 C 189.621094 1017.441406 171.832031 1030.5 149.96875 1030.5 Z M 189.621094 972.28125 L 189.621094 985.058594 C 185.941406 979.839844 180.535156 975.449219 174.019531 972.28125 C 174.019531 972.28125 189.621094 972.28125 189.621094 972.28125 Z M 110.3125 972.28125 L 125.914062 972.28125 C 119.398438 975.449219 113.992188 979.839844 110.3125 985.058594 Z M 110.3125 1030.5 L 110.3125 1017.722656 C 113.992188 1022.941406 119.398438 1027.332031 125.914062 1030.5 Z M 299.144531 966.898438 L 209.074219 966.898438 L 209.074219 1035.882812 L 299.144531 1035.882812 Z M 249.628906 1001.390625 L 214.457031 1027.804688 L 214.457031 974.976562 Z M 219.832031 972.28125 L 288.390625 972.28125 L 254.109375 998.023438 Z M 254.109375 1004.757812 L 288.390625 1030.5 L 219.832031 1030.5 Z M 258.59375 1001.390625 L 293.765625 974.976562 L 293.765625 1027.804688 Z M 405.652344 1035.882812 L 405.652344 966.898438 L 315.582031 966.898438 L 315.582031 1035.882812 Z M 400.273438 1030.5 L 384.671875 1030.5 C 391.1875 1027.332031 396.59375 1022.941406 400.273438 1017.722656 Z M 360.621094 1030.5 C 338.753906 1030.5 320.964844 1017.441406 320.964844 1001.390625 C 320.964844 985.339844 338.753906 972.28125 360.621094 972.28125 C 382.484375 972.28125 400.273438 985.339844 400.273438 1001.390625 C 400.273438 1017.441406 382.484375 1030.5 360.621094 1030.5 Z M 400.273438 972.28125 L 400.273438 985.058594 C 396.59375 979.839844 391.1875 975.449219 384.671875 972.28125 C 384.671875 972.28125 400.273438 972.28125 400.273438 972.28125 Z M 320.964844 972.28125 L 336.566406 972.28125 C 330.050781 975.449219 324.644531 979.839844 320.964844 985.0625 Z M 320.964844 1030.5 L 320.964844 1017.71875 C 324.644531 1022.941406 330.050781 1027.332031 336.566406 1030.5 C 336.566406 1030.5 320.964844 1030.5 320.964844 1030.5 Z M 510.234375 966.898438 L 420.164062 966.898438 L 420.164062 1035.882812 L 510.234375 1035.882812 C 510.234375 1035.882812 510.234375 966.898438 510.234375 966.898438 Z M 460.722656 1001.390625 L 425.546875 1027.808594 L 425.546875 974.972656 Z M 430.917969 972.28125 L 499.484375 972.28125 L 465.199219 998.027344 Z M 465.199219 1004.753906 L 499.484375 1030.5 L 430.917969 1030.5 Z M 469.679688 1001.390625 L 504.855469 974.972656 L 504.855469 1027.808594 Z M 510.234375 1151.902344 L 510.234375 1055.472656 L 0.640625 1055.472656 L 0.640625 1151.902344 Z M 19.105469 1129.226562 L 24.257812 1129.226562 L 24.257812 1126.535156 L 20.875 1126.535156 L 24.148438 1121.554688 L 35.019531 1127.933594 L 35.019531 1129.226562 L 37.222656 1129.226562 L 56.285156 1140.40625 L 67.3125 1128.859375 L 67.3125 1129.226562 L 72.695312 1129.226562 L 72.695312 1126.535156 L 69.53125 1126.535156 L 124.222656 1069.265625 L 149.71875 1126.035156 L 164.183594 1105.023438 L 164.183594 1105.03125 L 169.566406 1105.03125 L 169.566406 1102.339844 L 166.03125 1102.339844 L 180.832031 1080.839844 L 180.933594 1080.839844 L 210.683594 1144.628906 L 227.980469 1111.019531 L 239.105469 1122.671875 L 265.992188 1105.03125 L 266.4375 1105.03125 L 266.4375 1104.738281 L 321.4375 1068.652344 L 329.957031 1078.148438 L 325.636719 1078.148438 L 325.636719 1080.839844 L 331.019531 1080.839844 L 331.019531 1079.332031 L 338.046875 1087.167969 L 347.136719 1080.839844 L 347.164062 1080.839844 L 347.164062 1080.820312 L 348.753906 1079.710938 L 357.226562 1089.804688 L 375.191406 1102.339844 L 374.074219 1102.339844 L 374.074219 1105.03125 L 379.046875 1105.03125 L 387.011719 1110.59375 L 390.921875 1105.03125 L 395.601562 1105.03125 L 395.601562 1102.339844 L 392.816406 1102.339844 L 400.996094 1090.707031 L 414.300781 1098.171875 L 430.886719 1126.660156 L 453.402344 1139.578125 L 457.800781 1129.226562 L 460.179688 1129.226562 L 460.179688 1126.535156 L 458.945312 1126.535156 L 482.628906 1070.792969 L 492.457031 1102.339844 L 487.089844 1102.339844 L 487.089844 1105.03125 L 492.472656 1105.03125 L 492.472656 1102.382812 L 507.0625 1149.214844 L 5.972656 1149.214844 Z M 507.542969 1141.722656 L 503.652344 1129.226562 L 507.542969 1129.226562 Z M 507.542969 1058.160156 L 507.542969 1078.148438 L 503.234375 1078.148438 L 503.234375 1080.839844 L 507.542969 1080.839844 L 507.542969 1102.339844 L 503.234375 1102.339844 L 503.234375 1105.03125 L 507.542969 1105.03125 L 507.542969 1126.535156 L 503.234375 1126.535156 L 503.234375 1127.890625 L 488.578125 1080.839844 L 492.472656 1080.839844 L 492.472656 1078.148438 L 487.738281 1078.148438 L 483.015625 1062.992188 L 476.328125 1078.738281 L 476.328125 1078.148438 L 470.945312 1078.148438 L 470.945312 1080.839844 L 475.433594 1080.839844 L 456.019531 1126.535156 L 454.800781 1126.535156 L 454.800781 1129.226562 L 454.875 1129.226562 L 452.109375 1135.738281 L 440.761719 1129.226562 L 444.035156 1129.226562 L 444.035156 1126.535156 L 438.652344 1126.535156 L 438.652344 1128.015625 L 432.851562 1124.683594 L 416.253906 1096.1875 L 400.199219 1087.171875 L 386.351562 1106.855469 L 359.171875 1087.9375 L 349.230469 1076.097656 L 346.285156 1078.148438 L 341.78125 1078.148438 L 341.78125 1080.839844 L 342.421875 1080.839844 L 338.464844 1083.597656 L 321.894531 1065.128906 L 298.726562 1080.332031 L 298.726562 1078.148438 L 293.347656 1078.148438 L 293.347656 1080.839844 L 297.953125 1080.839844 L 265.1875 1102.339844 L 261.054688 1102.339844 L 261.054688 1105.03125 L 261.085938 1105.03125 L 239.503906 1119.191406 L 227.316406 1106.425781 L 216.96875 1126.535156 L 212.621094 1126.535156 L 212.621094 1129.226562 L 215.585938 1129.226562 L 210.804688 1138.519531 L 183.902344 1080.839844 L 185.710938 1080.839844 L 185.710938 1078.148438 L 182.648438 1078.148438 L 181.34375 1075.351562 L 150.214844 1120.570312 L 132.371094 1080.839844 L 137.273438 1080.839844 L 137.273438 1078.148438 L 131.894531 1078.148438 L 131.894531 1079.78125 L 125.039062 1064.515625 L 88.839844 1102.421875 L 88.839844 1102.339844 L 83.457031 1102.339844 L 83.457031 1105.03125 L 86.347656 1105.03125 L 55.8125 1137.007812 L 40.402344 1127.96875 L 40.402344 1126.535156 L 37.957031 1126.535156 L 23.300781 1117.941406 L 3.328125 1148.332031 L 3.328125 1129.226562 L 8.113281 1129.226562 L 8.113281 1126.535156 L 3.328125 1126.535156 L 3.328125 1105.03125 L 8.113281 1105.03125 L 8.113281 1102.339844 L 3.328125 1102.339844 L 3.328125 1080.839844 L 8.113281 1080.839844 L 8.113281 1078.148438 L 3.328125 1078.148438 L 3.328125 1058.160156 Z M 427.890625 1080.839844 L 422.507812 1080.839844 L 422.507812 1078.148438 L 427.890625 1078.148438 C 427.890625 1078.148438 427.890625 1080.839844 427.890625 1080.839844 Z M 104.984375 1080.839844 L 99.601562 1080.839844 L 99.601562 1078.148438 L 104.984375 1078.148438 Z M 56.546875 1080.839844 L 51.167969 1080.839844 L 51.167969 1078.148438 L 56.546875 1078.148438 Z M 153.421875 1080.839844 L 148.039062 1080.839844 L 148.039062 1078.148438 L 153.421875 1078.148438 Z M 88.839844 1080.839844 L 83.457031 1080.839844 L 83.457031 1078.148438 L 88.839844 1078.148438 Z M 444.035156 1080.839844 L 438.652344 1080.839844 L 438.652344 1078.148438 L 444.035156 1078.148438 Z M 72.695312 1080.839844 L 67.3125 1080.839844 L 67.3125 1078.148438 L 72.695312 1078.148438 Z M 169.566406 1080.839844 L 164.183594 1080.839844 L 164.183594 1078.148438 L 169.566406 1078.148438 Z M 282.582031 1080.839844 L 277.199219 1080.839844 L 277.199219 1078.148438 L 282.582031 1078.148438 Z M 266.4375 1080.839844 L 261.054688 1080.839844 L 261.054688 1078.148438 L 266.4375 1078.148438 Z M 201.855469 1080.839844 L 196.472656 1080.839844 L 196.472656 1078.148438 L 201.855469 1078.148438 Z M 363.308594 1080.839844 L 357.925781 1080.839844 L 357.925781 1078.148438 L 363.308594 1078.148438 Z M 250.292969 1080.839844 L 244.910156 1080.839844 L 244.910156 1078.148438 L 250.292969 1078.148438 Z M 411.746094 1080.839844 L 406.363281 1080.839844 L 406.363281 1078.148438 L 411.746094 1078.148438 Z M 218 1080.839844 L 212.621094 1080.839844 L 212.621094 1078.148438 L 218 1078.148438 Z M 395.601562 1080.839844 L 390.21875 1080.839844 L 390.21875 1078.148438 L 395.601562 1078.148438 Z M 234.148438 1080.839844 L 228.765625 1080.839844 L 228.765625 1078.148438 L 234.148438 1078.148438 Z M 40.402344 1080.839844 L 35.019531 1080.839844 L 35.019531 1078.148438 L 40.402344 1078.148438 Z M 24.257812 1080.839844 L 18.875 1080.839844 L 18.875 1078.148438 L 24.257812 1078.148438 C 24.257812 1078.148438 24.257812 1080.839844 24.257812 1080.839844 Z M 121.128906 1080.839844 L 115.746094 1080.839844 L 115.746094 1078.148438 L 121.128906 1078.148438 C 121.128906 1078.148438 121.128906 1080.839844 121.128906 1080.839844 Z M 314.875 1080.839844 L 309.492188 1080.839844 L 309.492188 1078.148438 L 314.875 1078.148438 Z M 379.453125 1080.839844 L 374.074219 1080.839844 L 374.074219 1078.148438 L 379.453125 1078.148438 Z M 460.179688 1080.839844 L 454.800781 1080.839844 L 454.800781 1078.148438 L 460.179688 1078.148438 Z M 331.019531 1105.03125 L 325.636719 1105.03125 L 325.636719 1102.339844 L 331.019531 1102.339844 C 331.019531 1102.339844 331.019531 1105.03125 331.019531 1105.03125 Z M 314.875 1105.03125 L 309.492188 1105.03125 L 309.492188 1102.339844 L 314.875 1102.339844 Z M 347.164062 1105.03125 L 341.78125 1105.03125 L 341.78125 1102.339844 L 347.164062 1102.339844 Z M 411.746094 1105.03125 L 406.363281 1105.03125 L 406.363281 1102.339844 L 411.746094 1102.339844 Z M 363.308594 1105.03125 L 357.925781 1105.03125 L 357.925781 1102.339844 L 363.308594 1102.339844 Z M 476.328125 1105.03125 L 470.945312 1105.03125 L 470.945312 1102.339844 L 476.328125 1102.339844 Z M 298.726562 1105.03125 L 293.347656 1105.03125 L 293.347656 1102.339844 L 298.726562 1102.339844 Z M 121.128906 1105.03125 L 115.746094 1105.03125 L 115.746094 1102.339844 L 121.128906 1102.339844 C 121.128906 1102.339844 121.128906 1105.03125 121.128906 1105.03125 Z M 427.890625 1105.03125 L 422.507812 1105.03125 L 422.507812 1102.339844 L 427.890625 1102.339844 C 427.890625 1102.339844 427.890625 1105.03125 427.890625 1105.03125 Z M 104.984375 1105.03125 L 99.601562 1105.03125 L 99.601562 1102.339844 L 104.984375 1102.339844 Z M 444.035156 1105.03125 L 438.652344 1105.03125 L 438.652344 1102.339844 L 444.035156 1102.339844 Z M 137.273438 1105.03125 L 131.894531 1105.03125 L 131.894531 1102.339844 L 137.273438 1102.339844 Z M 282.582031 1105.03125 L 277.199219 1105.03125 L 277.199219 1102.339844 L 282.582031 1102.339844 Z M 185.710938 1105.03125 L 180.328125 1105.03125 L 180.328125 1102.339844 L 185.710938 1102.339844 Z M 460.179688 1105.03125 L 454.800781 1105.03125 L 454.800781 1102.339844 L 460.179688 1102.339844 Z M 24.257812 1105.03125 L 18.875 1105.03125 L 18.875 1102.339844 L 24.257812 1102.339844 C 24.257812 1102.339844 24.257812 1105.03125 24.257812 1105.03125 Z M 40.402344 1105.03125 L 35.019531 1105.03125 L 35.019531 1102.339844 L 40.402344 1102.339844 Z M 250.292969 1105.03125 L 244.910156 1105.03125 L 244.910156 1102.339844 L 250.292969 1102.339844 Z M 56.546875 1105.03125 L 51.167969 1105.03125 L 51.167969 1102.339844 L 56.546875 1102.339844 Z M 72.695312 1105.03125 L 67.3125 1105.03125 L 67.3125 1102.339844 L 72.695312 1102.339844 Z M 201.855469 1105.03125 L 196.472656 1105.03125 L 196.472656 1102.339844 L 201.855469 1102.339844 Z M 234.148438 1105.03125 L 228.765625 1105.03125 L 228.765625 1102.339844 L 234.148438 1102.339844 Z M 218 1105.03125 L 212.621094 1105.03125 L 212.621094 1102.339844 L 218 1102.339844 Z M 153.421875 1105.03125 L 148.039062 1105.03125 L 148.039062 1102.339844 L 153.421875 1102.339844 Z M 234.148438 1129.226562 L 228.765625 1129.226562 L 228.765625 1126.535156 L 234.148438 1126.535156 Z M 411.746094 1129.226562 L 406.363281 1129.226562 L 406.363281 1126.535156 L 411.746094 1126.535156 Z M 282.582031 1129.226562 L 277.199219 1129.226562 L 277.199219 1126.535156 L 282.582031 1126.535156 Z M 250.292969 1129.226562 L 244.910156 1129.226562 L 244.910156 1126.535156 L 250.292969 1126.535156 Z M 201.855469 1129.226562 L 196.472656 1129.226562 L 196.472656 1126.535156 L 201.855469 1126.535156 Z M 266.4375 1129.226562 L 261.054688 1129.226562 L 261.054688 1126.535156 L 266.4375 1126.535156 Z M 314.875 1129.226562 L 309.492188 1129.226562 L 309.492188 1126.535156 L 314.875 1126.535156 Z M 363.308594 1129.226562 L 357.925781 1129.226562 L 357.925781 1126.535156 L 363.308594 1126.535156 Z M 298.726562 1129.226562 L 293.347656 1129.226562 L 293.347656 1126.535156 L 298.726562 1126.535156 Z M 347.164062 1129.226562 L 341.78125 1129.226562 L 341.78125 1126.535156 L 347.164062 1126.535156 Z M 331.019531 1129.226562 L 325.636719 1129.226562 L 325.636719 1126.535156 L 331.019531 1126.535156 C 331.019531 1126.535156 331.019531 1129.226562 331.019531 1129.226562 Z M 379.453125 1129.226562 L 374.074219 1129.226562 L 374.074219 1126.535156 L 379.453125 1126.535156 Z M 395.601562 1129.226562 L 390.21875 1129.226562 L 390.21875 1126.535156 L 395.601562 1126.535156 Z M 88.839844 1129.226562 L 83.457031 1129.226562 L 83.457031 1126.535156 L 88.839844 1126.535156 Z M 104.984375 1129.226562 L 99.601562 1129.226562 L 99.601562 1126.535156 L 104.984375 1126.535156 Z M 492.472656 1129.226562 L 487.089844 1129.226562 L 487.089844 1126.535156 L 492.472656 1126.535156 Z M 56.546875 1129.226562 L 51.167969 1129.226562 L 51.167969 1126.535156 L 56.546875 1126.535156 Z M 121.128906 1129.226562 L 115.746094 1129.226562 L 115.746094 1126.535156 L 121.128906 1126.535156 C 121.128906 1126.535156 121.128906 1129.226562 121.128906 1129.226562 Z M 137.273438 1129.226562 L 131.894531 1129.226562 L 131.894531 1126.535156 L 137.273438 1126.535156 Z M 153.421875 1129.226562 L 148.039062 1129.226562 L 148.039062 1126.535156 L 153.421875 1126.535156 Z M 169.566406 1129.226562 L 164.183594 1129.226562 L 164.183594 1126.535156 L 169.566406 1126.535156 Z M 427.890625 1129.226562 L 422.507812 1129.226562 L 422.507812 1126.535156 L 427.890625 1126.535156 C 427.890625 1126.535156 427.890625 1129.226562 427.890625 1129.226562 Z M 185.710938 1129.226562 L 180.328125 1129.226562 L 180.328125 1126.535156 L 185.710938 1126.535156 Z M 476.328125 1129.226562 L 470.945312 1129.226562 L 470.945312 1126.535156 L 476.328125 1126.535156 Z M 476.328125 1129.226562 " fill-opacity="1" fill-rule="nonzero"/></g><g clip-path="url(#c1dd4c1707)"><path fill="#ffffff" d="M 802.71875 1059.390625 C 802.71875 1045.695312 779.292969 1033.574219 743.585938 1026.347656 C 765.707031 999.878906 776.523438 978.519531 769.835938 970.746094 C 760.109375 959.441406 716.738281 980.3125 667.984375 1018.464844 L 667.984375 992.8125 L 665.703125 992.8125 L 665.703125 1018.519531 C 616.949219 980.367188 573.578125 959.441406 563.851562 970.746094 C 557.164062 978.570312 567.980469 999.929688 590.101562 1026.347656 C 554.394531 1033.574219 530.96875 1045.695312 530.96875 1059.390625 C 530.96875 1073.085938 554.394531 1085.207031 590.101562 1092.433594 C 567.980469 1118.902344 557.164062 1140.261719 563.851562 1148.035156 C 573.578125 1159.339844 616.949219 1138.46875 665.703125 1100.316406 L 665.703125 1126.023438 L 667.984375 1126.023438 L 667.984375 1100.316406 C 716.738281 1138.46875 760.109375 1159.339844 769.835938 1148.035156 C 776.574219 1140.210938 765.707031 1118.902344 743.585938 1092.433594 C 779.292969 1085.207031 802.71875 1073.085938 802.71875 1059.390625 Z M 585.535156 989.441406 C 593.6875 979.984375 625.046875 993.082031 660.808594 1019.441406 C 637.492188 1019.769531 615.753906 1021.78125 596.949219 1025.097656 C 585.261719 1008.464844 580.535156 995.257812 585.535156 989.441406 Z M 661.191406 1023.898438 C 656.40625 1027.757812 651.515625 1031.835938 646.679688 1035.964844 C 638.636719 1042.921875 630.972656 1049.878906 623.796875 1056.726562 C 615.210938 1047.921875 607.710938 1039.335938 601.570312 1031.398438 C 618.199219 1027.050781 638.742188 1024.335938 661.191406 1023.898438 Z M 560.644531 1059.390625 C 560.644531 1048.902344 574.175781 1039.5 595.753906 1033.03125 C 603.199219 1041.507812 611.675781 1050.367188 620.972656 1059.390625 C 611.625 1068.46875 603.199219 1077.328125 595.753906 1085.75 C 574.230469 1079.28125 560.644531 1069.878906 560.644531 1059.390625 Z M 586.351562 1128.632812 C 581.40625 1122.925781 585.914062 1109.992188 597.21875 1093.738281 C 615.917969 1097.054688 637.546875 1099.066406 660.648438 1099.339844 C 625.320312 1125.261719 594.449219 1138.035156 586.351562 1128.632812 Z M 601.785156 1087.488281 C 607.820312 1079.554688 615.265625 1070.96875 623.851562 1062.164062 C 631.027344 1069.011719 638.636719 1075.96875 646.679688 1082.871094 C 651.515625 1087.054688 656.40625 1091.078125 661.191406 1094.9375 C 638.851562 1094.5 618.363281 1091.785156 601.785156 1087.488281 Z M 665.757812 1047 C 665.375 1048.085938 664.996094 1049.171875 664.558594 1050.152344 C 662.765625 1054.171875 658.527344 1056.835938 654.125 1058.25 L 640.753906 1058.25 L 640.753906 1060.53125 L 654.125 1060.53125 C 658.527344 1061.945312 662.765625 1064.609375 664.558594 1068.628906 C 664.996094 1069.609375 665.375 1070.695312 665.703125 1071.78125 L 665.703125 1093.847656 C 660.050781 1089.5 654.289062 1084.773438 648.527344 1079.828125 C 640.644531 1073.03125 633.253906 1066.183594 626.515625 1059.390625 C 633.472656 1052.378906 641.136719 1045.207031 649.398438 1038.140625 C 654.886719 1033.410156 660.375 1028.953125 665.757812 1024.769531 Z M 748.152344 989.441406 C 753.152344 995.257812 748.421875 1008.464844 736.738281 1025.097656 C 717.933594 1021.726562 696.191406 1019.714844 672.875 1019.441406 C 708.636719 993.082031 740 979.984375 748.152344 989.441406 Z M 732.28125 1031.183594 C 726.140625 1039.226562 718.585938 1047.867188 709.886719 1056.78125 C 702.714844 1049.933594 695.050781 1042.976562 687.007812 1036.019531 C 682.117188 1031.835938 677.277344 1027.8125 672.496094 1023.898438 C 694.941406 1024.226562 715.539062 1026.890625 732.28125 1031.183594 Z M 667.984375 1071.835938 C 668.3125 1070.75 668.691406 1069.664062 669.125 1068.683594 C 670.917969 1064.664062 675.160156 1062 679.5625 1060.585938 L 692.929688 1060.585938 L 692.929688 1058.304688 L 679.5625 1058.304688 C 675.160156 1056.890625 670.917969 1054.226562 669.125 1050.207031 C 668.691406 1049.226562 668.3125 1048.140625 667.984375 1047.054688 L 667.984375 1024.933594 C 673.363281 1029.117188 678.855469 1033.574219 684.34375 1038.304688 C 692.550781 1045.367188 700.214844 1052.542969 707.226562 1059.554688 C 700.484375 1066.292969 693.09375 1073.140625 685.214844 1079.988281 C 679.453125 1084.933594 673.691406 1089.609375 668.039062 1094.011719 Z M 687.007812 1082.816406 C 695.050781 1075.914062 702.660156 1068.957031 709.835938 1062.109375 C 718.476562 1071.023438 725.976562 1079.664062 732.0625 1087.707031 C 715.378906 1091.945312 694.832031 1094.609375 672.496094 1094.9375 C 677.277344 1091.023438 682.117188 1087 687.007812 1082.816406 Z M 747.335938 1128.632812 C 739.292969 1138.035156 708.367188 1125.207031 673.039062 1099.339844 C 696.136719 1099.011719 717.769531 1097 736.464844 1093.738281 C 747.714844 1110.046875 752.226562 1122.925781 747.335938 1128.632812 Z M 738.097656 1086.023438 C 730.597656 1077.488281 722.0625 1068.523438 712.660156 1059.390625 C 722.0625 1050.261719 730.648438 1041.292969 738.097656 1032.757812 C 760.164062 1039.28125 774.074219 1048.792969 774.074219 1059.390625 C 774.128906 1069.988281 760.214844 1079.5 738.097656 1086.023438 Z M 738.097656 1086.023438 " fill-opacity="1" fill-rule="nonzero"/></g><g fill="#ffffff" fill-opacity="1"><g transform="translate(3.233522, 110.238857)"><g><path d="M 50.125 -83.546875 C 58 -83.546875 65.078125 -82.347656 71.359375 -79.953125 C 77.648438 -77.566406 82.644531 -74.046875 86.34375 -69.390625 C 90.039062 -64.742188 91.890625 -59.078125 91.890625 -52.390625 L 66.71875 -52.390625 C 66.71875 -55.816406 65.203125 -58.582031 62.171875 -60.6875 C 59.148438 -62.789062 55.492188 -63.84375 51.203125 -63.84375 C 44.992188 -63.84375 40.296875 -62.191406 37.109375 -58.890625 C 33.929688 -55.585938 32.34375 -50.914062 32.34375 -44.875 L 32.34375 -37.234375 C 32.34375 -31.191406 33.929688 -26.519531 37.109375 -23.21875 C 40.296875 -19.914062 44.992188 -18.265625 51.203125 -18.265625 C 55.492188 -18.265625 59.148438 -19.273438 62.171875 -21.296875 C 65.203125 -23.328125 66.71875 -25.9375 66.71875 -29.125 L 48.09375 -29.125 L 48.09375 -45.828125 L 91.890625 -45.828125 L 91.890625 0 L 78.296875 0 L 75.65625 -8.109375 C 68.1875 -1.742188 58.40625 1.4375 46.3125 1.4375 C 32.695312 1.4375 22.46875 -2.125 15.625 -9.25 C 8.789062 -16.375 5.375 -26.972656 5.375 -41.046875 C 5.375 -54.972656 9.25 -65.535156 17 -72.734375 C 24.757812 -79.941406 35.800781 -83.546875 50.125 -83.546875 Z M 50.125 -83.546875 "/></g></g></g><g fill="#ffffff" fill-opacity="1"><g transform="translate(102.642816, 110.238857)"><g><path d="M 10.03125 0 L 10.03125 -82.109375 L 36.40625 -82.109375 L 36.40625 0 Z M 10.03125 0 "/></g></g></g><g fill="#ffffff" fill-opacity="1"><g transform="translate(149.065644, 110.238857)"><g><path d="M 86.765625 -56.921875 C 86.765625 -51.910156 85.410156 -47.375 82.703125 -43.3125 C 79.992188 -39.257812 76.054688 -36.28125 70.890625 -34.375 L 89.15625 0 L 59.546875 0 L 45 -29.953125 L 35.203125 -29.953125 L 35.203125 0 L 8.828125 0 L 8.828125 -82.109375 L 59.078125 -82.109375 C 64.960938 -82.109375 69.992188 -80.972656 74.171875 -78.703125 C 78.347656 -76.441406 81.488281 -73.378906 83.59375 -69.515625 C 85.707031 -65.660156 86.765625 -61.460938 86.765625 -56.921875 Z M 59.90625 -55.859375 C 59.90625 -58.003906 59.1875 -59.789062 57.75 -61.21875 C 56.320312 -62.65625 54.578125 -63.375 52.515625 -63.375 L 35.203125 -63.375 L 35.203125 -48.21875 L 52.515625 -48.21875 C 54.578125 -48.21875 56.320312 -48.953125 57.75 -50.421875 C 59.1875 -51.890625 59.90625 -53.703125 59.90625 -55.859375 Z M 59.90625 -55.859375 "/></g></g></g><g fill="#ffffff" fill-opacity="1"><g transform="translate(241.911299, 110.238857)"><g><path d="M 8.828125 -82.109375 L 35.203125 -82.109375 L 35.203125 -21 L 77.328125 -21 L 77.328125 0 L 8.828125 0 Z M 8.828125 -82.109375 "/></g></g></g><g fill="#ffffff" fill-opacity="1"><g transform="translate(321.510343, 110.238857)"><g><path d="M 8.828125 -82.109375 L 75.1875 -82.109375 L 75.1875 -62.421875 L 35.203125 -62.421875 L 35.203125 -48.328125 L 69.578125 -48.328125 L 69.578125 -29.484375 L 35.203125 -29.484375 L 35.203125 0 L 8.828125 0 Z M 8.828125 -82.109375 "/></g></g></g><g fill="#ffffff" fill-opacity="1"><g transform="translate(401.109365, 110.238857)"><g><path d="M 86.765625 -56.921875 C 86.765625 -51.910156 85.410156 -47.375 82.703125 -43.3125 C 79.992188 -39.257812 76.054688 -36.28125 70.890625 -34.375 L 89.15625 0 L 59.546875 0 L 45 -29.953125 L 35.203125 -29.953125 L 35.203125 0 L 8.828125 0 L 8.828125 -82.109375 L 59.078125 -82.109375 C 64.960938 -82.109375 69.992188 -80.972656 74.171875 -78.703125 C 78.347656 -76.441406 81.488281 -73.378906 83.59375 -69.515625 C 85.707031 -65.660156 86.765625 -61.460938 86.765625 -56.921875 Z M 59.90625 -55.859375 C 59.90625 -58.003906 59.1875 -59.789062 57.75 -61.21875 C 56.320312 -62.65625 54.578125 -63.375 52.515625 -63.375 L 35.203125 -63.375 L 35.203125 -48.21875 L 52.515625 -48.21875 C 54.578125 -48.21875 56.320312 -48.953125 57.75 -50.421875 C 59.1875 -51.890625 59.90625 -53.703125 59.90625 -55.859375 Z M 59.90625 -55.859375 "/></g></g></g><g fill="#ffffff" fill-opacity="1"><g transform="translate(493.954997, 110.238857)"><g><path d="M 10.03125 0 L 10.03125 -82.109375 L 36.40625 -82.109375 L 36.40625 0 Z M 10.03125 0 "/></g></g></g><g fill="#ffffff" fill-opacity="1"><g transform="translate(540.377814, 110.238857)"><g><path d="M 8.828125 -82.109375 L 79.84375 -82.109375 L 79.84375 -62.421875 L 35.203125 -62.421875 L 35.203125 -51.078125 L 73.390625 -51.078125 L 73.390625 -32.21875 L 35.203125 -32.21875 L 35.203125 -19.6875 L 80.671875 -19.6875 L 80.671875 0 L 8.828125 0 Z M 8.828125 -82.109375 "/></g></g></g><g fill="#ffffff" fill-opacity="1"><g transform="translate(626.540509, 110.238857)"><g><path d="M 67.546875 0 L 33.0625 -39.859375 L 33.0625 0 L 8.828125 0 L 8.828125 -82.109375 L 31.859375 -82.109375 L 66.359375 -41.65625 L 66.359375 -82.109375 L 90.578125 -82.109375 L 90.578125 0 Z M 67.546875 0 "/></g></g></g><g fill="#ffffff" fill-opacity="1"><g transform="translate(725.949815, 110.238857)"><g><path d="M 44.390625 -82.109375 C 73.117188 -82.109375 87.484375 -68.421875 87.484375 -41.046875 C 87.484375 -13.679688 73.117188 0 44.390625 0 L 8.828125 0 L 8.828125 -82.109375 Z M 35.203125 -19.6875 L 43.921875 -19.6875 C 54.972656 -19.6875 60.5 -25.613281 60.5 -37.46875 L 60.5 -44.640625 C 60.5 -56.492188 54.972656 -62.421875 43.921875 -62.421875 L 35.203125 -62.421875 Z M 35.203125 -19.6875 "/></g></g></g><g clip-path="url(#8cb9d22ab8)"><path stroke-linecap="butt" transform="matrix(0.749528, 0, 0, 0.749528, 0.258834, 84.372697)" fill="none" stroke-linejoin="miter" d="M 70.829705 51.556374 C 81.351957 51.556374 90.795405 53.145917 99.16526 56.335426 C 107.561172 59.524934 114.221617 64.225812 119.146594 70.443269 C 124.097629 76.63988 126.573146 84.191511 126.573146 93.108586 L 92.984284 93.108586 C 92.984284 88.548422 90.962177 84.869021 86.923175 82.070384 C 82.878961 79.245688 77.995677 77.83334 72.268111 77.83334 C 64.002489 77.83334 57.743338 80.032642 53.49066 84.441669 C 49.243193 88.845484 47.116854 95.078576 47.116854 103.135734 L 47.116854 113.319231 C 47.116854 121.3816 49.243193 127.614693 53.49066 132.018508 C 57.743338 136.422323 64.002489 138.626837 72.268111 138.626837 C 77.995677 138.626837 82.878961 137.28224 86.923175 134.582623 C 90.962177 131.86216 92.984284 128.391224 92.984284 124.164603 L 68.145723 124.164603 L 68.145723 101.853677 L 126.573146 101.853677 L 126.573146 163.001563 L 108.415877 163.001563 L 104.918883 152.156191 C 94.943851 160.656336 81.883542 164.903803 65.737957 164.903803 C 47.596323 164.903803 33.952313 160.161233 24.805928 150.676092 C 15.680389 141.164893 11.120225 127.015357 11.120225 108.227483 C 11.120225 89.648073 16.290148 75.566287 26.629993 65.976914 C 36.995897 56.361484 51.729134 51.556374 70.829705 51.556374 Z M 149.968089 163.001563 L 149.968089 53.458614 L 185.151706 53.458614 L 185.151706 163.001563 Z M 314.295542 87.042265 C 314.295542 93.728768 312.4819 99.779454 308.854615 105.199534 C 305.253389 110.614403 300.005292 114.590865 293.110325 117.128922 L 317.485051 163.001563 L 277.986216 163.001563 L 258.552101 123.038894 L 245.491792 123.038894 L 245.491792 163.001563 L 210.313387 163.001563 L 210.313387 53.458614 L 277.366034 53.458614 C 285.219938 53.458614 291.932499 54.975194 297.503717 58.008354 C 303.074934 61.010245 307.259861 65.096151 310.058499 70.250439 C 312.883194 75.409939 314.295542 81.007214 314.295542 87.042265 Z M 278.455261 88.480671 C 278.455261 85.603859 277.496324 83.222151 275.578449 81.330334 C 273.686633 79.41246 271.357041 78.453522 268.57925 78.453522 L 245.491792 78.453522 L 245.491792 98.664168 L 268.57925 98.664168 C 271.357041 98.664168 273.686633 97.694807 275.578449 95.750875 C 277.496324 93.780884 278.455261 91.357483 278.455261 88.480671 Z M 334.183067 53.458614 L 369.361473 53.458614 L 369.361473 134.973494 L 425.57396 134.973494 L 425.57396 163.001563 L 334.183067 163.001563 Z M 440.385371 53.458614 L 528.89424 53.458614 L 528.89424 79.73558 L 475.563777 79.73558 L 475.563777 98.513031 L 521.431206 98.513031 L 521.431206 123.659077 L 475.563777 123.659077 L 475.563777 163.001563 L 440.385371 163.001563 Z M 650.564619 87.042265 C 650.564619 93.728768 648.750977 99.779454 645.123692 105.199534 C 641.522466 110.614403 636.274369 114.590865 629.379401 117.128922 L 653.754128 163.001563 L 614.260504 163.001563 L 594.821178 123.038894 L 581.760869 123.038894 L 581.760869 163.001563 L 546.582463 163.001563 L 546.582463 53.458614 L 613.63511 53.458614 C 621.489015 53.458614 628.201576 54.975194 633.772793 58.008354 C 639.34401 61.010245 643.528938 65.096151 646.327575 70.250439 C 649.152271 75.409939 650.564619 81.007214 650.564619 87.042265 Z M 614.724338 88.480671 C 614.724338 85.603859 613.765401 83.222151 611.847526 81.330334 C 609.95571 79.41246 607.626118 78.453522 604.853538 78.453522 L 581.760869 78.453522 L 581.760869 98.664168 L 604.853538 98.664168 C 607.626118 98.664168 609.95571 97.694807 611.847526 95.750875 C 613.765401 93.780884 614.724338 91.357483 614.724338 88.480671 Z M 672.046899 163.001563 L 672.046899 53.458614 L 707.225304 53.458614 L 707.225304 163.001563 Z M 732.392196 53.458614 L 827.123734 53.458614 L 827.123734 79.73558 L 767.570602 79.73558 L 767.570602 94.859688 L 818.52978 94.859688 L 818.52978 120.005734 L 767.570602 120.005734 L 767.570602 136.724597 L 828.249443 136.724597 L 828.249443 163.001563 L 732.392196 163.001563 Z M 925.675386 163.001563 L 879.688089 109.822237 L 879.688089 163.001563 L 847.344803 163.001563 L 847.344803 53.458614 L 878.093335 53.458614 L 924.080631 107.414471 L 924.080631 53.458614 L 956.423918 53.458614 L 956.423918 163.001563 Z M 1027.437393 53.458614 C 1065.742768 53.458614 1084.890244 71.714903 1084.890244 108.227483 C 1084.890244 144.745273 1065.742768 163.001563 1027.437393 163.001563 L 979.975209 163.001563 L 979.975209 53.458614 Z M 1015.153615 136.724597 L 1026.775518 136.724597 C 1041.550448 136.724597 1048.935308 128.818576 1048.935308 113.011746 L 1048.935308 103.448431 C 1048.935308 87.641601 1041.550448 79.73558 1026.775518 79.73558 L 1015.153615 79.73558 Z M 1015.153615 136.724597 " stroke="#ffffff" stroke-width="5.970825" stroke-opacity="1" stroke-miterlimit="4"/></g><g clip-path="url(#02d315432f)"><path stroke-linecap="butt" transform="matrix(0.749528, 0, 0, 0.749528, 0.258834, 183.278739)" fill="none" stroke-linejoin="miter" d="M 70.829705 51.55144 C 81.351957 51.55144 90.795405 53.146195 99.16526 56.335703 C 107.561172 59.520001 114.221617 64.22609 119.146594 70.443547 C 124.097629 76.640158 126.573146 84.191789 126.573146 93.108863 L 92.984284 93.108863 C 92.984284 88.5487 90.962177 84.869299 86.923175 82.070662 C 82.878961 79.245966 77.995677 77.833618 72.268111 77.833618 C 64.002489 77.833618 57.743338 80.03292 53.49066 84.441947 C 49.243193 88.845762 47.116854 95.078854 47.116854 103.136012 L 47.116854 113.319509 C 47.116854 121.381878 49.243193 127.614971 53.49066 132.018786 C 57.743338 136.422601 64.002489 138.627115 72.268111 138.627115 C 77.995677 138.627115 82.878961 137.277306 86.923175 134.582901 C 90.962177 131.862437 92.984284 128.391501 92.984284 124.164881 L 68.145723 124.164881 L 68.145723 101.853955 L 126.573146 101.853955 L 126.573146 163.001841 L 108.415877 163.001841 L 104.918883 152.156469 C 94.943851 160.656614 81.883542 164.904081 65.737957 164.904081 C 47.596323 164.904081 33.952313 160.16151 24.805928 150.67637 C 15.680389 141.165171 11.120225 127.015635 11.120225 108.22776 C 11.120225 89.648351 16.290148 75.561354 26.629993 65.977192 C 36.995897 56.361762 51.729134 51.55144 70.829705 51.55144 Z M 149.968089 163.001841 L 149.968089 53.458892 L 185.151706 53.458892 L 185.151706 163.001841 Z M 314.295542 87.042543 C 314.295542 93.729046 312.4819 99.779731 308.854615 105.199812 C 305.253389 110.61468 300.005292 114.591143 293.110325 117.1292 L 317.485051 163.001841 L 277.986216 163.001841 L 258.552101 123.039172 L 245.491792 123.039172 L 245.491792 163.001841 L 210.313387 163.001841 L 210.313387 53.458892 L 277.366034 53.458892 C 285.219938 53.458892 291.932499 54.975472 297.503717 58.008632 C 303.074934 61.010523 307.259861 65.096429 310.058499 70.250717 C 312.883194 75.410217 314.295542 81.007492 314.295542 87.042543 Z M 278.455261 88.480949 C 278.455261 85.604137 277.496324 83.222429 275.578449 81.330612 C 273.686633 79.412738 271.357041 78.4538 268.57925 78.4538 L 245.491792 78.4538 L 245.491792 98.664446 L 268.57925 98.664446 C 271.357041 98.664446 273.686633 97.695085 275.578449 95.751153 C 277.496324 93.781162 278.455261 91.357761 278.455261 88.480949 Z M 334.183067 53.458892 L 369.361473 53.458892 L 369.361473 134.973772 L 425.57396 134.973772 L 425.57396 163.001841 L 334.183067 163.001841 Z M 440.385371 53.458892 L 528.89424 53.458892 L 528.89424 79.735858 L 475.563777 79.735858 L 475.563777 98.513309 L 521.431206 98.513309 L 521.431206 123.659354 L 475.563777 123.659354 L 475.563777 163.001841 L 440.385371 163.001841 Z M 650.564619 87.042543 C 650.564619 93.729046 648.750977 99.779731 645.123692 105.199812 C 641.522466 110.61468 636.274369 114.591143 629.379401 117.1292 L 653.754128 163.001841 L 614.260504 163.001841 L 594.821178 123.039172 L 581.760869 123.039172 L 581.760869 163.001841 L 546.582463 163.001841 L 546.582463 53.458892 L 613.63511 53.458892 C 621.489015 53.458892 628.201576 54.975472 633.772793 58.008632 C 639.34401 61.010523 643.528938 65.096429 646.327575 70.250717 C 649.152271 75.410217 650.564619 81.007492 650.564619 87.042543 Z M 614.724338 88.480949 C 614.724338 85.604137 613.765401 83.222429 611.847526 81.330612 C 609.95571 79.412738 607.626118 78.4538 604.853538 78.4538 L 581.760869 78.4538 L 581.760869 98.664446 L 604.853538 98.664446 C 607.626118 98.664446 609.95571 97.695085 611.847526 95.751153 C 613.765401 93.781162 614.724338 91.357761 614.724338 88.480949 Z M 672.046899 163.001841 L 672.046899 53.458892 L 707.225304 53.458892 L 707.225304 163.001841 Z M 732.392196 53.458892 L 827.123734 53.458892 L 827.123734 79.735858 L 767.570602 79.735858 L 767.570602 94.854755 L 818.52978 94.854755 L 818.52978 120.006012 L 767.570602 120.006012 L 767.570602 136.724875 L 828.249443 136.724875 L 828.249443 163.001841 L 732.392196 163.001841 Z M 925.675386 163.001841 L 879.688089 109.822515 L 879.688089 163.001841 L 847.344803 163.001841 L 847.344803 53.458892 L 878.093335 53.458892 L 924.080631 107.414748 L 924.080631 53.458892 L 956.423918 53.458892 L 956.423918 163.001841 Z M 1027.437393 53.458892 C 1065.742768 53.458892 1084.890244 71.715181 1084.890244 108.22776 C 1084.890244 144.745551 1065.742768 163.001841 1027.437393 163.001841 L 979.975209 163.001841 L 979.975209 53.458892 Z M 1015.153615 136.724875 L 1026.775518 136.724875 C 1041.550448 136.724875 1048.935308 128.818854 1048.935308 113.012024 L 1048.935308 103.448709 C 1048.935308 87.641879 1041.550448 79.735858 1026.775518 79.735858 L 1015.153615 79.735858 Z M 1015.153615 136.724875 " stroke="#ffffff" stroke-width="5.970825" stroke-opacity="1" stroke-miterlimit="4"/></g></svg>